<?xml version="1.0" encoding="UTF-8"?>
<svg width="828px" height="432px" viewBox="0 0 828 432" version="1.1" xmlns="http://www.w3.org/2000/svg" xmlns:xlink="http://www.w3.org/1999/xlink">
    <!-- Generator: Sketch 58 (84663) - https://sketch.com -->
    <title>63</title>
    <desc>Created with Sketch.</desc>
    <g id="63" stroke="none" stroke-width="1" fill="none" fill-rule="evenodd">
        <g id="编组" transform="translate(32.000000, 16.000000)">
            <rect id="矩形" fill="#101216" x="0" y="0" width="764" height="400" rx="8"></rect>
            <path d="M31.536,58 L31.536,35.216 L36.368,35.216 C38.2453427,35.216 39.6693285,35.7279949 40.64,36.752 C41.6106715,37.7760051 42.096,39.2266573 42.096,41.104 L42.096,51.76 C42.096,53.893344 41.5786718,55.4666616 40.544,56.48 C39.5093282,57.4933384 38.021343,58 36.08,58 L31.536,58 Z M34.8,38.288 L34.8,54.928 L36.304,54.928 C37.2213379,54.928 37.8719981,54.698669 38.256,54.24 C38.6400019,53.781331 38.832,53.0613382 38.832,52.08 L38.832,41.104 C38.832,40.2079955 38.6506685,39.5146691 38.288,39.024 C37.9253315,38.5333309 37.2640048,38.288 36.304,38.288 L34.8,38.288 Z M53.376,50.032 L51.776,41.776 L51.712,41.776 L50.112,50.032 L53.376,50.032 Z M45.312,58 L50.4,35.216 L53.12,35.216 L58.208,58 L54.944,58 L53.984,53.104 L49.536,53.104 L48.576,58 L45.312,58 Z M63.088,58 L63.088,48.368 L58.608,35.216 L62.064,35.216 L64.688,44.272 L64.752,44.272 L67.376,35.216 L70.832,35.216 L66.352,48.368 L66.352,58 L63.088,58 Z M71.328,58 L71.328,54.736 L74.592,54.736 L74.592,58 L71.328,58 Z M31.088,69.92 C31.088,69.1519962 31.221332,68.4693363 31.488,67.872 C31.754668,67.2746637 32.1119978,66.7626688 32.56,66.336 C33.0080022,65.9093312 33.5253304,65.5840011 34.112,65.36 C34.6986696,65.1359989 35.3119968,65.024 35.952,65.024 C36.5920032,65.024 37.2053304,65.1359989 37.792,65.36 C38.3786696,65.5840011 38.8959978,65.9093312 39.344,66.336 C39.7920022,66.7626688 40.149332,67.2746637 40.416,67.872 C40.682668,68.4693363 40.816,69.1519962 40.816,69.92 L40.816,83.296 C40.816,84.0640038 40.682668,84.7466637 40.416,85.344 C40.149332,85.9413363 39.7920022,86.4533312 39.344,86.88 C38.8959978,87.3066688 38.3786696,87.6319989 37.792,87.856 C37.2053304,88.0800011 36.5920032,88.192 35.952,88.192 C35.3119968,88.192 34.6986696,88.0800011 34.112,87.856 C33.5253304,87.6319989 33.0080022,87.3066688 32.56,86.88 C32.1119978,86.4533312 31.754668,85.9413363 31.488,85.344 C31.221332,84.7466637 31.088,84.0640038 31.088,83.296 L31.088,69.92 Z M34.352,83.296 C34.352,83.7653357 34.5013318,84.1546651 34.8,84.464 C35.0986682,84.7733349 35.4826643,84.928 35.952,84.928 C36.4213357,84.928 36.8053318,84.7733349 37.104,84.464 C37.4026682,84.1546651 37.552,83.7653357 37.552,83.296 L37.552,69.92 C37.552,69.4506643 37.4026682,69.0613349 37.104,68.752 C36.8053318,68.4426651 36.4213357,68.288 35.952,68.288 C35.4826643,68.288 35.0986682,68.4426651 34.8,68.752 C34.5013318,69.0613349 34.352,69.4506643 34.352,69.92 L34.352,83.296 Z M53.536,65.216 L49.824,74.784 L49.888,74.848 C49.9946672,74.7626662 50.1599989,74.6933336 50.384,74.64 C50.6080011,74.5866664 50.9013315,74.56 51.264,74.56 C51.8400029,74.56 52.3733309,74.6986653 52.864,74.976 C53.3546691,75.2533347 53.7386653,75.6053312 54.016,76.032 C54.1653341,76.2666678 54.2826662,76.5013322 54.368,76.736 C54.4533338,76.9706678 54.5279997,77.2799981 54.592,77.664 L54.6311112,78.081778 C54.6548149,78.3828144 54.6737777,78.7288869 54.688,79.12 L54.702,79.5890006 C54.7100001,79.9210002 54.7153334,80.2916652 54.718,80.7009985 L54.72,81.344 C54.72,82.0906704 54.7093334,82.7039976 54.688,83.184 L54.65728,83.7216006 C54.6393601,83.9712001 54.6176001,84.191999 54.592,84.384 C54.5279997,84.725335 54.4480005,85.0133322 54.352,85.248 C54.2559995,85.4826678 54.1333341,85.7279987 53.984,85.984 C53.5573312,86.6880035 52.9866702,87.2319981 52.272,87.616 C51.5573298,88.0000019 50.7520045,88.192 49.856,88.192 C48.9599955,88.192 48.1600035,87.9946686 47.456,87.6 C46.7519965,87.2053314 46.1866688,86.6666701 45.76,85.984 C45.5893325,85.7279987 45.4560005,85.4826678 45.36,85.248 C45.2639995,85.0133322 45.1946669,84.725335 45.152,84.384 C45.0879997,84.0639984 45.0453334,83.6640024 45.024,83.184 L45.0083265,82.739918 C44.999619,82.4220954 44.9943945,82.0607365 44.9926531,81.6558378 L44.9946122,80.7706111 C44.9980952,80.40838 45.0050612,80.0862048 45.0155102,79.8040822 L45.024,79.6 C45.0453334,79.141331 45.0773331,78.741335 45.12,78.4 C45.1626669,78.0799984 45.2266662,77.786668 45.312,77.52 C45.3973338,77.253332 45.4933328,76.9706682 45.6,76.672 L49.888,65.216 L53.536,65.216 Z M51.456,79.072 C51.456,78.5813309 51.2960016,78.1866682 50.976,77.888 C50.6559984,77.5893318 50.2826688,77.44 49.856,77.44 C49.4293312,77.44 49.0560016,77.5893318 48.736,77.888 C48.4159984,78.1866682 48.256,78.5813309 48.256,79.072 L48.256,83.296 C48.256,83.7866691 48.4159984,84.1813318 48.736,84.48 C49.0560016,84.7786682 49.4293312,84.928 49.856,84.928 C50.2826688,84.928 50.6559984,84.7786682 50.976,84.48 C51.2960016,84.1813318 51.456,83.7866691 51.456,83.296 L51.456,79.072 Z M62.768,74.816 C63.7493382,74.816 64.4266648,74.6986678 64.8,74.464 C65.1733352,74.2293322 65.36,73.6853376 65.36,72.832 L65.36,69.888 C65.36,69.4186643 65.2160014,69.0346682 64.928,68.736 C64.6399986,68.4373318 64.2506691,68.288 63.76,68.288 C63.1839971,68.288 62.7733346,68.4693315 62.528,68.832 C62.2826654,69.1946685 62.16,69.546665 62.16,69.888 L62.16,71.744 L58.896,71.744 L58.896,69.856 C58.896,69.1946634 59.0239987,68.5653363 59.28,67.968 C59.5360013,67.3706637 59.8879978,66.8586688 60.336,66.432 C60.7840022,66.0053312 61.3066637,65.6640013 61.904,65.408 C62.5013363,65.1519987 63.1413299,65.024 63.824,65.024 C64.7200045,65.024 65.4613304,65.1999982 66.048,65.552 C66.6346696,65.9040018 67.0773318,66.2613315 67.376,66.624 C67.5893344,66.8800013 67.7759992,67.1359987 67.936,67.392 C68.0960008,67.6480013 68.2293328,67.9573315 68.336,68.32 C68.528001,69.024 68.624,70.0693264 68.624,71.456 L68.6200817,72.0960013 C68.6135511,72.5988582 68.5988573,73.0255221 68.576,73.376 C68.5439998,73.8666691 68.4640006,74.2719984 68.336,74.592 C68.1866659,74.933335 67.978668,75.2213322 67.712,75.456 C67.445332,75.6906678 67.0773357,75.9466653 66.608,76.224 C67.1200026,76.5440016 67.509332,76.8426653 67.776,77.12 C68.042668,77.3973347 68.2399994,77.7173315 68.368,78.08 C68.4960006,78.4640019 68.5706666,78.9173307 68.592,79.44 L68.6076735,79.9232657 C68.6185579,80.3553738 68.624,80.8609495 68.624,81.44 L68.6200817,82.0486543 C68.6135511,82.5297424 68.5988573,82.9455221 68.576,83.296 C68.5439998,83.7866691 68.4960003,84.1919984 68.432,84.512 C68.3679997,84.853335 68.2826672,85.1413322 68.176,85.376 C68.0693328,85.6106678 67.9306675,85.8559987 67.76,86.112 C67.3546646,86.7093363 66.8373365,87.2053314 66.208,87.6 C65.5786635,87.9946686 64.7520051,88.192 63.728,88.192 C63.2159974,88.192 62.6720029,88.1066675 62.096,87.936 C61.5199971,87.7653325 60.9973357,87.4880019 60.528,87.104 C60.0586643,86.7199981 59.6693349,86.2186698 59.36,85.6 C59.0506651,84.9813302 58.896,84.2240045 58.896,83.328 L58.896,81.472 L62.16,81.472 L62.16,83.168 C62.16,83.6800026 62.3039986,84.1013317 62.592,84.432 C62.8800014,84.7626683 63.2693309,84.928 63.76,84.928 C64.2506691,84.928 64.6399986,84.7626683 64.928,84.432 C65.2160014,84.1013317 65.36,83.6586694 65.36,83.104 L65.36,79.84 C65.36,78.9439955 65.189335,78.3573347 64.848,78.08 C64.655999,77.9093325 64.3946683,77.8026669 64.064,77.76 C63.7333317,77.7173331 63.301336,77.696 62.768,77.696 L62.768,74.816 Z" id="DAY.063" fill="#6E767D" fill-rule="nonzero"></path>
        </g>
        <rect id="矩形" fill="#1D1E1F" x="141" y="90" width="270" height="10"></rect>
        <text id="什么是临界知识" font-family="PingFangSC-Semibold, PingFang SC" font-size="38" font-weight="500" line-spacing="38" fill="#A8B2BA">
            <tspan x="141" y="97">什么是临界知识</tspan>
        </text>
        <text id="知识-能够改变我们行动的信息。-临界知识" font-family="PingFangSC-Regular, PingFang SC" font-size="14" font-weight="normal" line-spacing="20" fill="#A8B2BA">
            <tspan x="62" y="148">知识</tspan>
            <tspan x="62" y="168">能够改变我们行动的信息。</tspan>
            <tspan x="62" y="188"></tspan>
            <tspan x="62" y="208">临界知识</tspan>
            <tspan x="62" y="228">能够更广泛、更深刻指导我们行动的信息。</tspan>
            <tspan x="62" y="248"></tspan>
            <tspan x="62" y="268">临界知识</tspan>
            <tspan x="62" y="288">把表面上看起来不相干的问题在底层盘根错节地联系起来。临界知识是树根，是底基，底基扎实才能枝繁叶茂。</tspan>
        </text>
        <text id="《好好学习：个人知识管理精进指南》-读书" font-family="PingFangSC-Regular, PingFang SC" font-size="14" font-weight="normal" line-spacing="24" fill="#3A4249">
            <tspan x="54" y="353">《好好学习：个人知识管理精进指南》     </tspan>
            <tspan x="54" y="377">  读书笔记 思考总结</tspan>
        </text>
    </g>
</svg>