<?xml version="1.0" encoding="UTF-8"?>
<svg width="828px" height="432px" viewBox="0 0 828 432" version="1.1" xmlns="http://www.w3.org/2000/svg" xmlns:xlink="http://www.w3.org/1999/xlink">
    <!-- Generator: Sketch 58 (84663) - https://sketch.com -->
    <title>62</title>
    <desc>Created with Sketch.</desc>
    <g id="62" stroke="none" stroke-width="1" fill="none" fill-rule="evenodd">
        <g id="编组" transform="translate(32.000000, 16.000000)">
            <rect id="矩形" fill="#101216" x="0" y="0" width="764" height="400" rx="8"></rect>
            <path d="M31.536,58 L31.536,35.216 L36.368,35.216 C38.2453427,35.216 39.6693285,35.7279949 40.64,36.752 C41.6106715,37.7760051 42.096,39.2266573 42.096,41.104 L42.096,51.76 C42.096,53.893344 41.5786718,55.4666616 40.544,56.48 C39.5093282,57.4933384 38.021343,58 36.08,58 L31.536,58 Z M34.8,38.288 L34.8,54.928 L36.304,54.928 C37.2213379,54.928 37.8719981,54.698669 38.256,54.24 C38.6400019,53.781331 38.832,53.0613382 38.832,52.08 L38.832,41.104 C38.832,40.2079955 38.6506685,39.5146691 38.288,39.024 C37.9253315,38.5333309 37.2640048,38.288 36.304,38.288 L34.8,38.288 Z M53.376,50.032 L51.776,41.776 L51.712,41.776 L50.112,50.032 L53.376,50.032 Z M45.312,58 L50.4,35.216 L53.12,35.216 L58.208,58 L54.944,58 L53.984,53.104 L49.536,53.104 L48.576,58 L45.312,58 Z M63.088,58 L63.088,48.368 L58.608,35.216 L62.064,35.216 L64.688,44.272 L64.752,44.272 L67.376,35.216 L70.832,35.216 L66.352,48.368 L66.352,58 L63.088,58 Z M71.328,58 L71.328,54.736 L74.592,54.736 L74.592,58 L71.328,58 Z M31.088,69.92 C31.088,69.1519962 31.221332,68.4693363 31.488,67.872 C31.754668,67.2746637 32.1119978,66.7626688 32.56,66.336 C33.0080022,65.9093312 33.5253304,65.5840011 34.112,65.36 C34.6986696,65.1359989 35.3119968,65.024 35.952,65.024 C36.5920032,65.024 37.2053304,65.1359989 37.792,65.36 C38.3786696,65.5840011 38.8959978,65.9093312 39.344,66.336 C39.7920022,66.7626688 40.149332,67.2746637 40.416,67.872 C40.682668,68.4693363 40.816,69.1519962 40.816,69.92 L40.816,83.296 C40.816,84.0640038 40.682668,84.7466637 40.416,85.344 C40.149332,85.9413363 39.7920022,86.4533312 39.344,86.88 C38.8959978,87.3066688 38.3786696,87.6319989 37.792,87.856 C37.2053304,88.0800011 36.5920032,88.192 35.952,88.192 C35.3119968,88.192 34.6986696,88.0800011 34.112,87.856 C33.5253304,87.6319989 33.0080022,87.3066688 32.56,86.88 C32.1119978,86.4533312 31.754668,85.9413363 31.488,85.344 C31.221332,84.7466637 31.088,84.0640038 31.088,83.296 L31.088,69.92 Z M34.352,83.296 C34.352,83.7653357 34.5013318,84.1546651 34.8,84.464 C35.0986682,84.7733349 35.4826643,84.928 35.952,84.928 C36.4213357,84.928 36.8053318,84.7733349 37.104,84.464 C37.4026682,84.1546651 37.552,83.7653357 37.552,83.296 L37.552,69.92 C37.552,69.4506643 37.4026682,69.0613349 37.104,68.752 C36.8053318,68.4426651 36.4213357,68.288 35.952,68.288 C35.4826643,68.288 35.0986682,68.4426651 34.8,68.752 C34.5013318,69.0613349 34.352,69.4506643 34.352,69.92 L34.352,83.296 Z M53.536,65.216 L49.824,74.784 L49.888,74.848 C49.9946672,74.7626662 50.1599989,74.6933336 50.384,74.64 C50.6080011,74.5866664 50.9013315,74.56 51.264,74.56 C51.8400029,74.56 52.3733309,74.6986653 52.864,74.976 C53.3546691,75.2533347 53.7386653,75.6053312 54.016,76.032 C54.1653341,76.2666678 54.2826662,76.5013322 54.368,76.736 C54.4533338,76.9706678 54.5279997,77.2799981 54.592,77.664 L54.6311112,78.081778 C54.6548149,78.3828144 54.6737777,78.7288869 54.688,79.12 L54.702,79.5890006 C54.7100001,79.9210002 54.7153334,80.2916652 54.718,80.7009985 L54.72,81.344 C54.72,82.0906704 54.7093334,82.7039976 54.688,83.184 L54.65728,83.7216006 C54.6393601,83.9712001 54.6176001,84.191999 54.592,84.384 C54.5279997,84.725335 54.4480005,85.0133322 54.352,85.248 C54.2559995,85.4826678 54.1333341,85.7279987 53.984,85.984 C53.5573312,86.6880035 52.9866702,87.2319981 52.272,87.616 C51.5573298,88.0000019 50.7520045,88.192 49.856,88.192 C48.9599955,88.192 48.1600035,87.9946686 47.456,87.6 C46.7519965,87.2053314 46.1866688,86.6666701 45.76,85.984 C45.5893325,85.7279987 45.4560005,85.4826678 45.36,85.248 C45.2639995,85.0133322 45.1946669,84.725335 45.152,84.384 C45.0879997,84.0639984 45.0453334,83.6640024 45.024,83.184 L45.0083265,82.739918 C44.999619,82.4220954 44.9943945,82.0607365 44.9926531,81.6558378 L44.9946122,80.7706111 C44.9980952,80.40838 45.0050612,80.0862048 45.0155102,79.8040822 L45.024,79.6 C45.0453334,79.141331 45.0773331,78.741335 45.12,78.4 C45.1626669,78.0799984 45.2266662,77.786668 45.312,77.52 C45.3973338,77.253332 45.4933328,76.9706682 45.6,76.672 L49.888,65.216 L53.536,65.216 Z M51.456,79.072 C51.456,78.5813309 51.2960016,78.1866682 50.976,77.888 C50.6559984,77.5893318 50.2826688,77.44 49.856,77.44 C49.4293312,77.44 49.0560016,77.5893318 48.736,77.888 C48.4159984,78.1866682 48.256,78.5813309 48.256,79.072 L48.256,83.296 C48.256,83.7866691 48.4159984,84.1813318 48.736,84.48 C49.0560016,84.7786682 49.4293312,84.928 49.856,84.928 C50.2826688,84.928 50.6559984,84.7786682 50.976,84.48 C51.2960016,84.1813318 51.456,83.7866691 51.456,83.296 L51.456,79.072 Z M58.896,88 L58.896,84.928 L64.784,73.824 C65.0826682,73.2693306 65.2533331,72.7840021 65.296,72.368 C65.3386669,71.9519979 65.36,71.4346698 65.36,70.816 C65.36,70.5386653 65.3546667,70.2453349 65.344,69.936 C65.3333333,69.6266651 65.2746672,69.3546678 65.168,69.12 C65.0613328,68.8853322 64.9013344,68.6880008 64.688,68.528 C64.4746656,68.3679992 64.1653354,68.288 63.76,68.288 C63.2693309,68.288 62.8800014,68.4266653 62.592,68.704 C62.3039986,68.9813347 62.16,69.386664 62.16,69.92 L62.16,71.776 L58.896,71.776 L58.896,69.984 C58.896,69.3013299 59.0239987,68.6613363 59.28,68.064 C59.5360013,67.4666637 59.8879978,66.9440022 60.336,66.496 C60.7626688,66.0479978 61.2746637,65.690668 61.872,65.424 C62.4693363,65.157332 63.1093299,65.024 63.792,65.024 C64.6453376,65.024 65.375997,65.1786651 65.984,65.488 C66.592003,65.7973349 67.0986646,66.218664 67.504,66.752 C67.8880019,67.285336 68.1706658,67.8933299 68.352,68.576 C68.5333342,69.2586701 68.624,69.9839962 68.624,70.752 L68.6204445,71.2764453 C68.6157038,71.6059263 68.6062223,71.8951099 68.592,72.144 C68.5706666,72.5173352 68.5280003,72.874665 68.464,73.216 C68.3999997,73.557335 68.2933341,73.898665 68.144,74.24 L67.9768888,74.6062224 C67.8536299,74.8669626 67.7066675,75.1608873 67.536,75.488 L62.736,84.736 L68.624,84.736 L68.624,88 L58.896,88 Z" id="DAY.062" fill="#6E767D" fill-rule="nonzero"></path>
        </g>
        <rect id="矩形" fill="#1D1E1F" x="141" y="90" width="342" height="10"></rect>
        <text id="九种基本的人格类型" font-family="PingFangSC-Semibold, PingFang SC" font-size="38" font-weight="500" line-spacing="38" fill="#A8B2BA">
            <tspan x="141" y="97">九种基本的人格类型</tspan>
        </text>
        <text id="完美型（完美主义者）具有强烈的是非观念，" font-family="PingFangSC-Regular, PingFang SC" font-size="14" font-weight="normal" line-spacing="22" fill="#A8B2BA">
            <tspan x="62" y="135">完美型（完美主义者）具有强烈的是非观念，对别人要求严格 对自己要求苛刻。</tspan>
            <tspan x="62" y="157">助人型（帮助者）富有同情心，善于感知别人的微妙变化，努力赢得所有人的爱戴。</tspan>
            <tspan x="62" y="179">成就型（成就者）希望成为有较高社会地位受人仰慕的胜利者，害怕被社会抛弃。</tspan>
            <tspan x="62" y="201">自我型（浪漫主义者）极强的感性色彩与浪漫主义情结。喜欢孤芳自赏。</tspan>
            <tspan x="62" y="223">思想型（探索者）极端理智酷爱思考 在心智领域充满洞察力 不会感情用事。</tspan>
            <tspan x="62" y="245">疑惑型（疑惑者）充满矛盾，感到焦虑和疲惫。</tspan>
            <tspan x="62" y="267">活跃型（享乐主义者）经常处于情绪高涨的状态。他们在人群中非常活跃，又精于世故、酷爱享乐。</tspan>
            <tspan x="62" y="289">领袖型（挑战者）拥有较强的能力和自信，敢于挑战人生。富有开拓精神与领导能力，做事果敢豪迈，意志刚强。</tspan>
            <tspan x="62" y="311">和平型（和平缔造者）优秀的调解员。顺应时势，得过且过，给人一种自然得体而情绪淡定的印象。</tspan>
        </text>
        <text id="《九型人格心理学》-读书笔记-思考总结" font-family="PingFangSC-Regular, PingFang SC" font-size="14" font-weight="normal" line-spacing="24" fill="#3A4249">
            <tspan x="54" y="353">《九型人格心理学》     </tspan>
            <tspan x="54" y="377">  读书笔记 思考总结</tspan>
        </text>
    </g>
</svg>