<?xml version="1.0" encoding="UTF-8"?>
<svg width="828px" height="432px" viewBox="0 0 828 432" version="1.1" xmlns="http://www.w3.org/2000/svg" xmlns:xlink="http://www.w3.org/1999/xlink">
    <!-- Generator: Sketch 58 (84663) - https://sketch.com -->
    <title>58</title>
    <desc>Created with Sketch.</desc>
    <g id="58" stroke="none" stroke-width="1" fill="none" fill-rule="evenodd">
        <g id="编组" transform="translate(32.000000, 16.000000)">
            <rect id="矩形" fill="#101216" x="0" y="0" width="764" height="400" rx="8"></rect>
            <path d="M31.536,58 L31.536,35.216 L36.368,35.216 C38.2453427,35.216 39.6693285,35.7279949 40.64,36.752 C41.6106715,37.7760051 42.096,39.2266573 42.096,41.104 L42.096,51.76 C42.096,53.893344 41.5786718,55.4666616 40.544,56.48 C39.5093282,57.4933384 38.021343,58 36.08,58 L31.536,58 Z M34.8,38.288 L34.8,54.928 L36.304,54.928 C37.2213379,54.928 37.8719981,54.698669 38.256,54.24 C38.6400019,53.781331 38.832,53.0613382 38.832,52.08 L38.832,41.104 C38.832,40.2079955 38.6506685,39.5146691 38.288,39.024 C37.9253315,38.5333309 37.2640048,38.288 36.304,38.288 L34.8,38.288 Z M53.376,50.032 L51.776,41.776 L51.712,41.776 L50.112,50.032 L53.376,50.032 Z M45.312,58 L50.4,35.216 L53.12,35.216 L58.208,58 L54.944,58 L53.984,53.104 L49.536,53.104 L48.576,58 L45.312,58 Z M63.088,58 L63.088,48.368 L58.608,35.216 L62.064,35.216 L64.688,44.272 L64.752,44.272 L67.376,35.216 L70.832,35.216 L66.352,48.368 L66.352,58 L63.088,58 Z M71.328,58 L71.328,54.736 L74.592,54.736 L74.592,58 L71.328,58 Z M31.088,69.92 C31.088,69.1519962 31.221332,68.4693363 31.488,67.872 C31.754668,67.2746637 32.1119978,66.7626688 32.56,66.336 C33.0080022,65.9093312 33.5253304,65.5840011 34.112,65.36 C34.6986696,65.1359989 35.3119968,65.024 35.952,65.024 C36.5920032,65.024 37.2053304,65.1359989 37.792,65.36 C38.3786696,65.5840011 38.8959978,65.9093312 39.344,66.336 C39.7920022,66.7626688 40.149332,67.2746637 40.416,67.872 C40.682668,68.4693363 40.816,69.1519962 40.816,69.92 L40.816,83.296 C40.816,84.0640038 40.682668,84.7466637 40.416,85.344 C40.149332,85.9413363 39.7920022,86.4533312 39.344,86.88 C38.8959978,87.3066688 38.3786696,87.6319989 37.792,87.856 C37.2053304,88.0800011 36.5920032,88.192 35.952,88.192 C35.3119968,88.192 34.6986696,88.0800011 34.112,87.856 C33.5253304,87.6319989 33.0080022,87.3066688 32.56,86.88 C32.1119978,86.4533312 31.754668,85.9413363 31.488,85.344 C31.221332,84.7466637 31.088,84.0640038 31.088,83.296 L31.088,69.92 Z M34.352,83.296 C34.352,83.7653357 34.5013318,84.1546651 34.8,84.464 C35.0986682,84.7733349 35.4826643,84.928 35.952,84.928 C36.4213357,84.928 36.8053318,84.7733349 37.104,84.464 C37.4026682,84.1546651 37.552,83.7653357 37.552,83.296 L37.552,69.92 C37.552,69.4506643 37.4026682,69.0613349 37.104,68.752 C36.8053318,68.4426651 36.4213357,68.288 35.952,68.288 C35.4826643,68.288 35.0986682,68.4426651 34.8,68.752 C34.5013318,69.0613349 34.352,69.4506643 34.352,69.92 L34.352,83.296 Z M54.72,65.216 L54.72,68.288 L48.256,68.288 L48.256,74.432 C48.5546682,74.1333318 48.9386643,73.8826677 49.408,73.68 C49.8773357,73.4773323 50.3999971,73.376 50.976,73.376 C52.0853389,73.376 52.9866632,73.7119966 53.68,74.384 C54.3733368,75.0560034 54.72,76.0639933 54.72,77.408 L54.72,83.296 C54.72,84.0640038 54.586668,84.7466637 54.32,85.344 C54.053332,85.9413363 53.6960022,86.4533312 53.248,86.88 C52.7999978,87.3066688 52.2826696,87.6319989 51.696,87.856 C51.1093304,88.0800011 50.4960032,88.192 49.856,88.192 C49.2159968,88.192 48.6026696,88.0800011 48.016,87.856 C47.4293304,87.6319989 46.9120022,87.3066688 46.464,86.88 C46.0159978,86.4533312 45.658668,85.9413363 45.392,85.344 C45.125332,84.7466637 44.992,84.0640038 44.992,83.296 L44.992,82.336 L48.256,82.336 L48.256,83.168 C48.256,83.7226694 48.4106651,84.1546651 48.72,84.464 C49.0293349,84.7733349 49.4293309,84.928 49.92,84.928 C50.4106691,84.928 50.789332,84.7786682 51.056,84.48 C51.322668,84.1813318 51.456,83.765336 51.456,83.232 L51.456,77.888 C51.456,77.4399978 51.3120014,77.0560016 51.024,76.736 C50.7359986,76.4159984 50.3680022,76.256 49.92,76.256 C49.6426653,76.256 49.408001,76.3039995 49.216,76.4 C49.023999,76.4960005 48.8640006,76.6079994 48.736,76.736 C48.6079994,76.8640006 48.5120003,77.0026659 48.448,77.152 L48.256,77.504 L48.256,77.504 L45.376,77.504 L45.376,65.216 L54.72,65.216 Z M63.76,65.024 C64.5066704,65.024 65.1999968,65.1786651 65.84,65.488 C66.4800032,65.7973349 67.0133312,66.2293306 67.44,66.784 C67.6533344,67.0613347 67.8346659,67.3279987 67.984,67.584 C68.1333341,67.8400013 68.2613328,68.1279984 68.368,68.448 C68.4746672,68.7680016 68.5439998,69.1466645 68.576,69.584 C68.6080002,70.0213355 68.624,70.5493302 68.624,71.168 L68.6204445,71.8151121 C68.6157038,72.2228153 68.6062223,72.5831095 68.592,72.896 C68.5706666,73.3653357 68.5066672,73.7813315 68.4,74.144 C68.2933328,74.5066685 68.1280011,74.8319986 67.904,75.12 C67.6799989,75.4080014 67.3760019,75.7119984 66.992,76.032 C67.3760019,76.3306682 67.6799989,76.6293318 67.904,76.928 C68.1280011,77.2266682 68.2933328,77.5786646 68.4,77.984 C68.5066672,78.3893354 68.5706666,78.8853304 68.592,79.472 L68.6135511,80.299755 C68.620517,80.7002982 68.624,81.1443785 68.624,81.632 L68.6200817,82.2053889 C68.6135511,82.6581777 68.5988573,83.0483793 68.576,83.376 C68.5439998,83.834669 68.4960003,84.234665 68.432,84.576 C68.3679997,84.917335 68.2773339,85.2053322 68.16,85.44 C68.0426661,85.6746678 67.8986675,85.9199987 67.728,86.176 C67.3653315,86.7306694 66.8533366,87.2053314 66.192,87.6 C65.5306634,87.9946686 64.7200048,88.192 63.76,88.192 C62.7999952,88.192 61.9893366,87.9946686 61.328,87.6 C60.6666634,87.2053314 60.1546685,86.7306694 59.792,86.176 C59.6213325,85.9199987 59.4773339,85.6746678 59.36,85.44 C59.2426661,85.2053322 59.1520003,84.917335 59.088,84.576 C59.0239997,84.234665 58.9760002,83.834669 58.944,83.376 L58.9204897,82.9528159 C58.9074285,82.6506668 58.8995918,82.3084643 58.8969796,81.9262051 L58.8986122,80.9332231 C58.9029659,80.3781215 58.9127618,79.8910497 58.928,79.472 C58.9493334,78.8853304 59.0133328,78.3893354 59.12,77.984 C59.2266672,77.5786646 59.3919989,77.2266682 59.616,76.928 C59.8400011,76.6293318 60.1439981,76.3306682 60.528,76.032 C60.1439981,75.7119984 59.8400011,75.4080014 59.616,75.12 C59.3919989,74.8319986 59.2266672,74.5066685 59.12,74.144 C59.0133328,73.7813315 58.9493334,73.3653357 58.928,72.896 L58.9102222,72.3911108 C58.9031111,72.1208892 58.8986666,71.8240014 58.8968889,71.5004455 L58.896,71.168 C58.896,70.5493302 58.9173331,70.0213355 58.96,69.584 C59.0026669,69.1466645 59.0773328,68.7680016 59.184,68.448 C59.2906672,68.1279984 59.4133326,67.8400013 59.552,67.584 C59.6906674,67.3279987 59.8666656,67.0613347 60.08,66.784 C60.5066688,66.2293306 61.0399968,65.7973349 61.68,65.488 C62.3200032,65.1786651 63.0133296,65.024 63.76,65.024 Z M63.76,77.248 C63.3333312,77.248 62.9600016,77.4026651 62.64,77.712 C62.3199984,78.0213349 62.16,78.3999978 62.16,78.848 L62.16,78.848 L62.16,83.328 C62.16,83.7760022 62.3199984,84.1546651 62.64,84.464 C62.9600016,84.7733349 63.3333312,84.928 63.76,84.928 C64.1866688,84.928 64.5599984,84.7733349 64.88,84.464 C65.2000016,84.1546651 65.36,83.7760022 65.36,83.328 L65.36,83.328 L65.36,78.848 C65.36,78.3999978 65.2000016,78.0213349 64.88,77.712 C64.5599984,77.4026651 64.1866688,77.248 63.76,77.248 Z M63.76,68.288 C63.3333312,68.288 62.9600016,68.4426651 62.64,68.752 C62.3199984,69.0613349 62.16,69.4399978 62.16,69.888 L62.16,73.216 C62.16,73.6640022 62.3199984,74.0426651 62.64,74.352 C62.9600016,74.6613349 63.3333312,74.816 63.76,74.816 C64.1866688,74.816 64.5599984,74.6613349 64.88,74.352 C65.2000016,74.0426651 65.36,73.6640022 65.36,73.216 L65.36,69.888 C65.36,69.4399978 65.2000016,69.0613349 64.88,68.752 C64.5599984,68.4426651 64.1866688,68.288 63.76,68.288 Z" id="DAY.058" fill="#6E767D" fill-rule="nonzero"></path>
        </g>
        <rect id="矩形" fill="#1D1E1F" x="141" y="90" width="323" height="10"></rect>
        <text id="PSCQA问题分析法" font-family="PingFangSC-Semibold, PingFang SC" font-size="38" font-weight="500" line-spacing="38" fill="#A8B2BA">
            <tspan x="141" y="97">PSCQA问题分析法</tspan>
        </text>
        <text id="Protagonist-人或组织-Sit" font-family="PingFangSC-Semibold, PingFang SC" font-size="14" font-weight="500" line-spacing="26" fill="#A8B2BA">
            <tspan x="62" y="143">Protagonist</tspan>
            <tspan x="139.112" y="143" font-family="PingFangSC-Regular, PingFang SC" font-weight="normal">         人或组织</tspan>
            <tspan x="62" y="169">Situation</tspan>
            <tspan x="121.64" y="169" font-family="PingFangSC-Regular, PingFang SC" font-weight="normal">             情形分析</tspan>
            <tspan x="62" y="195">Complication</tspan>
            <tspan x="150.172" y="195" font-family="PingFangSC-Regular, PingFang SC" font-weight="normal">       矛盾</tspan>
            <tspan x="62" y="221">Question</tspan>
            <tspan x="121.738" y="221" font-family="PingFangSC-Regular, PingFang SC" font-weight="normal">             问题</tspan>
            <tspan x="62" y="247">Answer</tspan>
            <tspan x="111.042" y="247" font-family="PingFangSC-Regular, PingFang SC" font-weight="normal">               答案</tspan>
            <tspan x="62" y="273" font-family="PingFangSC-Regular, PingFang SC" font-weight="normal"></tspan>
            <tspan x="62" y="299" font-family="PingFangSC-Regular, PingFang SC" font-weight="normal">这是对于问题的整个细节的分析。矛盾出现在那里。</tspan>
        </text>
        <text id="《麦肯锡问题分析与解决技巧》-读书笔记" font-family="PingFangSC-Regular, PingFang SC" font-size="14" font-weight="normal" line-spacing="24" fill="#3A4249">
            <tspan x="54" y="353">《麦肯锡问题分析与解决技巧》</tspan>
            <tspan x="54" y="377">  读书笔记 思考总结</tspan>
        </text>
    </g>
</svg>