<?xml version="1.0" encoding="UTF-8"?>
<svg width="828px" height="432px" viewBox="0 0 828 432" version="1.1" xmlns="http://www.w3.org/2000/svg" xmlns:xlink="http://www.w3.org/1999/xlink">
    <!-- Generator: Sketch 58 (84663) - https://sketch.com -->
    <title>99</title>
    <desc>Created with Sketch.</desc>
    <g id="99" stroke="none" stroke-width="1" fill="none" fill-rule="evenodd">
        <g id="编组" transform="translate(32.000000, 16.000000)">
            <rect id="矩形" fill="#101216" x="0" y="0" width="764" height="400" rx="8"></rect>
            <path d="M31.536,58 L31.536,35.216 L36.368,35.216 C38.2453427,35.216 39.6693285,35.7279949 40.64,36.752 C41.6106715,37.7760051 42.096,39.2266573 42.096,41.104 L42.096,51.76 C42.096,53.893344 41.5786718,55.4666616 40.544,56.48 C39.5093282,57.4933384 38.021343,58 36.08,58 L31.536,58 Z M34.8,38.288 L34.8,54.928 L36.304,54.928 C37.2213379,54.928 37.8719981,54.698669 38.256,54.24 C38.6400019,53.781331 38.832,53.0613382 38.832,52.08 L38.832,41.104 C38.832,40.2079955 38.6506685,39.5146691 38.288,39.024 C37.9253315,38.5333309 37.2640048,38.288 36.304,38.288 L34.8,38.288 Z M53.376,50.032 L51.776,41.776 L51.712,41.776 L50.112,50.032 L53.376,50.032 Z M45.312,58 L50.4,35.216 L53.12,35.216 L58.208,58 L54.944,58 L53.984,53.104 L49.536,53.104 L48.576,58 L45.312,58 Z M63.088,58 L63.088,48.368 L58.608,35.216 L62.064,35.216 L64.688,44.272 L64.752,44.272 L67.376,35.216 L70.832,35.216 L66.352,48.368 L66.352,58 L63.088,58 Z M35.952,65.024 C36.5920032,65.024 37.2053304,65.1359989 37.792,65.36 C38.3786696,65.5840011 38.8959978,65.9093312 39.344,66.336 C39.7920022,66.7626688 40.149332,67.2746637 40.416,67.872 C40.682668,68.4693363 40.816,69.1519962 40.816,69.92 L40.816,83.296 C40.816,84.0640038 40.682668,84.7466637 40.416,85.344 C40.149332,85.9413363 39.7920022,86.4533312 39.344,86.88 C38.8959978,87.3066688 38.3786696,87.6319989 37.792,87.856 C37.2053304,88.0800011 36.5920032,88.192 35.952,88.192 C35.3119968,88.192 34.6986696,88.0800011 34.112,87.856 C33.5253304,87.6319989 33.0080022,87.3066688 32.56,86.88 C32.1119978,86.4533312 31.754668,85.9413363 31.488,85.344 C31.221332,84.7466637 31.088,84.0640038 31.088,83.296 L31.088,69.92 C31.088,69.1519962 31.221332,68.4693363 31.488,67.872 C31.754668,67.2746637 32.1119978,66.7626688 32.56,66.336 C33.0080022,65.9093312 33.5253304,65.5840011 34.112,65.36 C34.6986696,65.1359989 35.3119968,65.024 35.952,65.024 Z M49.856,65.024 C50.7520045,65.024 51.5519965,65.2213314 52.256,65.616 C52.9600035,66.0106686 53.5253312,66.5493299 53.952,67.232 C54.1013341,67.4880013 54.2293328,67.7333322 54.336,67.968 C54.4426672,68.2026678 54.5279997,68.4799984 54.592,68.8 C54.6346669,69.141335 54.6666666,69.5519976 54.688,70.032 L54.7036735,70.476082 C54.7145579,70.8733602 54.72,71.338664 54.72,71.872 L54.7141225,72.7095518 C54.708898,73.0517551 54.7001905,73.3539035 54.688,73.616 L54.65728,74.1331205 C54.6393601,74.3750401 54.6176001,74.591999 54.592,74.784 C54.5279997,75.125335 54.458667,75.429332 54.384,75.696 C54.309333,75.962668 54.2186672,76.2453318 54.112,76.544 L49.824,88 L46.176,88 L49.888,78.432 L49.824,78.368 C49.7173328,78.4533338 49.5520011,78.5226664 49.328,78.576 C49.1039989,78.6293336 48.8106685,78.656 48.448,78.656 C47.8719971,78.656 47.3386691,78.5173347 46.848,78.24 C46.3573309,77.9626653 45.9733347,77.6106688 45.696,77.184 C45.5466659,76.9706656 45.4293338,76.7413346 45.344,76.496 C45.2586662,76.2506654 45.1946669,75.9360019 45.152,75.552 C45.0986664,75.2319984 45.0601481,74.8416311 45.0364445,74.3808898 L45.024,74.096 C45.0079999,73.6559978 44.998,73.1290014 44.994,72.5150015 L44.992,71.872 C44.992,71.2319968 44.9998367,70.68996 45.0155102,70.2458781 L45.024,70.032 C45.0410668,69.6479981 45.0717865,69.3083737 45.1161599,69.0131204 L45.152,68.8 C45.1946669,68.4799984 45.2639995,68.2026678 45.36,67.968 C45.4560005,67.7333322 45.5786659,67.4880013 45.728,67.232 C46.1546688,66.5279965 46.7253298,65.9840019 47.44,65.6 C48.1546702,65.2159981 48.9599955,65.024 49.856,65.024 Z M63.76,65.024 C64.6560045,65.024 65.4559965,65.2213314 66.16,65.616 C66.8640035,66.0106686 67.4293312,66.5493299 67.856,67.232 C68.0053341,67.4880013 68.1333328,67.7333322 68.24,67.968 C68.3466672,68.2026678 68.4319997,68.4799984 68.496,68.8 C68.5386669,69.141335 68.5706666,69.5519976 68.592,70.032 L68.6076735,70.476082 C68.6185579,70.8733602 68.624,71.338664 68.624,71.872 L68.6181225,72.7095518 C68.612898,73.0517551 68.6041905,73.3539035 68.592,73.616 L68.56128,74.1331205 C68.5433601,74.3750401 68.5216001,74.591999 68.496,74.784 C68.4319997,75.125335 68.362667,75.429332 68.288,75.696 C68.213333,75.962668 68.1226672,76.2453318 68.016,76.544 L63.728,88 L60.08,88 L63.792,78.432 L63.728,78.368 C63.6213328,78.4533338 63.4560011,78.5226664 63.232,78.576 C63.0079989,78.6293336 62.7146685,78.656 62.352,78.656 C61.7759971,78.656 61.2426691,78.5173347 60.752,78.24 C60.2613309,77.9626653 59.8773347,77.6106688 59.6,77.184 C59.4506659,76.9706656 59.3333338,76.7413346 59.248,76.496 C59.1626662,76.2506654 59.0986669,75.9360019 59.056,75.552 C59.0026664,75.2319984 58.9641481,74.8416311 58.9404445,74.3808898 L58.928,74.096 C58.9119999,73.6559978 58.902,73.1290014 58.898,72.5150015 L58.896,71.872 C58.896,71.2319968 58.9038367,70.68996 58.9195102,70.2458781 L58.928,70.032 C58.9450668,69.6479981 58.9757865,69.3083737 59.0201599,69.0131204 L59.056,68.8 C59.0986669,68.4799984 59.1679995,68.2026678 59.264,67.968 C59.3600005,67.7333322 59.4826659,67.4880013 59.632,67.232 C60.0586688,66.5279965 60.6293298,65.9840019 61.344,65.6 C62.0586702,65.2159981 62.8639955,65.024 63.76,65.024 Z M35.952,68.288 C35.4826643,68.288 35.0986682,68.4426651 34.8,68.752 C34.5013318,69.0613349 34.352,69.4506643 34.352,69.92 L34.352,83.296 C34.352,83.7653357 34.5013318,84.1546651 34.8,84.464 C35.0986682,84.7733349 35.4826643,84.928 35.952,84.928 C36.4213357,84.928 36.8053318,84.7733349 37.104,84.464 C37.4026682,84.1546651 37.552,83.7653357 37.552,83.296 L37.552,69.92 C37.552,69.4506643 37.4026682,69.0613349 37.104,68.752 C36.8053318,68.4426651 36.4213357,68.288 35.952,68.288 Z M49.856,68.288 C49.4293312,68.288 49.0560016,68.4373318 48.736,68.736 C48.4159984,69.0346682 48.256,69.4293309 48.256,69.92 L48.256,74.144 C48.256,74.6346691 48.4159984,75.0293318 48.736,75.328 C49.0560016,75.6266682 49.4293312,75.776 49.856,75.776 C50.2826688,75.776 50.6559984,75.6266682 50.976,75.328 C51.2960016,75.0293318 51.456,74.6346691 51.456,74.144 L51.456,69.92 C51.456,69.4293309 51.2960016,69.0346682 50.976,68.736 C50.6559984,68.4373318 50.2826688,68.288 49.856,68.288 Z M63.76,68.288 C63.3333312,68.288 62.9600016,68.4373318 62.64,68.736 C62.3199984,69.0346682 62.16,69.4293309 62.16,69.92 L62.16,69.92 L62.16,74.144 C62.16,74.6346691 62.3199984,75.0293318 62.64,75.328 C62.9600016,75.6266682 63.3333312,75.776 63.76,75.776 C64.1866688,75.776 64.5599984,75.6266682 64.88,75.328 C65.2000016,75.0293318 65.36,74.6346691 65.36,74.144 L65.36,74.144 L65.36,69.92 C65.36,69.4293309 65.2000016,69.0346682 64.88,68.736 C64.5599984,68.4373318 64.1866688,68.288 63.76,68.288 Z M74.592,54.736 L74.592,58 L71.328,58 L71.328,54.736 L74.592,54.736 Z" id="DAY.099" fill="#6E767D" fill-rule="nonzero"></path>
        </g>
        <rect id="矩形" fill="#1D1E1F" x="141" y="90" width="317" height="10"></rect>
        <text id="色彩应用法则-橙色" font-family="PingFangSC-Semibold, PingFang SC" font-size="38" font-weight="500" line-spacing="38" fill="#A8B2BA">
            <tspan x="141" y="97">色彩应用法则 橙色</tspan>
        </text>
        <text id="橙色介于红色和黄色之间，具备红色的热情和" font-family="PingFangSC-Regular, PingFang SC" font-size="14" font-weight="normal" line-spacing="19" fill="#A8B2BA">
            <tspan x="62" y="139">橙色介于红色和黄色之间，具备红色的热情和黄色的阳光感。橙色给人舒适的感觉，能够表现出日常生活的欢快</tspan>
            <tspan x="62" y="158">感。</tspan>
            <tspan x="62" y="177" font-family="PingFangSC-Medium, PingFang SC" font-weight="400">橙色的运用</tspan>
            <tspan x="132" y="177">          </tspan>
            <tspan x="192" y="177" fill-opacity="0.6">橙色综合了红色和黄色的优点，避免了两者的不足，具有很强的平衡性，几乎没有缺点，接受</tspan>
            <tspan x="62" y="196" fill-opacity="0.6">度很高。但也因为没有缺点，而使橙色缺乏存在感，给人平凡的感觉。针对这一有趣的特点，橙色更加适用于面向</tspan>
            <tspan x="62" y="215" fill-opacity="0.6">大众的设计配色。食品包装中大量使用橙色，因为它给人温暖可口的感受，能够刺激食欲，也没有特殊的性别倾</tspan>
            <tspan x="62" y="234" fill-opacity="0.6">向，只要体现出食物的美味或进食的满足感就能被大部分消费者所接受。在设计中运用少量的橙色点缀就能够得到</tspan>
            <tspan x="62" y="253" fill-opacity="0.6">生动、快活的视觉效果。大面积的橙色给人非常积极热切的感觉，人们并不是在任何场合和状态下都愿意接受这样</tspan>
            <tspan x="62" y="272" fill-opacity="0.6">的情绪，心情不佳的人审视后可能会对这样的设计产生反感，这就促使设计者在设计前应该做出更加周全的考虑。</tspan>
            <tspan x="763.008" y="272"></tspan>
            <tspan x="62" y="291" font-family="PingFangSC-Medium, PingFang SC" font-weight="400">与橙色相关的事物</tspan>
            <tspan x="174" y="291">    </tspan>
            <tspan x="192.648" y="291" fill-opacity="0.6">橙子、柿子、枇杷、蛋黄、夕阳、火焰；</tspan>
            <tspan x="445.656" y="291"></tspan>
            <tspan x="62" y="310" font-family="PingFangSC-Medium, PingFang SC" font-weight="400">橙色的意象</tspan>
            <tspan x="132" y="310">             </tspan>
            <tspan x="192.606" y="310" fill-opacity="0.6">跃动、积极、年轻、健康、幸福、勇敢、美味、主动。</tspan>
        </text>
        <text id="《设计师必懂的黄金设计法则》-读书笔记" font-family="PingFangSC-Regular, PingFang SC" font-size="14" font-weight="normal" line-spacing="24" fill="#3A4249">
            <tspan x="62" y="353">《设计师必懂的黄金设计法则》     </tspan>
            <tspan x="62" y="377">读书笔记 设计原则 思考总结</tspan>
        </text>
    </g>
</svg>