<?xml version="1.0" encoding="UTF-8"?>
<svg width="828px" height="432px" viewBox="0 0 828 432" version="1.1" xmlns="http://www.w3.org/2000/svg" xmlns:xlink="http://www.w3.org/1999/xlink">
    <!-- Generator: Sketch 58 (84663) - https://sketch.com -->
    <title>105</title>
    <desc>Created with Sketch.</desc>
    <g id="105" stroke="none" stroke-width="1" fill="none" fill-rule="evenodd">
        <g id="编组" transform="translate(32.000000, 16.000000)">
            <rect id="矩形" fill="#101216" x="0" y="0" width="764" height="400" rx="8"></rect>
            <path d="M31.536,58 L31.536,35.216 L36.368,35.216 C38.2453427,35.216 39.6693285,35.7279949 40.64,36.752 C41.6106715,37.7760051 42.096,39.2266573 42.096,41.104 L42.096,51.76 C42.096,53.893344 41.5786718,55.4666616 40.544,56.48 C39.5093282,57.4933384 38.021343,58 36.08,58 L31.536,58 Z M34.8,38.288 L34.8,54.928 L36.304,54.928 C37.2213379,54.928 37.8719981,54.698669 38.256,54.24 C38.6400019,53.781331 38.832,53.0613382 38.832,52.08 L38.832,41.104 C38.832,40.2079955 38.6506685,39.5146691 38.288,39.024 C37.9253315,38.5333309 37.2640048,38.288 36.304,38.288 L34.8,38.288 Z M53.376,50.032 L51.776,41.776 L51.712,41.776 L50.112,50.032 L53.376,50.032 Z M45.312,58 L50.4,35.216 L53.12,35.216 L58.208,58 L54.944,58 L53.984,53.104 L49.536,53.104 L48.576,58 L45.312,58 Z M63.088,58 L63.088,48.368 L58.608,35.216 L62.064,35.216 L64.688,44.272 L64.752,44.272 L67.376,35.216 L70.832,35.216 L66.352,48.368 L66.352,58 L63.088,58 Z M71.328,58 L71.328,54.736 L74.592,54.736 L74.592,58 L71.328,58 Z M34.96,88 L34.96,68.672 L31.696,71.072 L31.696,67.616 L34.96,65.216 L38.224,65.216 L38.224,88 L34.96,88 Z M44.992,69.92 C44.992,69.1519962 45.125332,68.4693363 45.392,67.872 C45.658668,67.2746637 46.0159978,66.7626688 46.464,66.336 C46.9120022,65.9093312 47.4293304,65.5840011 48.016,65.36 C48.6026696,65.1359989 49.2159968,65.024 49.856,65.024 C50.4960032,65.024 51.1093304,65.1359989 51.696,65.36 C52.2826696,65.5840011 52.7999978,65.9093312 53.248,66.336 C53.6960022,66.7626688 54.053332,67.2746637 54.32,67.872 C54.586668,68.4693363 54.72,69.1519962 54.72,69.92 L54.72,83.296 C54.72,84.0640038 54.586668,84.7466637 54.32,85.344 C54.053332,85.9413363 53.6960022,86.4533312 53.248,86.88 C52.7999978,87.3066688 52.2826696,87.6319989 51.696,87.856 C51.1093304,88.0800011 50.4960032,88.192 49.856,88.192 C49.2159968,88.192 48.6026696,88.0800011 48.016,87.856 C47.4293304,87.6319989 46.9120022,87.3066688 46.464,86.88 C46.0159978,86.4533312 45.658668,85.9413363 45.392,85.344 C45.125332,84.7466637 44.992,84.0640038 44.992,83.296 L44.992,69.92 Z M48.256,83.296 C48.256,83.7653357 48.4053318,84.1546651 48.704,84.464 C49.0026682,84.7733349 49.3866643,84.928 49.856,84.928 C50.3253357,84.928 50.7093318,84.7733349 51.008,84.464 C51.3066682,84.1546651 51.456,83.7653357 51.456,83.296 L51.456,69.92 C51.456,69.4506643 51.3066682,69.0613349 51.008,68.752 C50.7093318,68.4426651 50.3253357,68.288 49.856,68.288 C49.3866643,68.288 49.0026682,68.4426651 48.704,68.752 C48.4053318,69.0613349 48.256,69.4506643 48.256,69.92 L48.256,83.296 Z M68.624,65.216 L68.624,68.288 L62.16,68.288 L62.16,74.432 C62.4586682,74.1333318 62.8426643,73.8826677 63.312,73.68 C63.7813357,73.4773323 64.3039971,73.376 64.88,73.376 C65.9893389,73.376 66.8906632,73.7119966 67.584,74.384 C68.2773368,75.0560034 68.624,76.0639933 68.624,77.408 L68.624,83.296 C68.624,84.0640038 68.490668,84.7466637 68.224,85.344 C67.957332,85.9413363 67.6000022,86.4533312 67.152,86.88 C66.7039978,87.3066688 66.1866696,87.6319989 65.6,87.856 C65.0133304,88.0800011 64.4000032,88.192 63.76,88.192 C63.1199968,88.192 62.5066696,88.0800011 61.92,87.856 C61.3333304,87.6319989 60.8160022,87.3066688 60.368,86.88 C59.9199978,86.4533312 59.562668,85.9413363 59.296,85.344 C59.029332,84.7466637 58.896,84.0640038 58.896,83.296 L58.896,82.336 L62.16,82.336 L62.16,83.168 C62.16,83.7226694 62.3146651,84.1546651 62.624,84.464 C62.9333349,84.7733349 63.3333309,84.928 63.824,84.928 C64.3146691,84.928 64.693332,84.7786682 64.96,84.48 C65.226668,84.1813318 65.36,83.765336 65.36,83.232 L65.36,77.888 C65.36,77.4399978 65.2160014,77.0560016 64.928,76.736 C64.6399986,76.4159984 64.2720022,76.256 63.824,76.256 C63.5466653,76.256 63.312001,76.3039995 63.12,76.4 C62.927999,76.4960005 62.7680006,76.6079994 62.64,76.736 C62.5119994,76.8640006 62.4160003,77.0026659 62.352,77.152 L62.16,77.504 L62.16,77.504 L59.28,77.504 L59.28,65.216 L68.624,65.216 Z" id="DAY.105" fill="#6E767D" fill-rule="nonzero"></path>
        </g>
        <rect id="矩形" fill="#1D1E1F" x="141" y="90" width="304" height="10"></rect>
        <text id="黑白灰基调的设计" font-family="PingFangSC-Semibold, PingFang SC" font-size="38" font-weight="500" line-spacing="38" fill="#A8B2BA">
            <tspan x="141" y="97">黑白灰基调的设计</tspan>
        </text>
        <text id="黑白灰基调设计非常适合需要突出主体光泽质" font-family="PingFangSC-Regular, PingFang SC" font-size="14" font-weight="normal" line-spacing="18" fill="#A8B2BA">
            <tspan x="62" y="131">黑白灰基调设计非常适合需要突出主体光泽质感的设计，让人更加关注光与影的艺术。</tspan>
            <tspan x="62" y="149">黑白灰的运用</tspan>
            <tspan x="62" y="167">黑色彰显出一种充裕、专有的感觉，可以看到许多的奢侈品牌都热衷于用黑色来表现和展示。黑色严肃、正式的感</tspan>
            <tspan x="62" y="185">觉也被广泛运用在一些重要场合之中。由于黑色的意志力很强，与之搭配的色彩都能够得到很好的衬托。</tspan>
            <tspan x="62" y="203">与黑白灰相关的事物</tspan>
            <tspan x="62" y="221">黑色：黑发、煤炭、墨汁、夜晚、宇宙、礼服；</tspan>
            <tspan x="62" y="239">白色：盐、白糖、雪、冰、光、婚纱；</tspan>
            <tspan x="62" y="257">灰色：大象、老鼠、水泥、灰尘、烟雾；</tspan>
            <tspan x="62" y="275">黑白灰的意象</tspan>
            <tspan x="62" y="293">黑色：高级、正式、严肃、绝望、悲伤、死亡、孤寂；</tspan>
            <tspan x="62" y="311">白色：纯净、圣洁、无瑕、清纯、透明；</tspan>
            <tspan x="62" y="329">灰色：中庸、协调、认真、耐心、模糊、朴素。</tspan>
        </text>
        <text id="《设计师必懂的黄金设计法则》-读书笔记" font-family="PingFangSC-Regular, PingFang SC" font-size="14" font-weight="normal" line-spacing="24" fill="#3A4249">
            <tspan x="62" y="353">《设计师必懂的黄金设计法则》     </tspan>
            <tspan x="62" y="377">读书笔记 设计原则 思考总结</tspan>
        </text>
    </g>
</svg>