<?xml version="1.0" encoding="UTF-8"?>
<svg width="828px" height="432px" viewBox="0 0 828 432" version="1.1" xmlns="http://www.w3.org/2000/svg" xmlns:xlink="http://www.w3.org/1999/xlink">
    <!-- Generator: Sketch 58 (84663) - https://sketch.com -->
    <title>98</title>
    <desc>Created with Sketch.</desc>
    <g id="98" stroke="none" stroke-width="1" fill="none" fill-rule="evenodd">
        <g id="编组" transform="translate(32.000000, 16.000000)">
            <rect id="矩形" fill="#101216" x="0" y="0" width="764" height="400" rx="8"></rect>
            <path d="M31.536,58 L31.536,35.216 L36.368,35.216 C38.2453427,35.216 39.6693285,35.7279949 40.64,36.752 C41.6106715,37.7760051 42.096,39.2266573 42.096,41.104 L42.096,51.76 C42.096,53.893344 41.5786718,55.4666616 40.544,56.48 C39.5093282,57.4933384 38.021343,58 36.08,58 L31.536,58 Z M34.8,38.288 L34.8,54.928 L36.304,54.928 C37.2213379,54.928 37.8719981,54.698669 38.256,54.24 C38.6400019,53.781331 38.832,53.0613382 38.832,52.08 L38.832,41.104 C38.832,40.2079955 38.6506685,39.5146691 38.288,39.024 C37.9253315,38.5333309 37.2640048,38.288 36.304,38.288 L34.8,38.288 Z M53.376,50.032 L51.776,41.776 L51.712,41.776 L50.112,50.032 L53.376,50.032 Z M45.312,58 L50.4,35.216 L53.12,35.216 L58.208,58 L54.944,58 L53.984,53.104 L49.536,53.104 L48.576,58 L45.312,58 Z M63.088,58 L63.088,48.368 L58.608,35.216 L62.064,35.216 L64.688,44.272 L64.752,44.272 L67.376,35.216 L70.832,35.216 L66.352,48.368 L66.352,58 L63.088,58 Z M71.328,58 L71.328,54.736 L74.592,54.736 L74.592,58 L71.328,58 Z M31.088,69.92 C31.088,69.1519962 31.221332,68.4693363 31.488,67.872 C31.754668,67.2746637 32.1119978,66.7626688 32.56,66.336 C33.0080022,65.9093312 33.5253304,65.5840011 34.112,65.36 C34.6986696,65.1359989 35.3119968,65.024 35.952,65.024 C36.5920032,65.024 37.2053304,65.1359989 37.792,65.36 C38.3786696,65.5840011 38.8959978,65.9093312 39.344,66.336 C39.7920022,66.7626688 40.149332,67.2746637 40.416,67.872 C40.682668,68.4693363 40.816,69.1519962 40.816,69.92 L40.816,83.296 C40.816,84.0640038 40.682668,84.7466637 40.416,85.344 C40.149332,85.9413363 39.7920022,86.4533312 39.344,86.88 C38.8959978,87.3066688 38.3786696,87.6319989 37.792,87.856 C37.2053304,88.0800011 36.5920032,88.192 35.952,88.192 C35.3119968,88.192 34.6986696,88.0800011 34.112,87.856 C33.5253304,87.6319989 33.0080022,87.3066688 32.56,86.88 C32.1119978,86.4533312 31.754668,85.9413363 31.488,85.344 C31.221332,84.7466637 31.088,84.0640038 31.088,83.296 L31.088,69.92 Z M34.352,83.296 C34.352,83.7653357 34.5013318,84.1546651 34.8,84.464 C35.0986682,84.7733349 35.4826643,84.928 35.952,84.928 C36.4213357,84.928 36.8053318,84.7733349 37.104,84.464 C37.4026682,84.1546651 37.552,83.7653357 37.552,83.296 L37.552,69.92 C37.552,69.4506643 37.4026682,69.0613349 37.104,68.752 C36.8053318,68.4426651 36.4213357,68.288 35.952,68.288 C35.4826643,68.288 35.0986682,68.4426651 34.8,68.752 C34.5013318,69.0613349 34.352,69.4506643 34.352,69.92 L34.352,83.296 Z M46.176,88 L49.888,78.432 L49.824,78.368 C49.7173328,78.4533338 49.5520011,78.5226664 49.328,78.576 C49.1039989,78.6293336 48.8106685,78.656 48.448,78.656 C47.8719971,78.656 47.3386691,78.5173347 46.848,78.24 C46.3573309,77.9626653 45.9733347,77.6106688 45.696,77.184 C45.5466659,76.9706656 45.4293338,76.7413346 45.344,76.496 C45.2586662,76.2506654 45.1946669,75.9360019 45.152,75.552 C45.0986664,75.2319984 45.0601481,74.8416311 45.0364445,74.3808898 L45.024,74.096 C45.0079999,73.6559978 44.998,73.1290014 44.994,72.5150015 L44.992,71.872 C44.992,71.2319968 44.9998367,70.68996 45.0155102,70.2458781 L45.024,70.032 C45.0410668,69.6479981 45.0717865,69.3083737 45.1161599,69.0131204 L45.152,68.8 C45.1946669,68.4799984 45.2639995,68.2026678 45.36,67.968 C45.4560005,67.7333322 45.5786659,67.4880013 45.728,67.232 C46.1546688,66.5279965 46.7253298,65.9840019 47.44,65.6 C48.1546702,65.2159981 48.9599955,65.024 49.856,65.024 C50.7520045,65.024 51.5519965,65.2213314 52.256,65.616 C52.9600035,66.0106686 53.5253312,66.5493299 53.952,67.232 C54.1013341,67.4880013 54.2293328,67.7333322 54.336,67.968 C54.4426672,68.2026678 54.5279997,68.4799984 54.592,68.8 C54.6346669,69.141335 54.6666666,69.5519976 54.688,70.032 L54.7036735,70.476082 C54.7145579,70.8733602 54.72,71.338664 54.72,71.872 L54.7141225,72.7095518 C54.708898,73.0517551 54.7001905,73.3539035 54.688,73.616 L54.65728,74.1331205 C54.6393601,74.3750401 54.6176001,74.591999 54.592,74.784 C54.5279997,75.125335 54.458667,75.429332 54.384,75.696 C54.309333,75.962668 54.2186672,76.2453318 54.112,76.544 L49.824,88 L46.176,88 Z M48.256,74.144 C48.256,74.6346691 48.4159984,75.0293318 48.736,75.328 C49.0560016,75.6266682 49.4293312,75.776 49.856,75.776 C50.2826688,75.776 50.6559984,75.6266682 50.976,75.328 C51.2960016,75.0293318 51.456,74.6346691 51.456,74.144 L51.456,69.92 C51.456,69.4293309 51.2960016,69.0346682 50.976,68.736 C50.6559984,68.4373318 50.2826688,68.288 49.856,68.288 C49.4293312,68.288 49.0560016,68.4373318 48.736,68.736 C48.4159984,69.0346682 48.256,69.4293309 48.256,69.92 L48.256,74.144 Z M63.76,65.024 C64.5066704,65.024 65.1999968,65.1786651 65.84,65.488 C66.4800032,65.7973349 67.0133312,66.2293306 67.44,66.784 C67.6533344,67.0613347 67.8346659,67.3279987 67.984,67.584 C68.1333341,67.8400013 68.2613328,68.1279984 68.368,68.448 C68.4746672,68.7680016 68.5439998,69.1466645 68.576,69.584 C68.6080002,70.0213355 68.624,70.5493302 68.624,71.168 L68.6204445,71.8151121 C68.6157038,72.2228153 68.6062223,72.5831095 68.592,72.896 C68.5706666,73.3653357 68.5066672,73.7813315 68.4,74.144 C68.2933328,74.5066685 68.1280011,74.8319986 67.904,75.12 C67.6799989,75.4080014 67.3760019,75.7119984 66.992,76.032 C67.3760019,76.3306682 67.6799989,76.6293318 67.904,76.928 C68.1280011,77.2266682 68.2933328,77.5786646 68.4,77.984 C68.5066672,78.3893354 68.5706666,78.8853304 68.592,79.472 L68.6135511,80.299755 C68.620517,80.7002982 68.624,81.1443785 68.624,81.632 L68.6200817,82.2053889 C68.6135511,82.6581777 68.5988573,83.0483793 68.576,83.376 C68.5439998,83.834669 68.4960003,84.234665 68.432,84.576 C68.3679997,84.917335 68.2773339,85.2053322 68.16,85.44 C68.0426661,85.6746678 67.8986675,85.9199987 67.728,86.176 C67.3653315,86.7306694 66.8533366,87.2053314 66.192,87.6 C65.5306634,87.9946686 64.7200048,88.192 63.76,88.192 C62.7999952,88.192 61.9893366,87.9946686 61.328,87.6 C60.6666634,87.2053314 60.1546685,86.7306694 59.792,86.176 C59.6213325,85.9199987 59.4773339,85.6746678 59.36,85.44 C59.2426661,85.2053322 59.1520003,84.917335 59.088,84.576 C59.0239997,84.234665 58.9760002,83.834669 58.944,83.376 L58.9204897,82.9528159 C58.9074285,82.6506668 58.8995918,82.3084643 58.8969796,81.9262051 L58.8986122,80.9332231 C58.9029659,80.3781215 58.9127618,79.8910497 58.928,79.472 C58.9493334,78.8853304 59.0133328,78.3893354 59.12,77.984 C59.2266672,77.5786646 59.3919989,77.2266682 59.616,76.928 C59.8400011,76.6293318 60.1439981,76.3306682 60.528,76.032 C60.1439981,75.7119984 59.8400011,75.4080014 59.616,75.12 C59.3919989,74.8319986 59.2266672,74.5066685 59.12,74.144 C59.0133328,73.7813315 58.9493334,73.3653357 58.928,72.896 L58.9102222,72.3911108 C58.9031111,72.1208892 58.8986666,71.8240014 58.8968889,71.5004455 L58.896,71.168 C58.896,70.5493302 58.9173331,70.0213355 58.96,69.584 C59.0026669,69.1466645 59.0773328,68.7680016 59.184,68.448 C59.2906672,68.1279984 59.4133326,67.8400013 59.552,67.584 C59.6906674,67.3279987 59.8666656,67.0613347 60.08,66.784 C60.5066688,66.2293306 61.0399968,65.7973349 61.68,65.488 C62.3200032,65.1786651 63.0133296,65.024 63.76,65.024 Z M63.76,77.248 C63.3333312,77.248 62.9600016,77.4026651 62.64,77.712 C62.3199984,78.0213349 62.16,78.3999978 62.16,78.848 L62.16,78.848 L62.16,83.328 C62.16,83.7760022 62.3199984,84.1546651 62.64,84.464 C62.9600016,84.7733349 63.3333312,84.928 63.76,84.928 C64.1866688,84.928 64.5599984,84.7733349 64.88,84.464 C65.2000016,84.1546651 65.36,83.7760022 65.36,83.328 L65.36,83.328 L65.36,78.848 C65.36,78.3999978 65.2000016,78.0213349 64.88,77.712 C64.5599984,77.4026651 64.1866688,77.248 63.76,77.248 Z M63.76,68.288 C63.3333312,68.288 62.9600016,68.4426651 62.64,68.752 C62.3199984,69.0613349 62.16,69.4399978 62.16,69.888 L62.16,73.216 C62.16,73.6640022 62.3199984,74.0426651 62.64,74.352 C62.9600016,74.6613349 63.3333312,74.816 63.76,74.816 C64.1866688,74.816 64.5599984,74.6613349 64.88,74.352 C65.2000016,74.0426651 65.36,73.6640022 65.36,73.216 L65.36,69.888 C65.36,69.4399978 65.2000016,69.0613349 64.88,68.752 C64.5599984,68.4426651 64.1866688,68.288 63.76,68.288 Z" id="DAY.098" fill="#6E767D" fill-rule="nonzero"></path>
        </g>
        <rect id="矩形" fill="#1D1E1F" x="141" y="90" width="355" height="10"></rect>
        <text id="色彩应用法则-粉红色" font-family="PingFangSC-Semibold, PingFang SC" font-size="38" font-weight="500" line-spacing="38" fill="#A8B2BA">
            <tspan x="141" y="97">色彩应用法则 粉红色</tspan>
        </text>
        <text id="粉红色是在红色中加入白色，形成不饱和的亮" font-family="PingFangSC-Regular, PingFang SC" font-size="14" font-weight="normal" line-spacing="19" fill="#A8B2BA">
            <tspan x="62" y="136">粉红色是在红色中加入白色，形成不饱和的亮红色，也会引起人的兴趣与快感，但是以比较柔和、宁静的方式进</tspan>
            <tspan x="62" y="155">行。</tspan>
            <tspan x="62" y="174" font-family="PingFangSC-Medium, PingFang SC" font-weight="400">粉红色的运用</tspan>
            <tspan x="146" y="174">                 </tspan>
            <tspan x="234" y="174" fill-opacity="0.6">在红色中加入白色就能提高明度，得到粉红色。如果加大红色的比例，所得到的粉红色</tspan>
            <tspan x="62" y="193" fill-opacity="0.6">就具有年轻与活力的感觉。粉红色主要应用于表现具有温柔、优美意象的主题，是表现女性主题的重要色彩。鲜亮</tspan>
            <tspan x="62" y="212" fill-opacity="0.6">的粉红色多用于针对少女族群的主题基调色，体现浓浓的甜美感和年轻、活跃的特质，也具有较强的时尚感。在设</tspan>
            <tspan x="62" y="231" fill-opacity="0.6">计中加入少许粉红色做点缀，能够形成愉悦、轻盈的感受。例如在以蓝、绿等冷色为基调的设计中，点缀少量的粉</tspan>
            <tspan x="62" y="250" fill-opacity="0.6">红色元素可以有效缓和冷色带给人的距离感，变得更易亲近；在以无彩色为基调的设计中加入适量粉红色，立刻呈</tspan>
            <tspan x="62" y="269" fill-opacity="0.6">现出很强的时尚感。</tspan>
            <tspan x="189.008" y="269"></tspan>
            <tspan x="62" y="288" font-family="PingFangSC-Medium, PingFang SC" font-weight="400">常用的红色粉相关的事物</tspan>
            <tspan x="216" y="288">    </tspan>
            <tspan x="234.648" y="288" fill-opacity="0.6">樱花、桃花、蔷薇、梅花、婴儿、桃子、珊瑚、三文鱼；</tspan>
            <tspan x="585.656" y="288"></tspan>
            <tspan x="62" y="307" font-family="PingFangSC-Medium, PingFang SC" font-weight="400">粉红色的意象</tspan>
            <tspan x="146" y="307">                   </tspan>
            <tspan x="234.578" y="307" fill-opacity="0.6">浪漫、温柔、恋爱、迷人、高雅、亲切、年轻、甜蜜、健康。</tspan>
        </text>
        <text id="《设计师必懂的黄金设计法则》-读书笔记" font-family="PingFangSC-Regular, PingFang SC" font-size="14" font-weight="normal" line-spacing="24" fill="#3A4249">
            <tspan x="62" y="353">《设计师必懂的黄金设计法则》     </tspan>
            <tspan x="62" y="377">读书笔记 设计原则 思考总结</tspan>
        </text>
    </g>
</svg>