<?xml version="1.0" encoding="UTF-8"?>
<svg width="828px" height="432px" viewBox="0 0 828 432" version="1.1" xmlns="http://www.w3.org/2000/svg" xmlns:xlink="http://www.w3.org/1999/xlink">
    <!-- Generator: Sketch 58 (84663) - https://sketch.com -->
    <title>90</title>
    <desc>Created with Sketch.</desc>
    <g id="90" stroke="none" stroke-width="1" fill="none" fill-rule="evenodd">
        <g id="编组" transform="translate(32.000000, 16.000000)">
            <rect id="矩形" fill="#101216" x="0" y="0" width="764" height="400" rx="8"></rect>
            <path d="M31.536,58 L31.536,35.216 L36.368,35.216 C38.2453427,35.216 39.6693285,35.7279949 40.64,36.752 C41.6106715,37.7760051 42.096,39.2266573 42.096,41.104 L42.096,51.76 C42.096,53.893344 41.5786718,55.4666616 40.544,56.48 C39.5093282,57.4933384 38.021343,58 36.08,58 L31.536,58 Z M34.8,38.288 L34.8,54.928 L36.304,54.928 C37.2213379,54.928 37.8719981,54.698669 38.256,54.24 C38.6400019,53.781331 38.832,53.0613382 38.832,52.08 L38.832,41.104 C38.832,40.2079955 38.6506685,39.5146691 38.288,39.024 C37.9253315,38.5333309 37.2640048,38.288 36.304,38.288 L34.8,38.288 Z M53.376,50.032 L51.776,41.776 L51.712,41.776 L50.112,50.032 L53.376,50.032 Z M45.312,58 L50.4,35.216 L53.12,35.216 L58.208,58 L54.944,58 L53.984,53.104 L49.536,53.104 L48.576,58 L45.312,58 Z M63.088,58 L63.088,48.368 L58.608,35.216 L62.064,35.216 L64.688,44.272 L64.752,44.272 L67.376,35.216 L70.832,35.216 L66.352,48.368 L66.352,58 L63.088,58 Z M35.952,65.024 C36.5920032,65.024 37.2053304,65.1359989 37.792,65.36 C38.3786696,65.5840011 38.8959978,65.9093312 39.344,66.336 C39.7920022,66.7626688 40.149332,67.2746637 40.416,67.872 C40.682668,68.4693363 40.816,69.1519962 40.816,69.92 L40.816,83.296 C40.816,84.0640038 40.682668,84.7466637 40.416,85.344 C40.149332,85.9413363 39.7920022,86.4533312 39.344,86.88 C38.8959978,87.3066688 38.3786696,87.6319989 37.792,87.856 C37.2053304,88.0800011 36.5920032,88.192 35.952,88.192 C35.3119968,88.192 34.6986696,88.0800011 34.112,87.856 C33.5253304,87.6319989 33.0080022,87.3066688 32.56,86.88 C32.1119978,86.4533312 31.754668,85.9413363 31.488,85.344 C31.221332,84.7466637 31.088,84.0640038 31.088,83.296 L31.088,69.92 C31.088,69.1519962 31.221332,68.4693363 31.488,67.872 C31.754668,67.2746637 32.1119978,66.7626688 32.56,66.336 C33.0080022,65.9093312 33.5253304,65.5840011 34.112,65.36 C34.6986696,65.1359989 35.3119968,65.024 35.952,65.024 Z M63.76,65.024 C64.4000032,65.024 65.0133304,65.1359989 65.6,65.36 C66.1866696,65.5840011 66.7039978,65.9093312 67.152,66.336 C67.6000022,66.7626688 67.957332,67.2746637 68.224,67.872 C68.490668,68.4693363 68.624,69.1519962 68.624,69.92 L68.624,83.296 C68.624,84.0640038 68.490668,84.7466637 68.224,85.344 C67.957332,85.9413363 67.6000022,86.4533312 67.152,86.88 C66.7039978,87.3066688 66.1866696,87.6319989 65.6,87.856 C65.0133304,88.0800011 64.4000032,88.192 63.76,88.192 C63.1199968,88.192 62.5066696,88.0800011 61.92,87.856 C61.3333304,87.6319989 60.8160022,87.3066688 60.368,86.88 C59.9199978,86.4533312 59.562668,85.9413363 59.296,85.344 C59.029332,84.7466637 58.896,84.0640038 58.896,83.296 L58.896,69.92 C58.896,69.1519962 59.029332,68.4693363 59.296,67.872 C59.562668,67.2746637 59.9199978,66.7626688 60.368,66.336 C60.8160022,65.9093312 61.3333304,65.5840011 61.92,65.36 C62.5066696,65.1359989 63.1199968,65.024 63.76,65.024 Z M49.856,65.024 C50.7520045,65.024 51.5519965,65.2213314 52.256,65.616 C52.9600035,66.0106686 53.5253312,66.5493299 53.952,67.232 C54.1013341,67.4880013 54.2293328,67.7333322 54.336,67.968 C54.4426672,68.2026678 54.5279997,68.4799984 54.592,68.8 C54.6346669,69.141335 54.6666666,69.5519976 54.688,70.032 L54.7036735,70.476082 C54.7145579,70.8733602 54.72,71.338664 54.72,71.872 L54.7141225,72.7095518 C54.708898,73.0517551 54.7001905,73.3539035 54.688,73.616 L54.65728,74.1331205 C54.6393601,74.3750401 54.6176001,74.591999 54.592,74.784 C54.5279997,75.125335 54.458667,75.429332 54.384,75.696 C54.309333,75.962668 54.2186672,76.2453318 54.112,76.544 L49.824,88 L46.176,88 L49.888,78.432 L49.824,78.368 C49.7173328,78.4533338 49.5520011,78.5226664 49.328,78.576 C49.1039989,78.6293336 48.8106685,78.656 48.448,78.656 C47.8719971,78.656 47.3386691,78.5173347 46.848,78.24 C46.3573309,77.9626653 45.9733347,77.6106688 45.696,77.184 C45.5466659,76.9706656 45.4293338,76.7413346 45.344,76.496 C45.2586662,76.2506654 45.1946669,75.9360019 45.152,75.552 C45.0986664,75.2319984 45.0601481,74.8416311 45.0364445,74.3808898 L45.024,74.096 C45.0079999,73.6559978 44.998,73.1290014 44.994,72.5150015 L44.992,71.872 C44.992,71.2319968 44.9998367,70.68996 45.0155102,70.2458781 L45.024,70.032 C45.0410668,69.6479981 45.0717865,69.3083737 45.1161599,69.0131204 L45.152,68.8 C45.1946669,68.4799984 45.2639995,68.2026678 45.36,67.968 C45.4560005,67.7333322 45.5786659,67.4880013 45.728,67.232 C46.1546688,66.5279965 46.7253298,65.9840019 47.44,65.6 C48.1546702,65.2159981 48.9599955,65.024 49.856,65.024 Z M35.952,68.288 C35.4826643,68.288 35.0986682,68.4426651 34.8,68.752 C34.5013318,69.0613349 34.352,69.4506643 34.352,69.92 L34.352,83.296 C34.352,83.7653357 34.5013318,84.1546651 34.8,84.464 C35.0986682,84.7733349 35.4826643,84.928 35.952,84.928 C36.4213357,84.928 36.8053318,84.7733349 37.104,84.464 C37.4026682,84.1546651 37.552,83.7653357 37.552,83.296 L37.552,69.92 C37.552,69.4506643 37.4026682,69.0613349 37.104,68.752 C36.8053318,68.4426651 36.4213357,68.288 35.952,68.288 Z M63.76,68.288 C63.2906643,68.288 62.9066682,68.4426651 62.608,68.752 C62.3093318,69.0613349 62.16,69.4506643 62.16,69.92 L62.16,69.92 L62.16,83.296 C62.16,83.7653357 62.3093318,84.1546651 62.608,84.464 C62.9066682,84.7733349 63.2906643,84.928 63.76,84.928 C64.2293357,84.928 64.6133318,84.7733349 64.912,84.464 C65.2106682,84.1546651 65.36,83.7653357 65.36,83.296 L65.36,83.296 L65.36,69.92 C65.36,69.4506643 65.2106682,69.0613349 64.912,68.752 C64.6133318,68.4426651 64.2293357,68.288 63.76,68.288 Z M49.856,68.288 C49.4293312,68.288 49.0560016,68.4373318 48.736,68.736 C48.4159984,69.0346682 48.256,69.4293309 48.256,69.92 L48.256,74.144 C48.256,74.6346691 48.4159984,75.0293318 48.736,75.328 C49.0560016,75.6266682 49.4293312,75.776 49.856,75.776 C50.2826688,75.776 50.6559984,75.6266682 50.976,75.328 C51.2960016,75.0293318 51.456,74.6346691 51.456,74.144 L51.456,69.92 C51.456,69.4293309 51.2960016,69.0346682 50.976,68.736 C50.6559984,68.4373318 50.2826688,68.288 49.856,68.288 Z M74.592,54.736 L74.592,58 L71.328,58 L71.328,54.736 L74.592,54.736 Z" id="DAY.090" fill="#6E767D" fill-rule="nonzero"></path>
        </g>
        <rect id="矩形" fill="#1D1E1F" x="141" y="90" width="418" height="10"></rect>
        <text id="图像小元素版面应用法则" font-family="PingFangSC-Semibold, PingFang SC" font-size="38" font-weight="500" line-spacing="38" fill="#A8B2BA">
            <tspan x="141" y="97">图像小元素版面应用法则</tspan>
        </text>
        <text id="图像小元素应该与主题和设计风格相呼应。" font-family="PingFangSC-Regular, PingFang SC" font-size="14" font-weight="normal" line-spacing="18" fill="#A8B2BA">
            <tspan x="62" y="137">图像小元素应该与主题和设计风格相呼应。</tspan>
            <tspan x="62" y="155">去底图片小元素</tspan>
            <tspan x="62" y="173" fill-opacity="0.7">去底图片使物体以自然形态展现，生动真实。可以放置在主体图像的周围形成补充说明，并软化硬边图片；也可以</tspan>
            <tspan x="62" y="191" fill-opacity="0.7">穿插在文字段落中，带来活泼的感觉，并兼具图示的功能；与标题文字相结合，形成有趣的效果，使文字图形化。</tspan>
            <tspan x="62" y="209">标点符号小元素</tspan>
            <tspan x="62" y="227" fill-opacity="0.7">标点符号不仅用于文字段落的分割，还能作为装饰版面的元素。</tspan>
            <tspan x="455.008" y="227"></tspan>
            <tspan x="62" y="245">插画图案小元素</tspan>
            <tspan x="62" y="263" fill-opacity="0.7">在上一个黄金法则中讲到了插画的应用，除了作为版面配图，也可作为装点版面的小元素，尽量以自然形为主。</tspan>
            <tspan x="749.008" y="263"></tspan>
            <tspan x="62" y="281">点线面小元素</tspan>
            <tspan x="62" y="299" fill-opacity="0.7">点、线、面是构成版面的主要元素，也可成为装饰版面的点睛之笔。点还可以对重点内容形成提示；线可以构成版</tspan>
            <tspan x="62" y="317" fill-opacity="0.7">面的边框，也可以对信息进行归类、划分、引导；面与点的作用比较类似，主要用于对重要内容的衬托。</tspan>
        </text>
        <text id="《设计师必懂的黄金设计法则》-读书笔记" font-family="PingFangSC-Regular, PingFang SC" font-size="14" font-weight="normal" line-spacing="24" fill="#3A4249">
            <tspan x="54" y="353">《设计师必懂的黄金设计法则》     </tspan>
            <tspan x="54" y="377">  读书笔记 设计原则 思考总结</tspan>
        </text>
    </g>
</svg>