<?xml version="1.0" encoding="UTF-8"?>
<svg width="828px" height="432px" viewBox="0 0 828 432" version="1.1" xmlns="http://www.w3.org/2000/svg" xmlns:xlink="http://www.w3.org/1999/xlink">
    <!-- Generator: Sketch 58 (84663) - https://sketch.com -->
    <title>104</title>
    <desc>Created with Sketch.</desc>
    <g id="104" stroke="none" stroke-width="1" fill="none" fill-rule="evenodd">
        <g id="编组" transform="translate(32.000000, 16.000000)">
            <rect id="矩形" fill="#101216" x="0" y="0" width="764" height="400" rx="8"></rect>
            <path d="M31.536,58 L31.536,35.216 L36.368,35.216 C38.2453427,35.216 39.6693285,35.7279949 40.64,36.752 C41.6106715,37.7760051 42.096,39.2266573 42.096,41.104 L42.096,51.76 C42.096,53.893344 41.5786718,55.4666616 40.544,56.48 C39.5093282,57.4933384 38.021343,58 36.08,58 L31.536,58 Z M34.8,38.288 L34.8,54.928 L36.304,54.928 C37.2213379,54.928 37.8719981,54.698669 38.256,54.24 C38.6400019,53.781331 38.832,53.0613382 38.832,52.08 L38.832,41.104 C38.832,40.2079955 38.6506685,39.5146691 38.288,39.024 C37.9253315,38.5333309 37.2640048,38.288 36.304,38.288 L34.8,38.288 Z M53.376,50.032 L51.776,41.776 L51.712,41.776 L50.112,50.032 L53.376,50.032 Z M45.312,58 L50.4,35.216 L53.12,35.216 L58.208,58 L54.944,58 L53.984,53.104 L49.536,53.104 L48.576,58 L45.312,58 Z M63.088,58 L63.088,48.368 L58.608,35.216 L62.064,35.216 L64.688,44.272 L64.752,44.272 L67.376,35.216 L70.832,35.216 L66.352,48.368 L66.352,58 L63.088,58 Z M71.328,58 L71.328,54.736 L74.592,54.736 L74.592,58 L71.328,58 Z M34.96,88 L34.96,68.672 L31.696,71.072 L31.696,67.616 L34.96,65.216 L38.224,65.216 L38.224,88 L34.96,88 Z M44.992,69.92 C44.992,69.1519962 45.125332,68.4693363 45.392,67.872 C45.658668,67.2746637 46.0159978,66.7626688 46.464,66.336 C46.9120022,65.9093312 47.4293304,65.5840011 48.016,65.36 C48.6026696,65.1359989 49.2159968,65.024 49.856,65.024 C50.4960032,65.024 51.1093304,65.1359989 51.696,65.36 C52.2826696,65.5840011 52.7999978,65.9093312 53.248,66.336 C53.6960022,66.7626688 54.053332,67.2746637 54.32,67.872 C54.586668,68.4693363 54.72,69.1519962 54.72,69.92 L54.72,83.296 C54.72,84.0640038 54.586668,84.7466637 54.32,85.344 C54.053332,85.9413363 53.6960022,86.4533312 53.248,86.88 C52.7999978,87.3066688 52.2826696,87.6319989 51.696,87.856 C51.1093304,88.0800011 50.4960032,88.192 49.856,88.192 C49.2159968,88.192 48.6026696,88.0800011 48.016,87.856 C47.4293304,87.6319989 46.9120022,87.3066688 46.464,86.88 C46.0159978,86.4533312 45.658668,85.9413363 45.392,85.344 C45.125332,84.7466637 44.992,84.0640038 44.992,83.296 L44.992,69.92 Z M48.256,83.296 C48.256,83.7653357 48.4053318,84.1546651 48.704,84.464 C49.0026682,84.7733349 49.3866643,84.928 49.856,84.928 C50.3253357,84.928 50.7093318,84.7733349 51.008,84.464 C51.3066682,84.1546651 51.456,83.7653357 51.456,83.296 L51.456,69.92 C51.456,69.4506643 51.3066682,69.0613349 51.008,68.752 C50.7093318,68.4426651 50.3253357,68.288 49.856,68.288 C49.3866643,68.288 49.0026682,68.4426651 48.704,68.752 C48.4053318,69.0613349 48.256,69.4506643 48.256,69.92 L48.256,83.296 Z M64.592,88 L64.592,84.608 L58.096,84.608 L58.096,81.536 L62.8,65.216 L66.256,65.216 L61.36,81.536 L64.592,81.536 L64.592,75.04 L67.856,75.04 L67.856,81.536 L69.424,81.536 L69.424,84.608 L67.856,84.608 L67.856,88 L64.592,88 Z" id="DAY.104" fill="#6E767D" fill-rule="nonzero"></path>
        </g>
        <rect id="矩形" fill="#1D1E1F" x="141" y="90" width="317" height="10"></rect>
        <text id="色彩应用法则-棕色" font-family="PingFangSC-Semibold, PingFang SC" font-size="38" font-weight="500" line-spacing="38" fill="#A8B2BA">
            <tspan x="141" y="97">色彩应用法则 棕色</tspan>
        </text>
        <text id="棕色来源于泥土、岩石、树皮、人类和动物的" font-family="PingFangSC-Regular, PingFang SC" font-size="14" font-weight="normal" line-spacing="20" fill="#A8B2BA">
            <tspan x="62" y="136">棕色来源于泥土、岩石、树皮、人类和动物的毛发，与自然界有着紧密的联系，是一种中性的色彩，具有质朴、务</tspan>
            <tspan x="62" y="156">实的感觉。</tspan>
            <tspan x="62" y="176" font-family="PingFangSC-Medium, PingFang SC" font-weight="400">棕色的运用</tspan>
            <tspan x="132" y="176">           </tspan>
            <tspan x="192" y="176" fill-opacity="0.6">棕色混合了各种色彩，每种色彩的特质得到抑制和中和，显得厚重而内涵丰富，象征着可靠、</tspan>
            <tspan x="62" y="196" fill-opacity="0.6">牢固和一些温暖的感觉，体现出自然的美好安适，常用于表现家庭安全的主题。家居设计中也大量应用棕色的配色</tspan>
            <tspan x="62" y="216" fill-opacity="0.6">和装饰，适合长时间看，不会给人烦躁和疲劳的感觉，还有稳定情绪的作用。由于棕色安定、稳重的特质，非常适</tspan>
            <tspan x="62" y="236" fill-opacity="0.6">合表现安心、踏实感觉的设计；棕色还具有诚实、认真的感觉，在表现商务感的主题设计中也经常被使用。棕色的</tspan>
            <tspan x="62" y="256" fill-opacity="0.6">中性特质使它和其他色彩也能很好地搭配，因而应用广泛。由于棕色的色彩明度较低，在大面积使用时最好能够体</tspan>
            <tspan x="62" y="276" fill-opacity="0.6">现出一定的光泽感，或者搭配一些较亮的色彩，避免过于沉闷的印象。</tspan>
            <tspan x="62" y="296" font-family="PingFangSC-Medium, PingFang SC" font-weight="400">与棕色相关的事物</tspan>
            <tspan x="174" y="296">     </tspan>
            <tspan x="197.31" y="296" fill-opacity="0.6">土壤、树皮、岩石、咖啡、巧克力、毛皮、栗子、枯叶；</tspan>
            <tspan x="547.31" y="296"></tspan>
            <tspan x="62" y="316" font-family="PingFangSC-Medium, PingFang SC" font-weight="400">棕色的意象</tspan>
            <tspan x="132" y="316">             </tspan>
            <tspan x="192.606" y="316" fill-opacity="0.6"> 放松、诚实、坚固、可靠、稳重、厚实、古朴、传统。</tspan>
        </text>
        <text id="《设计师必懂的黄金设计法则》-读书笔记" font-family="PingFangSC-Regular, PingFang SC" font-size="14" font-weight="normal" line-spacing="24" fill="#3A4249">
            <tspan x="62" y="353">《设计师必懂的黄金设计法则》     </tspan>
            <tspan x="62" y="377">读书笔记 设计原则 思考总结</tspan>
        </text>
    </g>
</svg>