<?xml version="1.0" encoding="UTF-8"?>
<svg width="828px" height="432px" viewBox="0 0 828 432" version="1.1" xmlns="http://www.w3.org/2000/svg" xmlns:xlink="http://www.w3.org/1999/xlink">
    <!-- Generator: Sketch 58 (84663) - https://sketch.com -->
    <title>110</title>
    <desc>Created with Sketch.</desc>
    <g id="110" stroke="none" stroke-width="1" fill="none" fill-rule="evenodd">
        <g id="编组" transform="translate(32.000000, 16.000000)">
            <rect id="矩形" fill="#101216" x="0" y="0" width="764" height="400" rx="8"></rect>
            <path d="M31.536,58 L31.536,35.216 L36.368,35.216 C38.2453427,35.216 39.6693285,35.7279949 40.64,36.752 C41.6106715,37.7760051 42.096,39.2266573 42.096,41.104 L42.096,51.76 C42.096,53.893344 41.5786718,55.4666616 40.544,56.48 C39.5093282,57.4933384 38.021343,58 36.08,58 L31.536,58 Z M34.8,38.288 L34.8,54.928 L36.304,54.928 C37.2213379,54.928 37.8719981,54.698669 38.256,54.24 C38.6400019,53.781331 38.832,53.0613382 38.832,52.08 L38.832,41.104 C38.832,40.2079955 38.6506685,39.5146691 38.288,39.024 C37.9253315,38.5333309 37.2640048,38.288 36.304,38.288 L34.8,38.288 Z M53.376,50.032 L51.776,41.776 L51.712,41.776 L50.112,50.032 L53.376,50.032 Z M45.312,58 L50.4,35.216 L53.12,35.216 L58.208,58 L54.944,58 L53.984,53.104 L49.536,53.104 L48.576,58 L45.312,58 Z M63.088,58 L63.088,48.368 L58.608,35.216 L62.064,35.216 L64.688,44.272 L64.752,44.272 L67.376,35.216 L70.832,35.216 L66.352,48.368 L66.352,58 L63.088,58 Z M71.328,58 L71.328,54.736 L74.592,54.736 L74.592,58 L71.328,58 Z M34.96,88 L34.96,68.672 L31.696,71.072 L31.696,67.616 L34.96,65.216 L38.224,65.216 L38.224,88 L34.96,88 Z M63.76,65.024 C64.4000032,65.024 65.0133304,65.1359989 65.6,65.36 C66.1866696,65.5840011 66.7039978,65.9093312 67.152,66.336 C67.6000022,66.7626688 67.957332,67.2746637 68.224,67.872 C68.490668,68.4693363 68.624,69.1519962 68.624,69.92 L68.624,83.296 C68.624,84.0640038 68.490668,84.7466637 68.224,85.344 C67.957332,85.9413363 67.6000022,86.4533312 67.152,86.88 C66.7039978,87.3066688 66.1866696,87.6319989 65.6,87.856 C65.0133304,88.0800011 64.4000032,88.192 63.76,88.192 C63.1199968,88.192 62.5066696,88.0800011 61.92,87.856 C61.3333304,87.6319989 60.8160022,87.3066688 60.368,86.88 C59.9199978,86.4533312 59.562668,85.9413363 59.296,85.344 C59.029332,84.7466637 58.896,84.0640038 58.896,83.296 L58.896,69.92 C58.896,69.1519962 59.029332,68.4693363 59.296,67.872 C59.562668,67.2746637 59.9199978,66.7626688 60.368,66.336 C60.8160022,65.9093312 61.3333304,65.5840011 61.92,65.36 C62.5066696,65.1359989 63.1199968,65.024 63.76,65.024 Z M52.128,65.216 L52.128,88 L48.864,88 L48.864,68.672 L45.6,71.072 L45.6,67.616 L48.864,65.216 L52.128,65.216 Z M63.76,68.288 C63.2906643,68.288 62.9066682,68.4426651 62.608,68.752 C62.3093318,69.0613349 62.16,69.4506643 62.16,69.92 L62.16,69.92 L62.16,83.296 C62.16,83.7653357 62.3093318,84.1546651 62.608,84.464 C62.9066682,84.7733349 63.2906643,84.928 63.76,84.928 C64.2293357,84.928 64.6133318,84.7733349 64.912,84.464 C65.2106682,84.1546651 65.36,83.7653357 65.36,83.296 L65.36,83.296 L65.36,69.92 C65.36,69.4506643 65.2106682,69.0613349 64.912,68.752 C64.6133318,68.4426651 64.2293357,68.288 63.76,68.288 Z" id="DAY.110" fill="#6E767D" fill-rule="nonzero"></path>
        </g>
        <rect id="矩形" fill="#1D1E1F" x="141" y="90" width="228" height="10"></rect>
        <text id="颜色模式校正" font-family="PingFangSC-Semibold, PingFang SC" font-size="38" font-weight="500" line-spacing="38" fill="#A8B2BA">
            <tspan x="141" y="97">颜色模式校正</tspan>
        </text>
        <text id="通过色彩模式矫正可以有效减少印前和印后的" font-family="PingFangSC-Regular, PingFang SC" font-size="14" font-weight="normal" line-spacing="19" fill="#A8B2BA">
            <tspan x="62" y="131">通过色彩模式矫正可以有效减少印前和印后的色差问题。</tspan>
            <tspan x="62" y="150">常用色彩模式</tspan>
            <tspan x="62" y="169">色彩模式以建立良好的客观描述和重现色彩特征为基础，设计中常用的有RGB模式和CMYK模式。</tspan>
            <tspan x="62" y="188">RGB色彩模式：是一种发光的色彩模式，人们在黑暗的房间内仍然可以看见电视屏幕上的内容，就是因为它使用了</tspan>
            <tspan x="62" y="207">RGB色彩显示模式。电脑、手机屏幕都使用了RGB色彩模式，纯度很高。</tspan>
            <tspan x="62" y="226">CMYK色彩模式：为什么在黑暗的房间中却无法阅读书籍？因为印刷品上的图像都是CMYK模式。CMYK依靠反</tspan>
            <tspan x="62" y="245">光，由阳光或灯光照射到印刷品上，再反射进人眼。如杂志、报纸、招贴等。印刷色彩最好用CMY三种油墨混合，</tspan>
            <tspan x="62" y="264">不易显脏。</tspan>
            <tspan x="62" y="283">通常情况下，彩色校正以青色（Cyan）、品红色（Magenta）、黄色（Yellow）、红色（Red）、绿色（Green）</tspan>
            <tspan x="62" y="302">和蓝色（Violet）六色为基准。对于以某一色调为基本色的图像，可以适当夸张基本色，给足色调使印刷效果更突</tspan>
            <tspan x="62" y="321">出。还可减少相反色用量，衬托基本色的纯度。</tspan>
        </text>
        <text id="《设计师必懂的黄金设计法则》-读书笔记" font-family="PingFangSC-Regular, PingFang SC" font-size="14" font-weight="normal" line-spacing="24" fill="#3A4249">
            <tspan x="62" y="353">《设计师必懂的黄金设计法则》     </tspan>
            <tspan x="62" y="377">读书笔记 设计原则 思考总结</tspan>
        </text>
    </g>
</svg>