<?xml version="1.0" encoding="UTF-8"?>
<svg width="828px" height="432px" viewBox="0 0 828 432" version="1.1" xmlns="http://www.w3.org/2000/svg" xmlns:xlink="http://www.w3.org/1999/xlink">
    <!-- Generator: Sketch 58 (84663) - https://sketch.com -->
    <title>93</title>
    <desc>Created with Sketch.</desc>
    <g id="93" stroke="none" stroke-width="1" fill="none" fill-rule="evenodd">
        <g id="编组" transform="translate(32.000000, 16.000000)">
            <rect id="矩形" fill="#101216" x="0" y="0" width="764" height="400" rx="8"></rect>
            <path d="M31.536,58 L31.536,35.216 L36.368,35.216 C38.2453427,35.216 39.6693285,35.7279949 40.64,36.752 C41.6106715,37.7760051 42.096,39.2266573 42.096,41.104 L42.096,51.76 C42.096,53.893344 41.5786718,55.4666616 40.544,56.48 C39.5093282,57.4933384 38.021343,58 36.08,58 L31.536,58 Z M34.8,38.288 L34.8,54.928 L36.304,54.928 C37.2213379,54.928 37.8719981,54.698669 38.256,54.24 C38.6400019,53.781331 38.832,53.0613382 38.832,52.08 L38.832,41.104 C38.832,40.2079955 38.6506685,39.5146691 38.288,39.024 C37.9253315,38.5333309 37.2640048,38.288 36.304,38.288 L34.8,38.288 Z M53.376,50.032 L51.776,41.776 L51.712,41.776 L50.112,50.032 L53.376,50.032 Z M45.312,58 L50.4,35.216 L53.12,35.216 L58.208,58 L54.944,58 L53.984,53.104 L49.536,53.104 L48.576,58 L45.312,58 Z M63.088,58 L63.088,48.368 L58.608,35.216 L62.064,35.216 L64.688,44.272 L64.752,44.272 L67.376,35.216 L70.832,35.216 L66.352,48.368 L66.352,58 L63.088,58 Z M71.328,58 L71.328,54.736 L74.592,54.736 L74.592,58 L71.328,58 Z M31.088,69.92 C31.088,69.1519962 31.221332,68.4693363 31.488,67.872 C31.754668,67.2746637 32.1119978,66.7626688 32.56,66.336 C33.0080022,65.9093312 33.5253304,65.5840011 34.112,65.36 C34.6986696,65.1359989 35.3119968,65.024 35.952,65.024 C36.5920032,65.024 37.2053304,65.1359989 37.792,65.36 C38.3786696,65.5840011 38.8959978,65.9093312 39.344,66.336 C39.7920022,66.7626688 40.149332,67.2746637 40.416,67.872 C40.682668,68.4693363 40.816,69.1519962 40.816,69.92 L40.816,83.296 C40.816,84.0640038 40.682668,84.7466637 40.416,85.344 C40.149332,85.9413363 39.7920022,86.4533312 39.344,86.88 C38.8959978,87.3066688 38.3786696,87.6319989 37.792,87.856 C37.2053304,88.0800011 36.5920032,88.192 35.952,88.192 C35.3119968,88.192 34.6986696,88.0800011 34.112,87.856 C33.5253304,87.6319989 33.0080022,87.3066688 32.56,86.88 C32.1119978,86.4533312 31.754668,85.9413363 31.488,85.344 C31.221332,84.7466637 31.088,84.0640038 31.088,83.296 L31.088,69.92 Z M34.352,83.296 C34.352,83.7653357 34.5013318,84.1546651 34.8,84.464 C35.0986682,84.7733349 35.4826643,84.928 35.952,84.928 C36.4213357,84.928 36.8053318,84.7733349 37.104,84.464 C37.4026682,84.1546651 37.552,83.7653357 37.552,83.296 L37.552,69.92 C37.552,69.4506643 37.4026682,69.0613349 37.104,68.752 C36.8053318,68.4426651 36.4213357,68.288 35.952,68.288 C35.4826643,68.288 35.0986682,68.4426651 34.8,68.752 C34.5013318,69.0613349 34.352,69.4506643 34.352,69.92 L34.352,83.296 Z M46.176,88 L49.888,78.432 L49.824,78.368 C49.7173328,78.4533338 49.5520011,78.5226664 49.328,78.576 C49.1039989,78.6293336 48.8106685,78.656 48.448,78.656 C47.8719971,78.656 47.3386691,78.5173347 46.848,78.24 C46.3573309,77.9626653 45.9733347,77.6106688 45.696,77.184 C45.5466659,76.9706656 45.4293338,76.7413346 45.344,76.496 C45.2586662,76.2506654 45.1946669,75.9360019 45.152,75.552 C45.0986664,75.2319984 45.0601481,74.8416311 45.0364445,74.3808898 L45.024,74.096 C45.0079999,73.6559978 44.998,73.1290014 44.994,72.5150015 L44.992,71.872 C44.992,71.2319968 44.9998367,70.68996 45.0155102,70.2458781 L45.024,70.032 C45.0410668,69.6479981 45.0717865,69.3083737 45.1161599,69.0131204 L45.152,68.8 C45.1946669,68.4799984 45.2639995,68.2026678 45.36,67.968 C45.4560005,67.7333322 45.5786659,67.4880013 45.728,67.232 C46.1546688,66.5279965 46.7253298,65.9840019 47.44,65.6 C48.1546702,65.2159981 48.9599955,65.024 49.856,65.024 C50.7520045,65.024 51.5519965,65.2213314 52.256,65.616 C52.9600035,66.0106686 53.5253312,66.5493299 53.952,67.232 C54.1013341,67.4880013 54.2293328,67.7333322 54.336,67.968 C54.4426672,68.2026678 54.5279997,68.4799984 54.592,68.8 C54.6346669,69.141335 54.6666666,69.5519976 54.688,70.032 L54.7036735,70.476082 C54.7145579,70.8733602 54.72,71.338664 54.72,71.872 L54.7141225,72.7095518 C54.708898,73.0517551 54.7001905,73.3539035 54.688,73.616 L54.65728,74.1331205 C54.6393601,74.3750401 54.6176001,74.591999 54.592,74.784 C54.5279997,75.125335 54.458667,75.429332 54.384,75.696 C54.309333,75.962668 54.2186672,76.2453318 54.112,76.544 L49.824,88 L46.176,88 Z M48.256,74.144 C48.256,74.6346691 48.4159984,75.0293318 48.736,75.328 C49.0560016,75.6266682 49.4293312,75.776 49.856,75.776 C50.2826688,75.776 50.6559984,75.6266682 50.976,75.328 C51.2960016,75.0293318 51.456,74.6346691 51.456,74.144 L51.456,69.92 C51.456,69.4293309 51.2960016,69.0346682 50.976,68.736 C50.6559984,68.4373318 50.2826688,68.288 49.856,68.288 C49.4293312,68.288 49.0560016,68.4373318 48.736,68.736 C48.4159984,69.0346682 48.256,69.4293309 48.256,69.92 L48.256,74.144 Z M62.768,74.816 C63.7493382,74.816 64.4266648,74.6986678 64.8,74.464 C65.1733352,74.2293322 65.36,73.6853376 65.36,72.832 L65.36,69.888 C65.36,69.4186643 65.2160014,69.0346682 64.928,68.736 C64.6399986,68.4373318 64.2506691,68.288 63.76,68.288 C63.1839971,68.288 62.7733346,68.4693315 62.528,68.832 C62.2826654,69.1946685 62.16,69.546665 62.16,69.888 L62.16,71.744 L58.896,71.744 L58.896,69.856 C58.896,69.1946634 59.0239987,68.5653363 59.28,67.968 C59.5360013,67.3706637 59.8879978,66.8586688 60.336,66.432 C60.7840022,66.0053312 61.3066637,65.6640013 61.904,65.408 C62.5013363,65.1519987 63.1413299,65.024 63.824,65.024 C64.7200045,65.024 65.4613304,65.1999982 66.048,65.552 C66.6346696,65.9040018 67.0773318,66.2613315 67.376,66.624 C67.5893344,66.8800013 67.7759992,67.1359987 67.936,67.392 C68.0960008,67.6480013 68.2293328,67.9573315 68.336,68.32 C68.528001,69.024 68.624,70.0693264 68.624,71.456 L68.6200817,72.0960013 C68.6135511,72.5988582 68.5988573,73.0255221 68.576,73.376 C68.5439998,73.8666691 68.4640006,74.2719984 68.336,74.592 C68.1866659,74.933335 67.978668,75.2213322 67.712,75.456 C67.445332,75.6906678 67.0773357,75.9466653 66.608,76.224 C67.1200026,76.5440016 67.509332,76.8426653 67.776,77.12 C68.042668,77.3973347 68.2399994,77.7173315 68.368,78.08 C68.4960006,78.4640019 68.5706666,78.9173307 68.592,79.44 L68.6076735,79.9232657 C68.6185579,80.3553738 68.624,80.8609495 68.624,81.44 L68.6200817,82.0486543 C68.6135511,82.5297424 68.5988573,82.9455221 68.576,83.296 C68.5439998,83.7866691 68.4960003,84.1919984 68.432,84.512 C68.3679997,84.853335 68.2826672,85.1413322 68.176,85.376 C68.0693328,85.6106678 67.9306675,85.8559987 67.76,86.112 C67.3546646,86.7093363 66.8373365,87.2053314 66.208,87.6 C65.5786635,87.9946686 64.7520051,88.192 63.728,88.192 C63.2159974,88.192 62.6720029,88.1066675 62.096,87.936 C61.5199971,87.7653325 60.9973357,87.4880019 60.528,87.104 C60.0586643,86.7199981 59.6693349,86.2186698 59.36,85.6 C59.0506651,84.9813302 58.896,84.2240045 58.896,83.328 L58.896,81.472 L62.16,81.472 L62.16,83.168 C62.16,83.6800026 62.3039986,84.1013317 62.592,84.432 C62.8800014,84.7626683 63.2693309,84.928 63.76,84.928 C64.2506691,84.928 64.6399986,84.7626683 64.928,84.432 C65.2160014,84.1013317 65.36,83.6586694 65.36,83.104 L65.36,79.84 C65.36,78.9439955 65.189335,78.3573347 64.848,78.08 C64.655999,77.9093325 64.3946683,77.8026669 64.064,77.76 C63.7333317,77.7173331 63.301336,77.696 62.768,77.696 L62.768,74.816 Z" id="DAY.093" fill="#6E767D" fill-rule="nonzero"></path>
        </g>
        <rect id="矩形" fill="#1D1E1F" x="141" y="90" width="228" height="10"></rect>
        <text id="色彩的识别性" font-family="PingFangSC-Semibold, PingFang SC" font-size="38" font-weight="500" line-spacing="38" fill="#A8B2BA">
            <tspan x="141" y="97">色彩的识别性</tspan>
        </text>
        <text id="色彩识别性的高低主要根据主题氛围的需要来" font-family="PingFangSC-Regular, PingFang SC" font-size="14" font-weight="normal" line-spacing="20" fill="#A8B2BA">
            <tspan x="62" y="136">色彩识别性的高低主要根据主题氛围的需要来决定。</tspan>
            <tspan x="62" y="156">影响色彩识别的因素       </tspan>
            <tspan x="234" y="156" fill-opacity="0.6">配色中影响识别性的因素主要是明度和纯度。高识别性的配色通常具备高明度、高纯度</tspan>
            <tspan x="62" y="176" fill-opacity="0.6">的特征，外向开朗；低明度、低纯度的色彩识别度相对较低，沉稳柔和。红色、黄色等暖色系的色彩本身就具备较</tspan>
            <tspan x="62" y="196" fill-opacity="0.6">高的识别性，冷色系或无彩色系的色彩识别性相对更低；面积大的色彩也比面积小的色彩识别性高。</tspan>
            <tspan x="62" y="216">色彩与图像影响识别性    </tspan>
            <tspan x="234" y="216" fill-opacity="0.6">色彩是图像的重要组成部分，直接影响图像效果。合理的配色能强化图像特点，充分体</tspan>
            <tspan x="62" y="236" fill-opacity="0.6">现图像的细节和装饰魅力，使图像具备更多美感。图像配色需要注重统一性、归纳性和夸张性。</tspan>
            <tspan x="650" y="236"></tspan>
            <tspan x="62" y="256">色彩与文字影响识别性    </tspan>
            <tspan x="234" y="256" fill-opacity="0.6">色彩对文字的识别性影响主要体现为明度差。最常见的文字配色是白底黑字，两色明度</tspan>
            <tspan x="62" y="276" fill-opacity="0.6">差异显著，利于阅读。在进行文字配色时，需要以阅读的便利性作为首要考虑因素。</tspan>
            <tspan x="580" y="276"></tspan>
            <tspan x="62" y="296">色彩与版面率影响识别性   </tspan>
            <tspan x="234" y="296" fill-opacity="0.6">版心面积和整个页面面积的比例称为版面率。版面四周留白量越少，版面率越高，识别</tspan>
            <tspan x="62" y="316" fill-opacity="0.6">性越强。留白的色彩不仅指白色，也可以是其他任何色彩，一般来说高明度的色彩比低明度的色彩版面率更低。</tspan>
        </text>
        <text id="《设计师必懂的黄金设计法则》-读书笔记" font-family="PingFangSC-Regular, PingFang SC" font-size="14" font-weight="normal" line-spacing="24" fill="#3A4249">
            <tspan x="54" y="353">《设计师必懂的黄金设计法则》     </tspan>
            <tspan x="54" y="377">  读书笔记 设计原则 思考总结</tspan>
        </text>
    </g>
</svg>