<?xml version="1.0" encoding="UTF-8"?>
<svg width="828px" height="432px" viewBox="0 0 828 432" version="1.1" xmlns="http://www.w3.org/2000/svg" xmlns:xlink="http://www.w3.org/1999/xlink">
    <!-- Generator: Sketch 58 (84663) - https://sketch.com -->
    <title>120</title>
    <desc>Created with Sketch.</desc>
    <g id="120" stroke="none" stroke-width="1" fill="none" fill-rule="evenodd">
        <g id="编组" transform="translate(32.000000, 16.000000)">
            <rect id="矩形" fill="#101216" x="0" y="0" width="764" height="400" rx="8"></rect>
            <path d="M31.536,58 L31.536,35.216 L36.368,35.216 C38.2453427,35.216 39.6693285,35.7279949 40.64,36.752 C41.6106715,37.7760051 42.096,39.2266573 42.096,41.104 L42.096,51.76 C42.096,53.893344 41.5786718,55.4666616 40.544,56.48 C39.5093282,57.4933384 38.021343,58 36.08,58 L31.536,58 Z M34.8,38.288 L34.8,54.928 L36.304,54.928 C37.2213379,54.928 37.8719981,54.698669 38.256,54.24 C38.6400019,53.781331 38.832,53.0613382 38.832,52.08 L38.832,41.104 C38.832,40.2079955 38.6506685,39.5146691 38.288,39.024 C37.9253315,38.5333309 37.2640048,38.288 36.304,38.288 L34.8,38.288 Z M53.376,50.032 L51.776,41.776 L51.712,41.776 L50.112,50.032 L53.376,50.032 Z M45.312,58 L50.4,35.216 L53.12,35.216 L58.208,58 L54.944,58 L53.984,53.104 L49.536,53.104 L48.576,58 L45.312,58 Z M63.088,58 L63.088,48.368 L58.608,35.216 L62.064,35.216 L64.688,44.272 L64.752,44.272 L67.376,35.216 L70.832,35.216 L66.352,48.368 L66.352,58 L63.088,58 Z M71.328,58 L71.328,54.736 L74.592,54.736 L74.592,58 L71.328,58 Z M34.96,88 L34.96,68.672 L31.696,71.072 L31.696,67.616 L34.96,65.216 L38.224,65.216 L38.224,88 L34.96,88 Z M63.76,65.024 C64.4000032,65.024 65.0133304,65.1359989 65.6,65.36 C66.1866696,65.5840011 66.7039978,65.9093312 67.152,66.336 C67.6000022,66.7626688 67.957332,67.2746637 68.224,67.872 C68.490668,68.4693363 68.624,69.1519962 68.624,69.92 L68.624,83.296 C68.624,84.0640038 68.490668,84.7466637 68.224,85.344 C67.957332,85.9413363 67.6000022,86.4533312 67.152,86.88 C66.7039978,87.3066688 66.1866696,87.6319989 65.6,87.856 C65.0133304,88.0800011 64.4000032,88.192 63.76,88.192 C63.1199968,88.192 62.5066696,88.0800011 61.92,87.856 C61.3333304,87.6319989 60.8160022,87.3066688 60.368,86.88 C59.9199978,86.4533312 59.562668,85.9413363 59.296,85.344 C59.029332,84.7466637 58.896,84.0640038 58.896,83.296 L58.896,69.92 C58.896,69.1519962 59.029332,68.4693363 59.296,67.872 C59.562668,67.2746637 59.9199978,66.7626688 60.368,66.336 C60.8160022,65.9093312 61.3333304,65.5840011 61.92,65.36 C62.5066696,65.1359989 63.1199968,65.024 63.76,65.024 Z M49.888,65.024 C50.7413376,65.024 51.471997,65.1786651 52.08,65.488 C52.688003,65.7973349 53.1946646,66.218664 53.6,66.752 C53.9840019,67.285336 54.2666658,67.8933299 54.448,68.576 C54.6293342,69.2586701 54.72,69.9839962 54.72,70.752 L54.7164445,71.2764453 C54.7117038,71.6059263 54.7022223,71.8951099 54.688,72.144 C54.6666666,72.5173352 54.6240003,72.874665 54.56,73.216 C54.4959997,73.557335 54.3893341,73.898665 54.24,74.24 L54.0728888,74.6062224 C53.9496299,74.8669626 53.8026675,75.1608873 53.632,75.488 L48.832,84.736 L54.72,84.736 L54.72,88 L44.992,88 L44.992,84.928 L50.88,73.824 C51.1786682,73.2693306 51.3493331,72.7840021 51.392,72.368 C51.4346669,71.9519979 51.456,71.4346698 51.456,70.816 C51.456,70.5386653 51.4506667,70.2453349 51.44,69.936 C51.4293333,69.6266651 51.3706672,69.3546678 51.264,69.12 C51.1573328,68.8853322 50.9973344,68.6880008 50.784,68.528 C50.5706656,68.3679992 50.2613354,68.288 49.856,68.288 C49.3653309,68.288 48.9760014,68.4266653 48.688,68.704 C48.3999986,68.9813347 48.256,69.386664 48.256,69.92 L48.256,71.776 L44.992,71.776 L44.992,69.984 C44.992,69.3013299 45.1199987,68.6613363 45.376,68.064 C45.6320013,67.4666637 45.9839978,66.9440022 46.432,66.496 C46.8586688,66.0479978 47.3706637,65.690668 47.968,65.424 C48.5653363,65.157332 49.2053299,65.024 49.888,65.024 Z M63.76,68.288 C63.2906643,68.288 62.9066682,68.4426651 62.608,68.752 C62.3093318,69.0613349 62.16,69.4506643 62.16,69.92 L62.16,69.92 L62.16,83.296 C62.16,83.7653357 62.3093318,84.1546651 62.608,84.464 C62.9066682,84.7733349 63.2906643,84.928 63.76,84.928 C64.2293357,84.928 64.6133318,84.7733349 64.912,84.464 C65.2106682,84.1546651 65.36,83.7653357 65.36,83.296 L65.36,83.296 L65.36,69.92 C65.36,69.4506643 65.2106682,69.0613349 64.912,68.752 C64.6133318,68.4426651 64.2293357,68.288 63.76,68.288 Z" id="DAY.120" fill="#6E767D" fill-rule="nonzero"></path>
        </g>
        <rect id="矩形" fill="#1D1E1F" x="141" y="90" width="266" height="10"></rect>
        <text id="对齐的效率法则" font-family="PingFangSC-Semibold, PingFang SC" font-size="38" font-weight="500" line-spacing="38" fill="#A8B2BA">
            <tspan x="141" y="97">对齐的效率法则</tspan>
        </text>
        <text id="不考虑对齐的文字版面自由随行但很难掌控。" font-family="PingFangSC-Regular, PingFang SC" font-size="14" font-weight="normal" line-spacing="20" fill="#A8B2BA">
            <tspan x="62" y="136" fill-opacity="0.6">不考虑对齐的文字版面自由随行但很难掌控。</tspan>
            <tspan x="342" y="136"></tspan>
            <tspan x="62" y="156" font-family="PingFangSC-Medium, PingFang SC" font-weight="400">左对齐编排</tspan>
            <tspan x="132" y="156">       </tspan>
            <tspan x="178" y="156" fill-opacity="0.6">以主线为基准的左对齐运用最频繁也最便于阅读。在阅读完一行文字之后，读者的视线只要迅速</tspan>
            <tspan x="62" y="176" fill-opacity="0.6">返回到下一行的同一位置就可以继续阅读。即使是非常杂乱无章的文字内容，运用左对齐的编排也能够得到秩序井</tspan>
            <tspan x="62" y="196" fill-opacity="0.6">然，具有规律美感的效果。</tspan>
            <tspan x="230" y="196"></tspan>
            <tspan x="62" y="216" font-family="PingFangSC-Medium, PingFang SC" font-weight="400">右对齐编排</tspan>
            <tspan x="132" y="216">     </tspan>
            <tspan x="155.31" y="216" fill-opacity="0.6">右对齐编排比较少见，给人新奇的视觉效果。右对齐会使文字开头变得凌乱，只适合小范围使用。</tspan>
            <tspan x="757.31" y="216"></tspan>
            <tspan x="62" y="236" font-family="PingFangSC-Medium, PingFang SC" font-weight="400">居中对齐编排</tspan>
            <tspan x="146" y="236">     </tspan>
            <tspan x="178" y="236" fill-opacity="0.6">居中对齐是最传统、最古老的编排方式，所有文字都以垂直中轴线为基准编排，具有高格调、高</tspan>
            <tspan x="62" y="256" fill-opacity="0.6">品位的感觉，常用于招贴设计。</tspan>
            <tspan x="258" y="256"></tspan>
            <tspan x="62" y="276" font-family="PingFangSC-Medium, PingFang SC" font-weight="400">左右均对齐编排</tspan>
            <tspan x="160" y="276">    </tspan>
            <tspan x="178.648" y="276" fill-opacity="0.6">版面文字应采用从左到右长度统一的方式，最严谨、工整、端正，有时也显得刻板乏味。</tspan>
            <tspan x="724.648" y="276"></tspan>
            <tspan x="62" y="296" fill-opacity="0.6">左右均齐主要分为横向和纵向两种类型：横向排列常用于报纸、书籍、杂志等媒介的版面编排，使用广泛。纵向排</tspan>
            <tspan x="62" y="316" fill-opacity="0.6">列同时兼具上下均齐的特征，主要运用于传统书籍的版面编排，现在已不多见。</tspan>
        </text>
        <text id="《设计师必懂的黄金设计法则》-读书笔记" font-family="PingFangSC-Regular, PingFang SC" font-size="14" font-weight="normal" line-spacing="24" fill="#3A4249">
            <tspan x="55" y="353">《设计师必懂的黄金设计法则》     </tspan>
            <tspan x="55" y="377" letter-spacing="-1">  </tspan>
            <tspan x="62.324" y="377">读书笔记 设计原则 思考总结</tspan>
        </text>
    </g>
</svg>