<?xml version="1.0" encoding="UTF-8"?>
<svg width="828px" height="432px" viewBox="0 0 828 432" version="1.1" xmlns="http://www.w3.org/2000/svg" xmlns:xlink="http://www.w3.org/1999/xlink">
    <!-- Generator: Sketch 56.3 (81716) - https://sketch.com -->
    <title>10</title>
    <desc>Created with Sketch.</desc>
    <g id="10" stroke="none" stroke-width="1" fill="none" fill-rule="evenodd">
        <g id="编组" transform="translate(32.000000, 16.000000)">
            <rect id="矩形" fill="#101216" x="0" y="0" width="764" height="400" rx="8"></rect>
            <path d="M31.536,58 L31.536,35.216 L36.368,35.216 C38.2453427,35.216 39.6693285,35.7279949 40.64,36.752 C41.6106715,37.7760051 42.096,39.2266573 42.096,41.104 L42.096,51.76 C42.096,53.893344 41.5786718,55.4666616 40.544,56.48 C39.5093282,57.4933384 38.021343,58 36.08,58 L31.536,58 Z M34.8,38.288 L34.8,54.928 L36.304,54.928 C37.2213379,54.928 37.8719981,54.698669 38.256,54.24 C38.6400019,53.781331 38.832,53.0613382 38.832,52.08 L38.832,41.104 C38.832,40.2079955 38.6506685,39.5146691 38.288,39.024 C37.9253315,38.5333309 37.2640048,38.288 36.304,38.288 L34.8,38.288 Z M53.376,50.032 L51.776,41.776 L51.712,41.776 L50.112,50.032 L53.376,50.032 Z M45.312,58 L50.4,35.216 L53.12,35.216 L58.208,58 L54.944,58 L53.984,53.104 L49.536,53.104 L48.576,58 L45.312,58 Z M63.088,58 L63.088,48.368 L58.608,35.216 L62.064,35.216 L64.688,44.272 L64.752,44.272 L67.376,35.216 L70.832,35.216 L66.352,48.368 L66.352,58 L63.088,58 Z M71.328,58 L71.328,54.736 L74.592,54.736 L74.592,58 L71.328,58 Z M31.088,69.92 C31.088,69.1519962 31.221332,68.4693363 31.488,67.872 C31.754668,67.2746637 32.1119978,66.7626688 32.56,66.336 C33.0080022,65.9093312 33.5253304,65.5840011 34.112,65.36 C34.6986696,65.1359989 35.3119968,65.024 35.952,65.024 C36.5920032,65.024 37.2053304,65.1359989 37.792,65.36 C38.3786696,65.5840011 38.8959978,65.9093312 39.344,66.336 C39.7920022,66.7626688 40.149332,67.2746637 40.416,67.872 C40.682668,68.4693363 40.816,69.1519962 40.816,69.92 L40.816,83.296 C40.816,84.0640038 40.682668,84.7466637 40.416,85.344 C40.149332,85.9413363 39.7920022,86.4533312 39.344,86.88 C38.8959978,87.3066688 38.3786696,87.6319989 37.792,87.856 C37.2053304,88.0800011 36.5920032,88.192 35.952,88.192 C35.3119968,88.192 34.6986696,88.0800011 34.112,87.856 C33.5253304,87.6319989 33.0080022,87.3066688 32.56,86.88 C32.1119978,86.4533312 31.754668,85.9413363 31.488,85.344 C31.221332,84.7466637 31.088,84.0640038 31.088,83.296 L31.088,69.92 Z M34.352,83.296 C34.352,83.7653357 34.5013318,84.1546651 34.8,84.464 C35.0986682,84.7733349 35.4826643,84.928 35.952,84.928 C36.4213357,84.928 36.8053318,84.7733349 37.104,84.464 C37.4026682,84.1546651 37.552,83.7653357 37.552,83.296 L37.552,69.92 C37.552,69.4506643 37.4026682,69.0613349 37.104,68.752 C36.8053318,68.4426651 36.4213357,68.288 35.952,68.288 C35.4826643,68.288 35.0986682,68.4426651 34.8,68.752 C34.5013318,69.0613349 34.352,69.4506643 34.352,69.92 L34.352,83.296 Z M48.864,88 L48.864,68.672 L45.6,71.072 L45.6,67.616 L48.864,65.216 L52.128,65.216 L52.128,88 L48.864,88 Z M58.896,69.92 C58.896,69.1519962 59.029332,68.4693363 59.296,67.872 C59.562668,67.2746637 59.9199978,66.7626688 60.368,66.336 C60.8160022,65.9093312 61.3333304,65.5840011 61.92,65.36 C62.5066696,65.1359989 63.1199968,65.024 63.76,65.024 C64.4000032,65.024 65.0133304,65.1359989 65.6,65.36 C66.1866696,65.5840011 66.7039978,65.9093312 67.152,66.336 C67.6000022,66.7626688 67.957332,67.2746637 68.224,67.872 C68.490668,68.4693363 68.624,69.1519962 68.624,69.92 L68.624,83.296 C68.624,84.0640038 68.490668,84.7466637 68.224,85.344 C67.957332,85.9413363 67.6000022,86.4533312 67.152,86.88 C66.7039978,87.3066688 66.1866696,87.6319989 65.6,87.856 C65.0133304,88.0800011 64.4000032,88.192 63.76,88.192 C63.1199968,88.192 62.5066696,88.0800011 61.92,87.856 C61.3333304,87.6319989 60.8160022,87.3066688 60.368,86.88 C59.9199978,86.4533312 59.562668,85.9413363 59.296,85.344 C59.029332,84.7466637 58.896,84.0640038 58.896,83.296 L58.896,69.92 Z M62.16,83.296 C62.16,83.7653357 62.3093318,84.1546651 62.608,84.464 C62.9066682,84.7733349 63.2906643,84.928 63.76,84.928 C64.2293357,84.928 64.6133318,84.7733349 64.912,84.464 C65.2106682,84.1546651 65.36,83.7653357 65.36,83.296 L65.36,69.92 C65.36,69.4506643 65.2106682,69.0613349 64.912,68.752 C64.6133318,68.4426651 64.2293357,68.288 63.76,68.288 C63.2906643,68.288 62.9066682,68.4426651 62.608,68.752 C62.3093318,69.0613349 62.16,69.4506643 62.16,69.92 L62.16,83.296 Z" id="DAY.010" fill="#6E767D" fill-rule="nonzero"></path>
            <rect id="矩形" fill="#1D1E1F" x="109" y="74" width="437" height="10"></rect>
            <path d="M111.66,46.868 L116.866,46.868 L126.1,68.148 L126.252,68.148 L135.448,46.868 L140.654,46.868 L140.654,74 L136.208,74 L136.208,55.304 L136.056,55.304 L128.076,74 L124.238,74 L116.258,55.304 L116.106,55.304 L116.106,74 L111.66,74 L111.66,46.868 Z M154.524,53.822 C157.412,53.822 159.578,54.544 160.946,55.988 C162.162,57.242 162.77,59.066 162.77,61.46 L162.77,74 L158.742,74 L158.742,71.416 C157.982,72.404 157.032,73.126 155.93,73.658 C154.676,74.228 153.194,74.532 151.484,74.532 C149.432,74.532 147.836,74 146.658,72.974 C145.442,71.91 144.834,70.58 144.834,68.946 C144.834,66.742 145.67,65.032 147.418,63.854 C149.014,62.714 151.256,62.106 154.144,62.03 L158.438,61.916 L158.438,61.156 C158.438,58.572 157.032,57.318 154.22,57.318 C153.004,57.318 152.054,57.508 151.332,57.964 C150.496,58.458 149.926,59.218 149.698,60.244 L145.404,59.902 C145.822,57.736 146.886,56.14 148.596,55.152 C150.04,54.24 152.016,53.822 154.524,53.822 Z M158.438,65.032 L154.448,65.146 C150.99,65.222 149.28,66.438 149.28,68.794 C149.28,69.478 149.546,70.048 150.154,70.504 C150.762,70.96 151.522,71.226 152.472,71.226 C154.144,71.226 155.55,70.732 156.69,69.782 C157.83,68.794 158.438,67.54 158.438,66.02 L158.438,65.032 Z M173.486,48.008 L173.486,54.354 L177.856,54.354 L177.856,57.926 L173.486,57.926 L173.486,69.022 C173.486,69.478 173.562,69.82 173.79,70.086 C174.018,70.314 174.322,70.428 174.778,70.428 L177.362,70.428 L177.362,74 L174.056,74 C172.346,74 171.092,73.544 170.294,72.632 C169.534,71.796 169.154,70.618 169.154,69.022 L169.154,57.926 L165.62,57.926 L165.62,54.354 L169.154,54.354 L169.154,49.794 L173.486,48.008 Z M189.446,53.822 C192.676,53.822 195.146,54.886 196.856,57.09 C198.414,59.066 199.212,61.84 199.212,65.374 L184.506,65.374 C184.658,67.198 185.152,68.604 185.988,69.554 C186.824,70.504 188.04,70.998 189.598,70.998 C190.928,70.998 191.992,70.694 192.828,70.086 C193.474,69.592 194.044,68.794 194.576,67.692 L198.908,67.692 C198.452,69.516 197.54,71.074 196.172,72.29 C194.424,73.772 192.258,74.532 189.636,74.532 C186.71,74.532 184.392,73.62 182.682,71.834 C180.858,69.972 179.946,67.426 179.946,64.158 C179.946,61.232 180.782,58.8 182.53,56.824 C184.202,54.81 186.52,53.822 189.446,53.822 Z M189.56,57.356 C188.116,57.356 187.014,57.736 186.178,58.572 C185.38,59.37 184.848,60.548 184.582,62.106 L194.69,62.106 C194.31,58.914 192.6,57.356 189.56,57.356 Z M211.904,53.822 C212.854,53.822 213.69,53.974 214.374,54.316 L214.374,58.648 C213.386,58.344 212.474,58.23 211.562,58.23 C210.422,58.23 209.396,58.648 208.484,59.56 C207.42,60.586 206.926,61.916 206.926,63.588 L206.926,74 L202.632,74 L202.632,54.354 L206.926,54.354 L206.926,57.166 C207.458,56.178 208.066,55.418 208.788,54.886 C209.662,54.164 210.688,53.822 211.904,53.822 Z M219.77,46.336 C220.606,46.336 221.328,46.602 221.898,47.134 C222.43,47.666 222.734,48.35 222.734,49.186 C222.734,50.022 222.43,50.744 221.86,51.276 C221.29,51.808 220.606,52.074 219.77,52.074 C218.934,52.074 218.25,51.808 217.68,51.276 C217.11,50.706 216.844,50.022 216.844,49.186 C216.844,48.35 217.11,47.666 217.68,47.134 C218.25,46.602 218.934,46.336 219.77,46.336 Z M217.604,54.354 L221.936,54.354 L221.936,74 L217.604,74 L217.604,54.354 Z M236.224,53.822 C239.112,53.822 241.278,54.544 242.646,55.988 C243.862,57.242 244.47,59.066 244.47,61.46 L244.47,74 L240.442,74 L240.442,71.416 C239.682,72.404 238.732,73.126 237.63,73.658 C236.376,74.228 234.894,74.532 233.184,74.532 C231.132,74.532 229.536,74 228.358,72.974 C227.142,71.91 226.534,70.58 226.534,68.946 C226.534,66.742 227.37,65.032 229.118,63.854 C230.714,62.714 232.956,62.106 235.844,62.03 L240.138,61.916 L240.138,61.156 C240.138,58.572 238.732,57.318 235.92,57.318 C234.704,57.318 233.754,57.508 233.032,57.964 C232.196,58.458 231.626,59.218 231.398,60.244 L227.104,59.902 C227.522,57.736 228.586,56.14 230.296,55.152 C231.74,54.24 233.716,53.822 236.224,53.822 Z M240.138,65.032 L236.148,65.146 C232.69,65.222 230.98,66.438 230.98,68.794 C230.98,69.478 231.246,70.048 231.854,70.504 C232.462,70.96 233.222,71.226 234.172,71.226 C235.844,71.226 237.25,70.732 238.39,69.782 C239.53,68.794 240.138,67.54 240.138,66.02 L240.138,65.032 Z M249.41,46.336 L253.742,46.336 L253.742,74 L249.41,74 L249.41,46.336 Z M271.716,46.868 L281.634,46.868 C286.042,46.868 289.348,48.084 291.628,50.516 C293.794,52.796 294.896,56.102 294.896,60.434 C294.896,64.728 293.794,68.034 291.628,70.352 C289.348,72.784 286.042,74 281.634,74 L271.716,74 L271.716,46.868 Z M276.162,50.668 L276.162,70.2 L280.798,70.2 C284.18,70.2 286.65,69.402 288.208,67.844 C289.728,66.248 290.488,63.778 290.488,60.434 C290.488,57.014 289.728,54.506 288.208,52.986 C286.65,51.428 284.18,50.668 280.798,50.668 L276.162,50.668 Z M307.056,53.822 C310.286,53.822 312.756,54.886 314.466,57.09 C316.024,59.066 316.822,61.84 316.822,65.374 L302.116,65.374 C302.268,67.198 302.762,68.604 303.598,69.554 C304.434,70.504 305.65,70.998 307.208,70.998 C308.538,70.998 309.602,70.694 310.438,70.086 C311.084,69.592 311.654,68.794 312.186,67.692 L316.518,67.692 C316.062,69.516 315.15,71.074 313.782,72.29 C312.034,73.772 309.868,74.532 307.246,74.532 C304.32,74.532 302.002,73.62 300.292,71.834 C298.468,69.972 297.556,67.426 297.556,64.158 C297.556,61.232 298.392,58.8 300.14,56.824 C301.812,54.81 304.13,53.822 307.056,53.822 Z M307.17,57.356 C305.726,57.356 304.624,57.736 303.788,58.572 C302.99,59.37 302.458,60.548 302.192,62.106 L312.3,62.106 C311.92,58.914 310.21,57.356 307.17,57.356 Z M327.652,53.822 C332.82,53.822 335.67,55.874 336.126,60.054 L331.908,60.054 C331.604,59.066 331.148,58.344 330.54,57.964 C329.894,57.546 328.906,57.356 327.576,57.356 C326.436,57.356 325.562,57.508 324.992,57.85 C324.308,58.192 324.004,58.724 324.004,59.484 C324.004,60.092 324.498,60.662 325.562,61.118 C326.208,61.384 327.5,61.764 329.476,62.258 C331.68,62.79 333.352,63.398 334.416,64.12 C335.974,65.108 336.772,66.514 336.772,68.262 C336.772,72.442 333.808,74.532 327.918,74.532 C322.446,74.532 319.52,72.214 319.102,67.616 L323.32,67.616 C323.548,68.87 324.004,69.744 324.65,70.276 C325.296,70.732 326.322,70.998 327.766,70.998 C330.806,70.998 332.326,70.162 332.326,68.566 C332.326,67.654 331.756,66.932 330.616,66.4 C330.008,66.096 328.716,65.754 326.74,65.298 C324.422,64.766 322.788,64.196 321.838,63.588 C320.318,62.638 319.558,61.308 319.558,59.598 C319.558,57.774 320.28,56.368 321.8,55.38 C323.282,54.316 325.22,53.822 327.652,53.822 Z M343.118,46.336 C343.954,46.336 344.676,46.602 345.246,47.134 C345.778,47.666 346.082,48.35 346.082,49.186 C346.082,50.022 345.778,50.744 345.208,51.276 C344.638,51.808 343.954,52.074 343.118,52.074 C342.282,52.074 341.598,51.808 341.028,51.276 C340.458,50.706 340.192,50.022 340.192,49.186 C340.192,48.35 340.458,47.666 341.028,47.134 C341.598,46.602 342.282,46.336 343.118,46.336 Z M340.952,54.354 L345.284,54.354 L345.284,74 L340.952,74 L340.952,54.354 Z M358.812,53.822 C361.244,53.822 363.182,54.772 364.626,56.748 L364.626,54.354 L368.958,54.354 L368.958,72.746 C368.958,78.94 365.88,82.056 359.724,82.056 C356.95,82.056 354.86,81.524 353.416,80.536 C351.972,79.472 351.06,77.876 350.68,75.672 L355.012,75.672 C355.24,76.774 355.696,77.534 356.418,77.99 C357.102,78.408 358.204,78.636 359.724,78.636 C362.992,78.636 364.626,76.888 364.626,73.392 L364.626,70.504 C363.182,72.518 361.244,73.544 358.812,73.544 C356.152,73.544 353.986,72.632 352.352,70.884 C350.68,69.098 349.882,66.704 349.882,63.74 C349.882,60.776 350.68,58.382 352.352,56.558 C353.986,54.734 356.152,53.822 358.812,53.822 Z M359.496,57.318 C357.862,57.318 356.608,57.888 355.696,59.028 C354.784,60.13 354.328,61.688 354.328,63.74 C354.328,65.602 354.67,67.046 355.392,68.11 C356.228,69.364 357.558,70.01 359.458,70.01 C361.13,70.01 362.422,69.44 363.334,68.376 C364.208,67.236 364.664,65.716 364.664,63.74 C364.664,61.726 364.208,60.168 363.334,59.028 C362.422,57.888 361.13,57.318 359.496,57.318 Z M383.664,53.822 C388.566,53.822 391.036,56.482 391.036,61.878 L391.036,74 L386.704,74 L386.704,62.258 C386.704,59.028 385.222,57.432 382.258,57.432 C381.194,57.432 380.244,57.812 379.446,58.572 C378.534,59.408 378.002,60.624 377.85,62.182 L377.85,74 L373.518,74 L373.518,54.354 L377.85,54.354 L377.85,56.634 C378.61,55.722 379.484,55 380.434,54.544 C381.422,54.05 382.486,53.822 383.664,53.822 Z M399.852,43.296 C402.284,45.12 404.336,46.944 406.008,48.768 L403.31,51.504 C401.828,49.756 399.776,47.856 397.154,45.88 L399.852,43.296 Z M394.798,54.088 L403.576,54.088 L403.576,69.858 C404.678,68.87 405.856,67.806 407.11,66.628 L408.212,70.808 C405.704,73.088 403.044,75.102 400.232,76.926 L398.712,73.354 C399.358,72.784 399.7,72.062 399.7,71.226 L399.7,57.888 L394.798,57.888 L394.798,54.088 Z M408.402,58.648 L426.946,58.648 L426.946,62.258 C425.882,65.526 424.134,68.376 421.702,70.77 C424.058,72.29 426.908,73.62 430.29,74.798 L428.162,78.218 C424.438,76.698 421.284,75.026 418.776,73.164 C415.812,75.254 412.202,76.926 407.87,78.18 L405.666,74.836 C409.58,73.696 412.886,72.252 415.622,70.504 C413.19,68.072 411.48,65.412 410.568,62.448 L408.402,62.448 L408.402,58.648 Z M414.292,62.448 C415.128,64.614 416.496,66.59 418.472,68.338 C420.41,66.59 421.892,64.652 422.956,62.448 L414.292,62.448 Z M410.986,43.942 L424.666,43.942 L424.666,51.808 C424.666,52.644 425.122,53.1 426.072,53.1 L429.34,53.1 L429.34,56.71 L425.008,56.71 C422.158,56.71 420.752,55.38 420.752,52.72 L420.752,47.666 L414.9,47.666 L414.9,48.692 C414.9,52.644 412.848,55.722 408.82,57.85 L406.16,54.81 C409.352,53.48 410.986,51.58 410.986,49.11 L410.986,43.942 Z M444.768,53.746 L454.572,53.746 L454.572,42.726 L458.676,42.726 L458.676,53.746 L467.986,53.746 L467.986,57.698 L458.676,57.698 L458.676,78.066 L454.572,78.066 L454.572,57.698 L444.768,57.698 L444.768,53.746 Z M438.08,43.03 C440.474,44.892 442.526,46.754 444.236,48.578 L441.5,51.352 C440.056,49.604 437.966,47.742 435.268,45.766 L438.08,43.03 Z M432.798,54.012 L441.842,54.012 L441.842,69.896 C442.944,68.946 444.122,67.882 445.376,66.704 L446.402,70.77 C443.932,73.05 441.31,75.102 438.498,76.926 L436.978,73.354 C437.662,72.784 438.004,72.1 438.004,71.302 L438.004,57.812 L432.798,57.812 L432.798,54.012 Z M480.602,50.478 L488.278,50.478 C488.544,49.604 488.772,48.73 488.924,47.856 L477.372,47.856 L477.372,58.762 C477.22,66.704 475.966,73.088 473.572,77.914 L470.57,75.216 C472.356,71.264 473.268,65.754 473.344,58.762 L473.344,43.98 L504.96,43.98 L504.96,47.856 L492.876,47.856 C492.686,48.768 492.458,49.642 492.192,50.478 L502.338,50.478 L502.338,65.83 L493.94,65.83 L493.94,74.19 C493.94,76.622 492.648,77.838 490.14,77.838 L486.302,77.838 L485.428,73.962 C486.606,74.114 487.708,74.228 488.772,74.228 C489.532,74.228 489.95,73.886 489.95,73.202 L489.95,65.83 L480.602,65.83 L480.602,50.478 Z M498.5,62.258 L498.5,59.788 L484.44,59.788 L484.44,62.258 L498.5,62.258 Z M484.44,56.444 L498.5,56.444 L498.5,54.088 L484.44,54.088 L484.44,56.444 Z M482.958,66.742 L486.416,68.452 C484.744,71.72 482.806,74.532 480.526,76.926 L477.258,74.608 C479.462,72.404 481.362,69.782 482.958,66.742 Z M499.716,66.704 C502.186,69.82 504.086,72.518 505.454,74.798 L502.148,77.04 C500.78,74.532 498.88,71.758 496.486,68.718 L499.716,66.704 Z M527.874,43.98 L527.874,68.072 L523.998,68.072 L523.998,47.78 L514.422,47.78 L514.422,68.414 L510.584,68.414 L510.584,43.98 L527.874,43.98 Z M523.01,68.87 C525.404,70.884 527.456,72.86 529.128,74.836 L526.126,77.838 C524.72,75.9 522.744,73.81 520.198,71.606 L523.01,68.87 Z M517.348,49.946 L521.186,49.946 L521.186,61.764 C521.034,66.248 520.122,69.858 518.488,72.518 C516.854,74.988 514.232,76.926 510.66,78.294 L508.418,74.722 C511.838,73.43 514.156,71.796 515.372,69.896 C516.55,67.768 517.196,65.07 517.348,61.764 L517.348,49.946 Z M531.142,46.108 L534.98,46.108 L534.98,69.478 L531.142,69.478 L531.142,46.108 Z M538.552,77.572 L533.308,77.572 L532.396,73.734 C534.068,73.886 535.664,73.962 537.146,73.962 C538.21,73.962 538.742,73.43 538.742,72.404 L538.742,42.916 L542.694,42.916 L542.694,73.43 C542.694,76.166 541.288,77.572 538.552,77.572 Z" id="MaterialDesign设计原则" fill="#A8B2BA" fill-rule="nonzero"></path>
            <path d="M45.282,125.978 L45.282,141.836 L43.554,141.836 L43.554,140.774 L34.482,140.774 L34.482,141.872 L32.736,141.872 L32.736,125.978 L45.282,125.978 Z M34.482,139.118 L43.554,139.118 L43.554,136.13 L34.482,136.13 L34.482,139.118 Z M34.482,134.582 L43.554,134.582 L43.554,131.81 L34.482,131.81 L34.482,134.582 Z M34.482,130.226 L43.554,130.226 L43.554,127.634 L34.482,127.634 L34.482,130.226 Z M51.24,125.294 L52.914,125.294 L52.914,128.552 L54.858,128.552 L54.858,130.19 L52.914,130.19 L52.914,131.36 C53.76,132.206 54.624,133.142 55.488,134.186 L54.516,135.644 C53.904,134.672 53.364,133.862 52.914,133.214 L52.914,141.836 L51.24,141.836 L51.24,133.664 C50.718,135.122 50.088,136.472 49.332,137.696 L48.594,135.824 C49.8,134.168 50.682,132.296 51.222,130.19 L49.188,130.19 L49.188,128.552 L51.24,128.552 L51.24,125.294 Z M56.55,133.466 L58.116,133.808 C57.54,136.328 56.73,138.488 55.686,140.324 L54.192,139.37 C55.308,137.534 56.082,135.572 56.55,133.466 Z M63.48,133.322 C64.2,135.338 64.812,137.498 65.334,139.802 L63.768,140.504 C63.21,137.984 62.598,135.77 61.95,133.826 L63.48,133.322 Z M59.214,141.656 L57.396,141.656 L57.054,140.054 C57.594,140.126 58.134,140.162 58.638,140.162 C59.07,140.162 59.304,139.91 59.304,139.424 L59.304,132.152 L55.074,132.152 L55.074,130.514 L65.28,130.514 L65.28,132.152 L61.014,132.152 L61.014,139.838 C61.014,141.044 60.402,141.656 59.214,141.656 Z M56.01,126.176 L64.344,126.176 L64.344,127.796 L56.01,127.796 L56.01,126.176 Z M37.722,166.224 L33.888,166.224 L33.888,173.658 C33.888,174.072 34.104,174.288 34.572,174.288 L38.01,174.288 C38.622,174.288 39.018,174.126 39.162,173.838 C39.324,173.496 39.45,172.83 39.522,171.84 L40.746,172.236 C40.62,173.766 40.386,174.702 40.062,175.062 C39.774,175.35 39.198,175.494 38.352,175.494 L34.068,175.494 C33.06,175.494 32.574,175.026 32.574,174.108 L32.574,165.072 L38.982,165.072 L38.982,169.86 C38.964,170.832 38.46,171.336 37.47,171.372 C36.786,171.372 36.12,171.354 35.49,171.318 L35.166,170.094 C35.85,170.166 36.462,170.202 37.002,170.202 C37.47,170.202 37.722,169.95 37.722,169.464 L37.722,166.224 Z M35.436,159.456 L36.39,159.456 C37.956,161.112 39.468,162.858 40.908,164.694 L40.062,165.594 C38.514,163.542 37.164,161.904 36.012,160.68 C34.68,162.66 33.15,164.478 31.386,166.134 L30.63,165.09 C32.394,163.488 33.996,161.616 35.436,159.456 Z M41.97,160.878 L43.23,160.878 L43.23,172.092 L41.97,172.092 L41.97,160.878 Z M44.976,175.638 L42.186,175.638 L41.898,174.396 C42.816,174.45 43.698,174.486 44.526,174.486 C44.976,174.486 45.21,174.216 45.21,173.676 L45.21,159.348 L46.506,159.348 L46.506,174 C46.506,175.08 45.984,175.638 44.976,175.638 Z M63.732,166.674 L59.88,166.674 L59.88,168.114 L64.092,168.114 L64.092,169.176 L59.88,169.176 L59.88,170.67 L64.614,170.67 L64.614,171.768 L59.88,171.768 L59.88,173.55 L58.62,173.55 L58.62,171.768 L54.534,171.768 L54.534,170.67 L58.62,170.67 L58.62,169.176 L55.092,169.176 L55.092,168.114 L58.62,168.114 L58.62,166.674 L55.47,166.674 L55.47,165.594 L58.62,165.594 L58.62,164.154 L54.588,164.154 L54.588,163.074 L58.62,163.074 L58.62,161.652 L55.47,161.652 L55.47,160.572 L58.62,160.572 L58.62,159.258 L59.88,159.258 L59.88,160.572 L63.732,160.572 L63.732,163.074 L64.938,163.074 L64.938,164.154 L63.732,164.154 L63.732,166.674 Z M59.88,161.652 L59.88,163.074 L62.472,163.074 L62.472,161.652 L59.88,161.652 Z M59.88,164.154 L59.88,165.594 L62.472,165.594 L62.472,164.154 L59.88,164.154 Z M59.034,174.198 C61.014,174.198 63.048,174.162 65.136,174.108 L64.92,175.35 L59.592,175.35 C56.352,175.35 54.03,174.882 52.626,173.946 C52.392,173.766 52.194,173.604 52.014,173.424 C51.438,174.27 50.718,175.008 49.89,175.638 L49.044,174.54 C49.89,173.928 50.592,173.208 51.168,172.38 C50.466,171.372 49.89,170.094 49.458,168.546 L50.538,168.15 C50.898,169.428 51.33,170.472 51.798,171.264 C52.41,169.986 52.77,168.492 52.878,166.782 L49.548,166.782 L49.548,165.774 C50.592,164.442 51.564,163.002 52.428,161.454 L49.476,161.454 L49.476,160.23 L53.886,160.23 L53.886,161.292 C52.986,162.948 52.086,164.37 51.222,165.594 L54.048,165.594 L54.048,166.368 C53.976,168.744 53.49,170.76 52.626,172.416 C52.914,172.722 53.202,172.956 53.508,173.136 C54.732,173.82 56.586,174.162 59.034,174.198 Z M69.114,171.48 C69.798,171.966 70.5,172.56 71.184,173.28 C71.778,173.892 72.3,174.522 72.732,175.134 L71.832,175.89 C71.4,175.278 70.878,174.666 70.302,174.054 C69.636,173.334 68.97,172.74 68.304,172.236 L69.114,171.48 Z M90.876,171.696 L90.876,172.938 C89.22,173.766 87.348,174.45 85.26,174.954 L85.098,173.658 C87.294,173.172 89.22,172.524 90.876,171.696 Z M87.996,159.258 L89.238,159.762 C88.338,162.066 87.42,163.902 86.484,165.27 C87.276,165.162 88.068,165.018 88.86,164.874 C89.184,164.262 89.508,163.632 89.85,162.948 L91.02,163.398 C89.436,166.386 88.122,168.528 87.078,169.824 C88.338,169.5 89.598,169.068 90.876,168.51 L90.876,169.716 C88.986,170.508 87.168,171.03 85.44,171.318 L85.08,170.13 C85.314,170.022 85.512,169.878 85.674,169.734 C86.358,169.014 87.204,167.808 88.194,166.08 C87.222,166.26 86.232,166.44 85.242,166.584 L84.9,165.396 C85.116,165.306 85.296,165.144 85.476,164.892 C86.448,163.254 87.276,161.382 87.996,159.258 Z M91.488,167.16 L91.2,166.008 C91.308,165.972 91.38,165.936 91.452,165.918 C92.064,165.468 92.838,164.316 93.81,162.444 L90.732,162.444 L90.732,161.202 L95.322,161.202 C95.07,160.518 94.8,159.906 94.512,159.348 L95.826,159.132 C96.096,159.744 96.366,160.446 96.618,161.202 L100.668,161.202 L100.668,162.444 L95.16,162.444 C94.368,164.01 93.666,165.144 93.054,165.864 C94.728,165.72 96.402,165.522 98.058,165.252 C97.662,164.676 97.23,164.082 96.78,163.506 L97.77,162.894 C98.994,164.46 99.948,165.828 100.614,167.016 L99.606,167.718 C99.354,167.25 99.084,166.8 98.778,166.332 C96.546,166.692 94.116,166.962 91.488,167.16 Z M92.946,167.898 L94.206,167.898 C94.116,170.166 93.828,171.84 93.36,172.902 C92.838,174.018 91.974,174.972 90.75,175.764 L89.922,174.738 C90.984,174.054 91.74,173.262 92.19,172.344 C92.622,171.408 92.874,169.932 92.946,167.898 Z M99.354,175.476 L98.094,175.476 C97.014,175.476 96.474,174.954 96.474,173.91 L96.474,167.736 L97.716,167.736 L97.716,173.694 C97.716,174.072 97.842,174.27 98.13,174.306 L99.3,174.306 C99.696,174.27 99.93,174.054 100.002,173.658 C100.074,173.154 100.128,172.38 100.128,171.318 L101.244,171.714 C101.244,173.406 101.118,174.468 100.884,174.864 C100.65,175.224 100.146,175.44 99.354,175.476 Z M102.9,166.746 L119.082,166.746 L119.082,168.042 L102.9,168.042 L102.9,166.746 Z M123.114,171.48 C123.798,171.966 124.5,172.56 125.184,173.28 C125.778,173.892 126.3,174.522 126.732,175.134 L125.832,175.89 C125.4,175.278 124.878,174.666 124.302,174.054 C123.636,173.334 122.97,172.74 122.304,172.236 L123.114,171.48 Z M141.726,164.64 L152.31,164.64 L152.31,165.864 L147.738,165.864 L147.738,169.032 L153.102,169.032 L153.102,170.256 L147.738,170.256 L147.738,173.982 C148.998,174.162 150.51,174.27 152.31,174.288 C153.228,174.288 154.164,174.252 155.136,174.18 L154.902,175.476 L152.886,175.476 C149.25,175.476 146.658,175.134 145.074,174.468 C143.886,173.91 142.914,173.046 142.176,171.876 C141.474,173.424 140.61,174.72 139.584,175.764 L138.756,174.738 C140.484,172.902 141.636,170.436 142.248,167.34 L143.508,167.556 C143.292,168.672 143.004,169.698 142.68,170.634 C143.544,172.182 144.624,173.154 145.92,173.568 C146.082,173.622 146.262,173.676 146.442,173.712 L146.442,165.864 L141.726,165.864 L141.726,164.64 Z M154.362,161.13 L154.362,164.964 L153.102,164.964 L153.102,162.318 L140.898,162.318 L140.898,165.054 L139.638,165.054 L139.638,161.13 L146.514,161.13 C146.244,160.482 145.938,159.888 145.614,159.348 L147,159.132 C147.288,159.726 147.576,160.392 147.828,161.13 L154.362,161.13 Z M158.808,162.786 C158.484,163.506 158.106,164.1 157.674,164.568 L156.63,163.812 C157.53,162.84 158.106,161.508 158.358,159.798 L159.582,159.996 C159.492,160.572 159.384,161.094 159.24,161.58 L161.328,161.58 L161.328,159.348 L162.624,159.348 L162.624,161.58 L165.99,161.58 L165.99,162.786 L162.624,162.786 L162.624,165.108 L166.512,165.108 L166.512,166.314 L162.624,166.314 L162.624,168.204 L166.134,168.204 L166.134,172.956 C166.134,174.018 165.594,174.558 164.514,174.558 L163.56,174.558 L163.236,173.334 L164.118,173.388 C164.622,173.388 164.892,173.154 164.892,172.686 L164.892,169.41 L162.624,169.41 L162.624,175.818 L161.328,175.818 L161.328,169.41 L159.042,169.41 L159.042,174.684 L157.782,174.684 L157.782,168.204 L161.328,168.204 L161.328,166.314 L156.972,166.314 L156.972,165.108 L161.328,165.108 L161.328,162.786 L158.808,162.786 Z M167.574,160.968 L168.834,160.968 L168.834,172.092 L167.574,172.092 L167.574,160.968 Z M170.868,175.638 L168.222,175.638 L167.934,174.396 C168.798,174.45 169.626,174.486 170.418,174.486 C170.958,174.486 171.246,174.198 171.246,173.622 L171.246,159.348 L172.524,159.348 L172.524,173.946 C172.524,175.062 171.966,175.638 170.868,175.638 Z" id="目标创建、统一、定制" fill="#A8B2BA" fill-rule="nonzero"></path>
            <path d="M35.382,224.894 L39.054,224.894 C39.198,224.444 39.306,223.994 39.396,223.526 L33.708,223.526 L33.708,228.872 C33.636,232.58 33.042,235.568 31.926,237.818 L30.63,236.666 C31.494,234.794 31.944,232.184 31.98,228.872 L31.98,221.852 L46.848,221.852 L46.848,223.526 L41.088,223.526 C40.98,223.994 40.872,224.462 40.728,224.894 L45.606,224.894 L45.606,232.058 L41.556,232.058 L41.556,236.162 C41.556,237.242 40.98,237.8 39.864,237.8 L38.046,237.8 L37.668,236.126 C38.226,236.198 38.766,236.234 39.27,236.234 C39.648,236.234 39.846,236.072 39.846,235.748 L39.846,232.058 L35.382,232.058 L35.382,224.894 Z M43.95,230.51 L43.95,229.178 L37.038,229.178 L37.038,230.51 L43.95,230.51 Z M37.038,227.72 L43.95,227.72 L43.95,226.442 L37.038,226.442 L37.038,227.72 Z M36.552,232.616 L38.046,233.336 C37.254,234.884 36.3,236.216 35.22,237.35 L33.798,236.342 C34.878,235.298 35.796,234.056 36.552,232.616 Z M44.292,232.598 C45.48,234.056 46.416,235.334 47.064,236.432 L45.642,237.404 C44.976,236.216 44.076,234.902 42.924,233.462 L44.292,232.598 Z M57.648,221.852 L57.648,233.174 L55.992,233.174 L55.992,223.49 L51.276,223.49 L51.276,233.336 L49.62,233.336 L49.62,221.852 L57.648,221.852 Z M55.308,233.588 C56.496,234.56 57.486,235.532 58.296,236.504 L57,237.782 C56.316,236.846 55.344,235.838 54.12,234.758 L55.308,233.588 Z M52.824,224.552 L54.48,224.552 L54.48,230.186 C54.408,232.31 53.976,234.002 53.22,235.262 C52.446,236.432 51.222,237.35 49.53,237.998 L48.558,236.468 C50.178,235.856 51.294,235.064 51.87,234.128 C52.446,233.12 52.752,231.806 52.824,230.186 L52.824,224.552 Z M59.34,222.806 L60.996,222.806 L60.996,233.93 L59.34,233.93 L59.34,222.806 Z M62.778,237.674 L60.312,237.674 L59.916,236.018 C60.708,236.072 61.464,236.108 62.184,236.108 C62.706,236.108 62.976,235.838 62.976,235.334 L62.976,221.294 L64.668,221.294 L64.668,235.766 C64.668,237.026 64.038,237.674 62.778,237.674 Z M43.032,260.1 L38.442,260.1 L38.442,258.858 L43.608,258.858 L43.608,255.294 L44.904,255.294 L44.904,258.858 L46.974,258.858 L46.974,260.1 L44.904,260.1 L44.904,269.928 C44.904,271.026 44.364,271.584 43.32,271.584 L41.358,271.584 L41.07,270.324 C41.7,270.36 42.312,270.396 42.888,270.396 C43.356,270.396 43.608,270.126 43.608,269.604 L43.608,261.144 C42.348,264.51 40.368,267.3 37.704,269.514 L37.02,268.344 C39.792,266.22 41.808,263.466 43.032,260.1 Z M31.044,258.822 L33.942,258.822 L33.942,255.312 L35.238,255.312 L35.238,258.822 L37.632,258.822 L37.632,260.064 L35.238,260.064 L35.238,261.126 C36.156,261.99 37.092,262.962 38.046,264.06 L37.29,265.176 C36.498,264.06 35.814,263.16 35.238,262.476 L35.238,271.728 L33.942,271.728 L33.942,262.296 C33.276,264.24 32.376,266.004 31.26,267.57 L30.684,266.112 C32.178,264.348 33.24,262.332 33.888,260.064 L31.044,260.064 L31.044,258.822 Z M50.214,256.788 C50.574,257.868 50.916,259.11 51.204,260.514 L50.196,260.802 C49.908,259.524 49.566,258.3 49.134,257.13 L50.214,256.788 Z M55.11,256.554 L56.208,256.698 C56.1,258.174 55.812,259.488 55.362,260.64 L54.372,260.316 C54.768,259.236 55.002,257.976 55.11,256.554 Z M48.972,261.612 L52.194,261.612 L52.194,255.366 L53.508,255.366 L53.508,261.612 L56.19,261.612 L56.19,262.872 L53.508,262.872 L53.508,263.34 C54.408,264.15 55.308,265.068 56.226,266.076 L55.452,267.21 C54.696,266.076 54.048,265.158 53.508,264.474 L53.508,271.746 L52.194,271.746 L52.194,264.492 C51.402,266.184 50.412,267.678 49.242,268.956 L48.72,267.624 C50.286,266.112 51.42,264.528 52.122,262.872 L48.972,262.872 L48.972,261.612 Z M61.878,255.384 L63.156,255.384 L63.156,265.59 L65.136,265.284 L65.352,266.58 L63.156,266.904 L63.156,271.746 L61.878,271.746 L61.878,267.102 L56.676,267.894 L56.496,266.598 L61.878,265.788 L61.878,255.384 Z M58.242,256.662 C59.43,257.562 60.42,258.444 61.23,259.308 L60.348,260.19 C59.628,259.344 58.638,258.444 57.378,257.49 L58.242,256.662 Z M57.81,260.874 C58.962,261.792 59.952,262.71 60.744,263.61 L59.862,264.51 C59.142,263.628 58.17,262.692 56.946,261.702 L57.81,260.874 Z M69.6,255.906 L80.544,255.906 L80.544,262.152 L69.6,262.152 L69.6,255.906 Z M79.266,261.054 L79.266,259.578 L70.878,259.578 L70.878,261.054 L79.266,261.054 Z M70.878,258.516 L79.266,258.516 L79.266,257.022 L70.878,257.022 L70.878,258.516 Z M74.55,264.672 L67.044,264.672 L67.044,263.484 L82.974,263.484 L82.974,264.672 L75.864,264.672 L75.864,266.706 L81.048,266.706 L81.048,267.858 L75.864,267.858 L75.864,270.252 C76.728,270.324 77.772,270.378 78.96,270.378 C80.508,270.378 81.822,270.36 82.884,270.324 L82.524,271.548 C81.228,271.548 80.076,271.53 79.05,271.512 C76.08,271.512 74.064,271.278 73.002,270.828 C72.084,270.414 71.256,269.622 70.536,268.434 C69.834,269.766 68.934,270.864 67.854,271.746 L67.008,270.684 C68.664,269.352 69.798,267.552 70.392,265.302 L71.616,265.518 C71.436,266.184 71.238,266.814 71.004,267.408 C71.76,268.668 72.624,269.46 73.56,269.802 C73.848,269.892 74.172,269.982 74.55,270.054 L74.55,264.672 Z M92.334,260.622 L93.666,260.622 L93.666,271.782 L92.334,271.782 L92.334,260.622 Z M92.424,255.312 L93.576,255.312 C95.088,257.796 97.68,259.974 101.352,261.864 L100.578,263.034 C97.194,261.27 94.656,259.11 93,256.518 C91.002,259.362 88.482,261.558 85.422,263.106 L84.648,261.936 C88.014,260.226 90.606,258.012 92.424,255.312 Z M117.93,265.896 L109.002,265.896 L109.002,264.78 L116.688,264.78 L116.688,263.43 L109.398,263.43 L109.398,262.314 L116.688,262.314 L116.688,260.946 L109.668,260.946 L109.668,259.902 C109.416,260.082 109.182,260.262 108.966,260.406 L108.21,259.416 C109.974,258.264 111.162,256.878 111.774,255.222 L113.07,255.384 C112.926,255.78 112.746,256.176 112.566,256.536 L116.742,256.536 L116.742,257.49 C116.202,258.39 115.644,259.146 115.104,259.794 L117.93,259.794 L117.93,265.896 Z M111.864,257.67 C111.288,258.462 110.604,259.164 109.812,259.794 L113.718,259.794 C114.258,259.182 114.78,258.48 115.302,257.67 L111.864,257.67 Z M103.512,256.032 L108.66,256.032 L108.66,257.058 C108.156,258.678 107.562,260.388 106.878,262.152 C107.742,263.754 108.21,265.212 108.282,266.508 C108.282,267.282 108.12,267.84 107.832,268.2 C107.4,268.614 106.662,268.83 105.618,268.848 L105.204,267.534 C105.474,267.57 105.708,267.606 105.906,267.606 C106.356,267.57 106.662,267.48 106.806,267.318 C106.95,267.156 107.04,266.886 107.04,266.508 C107.04,265.266 106.554,263.88 105.6,262.35 C106.356,260.478 106.95,258.768 107.382,257.256 L104.772,257.256 L104.772,271.818 L103.512,271.818 L103.512,256.032 Z M117.678,266.67 C118.326,267.804 118.884,269.01 119.388,270.288 L118.308,270.774 C117.768,269.37 117.192,268.11 116.562,267.03 L117.678,266.67 Z M109.164,267.012 L110.298,267.246 C109.974,268.776 109.506,270.09 108.912,271.206 L107.832,270.522 C108.444,269.46 108.876,268.29 109.164,267.012 Z M115.122,271.656 L112.584,271.656 C111.594,271.656 111.108,271.098 111.108,270 L111.108,266.796 L112.314,266.796 L112.314,269.73 C112.314,270.234 112.53,270.486 112.962,270.486 L114.906,270.486 C115.194,270.486 115.392,270.414 115.518,270.288 C115.662,270.108 115.752,269.568 115.824,268.686 L116.94,269.064 C116.832,270.288 116.616,271.026 116.328,271.314 C116.076,271.53 115.662,271.656 115.122,271.656 Z M113.952,266.382 C114.636,267.156 115.176,267.84 115.554,268.416 L114.582,269.1 C114.204,268.452 113.682,267.75 113.034,266.976 L113.952,266.382 Z M125.616,256.842 L125.616,269.712 L124.428,269.712 L124.428,268.74 L122.646,268.74 L122.646,270.09 L121.44,270.09 L121.44,256.842 L125.616,256.842 Z M122.646,267.498 L124.428,267.498 L124.428,258.048 L122.646,258.048 L122.646,267.498 Z M128.568,259.56 C127.866,260.136 127.164,260.676 126.444,261.18 L125.724,260.064 C127.722,258.75 129.504,257.202 131.088,255.402 L132.06,255.402 C133.788,257.31 135.534,258.822 137.334,259.956 L136.596,261.036 C135.84,260.532 135.102,259.974 134.418,259.398 L134.418,260.442 L128.568,260.442 L128.568,259.56 Z M134.382,259.362 C133.374,258.534 132.438,257.616 131.574,256.608 C130.674,257.616 129.738,258.534 128.802,259.362 L134.382,259.362 Z M130.134,271.638 L129.27,271.638 L128.964,270.54 L129.774,270.594 C130.206,270.594 130.422,270.36 130.422,269.928 L130.422,268.344 L128.154,268.344 L128.154,271.8 L126.984,271.8 L126.984,261.918 L131.556,261.918 L131.556,270.18 C131.556,271.152 131.07,271.638 130.134,271.638 Z M128.154,267.318 L130.422,267.318 L130.422,265.662 L128.154,265.662 L128.154,267.318 Z M128.154,264.636 L130.422,264.636 L130.422,262.98 L128.154,262.98 L128.154,264.636 Z M132.672,262.278 L133.752,262.278 L133.752,268.92 L132.672,268.92 L132.672,262.278 Z M134.832,271.71 L133.248,271.71 L132.996,270.558 C133.5,270.594 133.968,270.63 134.418,270.63 C134.85,270.63 135.066,270.378 135.066,269.874 L135.066,261.648 L136.254,261.648 L136.254,270.162 C136.254,271.188 135.768,271.71 134.832,271.71 Z M141.114,267.48 C141.798,267.966 142.5,268.56 143.184,269.28 C143.778,269.892 144.3,270.522 144.732,271.134 L143.832,271.89 C143.4,271.278 142.878,270.666 142.302,270.054 C141.636,269.334 140.97,268.74 140.304,268.236 L141.114,267.48 Z M157.098,260.028 L164.1,260.028 C164.244,258.984 164.316,257.904 164.334,256.77 L164.334,255.312 L165.666,255.312 L165.666,256.482 C165.666,257.742 165.576,258.912 165.432,260.028 L172.902,260.028 L172.902,261.288 L165.81,261.288 C167.07,265.356 169.554,268.488 173.244,270.684 L172.434,271.728 C168.816,269.496 166.332,266.364 164.982,262.296 C163.866,266.67 161.382,269.856 157.548,271.854 L156.738,270.774 C160.572,268.884 162.948,265.716 163.884,261.288 L157.098,261.288 L157.098,260.028 Z M177.168,261.45 L177.168,264.438 L179.958,264.438 L179.958,261.45 L177.168,261.45 Z M179.958,260.28 L179.958,257.202 L177.168,257.202 L177.168,260.28 L179.958,260.28 Z M177.15,265.626 C177.042,268.146 176.592,270.198 175.8,271.818 L174.864,270.954 C175.584,269.334 175.962,267.246 175.98,264.708 L175.98,256.032 L181.164,256.032 L181.164,270.216 C181.164,271.206 180.642,271.71 179.616,271.71 L178.248,271.71 L177.942,270.576 C178.41,270.612 178.842,270.63 179.238,270.63 C179.706,270.63 179.958,270.342 179.958,269.784 L179.958,265.626 L177.15,265.626 Z M182.73,256.338 L190.074,256.338 L190.074,267.102 L182.73,267.102 L182.73,256.338 Z M188.814,265.878 L188.814,262.35 L183.972,262.35 L183.972,265.878 L188.814,265.878 Z M183.972,261.144 L188.814,261.144 L188.814,257.544 L183.972,257.544 L183.972,261.144 Z M181.704,269.892 L191.154,269.892 L191.154,271.134 L181.704,271.134 L181.704,269.892 Z M195.348,267.858 C195.744,267.858 196.086,268.02 196.338,268.362 C196.572,268.686 196.698,269.1 196.698,269.622 C196.698,270.414 196.464,271.116 195.996,271.728 C195.528,272.304 194.898,272.7 194.142,272.898 L194.142,272.016 C194.61,271.854 194.988,271.584 195.276,271.224 C195.546,270.846 195.672,270.45 195.672,270.018 C195.6,270.054 195.456,270.09 195.276,270.09 C194.97,270.09 194.718,269.982 194.502,269.766 C194.286,269.55 194.178,269.28 194.178,268.974 C194.178,268.632 194.286,268.362 194.502,268.164 C194.718,267.948 194.988,267.858 195.348,267.858 Z M217.272,257.634 L218.424,257.778 C218.28,258.12 218.136,258.444 217.956,258.768 L222.708,258.768 L222.708,259.668 C222.204,260.622 221.448,261.468 220.422,262.188 C221.628,262.764 222.996,263.25 224.544,263.61 L223.86,264.582 C222.114,264.114 220.62,263.538 219.36,262.836 C217.974,263.574 216.264,264.168 214.212,264.618 L213.636,263.574 C215.49,263.25 217.056,262.782 218.316,262.188 C217.614,261.72 217.002,261.216 216.498,260.676 C215.958,261.18 215.346,261.648 214.662,262.08 L213.942,261.144 C215.58,260.172 216.696,259.002 217.272,257.634 Z M219.36,261.63 C220.242,261.09 220.926,260.46 221.412,259.74 L217.326,259.74 C217.254,259.812 217.2,259.884 217.164,259.956 C217.794,260.568 218.532,261.126 219.36,261.63 Z M215.796,266.472 C218.19,266.922 220.494,267.57 222.69,268.398 L222.258,269.442 C220.026,268.578 217.704,267.912 215.292,267.444 L215.796,266.472 Z M217.668,263.952 C219.072,264.42 220.368,264.996 221.538,265.644 L220.926,266.58 C219.684,265.824 218.406,265.248 217.074,264.816 L217.668,263.952 Z M226.344,256.086 L226.344,271.8 L225.084,271.8 L225.084,271.062 L212.916,271.062 L212.916,271.8 L211.656,271.8 L211.656,256.086 L226.344,256.086 Z M212.916,269.91 L225.084,269.91 L225.084,257.238 L212.916,257.238 L212.916,269.91 Z M229.116,255.996 L238.098,255.996 L238.098,257.22 L236.298,257.22 L236.298,262.422 L238.368,262.422 L238.368,263.664 L236.298,263.664 L236.298,271.674 L234.984,271.674 L234.984,263.664 L232.284,263.664 C232.14,267.318 231.294,270.018 229.764,271.746 L228.792,270.9 C230.106,269.352 230.826,266.94 230.952,263.664 L228.792,263.664 L228.792,262.422 L230.97,262.422 L230.97,257.22 L229.116,257.22 L229.116,255.996 Z M232.302,257.22 L232.302,262.422 L234.984,262.422 L234.984,257.22 L232.302,257.22 Z M243.354,255.348 L244.2,256.32 C242.742,257.832 240.924,259.092 238.728,260.1 L238.17,258.912 C240.258,258.012 241.986,256.824 243.354,255.348 Z M244.128,260.226 L244.974,261.198 C243.498,262.818 241.68,264.168 239.484,265.248 L238.926,264.078 C241.032,263.106 242.76,261.81 244.128,260.226 Z M244.578,265.212 L245.442,266.184 C243.606,268.416 241.32,270.252 238.584,271.71 L238.026,270.504 C240.672,269.172 242.85,267.408 244.578,265.212 Z M249.348,267.858 C249.744,267.858 250.086,268.02 250.338,268.362 C250.572,268.686 250.698,269.1 250.698,269.622 C250.698,270.414 250.464,271.116 249.996,271.728 C249.528,272.304 248.898,272.7 248.142,272.898 L248.142,272.016 C248.61,271.854 248.988,271.584 249.276,271.224 C249.546,270.846 249.672,270.45 249.672,270.018 C249.6,270.054 249.456,270.09 249.276,270.09 C248.97,270.09 248.718,269.982 248.502,269.766 C248.286,269.55 248.178,269.28 248.178,268.974 C248.178,268.632 248.286,268.362 248.502,268.164 C248.718,267.948 248.988,267.858 249.348,267.858 Z M270.3,261.774 L270.3,263.736 L277.446,263.736 L277.446,261.774 L270.3,261.774 Z M277.446,264.87 L270.3,264.87 L270.3,266.778 L277.446,266.778 L277.446,264.87 Z M277.446,267.912 L270.3,267.912 L270.3,271.764 L269.076,271.764 L269.076,262.35 C268.068,263.61 266.898,264.78 265.602,265.824 L264.756,264.726 C267.024,262.926 268.77,260.874 270.012,258.552 L265.242,258.552 L265.242,257.292 L270.606,257.292 C270.912,256.59 271.182,255.888 271.398,255.186 L272.712,255.348 C272.496,256.014 272.28,256.662 272.028,257.292 L280.974,257.292 L280.974,258.552 L271.488,258.552 C271.128,259.272 270.75,259.974 270.318,260.64 L278.67,260.64 L278.67,270.36 C278.67,271.242 278.166,271.692 277.158,271.728 L275.142,271.728 L274.818,270.54 C275.502,270.576 276.15,270.612 276.744,270.612 C277.212,270.612 277.446,270.396 277.446,269.964 L277.446,267.912 Z M286.932,257.508 L284.034,257.508 L284.034,256.392 L290.208,256.392 C290.046,255.996 289.866,255.654 289.686,255.348 L291.072,255.132 C291.252,255.51 291.45,255.924 291.63,256.392 L297.966,256.392 L297.966,257.508 L295.032,257.508 L294.33,258.93 L298.812,258.93 L298.812,260.064 L283.188,260.064 L283.188,258.93 L287.508,258.93 L286.932,257.508 Z M288.858,258.93 L292.98,258.93 L293.682,257.508 L288.282,257.508 L288.858,258.93 Z M285.24,261.126 L296.76,261.126 L296.76,266.454 L285.24,266.454 L285.24,261.126 Z M295.5,265.446 L295.5,264.258 L286.5,264.258 L286.5,265.446 L295.5,265.446 Z M286.5,263.304 L295.5,263.304 L295.5,262.152 L286.5,262.152 L286.5,263.304 Z M284.52,267.3 L285.78,267.552 C285.348,268.992 284.772,270.234 284.016,271.278 L282.9,270.576 C283.638,269.586 284.178,268.488 284.52,267.3 Z M293.466,271.512 L289.074,271.512 C287.85,271.512 287.256,270.954 287.256,269.838 L287.256,267.462 L288.588,267.462 L288.588,269.568 C288.588,270.072 288.876,270.342 289.452,270.342 L293.232,270.342 C293.628,270.342 293.898,270.27 294.042,270.126 C294.258,269.946 294.402,269.388 294.474,268.488 L295.698,268.884 C295.572,270.126 295.32,270.882 294.96,271.17 C294.636,271.386 294.15,271.512 293.466,271.512 Z M291.198,266.796 C291.954,267.552 292.548,268.236 292.944,268.83 L291.864,269.586 C291.432,268.938 290.856,268.236 290.1,267.48 L291.198,266.796 Z M296.85,267.138 C297.858,268.344 298.65,269.388 299.19,270.288 L298.11,271.044 C297.534,270.054 296.778,268.974 295.806,267.786 L296.85,267.138 Z M303.114,267.48 C303.798,267.966 304.5,268.56 305.184,269.28 C305.778,269.892 306.3,270.522 306.732,271.134 L305.832,271.89 C305.4,271.278 304.878,270.666 304.302,270.054 C303.636,269.334 302.97,268.74 302.304,268.236 L303.114,267.48 Z M320.214,255.474 C321.438,256.428 322.482,257.364 323.328,258.3 L322.41,259.218 C321.654,258.318 320.628,257.364 319.314,256.32 L320.214,255.474 Z M330.726,271.476 C329.754,271.476 328.71,271.458 327.576,271.44 C326.442,271.422 325.506,271.314 324.786,271.116 C324.102,270.9 323.472,270.45 322.914,269.802 C322.68,269.496 322.446,269.352 322.23,269.352 C321.798,269.352 321.078,270.18 320.07,271.836 L319.098,270.954 C320.07,269.442 320.916,268.524 321.672,268.2 L321.672,262.728 L319.098,262.728 L319.098,261.54 L322.878,261.54 L322.878,268.29 C323.022,268.398 323.148,268.524 323.292,268.686 C323.724,269.208 324.174,269.586 324.678,269.82 C325.218,270.072 326.028,270.216 327.072,270.252 C328.008,270.27 329.16,270.288 330.546,270.288 C331.41,270.288 332.292,270.27 333.192,270.252 C334.056,270.234 334.74,270.216 335.226,270.18 L334.902,271.476 L330.726,271.476 Z M325.344,256.32 L333.606,256.32 L333.606,257.508 L325.344,257.508 L325.344,256.32 Z M324.246,260.406 L334.92,260.406 L334.92,261.648 L329.304,261.648 C328.314,264.204 327.432,266.022 326.64,267.102 C328.98,266.85 330.906,266.526 332.436,266.166 C332.004,265.158 331.518,264.186 330.996,263.25 L332.058,262.908 C333.03,264.564 333.894,266.454 334.65,268.578 L333.498,268.884 C333.318,268.326 333.12,267.786 332.904,267.282 C330.924,267.75 328.332,268.128 325.128,268.434 L324.804,267.3 C325.56,267.084 326.622,265.194 328.026,261.648 L324.246,261.648 L324.246,260.406 Z M337.62,256.554 L344.136,256.554 L344.136,257.796 L337.62,257.796 L337.62,256.554 Z M336.918,261.414 L344.82,261.414 L344.82,262.674 L340.662,262.674 C339.942,265.41 339.312,267.354 338.772,268.542 C340.194,268.254 341.616,267.84 343.02,267.318 C342.552,266.346 342.102,265.464 341.634,264.636 L342.732,264.096 C343.596,265.644 344.406,267.318 345.162,269.136 L344.046,269.712 C343.866,269.244 343.686,268.812 343.506,268.398 C341.598,269.082 339.51,269.622 337.278,270.018 L336.972,268.794 C337.098,268.758 337.188,268.722 337.26,268.686 C337.8,267.948 338.52,265.95 339.42,262.674 L336.918,262.674 L336.918,261.414 Z M347.52,255.348 L348.816,255.348 L348.816,258.984 L352.74,258.984 C352.74,264.618 352.65,268.092 352.488,269.424 C352.308,270.882 351.426,271.62 349.878,271.62 C349.572,271.62 349.05,271.602 348.294,271.566 L348.006,270.414 C348.654,270.45 349.23,270.486 349.716,270.486 C350.598,270.486 351.12,269.964 351.264,268.938 C351.372,267.984 351.444,265.086 351.48,260.244 L348.816,260.244 L348.816,260.46 C348.762,265.644 347.502,269.442 345.054,271.836 L344.082,270.99 C346.332,268.812 347.484,265.302 347.52,260.46 L347.52,260.244 L345.09,260.244 L345.09,258.984 L347.52,258.984 L347.52,255.348 Z M356.97,271.638 L355.35,271.638 L355.08,270.378 C355.584,270.414 356.052,270.45 356.52,270.45 C356.952,270.45 357.186,270.216 357.186,269.766 L357.186,265.374 C356.502,265.644 355.8,265.896 355.098,266.112 L354.792,264.816 C355.602,264.618 356.394,264.366 357.186,264.06 L357.186,259.992 L355.008,259.992 L355.008,258.75 L357.186,258.75 L357.186,255.348 L358.518,255.348 L358.518,258.75 L360.336,258.75 L360.336,259.992 L358.518,259.992 L358.518,263.502 C359.04,263.25 359.562,262.998 360.066,262.71 L360.066,264.024 C359.562,264.294 359.04,264.546 358.518,264.798 L358.518,270.108 C358.518,271.116 357.996,271.638 356.97,271.638 Z M361.74,255.924 L369.588,255.924 L369.588,262.17 L361.74,262.17 L361.74,255.924 Z M368.328,261.108 L368.328,259.56 L363,259.56 L363,261.108 L368.328,261.108 Z M363,258.552 L368.328,258.552 L368.328,256.986 L363,256.986 L363,258.552 Z M360.48,263.43 L370.776,263.43 L370.776,264.582 L366.276,264.582 L366.276,266.616 L370.038,266.616 L370.038,267.786 L366.276,267.786 L366.276,270.108 C366.996,270.216 367.842,270.27 368.832,270.27 C369.768,270.27 370.578,270.234 371.244,270.18 L370.884,271.44 C370.164,271.44 369.498,271.422 368.922,271.422 C366.546,271.404 364.926,271.17 364.062,270.738 C363.378,270.378 362.748,269.694 362.208,268.686 C361.776,269.802 361.182,270.828 360.408,271.764 L359.454,270.936 C360.822,269.28 361.578,267.408 361.722,265.356 L362.874,265.482 C362.838,266.13 362.748,266.742 362.604,267.354 C363.18,268.56 363.846,269.334 364.602,269.676 C364.728,269.73 364.872,269.784 365.034,269.838 L365.034,264.582 L360.48,264.582 L360.48,263.43 Z M378.156,259.128 L380.478,259.128 L380.478,255.366 L381.81,255.366 L381.81,259.128 L385.032,259.128 L385.032,255.366 L386.346,255.366 L386.346,259.128 L388.74,259.128 L388.74,260.388 L386.346,260.388 L386.346,264.6 L389.244,264.6 L389.244,265.842 L377.652,265.842 L377.652,264.6 L380.478,264.6 L380.478,260.388 L378.156,260.388 L378.156,259.128 Z M381.81,264.6 L385.032,264.6 L385.032,260.388 L381.81,260.388 L381.81,264.6 Z M385.572,266.508 C387.084,268.2 388.236,269.694 389.046,270.954 L387.894,271.746 C387.066,270.378 385.932,268.848 384.51,267.156 L385.572,266.508 Z M381.018,266.634 L382.206,267.192 C381.27,268.956 380.154,270.486 378.876,271.782 L377.76,270.972 C379.02,269.766 380.118,268.326 381.018,266.634 Z M374.952,261.72 C374.358,262.512 373.71,263.286 372.99,264.024 L372.558,262.656 C374.52,260.46 375.942,257.958 376.842,255.15 L378.066,255.708 C377.598,257.112 377.004,258.444 376.284,259.686 L376.284,271.8 L374.952,271.8 L374.952,261.72 Z M394.932,257.508 L392.034,257.508 L392.034,256.392 L398.208,256.392 C398.046,255.996 397.866,255.654 397.686,255.348 L399.072,255.132 C399.252,255.51 399.45,255.924 399.63,256.392 L405.966,256.392 L405.966,257.508 L403.032,257.508 L402.33,258.93 L406.812,258.93 L406.812,260.064 L391.188,260.064 L391.188,258.93 L395.508,258.93 L394.932,257.508 Z M396.858,258.93 L400.98,258.93 L401.682,257.508 L396.282,257.508 L396.858,258.93 Z M393.24,261.126 L404.76,261.126 L404.76,266.454 L393.24,266.454 L393.24,261.126 Z M403.5,265.446 L403.5,264.258 L394.5,264.258 L394.5,265.446 L403.5,265.446 Z M394.5,263.304 L403.5,263.304 L403.5,262.152 L394.5,262.152 L394.5,263.304 Z M392.52,267.3 L393.78,267.552 C393.348,268.992 392.772,270.234 392.016,271.278 L390.9,270.576 C391.638,269.586 392.178,268.488 392.52,267.3 Z M401.466,271.512 L397.074,271.512 C395.85,271.512 395.256,270.954 395.256,269.838 L395.256,267.462 L396.588,267.462 L396.588,269.568 C396.588,270.072 396.876,270.342 397.452,270.342 L401.232,270.342 C401.628,270.342 401.898,270.27 402.042,270.126 C402.258,269.946 402.402,269.388 402.474,268.488 L403.698,268.884 C403.572,270.126 403.32,270.882 402.96,271.17 C402.636,271.386 402.15,271.512 401.466,271.512 Z M399.198,266.796 C399.954,267.552 400.548,268.236 400.944,268.83 L399.864,269.586 C399.432,268.938 398.856,268.236 398.1,267.48 L399.198,266.796 Z M404.85,267.138 C405.858,268.344 406.65,269.388 407.19,270.288 L406.11,271.044 C405.534,270.054 404.778,268.974 403.806,267.786 L404.85,267.138 Z M415.578,255.294 C416.712,256.59 417.702,258.03 418.566,259.578 L417.396,260.172 C416.478,258.552 415.47,257.112 414.354,255.852 L415.578,255.294 Z M421.842,256.14 L423.12,256.428 C422.31,260.64 420.654,264.042 418.134,266.652 C420.15,268.308 422.49,269.604 425.19,270.54 L424.38,271.746 C421.608,270.702 419.214,269.316 417.162,267.588 C415.128,269.406 412.626,270.792 409.674,271.764 L408.954,270.594 C411.798,269.676 414.192,268.362 416.136,266.67 C413.796,264.42 411.96,261.684 410.61,258.444 L411.798,257.778 C413.058,260.964 414.822,263.628 417.09,265.752 C419.502,263.25 421.086,260.046 421.842,256.14 Z M429.114,267.48 C429.798,267.966 430.5,268.56 431.184,269.28 C431.778,269.892 432.3,270.522 432.732,271.134 L431.832,271.89 C431.4,271.278 430.878,270.666 430.302,270.054 C429.636,269.334 428.97,268.74 428.304,268.236 L429.114,267.48 Z M445.44,256.644 L448.626,256.644 L448.626,255.276 L449.886,255.276 L449.886,256.644 L456.096,256.644 L456.096,255.276 L457.356,255.276 L457.356,256.644 L460.542,256.644 L460.542,257.742 L457.356,257.742 L457.356,263.7 L460.812,263.7 L460.812,264.852 L457.068,264.852 C457.932,265.932 459.282,266.778 461.082,267.39 L460.56,268.506 C458.328,267.57 456.744,266.346 455.808,264.852 L450.156,264.852 C449.22,266.346 447.708,267.588 445.62,268.56 L444.954,267.462 C446.736,266.778 448.05,265.914 448.914,264.852 L445.17,264.852 L445.17,263.7 L448.626,263.7 L448.626,257.742 L445.44,257.742 L445.44,256.644 Z M449.886,263.7 L456.096,263.7 L456.096,262.404 L449.886,262.404 L449.886,263.7 Z M449.886,261.378 L456.096,261.378 L456.096,260.1 L449.886,260.1 L449.886,261.378 Z M449.886,259.074 L456.096,259.074 L456.096,257.742 L449.886,257.742 L449.886,259.074 Z M452.37,265.482 L453.63,265.482 L453.63,266.922 L457.284,266.922 L457.284,268.074 L453.63,268.074 L453.63,269.982 L459.804,269.982 L459.804,271.188 L446.07,271.188 L446.07,269.982 L452.37,269.982 L452.37,268.074 L448.68,268.074 L448.68,266.922 L452.37,266.922 L452.37,265.482 Z M465.204,257.544 L463.08,257.544 L463.08,256.284 L469.146,256.284 L469.146,257.544 L466.41,257.544 C466.176,258.984 465.834,260.352 465.366,261.612 L468.714,261.612 L468.714,271.224 L467.616,271.224 L467.616,270.09 L465.708,270.09 L465.708,271.386 L464.574,271.386 L464.574,263.484 C464.196,264.24 463.782,264.96 463.314,265.644 L462.63,264.528 C463.926,262.476 464.772,260.154 465.204,257.544 Z M465.708,268.974 L467.616,268.974 L467.616,262.764 L465.708,262.764 L465.708,268.974 Z M477.066,261.522 L477.066,256.824 L478.272,256.824 L478.272,262.71 L474.888,262.71 L474.888,269.46 L477.444,269.46 L477.444,264.294 L478.632,264.294 L478.632,271.836 L477.444,271.836 L477.444,270.63 L471.18,270.63 L471.18,271.836 L469.992,271.836 L469.992,264.294 L471.18,264.294 L471.18,269.46 L473.682,269.46 L473.682,262.71 L470.334,262.71 L470.334,256.824 L471.54,256.824 L471.54,261.522 L473.682,261.522 L473.682,255.366 L474.888,255.366 L474.888,261.522 L477.066,261.522 Z M483.33,258.858 L493.59,258.858 L493.59,257.148 L482.844,257.148 L482.844,255.978 L494.886,255.978 L494.886,262.854 L482.556,262.854 L482.556,261.684 L493.59,261.684 L493.59,259.992 L483.33,259.992 L483.33,258.858 Z M484.644,264.186 L485.76,264.744 C485.13,266.076 484.392,267.228 483.564,268.2 L482.538,267.48 C483.366,266.562 484.068,265.464 484.644,264.186 Z M489.72,263.502 C489.72,264.222 489.666,264.888 489.576,265.482 C490.566,268.038 493.158,269.766 497.352,270.63 L496.83,271.818 C492.78,270.9 490.206,269.316 489.09,267.066 C488.046,269.262 485.616,270.846 481.8,271.836 L481.26,270.63 C485.094,269.73 487.38,268.182 488.136,266.004 C488.316,265.41 488.406,264.582 488.424,263.502 L489.72,263.502 Z M494.418,264.042 L495.552,264.582 C494.904,265.878 494.166,266.994 493.302,267.93 L492.258,267.192 C493.086,266.31 493.806,265.266 494.418,264.042 Z M503.544,260.532 L508.692,260.532 L508.692,257.706 C507.324,257.832 505.866,257.904 504.318,257.904 L503.922,256.734 C507.846,256.734 511.122,256.284 513.714,255.402 L514.344,256.518 C513.084,256.968 511.644,257.31 510.006,257.544 L510.006,260.532 L515.19,260.532 L515.19,261.774 L510.006,261.774 L510.006,264.564 L514.056,264.564 L514.056,271.782 L512.778,271.782 L512.778,270.828 L506.028,270.828 L506.028,271.818 L504.75,271.818 L504.75,264.564 L508.692,264.564 L508.692,261.774 L503.544,261.774 L503.544,260.532 Z M506.028,269.604 L512.778,269.604 L512.778,265.788 L506.028,265.788 L506.028,269.604 Z M500.286,255.546 C501.492,256.338 502.518,257.13 503.346,257.922 L502.464,258.804 C501.726,258.048 500.7,257.256 499.404,256.392 L500.286,255.546 Z M499.872,259.848 C501.096,260.73 502.14,261.612 502.968,262.512 L502.068,263.412 C501.312,262.566 500.286,261.666 498.972,260.73 L499.872,259.848 Z M501.996,264.636 L503.166,265.086 C502.374,267.39 501.51,269.568 500.574,271.584 L499.278,271.026 C500.322,268.938 501.24,266.814 501.996,264.636 Z M519.114,267.48 C519.798,267.966 520.5,268.56 521.184,269.28 C521.778,269.892 522.3,270.522 522.732,271.134 L521.832,271.89 C521.4,271.278 520.878,270.666 520.302,270.054 C519.636,269.334 518.97,268.74 518.304,268.236 L519.114,267.48 Z M535.53,256.068 L540.732,256.068 L540.732,261.648 L539.058,261.648 L539.058,264.528 L540.912,264.528 L540.912,265.716 L539.058,265.716 L539.058,269.082 C539.814,268.83 540.552,268.578 541.254,268.326 L541.254,269.568 C539.49,270.216 537.438,270.846 535.098,271.422 L534.738,270.216 C534.99,270.144 535.224,270.09 535.476,270.054 L535.476,263.502 L536.628,263.502 L536.628,269.766 C537.06,269.658 537.456,269.55 537.852,269.442 L537.852,261.648 L535.53,261.648 L535.53,256.068 Z M539.508,260.478 L539.508,257.256 L536.754,257.256 L536.754,260.478 L539.508,260.478 Z M541.578,257.274 L544.872,257.274 C545.124,256.626 545.34,255.978 545.484,255.294 L546.636,255.42 C546.492,256.068 546.312,256.698 546.114,257.274 L550.578,257.274 L550.578,258.444 L547.752,258.444 C548.508,259.92 549.678,261.072 551.28,261.936 L550.722,263.07 C549.732,262.494 548.886,261.81 548.202,261.054 L548.202,261.954 L543.882,261.954 L543.882,261.072 C543.126,261.9 542.244,262.584 541.254,263.142 L540.66,262.062 C542.244,261.144 543.468,259.938 544.314,258.444 L541.578,258.444 L541.578,257.274 Z M548.004,260.838 C547.356,260.118 546.852,259.308 546.492,258.444 L545.628,258.444 C545.196,259.344 544.674,260.136 544.08,260.838 L548.004,260.838 Z M541.596,263.7 L550.47,263.7 L550.47,264.834 L544.764,264.834 L544.224,266.634 L549.66,266.634 C549.552,269.064 549.3,270.522 548.904,270.99 C548.508,271.422 547.752,271.656 546.636,271.656 C546.186,271.656 545.79,271.62 545.448,271.548 L545.034,270.45 C545.538,270.522 545.988,270.558 546.384,270.558 C547.194,270.558 547.698,270.396 547.896,270.108 C548.076,269.784 548.22,269.01 548.31,267.768 L542.712,267.768 L543.468,264.834 L541.596,264.834 L541.596,263.7 Z M553.746,256.104 L568.29,256.104 L568.29,257.364 L561.594,257.364 L561.594,264.168 L568.974,264.168 L568.974,265.41 L561.594,265.41 L561.594,271.782 L560.262,271.782 L560.262,265.41 L553.026,265.41 L553.026,264.168 L560.262,264.168 L560.262,257.364 L553.746,257.364 L553.746,256.104 Z M555.942,258.516 C556.626,259.776 557.274,261.144 557.886,262.638 L556.68,263.232 C556.068,261.684 555.42,260.316 554.736,259.11 L555.942,258.516 Z M566.148,258.426 L567.336,258.984 C566.796,260.406 566.076,261.792 565.194,263.16 L564.042,262.566 C564.924,261.162 565.626,259.794 566.148,258.426 Z M585.012,264.312 L585.012,271.818 L583.698,271.818 L583.698,270.918 L574.302,270.918 L574.302,271.818 L572.988,271.818 L572.988,264.312 L585.012,264.312 Z M574.302,269.676 L583.698,269.676 L583.698,265.554 L574.302,265.554 L574.302,269.676 Z M571.71,262.458 L571.458,261.234 C573.042,260.694 575.004,258.696 577.344,255.258 L578.676,255.708 C577.056,258.012 575.418,259.848 573.798,261.18 C577.254,261.036 580.53,260.802 583.626,260.514 C582.942,259.542 582.24,258.624 581.52,257.796 L582.69,257.238 C584.238,259.038 585.678,261.036 587.01,263.214 L585.75,263.826 C585.3,263.07 584.85,262.368 584.418,261.684 C580.62,262.026 576.39,262.278 571.71,262.458 Z" id="原则材料是个隐喻、大胆，图形，有意、运动提供意义、基础灵活、跨平台" fill="#A8B2BA" fill-rule="nonzero"></path>
            <path d="M33.542,330.74 C34.004,331.454 34.438,332.238 34.858,333.106 L33.99,333.54 C33.584,332.644 33.136,331.86 32.66,331.16 L33.542,330.74 Z M35.572,334.674 L30.896,334.674 L30.896,333.708 L36.482,333.708 L36.482,330.194 L31.442,330.194 L31.442,329.228 L36.482,329.228 L36.482,327.618 L37.518,327.618 L37.518,329.228 L42.67,329.228 L42.67,330.194 L37.518,330.194 L37.518,333.708 L38.918,333.708 C39.464,332.756 39.926,331.72 40.318,330.614 L41.298,330.964 C40.892,331.986 40.43,332.896 39.912,333.708 L43.076,333.708 L43.076,334.674 L38.4,334.674 C39.394,336.27 41.088,337.684 43.468,338.93 L42.782,339.798 C40.304,338.272 38.568,336.564 37.574,334.674 L37.518,334.674 L37.518,340.372 L36.482,340.372 L36.482,334.674 L36.398,334.674 C35.502,336.662 33.724,338.37 31.064,339.812 L30.504,338.916 C33.024,337.67 34.718,336.256 35.572,334.674 Z M45.61,327.842 C46.604,328.57 47.444,329.284 48.13,329.984 L47.444,330.67 C46.828,329.998 45.988,329.27 44.924,328.5 L45.61,327.842 Z M45.358,331.272 C46.282,331.972 47.066,332.658 47.696,333.344 L47.01,334.03 C46.45,333.372 45.68,332.672 44.672,331.93 L45.358,331.272 Z M46.982,335.052 L47.85,335.388 C47.234,337.152 46.534,338.804 45.764,340.358 L44.826,339.938 C45.666,338.342 46.38,336.718 46.982,335.052 Z M50.734,330.348 L52.722,330.348 C52.89,329.914 53.016,329.48 53.114,329.032 L49.74,329.032 L49.74,333.106 C49.684,336.13 49.152,338.566 48.144,340.386 L47.388,339.714 C48.256,338.132 48.718,335.934 48.76,333.106 L48.76,328.122 L57.16,328.122 L57.16,329.032 L54.066,329.032 C53.968,329.494 53.842,329.928 53.688,330.348 L56.418,330.348 L56.418,335.262 L54.094,335.262 L54.094,339.224 C54.094,339.98 53.716,340.358 52.988,340.358 L51.812,340.358 L51.602,339.448 C51.966,339.49 52.316,339.518 52.652,339.518 C52.96,339.518 53.128,339.336 53.128,338.986 L53.128,335.262 L50.734,335.262 L50.734,330.348 Z M55.522,334.45 L55.522,333.19 L51.63,333.19 L51.63,334.45 L55.522,334.45 Z M51.63,332.434 L55.522,332.434 L55.522,331.146 L51.63,331.146 L51.63,332.434 Z M51.084,336.256 L51.98,336.452 C51.616,337.684 51.112,338.762 50.468,339.672 L49.656,339.168 C50.314,338.286 50.79,337.32 51.084,336.256 Z M55.844,336.186 C56.418,337.152 56.922,338.188 57.342,339.28 L56.488,339.658 C56.04,338.454 55.536,337.404 55.004,336.48 L55.844,336.186 Z M61.5,330.474 C61.738,330.474 61.948,330.558 62.116,330.74 C62.284,330.894 62.368,331.09 62.368,331.342 C62.368,331.58 62.284,331.776 62.116,331.944 C61.948,332.112 61.738,332.196 61.5,332.196 C61.248,332.196 61.052,332.112 60.884,331.944 C60.716,331.776 60.646,331.58 60.646,331.342 C60.646,331.09 60.716,330.894 60.884,330.74 C61.052,330.558 61.248,330.474 61.5,330.474 Z M61.5,335.598 C61.738,335.598 61.948,335.682 62.116,335.864 C62.284,336.018 62.368,336.214 62.368,336.466 C62.368,336.704 62.284,336.9 62.116,337.068 C61.948,337.236 61.738,337.32 61.5,337.32 C61.248,337.32 61.052,337.236 60.884,337.068 C60.716,336.9 60.646,336.704 60.646,336.466 C60.646,336.214 60.716,336.018 60.884,335.864 C61.052,335.682 61.248,335.598 61.5,335.598 Z M72.868,328.808 L73.988,328.808 L73.988,332.952 C74.24,332.49 74.576,332.14 74.996,331.902 C75.388,331.678 75.822,331.566 76.312,331.566 C77.152,331.566 77.81,331.804 78.258,332.308 C78.706,332.798 78.93,333.512 78.93,334.436 L78.93,339 L77.81,339 L77.81,334.604 C77.81,333.932 77.642,333.414 77.334,333.05 C76.998,332.686 76.536,332.504 75.934,332.504 C75.374,332.504 74.912,332.728 74.548,333.176 C74.17,333.624 73.988,334.198 73.988,334.87 L73.988,339 L72.868,339 L72.868,328.808 Z M82.584,329.424 L82.584,331.762 L84.376,331.762 L84.376,332.7 L82.584,332.7 L82.584,337.306 C82.584,337.572 82.626,337.768 82.738,337.88 C82.836,337.992 83.018,338.062 83.27,338.062 L84.194,338.062 L84.194,339 L83.102,339 C82.514,339 82.08,338.846 81.828,338.538 C81.59,338.258 81.478,337.852 81.478,337.306 L81.478,332.7 L80.022,332.7 L80.022,331.762 L81.478,331.762 L81.478,329.886 L82.584,329.424 Z M87.554,329.424 L87.554,331.762 L89.346,331.762 L89.346,332.7 L87.554,332.7 L87.554,337.306 C87.554,337.572 87.596,337.768 87.708,337.88 C87.806,337.992 87.988,338.062 88.24,338.062 L89.164,338.062 L89.164,339 L88.072,339 C87.484,339 87.05,338.846 86.798,338.538 C86.56,338.258 86.448,337.852 86.448,337.306 L86.448,332.7 L84.992,332.7 L84.992,331.762 L86.448,331.762 L86.448,329.886 L87.554,329.424 Z M94.05,331.566 C95.086,331.566 95.912,331.944 96.514,332.728 C97.06,333.428 97.34,334.31 97.34,335.402 C97.34,336.466 97.06,337.348 96.528,338.048 C95.94,338.804 95.142,339.196 94.106,339.196 C93.07,339.196 92.272,338.692 91.712,337.684 L91.712,341.772 L90.592,341.772 L90.592,331.762 L91.642,331.762 L91.642,332.952 C92.16,332.028 92.958,331.566 94.05,331.566 Z M93.91,332.49 C93.182,332.49 92.608,332.77 92.216,333.344 C91.852,333.848 91.67,334.52 91.67,335.332 L91.67,335.472 C91.67,336.312 91.866,336.984 92.286,337.502 C92.678,338.006 93.196,338.272 93.868,338.272 C94.652,338.272 95.24,337.992 95.646,337.46 C96.01,336.956 96.192,336.27 96.192,335.402 C96.192,334.548 96.01,333.862 95.674,333.358 C95.268,332.77 94.68,332.49 93.91,332.49 Z M101.358,331.566 C103.15,331.566 104.13,332.308 104.326,333.82 L103.234,333.82 C103.136,333.372 102.954,333.036 102.674,332.84 C102.366,332.616 101.918,332.504 101.344,332.504 C100.84,332.504 100.448,332.588 100.168,332.784 C99.86,332.966 99.706,333.218 99.706,333.54 C99.706,333.848 99.902,334.114 100.322,334.324 C100.588,334.45 101.092,334.604 101.82,334.8 C102.688,335.01 103.304,335.234 103.682,335.472 C104.256,335.836 104.55,336.326 104.55,336.956 C104.55,338.44 103.528,339.196 101.484,339.196 C99.58,339.196 98.544,338.356 98.376,336.69 L99.468,336.69 C99.552,337.264 99.762,337.67 100.07,337.922 C100.378,338.146 100.84,338.258 101.456,338.258 C102.744,338.258 103.402,337.838 103.402,337.026 C103.402,336.62 103.164,336.312 102.716,336.088 C102.478,335.976 101.96,335.822 101.176,335.626 C100.322,335.416 99.72,335.206 99.384,334.982 C98.824,334.646 98.558,334.184 98.558,333.568 C98.558,332.952 98.824,332.476 99.37,332.112 C99.874,331.748 100.546,331.566 101.358,331.566 Z M106.846,332.182 C107.07,332.182 107.28,332.266 107.448,332.434 C107.616,332.602 107.7,332.798 107.7,333.036 C107.7,333.274 107.616,333.484 107.448,333.652 C107.28,333.806 107.07,333.89 106.846,333.89 C106.594,333.89 106.398,333.806 106.244,333.652 C106.076,333.484 105.992,333.274 105.992,333.036 C105.992,332.798 106.076,332.602 106.244,332.434 C106.398,332.266 106.594,332.182 106.846,332.182 Z M106.846,337.306 C107.07,337.306 107.28,337.39 107.448,337.558 C107.616,337.726 107.7,337.922 107.7,338.16 C107.7,338.398 107.616,338.608 107.448,338.776 C107.28,338.93 107.07,339.014 106.846,339.014 C106.594,339.014 106.398,338.93 106.244,338.776 C106.076,338.608 105.992,338.398 105.992,338.16 C105.992,337.922 106.076,337.726 106.244,337.558 C106.398,337.39 106.594,337.306 106.846,337.306 Z M114.182,327.52 L115.176,327.52 L110.22,340.4 L109.212,340.4 L114.182,327.52 Z M121.182,327.52 L122.176,327.52 L117.22,340.4 L116.212,340.4 L121.182,327.52 Z M126.726,331.566 C127.832,331.566 128.588,332.014 128.994,332.938 C129.274,332.462 129.61,332.112 130.002,331.902 C130.352,331.678 130.772,331.566 131.276,331.566 C132.032,331.566 132.634,331.804 133.11,332.28 C133.558,332.77 133.796,333.428 133.796,334.254 L133.796,339 L132.676,339 L132.676,334.436 C132.676,333.792 132.536,333.316 132.27,333.008 C131.99,332.672 131.542,332.518 130.926,332.518 C130.45,332.518 130.044,332.686 129.736,333.05 C129.4,333.414 129.246,333.876 129.246,334.464 L129.246,339 L128.126,339 L128.126,334.436 C128.126,333.148 127.566,332.518 126.46,332.518 C125.942,332.518 125.522,332.714 125.186,333.134 C124.85,333.526 124.682,334.016 124.682,334.59 L124.682,339 L123.562,339 L123.562,331.762 L124.682,331.762 L124.682,332.728 C125.228,331.944 125.914,331.566 126.726,331.566 Z M138.682,331.566 C139.718,331.566 140.474,331.832 140.978,332.378 C141.398,332.854 141.622,333.512 141.622,334.352 L141.622,339 L140.572,339 L140.572,337.782 C140.292,338.174 139.914,338.496 139.466,338.748 C138.934,339.042 138.332,339.196 137.66,339.196 C136.932,339.196 136.358,339.014 135.924,338.65 C135.476,338.272 135.252,337.782 135.252,337.194 C135.252,336.368 135.574,335.752 136.246,335.332 C136.834,334.94 137.674,334.73 138.766,334.716 L140.502,334.688 L140.502,334.31 C140.502,333.092 139.872,332.49 138.612,332.49 C138.08,332.49 137.646,332.588 137.31,332.812 C136.932,333.036 136.694,333.386 136.582,333.848 L135.476,333.764 C135.63,333.008 136.008,332.434 136.596,332.07 C137.128,331.734 137.814,331.566 138.682,331.566 Z M140.502,335.528 L138.836,335.556 C137.212,335.584 136.4,336.116 136.4,337.166 C136.4,337.502 136.526,337.768 136.806,337.992 C137.086,338.202 137.45,338.314 137.898,338.314 C138.584,338.314 139.186,338.09 139.718,337.642 C140.236,337.208 140.502,336.704 140.502,336.144 L140.502,335.528 Z M145.29,329.424 L145.29,331.762 L147.082,331.762 L147.082,332.7 L145.29,332.7 L145.29,337.306 C145.29,337.572 145.332,337.768 145.444,337.88 C145.542,337.992 145.724,338.062 145.976,338.062 L146.9,338.062 L146.9,339 L145.808,339 C145.22,339 144.786,338.846 144.534,338.538 C144.296,338.258 144.184,337.852 144.184,337.306 L144.184,332.7 L142.728,332.7 L142.728,331.762 L144.184,331.762 L144.184,329.886 L145.29,329.424 Z M151.31,331.566 C152.472,331.566 153.354,331.958 153.942,332.742 C154.474,333.442 154.754,334.436 154.782,335.696 L149.07,335.696 C149.126,336.508 149.336,337.138 149.728,337.586 C150.12,338.034 150.666,338.258 151.352,338.258 C151.94,338.258 152.43,338.104 152.794,337.81 C153.102,337.558 153.34,337.18 153.522,336.676 L154.642,336.676 C154.474,337.376 154.152,337.936 153.662,338.384 C153.06,338.916 152.29,339.196 151.352,339.196 C150.316,339.196 149.476,338.846 148.86,338.174 C148.216,337.474 147.908,336.55 147.908,335.374 C147.908,334.31 148.202,333.414 148.818,332.7 C149.434,331.944 150.26,331.566 151.31,331.566 Z M151.338,332.504 C150.694,332.504 150.176,332.714 149.784,333.134 C149.392,333.554 149.168,334.114 149.098,334.828 L153.62,334.828 C153.48,333.274 152.71,332.504 151.338,332.504 Z M159.276,331.566 C159.668,331.566 160.004,331.622 160.27,331.734 L160.27,332.854 C159.906,332.742 159.542,332.7 159.192,332.7 C158.632,332.7 158.156,332.938 157.778,333.442 C157.386,333.918 157.204,334.492 157.204,335.164 L157.204,339 L156.098,339 L156.098,331.762 L157.204,331.762 L157.204,333.022 C157.4,332.602 157.652,332.266 157.96,332.028 C158.338,331.72 158.772,331.566 159.276,331.566 Z M162.132,329.032 C162.37,329.032 162.566,329.102 162.734,329.27 C162.902,329.41 162.986,329.606 162.986,329.858 C162.986,330.096 162.902,330.292 162.734,330.46 C162.566,330.614 162.37,330.698 162.132,330.698 C161.894,330.698 161.698,330.614 161.53,330.46 C161.362,330.292 161.292,330.096 161.292,329.858 C161.292,329.606 161.362,329.41 161.53,329.27 C161.698,329.102 161.894,329.032 162.132,329.032 Z M161.572,331.762 L162.692,331.762 L162.692,339 L161.572,339 L161.572,331.762 Z M167.942,331.566 C168.978,331.566 169.734,331.832 170.238,332.378 C170.658,332.854 170.882,333.512 170.882,334.352 L170.882,339 L169.832,339 L169.832,337.782 C169.552,338.174 169.174,338.496 168.726,338.748 C168.194,339.042 167.592,339.196 166.92,339.196 C166.192,339.196 165.618,339.014 165.184,338.65 C164.736,338.272 164.512,337.782 164.512,337.194 C164.512,336.368 164.834,335.752 165.506,335.332 C166.094,334.94 166.934,334.73 168.026,334.716 L169.762,334.688 L169.762,334.31 C169.762,333.092 169.132,332.49 167.872,332.49 C167.34,332.49 166.906,332.588 166.57,332.812 C166.192,333.036 165.954,333.386 165.842,333.848 L164.736,333.764 C164.89,333.008 165.268,332.434 165.856,332.07 C166.388,331.734 167.074,331.566 167.942,331.566 Z M169.762,335.528 L168.096,335.556 C166.472,335.584 165.66,336.116 165.66,337.166 C165.66,337.502 165.786,337.768 166.066,337.992 C166.346,338.202 166.71,338.314 167.158,338.314 C167.844,338.314 168.446,338.09 168.978,337.642 C169.496,337.208 169.762,336.704 169.762,336.144 L169.762,335.528 Z M172.842,328.808 L173.948,328.808 L173.948,339 L172.842,339 L172.842,328.808 Z M176.888,337.334 C177.112,337.334 177.322,337.418 177.49,337.586 C177.658,337.754 177.742,337.95 177.742,338.202 C177.742,338.44 177.658,338.636 177.49,338.804 C177.322,338.972 177.112,339.056 176.888,339.056 C176.636,339.056 176.44,338.972 176.286,338.804 C176.118,338.636 176.034,338.44 176.034,338.202 C176.034,337.95 176.118,337.754 176.286,337.586 C176.44,337.418 176.636,337.334 176.888,337.334 Z M180.528,329.032 C180.766,329.032 180.962,329.102 181.13,329.27 C181.298,329.41 181.382,329.606 181.382,329.858 C181.382,330.096 181.298,330.292 181.13,330.46 C180.962,330.614 180.766,330.698 180.528,330.698 C180.29,330.698 180.094,330.614 179.926,330.46 C179.758,330.292 179.688,330.096 179.688,329.858 C179.688,329.606 179.758,329.41 179.926,329.27 C180.094,329.102 180.29,329.032 180.528,329.032 Z M179.968,331.762 L181.088,331.762 L181.088,339 L179.968,339 L179.968,331.762 Z M186.422,331.566 C187.5,331.566 188.368,331.93 189.012,332.686 C189.628,333.4 189.936,334.296 189.936,335.388 C189.936,336.466 189.628,337.362 189.026,338.062 C188.368,338.818 187.5,339.196 186.422,339.196 C185.33,339.196 184.476,338.818 183.832,338.062 C183.216,337.362 182.908,336.466 182.908,335.388 C182.908,334.296 183.216,333.4 183.832,332.686 C184.476,331.93 185.33,331.566 186.422,331.566 Z M186.422,332.504 C185.652,332.504 185.05,332.798 184.63,333.386 C184.238,333.918 184.056,334.576 184.056,335.388 C184.056,336.186 184.238,336.844 184.63,337.376 C185.05,337.964 185.652,338.258 186.422,338.258 C187.178,338.258 187.78,337.964 188.228,337.376 C188.606,336.844 188.802,336.172 188.802,335.388 C188.802,334.576 188.606,333.918 188.228,333.386 C187.78,332.798 187.178,332.504 186.422,332.504 Z M196.012,327.52 L197.006,327.52 L192.05,340.4 L191.042,340.4 L196.012,327.52 Z M203.74,328.808 L204.86,328.808 L204.86,339 L203.81,339 L203.81,337.81 C203.306,338.734 202.494,339.196 201.402,339.196 C200.338,339.196 199.512,338.804 198.924,338.048 C198.378,337.348 198.112,336.452 198.112,335.36 C198.112,334.296 198.378,333.428 198.924,332.728 C199.512,331.944 200.31,331.566 201.346,331.566 C202.382,331.566 203.18,332.07 203.74,333.092 L203.74,328.808 Z M201.584,332.49 C200.786,332.49 200.184,332.77 199.792,333.33 C199.428,333.82 199.26,334.492 199.26,335.36 C199.26,336.228 199.428,336.914 199.778,337.418 C200.17,337.978 200.758,338.272 201.542,338.272 C202.27,338.272 202.83,337.992 203.236,337.432 C203.586,336.928 203.768,336.27 203.768,335.458 L203.768,335.318 C203.768,334.478 203.558,333.792 203.166,333.274 C202.76,332.742 202.228,332.49 201.584,332.49 Z M209.578,331.566 C210.74,331.566 211.622,331.958 212.21,332.742 C212.742,333.442 213.022,334.436 213.05,335.696 L207.338,335.696 C207.394,336.508 207.604,337.138 207.996,337.586 C208.388,338.034 208.934,338.258 209.62,338.258 C210.208,338.258 210.698,338.104 211.062,337.81 C211.37,337.558 211.608,337.18 211.79,336.676 L212.91,336.676 C212.742,337.376 212.42,337.936 211.93,338.384 C211.328,338.916 210.558,339.196 209.62,339.196 C208.584,339.196 207.744,338.846 207.128,338.174 C206.484,337.474 206.176,336.55 206.176,335.374 C206.176,334.31 206.47,333.414 207.086,332.7 C207.702,331.944 208.528,331.566 209.578,331.566 Z M209.606,332.504 C208.962,332.504 208.444,332.714 208.052,333.134 C207.66,333.554 207.436,334.114 207.366,334.828 L211.888,334.828 C211.748,333.274 210.978,332.504 209.606,332.504 Z M216.928,331.566 C218.72,331.566 219.7,332.308 219.896,333.82 L218.804,333.82 C218.706,333.372 218.524,333.036 218.244,332.84 C217.936,332.616 217.488,332.504 216.914,332.504 C216.41,332.504 216.018,332.588 215.738,332.784 C215.43,332.966 215.276,333.218 215.276,333.54 C215.276,333.848 215.472,334.114 215.892,334.324 C216.158,334.45 216.662,334.604 217.39,334.8 C218.258,335.01 218.874,335.234 219.252,335.472 C219.826,335.836 220.12,336.326 220.12,336.956 C220.12,338.44 219.098,339.196 217.054,339.196 C215.15,339.196 214.114,338.356 213.946,336.69 L215.038,336.69 C215.122,337.264 215.332,337.67 215.64,337.922 C215.948,338.146 216.41,338.258 217.026,338.258 C218.314,338.258 218.972,337.838 218.972,337.026 C218.972,336.62 218.734,336.312 218.286,336.088 C218.048,335.976 217.53,335.822 216.746,335.626 C215.892,335.416 215.29,335.206 214.954,334.982 C214.394,334.646 214.128,334.184 214.128,333.568 C214.128,332.952 214.394,332.476 214.94,332.112 C215.444,331.748 216.116,331.566 216.928,331.566 Z M222.36,329.032 C222.598,329.032 222.794,329.102 222.962,329.27 C223.13,329.41 223.214,329.606 223.214,329.858 C223.214,330.096 223.13,330.292 222.962,330.46 C222.794,330.614 222.598,330.698 222.36,330.698 C222.122,330.698 221.926,330.614 221.758,330.46 C221.59,330.292 221.52,330.096 221.52,329.858 C221.52,329.606 221.59,329.41 221.758,329.27 C221.926,329.102 222.122,329.032 222.36,329.032 Z M221.8,331.762 L222.92,331.762 L222.92,339 L221.8,339 L221.8,331.762 Z M228.002,331.566 C229.094,331.566 229.906,332.042 230.438,333.008 L230.438,331.762 L231.558,331.762 L231.558,338.496 C231.558,340.806 230.452,341.968 228.254,341.968 C227.274,341.968 226.518,341.772 226.014,341.38 C225.496,340.988 225.174,340.4 225.048,339.616 L226.168,339.616 C226.252,340.106 226.462,340.47 226.784,340.694 C227.106,340.932 227.596,341.058 228.254,341.058 C229.71,341.058 230.438,340.246 230.438,338.65 L230.438,337.376 C229.906,338.342 229.094,338.832 228.002,338.832 C226.994,338.832 226.196,338.482 225.608,337.796 C225.02,337.124 224.74,336.27 224.74,335.22 C224.74,334.156 225.02,333.302 225.608,332.63 C226.196,331.916 226.994,331.566 228.002,331.566 Z M228.17,332.49 C227.442,332.49 226.882,332.742 226.476,333.274 C226.084,333.75 225.888,334.408 225.888,335.22 C225.888,335.976 226.056,336.606 226.406,337.082 C226.798,337.614 227.372,337.894 228.156,337.894 C228.884,337.894 229.444,337.642 229.864,337.138 C230.256,336.648 230.452,336.004 230.452,335.22 C230.452,334.408 230.256,333.75 229.864,333.274 C229.444,332.742 228.884,332.49 228.17,332.49 Z M236.682,331.566 C238.474,331.566 239.384,332.56 239.384,334.548 L239.384,339 L238.264,339 L238.264,334.632 C238.264,333.218 237.62,332.518 236.36,332.518 C235.856,332.518 235.422,332.7 235.058,333.064 C234.666,333.456 234.456,333.974 234.414,334.632 L234.414,339 L233.294,339 L233.294,331.762 L234.414,331.762 L234.414,332.826 C234.666,332.42 234.988,332.112 235.38,331.902 C235.772,331.678 236.206,331.566 236.682,331.566 Z M32.254,351.828 C33.136,352.528 33.878,353.214 34.48,353.9 L33.794,354.6 C33.248,353.928 32.506,353.228 31.554,352.486 L32.254,351.828 Z M30.63,355.874 L33.556,355.874 L33.556,362.09 C34.06,361.67 34.606,361.194 35.18,360.648 L35.46,361.712 C34.578,362.538 33.64,363.266 32.66,363.91 L32.268,363.014 C32.464,362.818 32.576,362.608 32.576,362.384 L32.576,356.84 L30.63,356.84 L30.63,355.874 Z M35.6,357.512 L42.264,357.512 L42.264,358.436 C41.816,359.752 41.088,360.886 40.066,361.838 C41.018,362.496 42.18,363.07 43.552,363.574 L43.006,364.442 C41.55,363.854 40.318,363.196 39.338,362.44 C38.218,363.28 36.832,363.938 35.194,364.442 L34.634,363.588 C36.188,363.126 37.49,362.524 38.54,361.782 C37.476,360.802 36.762,359.71 36.37,358.492 L35.6,358.492 L35.6,357.512 Z M37.322,358.492 C37.686,359.5 38.33,360.41 39.254,361.208 C40.15,360.424 40.822,359.528 41.27,358.492 L37.322,358.492 Z M36.678,352.108 L41.382,352.108 L41.382,355.132 C41.382,355.482 41.564,355.664 41.928,355.664 L43.216,355.664 L43.216,356.588 L41.676,356.588 C40.808,356.588 40.388,356.168 40.388,355.342 L40.388,353.06 L37.672,353.06 L37.672,353.55 C37.672,355.034 36.944,356.182 35.516,356.994 L34.844,356.224 C36.062,355.622 36.678,354.768 36.678,353.662 L36.678,352.108 Z M49.012,355.762 L52.806,355.762 L52.806,351.548 L53.842,351.548 L53.842,355.762 L57.44,355.762 L57.44,356.77 L53.842,356.77 L53.842,364.428 L52.806,364.428 L52.806,356.77 L49.012,356.77 L49.012,355.762 Z M46.268,351.702 C47.22,352.416 48.018,353.13 48.662,353.858 L47.976,354.558 C47.388,353.872 46.576,353.144 45.568,352.388 L46.268,351.702 Z M44.63,355.846 L47.654,355.846 L47.654,362.076 C48.158,361.656 48.718,361.18 49.306,360.62 L49.558,361.656 C48.69,362.496 47.752,363.238 46.758,363.896 L46.366,362.986 C46.576,362.818 46.688,362.622 46.688,362.398 L46.688,356.812 L44.63,356.812 L44.63,355.846 Z M62.242,354.432 L65.168,354.432 C65.308,354.012 65.406,353.578 65.476,353.13 L60.688,353.13 L60.688,357.61 C60.632,360.424 60.184,362.678 59.33,364.372 L58.574,363.7 C59.274,362.23 59.638,360.2 59.666,357.61 L59.666,352.136 L71.062,352.136 L71.062,353.13 L66.484,353.13 C66.4,353.578 66.288,354.012 66.148,354.432 L70.04,354.432 L70.04,359.78 L66.792,359.78 L66.792,363.252 C66.792,363.98 66.414,364.358 65.658,364.358 L64.244,364.358 L64.034,363.364 C64.482,363.406 64.902,363.434 65.308,363.434 C65.616,363.434 65.784,363.294 65.784,363.014 L65.784,359.78 L62.242,359.78 L62.242,354.432 Z M69.06,358.87 L69.06,357.526 L63.222,357.526 L63.222,358.87 L69.06,358.87 Z M63.222,356.658 L69.06,356.658 L69.06,355.356 L63.222,355.356 L63.222,356.658 Z M63.25,360.438 L64.132,360.858 C63.488,362.062 62.746,363.084 61.892,363.952 L61.052,363.364 C61.906,362.552 62.634,361.572 63.25,360.438 Z M68.934,360.424 C69.9,361.572 70.642,362.58 71.16,363.434 L70.32,364.008 C69.788,363.084 69.046,362.048 68.122,360.928 L68.934,360.424 Z M79.35,352.136 L79.35,360.76 L78.37,360.76 L78.37,353.116 L74.366,353.116 L74.366,360.886 L73.386,360.886 L73.386,352.136 L79.35,352.136 Z M77.474,361.138 C78.454,361.95 79.266,362.776 79.938,363.588 L79.182,364.33 C78.594,363.546 77.782,362.72 76.774,361.824 L77.474,361.138 Z M75.878,354.026 L76.858,354.026 L76.858,358.436 C76.816,360.074 76.494,361.376 75.906,362.356 C75.318,363.266 74.38,363.98 73.064,364.484 L72.49,363.588 C73.75,363.112 74.632,362.468 75.136,361.67 C75.598,360.844 75.85,359.766 75.878,358.436 L75.878,354.026 Z M80.946,352.78 L81.926,352.78 L81.926,361.516 L80.946,361.516 L80.946,352.78 Z M83.452,364.26 L81.562,364.26 L81.338,363.28 C81.954,363.308 82.542,363.336 83.102,363.336 C83.564,363.336 83.802,363.098 83.802,362.636 L83.802,351.604 L84.81,351.604 L84.81,362.888 C84.81,363.798 84.348,364.26 83.452,364.26 Z" id="来源：https://material.io/design设计原则" fill="#3A4249" fill-rule="nonzero"></path>
        </g>
    </g>
</svg>