<?xml version="1.0" encoding="UTF-8"?>
<svg width="828px" height="432px" viewBox="0 0 828 432" version="1.1" xmlns="http://www.w3.org/2000/svg" xmlns:xlink="http://www.w3.org/1999/xlink">
    <!-- Generator: Sketch 58 (84663) - https://sketch.com -->
    <title>103</title>
    <desc>Created with Sketch.</desc>
    <g id="103" stroke="none" stroke-width="1" fill="none" fill-rule="evenodd">
        <g id="编组" transform="translate(32.000000, 16.000000)">
            <rect id="矩形" fill="#101216" x="0" y="0" width="764" height="400" rx="8"></rect>
            <path d="M31.536,58 L31.536,35.216 L36.368,35.216 C38.2453427,35.216 39.6693285,35.7279949 40.64,36.752 C41.6106715,37.7760051 42.096,39.2266573 42.096,41.104 L42.096,51.76 C42.096,53.893344 41.5786718,55.4666616 40.544,56.48 C39.5093282,57.4933384 38.021343,58 36.08,58 L31.536,58 Z M34.8,38.288 L34.8,54.928 L36.304,54.928 C37.2213379,54.928 37.8719981,54.698669 38.256,54.24 C38.6400019,53.781331 38.832,53.0613382 38.832,52.08 L38.832,41.104 C38.832,40.2079955 38.6506685,39.5146691 38.288,39.024 C37.9253315,38.5333309 37.2640048,38.288 36.304,38.288 L34.8,38.288 Z M53.376,50.032 L51.776,41.776 L51.712,41.776 L50.112,50.032 L53.376,50.032 Z M45.312,58 L50.4,35.216 L53.12,35.216 L58.208,58 L54.944,58 L53.984,53.104 L49.536,53.104 L48.576,58 L45.312,58 Z M63.088,58 L63.088,48.368 L58.608,35.216 L62.064,35.216 L64.688,44.272 L64.752,44.272 L67.376,35.216 L70.832,35.216 L66.352,48.368 L66.352,58 L63.088,58 Z M71.328,58 L71.328,54.736 L74.592,54.736 L74.592,58 L71.328,58 Z M34.96,88 L34.96,68.672 L31.696,71.072 L31.696,67.616 L34.96,65.216 L38.224,65.216 L38.224,88 L34.96,88 Z M44.992,69.92 C44.992,69.1519962 45.125332,68.4693363 45.392,67.872 C45.658668,67.2746637 46.0159978,66.7626688 46.464,66.336 C46.9120022,65.9093312 47.4293304,65.5840011 48.016,65.36 C48.6026696,65.1359989 49.2159968,65.024 49.856,65.024 C50.4960032,65.024 51.1093304,65.1359989 51.696,65.36 C52.2826696,65.5840011 52.7999978,65.9093312 53.248,66.336 C53.6960022,66.7626688 54.053332,67.2746637 54.32,67.872 C54.586668,68.4693363 54.72,69.1519962 54.72,69.92 L54.72,83.296 C54.72,84.0640038 54.586668,84.7466637 54.32,85.344 C54.053332,85.9413363 53.6960022,86.4533312 53.248,86.88 C52.7999978,87.3066688 52.2826696,87.6319989 51.696,87.856 C51.1093304,88.0800011 50.4960032,88.192 49.856,88.192 C49.2159968,88.192 48.6026696,88.0800011 48.016,87.856 C47.4293304,87.6319989 46.9120022,87.3066688 46.464,86.88 C46.0159978,86.4533312 45.658668,85.9413363 45.392,85.344 C45.125332,84.7466637 44.992,84.0640038 44.992,83.296 L44.992,69.92 Z M48.256,83.296 C48.256,83.7653357 48.4053318,84.1546651 48.704,84.464 C49.0026682,84.7733349 49.3866643,84.928 49.856,84.928 C50.3253357,84.928 50.7093318,84.7733349 51.008,84.464 C51.3066682,84.1546651 51.456,83.7653357 51.456,83.296 L51.456,69.92 C51.456,69.4506643 51.3066682,69.0613349 51.008,68.752 C50.7093318,68.4426651 50.3253357,68.288 49.856,68.288 C49.3866643,68.288 49.0026682,68.4426651 48.704,68.752 C48.4053318,69.0613349 48.256,69.4506643 48.256,69.92 L48.256,83.296 Z M62.768,74.816 C63.7493382,74.816 64.4266648,74.6986678 64.8,74.464 C65.1733352,74.2293322 65.36,73.6853376 65.36,72.832 L65.36,69.888 C65.36,69.4186643 65.2160014,69.0346682 64.928,68.736 C64.6399986,68.4373318 64.2506691,68.288 63.76,68.288 C63.1839971,68.288 62.7733346,68.4693315 62.528,68.832 C62.2826654,69.1946685 62.16,69.546665 62.16,69.888 L62.16,71.744 L58.896,71.744 L58.896,69.856 C58.896,69.1946634 59.0239987,68.5653363 59.28,67.968 C59.5360013,67.3706637 59.8879978,66.8586688 60.336,66.432 C60.7840022,66.0053312 61.3066637,65.6640013 61.904,65.408 C62.5013363,65.1519987 63.1413299,65.024 63.824,65.024 C64.7200045,65.024 65.4613304,65.1999982 66.048,65.552 C66.6346696,65.9040018 67.0773318,66.2613315 67.376,66.624 C67.5893344,66.8800013 67.7759992,67.1359987 67.936,67.392 C68.0960008,67.6480013 68.2293328,67.9573315 68.336,68.32 C68.528001,69.024 68.624,70.0693264 68.624,71.456 L68.6200817,72.0960013 C68.6135511,72.5988582 68.5988573,73.0255221 68.576,73.376 C68.5439998,73.8666691 68.4640006,74.2719984 68.336,74.592 C68.1866659,74.933335 67.978668,75.2213322 67.712,75.456 C67.445332,75.6906678 67.0773357,75.9466653 66.608,76.224 C67.1200026,76.5440016 67.509332,76.8426653 67.776,77.12 C68.042668,77.3973347 68.2399994,77.7173315 68.368,78.08 C68.4960006,78.4640019 68.5706666,78.9173307 68.592,79.44 L68.6076735,79.9232657 C68.6185579,80.3553738 68.624,80.8609495 68.624,81.44 L68.6200817,82.0486543 C68.6135511,82.5297424 68.5988573,82.9455221 68.576,83.296 C68.5439998,83.7866691 68.4960003,84.1919984 68.432,84.512 C68.3679997,84.853335 68.2826672,85.1413322 68.176,85.376 C68.0693328,85.6106678 67.9306675,85.8559987 67.76,86.112 C67.3546646,86.7093363 66.8373365,87.2053314 66.208,87.6 C65.5786635,87.9946686 64.7520051,88.192 63.728,88.192 C63.2159974,88.192 62.6720029,88.1066675 62.096,87.936 C61.5199971,87.7653325 60.9973357,87.4880019 60.528,87.104 C60.0586643,86.7199981 59.6693349,86.2186698 59.36,85.6 C59.0506651,84.9813302 58.896,84.2240045 58.896,83.328 L58.896,81.472 L62.16,81.472 L62.16,83.168 C62.16,83.6800026 62.3039986,84.1013317 62.592,84.432 C62.8800014,84.7626683 63.2693309,84.928 63.76,84.928 C64.2506691,84.928 64.6399986,84.7626683 64.928,84.432 C65.2160014,84.1013317 65.36,83.6586694 65.36,83.104 L65.36,79.84 C65.36,78.9439955 65.189335,78.3573347 64.848,78.08 C64.655999,77.9093325 64.3946683,77.8026669 64.064,77.76 C63.7333317,77.7173331 63.301336,77.696 62.768,77.696 L62.768,74.816 Z" id="DAY.103" fill="#6E767D" fill-rule="nonzero"></path>
        </g>
        <rect id="矩形" fill="#1D1E1F" x="141" y="90" width="317" height="10"></rect>
        <text id="色彩应用法则-紫色" font-family="PingFangSC-Semibold, PingFang SC" font-size="38" font-weight="500" line-spacing="38" fill="#A8B2BA">
            <tspan x="141" y="97">色彩应用法则 紫色</tspan>
        </text>
        <text id="相对其他色相，紫色在日常生活中比较少见，" font-family="PingFangSC-Regular, PingFang SC" font-size="14" font-weight="normal" line-spacing="20" fill="#A8B2BA">
            <tspan x="62" y="136">相对其他色相，紫色在日常生活中比较少见，因而给人特别的感觉，在古代也是身份高贵的人士才有资格穿着的服</tspan>
            <tspan x="62" y="156">饰色彩，因此紫色往往给人高贵的印象。</tspan>
            <tspan x="62" y="176" font-family="PingFangSC-Medium, PingFang SC" font-weight="400">紫色的运用</tspan>
            <tspan x="132" y="176">           </tspan>
            <tspan x="192" y="176" fill-opacity="0.6">紫色由暖色系的红色和冷色系的蓝色混合而成，象征着精神、高贵、忠诚，是一种极具权威性</tspan>
            <tspan x="62" y="196" fill-opacity="0.6">的色彩。因为紫色散发出的优雅、高贵，使它成为女性特有的幻想空间。针对女性特别是成熟女性族群的设计经常</tspan>
            <tspan x="62" y="216" fill-opacity="0.6">使用紫色。 紫色混合了红色的热情和蓝色的冷静，是种奇妙的色彩，偏红的紫色呈现出年轻快乐的感觉，偏蓝的</tspan>
            <tspan x="62" y="236" fill-opacity="0.6">紫色给人成熟稳重的印象。高纯度的紫色给人艳丽高贵的感受，浅淡的紫色则体现出梦幻洗练的印象，时尚度较</tspan>
            <tspan x="62" y="256" fill-opacity="0.6">高。因为紫色的不可捉摸，常常给人带来无限的幻想。运用这一特点，紫色可以表现出充满强烈迷幻和神秘感觉的</tspan>
            <tspan x="62" y="276" fill-opacity="0.6">主题。</tspan>
            <tspan x="62" y="296" font-family="PingFangSC-Medium, PingFang SC" font-weight="400">与紫色相关的事物 </tspan>
            <tspan x="178.662" y="296">   </tspan>
            <tspan x="192.648" y="296" fill-opacity="0.6">茄子、丁香、薰衣草、葡萄、鸢尾花；</tspan>
            <tspan x="430.648" y="296"></tspan>
            <tspan x="62" y="316" font-family="PingFangSC-Medium, PingFang SC" font-weight="400">紫色的意象 </tspan>
            <tspan x="136.662" y="316">            </tspan>
            <tspan x="192.606" y="316" fill-opacity="0.6">神秘、高贵、典雅、感性、情绪化、浪漫、灵性。</tspan>
        </text>
        <text id="《设计师必懂的黄金设计法则》-读书笔记" font-family="PingFangSC-Regular, PingFang SC" font-size="14" font-weight="normal" line-spacing="24" fill="#3A4249">
            <tspan x="62" y="353">《设计师必懂的黄金设计法则》     </tspan>
            <tspan x="62" y="377">读书笔记 设计原则 思考总结</tspan>
        </text>
    </g>
</svg>