<?xml version="1.0" encoding="UTF-8"?>
<svg width="828px" height="432px" viewBox="0 0 828 432" version="1.1" xmlns="http://www.w3.org/2000/svg" xmlns:xlink="http://www.w3.org/1999/xlink">
    <!-- Generator: Sketch 58 (84663) - https://sketch.com -->
    <title>92</title>
    <desc>Created with Sketch.</desc>
    <g id="92" stroke="none" stroke-width="1" fill="none" fill-rule="evenodd">
        <g id="编组" transform="translate(32.000000, 16.000000)">
            <rect id="矩形" fill="#101216" x="0" y="0" width="764" height="400" rx="8"></rect>
            <path d="M31.536,58 L31.536,35.216 L36.368,35.216 C38.2453427,35.216 39.6693285,35.7279949 40.64,36.752 C41.6106715,37.7760051 42.096,39.2266573 42.096,41.104 L42.096,51.76 C42.096,53.893344 41.5786718,55.4666616 40.544,56.48 C39.5093282,57.4933384 38.021343,58 36.08,58 L31.536,58 Z M34.8,38.288 L34.8,54.928 L36.304,54.928 C37.2213379,54.928 37.8719981,54.698669 38.256,54.24 C38.6400019,53.781331 38.832,53.0613382 38.832,52.08 L38.832,41.104 C38.832,40.2079955 38.6506685,39.5146691 38.288,39.024 C37.9253315,38.5333309 37.2640048,38.288 36.304,38.288 L34.8,38.288 Z M53.376,50.032 L51.776,41.776 L51.712,41.776 L50.112,50.032 L53.376,50.032 Z M45.312,58 L50.4,35.216 L53.12,35.216 L58.208,58 L54.944,58 L53.984,53.104 L49.536,53.104 L48.576,58 L45.312,58 Z M63.088,58 L63.088,48.368 L58.608,35.216 L62.064,35.216 L64.688,44.272 L64.752,44.272 L67.376,35.216 L70.832,35.216 L66.352,48.368 L66.352,58 L63.088,58 Z M71.328,58 L71.328,54.736 L74.592,54.736 L74.592,58 L71.328,58 Z M31.088,69.92 C31.088,69.1519962 31.221332,68.4693363 31.488,67.872 C31.754668,67.2746637 32.1119978,66.7626688 32.56,66.336 C33.0080022,65.9093312 33.5253304,65.5840011 34.112,65.36 C34.6986696,65.1359989 35.3119968,65.024 35.952,65.024 C36.5920032,65.024 37.2053304,65.1359989 37.792,65.36 C38.3786696,65.5840011 38.8959978,65.9093312 39.344,66.336 C39.7920022,66.7626688 40.149332,67.2746637 40.416,67.872 C40.682668,68.4693363 40.816,69.1519962 40.816,69.92 L40.816,83.296 C40.816,84.0640038 40.682668,84.7466637 40.416,85.344 C40.149332,85.9413363 39.7920022,86.4533312 39.344,86.88 C38.8959978,87.3066688 38.3786696,87.6319989 37.792,87.856 C37.2053304,88.0800011 36.5920032,88.192 35.952,88.192 C35.3119968,88.192 34.6986696,88.0800011 34.112,87.856 C33.5253304,87.6319989 33.0080022,87.3066688 32.56,86.88 C32.1119978,86.4533312 31.754668,85.9413363 31.488,85.344 C31.221332,84.7466637 31.088,84.0640038 31.088,83.296 L31.088,69.92 Z M34.352,83.296 C34.352,83.7653357 34.5013318,84.1546651 34.8,84.464 C35.0986682,84.7733349 35.4826643,84.928 35.952,84.928 C36.4213357,84.928 36.8053318,84.7733349 37.104,84.464 C37.4026682,84.1546651 37.552,83.7653357 37.552,83.296 L37.552,69.92 C37.552,69.4506643 37.4026682,69.0613349 37.104,68.752 C36.8053318,68.4426651 36.4213357,68.288 35.952,68.288 C35.4826643,68.288 35.0986682,68.4426651 34.8,68.752 C34.5013318,69.0613349 34.352,69.4506643 34.352,69.92 L34.352,83.296 Z M46.176,88 L49.888,78.432 L49.824,78.368 C49.7173328,78.4533338 49.5520011,78.5226664 49.328,78.576 C49.1039989,78.6293336 48.8106685,78.656 48.448,78.656 C47.8719971,78.656 47.3386691,78.5173347 46.848,78.24 C46.3573309,77.9626653 45.9733347,77.6106688 45.696,77.184 C45.5466659,76.9706656 45.4293338,76.7413346 45.344,76.496 C45.2586662,76.2506654 45.1946669,75.9360019 45.152,75.552 C45.0986664,75.2319984 45.0601481,74.8416311 45.0364445,74.3808898 L45.024,74.096 C45.0079999,73.6559978 44.998,73.1290014 44.994,72.5150015 L44.992,71.872 C44.992,71.2319968 44.9998367,70.68996 45.0155102,70.2458781 L45.024,70.032 C45.0410668,69.6479981 45.0717865,69.3083737 45.1161599,69.0131204 L45.152,68.8 C45.1946669,68.4799984 45.2639995,68.2026678 45.36,67.968 C45.4560005,67.7333322 45.5786659,67.4880013 45.728,67.232 C46.1546688,66.5279965 46.7253298,65.9840019 47.44,65.6 C48.1546702,65.2159981 48.9599955,65.024 49.856,65.024 C50.7520045,65.024 51.5519965,65.2213314 52.256,65.616 C52.9600035,66.0106686 53.5253312,66.5493299 53.952,67.232 C54.1013341,67.4880013 54.2293328,67.7333322 54.336,67.968 C54.4426672,68.2026678 54.5279997,68.4799984 54.592,68.8 C54.6346669,69.141335 54.6666666,69.5519976 54.688,70.032 L54.7036735,70.476082 C54.7145579,70.8733602 54.72,71.338664 54.72,71.872 L54.7141225,72.7095518 C54.708898,73.0517551 54.7001905,73.3539035 54.688,73.616 L54.65728,74.1331205 C54.6393601,74.3750401 54.6176001,74.591999 54.592,74.784 C54.5279997,75.125335 54.458667,75.429332 54.384,75.696 C54.309333,75.962668 54.2186672,76.2453318 54.112,76.544 L49.824,88 L46.176,88 Z M48.256,74.144 C48.256,74.6346691 48.4159984,75.0293318 48.736,75.328 C49.0560016,75.6266682 49.4293312,75.776 49.856,75.776 C50.2826688,75.776 50.6559984,75.6266682 50.976,75.328 C51.2960016,75.0293318 51.456,74.6346691 51.456,74.144 L51.456,69.92 C51.456,69.4293309 51.2960016,69.0346682 50.976,68.736 C50.6559984,68.4373318 50.2826688,68.288 49.856,68.288 C49.4293312,68.288 49.0560016,68.4373318 48.736,68.736 C48.4159984,69.0346682 48.256,69.4293309 48.256,69.92 L48.256,74.144 Z M58.896,88 L58.896,84.928 L64.784,73.824 C65.0826682,73.2693306 65.2533331,72.7840021 65.296,72.368 C65.3386669,71.9519979 65.36,71.4346698 65.36,70.816 C65.36,70.5386653 65.3546667,70.2453349 65.344,69.936 C65.3333333,69.6266651 65.2746672,69.3546678 65.168,69.12 C65.0613328,68.8853322 64.9013344,68.6880008 64.688,68.528 C64.4746656,68.3679992 64.1653354,68.288 63.76,68.288 C63.2693309,68.288 62.8800014,68.4266653 62.592,68.704 C62.3039986,68.9813347 62.16,69.386664 62.16,69.92 L62.16,71.776 L58.896,71.776 L58.896,69.984 C58.896,69.3013299 59.0239987,68.6613363 59.28,68.064 C59.5360013,67.4666637 59.8879978,66.9440022 60.336,66.496 C60.7626688,66.0479978 61.2746637,65.690668 61.872,65.424 C62.4693363,65.157332 63.1093299,65.024 63.792,65.024 C64.6453376,65.024 65.375997,65.1786651 65.984,65.488 C66.592003,65.7973349 67.0986646,66.218664 67.504,66.752 C67.8880019,67.285336 68.1706658,67.8933299 68.352,68.576 C68.5333342,69.2586701 68.624,69.9839962 68.624,70.752 L68.6204445,71.2764453 C68.6157038,71.6059263 68.6062223,71.8951099 68.592,72.144 C68.5706666,72.5173352 68.5280003,72.874665 68.464,73.216 C68.3999997,73.557335 68.2933341,73.898665 68.144,74.24 L67.9768888,74.6062224 C67.8536299,74.8669626 67.7066675,75.1608873 67.536,75.488 L62.736,84.736 L68.624,84.736 L68.624,88 L58.896,88 Z" id="DAY.092" fill="#6E767D" fill-rule="nonzero"></path>
        </g>
        <rect id="矩形" fill="#1D1E1F" x="141" y="90" width="304" height="10"></rect>
        <text id="色彩的类别及属性" font-family="PingFangSC-Semibold, PingFang SC" font-size="38" font-weight="500" line-spacing="38" fill="#A8B2BA">
            <tspan x="141" y="97">色彩的类别及属性</tspan>
        </text>
        <text id="色彩分类-现代科学将色彩分为两大类：无彩" font-family="PingFangSC-Semibold, PingFang SC" font-size="14" font-weight="500" line-spacing="18" fill="#A8B2BA">
            <tspan x="62" y="138">色彩分类</tspan>
            <tspan x="118" y="138" font-family="PingFangSC-Regular, PingFang SC" font-weight="normal">   </tspan>
            <tspan x="136" y="138" font-family="PingFangSC-Regular, PingFang SC" font-weight="normal" fill-opacity="0.6">现代科学将色彩分为两大类：无彩色系和有彩色系。无彩色系是指黑色、白色以及各种明度的灰色，只</tspan>
            <tspan x="62" y="156" font-family="PingFangSC-Regular, PingFang SC" font-weight="normal" fill-opacity="0.6">具备明度变化。有彩色系具备了光谱上的某些色相特征，具有色相、明度、纯度的属性。最基本的有彩色有红、</tspan>
            <tspan x="62" y="174" font-family="PingFangSC-Regular, PingFang SC" font-weight="normal" fill-opacity="0.6">橙、黄、绿、蓝、紫，通过这些基本色相不同比例的混合，形成了我们眼中所看到的成千上万种有彩色。在实际应</tspan>
            <tspan x="62" y="192" font-family="PingFangSC-Regular, PingFang SC" font-weight="normal" fill-opacity="0.6">用中还有金色、银色、荧光色等不属于上述两种类型的色彩，称为特殊色，特殊色的运用丰富了设计的表现方式，</tspan>
            <tspan x="62" y="210" font-family="PingFangSC-Regular, PingFang SC" font-weight="normal" fill-opacity="0.6">呈现出更加多变的视觉效果。</tspan>
            <tspan x="62" y="228">色彩属性</tspan>
            <tspan x="118" y="228" font-family="PingFangSC-Regular, PingFang SC" font-weight="normal">  </tspan>
            <tspan x="136" y="228" font-family="PingFangSC-Regular, PingFang SC" font-weight="normal" fill-opacity="0.6">色相、明度和纯度被称为色彩三大属性。色相针对有彩色而言，是根据光的波长划分的可见光的颜色，</tspan>
            <tspan x="62" y="246" font-family="PingFangSC-Regular, PingFang SC" font-weight="normal" fill-opacity="0.6">是色彩的灵魂所在。红、橙、黄、绿、蓝、紫作为最基本的色相，具有各自的特征，给人特定的印象。</tspan>
            <tspan x="62" y="264" font-family="PingFangSC-Regular, PingFang SC" font-weight="normal" fill-opacity="0.6">明度指色彩的明暗程度，无彩色和有彩色都具备明度特征。色彩越亮，明度越高；色彩越暗，明度越低。</tspan>
            <tspan x="62" y="282" font-family="PingFangSC-Regular, PingFang SC" font-weight="normal" fill-opacity="0.6">纯度也是针对有彩色而言的，即色彩的鲜艳程度。在纯色中加入白色，明度增高，纯度降低；在纯色中加入黑色，</tspan>
            <tspan x="62" y="300" font-family="PingFangSC-Regular, PingFang SC" font-weight="normal" fill-opacity="0.6">明度降低，纯度也降低。</tspan>
        </text>
        <text id="《设计师必懂的黄金设计法则》-读书笔记" font-family="PingFangSC-Regular, PingFang SC" font-size="14" font-weight="normal" line-spacing="24" fill="#3A4249">
            <tspan x="54" y="353">《设计师必懂的黄金设计法则》     </tspan>
            <tspan x="54" y="377">  读书笔记 设计原则 思考总结</tspan>
        </text>
    </g>
</svg>