<?xml version="1.0" encoding="UTF-8"?>
<svg width="828px" height="432px" viewBox="0 0 828 432" version="1.1" xmlns="http://www.w3.org/2000/svg" xmlns:xlink="http://www.w3.org/1999/xlink">
    <!-- Generator: Sketch 58 (84663) - https://sketch.com -->
    <title>55</title>
    <desc>Created with Sketch.</desc>
    <g id="55" stroke="none" stroke-width="1" fill="none" fill-rule="evenodd">
        <g id="编组" transform="translate(32.000000, 16.000000)">
            <rect id="矩形" fill="#101216" x="0" y="0" width="764" height="400" rx="8"></rect>
            <path d="M31.536,58 L31.536,35.216 L36.368,35.216 C38.2453427,35.216 39.6693285,35.7279949 40.64,36.752 C41.6106715,37.7760051 42.096,39.2266573 42.096,41.104 L42.096,51.76 C42.096,53.893344 41.5786718,55.4666616 40.544,56.48 C39.5093282,57.4933384 38.021343,58 36.08,58 L31.536,58 Z M34.8,38.288 L34.8,54.928 L36.304,54.928 C37.2213379,54.928 37.8719981,54.698669 38.256,54.24 C38.6400019,53.781331 38.832,53.0613382 38.832,52.08 L38.832,41.104 C38.832,40.2079955 38.6506685,39.5146691 38.288,39.024 C37.9253315,38.5333309 37.2640048,38.288 36.304,38.288 L34.8,38.288 Z M53.376,50.032 L51.776,41.776 L51.712,41.776 L50.112,50.032 L53.376,50.032 Z M45.312,58 L50.4,35.216 L53.12,35.216 L58.208,58 L54.944,58 L53.984,53.104 L49.536,53.104 L48.576,58 L45.312,58 Z M63.088,58 L63.088,48.368 L58.608,35.216 L62.064,35.216 L64.688,44.272 L64.752,44.272 L67.376,35.216 L70.832,35.216 L66.352,48.368 L66.352,58 L63.088,58 Z M71.328,58 L71.328,54.736 L74.592,54.736 L74.592,58 L71.328,58 Z M31.088,69.92 C31.088,69.1519962 31.221332,68.4693363 31.488,67.872 C31.754668,67.2746637 32.1119978,66.7626688 32.56,66.336 C33.0080022,65.9093312 33.5253304,65.5840011 34.112,65.36 C34.6986696,65.1359989 35.3119968,65.024 35.952,65.024 C36.5920032,65.024 37.2053304,65.1359989 37.792,65.36 C38.3786696,65.5840011 38.8959978,65.9093312 39.344,66.336 C39.7920022,66.7626688 40.149332,67.2746637 40.416,67.872 C40.682668,68.4693363 40.816,69.1519962 40.816,69.92 L40.816,83.296 C40.816,84.0640038 40.682668,84.7466637 40.416,85.344 C40.149332,85.9413363 39.7920022,86.4533312 39.344,86.88 C38.8959978,87.3066688 38.3786696,87.6319989 37.792,87.856 C37.2053304,88.0800011 36.5920032,88.192 35.952,88.192 C35.3119968,88.192 34.6986696,88.0800011 34.112,87.856 C33.5253304,87.6319989 33.0080022,87.3066688 32.56,86.88 C32.1119978,86.4533312 31.754668,85.9413363 31.488,85.344 C31.221332,84.7466637 31.088,84.0640038 31.088,83.296 L31.088,69.92 Z M34.352,83.296 C34.352,83.7653357 34.5013318,84.1546651 34.8,84.464 C35.0986682,84.7733349 35.4826643,84.928 35.952,84.928 C36.4213357,84.928 36.8053318,84.7733349 37.104,84.464 C37.4026682,84.1546651 37.552,83.7653357 37.552,83.296 L37.552,69.92 C37.552,69.4506643 37.4026682,69.0613349 37.104,68.752 C36.8053318,68.4426651 36.4213357,68.288 35.952,68.288 C35.4826643,68.288 35.0986682,68.4426651 34.8,68.752 C34.5013318,69.0613349 34.352,69.4506643 34.352,69.92 L34.352,83.296 Z M54.72,65.216 L54.72,68.288 L48.256,68.288 L48.256,74.432 C48.5546682,74.1333318 48.9386643,73.8826677 49.408,73.68 C49.8773357,73.4773323 50.3999971,73.376 50.976,73.376 C52.0853389,73.376 52.9866632,73.7119966 53.68,74.384 C54.3733368,75.0560034 54.72,76.0639933 54.72,77.408 L54.72,83.296 C54.72,84.0640038 54.586668,84.7466637 54.32,85.344 C54.053332,85.9413363 53.6960022,86.4533312 53.248,86.88 C52.7999978,87.3066688 52.2826696,87.6319989 51.696,87.856 C51.1093304,88.0800011 50.4960032,88.192 49.856,88.192 C49.2159968,88.192 48.6026696,88.0800011 48.016,87.856 C47.4293304,87.6319989 46.9120022,87.3066688 46.464,86.88 C46.0159978,86.4533312 45.658668,85.9413363 45.392,85.344 C45.125332,84.7466637 44.992,84.0640038 44.992,83.296 L44.992,82.336 L48.256,82.336 L48.256,83.168 C48.256,83.7226694 48.4106651,84.1546651 48.72,84.464 C49.0293349,84.7733349 49.4293309,84.928 49.92,84.928 C50.4106691,84.928 50.789332,84.7786682 51.056,84.48 C51.322668,84.1813318 51.456,83.765336 51.456,83.232 L51.456,77.888 C51.456,77.4399978 51.3120014,77.0560016 51.024,76.736 C50.7359986,76.4159984 50.3680022,76.256 49.92,76.256 C49.6426653,76.256 49.408001,76.3039995 49.216,76.4 C49.023999,76.4960005 48.8640006,76.6079994 48.736,76.736 C48.6079994,76.8640006 48.5120003,77.0026659 48.448,77.152 L48.256,77.504 L48.256,77.504 L45.376,77.504 L45.376,65.216 L54.72,65.216 Z M68.624,65.216 L68.624,68.288 L62.16,68.288 L62.16,74.432 C62.4586682,74.1333318 62.8426643,73.8826677 63.312,73.68 C63.7813357,73.4773323 64.3039971,73.376 64.88,73.376 C65.9893389,73.376 66.8906632,73.7119966 67.584,74.384 C68.2773368,75.0560034 68.624,76.0639933 68.624,77.408 L68.624,83.296 C68.624,84.0640038 68.490668,84.7466637 68.224,85.344 C67.957332,85.9413363 67.6000022,86.4533312 67.152,86.88 C66.7039978,87.3066688 66.1866696,87.6319989 65.6,87.856 C65.0133304,88.0800011 64.4000032,88.192 63.76,88.192 C63.1199968,88.192 62.5066696,88.0800011 61.92,87.856 C61.3333304,87.6319989 60.8160022,87.3066688 60.368,86.88 C59.9199978,86.4533312 59.562668,85.9413363 59.296,85.344 C59.029332,84.7466637 58.896,84.0640038 58.896,83.296 L58.896,82.336 L62.16,82.336 L62.16,83.168 C62.16,83.7226694 62.3146651,84.1546651 62.624,84.464 C62.9333349,84.7733349 63.3333309,84.928 63.824,84.928 C64.3146691,84.928 64.693332,84.7786682 64.96,84.48 C65.226668,84.1813318 65.36,83.765336 65.36,83.232 L65.36,77.888 C65.36,77.4399978 65.2160014,77.0560016 64.928,76.736 C64.6399986,76.4159984 64.2720022,76.256 63.824,76.256 C63.5466653,76.256 63.312001,76.3039995 63.12,76.4 C62.927999,76.4960005 62.7680006,76.6079994 62.64,76.736 C62.5119994,76.8640006 62.4160003,77.0026659 62.352,77.152 L62.16,77.504 L62.16,77.504 L59.28,77.504 L59.28,65.216 L68.624,65.216 Z" id="DAY.055" fill="#6E767D" fill-rule="nonzero"></path>
        </g>
        <rect id="矩形" fill="#1D1E1F" x="141" y="90" width="241" height="10"></rect>
        <text id="不后悔-就值得" font-family="PingFangSC-Semibold, PingFang SC" font-size="38" font-weight="500" line-spacing="38" fill="#A8B2BA">
            <tspan x="141" y="97">不后悔 就值得</tspan>
        </text>
        <text id="任何走进你生命的人，只要他曾经让你变得更" font-family="PingFangSC-Regular, PingFang SC" font-size="16" font-weight="normal" line-spacing="22" fill="#A8B2BA">
            <tspan x="62" y="173">任何走进你生命的人，只要他曾经让你变得更优秀，那就是对的人。</tspan>
            <tspan x="62" y="195"></tspan>
            <tspan x="62" y="217">人生本来就孤独，任何陪自己走完一段寂寞时光的人，都应该用心感激。</tspan>
        </text>
        <text id="鸡汤文-生活感悟-读书笔记-思考总结" font-family="PingFangSC-Regular, PingFang SC" font-size="14" font-weight="normal" line-spacing="24" fill="#3A4249">
            <tspan x="54" y="353">鸡汤文 生活感悟</tspan>
            <tspan x="54" y="377">读书笔记 思考总结</tspan>
        </text>
    </g>
</svg>