<?xml version="1.0" encoding="UTF-8"?>
<svg width="828px" height="432px" viewBox="0 0 828 432" version="1.1" xmlns="http://www.w3.org/2000/svg" xmlns:xlink="http://www.w3.org/1999/xlink">
    <!-- Generator: Sketch 58 (84663) - https://sketch.com -->
    <title>101</title>
    <desc>Created with Sketch.</desc>
    <g id="101" stroke="none" stroke-width="1" fill="none" fill-rule="evenodd">
        <g id="编组" transform="translate(32.000000, 16.000000)">
            <rect id="矩形" fill="#101216" x="0" y="0" width="764" height="400" rx="8"></rect>
            <path d="M31.536,58 L31.536,35.216 L36.368,35.216 C38.2453427,35.216 39.6693285,35.7279949 40.64,36.752 C41.6106715,37.7760051 42.096,39.2266573 42.096,41.104 L42.096,51.76 C42.096,53.893344 41.5786718,55.4666616 40.544,56.48 C39.5093282,57.4933384 38.021343,58 36.08,58 L31.536,58 Z M34.8,38.288 L34.8,54.928 L36.304,54.928 C37.2213379,54.928 37.8719981,54.698669 38.256,54.24 C38.6400019,53.781331 38.832,53.0613382 38.832,52.08 L38.832,41.104 C38.832,40.2079955 38.6506685,39.5146691 38.288,39.024 C37.9253315,38.5333309 37.2640048,38.288 36.304,38.288 L34.8,38.288 Z M53.376,50.032 L51.776,41.776 L51.712,41.776 L50.112,50.032 L53.376,50.032 Z M45.312,58 L50.4,35.216 L53.12,35.216 L58.208,58 L54.944,58 L53.984,53.104 L49.536,53.104 L48.576,58 L45.312,58 Z M63.088,58 L63.088,48.368 L58.608,35.216 L62.064,35.216 L64.688,44.272 L64.752,44.272 L67.376,35.216 L70.832,35.216 L66.352,48.368 L66.352,58 L63.088,58 Z M71.328,58 L71.328,54.736 L74.592,54.736 L74.592,58 L71.328,58 Z M34.96,88 L34.96,68.672 L31.696,71.072 L31.696,67.616 L34.96,65.216 L38.224,65.216 L38.224,88 L34.96,88 Z M44.992,69.92 C44.992,69.1519962 45.125332,68.4693363 45.392,67.872 C45.658668,67.2746637 46.0159978,66.7626688 46.464,66.336 C46.9120022,65.9093312 47.4293304,65.5840011 48.016,65.36 C48.6026696,65.1359989 49.2159968,65.024 49.856,65.024 C50.4960032,65.024 51.1093304,65.1359989 51.696,65.36 C52.2826696,65.5840011 52.7999978,65.9093312 53.248,66.336 C53.6960022,66.7626688 54.053332,67.2746637 54.32,67.872 C54.586668,68.4693363 54.72,69.1519962 54.72,69.92 L54.72,83.296 C54.72,84.0640038 54.586668,84.7466637 54.32,85.344 C54.053332,85.9413363 53.6960022,86.4533312 53.248,86.88 C52.7999978,87.3066688 52.2826696,87.6319989 51.696,87.856 C51.1093304,88.0800011 50.4960032,88.192 49.856,88.192 C49.2159968,88.192 48.6026696,88.0800011 48.016,87.856 C47.4293304,87.6319989 46.9120022,87.3066688 46.464,86.88 C46.0159978,86.4533312 45.658668,85.9413363 45.392,85.344 C45.125332,84.7466637 44.992,84.0640038 44.992,83.296 L44.992,69.92 Z M48.256,83.296 C48.256,83.7653357 48.4053318,84.1546651 48.704,84.464 C49.0026682,84.7733349 49.3866643,84.928 49.856,84.928 C50.3253357,84.928 50.7093318,84.7733349 51.008,84.464 C51.3066682,84.1546651 51.456,83.7653357 51.456,83.296 L51.456,69.92 C51.456,69.4506643 51.3066682,69.0613349 51.008,68.752 C50.7093318,68.4426651 50.3253357,68.288 49.856,68.288 C49.3866643,68.288 49.0026682,68.4426651 48.704,68.752 C48.4053318,69.0613349 48.256,69.4506643 48.256,69.92 L48.256,83.296 Z M62.768,88 L62.768,68.672 L59.504,71.072 L59.504,67.616 L62.768,65.216 L66.032,65.216 L66.032,88 L62.768,88 Z" id="DAY.101" fill="#6E767D" fill-rule="nonzero"></path>
        </g>
        <rect id="矩形" fill="#1D1E1F" x="141" y="90" width="317" height="10"></rect>
        <text id="色彩应用法则-绿色" font-family="PingFangSC-Semibold, PingFang SC" font-size="38" font-weight="500" line-spacing="38" fill="#A8B2BA">
            <tspan x="141" y="97">色彩应用法则 绿色</tspan>
        </text>
        <text id="绿色是自然、安宁和能量的象征，体现生命的" font-family="PingFangSC-Regular, PingFang SC" font-size="14" font-weight="normal" line-spacing="22" fill="#A8B2BA">
            <tspan x="62" y="135">绿色是自然、安宁和能量的象征，体现生命的健康和活力，也暗示事物的开始，拥有令人平静的特质，展现平衡、</tspan>
            <tspan x="62" y="157">协调的印象。</tspan>
            <tspan x="62" y="179" font-family="PingFangSC-Medium, PingFang SC" font-weight="400">绿色的运用</tspan>
            <tspan x="132" y="179">          </tspan>
            <tspan x="186.922857" y="179" fill-opacity="0.6"> 表现生命感是绿色最大的特征，与红色和橙色的开放感相比，绿色的能量感显得更加朴实，是</tspan>
            <tspan x="62" y="201" fill-opacity="0.6">来自于生命源泉的效果。由于绿色是黄色和蓝色的混合体，根据两色所占的比例不同，会呈现不同的感受。含黄色</tspan>
            <tspan x="62" y="223" fill-opacity="0.6">较多的绿色，体现出明快、开放的印象。含蓝色成分较多的绿色，体现冷静、沉稳的感觉。应该针对设计风格的需</tspan>
            <tspan x="62" y="245" fill-opacity="0.6">要进行选择。使用绿色印刷的包装容易给人安全、环保、新鲜的感觉，与良好的自然环境联系起来，从而产生信赖</tspan>
            <tspan x="62" y="267" fill-opacity="0.6">感。在不同的地区或语言环境中，绿色也具有野心、猜忌、经验不足等含义，不可以盲目使用。</tspan>
            <tspan x="650" y="267"></tspan>
            <tspan x="62" y="289" font-family="PingFangSC-Medium, PingFang SC" font-weight="400">与绿色相关的事物</tspan>
            <tspan x="174" y="289">     </tspan>
            <tspan x="197.31" y="289" fill-opacity="0.6">森林、植物、水、树叶、新芽、茶、蔬菜、翡翠；</tspan>
            <tspan x="62" y="311" font-family="PingFangSC-Medium, PingFang SC" font-weight="400">绿色的意象</tspan>
            <tspan x="132" y="311">              </tspan>
            <tspan x="197.268" y="311" fill-opacity="0.6">自然、和平、成长、年轻、宁静、平衡、放松、环保。</tspan>
        </text>
        <text id="《设计师必懂的黄金设计法则》-读书笔记" font-family="PingFangSC-Regular, PingFang SC" font-size="14" font-weight="normal" line-spacing="24" fill="#3A4249">
            <tspan x="62" y="353">《设计师必懂的黄金设计法则》     </tspan>
            <tspan x="62" y="377">读书笔记 设计原则 思考总结</tspan>
        </text>
    </g>
</svg>