<?xml version="1.0" encoding="UTF-8"?>
<svg width="828px" height="432px" viewBox="0 0 828 432" version="1.1" xmlns="http://www.w3.org/2000/svg" xmlns:xlink="http://www.w3.org/1999/xlink">
    <!-- Generator: Sketch 58 (84663) - https://sketch.com -->
    <title>49</title>
    <desc>Created with Sketch.</desc>
    <g id="49" stroke="none" stroke-width="1" fill="none" fill-rule="evenodd">
        <g id="编组" transform="translate(32.000000, 16.000000)">
            <rect id="矩形" fill="#101216" x="0" y="0" width="764" height="400" rx="8"></rect>
            <path d="M31.536,58 L31.536,35.216 L36.368,35.216 C38.2453427,35.216 39.6693285,35.7279949 40.64,36.752 C41.6106715,37.7760051 42.096,39.2266573 42.096,41.104 L42.096,51.76 C42.096,53.893344 41.5786718,55.4666616 40.544,56.48 C39.5093282,57.4933384 38.021343,58 36.08,58 L31.536,58 Z M34.8,38.288 L34.8,54.928 L36.304,54.928 C37.2213379,54.928 37.8719981,54.698669 38.256,54.24 C38.6400019,53.781331 38.832,53.0613382 38.832,52.08 L38.832,41.104 C38.832,40.2079955 38.6506685,39.5146691 38.288,39.024 C37.9253315,38.5333309 37.2640048,38.288 36.304,38.288 L34.8,38.288 Z M53.376,50.032 L51.776,41.776 L51.712,41.776 L50.112,50.032 L53.376,50.032 Z M45.312,58 L50.4,35.216 L53.12,35.216 L58.208,58 L54.944,58 L53.984,53.104 L49.536,53.104 L48.576,58 L45.312,58 Z M63.088,58 L63.088,48.368 L58.608,35.216 L62.064,35.216 L64.688,44.272 L64.752,44.272 L67.376,35.216 L70.832,35.216 L66.352,48.368 L66.352,58 L63.088,58 Z M71.328,58 L71.328,54.736 L74.592,54.736 L74.592,58 L71.328,58 Z M31.088,69.92 C31.088,69.1519962 31.221332,68.4693363 31.488,67.872 C31.754668,67.2746637 32.1119978,66.7626688 32.56,66.336 C33.0080022,65.9093312 33.5253304,65.5840011 34.112,65.36 C34.6986696,65.1359989 35.3119968,65.024 35.952,65.024 C36.5920032,65.024 37.2053304,65.1359989 37.792,65.36 C38.3786696,65.5840011 38.8959978,65.9093312 39.344,66.336 C39.7920022,66.7626688 40.149332,67.2746637 40.416,67.872 C40.682668,68.4693363 40.816,69.1519962 40.816,69.92 L40.816,83.296 C40.816,84.0640038 40.682668,84.7466637 40.416,85.344 C40.149332,85.9413363 39.7920022,86.4533312 39.344,86.88 C38.8959978,87.3066688 38.3786696,87.6319989 37.792,87.856 C37.2053304,88.0800011 36.5920032,88.192 35.952,88.192 C35.3119968,88.192 34.6986696,88.0800011 34.112,87.856 C33.5253304,87.6319989 33.0080022,87.3066688 32.56,86.88 C32.1119978,86.4533312 31.754668,85.9413363 31.488,85.344 C31.221332,84.7466637 31.088,84.0640038 31.088,83.296 L31.088,69.92 Z M34.352,83.296 C34.352,83.7653357 34.5013318,84.1546651 34.8,84.464 C35.0986682,84.7733349 35.4826643,84.928 35.952,84.928 C36.4213357,84.928 36.8053318,84.7733349 37.104,84.464 C37.4026682,84.1546651 37.552,83.7653357 37.552,83.296 L37.552,69.92 C37.552,69.4506643 37.4026682,69.0613349 37.104,68.752 C36.8053318,68.4426651 36.4213357,68.288 35.952,68.288 C35.4826643,68.288 35.0986682,68.4426651 34.8,68.752 C34.5013318,69.0613349 34.352,69.4506643 34.352,69.92 L34.352,83.296 Z M52.352,65.216 L47.456,81.536 L50.688,81.536 L50.688,75.04 L53.952,75.04 L53.952,81.536 L55.52,81.536 L55.52,84.608 L53.952,84.608 L53.952,88 L50.688,88 L50.688,84.608 L44.192,84.608 L44.192,81.536 L48.896,65.216 L52.352,65.216 Z M63.76,65.024 C64.6560045,65.024 65.4559965,65.2213314 66.16,65.616 C66.8640035,66.0106686 67.4293312,66.5493299 67.856,67.232 C68.0053341,67.4880013 68.1333328,67.7333322 68.24,67.968 C68.3466672,68.2026678 68.4319997,68.4799984 68.496,68.8 C68.5386669,69.141335 68.5706666,69.5519976 68.592,70.032 L68.6076735,70.476082 C68.6185579,70.8733602 68.624,71.338664 68.624,71.872 L68.6181225,72.7095518 C68.612898,73.0517551 68.6041905,73.3539035 68.592,73.616 L68.56128,74.1331205 C68.5433601,74.3750401 68.5216001,74.591999 68.496,74.784 C68.4319997,75.125335 68.362667,75.429332 68.288,75.696 C68.213333,75.962668 68.1226672,76.2453318 68.016,76.544 L63.728,88 L60.08,88 L63.792,78.432 L63.728,78.368 C63.6213328,78.4533338 63.4560011,78.5226664 63.232,78.576 C63.0079989,78.6293336 62.7146685,78.656 62.352,78.656 C61.7759971,78.656 61.2426691,78.5173347 60.752,78.24 C60.2613309,77.9626653 59.8773347,77.6106688 59.6,77.184 C59.4506659,76.9706656 59.3333338,76.7413346 59.248,76.496 C59.1626662,76.2506654 59.0986669,75.9360019 59.056,75.552 C59.0026664,75.2319984 58.9641481,74.8416311 58.9404445,74.3808898 L58.928,74.096 C58.9119999,73.6559978 58.902,73.1290014 58.898,72.5150015 L58.896,71.872 C58.896,71.2319968 58.9038367,70.68996 58.9195102,70.2458781 L58.928,70.032 C58.9450668,69.6479981 58.9757865,69.3083737 59.0201599,69.0131204 L59.056,68.8 C59.0986669,68.4799984 59.1679995,68.2026678 59.264,67.968 C59.3600005,67.7333322 59.4826659,67.4880013 59.632,67.232 C60.0586688,66.5279965 60.6293298,65.9840019 61.344,65.6 C62.0586702,65.2159981 62.8639955,65.024 63.76,65.024 Z M63.76,68.288 C63.3333312,68.288 62.9600016,68.4373318 62.64,68.736 C62.3199984,69.0346682 62.16,69.4293309 62.16,69.92 L62.16,69.92 L62.16,74.144 C62.16,74.6346691 62.3199984,75.0293318 62.64,75.328 C62.9600016,75.6266682 63.3333312,75.776 63.76,75.776 C64.1866688,75.776 64.5599984,75.6266682 64.88,75.328 C65.2000016,75.0293318 65.36,74.6346691 65.36,74.144 L65.36,74.144 L65.36,69.92 C65.36,69.4293309 65.2000016,69.0346682 64.88,68.736 C64.5599984,68.4373318 64.1866688,68.288 63.76,68.288 Z" id="DAY.049" fill="#6E767D" fill-rule="nonzero"></path>
        </g>
        <rect id="矩形" fill="#1D1E1F" x="141" y="90" width="266" height="10"></rect>
        <text id="潜意识消费理念" font-family="PingFangSC-Semibold, PingFang SC" font-size="38" font-weight="500" line-spacing="38" fill="#A8B2BA">
            <tspan x="141" y="97">潜意识消费理念</tspan>
        </text>
        <text id="平时看似很平常的消费行为下面，隐藏着很多" font-family="PingFangSC-Regular, PingFang SC" font-size="14" font-weight="normal" line-spacing="20" fill="#A8B2BA">
            <tspan x="62" y="146">平时看似很平常的消费行为下面，隐藏着很多不为大脑认识的理念，颠覆了我们传统的消费观念。</tspan>
            <tspan x="62" y="166"></tspan>
            <tspan x="62" y="186">心理上的喜怒哀乐其实都可以支配我们的情绪，左右我们的决定。</tspan>
            <tspan x="62" y="206"></tspan>
            <tspan x="62" y="226">即使在我们眼前的是相同的信息，也会因为说明和呈现信息的方式不同，而使我们做出完全相反的选择。</tspan>
            <tspan x="62" y="246"></tspan>
            <tspan x="62" y="266">当抉择有风险的时候，我们对于风险造成的利益和损失也会有不同的衡量；相较于利益带来的喜悦，人们更在意损</tspan>
            <tspan x="62" y="286">失带来的痛苦，所以会为了回避损失，而采取难以理解的行为，例如在危险的赌局中大胆下注，这些都是人们的心</tspan>
            <tspan x="62" y="306">理在作怪。</tspan>
        </text>
        <text id="《消费心理学》(心理学课堂02)-读书笔" font-family="PingFangSC-Regular, PingFang SC" font-size="14" font-weight="normal" line-spacing="24" fill="#3A4249">
            <tspan x="54" y="353">《消费心理学》(心理学课堂02)</tspan>
            <tspan x="54" y="377">  读书笔记 思考总结</tspan>
        </text>
    </g>
</svg>