<?xml version="1.0" encoding="UTF-8"?>
<svg width="828px" height="432px" viewBox="0 0 828 432" version="1.1" xmlns="http://www.w3.org/2000/svg" xmlns:xlink="http://www.w3.org/1999/xlink">
    <!-- Generator: Sketch 58 (84663) - https://sketch.com -->
    <title>106</title>
    <desc>Created with Sketch.</desc>
    <g id="106" stroke="none" stroke-width="1" fill="none" fill-rule="evenodd">
        <g id="编组" transform="translate(32.000000, 16.000000)">
            <rect id="矩形" fill="#101216" x="0" y="0" width="764" height="400" rx="8"></rect>
            <path d="M31.536,58 L31.536,35.216 L36.368,35.216 C38.2453427,35.216 39.6693285,35.7279949 40.64,36.752 C41.6106715,37.7760051 42.096,39.2266573 42.096,41.104 L42.096,51.76 C42.096,53.893344 41.5786718,55.4666616 40.544,56.48 C39.5093282,57.4933384 38.021343,58 36.08,58 L31.536,58 Z M34.8,38.288 L34.8,54.928 L36.304,54.928 C37.2213379,54.928 37.8719981,54.698669 38.256,54.24 C38.6400019,53.781331 38.832,53.0613382 38.832,52.08 L38.832,41.104 C38.832,40.2079955 38.6506685,39.5146691 38.288,39.024 C37.9253315,38.5333309 37.2640048,38.288 36.304,38.288 L34.8,38.288 Z M53.376,50.032 L51.776,41.776 L51.712,41.776 L50.112,50.032 L53.376,50.032 Z M45.312,58 L50.4,35.216 L53.12,35.216 L58.208,58 L54.944,58 L53.984,53.104 L49.536,53.104 L48.576,58 L45.312,58 Z M63.088,58 L63.088,48.368 L58.608,35.216 L62.064,35.216 L64.688,44.272 L64.752,44.272 L67.376,35.216 L70.832,35.216 L66.352,48.368 L66.352,58 L63.088,58 Z M71.328,58 L71.328,54.736 L74.592,54.736 L74.592,58 L71.328,58 Z M49.856,65.024 C50.4960032,65.024 51.1093304,65.1359989 51.696,65.36 C52.2826696,65.5840011 52.7999978,65.9093312 53.248,66.336 C53.6960022,66.7626688 54.053332,67.2746637 54.32,67.872 C54.586668,68.4693363 54.72,69.1519962 54.72,69.92 L54.72,83.296 C54.72,84.0640038 54.586668,84.7466637 54.32,85.344 C54.053332,85.9413363 53.6960022,86.4533312 53.248,86.88 C52.7999978,87.3066688 52.2826696,87.6319989 51.696,87.856 C51.1093304,88.0800011 50.4960032,88.192 49.856,88.192 C49.2159968,88.192 48.6026696,88.0800011 48.016,87.856 C47.4293304,87.6319989 46.9120022,87.3066688 46.464,86.88 C46.0159978,86.4533312 45.658668,85.9413363 45.392,85.344 C45.125332,84.7466637 44.992,84.0640038 44.992,83.296 L44.992,69.92 C44.992,69.1519962 45.125332,68.4693363 45.392,67.872 C45.658668,67.2746637 46.0159978,66.7626688 46.464,66.336 C46.9120022,65.9093312 47.4293304,65.5840011 48.016,65.36 C48.6026696,65.1359989 49.2159968,65.024 49.856,65.024 Z M67.44,65.216 L63.728,74.784 L63.792,74.848 C63.8986672,74.7626662 64.0639989,74.6933336 64.288,74.64 C64.5120011,74.5866664 64.8053315,74.56 65.168,74.56 C65.7440029,74.56 66.2773309,74.6986653 66.768,74.976 C67.2586691,75.2533347 67.6426653,75.6053312 67.92,76.032 C68.0693341,76.2666678 68.1866662,76.5013322 68.272,76.736 C68.3573338,76.9706678 68.4319997,77.2799981 68.496,77.664 L68.5351112,78.081778 C68.5588149,78.3828144 68.5777777,78.7288869 68.592,79.12 L68.606,79.5890006 C68.6140001,79.9210002 68.6193334,80.2916652 68.622,80.7009985 L68.624,81.344 C68.624,82.0906704 68.6133334,82.7039976 68.592,83.184 L68.56128,83.7216006 C68.5433601,83.9712001 68.5216001,84.191999 68.496,84.384 C68.4319997,84.725335 68.3520005,85.0133322 68.256,85.248 C68.1599995,85.4826678 68.0373341,85.7279987 67.888,85.984 C67.4613312,86.6880035 66.8906702,87.2319981 66.176,87.616 C65.4613298,88.0000019 64.6560045,88.192 63.76,88.192 C62.8639955,88.192 62.0640035,87.9946686 61.36,87.6 C60.6559965,87.2053314 60.0906688,86.6666701 59.664,85.984 C59.4933325,85.7279987 59.3600005,85.4826678 59.264,85.248 C59.1679995,85.0133322 59.0986669,84.725335 59.056,84.384 C58.9919997,84.0639984 58.9493334,83.6640024 58.928,83.184 L58.9123265,82.739918 C58.903619,82.4220954 58.8983945,82.0607365 58.8966531,81.6558378 L58.8986122,80.7706111 C58.9020952,80.40838 58.9090612,80.0862048 58.9195102,79.8040822 L58.928,79.6 C58.9493334,79.141331 58.9813331,78.741335 59.024,78.4 C59.0666669,78.0799984 59.1306662,77.786668 59.216,77.52 C59.3013338,77.253332 59.3973328,76.9706682 59.504,76.672 L63.792,65.216 L67.44,65.216 Z M38.224,65.216 L38.224,88 L34.96,88 L34.96,68.672 L31.696,71.072 L31.696,67.616 L34.96,65.216 L38.224,65.216 Z M49.856,68.288 C49.3866643,68.288 49.0026682,68.4426651 48.704,68.752 C48.4053318,69.0613349 48.256,69.4506643 48.256,69.92 L48.256,83.296 C48.256,83.7653357 48.4053318,84.1546651 48.704,84.464 C49.0026682,84.7733349 49.3866643,84.928 49.856,84.928 C50.3253357,84.928 50.7093318,84.7733349 51.008,84.464 C51.3066682,84.1546651 51.456,83.7653357 51.456,83.296 L51.456,69.92 C51.456,69.4506643 51.3066682,69.0613349 51.008,68.752 C50.7093318,68.4426651 50.3253357,68.288 49.856,68.288 Z M63.76,77.44 C63.3333312,77.44 62.9600016,77.5893318 62.64,77.888 C62.3199984,78.1866682 62.16,78.5813309 62.16,79.072 L62.16,79.072 L62.16,83.296 C62.16,83.7866691 62.3199984,84.1813318 62.64,84.48 C62.9600016,84.7786682 63.3333312,84.928 63.76,84.928 C64.1866688,84.928 64.5599984,84.7786682 64.88,84.48 C65.2000016,84.1813318 65.36,83.7866691 65.36,83.296 L65.36,83.296 L65.36,79.072 C65.36,78.5813309 65.2000016,78.1866682 64.88,77.888 C64.5599984,77.5893318 64.1866688,77.44 63.76,77.44 Z" id="DAY.106" fill="#6E767D" fill-rule="nonzero"></path>
        </g>
        <rect id="矩形" fill="#1D1E1F" x="141" y="90" width="342" height="10"></rect>
        <text id="对比色设计应用法则" font-family="PingFangSC-Semibold, PingFang SC" font-size="38" font-weight="500" line-spacing="38" fill="#A8B2BA">
            <tspan x="141" y="97">对比色设计应用法则</tspan>
        </text>
        <text id="对比色设计大方、开放的特征很适合针对大众" font-family="PingFangSC-Regular, PingFang SC" font-size="14" font-weight="normal" line-spacing="20" fill="#A8B2BA">
            <tspan x="62" y="136">对比色设计大方、开放的特征很适合针对大众的主题。</tspan>
            <tspan x="62" y="156" font-family="PingFangSC-Medium, PingFang SC" font-weight="400">色相对比配色</tspan>
            <tspan x="146" y="156">     </tspan>
            <tspan x="178" y="156" fill-opacity="0.6">色相环上的任意两种色彩相邻并置时，在比较中所呈现出的色相差异称为色相对比。色相对比有</tspan>
            <tspan x="62" y="176" fill-opacity="0.6">强烈和微弱之分，想要体现醒目效果的设计可选择对比显著的补色对比和中差色对比。</tspan>
            <tspan x="594" y="176"></tspan>
            <tspan x="62" y="196" font-family="PingFangSC-Medium, PingFang SC" font-weight="400">明度对比配色</tspan>
            <tspan x="146" y="196">    </tspan>
            <tspan x="178" y="196" fill-opacity="0.6">不同色彩之间的明暗程度对比构成了明度对比，是构成色彩层次和空间关系的关键因素。只有色</tspan>
            <tspan x="62" y="216" fill-opacity="0.6">相或纯度的对比，会使物体的外形难以辨认，也就难以突出主体。增强主讲体与配角和背景色的明度对比，能够使</tspan>
            <tspan x="62" y="236" fill-opacity="0.6">主体信息立刻得以突出展示，提高关注程度。</tspan>
            <tspan x="62" y="256" font-family="PingFangSC-Medium, PingFang SC" font-weight="400">纯度对比配色</tspan>
            <tspan x="146" y="256">     </tspan>
            <tspan x="178" y="256" fill-opacity="0.6">不同色彩之间纯度的高低构成纯度的对比。想要制造强烈视觉冲击的版面应该加强纯度对比，拉</tspan>
            <tspan x="62" y="276" fill-opacity="0.6">大纯度对比会令鲜明的色彩更加鲜明，浑浊的色彩更加浑浊，画面对比明朗、富有生气，色彩认知度也较高。纯度</tspan>
            <tspan x="62" y="296" fill-opacity="0.6">对比既可以运用在单一的色相搭配中，也可以运用在不同色相搭配中。没有纯度属性的无彩色与有彩色搭配，也能</tspan>
            <tspan x="62" y="316" fill-opacity="0.6">产生醒目的视觉效果。</tspan>
        </text>
        <text id="《设计师必懂的黄金设计法则》-读书笔记" font-family="PingFangSC-Regular, PingFang SC" font-size="14" font-weight="normal" line-spacing="24" fill="#3A4249">
            <tspan x="55" y="353">《设计师必懂的黄金设计法则》     </tspan>
            <tspan x="55" y="377" letter-spacing="-1">  </tspan>
            <tspan x="62.324" y="377">读书笔记 设计原则 思考总结</tspan>
        </text>
    </g>
</svg>