<?xml version="1.0" encoding="UTF-8"?>
<svg width="828px" height="432px" viewBox="0 0 828 432" version="1.1" xmlns="http://www.w3.org/2000/svg" xmlns:xlink="http://www.w3.org/1999/xlink">
    <!-- Generator: Sketch 58 (84663) - https://sketch.com -->
    <title>89</title>
    <desc>Created with Sketch.</desc>
    <g id="89" stroke="none" stroke-width="1" fill="none" fill-rule="evenodd">
        <g id="编组" transform="translate(32.000000, 16.000000)">
            <rect id="矩形" fill="#101216" x="0" y="0" width="764" height="400" rx="8"></rect>
            <path d="M31.536,58 L31.536,35.216 L36.368,35.216 C38.2453427,35.216 39.6693285,35.7279949 40.64,36.752 C41.6106715,37.7760051 42.096,39.2266573 42.096,41.104 L42.096,51.76 C42.096,53.893344 41.5786718,55.4666616 40.544,56.48 C39.5093282,57.4933384 38.021343,58 36.08,58 L31.536,58 Z M34.8,38.288 L34.8,54.928 L36.304,54.928 C37.2213379,54.928 37.8719981,54.698669 38.256,54.24 C38.6400019,53.781331 38.832,53.0613382 38.832,52.08 L38.832,41.104 C38.832,40.2079955 38.6506685,39.5146691 38.288,39.024 C37.9253315,38.5333309 37.2640048,38.288 36.304,38.288 L34.8,38.288 Z M53.376,50.032 L51.776,41.776 L51.712,41.776 L50.112,50.032 L53.376,50.032 Z M45.312,58 L50.4,35.216 L53.12,35.216 L58.208,58 L54.944,58 L53.984,53.104 L49.536,53.104 L48.576,58 L45.312,58 Z M63.088,58 L63.088,48.368 L58.608,35.216 L62.064,35.216 L64.688,44.272 L64.752,44.272 L67.376,35.216 L70.832,35.216 L66.352,48.368 L66.352,58 L63.088,58 Z M71.328,58 L71.328,54.736 L74.592,54.736 L74.592,58 L71.328,58 Z M31.088,69.92 C31.088,69.1519962 31.221332,68.4693363 31.488,67.872 C31.754668,67.2746637 32.1119978,66.7626688 32.56,66.336 C33.0080022,65.9093312 33.5253304,65.5840011 34.112,65.36 C34.6986696,65.1359989 35.3119968,65.024 35.952,65.024 C36.5920032,65.024 37.2053304,65.1359989 37.792,65.36 C38.3786696,65.5840011 38.8959978,65.9093312 39.344,66.336 C39.7920022,66.7626688 40.149332,67.2746637 40.416,67.872 C40.682668,68.4693363 40.816,69.1519962 40.816,69.92 L40.816,83.296 C40.816,84.0640038 40.682668,84.7466637 40.416,85.344 C40.149332,85.9413363 39.7920022,86.4533312 39.344,86.88 C38.8959978,87.3066688 38.3786696,87.6319989 37.792,87.856 C37.2053304,88.0800011 36.5920032,88.192 35.952,88.192 C35.3119968,88.192 34.6986696,88.0800011 34.112,87.856 C33.5253304,87.6319989 33.0080022,87.3066688 32.56,86.88 C32.1119978,86.4533312 31.754668,85.9413363 31.488,85.344 C31.221332,84.7466637 31.088,84.0640038 31.088,83.296 L31.088,69.92 Z M34.352,83.296 C34.352,83.7653357 34.5013318,84.1546651 34.8,84.464 C35.0986682,84.7733349 35.4826643,84.928 35.952,84.928 C36.4213357,84.928 36.8053318,84.7733349 37.104,84.464 C37.4026682,84.1546651 37.552,83.7653357 37.552,83.296 L37.552,69.92 C37.552,69.4506643 37.4026682,69.0613349 37.104,68.752 C36.8053318,68.4426651 36.4213357,68.288 35.952,68.288 C35.4826643,68.288 35.0986682,68.4426651 34.8,68.752 C34.5013318,69.0613349 34.352,69.4506643 34.352,69.92 L34.352,83.296 Z M49.856,65.024 C50.6026704,65.024 51.2959968,65.1786651 51.936,65.488 C52.5760032,65.7973349 53.1093312,66.2293306 53.536,66.784 C53.7493344,67.0613347 53.9306659,67.3279987 54.08,67.584 C54.2293341,67.8400013 54.3573328,68.1279984 54.464,68.448 C54.5706672,68.7680016 54.6399998,69.1466645 54.672,69.584 C54.7040002,70.0213355 54.72,70.5493302 54.72,71.168 L54.7164445,71.8151121 C54.7117038,72.2228153 54.7022223,72.5831095 54.688,72.896 C54.6666666,73.3653357 54.6026672,73.7813315 54.496,74.144 C54.3893328,74.5066685 54.2240011,74.8319986 54,75.12 C53.7759989,75.4080014 53.4720019,75.7119984 53.088,76.032 C53.4720019,76.3306682 53.7759989,76.6293318 54,76.928 C54.2240011,77.2266682 54.3893328,77.5786646 54.496,77.984 C54.6026672,78.3893354 54.6666666,78.8853304 54.688,79.472 L54.7095511,80.299755 C54.716517,80.7002982 54.72,81.1443785 54.72,81.632 L54.7160817,82.2053889 C54.7095511,82.6581777 54.6948573,83.0483793 54.672,83.376 C54.6399998,83.834669 54.5920003,84.234665 54.528,84.576 C54.4639997,84.917335 54.3733339,85.2053322 54.256,85.44 C54.1386661,85.6746678 53.9946675,85.9199987 53.824,86.176 C53.4613315,86.7306694 52.9493366,87.2053314 52.288,87.6 C51.6266634,87.9946686 50.8160048,88.192 49.856,88.192 C48.8959952,88.192 48.0853366,87.9946686 47.424,87.6 C46.7626634,87.2053314 46.2506685,86.7306694 45.888,86.176 C45.7173325,85.9199987 45.5733339,85.6746678 45.456,85.44 C45.3386661,85.2053322 45.2480003,84.917335 45.184,84.576 C45.1199997,84.234665 45.0720002,83.834669 45.04,83.376 L45.0164897,82.9528159 C45.0034285,82.6506668 44.9955918,82.3084643 44.9929796,81.9262051 L44.9946122,80.9332231 C44.9989659,80.3781215 45.0087618,79.8910497 45.024,79.472 C45.0453334,78.8853304 45.1093328,78.3893354 45.216,77.984 C45.3226672,77.5786646 45.4879989,77.2266682 45.712,76.928 C45.9360011,76.6293318 46.2399981,76.3306682 46.624,76.032 C46.2399981,75.7119984 45.9360011,75.4080014 45.712,75.12 C45.4879989,74.8319986 45.3226672,74.5066685 45.216,74.144 C45.1093328,73.7813315 45.0453334,73.3653357 45.024,72.896 L45.0062222,72.3911108 C44.9991111,72.1208892 44.9946666,71.8240014 44.9928889,71.5004455 L44.992,71.168 C44.992,70.5493302 45.0133331,70.0213355 45.056,69.584 C45.0986669,69.1466645 45.1733328,68.7680016 45.28,68.448 C45.3866672,68.1279984 45.5093326,67.8400013 45.648,67.584 C45.7866674,67.3279987 45.9626656,67.0613347 46.176,66.784 C46.6026688,66.2293306 47.1359968,65.7973349 47.776,65.488 C48.4160032,65.1786651 49.1093296,65.024 49.856,65.024 Z M63.76,65.024 C64.6560045,65.024 65.4559965,65.2213314 66.16,65.616 C66.8640035,66.0106686 67.4293312,66.5493299 67.856,67.232 C68.0053341,67.4880013 68.1333328,67.7333322 68.24,67.968 C68.3466672,68.2026678 68.4319997,68.4799984 68.496,68.8 C68.5386669,69.141335 68.5706666,69.5519976 68.592,70.032 L68.6076735,70.476082 C68.6185579,70.8733602 68.624,71.338664 68.624,71.872 L68.6181225,72.7095518 C68.612898,73.0517551 68.6041905,73.3539035 68.592,73.616 L68.56128,74.1331205 C68.5433601,74.3750401 68.5216001,74.591999 68.496,74.784 C68.4319997,75.125335 68.362667,75.429332 68.288,75.696 C68.213333,75.962668 68.1226672,76.2453318 68.016,76.544 L63.728,88 L60.08,88 L63.792,78.432 L63.728,78.368 C63.6213328,78.4533338 63.4560011,78.5226664 63.232,78.576 C63.0079989,78.6293336 62.7146685,78.656 62.352,78.656 C61.7759971,78.656 61.2426691,78.5173347 60.752,78.24 C60.2613309,77.9626653 59.8773347,77.6106688 59.6,77.184 C59.4506659,76.9706656 59.3333338,76.7413346 59.248,76.496 C59.1626662,76.2506654 59.0986669,75.9360019 59.056,75.552 C59.0026664,75.2319984 58.9641481,74.8416311 58.9404445,74.3808898 L58.928,74.096 C58.9119999,73.6559978 58.902,73.1290014 58.898,72.5150015 L58.896,71.872 C58.896,71.2319968 58.9038367,70.68996 58.9195102,70.2458781 L58.928,70.032 C58.9450668,69.6479981 58.9757865,69.3083737 59.0201599,69.0131204 L59.056,68.8 C59.0986669,68.4799984 59.1679995,68.2026678 59.264,67.968 C59.3600005,67.7333322 59.4826659,67.4880013 59.632,67.232 C60.0586688,66.5279965 60.6293298,65.9840019 61.344,65.6 C62.0586702,65.2159981 62.8639955,65.024 63.76,65.024 Z M49.856,77.248 C49.4293312,77.248 49.0560016,77.4026651 48.736,77.712 C48.4159984,78.0213349 48.256,78.3999978 48.256,78.848 L48.256,83.328 C48.256,83.7760022 48.4159984,84.1546651 48.736,84.464 C49.0560016,84.7733349 49.4293312,84.928 49.856,84.928 C50.2826688,84.928 50.6559984,84.7733349 50.976,84.464 C51.2960016,84.1546651 51.456,83.7760022 51.456,83.328 L51.456,78.848 C51.456,78.3999978 51.2960016,78.0213349 50.976,77.712 C50.6559984,77.4026651 50.2826688,77.248 49.856,77.248 Z M63.76,68.288 C63.3333312,68.288 62.9600016,68.4373318 62.64,68.736 C62.3199984,69.0346682 62.16,69.4293309 62.16,69.92 L62.16,69.92 L62.16,74.144 C62.16,74.6346691 62.3199984,75.0293318 62.64,75.328 C62.9600016,75.6266682 63.3333312,75.776 63.76,75.776 C64.1866688,75.776 64.5599984,75.6266682 64.88,75.328 C65.2000016,75.0293318 65.36,74.6346691 65.36,74.144 L65.36,74.144 L65.36,69.92 C65.36,69.4293309 65.2000016,69.0346682 64.88,68.736 C64.5599984,68.4373318 64.1866688,68.288 63.76,68.288 Z M49.856,68.288 C49.4293312,68.288 49.0560016,68.4426651 48.736,68.752 C48.4159984,69.0613349 48.256,69.4399978 48.256,69.888 L48.256,73.216 C48.256,73.6640022 48.4159984,74.0426651 48.736,74.352 C49.0560016,74.6613349 49.4293312,74.816 49.856,74.816 C50.2826688,74.816 50.6559984,74.6613349 50.976,74.352 C51.2960016,74.0426651 51.456,73.6640022 51.456,73.216 L51.456,69.888 C51.456,69.4399978 51.2960016,69.0613349 50.976,68.752 C50.6559984,68.4426651 50.2826688,68.288 49.856,68.288 Z" id="DAY.089" fill="#6E767D" fill-rule="nonzero"></path>
        </g>
        <rect id="矩形" fill="#1D1E1F" x="141" y="90" width="304" height="10"></rect>
        <text id="插画版面应用准则" font-family="PingFangSC-Semibold, PingFang SC" font-size="38" font-weight="500" line-spacing="38" fill="#A8B2BA">
            <tspan x="141" y="97">插画版面应用准则</tspan>
        </text>
        <text id="插画让人更有阅读的兴趣，还可能扩大阅读群" font-family="PingFangSC-Regular, PingFang SC" font-size="14" font-weight="normal" line-spacing="20" fill="#A8B2BA">
            <tspan x="62" y="139">插画让人更有阅读的兴趣，还可能扩大阅读群体的范围。</tspan>
            <tspan x="62" y="159" font-family="PingFangSC-Medium, PingFang SC" font-weight="400">理解照片与插画的区别</tspan>
            <tspan x="202" y="159">       </tspan>
            <tspan x="248" y="159" fill-opacity="0.7">照片和插画都有将信息视觉化的作用，但也有明显区别，最大的不同在于，照片是对</tspan>
            <tspan x="62" y="179" fill-opacity="0.7">现实的再现，更接近真实。插画就很难做到对现实的完全再现，虽然也有写实的插画，但相对照片而言距离真实较</tspan>
            <tspan x="62" y="199" fill-opacity="0.7">远，并加入了许多作者的主观意识。</tspan>
            <tspan x="286" y="199"></tspan>
            <tspan x="62" y="219" font-family="PingFangSC-Medium, PingFang SC" font-weight="400">灵活运用插画的特点</tspan>
            <tspan x="188" y="219">          </tspan>
            <tspan x="248" y="219" fill-opacity="0.7">虽然插画难以表现真实的情况，却并不代表照片效果就一定比插画好。很多内容也需</tspan>
            <tspan x="62" y="239" fill-opacity="0.7">要借助插画的特点才能够表现。</tspan>
            <tspan x="258" y="239"></tspan>
            <tspan x="62" y="259" font-family="PingFangSC-Medium, PingFang SC" font-weight="400">四边形插画与自然形插画</tspan>
            <tspan x="216.36043" y="259">  </tspan>
            <tspan x="246.702452" y="259" fill-opacity="0.7">插画的外型主要分为四边形和自然形。四边形显得比较稳定、规整，自然形则更加活</tspan>
            <tspan x="62" y="279" fill-opacity="0.7">泼、多变。自然形的插画并不一定要严格按照图像的轮廓线剪裁，在保持自然效果的前提下，根据版面的需要，有</tspan>
            <tspan x="62" y="299" fill-opacity="0.7">时也可以有意地从图像的半截进行剪裁，形成独特的视觉效果。</tspan>
        </text>
        <text id="《设计师必懂的黄金设计法则》-读书笔记" font-family="PingFangSC-Regular, PingFang SC" font-size="14" font-weight="normal" line-spacing="24" fill="#3A4249">
            <tspan x="54" y="353">《设计师必懂的黄金设计法则》     </tspan>
            <tspan x="54" y="377">  读书笔记 设计原则 思考总结</tspan>
        </text>
    </g>
</svg>