<?xml version="1.0" encoding="UTF-8"?>
<svg width="828px" height="432px" viewBox="0 0 828 432" version="1.1" xmlns="http://www.w3.org/2000/svg" xmlns:xlink="http://www.w3.org/1999/xlink">
    <!-- Generator: Sketch 58 (84663) - https://sketch.com -->
    <title>94</title>
    <desc>Created with Sketch.</desc>
    <g id="94" stroke="none" stroke-width="1" fill="none" fill-rule="evenodd">
        <g id="编组" transform="translate(32.000000, 16.000000)">
            <rect id="矩形" fill="#101216" x="0" y="0" width="764" height="400" rx="8"></rect>
            <path d="M31.536,58 L31.536,35.216 L36.368,35.216 C38.2453427,35.216 39.6693285,35.7279949 40.64,36.752 C41.6106715,37.7760051 42.096,39.2266573 42.096,41.104 L42.096,51.76 C42.096,53.893344 41.5786718,55.4666616 40.544,56.48 C39.5093282,57.4933384 38.021343,58 36.08,58 L31.536,58 Z M34.8,38.288 L34.8,54.928 L36.304,54.928 C37.2213379,54.928 37.8719981,54.698669 38.256,54.24 C38.6400019,53.781331 38.832,53.0613382 38.832,52.08 L38.832,41.104 C38.832,40.2079955 38.6506685,39.5146691 38.288,39.024 C37.9253315,38.5333309 37.2640048,38.288 36.304,38.288 L34.8,38.288 Z M53.376,50.032 L51.776,41.776 L51.712,41.776 L50.112,50.032 L53.376,50.032 Z M45.312,58 L50.4,35.216 L53.12,35.216 L58.208,58 L54.944,58 L53.984,53.104 L49.536,53.104 L48.576,58 L45.312,58 Z M63.088,58 L63.088,48.368 L58.608,35.216 L62.064,35.216 L64.688,44.272 L64.752,44.272 L67.376,35.216 L70.832,35.216 L66.352,48.368 L66.352,58 L63.088,58 Z M71.328,58 L71.328,54.736 L74.592,54.736 L74.592,58 L71.328,58 Z M31.088,69.92 C31.088,69.1519962 31.221332,68.4693363 31.488,67.872 C31.754668,67.2746637 32.1119978,66.7626688 32.56,66.336 C33.0080022,65.9093312 33.5253304,65.5840011 34.112,65.36 C34.6986696,65.1359989 35.3119968,65.024 35.952,65.024 C36.5920032,65.024 37.2053304,65.1359989 37.792,65.36 C38.3786696,65.5840011 38.8959978,65.9093312 39.344,66.336 C39.7920022,66.7626688 40.149332,67.2746637 40.416,67.872 C40.682668,68.4693363 40.816,69.1519962 40.816,69.92 L40.816,83.296 C40.816,84.0640038 40.682668,84.7466637 40.416,85.344 C40.149332,85.9413363 39.7920022,86.4533312 39.344,86.88 C38.8959978,87.3066688 38.3786696,87.6319989 37.792,87.856 C37.2053304,88.0800011 36.5920032,88.192 35.952,88.192 C35.3119968,88.192 34.6986696,88.0800011 34.112,87.856 C33.5253304,87.6319989 33.0080022,87.3066688 32.56,86.88 C32.1119978,86.4533312 31.754668,85.9413363 31.488,85.344 C31.221332,84.7466637 31.088,84.0640038 31.088,83.296 L31.088,69.92 Z M34.352,83.296 C34.352,83.7653357 34.5013318,84.1546651 34.8,84.464 C35.0986682,84.7733349 35.4826643,84.928 35.952,84.928 C36.4213357,84.928 36.8053318,84.7733349 37.104,84.464 C37.4026682,84.1546651 37.552,83.7653357 37.552,83.296 L37.552,69.92 C37.552,69.4506643 37.4026682,69.0613349 37.104,68.752 C36.8053318,68.4426651 36.4213357,68.288 35.952,68.288 C35.4826643,68.288 35.0986682,68.4426651 34.8,68.752 C34.5013318,69.0613349 34.352,69.4506643 34.352,69.92 L34.352,83.296 Z M46.176,88 L49.888,78.432 L49.824,78.368 C49.7173328,78.4533338 49.5520011,78.5226664 49.328,78.576 C49.1039989,78.6293336 48.8106685,78.656 48.448,78.656 C47.8719971,78.656 47.3386691,78.5173347 46.848,78.24 C46.3573309,77.9626653 45.9733347,77.6106688 45.696,77.184 C45.5466659,76.9706656 45.4293338,76.7413346 45.344,76.496 C45.2586662,76.2506654 45.1946669,75.9360019 45.152,75.552 C45.0986664,75.2319984 45.0601481,74.8416311 45.0364445,74.3808898 L45.024,74.096 C45.0079999,73.6559978 44.998,73.1290014 44.994,72.5150015 L44.992,71.872 C44.992,71.2319968 44.9998367,70.68996 45.0155102,70.2458781 L45.024,70.032 C45.0410668,69.6479981 45.0717865,69.3083737 45.1161599,69.0131204 L45.152,68.8 C45.1946669,68.4799984 45.2639995,68.2026678 45.36,67.968 C45.4560005,67.7333322 45.5786659,67.4880013 45.728,67.232 C46.1546688,66.5279965 46.7253298,65.9840019 47.44,65.6 C48.1546702,65.2159981 48.9599955,65.024 49.856,65.024 C50.7520045,65.024 51.5519965,65.2213314 52.256,65.616 C52.9600035,66.0106686 53.5253312,66.5493299 53.952,67.232 C54.1013341,67.4880013 54.2293328,67.7333322 54.336,67.968 C54.4426672,68.2026678 54.5279997,68.4799984 54.592,68.8 C54.6346669,69.141335 54.6666666,69.5519976 54.688,70.032 L54.7036735,70.476082 C54.7145579,70.8733602 54.72,71.338664 54.72,71.872 L54.7141225,72.7095518 C54.708898,73.0517551 54.7001905,73.3539035 54.688,73.616 L54.65728,74.1331205 C54.6393601,74.3750401 54.6176001,74.591999 54.592,74.784 C54.5279997,75.125335 54.458667,75.429332 54.384,75.696 C54.309333,75.962668 54.2186672,76.2453318 54.112,76.544 L49.824,88 L46.176,88 Z M48.256,74.144 C48.256,74.6346691 48.4159984,75.0293318 48.736,75.328 C49.0560016,75.6266682 49.4293312,75.776 49.856,75.776 C50.2826688,75.776 50.6559984,75.6266682 50.976,75.328 C51.2960016,75.0293318 51.456,74.6346691 51.456,74.144 L51.456,69.92 C51.456,69.4293309 51.2960016,69.0346682 50.976,68.736 C50.6559984,68.4373318 50.2826688,68.288 49.856,68.288 C49.4293312,68.288 49.0560016,68.4373318 48.736,68.736 C48.4159984,69.0346682 48.256,69.4293309 48.256,69.92 L48.256,74.144 Z M64.592,88 L64.592,84.608 L58.096,84.608 L58.096,81.536 L62.8,65.216 L66.256,65.216 L61.36,81.536 L64.592,81.536 L64.592,75.04 L67.856,75.04 L67.856,81.536 L69.424,81.536 L69.424,84.608 L67.856,84.608 L67.856,88 L64.592,88 Z" id="DAY.094" fill="#6E767D" fill-rule="nonzero"></path>
        </g>
        <rect id="矩形" fill="#1D1E1F" x="141" y="90" width="266" height="10"></rect>
        <text id="色彩的情感法则" font-family="PingFangSC-Semibold, PingFang SC" font-size="38" font-weight="500" line-spacing="38" fill="#A8B2BA">
            <tspan x="141" y="97">色彩的情感法则</tspan>
        </text>
        <text id="色彩情感是经过思维与以往记忆及经验产生联" font-family="PingFangSC-Regular, PingFang SC" font-size="14" font-weight="normal" line-spacing="19" fill="#A8B2BA">
            <tspan x="62" y="134">色彩情感是经过思维与以往记忆及经验产生联想，从而形成的色彩心理反应，儿童多为抽象联想，成人多为具象联</tspan>
            <tspan x="62" y="153">想。</tspan>
            <tspan x="62" y="172" font-family="PingFangSC-Medium, PingFang SC" font-weight="400">色彩的冷暖 </tspan>
            <tspan x="136.662" y="172">         </tspan>
            <tspan x="178.62" y="172" fill-opacity="0.6">色彩冷暖并不是说色彩本身具有温度的差别，而是指色彩通过视觉给人造成的心理联想。</tspan>
            <tspan x="62" y="191" fill-opacity="0.6">暖色：人们见到红色、橙色、黄色、红紫等暖色时，常常会联想到阳光、烈火、热血等物像，在心理上产生温暖、</tspan>
            <tspan x="62" y="210" fill-opacity="0.6">热烈、积极、危险等感觉，容易产生冲动的情绪。</tspan>
            <tspan x="62" y="229" fill-opacity="0.6">冷色：蓝色、蓝紫色、蓝绿色等色彩，容易使人联想到海洋、天空、冰雪等物像，同时产生安宁、理智、平静等感</tspan>
            <tspan x="62" y="248" fill-opacity="0.6">觉。</tspan>
            <tspan x="62" y="267" font-family="PingFangSC-Medium, PingFang SC" font-weight="400">色彩的生理感觉</tspan>
            <tspan x="160" y="267">     </tspan>
            <tspan x="183.31" y="267" fill-opacity="0.6">高明度的色彩给人轻盈、漂浮的感觉，低明度的色彩给人厚重、沉降的感受。</tspan>
            <tspan x="62" y="286" fill-opacity="0.6">高明度、低纯度的暖色给人柔软、温和的感受，低明度、低纯度的色彩给人带来强硬、严肃的印象。</tspan>
            <tspan x="62" y="305" fill-opacity="0.6">高纯度色彩和暖色令人感到兴奋积极，低纯度、低明度的色彩和冷色令人感到安静内向。</tspan>
        </text>
        <text id="《设计师必懂的黄金设计法则》-读书笔记" font-family="PingFangSC-Regular, PingFang SC" font-size="14" font-weight="normal" line-spacing="24" fill="#3A4249">
            <tspan x="62" y="353">《设计师必懂的黄金设计法则》     </tspan>
            <tspan x="62" y="377">读书笔记 设计原则 思考总结</tspan>
        </text>
    </g>
</svg>