<?xml version="1.0" encoding="UTF-8"?>
<svg width="828px" height="432px" viewBox="0 0 828 432" version="1.1" xmlns="http://www.w3.org/2000/svg" xmlns:xlink="http://www.w3.org/1999/xlink">
    <!-- Generator: Sketch 56.3 (81716) - https://sketch.com -->
    <title>9</title>
    <desc>Created with Sketch.</desc>
    <g id="9" stroke="none" stroke-width="1" fill="none" fill-rule="evenodd">
        <g id="编组" transform="translate(32.000000, 16.000000)">
            <rect id="矩形" fill="#101216" x="0" y="0" width="764" height="400" rx="8"></rect>
            <path d="M31.536,58 L31.536,35.216 L36.368,35.216 C38.2453427,35.216 39.6693285,35.7279949 40.64,36.752 C41.6106715,37.7760051 42.096,39.2266573 42.096,41.104 L42.096,51.76 C42.096,53.893344 41.5786718,55.4666616 40.544,56.48 C39.5093282,57.4933384 38.021343,58 36.08,58 L31.536,58 Z M34.8,38.288 L34.8,54.928 L36.304,54.928 C37.2213379,54.928 37.8719981,54.698669 38.256,54.24 C38.6400019,53.781331 38.832,53.0613382 38.832,52.08 L38.832,41.104 C38.832,40.2079955 38.6506685,39.5146691 38.288,39.024 C37.9253315,38.5333309 37.2640048,38.288 36.304,38.288 L34.8,38.288 Z M53.376,50.032 L51.776,41.776 L51.712,41.776 L50.112,50.032 L53.376,50.032 Z M45.312,58 L50.4,35.216 L53.12,35.216 L58.208,58 L54.944,58 L53.984,53.104 L49.536,53.104 L48.576,58 L45.312,58 Z M63.088,58 L63.088,48.368 L58.608,35.216 L62.064,35.216 L64.688,44.272 L64.752,44.272 L67.376,35.216 L70.832,35.216 L66.352,48.368 L66.352,58 L63.088,58 Z M71.328,58 L71.328,54.736 L74.592,54.736 L74.592,58 L71.328,58 Z M31.088,69.92 C31.088,69.1519962 31.221332,68.4693363 31.488,67.872 C31.754668,67.2746637 32.1119978,66.7626688 32.56,66.336 C33.0080022,65.9093312 33.5253304,65.5840011 34.112,65.36 C34.6986696,65.1359989 35.3119968,65.024 35.952,65.024 C36.5920032,65.024 37.2053304,65.1359989 37.792,65.36 C38.3786696,65.5840011 38.8959978,65.9093312 39.344,66.336 C39.7920022,66.7626688 40.149332,67.2746637 40.416,67.872 C40.682668,68.4693363 40.816,69.1519962 40.816,69.92 L40.816,83.296 C40.816,84.0640038 40.682668,84.7466637 40.416,85.344 C40.149332,85.9413363 39.7920022,86.4533312 39.344,86.88 C38.8959978,87.3066688 38.3786696,87.6319989 37.792,87.856 C37.2053304,88.0800011 36.5920032,88.192 35.952,88.192 C35.3119968,88.192 34.6986696,88.0800011 34.112,87.856 C33.5253304,87.6319989 33.0080022,87.3066688 32.56,86.88 C32.1119978,86.4533312 31.754668,85.9413363 31.488,85.344 C31.221332,84.7466637 31.088,84.0640038 31.088,83.296 L31.088,69.92 Z M34.352,83.296 C34.352,83.7653357 34.5013318,84.1546651 34.8,84.464 C35.0986682,84.7733349 35.4826643,84.928 35.952,84.928 C36.4213357,84.928 36.8053318,84.7733349 37.104,84.464 C37.4026682,84.1546651 37.552,83.7653357 37.552,83.296 L37.552,69.92 C37.552,69.4506643 37.4026682,69.0613349 37.104,68.752 C36.8053318,68.4426651 36.4213357,68.288 35.952,68.288 C35.4826643,68.288 35.0986682,68.4426651 34.8,68.752 C34.5013318,69.0613349 34.352,69.4506643 34.352,69.92 L34.352,83.296 Z M44.992,69.92 C44.992,69.1519962 45.125332,68.4693363 45.392,67.872 C45.658668,67.2746637 46.0159978,66.7626688 46.464,66.336 C46.9120022,65.9093312 47.4293304,65.5840011 48.016,65.36 C48.6026696,65.1359989 49.2159968,65.024 49.856,65.024 C50.4960032,65.024 51.1093304,65.1359989 51.696,65.36 C52.2826696,65.5840011 52.7999978,65.9093312 53.248,66.336 C53.6960022,66.7626688 54.053332,67.2746637 54.32,67.872 C54.586668,68.4693363 54.72,69.1519962 54.72,69.92 L54.72,83.296 C54.72,84.0640038 54.586668,84.7466637 54.32,85.344 C54.053332,85.9413363 53.6960022,86.4533312 53.248,86.88 C52.7999978,87.3066688 52.2826696,87.6319989 51.696,87.856 C51.1093304,88.0800011 50.4960032,88.192 49.856,88.192 C49.2159968,88.192 48.6026696,88.0800011 48.016,87.856 C47.4293304,87.6319989 46.9120022,87.3066688 46.464,86.88 C46.0159978,86.4533312 45.658668,85.9413363 45.392,85.344 C45.125332,84.7466637 44.992,84.0640038 44.992,83.296 L44.992,69.92 Z M48.256,83.296 C48.256,83.7653357 48.4053318,84.1546651 48.704,84.464 C49.0026682,84.7733349 49.3866643,84.928 49.856,84.928 C50.3253357,84.928 50.7093318,84.7733349 51.008,84.464 C51.3066682,84.1546651 51.456,83.7653357 51.456,83.296 L51.456,69.92 C51.456,69.4506643 51.3066682,69.0613349 51.008,68.752 C50.7093318,68.4426651 50.3253357,68.288 49.856,68.288 C49.3866643,68.288 49.0026682,68.4426651 48.704,68.752 C48.4053318,69.0613349 48.256,69.4506643 48.256,69.92 L48.256,83.296 Z M60.08,88 L63.792,78.432 L63.728,78.368 C63.6213328,78.4533338 63.4560011,78.5226664 63.232,78.576 C63.0079989,78.6293336 62.7146685,78.656 62.352,78.656 C61.7759971,78.656 61.2426691,78.5173347 60.752,78.24 C60.2613309,77.9626653 59.8773347,77.6106688 59.6,77.184 C59.4506659,76.9706656 59.3333338,76.7413346 59.248,76.496 C59.1626662,76.2506654 59.0986669,75.9360019 59.056,75.552 C58.9919997,75.1679981 58.9493334,74.6826696 58.928,74.096 C58.9066666,73.5093304 58.896,72.7680045 58.896,71.872 C58.896,71.1253296 58.9066666,70.5120024 58.928,70.032 C58.9493334,69.5519976 58.9919997,69.141335 59.056,68.8 C59.0986669,68.4799984 59.1679995,68.2026678 59.264,67.968 C59.3600005,67.7333322 59.4826659,67.4880013 59.632,67.232 C60.0586688,66.5279965 60.6293298,65.9840019 61.344,65.6 C62.0586702,65.2159981 62.8639955,65.024 63.76,65.024 C64.6560045,65.024 65.4559965,65.2213314 66.16,65.616 C66.8640035,66.0106686 67.4293312,66.5493299 67.856,67.232 C68.0053341,67.4880013 68.1333328,67.7333322 68.24,67.968 C68.3466672,68.2026678 68.4319997,68.4799984 68.496,68.8 C68.5386669,69.141335 68.5706666,69.5519976 68.592,70.032 C68.6133334,70.5120024 68.624,71.1253296 68.624,71.872 C68.624,72.5760035 68.6133334,73.157331 68.592,73.616 C68.5706666,74.074669 68.5386669,74.4639984 68.496,74.784 C68.4319997,75.125335 68.362667,75.429332 68.288,75.696 C68.213333,75.962668 68.1226672,76.2453318 68.016,76.544 L63.728,88 L60.08,88 Z M62.16,74.144 C62.16,74.6346691 62.3199984,75.0293318 62.64,75.328 C62.9600016,75.6266682 63.3333312,75.776 63.76,75.776 C64.1866688,75.776 64.5599984,75.6266682 64.88,75.328 C65.2000016,75.0293318 65.36,74.6346691 65.36,74.144 L65.36,69.92 C65.36,69.4293309 65.2000016,69.0346682 64.88,68.736 C64.5599984,68.4373318 64.1866688,68.288 63.76,68.288 C63.3333312,68.288 62.9600016,68.4373318 62.64,68.736 C62.3199984,69.0346682 62.16,69.4293309 62.16,69.92 L62.16,74.144 Z" id="DAY.009" fill="#6E767D" fill-rule="nonzero"></path>
            <rect id="矩形" fill="#1D1E1F" x="109" y="74" width="217" height="10"></rect>
            <path d="M114.206,46.336 C115.042,46.336 115.764,46.602 116.334,47.134 C116.866,47.666 117.17,48.35 117.17,49.186 C117.17,50.022 116.866,50.744 116.296,51.276 C115.726,51.808 115.042,52.074 114.206,52.074 C113.37,52.074 112.686,51.808 112.116,51.276 C111.546,50.706 111.28,50.022 111.28,49.186 C111.28,48.35 111.546,47.666 112.116,47.134 C112.686,46.602 113.37,46.336 114.206,46.336 Z M112.04,54.354 L116.372,54.354 L116.372,74 L112.04,74 L112.04,54.354 Z M134.156,46.336 C138.298,46.336 141.566,47.666 143.96,50.364 C146.24,52.91 147.38,56.292 147.38,60.472 C147.38,64.652 146.24,67.996 143.96,70.542 C141.566,73.202 138.298,74.532 134.156,74.532 C129.976,74.532 126.708,73.164 124.352,70.504 C122.072,67.92 120.97,64.576 120.97,60.472 C120.97,56.33 122.072,52.986 124.352,50.402 C126.708,47.666 129.976,46.336 134.156,46.336 Z M134.156,50.25 C131.344,50.25 129.178,51.2 127.62,53.1 C126.138,54.924 125.416,57.356 125.416,60.472 C125.416,63.55 126.138,65.982 127.62,67.806 C129.14,69.668 131.344,70.618 134.156,70.618 C136.968,70.618 139.134,69.706 140.654,67.92 C142.136,66.134 142.896,63.664 142.896,60.472 C142.896,57.28 142.136,54.772 140.654,52.948 C139.134,51.124 136.968,50.25 134.156,50.25 Z M161.136,46.336 C164.328,46.336 166.836,46.982 168.622,48.312 C170.522,49.718 171.624,51.922 171.89,54.886 L167.482,54.886 C167.102,53.214 166.38,51.998 165.392,51.276 C164.404,50.516 162.884,50.174 160.908,50.174 C159.198,50.174 157.906,50.402 156.994,50.896 C155.854,51.466 155.322,52.416 155.322,53.708 C155.322,54.848 155.93,55.798 157.222,56.482 C157.792,56.786 159.35,57.356 161.858,58.154 C165.544,59.294 167.9,60.206 168.964,60.814 C171.32,62.22 172.498,64.158 172.498,66.666 C172.498,69.098 171.548,71.036 169.648,72.442 C167.748,73.81 165.05,74.532 161.592,74.532 C158.248,74.532 155.626,73.886 153.764,72.594 C151.484,70.998 150.23,68.49 150.04,65.032 L154.448,65.032 C154.752,67.084 155.474,68.566 156.652,69.44 C157.716,70.2 159.35,70.618 161.592,70.618 C163.568,70.618 165.164,70.276 166.304,69.63 C167.444,68.946 168.052,68.072 168.052,66.932 C168.052,65.488 167.178,64.348 165.506,63.512 C164.974,63.246 163.226,62.638 160.224,61.726 C156.88,60.662 154.79,59.902 153.992,59.446 C151.902,58.192 150.876,56.368 150.876,53.974 C150.876,51.58 151.864,49.68 153.916,48.312 C155.816,46.982 158.21,46.336 161.136,46.336 Z M180.174,43.296 C182.606,45.12 184.658,46.944 186.33,48.768 L183.632,51.504 C182.15,49.756 180.098,47.856 177.476,45.88 L180.174,43.296 Z M175.12,54.088 L183.898,54.088 L183.898,69.858 C185,68.87 186.178,67.806 187.432,66.628 L188.534,70.808 C186.026,73.088 183.366,75.102 180.554,76.926 L179.034,73.354 C179.68,72.784 180.022,72.062 180.022,71.226 L180.022,57.888 L175.12,57.888 L175.12,54.088 Z M188.724,58.648 L207.268,58.648 L207.268,62.258 C206.204,65.526 204.456,68.376 202.024,70.77 C204.38,72.29 207.23,73.62 210.612,74.798 L208.484,78.218 C204.76,76.698 201.606,75.026 199.098,73.164 C196.134,75.254 192.524,76.926 188.192,78.18 L185.988,74.836 C189.902,73.696 193.208,72.252 195.944,70.504 C193.512,68.072 191.802,65.412 190.89,62.448 L188.724,62.448 L188.724,58.648 Z M194.614,62.448 C195.45,64.614 196.818,66.59 198.794,68.338 C200.732,66.59 202.214,64.652 203.278,62.448 L194.614,62.448 Z M191.308,43.942 L204.988,43.942 L204.988,51.808 C204.988,52.644 205.444,53.1 206.394,53.1 L209.662,53.1 L209.662,56.71 L205.33,56.71 C202.48,56.71 201.074,55.38 201.074,52.72 L201.074,47.666 L195.222,47.666 L195.222,48.692 C195.222,52.644 193.17,55.722 189.142,57.85 L186.482,54.81 C189.674,53.48 191.308,51.58 191.308,49.11 L191.308,43.942 Z M225.09,53.746 L234.894,53.746 L234.894,42.726 L238.998,42.726 L238.998,53.746 L248.308,53.746 L248.308,57.698 L238.998,57.698 L238.998,78.066 L234.894,78.066 L234.894,57.698 L225.09,57.698 L225.09,53.746 Z M218.402,43.03 C220.796,44.892 222.848,46.754 224.558,48.578 L221.822,51.352 C220.378,49.604 218.288,47.742 215.59,45.766 L218.402,43.03 Z M213.12,54.012 L222.164,54.012 L222.164,69.896 C223.266,68.946 224.444,67.882 225.698,66.704 L226.724,70.77 C224.254,73.05 221.632,75.102 218.82,76.926 L217.3,73.354 C217.984,72.784 218.326,72.1 218.326,71.302 L218.326,57.812 L213.12,57.812 L213.12,54.012 Z M260.924,50.478 L268.6,50.478 C268.866,49.604 269.094,48.73 269.246,47.856 L257.694,47.856 L257.694,58.762 C257.542,66.704 256.288,73.088 253.894,77.914 L250.892,75.216 C252.678,71.264 253.59,65.754 253.666,58.762 L253.666,43.98 L285.282,43.98 L285.282,47.856 L273.198,47.856 C273.008,48.768 272.78,49.642 272.514,50.478 L282.66,50.478 L282.66,65.83 L274.262,65.83 L274.262,74.19 C274.262,76.622 272.97,77.838 270.462,77.838 L266.624,77.838 L265.75,73.962 C266.928,74.114 268.03,74.228 269.094,74.228 C269.854,74.228 270.272,73.886 270.272,73.202 L270.272,65.83 L260.924,65.83 L260.924,50.478 Z M278.822,62.258 L278.822,59.788 L264.762,59.788 L264.762,62.258 L278.822,62.258 Z M264.762,56.444 L278.822,56.444 L278.822,54.088 L264.762,54.088 L264.762,56.444 Z M263.28,66.742 L266.738,68.452 C265.066,71.72 263.128,74.532 260.848,76.926 L257.58,74.608 C259.784,72.404 261.684,69.782 263.28,66.742 Z M280.038,66.704 C282.508,69.82 284.408,72.518 285.776,74.798 L282.47,77.04 C281.102,74.532 279.202,71.758 276.808,68.718 L280.038,66.704 Z M308.196,43.98 L308.196,68.072 L304.32,68.072 L304.32,47.78 L294.744,47.78 L294.744,68.414 L290.906,68.414 L290.906,43.98 L308.196,43.98 Z M303.332,68.87 C305.726,70.884 307.778,72.86 309.45,74.836 L306.448,77.838 C305.042,75.9 303.066,73.81 300.52,71.606 L303.332,68.87 Z M297.67,49.946 L301.508,49.946 L301.508,61.764 C301.356,66.248 300.444,69.858 298.81,72.518 C297.176,74.988 294.554,76.926 290.982,78.294 L288.74,74.722 C292.16,73.43 294.478,71.796 295.694,69.896 C296.872,67.768 297.518,65.07 297.67,61.764 L297.67,49.946 Z M311.464,46.108 L315.302,46.108 L315.302,69.478 L311.464,69.478 L311.464,46.108 Z M318.874,77.572 L313.63,77.572 L312.718,73.734 C314.39,73.886 315.986,73.962 317.468,73.962 C318.532,73.962 319.064,73.43 319.064,72.404 L319.064,42.916 L323.016,42.916 L323.016,73.43 C323.016,76.166 321.61,77.572 318.874,77.572 Z" id="iOS设计原则" fill="#A8B2BA" fill-rule="nonzero"></path>
            <path d="M32.43,129.968 C32.808,129.968 33.132,130.076 33.384,130.328 C33.636,130.562 33.762,130.868 33.762,131.246 C33.762,131.624 33.618,131.93 33.366,132.182 C33.114,132.416 32.79,132.542 32.43,132.542 C32.052,132.542 31.746,132.416 31.494,132.182 C31.242,131.93 31.116,131.606 31.116,131.246 C31.116,130.868 31.242,130.562 31.494,130.328 C31.746,130.076 32.052,129.968 32.43,129.968 Z M31.476,133.694 L33.384,133.694 L33.384,143 L31.476,143 L31.476,133.694 Z M41.826,129.896 C43.77,129.896 45.318,130.526 46.452,131.804 C47.532,133.01 48.072,134.612 48.072,136.592 C48.072,138.554 47.532,140.138 46.452,141.362 C45.318,142.622 43.77,143.252 41.826,143.252 C39.864,143.252 38.316,142.604 37.2,141.344 C36.12,140.12 35.598,138.536 35.598,136.592 C35.598,134.63 36.12,133.046 37.2,131.822 C38.316,130.526 39.864,129.896 41.826,129.896 Z M41.826,131.624 C40.458,131.624 39.396,132.074 38.64,133.01 C37.92,133.892 37.56,135.08 37.56,136.592 C37.56,138.086 37.92,139.274 38.64,140.156 C39.396,141.056 40.458,141.524 41.826,141.524 C43.194,141.524 44.256,141.074 44.994,140.192 C45.714,139.328 46.092,138.122 46.092,136.592 C46.092,135.044 45.714,133.838 44.994,132.956 C44.256,132.056 43.194,131.624 41.826,131.624 Z M54.552,129.896 C56.046,129.896 57.216,130.202 58.062,130.85 C58.962,131.516 59.466,132.542 59.592,133.946 L57.648,133.946 C57.468,133.118 57.144,132.506 56.64,132.146 C56.136,131.768 55.416,131.588 54.444,131.588 C53.598,131.588 52.95,131.714 52.5,131.966 C51.942,132.254 51.672,132.722 51.672,133.37 C51.672,133.946 51.978,134.396 52.626,134.738 C52.914,134.9 53.652,135.17 54.858,135.53 C56.586,136.07 57.72,136.484 58.224,136.79 C59.322,137.456 59.88,138.374 59.88,139.562 C59.88,140.714 59.43,141.614 58.53,142.28 C57.63,142.928 56.37,143.252 54.75,143.252 C53.184,143.252 51.96,142.928 51.078,142.316 C50.016,141.56 49.44,140.372 49.332,138.752 L51.276,138.752 C51.42,139.76 51.78,140.498 52.356,140.93 C52.878,141.326 53.67,141.524 54.75,141.524 C55.722,141.524 56.496,141.344 57.072,141.02 C57.648,140.696 57.936,140.246 57.936,139.67 C57.936,138.95 57.522,138.392 56.712,137.978 C56.424,137.834 55.578,137.546 54.156,137.114 C52.572,136.61 51.6,136.268 51.204,136.052 C50.214,135.458 49.728,134.594 49.728,133.478 C49.728,132.344 50.196,131.462 51.15,130.814 C52.05,130.202 53.184,129.896 54.552,129.896 Z M64.362,128.168 L66.054,128.312 L65.82,130.544 L76.422,130.544 L76.422,132.182 L65.658,132.182 L65.406,134.72 L75.378,134.72 C75.378,139.742 75.018,142.658 74.334,143.45 C73.65,144.206 72.192,144.584 69.942,144.584 C69.366,144.584 68.754,144.548 68.124,144.512 L67.674,142.946 C68.592,143.036 69.24,143.09 69.6,143.09 C71.508,143.09 72.66,142.766 73.038,142.136 C73.434,141.452 73.65,139.526 73.65,136.322 L63.498,136.322 L64.362,128.168 Z M61.302,138.824 L71.454,138.824 L71.454,140.462 L61.302,140.462 L61.302,138.824 Z M79.644,129.716 L82.614,129.716 L82.614,128.204 L84.36,128.204 L84.36,129.716 L90.516,129.716 L90.516,128.204 L92.262,128.204 L92.262,129.716 L95.232,129.716 L95.232,131.318 L92.262,131.318 L92.262,139.13 L95.574,139.13 L95.574,140.714 L79.32,140.714 L79.32,139.13 L82.614,139.13 L82.614,131.318 L79.644,131.318 L79.644,129.716 Z M84.36,139.13 L90.516,139.13 L90.516,137.438 L84.36,137.438 L84.36,139.13 Z M84.36,135.98 L90.516,135.98 L90.516,134.378 L84.36,134.378 L84.36,135.98 Z M84.36,132.92 L90.516,132.92 L90.516,131.318 L84.36,131.318 L84.36,132.92 Z M84.774,140.912 L85.98,141.992 C84.54,143.072 82.776,144.008 80.652,144.818 L79.572,143.432 C81.624,142.712 83.37,141.866 84.774,140.912 Z M89.886,140.984 C91.866,141.632 93.684,142.424 95.304,143.342 L94.368,144.818 C92.622,143.738 90.84,142.892 89.022,142.28 L89.886,140.984 Z M100.848,128.096 L102.396,128.816 C101.982,130.13 101.46,131.39 100.812,132.596 L100.812,144.89 L99.138,144.89 L99.138,135.242 C98.634,135.908 98.094,136.556 97.518,137.204 L96.96,135.458 C98.724,133.334 100.02,130.886 100.848,128.096 Z M111.162,144.512 L105.06,144.512 C103.62,144.512 102.9,143.756 102.9,142.28 L102.9,135.53 L101.424,135.98 L101.424,134.234 L102.9,133.766 L102.9,129.896 L104.61,129.896 L104.61,133.226 L106.86,132.524 L106.86,128.222 L108.552,128.222 L108.552,131.984 L112.494,130.742 C112.494,134.702 112.386,137.114 112.206,137.96 C112.026,138.788 111.234,139.202 109.866,139.202 L109.65,139.202 L109.146,137.546 C109.542,137.564 109.902,137.582 110.226,137.582 C110.478,137.582 110.622,137.384 110.676,136.988 C110.712,136.628 110.748,135.332 110.766,133.082 L108.552,133.766 L108.552,140.876 L106.86,140.876 L106.86,134.288 L104.61,134.99 L104.61,142.046 C104.61,142.586 104.898,142.874 105.474,142.874 L110.874,142.874 C111.27,142.874 111.576,142.748 111.756,142.514 C111.918,142.262 112.026,141.416 112.08,139.94 L113.7,140.48 C113.574,142.37 113.358,143.522 113.034,143.918 C112.674,144.314 112.062,144.512 111.162,144.512 Z M116.13,128.924 L130.782,128.924 L130.782,130.598 L124.23,130.598 L124.23,136.97 L131.466,136.97 L131.466,138.608 L124.23,138.608 L124.23,144.836 L122.502,144.836 L122.502,138.608 L115.41,138.608 L115.41,136.97 L122.502,136.97 L122.502,130.598 L116.13,130.598 L116.13,128.924 Z M118.65,131.444 C119.298,132.668 119.928,134 120.54,135.476 L118.938,136.268 C118.344,134.756 117.714,133.406 117.048,132.218 L118.65,131.444 Z M128.37,131.372 L129.936,132.11 C129.414,133.496 128.73,134.846 127.902,136.178 L126.354,135.386 C127.2,134.018 127.866,132.686 128.37,131.372 Z M147.594,137.222 L147.594,144.872 L145.866,144.872 L145.866,144.134 L137.01,144.134 L137.01,144.872 L135.282,144.872 L135.282,137.222 L147.594,137.222 Z M137.01,142.496 L145.866,142.496 L145.866,138.86 L137.01,138.86 L137.01,142.496 Z M134.112,135.548 L133.788,133.928 C135.156,133.622 137.046,131.696 139.458,128.168 L141.24,128.78 C139.782,130.796 138.306,132.488 136.794,133.856 C139.854,133.748 142.806,133.55 145.668,133.28 C145.092,132.416 144.498,131.624 143.904,130.868 L145.452,130.13 C146.91,131.93 148.296,133.91 149.61,136.088 L147.936,136.916 C147.504,136.16 147.09,135.458 146.676,134.792 C142.914,135.116 138.72,135.368 134.112,135.548 Z M156.594,131.786 C158.178,132.992 159.672,134.198 161.04,135.404 C161.976,134.162 162.786,132.758 163.47,131.174 L165.018,132.002 C164.262,133.748 163.38,135.278 162.372,136.592 C163.668,137.78 164.874,138.986 165.954,140.174 L164.622,141.506 C163.65,140.354 162.516,139.148 161.22,137.924 C159.708,139.544 157.944,140.768 155.946,141.632 L154.956,140.084 C156.846,139.31 158.502,138.194 159.906,136.718 C158.538,135.494 157.008,134.252 155.352,132.992 L156.594,131.786 Z M152.364,128.924 L166.8,128.924 L166.8,130.562 L154.002,130.562 L154.002,142.496 L167.358,142.496 L167.358,144.134 L152.364,144.134 L152.364,128.924 Z M174.738,128.582 L176.214,129.482 C175.386,130.958 174.54,132.182 173.694,133.118 C172.83,134.09 171.642,135.116 170.094,136.196 L169.158,134.702 C170.31,134.054 171.39,133.172 172.398,132.038 C173.226,131.084 174,129.932 174.738,128.582 Z M175.26,136.898 L171.894,136.898 L171.894,135.26 L182.784,135.26 C182.712,137.564 182.604,139.418 182.424,140.858 C182.244,142.262 181.956,143.252 181.542,143.81 C181.128,144.35 180.462,144.656 179.544,144.71 L176.142,144.71 L175.674,143.018 C176.736,143.054 177.744,143.09 178.68,143.09 C179.58,143.09 180.192,142.712 180.48,141.956 C180.768,141.164 180.966,139.472 181.056,136.898 L176.988,136.898 C176.556,138.77 175.98,140.264 175.26,141.38 C174.324,142.676 172.938,143.864 171.102,144.908 L170.004,143.486 C171.624,142.622 172.866,141.65 173.694,140.588 C174.36,139.634 174.882,138.41 175.26,136.898 Z M180.21,128.348 C181.2,131.048 183.018,133.19 185.682,134.774 L184.53,136.124 C181.758,134.324 179.814,132.02 178.716,129.194 L180.21,128.348 Z M188.598,129.482 L202.314,129.482 L202.314,131.156 L188.598,131.156 L188.598,129.482 Z M189.804,135.656 L201.09,135.656 L201.09,137.33 L189.804,137.33 L189.804,135.656 Z M187.284,142.298 L203.592,142.298 L203.592,144.008 L187.284,144.008 L187.284,142.298 Z M212.574,133.604 L214.302,133.604 L214.302,144.836 L212.574,144.836 L212.574,133.604 Z M212.682,128.24 L214.194,128.24 C215.688,130.652 218.244,132.794 221.862,134.63 L220.836,136.196 C217.524,134.486 215.058,132.362 213.438,129.842 C211.494,132.596 209.028,134.72 206.04,136.214 L205.014,134.666 C208.326,133.01 210.882,130.868 212.682,128.24 Z M230.574,132.83 L224.04,132.83 L224.04,131.156 L230.574,131.156 C230.286,130.274 229.944,129.428 229.548,128.618 L231.204,128.168 C231.654,129.248 231.996,130.238 232.248,131.138 L232.194,131.156 L238.854,131.156 L238.854,132.83 L232.302,132.83 L232.302,136.574 L237.99,136.574 L237.99,138.176 L232.302,138.176 L232.302,142.568 L239.484,142.568 L239.484,144.242 L223.41,144.242 L223.41,142.568 L230.574,142.568 L230.574,138.176 L224.904,138.176 L224.904,136.574 L230.574,136.574 L230.574,132.83 Z M241.428,128.852 L257.448,128.852 L257.448,130.382 L252.282,130.382 L252.282,131.696 L256.368,131.696 L256.368,136.466 L248.988,136.466 C248.718,136.916 248.484,137.33 248.268,137.726 L257.664,137.726 L257.664,139.31 L253.902,139.31 C253.542,140.246 252.966,141.056 252.156,141.776 C253.866,142.298 255.63,142.91 257.43,143.594 L256.368,144.998 C254.46,144.188 252.534,143.468 250.608,142.838 C248.916,143.702 246.144,144.404 242.292,144.926 L241.644,143.414 C244.524,143.09 246.774,142.676 248.358,142.136 C246.972,141.722 245.586,141.362 244.2,141.038 C244.596,140.462 244.992,139.886 245.352,139.31 L241.194,139.31 L241.194,137.726 L246.324,137.726 C246.576,137.294 246.828,136.88 247.062,136.466 L242.508,136.466 L242.508,131.696 L246.594,131.696 L246.594,130.382 L241.428,130.382 L241.428,128.852 Z M250.302,141.236 C251.148,140.696 251.76,140.066 252.12,139.31 L247.314,139.31 L246.612,140.354 C247.818,140.606 249.042,140.894 250.302,141.236 Z M250.644,131.696 L250.644,130.382 L248.232,130.382 L248.232,131.696 L250.644,131.696 Z M254.73,135.008 L254.73,133.154 L252.282,133.154 L252.282,135.008 L254.73,135.008 Z M250.644,135.008 L250.644,133.154 L248.232,133.154 L248.232,135.008 L250.644,135.008 Z M246.594,135.008 L246.594,133.154 L244.146,133.154 L244.146,135.008 L246.594,135.008 Z M266.574,132.83 L260.04,132.83 L260.04,131.156 L266.574,131.156 C266.286,130.274 265.944,129.428 265.548,128.618 L267.204,128.168 C267.654,129.248 267.996,130.238 268.248,131.138 L268.194,131.156 L274.854,131.156 L274.854,132.83 L268.302,132.83 L268.302,136.574 L273.99,136.574 L273.99,138.176 L268.302,138.176 L268.302,142.568 L275.484,142.568 L275.484,144.242 L259.41,144.242 L259.41,142.568 L266.574,142.568 L266.574,138.176 L260.904,138.176 L260.904,136.574 L266.574,136.574 L266.574,132.83 Z M289.398,142.982 C291.342,142.982 292.782,142.946 293.736,142.874 L293.448,144.566 L289.794,144.566 C285.474,144.566 282.792,144.332 281.712,143.882 C280.848,143.522 280.092,142.892 279.426,142.01 C279.12,143.054 278.706,144.008 278.184,144.89 L276.96,143.792 C277.86,142.208 278.364,140.426 278.454,138.464 L279.966,138.662 C279.93,139.256 279.876,139.832 279.786,140.372 C280.164,140.912 280.578,141.344 281.01,141.704 L281.01,137.852 L277.572,137.852 L277.572,136.304 L285.276,136.304 L285.276,137.852 L282.504,137.852 L282.504,139.4 L284.826,139.4 L284.826,140.912 L282.504,140.912 L282.504,142.514 C282.54,142.514 282.558,142.532 282.576,142.532 C283.548,142.82 285.834,142.982 289.398,142.982 Z M278.274,128.834 L284.664,128.834 L284.664,135.368 L278.274,135.368 L278.274,128.834 Z M283.008,133.964 L283.008,132.758 L279.93,132.758 L279.93,133.964 L283.008,133.964 Z M279.93,131.462 L283.008,131.462 L283.008,130.238 L279.93,130.238 L279.93,131.462 Z M285.42,128.834 L293.304,128.834 L293.304,130.382 L290.19,130.382 C290.136,130.778 290.064,131.156 289.992,131.516 L292.89,131.516 L292.89,138.914 L291.306,138.914 L291.306,132.974 L287.418,132.974 L287.418,138.914 L285.906,138.914 L285.906,131.516 L288.48,131.516 C288.552,131.138 288.606,130.76 288.642,130.382 L285.42,130.382 L285.42,128.834 Z M290.82,138.842 C291.9,139.652 292.8,140.48 293.538,141.308 L292.35,142.496 C291.702,141.704 290.82,140.84 289.668,139.922 L290.82,138.842 Z M288.57,133.658 L290.154,133.658 L290.154,136.25 C290.082,137.942 289.74,139.292 289.128,140.3 C288.498,141.236 287.49,141.974 286.104,142.478 L285.186,141.02 C286.482,140.552 287.364,139.958 287.832,139.238 C288.282,138.482 288.534,137.474 288.57,136.25 L288.57,133.658 Z M298.938,131.804 C299.298,131.804 299.622,131.93 299.892,132.2 C300.144,132.452 300.288,132.776 300.288,133.154 C300.288,133.514 300.144,133.838 299.892,134.09 C299.622,134.342 299.298,134.486 298.938,134.486 C298.56,134.486 298.236,134.342 297.984,134.09 C297.732,133.838 297.606,133.514 297.606,133.154 C297.606,132.776 297.732,132.452 297.984,132.2 C298.236,131.93 298.56,131.804 298.938,131.804 Z M298.938,138.392 C299.298,138.392 299.622,138.518 299.892,138.788 C300.144,139.04 300.288,139.364 300.288,139.742 C300.288,140.102 300.144,140.426 299.892,140.678 C299.622,140.93 299.298,141.074 298.938,141.074 C298.56,141.074 298.236,140.93 297.984,140.678 C297.732,140.426 297.606,140.102 297.606,139.742 C297.606,139.364 297.732,139.04 297.984,138.788 C298.236,138.518 298.56,138.392 298.938,138.392 Z M32.24,164.136 C33.2,164.824 34,165.512 34.656,166.2 L33.84,167.016 C33.248,166.36 32.448,165.672 31.424,164.936 L32.24,164.136 Z M31.744,167.976 C32.768,168.76 33.616,169.544 34.32,170.328 L33.488,171.144 C32.88,170.408 32.016,169.608 30.912,168.776 L31.744,167.976 Z M33.328,172.424 L34.336,172.824 C33.696,174.808 32.992,176.664 32.192,178.408 L31.136,177.944 C31.984,176.152 32.72,174.312 33.328,172.424 Z M39.44,163.928 L40.56,163.928 L40.56,164.936 L44.816,164.936 L44.816,165.896 L40.56,165.896 L40.56,166.952 L44.208,166.952 L44.208,167.88 L40.56,167.88 L40.56,168.968 L45.264,168.968 L45.264,169.928 L34.784,169.928 L34.784,168.968 L39.44,168.968 L39.44,167.88 L35.952,167.88 L35.952,166.952 L39.44,166.952 L39.44,165.896 L35.296,165.896 L35.296,164.936 L39.44,164.936 L39.44,163.928 Z M37.328,173.992 L37.328,175.128 L42.72,175.128 L42.72,173.992 L37.328,173.992 Z M42.72,173.096 L42.72,171.912 L37.328,171.912 L37.328,173.096 L42.72,173.096 Z M37.328,176.008 L37.328,178.6 L36.24,178.6 L36.24,170.968 L43.84,170.968 L43.84,177.192 C43.84,178.056 43.408,178.504 42.56,178.504 L41.024,178.504 L40.736,177.48 L42.224,177.528 C42.544,177.528 42.72,177.336 42.72,176.952 L42.72,176.008 L37.328,176.008 Z M54.336,170.456 L54.336,178.536 L53.296,178.536 L53.296,170.52 C52.864,171.96 52.304,173.272 51.632,174.456 L51.136,173.192 C52.128,171.72 52.832,170.024 53.248,168.12 L51.6,168.12 L51.6,167.112 L53.296,167.112 L53.296,163.992 L54.336,163.992 L54.336,167.112 L55.712,167.112 L55.712,168.12 L54.336,168.12 L54.336,169.224 C54.944,169.96 55.552,170.776 56.176,171.704 L55.552,172.632 C55.072,171.736 54.672,171.016 54.336,170.456 Z M50.96,165.096 L50.96,176.904 L49.936,176.904 L49.936,175.816 L48.224,175.816 L48.224,177.288 L47.184,177.288 L47.184,165.096 L50.96,165.096 Z M48.224,174.792 L49.936,174.792 L49.936,170.92 L48.224,170.92 L48.224,174.792 Z M48.224,169.896 L49.936,169.896 L49.936,166.12 L48.224,166.12 L48.224,169.896 Z M57.488,169.928 L57.488,171.272 C57.456,174.472 57.088,176.888 56.384,178.52 L55.376,178.024 C56.064,176.424 56.432,174.168 56.464,171.272 L56.464,164.984 C58.064,164.904 59.424,164.536 60.544,163.896 L61.104,164.856 C60.016,165.432 58.8,165.768 57.472,165.896 L57.488,168.808 L61.36,168.808 L61.36,169.928 L60.128,169.928 L60.128,178.52 L59.024,178.52 L59.024,169.928 L57.488,169.928 Z M65.28,163.768 L66.4,163.768 C65.744,164.824 65.232,165.928 64.88,167.08 C64.4,168.488 64.176,169.864 64.176,171.24 C64.176,172.6 64.4,173.992 64.88,175.4 C65.232,176.536 65.744,177.64 66.4,178.712 L65.28,178.712 C64.576,177.672 64.032,176.568 63.632,175.416 C63.152,174.04 62.928,172.648 62.928,171.256 C62.928,169.832 63.152,168.44 63.632,167.064 C64.032,165.896 64.576,164.792 65.28,163.768 Z M70.384,171.96 C69.776,172.6 69.088,173.24 68.352,173.88 L68,172.68 C70.144,170.84 71.584,169.048 72.304,167.288 L68.368,167.288 L68.368,166.184 L70.864,166.184 C70.592,165.464 70.272,164.776 69.904,164.104 L71.008,163.784 C71.392,164.584 71.696,165.336 71.92,166.008 L71.456,166.184 L73.456,166.184 L73.456,167.16 C73.04,168.328 72.4,169.48 71.536,170.616 C72.416,171.16 73.216,171.784 73.92,172.472 L73.264,173.464 C72.688,172.824 72.096,172.28 71.52,171.832 L71.52,178.6 L70.384,178.6 L70.384,171.96 Z M81.44,164.568 L81.44,173.416 L80.272,173.416 L80.272,165.672 L75.776,165.672 L75.776,173.416 L74.64,173.416 L74.64,164.568 L81.44,164.568 Z M81.104,178.344 L79.568,178.344 C78.688,178.344 78.256,177.88 78.256,176.952 L78.256,173.384 L79.376,173.384 L79.376,176.712 C79.376,177.096 79.552,177.288 79.904,177.288 L80.896,177.288 C81.136,177.288 81.296,177.192 81.392,177.032 C81.52,176.824 81.616,176.216 81.664,175.224 L82.736,175.56 C82.64,176.872 82.464,177.688 82.208,177.976 C81.968,178.216 81.6,178.344 81.104,178.344 Z M77.44,166.808 L78.56,166.808 L78.56,169.864 C78.496,172.264 78.08,174.168 77.312,175.592 C76.544,176.92 75.312,177.96 73.584,178.696 L72.96,177.688 C74.64,176.952 75.808,175.992 76.464,174.776 C77.072,173.528 77.408,171.88 77.44,169.864 L77.44,166.808 Z M95.648,169.752 L95.648,175.448 L94.544,175.448 L94.544,170.824 L88.112,170.824 L88.112,175.448 L87.008,175.448 L87.008,169.752 L95.648,169.752 Z M98.032,166.968 L98.032,170.184 L96.864,170.184 L96.864,168.088 L85.808,168.088 L85.808,170.168 L84.64,170.168 L84.64,166.968 L87.12,166.968 C86.688,166.152 86.24,165.432 85.776,164.792 L86.8,164.296 C87.312,165 87.792,165.784 88.24,166.632 L87.584,166.968 L93.712,166.968 C94.368,166.04 94.928,165.048 95.392,163.992 L96.528,164.408 C96.016,165.416 95.504,166.264 94.976,166.968 L98.032,166.968 Z M90.816,163.896 C91.264,164.616 91.68,165.4 92.096,166.248 L91.088,166.776 C90.672,165.88 90.24,165.096 89.792,164.392 L90.816,163.896 Z M90.512,171.896 L91.648,171.896 L91.648,173.624 C91.584,175 91.04,176.104 90.048,176.936 C89.056,177.704 87.44,178.296 85.2,178.728 L84.544,177.704 C86.768,177.32 88.32,176.824 89.2,176.184 C90.016,175.528 90.448,174.68 90.512,173.624 L90.512,171.896 Z M96.48,178.328 L93.28,178.328 C92.272,178.328 91.776,177.784 91.776,176.728 L91.776,173.816 L92.88,173.816 L92.88,176.504 C92.88,176.984 93.12,177.24 93.632,177.24 L96.272,177.24 C96.576,177.24 96.8,177.144 96.944,176.984 C97.104,176.76 97.216,176.136 97.28,175.112 L98.336,175.448 C98.24,176.808 98.032,177.64 97.728,177.944 C97.472,178.2 97.056,178.328 96.48,178.328 Z M104.512,170.056 L113.2,170.056 L113.2,171.08 L104.512,171.08 L104.512,170.056 Z M103.392,172.664 L114.24,172.664 L114.24,173.72 L108.112,173.72 C107.12,175.288 106.272,176.408 105.536,177.096 C107.632,176.936 109.712,176.712 111.76,176.408 C111.328,175.88 110.864,175.352 110.384,174.808 L111.232,174.28 C112.544,175.672 113.568,176.888 114.272,177.912 L113.344,178.568 C113.088,178.152 112.8,177.736 112.48,177.32 C109.936,177.672 107.152,177.944 104.144,178.136 L103.888,177.16 C103.984,177.128 104.064,177.08 104.128,177.048 C104.832,176.632 105.76,175.528 106.88,173.72 L103.392,173.72 L103.392,172.664 Z M112.288,165.64 L102.896,165.64 L102.896,167.496 L112.288,167.496 L112.288,165.64 Z M102.896,168.536 L102.896,169.864 C102.88,173.208 102.224,176.088 100.912,178.488 L100.08,177.736 C101.184,175.704 101.744,173.08 101.76,169.864 L101.76,164.568 L113.408,164.568 L113.408,168.536 L102.896,168.536 Z M116.256,163.768 L117.376,163.768 C118.064,164.792 118.608,165.896 119.024,167.064 C119.488,168.44 119.728,169.832 119.728,171.256 C119.728,172.648 119.488,174.04 119.024,175.416 C118.608,176.568 118.064,177.672 117.376,178.712 L116.256,178.712 C116.896,177.64 117.408,176.536 117.776,175.4 C118.24,173.992 118.48,172.6 118.48,171.24 C118.48,169.864 118.24,168.488 117.776,167.08 C117.408,165.928 116.896,164.824 116.256,163.768 Z M123.424,174.76 C124.032,175.192 124.656,175.72 125.264,176.36 C125.792,176.904 126.256,177.464 126.64,178.008 L125.84,178.68 C125.456,178.136 124.992,177.592 124.48,177.048 C123.888,176.408 123.296,175.88 122.704,175.432 L123.424,174.76 Z M139.312,167.304 L142.672,167.304 L142.672,166.232 L137.936,166.232 L137.936,165.24 L141.488,165.24 C141.264,164.792 141.024,164.376 140.768,163.992 L141.92,163.8 C142.144,164.216 142.384,164.696 142.608,165.24 L146.544,165.24 C146.832,164.776 147.04,164.296 147.184,163.816 L148.368,163.976 C148.208,164.424 148,164.84 147.744,165.24 L151.424,165.24 L151.424,166.232 L146.608,166.232 L146.608,167.304 L150,167.304 L150,173.608 L148.864,173.608 L148.864,174.6 L151.68,174.6 L151.68,175.608 L148.864,175.608 L148.864,177.016 C148.864,177.96 148.432,178.44 147.568,178.44 L145.344,178.44 L145.104,177.4 C145.84,177.448 146.528,177.48 147.184,177.48 C147.568,177.48 147.76,177.224 147.76,176.728 L147.76,175.608 L140.912,175.608 C142,176.216 142.912,176.84 143.648,177.464 L142.864,178.248 C142.208,177.64 141.296,176.984 140.144,176.28 L140.832,175.608 L137.6,175.608 L137.6,174.6 L147.76,174.6 L147.76,173.608 L139.312,173.608 L139.312,167.304 Z M145.52,167.304 L145.52,166.232 L143.744,166.232 L143.744,167.304 L145.52,167.304 Z M148.88,172.696 L148.88,171.784 L140.432,171.784 L140.432,172.696 L148.88,172.696 Z M140.432,170.92 L148.88,170.92 L148.88,170.056 L146.832,170.056 C145.952,170.056 145.52,169.672 145.52,168.936 L145.52,168.232 L143.632,168.232 C143.376,169.256 142.688,170.024 141.536,170.552 L140.752,169.848 C141.696,169.464 142.288,168.936 142.528,168.232 L140.432,168.232 L140.432,170.92 Z M146.608,168.232 L146.608,168.824 C146.608,169.096 146.784,169.24 147.136,169.24 L148.88,169.24 L148.88,168.232 L146.608,168.232 Z M156.752,164.04 L157.92,164.04 C157.92,166.52 157.792,168.68 157.536,170.52 C158.784,171.848 159.824,173.176 160.688,174.488 L159.824,175.368 C159.184,174.248 158.336,173.08 157.312,171.848 C156.816,174.536 155.712,176.728 153.984,178.456 L153.184,177.48 C154.688,175.928 155.696,173.976 156.176,171.624 C156.56,169.64 156.752,167.112 156.752,164.04 Z M163.008,164.024 L164.16,164.024 C164.16,165.624 164.096,167.112 163.984,168.456 C164.752,172.264 166.128,175.256 168.08,177.448 L167.248,178.44 C165.68,176.504 164.48,174.12 163.648,171.288 C163.616,171.448 163.6,171.608 163.568,171.768 C163.056,174.52 161.872,176.776 160.048,178.552 L159.248,177.576 C160.832,176.008 161.888,174.04 162.4,171.672 C162.784,169.672 162.992,167.128 163.008,164.024 Z M171.936,163.768 L173.056,163.768 C172.4,164.824 171.888,165.928 171.536,167.08 C171.056,168.488 170.832,169.864 170.832,171.24 C170.832,172.6 171.056,173.992 171.536,175.4 C171.888,176.536 172.4,177.64 173.056,178.712 L171.936,178.712 C171.232,177.672 170.688,176.568 170.288,175.416 C169.808,174.04 169.584,172.648 169.584,171.256 C169.584,169.832 169.808,168.44 170.288,167.064 C170.688,165.896 171.232,164.792 171.936,163.768 Z M174.912,165.832 L181.52,165.832 C181.232,165.176 180.912,164.584 180.56,164.04 L181.84,163.816 C182.16,164.424 182.48,165.096 182.768,165.832 L189.072,165.832 L189.072,166.936 L174.912,166.936 L174.912,165.832 Z M184.512,167.416 C186.288,168.824 187.776,170.216 188.976,171.624 L188.128,172.472 C187.072,171.128 185.6,169.704 183.728,168.168 L184.512,167.416 Z M184.672,170.408 L185.728,170.872 C184.96,172.344 184.032,173.608 182.928,174.68 C184.656,175.928 186.752,176.856 189.248,177.496 L188.528,178.568 C185.936,177.832 183.776,176.808 182.048,175.464 C180.256,176.904 178.08,177.96 175.52,178.632 L174.816,177.576 C177.344,176.936 179.44,175.976 181.12,174.696 C179.952,173.64 178.992,172.424 178.24,171.08 L179.232,170.52 C179.936,171.832 180.864,172.968 182,173.944 C183.088,172.92 183.984,171.752 184.672,170.408 Z M179.36,167.432 L180.192,168.168 C178.976,169.752 177.472,171.144 175.68,172.328 L174.944,171.352 C176.688,170.232 178.16,168.936 179.36,167.432 Z M191.168,164.616 L204.768,164.616 L204.768,165.736 L196.352,165.736 L195.696,168.376 L202.608,168.376 L201.328,176.92 L205.184,176.92 L205.184,178.04 L190.88,178.04 L190.88,176.92 L200.192,176.92 L200.64,174.104 L193.12,174.104 L195.184,165.736 L191.168,165.736 L191.168,164.616 Z M200.816,173.032 L201.376,169.448 L195.424,169.448 L194.528,173.032 L200.816,173.032 Z M211.168,170.056 L219.856,170.056 L219.856,171.08 L211.168,171.08 L211.168,170.056 Z M210.048,172.664 L220.896,172.664 L220.896,173.72 L214.768,173.72 C213.776,175.288 212.928,176.408 212.192,177.096 C214.288,176.936 216.368,176.712 218.416,176.408 C217.984,175.88 217.52,175.352 217.04,174.808 L217.888,174.28 C219.2,175.672 220.224,176.888 220.928,177.912 L220,178.568 C219.744,178.152 219.456,177.736 219.136,177.32 C216.592,177.672 213.808,177.944 210.8,178.136 L210.544,177.16 C210.64,177.128 210.72,177.08 210.784,177.048 C211.488,176.632 212.416,175.528 213.536,173.72 L210.048,173.72 L210.048,172.664 Z M218.944,165.64 L209.552,165.64 L209.552,167.496 L218.944,167.496 L218.944,165.64 Z M209.552,168.536 L209.552,169.864 C209.536,173.208 208.88,176.088 207.568,178.488 L206.736,177.736 C207.84,175.704 208.4,173.08 208.416,169.864 L208.416,164.568 L220.064,164.568 L220.064,168.536 L209.552,168.536 Z M222.912,163.768 L224.032,163.768 C224.72,164.792 225.264,165.896 225.68,167.064 C226.144,168.44 226.384,169.832 226.384,171.256 C226.384,172.648 226.144,174.04 225.68,175.416 C225.264,176.568 224.72,177.672 224.032,178.712 L222.912,178.712 C223.552,177.64 224.064,176.536 224.432,175.4 C224.896,173.992 225.136,172.6 225.136,171.24 C225.136,169.864 224.896,168.488 224.432,167.08 C224.064,165.928 223.552,164.824 222.912,163.768 Z M230.08,174.76 C230.688,175.192 231.312,175.72 231.92,176.36 C232.448,176.904 232.912,177.464 233.296,178.008 L232.496,178.68 C232.112,178.136 231.648,177.592 231.136,177.048 C230.544,176.408 229.952,175.88 229.36,175.432 L230.08,174.76 Z M251.92,166.712 L252.896,167.096 C252.128,168.584 251.104,169.72 249.856,170.504 L249.008,169.784 C250.304,169.016 251.28,167.992 251.92,166.712 Z M254.704,166.616 C255.968,167.816 256.944,168.872 257.616,169.768 L256.688,170.408 C256,169.416 255.056,168.344 253.84,167.16 L254.704,166.616 Z M245.312,164.184 C246.48,164.984 247.472,165.8 248.288,166.6 L247.504,167.384 C246.784,166.616 245.792,165.8 244.528,164.936 L245.312,164.184 Z M244.928,167.928 C246.048,168.744 246.976,169.56 247.744,170.376 L246.976,171.144 C246.304,170.376 245.36,169.56 244.16,168.696 L244.928,167.928 Z M247.216,172.392 L248.16,172.776 C247.376,174.776 246.496,176.664 245.536,178.424 L244.464,177.96 C245.52,176.152 246.432,174.296 247.216,172.392 Z M251.76,172.664 L248.752,172.664 L248.752,171.624 L252.912,171.624 L252.912,169.832 L254.032,169.832 L254.032,171.624 L258.224,171.624 L258.224,172.664 L255.168,172.664 C255.872,174.136 257.072,175.448 258.768,176.616 L258.032,177.528 C256.272,176.072 255.04,174.456 254.336,172.664 L254.032,172.664 L254.032,178.536 L252.912,178.536 L252.912,172.664 L252.624,172.664 C251.776,174.696 250.368,176.36 248.4,177.672 L247.808,176.696 C249.616,175.64 250.928,174.296 251.76,172.664 Z M257.92,164.584 L257.92,167.576 L256.832,167.576 L256.832,165.64 L250.128,165.64 L250.128,167.64 L249.04,167.64 L249.04,164.584 L257.92,164.584 Z M263.488,172.728 L272.864,172.728 L272.864,173.576 C271.968,174.664 270.88,175.608 269.584,176.376 C271.024,176.984 272.688,177.416 274.592,177.672 L274.096,178.664 C271.888,178.296 270.016,177.736 268.496,176.968 C266.88,177.736 265.008,178.312 262.896,178.664 L262.4,177.656 C264.256,177.384 265.92,176.952 267.36,176.344 C266.176,175.608 265.2,174.728 264.464,173.72 L263.488,173.72 L263.488,172.728 Z M265.68,173.72 C266.416,174.552 267.328,175.256 268.432,175.832 C269.552,175.24 270.528,174.536 271.36,173.72 L265.68,173.72 Z M262.56,169.144 L262.56,170.392 C262.496,173.784 261.92,176.504 260.832,178.552 L259.968,177.784 C260.896,176.008 261.376,173.544 261.408,170.392 L261.408,165.176 L267.568,165.176 C267.376,164.76 267.184,164.392 266.96,164.04 L268.176,163.848 C268.368,164.248 268.56,164.696 268.736,165.176 L274.224,165.176 L274.224,166.264 L262.56,166.264 L262.56,168.088 L265.248,168.088 L265.248,166.792 L266.368,166.792 L266.368,168.088 L270.608,168.088 L270.608,166.776 L271.728,166.776 L271.728,168.088 L274.192,168.088 L274.192,169.144 L271.728,169.144 L271.728,171.64 L265.248,171.64 L265.248,169.144 L262.56,169.144 Z M266.368,169.144 L266.368,170.664 L270.608,170.664 L270.608,169.144 L266.368,169.144 Z M278.592,163.768 L279.712,163.768 C279.056,164.824 278.544,165.928 278.192,167.08 C277.712,168.488 277.488,169.864 277.488,171.24 C277.488,172.6 277.712,173.992 278.192,175.4 C278.544,176.536 279.056,177.64 279.712,178.712 L278.592,178.712 C277.888,177.672 277.344,176.568 276.944,175.416 C276.464,174.04 276.24,172.648 276.24,171.256 C276.24,169.832 276.464,168.44 276.944,167.064 C277.344,165.896 277.888,164.792 278.592,163.768 Z M287.232,175.4 L287.232,176.488 C285.6,177.08 283.76,177.56 281.68,177.944 L281.536,176.824 C283.712,176.472 285.6,175.992 287.232,175.4 Z M284.272,163.88 L285.344,164.296 C284.528,166.376 283.696,168.04 282.864,169.288 C283.616,169.192 284.368,169.08 285.136,168.952 C285.44,168.376 285.76,167.784 286.08,167.176 L287.088,167.544 C285.632,170.248 284.416,172.168 283.44,173.32 C284.656,173.08 285.856,172.76 287.04,172.36 L287.04,173.384 C285.312,173.976 283.648,174.376 282.048,174.584 L281.744,173.544 C281.952,173.448 282.128,173.336 282.272,173.208 C282.88,172.584 283.632,171.528 284.528,170.024 C283.616,170.168 282.704,170.296 281.776,170.424 L281.488,169.368 C281.664,169.288 281.824,169.144 281.968,168.936 C282.864,167.464 283.632,165.784 284.272,163.88 Z M287.04,165.912 L290.864,165.912 L290.864,163.976 L292.032,163.976 L292.032,165.912 L295.84,165.912 L295.84,167.032 L292.032,167.032 L292.032,169.4 L295.376,169.4 L295.376,170.52 L287.568,170.52 L287.568,169.4 L290.864,169.4 L290.864,167.032 L287.04,167.032 L287.04,165.912 Z M294.912,172.12 L294.912,178.552 L293.792,178.552 L293.792,177.784 L289.216,177.784 L289.216,178.552 L288.08,178.552 L288.08,172.12 L294.912,172.12 Z M289.216,176.696 L293.792,176.696 L293.792,173.208 L289.216,173.208 L289.216,176.696 Z M305.04,163.912 L306.176,164.056 C306.048,164.824 305.888,165.56 305.696,166.264 L311.312,166.264 C311.312,171.8 311.216,175.224 311.056,176.504 C310.864,177.8 310.112,178.456 308.784,178.456 C308.448,178.456 307.872,178.44 307.056,178.408 L306.8,177.368 C307.504,177.4 308.096,177.432 308.608,177.432 C309.376,177.432 309.84,177 309.984,176.168 C310.128,175.24 310.208,172.296 310.224,167.336 L305.36,167.336 C304.912,168.568 304.368,169.672 303.728,170.632 L302.992,169.672 C303.984,168.104 304.672,166.184 305.04,163.912 Z M303.728,175.144 L303.52,174.2 C303.968,173.96 304.752,172.248 305.888,169.048 L306.896,169.416 C306.112,171.544 305.488,173.032 305.024,173.88 C305.984,173.688 306.864,173.496 307.632,173.304 C307.408,172.632 307.168,172.024 306.944,171.48 L307.904,171.144 C308.448,172.392 308.928,173.736 309.344,175.16 L308.336,175.608 C308.192,175.096 308.048,174.616 307.92,174.168 C306.704,174.504 305.296,174.824 303.728,175.144 Z M301.008,170.44 L301.008,178.536 L299.872,178.536 L299.872,170.392 C299.328,172.024 298.624,173.496 297.728,174.824 L297.232,173.576 C298.432,171.992 299.28,170.184 299.792,168.168 L297.552,168.168 L297.552,167.064 L299.872,167.064 L299.872,163.944 L301.008,163.944 L301.008,167.064 L302.976,167.064 L302.976,168.168 L301.008,168.168 L301.008,169.176 C301.744,169.944 302.496,170.792 303.264,171.736 L302.624,172.712 C302,171.784 301.456,171.016 301.008,170.44 Z M317.824,170.056 L326.512,170.056 L326.512,171.08 L317.824,171.08 L317.824,170.056 Z M316.704,172.664 L327.552,172.664 L327.552,173.72 L321.424,173.72 C320.432,175.288 319.584,176.408 318.848,177.096 C320.944,176.936 323.024,176.712 325.072,176.408 C324.64,175.88 324.176,175.352 323.696,174.808 L324.544,174.28 C325.856,175.672 326.88,176.888 327.584,177.912 L326.656,178.568 C326.4,178.152 326.112,177.736 325.792,177.32 C323.248,177.672 320.464,177.944 317.456,178.136 L317.2,177.16 C317.296,177.128 317.376,177.08 317.44,177.048 C318.144,176.632 319.072,175.528 320.192,173.72 L316.704,173.72 L316.704,172.664 Z M325.6,165.64 L316.208,165.64 L316.208,167.496 L325.6,167.496 L325.6,165.64 Z M316.208,168.536 L316.208,169.864 C316.192,173.208 315.536,176.088 314.224,178.488 L313.392,177.736 C314.496,175.704 315.056,173.08 315.072,169.864 L315.072,164.568 L326.72,164.568 L326.72,168.536 L316.208,168.536 Z M329.568,163.768 L330.688,163.768 C331.376,164.792 331.92,165.896 332.336,167.064 C332.8,168.44 333.04,169.832 333.04,171.256 C333.04,172.648 332.8,174.04 332.336,175.416 C331.92,176.568 331.376,177.672 330.688,178.712 L329.568,178.712 C330.208,177.64 330.72,176.536 331.088,175.4 C331.552,173.992 331.792,172.6 331.792,171.24 C331.792,169.864 331.552,168.488 331.088,167.08 C330.72,165.928 330.208,164.824 329.568,163.768 Z" id="iOS与其他平台区分三个主要主题：清晰(视觉层)、尊从(交互层)、深度(结构层)" fill="#A8B2BA" fill-rule="nonzero"></path>
            <path d="M33.042,216.51 C34.194,217.374 35.148,218.256 35.94,219.12 L34.77,220.308 C34.086,219.462 33.114,218.562 31.872,217.626 L33.042,216.51 Z M30.738,221.64 L34.77,221.64 L34.77,229.254 C35.328,228.786 35.922,228.246 36.57,227.634 L37.038,229.434 C35.868,230.514 34.626,231.486 33.312,232.332 L32.664,230.784 C32.952,230.532 33.114,230.208 33.114,229.83 L33.114,223.278 L30.738,223.278 L30.738,221.64 Z M37.164,223.782 L45.894,223.782 L45.894,225.348 C45.372,226.95 44.508,228.318 43.302,229.47 C44.454,230.226 45.858,230.91 47.478,231.486 L46.56,232.962 C44.76,232.242 43.266,231.414 42.042,230.514 C40.638,231.522 38.892,232.332 36.84,232.944 L35.886,231.504 C37.794,230.946 39.396,230.244 40.692,229.38 C39.468,228.192 38.622,226.878 38.19,225.438 L37.164,225.438 L37.164,223.782 Z M39.792,225.438 C40.206,226.536 40.908,227.526 41.916,228.426 C42.888,227.544 43.644,226.554 44.166,225.438 L39.792,225.438 Z M38.424,216.834 L44.796,216.834 L44.796,220.614 C44.796,221.01 45.012,221.226 45.462,221.226 L47.046,221.226 L47.046,222.792 L45.012,222.792 C43.734,222.792 43.104,222.18 43.104,220.992 L43.104,218.436 L40.116,218.436 L40.116,218.976 C40.116,220.848 39.162,222.306 37.272,223.332 L36.138,222.018 C37.65,221.334 38.424,220.38 38.424,219.156 L38.424,216.834 Z M54.39,221.496 L59.106,221.496 L59.106,216.222 L60.87,216.222 L60.87,221.496 L65.334,221.496 L65.334,223.188 L60.87,223.188 L60.87,232.89 L59.106,232.89 L59.106,223.188 L54.39,223.188 L54.39,221.496 Z M51.114,216.384 C52.284,217.266 53.274,218.148 54.084,219.048 L52.914,220.236 C52.194,219.39 51.204,218.49 49.926,217.554 L51.114,216.384 Z M48.738,221.604 L52.896,221.604 L52.896,229.272 C53.472,228.804 54.066,228.264 54.696,227.67 L55.146,229.416 C53.994,230.496 52.752,231.468 51.438,232.314 L50.79,230.784 C51.096,230.532 51.258,230.226 51.258,229.866 L51.258,223.242 L48.738,223.242 L48.738,221.604 Z M71.382,219.894 L75.054,219.894 C75.198,219.444 75.306,218.994 75.396,218.526 L69.708,218.526 L69.708,223.872 C69.636,227.58 69.042,230.568 67.926,232.818 L66.63,231.666 C67.494,229.794 67.944,227.184 67.98,223.872 L67.98,216.852 L82.848,216.852 L82.848,218.526 L77.088,218.526 C76.98,218.994 76.872,219.462 76.728,219.894 L81.606,219.894 L81.606,227.058 L77.556,227.058 L77.556,231.162 C77.556,232.242 76.98,232.8 75.864,232.8 L74.046,232.8 L73.668,231.126 C74.226,231.198 74.766,231.234 75.27,231.234 C75.648,231.234 75.846,231.072 75.846,230.748 L75.846,227.058 L71.382,227.058 L71.382,219.894 Z M79.95,225.51 L79.95,224.178 L73.038,224.178 L73.038,225.51 L79.95,225.51 Z M73.038,222.72 L79.95,222.72 L79.95,221.442 L73.038,221.442 L73.038,222.72 Z M72.552,227.616 L74.046,228.336 C73.254,229.884 72.3,231.216 71.22,232.35 L69.798,231.342 C70.878,230.298 71.796,229.056 72.552,227.616 Z M80.292,227.598 C81.48,229.056 82.416,230.334 83.064,231.432 L81.642,232.404 C80.976,231.216 80.076,229.902 78.924,228.462 L80.292,227.598 Z M93.648,216.852 L93.648,228.174 L91.992,228.174 L91.992,218.49 L87.276,218.49 L87.276,228.336 L85.62,228.336 L85.62,216.852 L93.648,216.852 Z M91.308,228.588 C92.496,229.56 93.486,230.532 94.296,231.504 L93,232.782 C92.316,231.846 91.344,230.838 90.12,229.758 L91.308,228.588 Z M88.824,219.552 L90.48,219.552 L90.48,225.186 C90.408,227.31 89.976,229.002 89.22,230.262 C88.446,231.432 87.222,232.35 85.53,232.998 L84.558,231.468 C86.178,230.856 87.294,230.064 87.87,229.128 C88.446,228.12 88.752,226.806 88.824,225.186 L88.824,219.552 Z M95.34,217.806 L96.996,217.806 L96.996,228.93 L95.34,228.93 L95.34,217.806 Z M98.778,232.674 L96.312,232.674 L95.916,231.018 C96.708,231.072 97.464,231.108 98.184,231.108 C98.706,231.108 98.976,230.838 98.976,230.334 L98.976,216.294 L100.668,216.294 L100.668,230.766 C100.668,232.026 100.038,232.674 98.778,232.674 Z M33.92,260.504 L33.92,262.344 L37.472,262.344 L37.472,260.504 L33.92,260.504 Z M37.472,263.4 L33.92,263.4 L33.92,264.344 L32.8,264.344 L32.8,256.584 L37.472,256.584 L37.472,254.984 L38.624,254.984 L38.624,256.584 L43.344,256.584 L43.344,264.296 L42.224,264.296 L42.224,263.4 L38.624,263.4 L38.624,266.648 L37.472,266.648 L37.472,263.4 Z M38.624,262.344 L42.224,262.344 L42.224,260.504 L38.624,260.504 L38.624,262.344 Z M42.224,259.48 L42.224,257.64 L38.624,257.64 L38.624,259.48 L42.224,259.48 Z M37.472,257.64 L33.92,257.64 L33.92,259.48 L37.472,259.48 L37.472,257.64 Z M44.64,253.144 L44.64,255.944 L43.52,255.944 L43.52,254.184 L32.416,254.184 L32.416,256.024 L31.296,256.024 L31.296,253.144 L37.392,253.144 C37.232,252.728 37.072,252.344 36.896,251.992 L38.112,251.784 C38.272,252.184 38.416,252.632 38.576,253.144 L44.64,253.144 Z M47.536,253.544 L51.184,253.544 C50.96,253 50.704,252.504 50.416,252.056 L51.632,251.864 C51.888,252.36 52.128,252.92 52.368,253.544 L55.712,253.544 C55.984,252.984 56.192,252.408 56.32,251.832 L57.552,251.992 C57.392,252.536 57.184,253.048 56.912,253.544 L60.464,253.544 L60.464,254.6 L54.592,254.6 L54.592,256.12 L59.616,256.12 L59.616,257.144 L54.592,257.144 L54.592,258.696 L60.992,258.696 L60.992,259.752 L47.008,259.752 L47.008,258.696 L53.408,258.696 L53.408,257.144 L48.432,257.144 L48.432,256.12 L53.408,256.12 L53.408,254.6 L47.536,254.6 L47.536,253.544 Z M53.52,260.168 L54.704,260.296 C54.64,260.712 54.56,261.112 54.448,261.464 L60.64,261.464 L60.64,262.552 L55.04,262.552 C56.144,264.024 58.272,265.032 61.424,265.56 L60.816,266.648 C57.296,265.944 55.008,264.632 53.952,262.712 C53.6,263.384 53.136,263.96 52.592,264.472 C51.552,265.416 49.728,266.152 47.12,266.696 L46.64,265.576 C48.96,265.144 50.624,264.52 51.648,263.704 C52.064,263.368 52.4,262.984 52.672,262.552 L47.376,262.552 L47.376,261.464 L53.2,261.464 C53.344,261.048 53.456,260.616 53.52,260.168 Z M76.768,253.64 L76.768,257.224 L75.6,257.224 L75.6,254.76 L64.368,254.76 L64.368,257.224 L63.2,257.224 L63.2,253.64 L69.344,253.64 C69.152,253.096 68.96,252.6 68.736,252.152 L70.032,251.928 C70.24,252.44 70.448,253 70.64,253.64 L76.768,253.64 Z M65.488,256.616 L74.448,256.616 L74.448,257.736 L65.488,257.736 L65.488,256.616 Z M63.04,259.624 L76.976,259.624 L76.976,260.728 L72.448,260.728 L72.448,264.52 C72.448,265 72.672,265.256 73.136,265.256 L75.264,265.256 C75.552,265.256 75.744,265.144 75.856,264.936 C75.984,264.696 76.08,263.976 76.144,262.76 L77.232,263.112 C77.136,264.648 76.944,265.592 76.656,265.912 C76.4,266.2 76.016,266.36 75.472,266.36 L72.768,266.36 C71.776,266.36 71.296,265.816 71.296,264.76 L71.296,260.728 L68.608,260.728 L68.608,260.84 C68.56,262.408 68.128,263.672 67.328,264.632 C66.528,265.496 65.232,266.184 63.44,266.68 L62.784,265.656 C64.528,265.208 65.744,264.616 66.448,263.864 C67.088,263.096 67.424,262.088 67.472,260.84 L67.472,260.728 L63.04,260.728 L63.04,259.624 Z M79.44,254.472 L82.016,254.472 L82.016,253.576 L78.864,253.576 L78.864,252.68 L82.016,252.68 L82.016,251.928 L83.04,251.928 L83.04,252.68 L86.016,252.68 L86.016,253.576 L83.04,253.576 L83.04,254.472 L85.616,254.472 L85.616,257.256 L83.04,257.256 L83.04,257.512 C83.984,257.896 84.944,258.328 85.904,258.824 L85.312,259.704 C84.416,259.08 83.648,258.6 83.04,258.28 L83.04,259.928 L82.016,259.928 L82.016,258.104 C81.072,258.904 80.112,259.544 79.12,260.04 L78.624,259.112 C79.744,258.728 80.864,258.104 82,257.256 L79.44,257.256 L79.44,254.472 Z M84.688,256.472 L84.688,255.272 L83.04,255.272 L83.04,256.472 L84.688,256.472 Z M82.016,256.472 L82.016,255.272 L80.368,255.272 L80.368,256.472 L82.016,256.472 Z M88.128,254.232 C88.016,254.456 87.904,254.664 87.808,254.856 C88.272,255.784 88.88,256.552 89.616,257.192 L89.696,257.112 C90.32,256.392 90.736,255.432 90.928,254.232 L88.128,254.232 Z M88.816,257.832 C88.176,257.24 87.632,256.568 87.2,255.832 C86.976,256.136 86.736,256.424 86.496,256.696 L85.824,255.848 C86.816,254.76 87.488,253.416 87.84,251.848 L88.864,251.976 C88.768,252.424 88.64,252.84 88.512,253.24 L92.88,253.24 L92.88,254.232 L91.952,254.232 C91.728,255.672 91.248,256.84 90.512,257.736 L90.448,257.8 C91.232,258.312 92.128,258.728 93.152,259.032 L92.56,259.944 C91.44,259.592 90.48,259.112 89.648,258.504 C88.864,259.048 87.84,259.512 86.592,259.864 L86.192,258.92 C87.28,258.632 88.144,258.264 88.816,257.832 Z M85.312,261.48 L79.696,261.48 L79.696,260.472 L92.336,260.472 L92.336,261.48 L86.464,261.48 L86.464,262.84 L91.36,262.84 L91.36,263.832 L86.464,263.832 L86.464,265.224 L93.104,265.224 L93.104,266.248 L78.896,266.248 L78.896,265.224 L81.456,265.224 L81.456,262.216 L82.512,262.216 L82.512,265.224 L85.312,265.224 L85.312,261.48 Z M95.184,255.016 L96.096,255.08 C96.064,256.68 95.872,258.216 95.552,259.656 L94.608,259.384 C94.944,258.008 95.136,256.552 95.184,255.016 Z M99.2,254.68 C99.552,255.464 99.856,256.36 100.128,257.384 C100.672,255.992 100.992,254.504 101.072,252.92 L102.112,253.064 C102.08,253.736 102.016,254.376 101.92,254.984 L104.208,254.984 L104.208,251.992 L105.392,251.992 L105.392,254.984 L108.88,254.984 L108.88,256.088 L105.392,256.088 L105.392,259.96 L108.64,259.96 L108.64,261.096 L105.392,261.096 L105.392,265 L109.296,265 L109.296,266.12 L99.632,266.12 L99.632,265 L104.208,265 L104.208,261.096 L100.544,261.096 L100.544,259.96 L104.208,259.96 L104.208,256.088 L101.712,256.088 C101.424,257.256 100.992,258.344 100.432,259.336 L99.584,258.568 C99.76,258.216 99.92,257.88 100.064,257.56 L99.264,257.768 C99.024,256.792 98.72,255.848 98.352,254.952 L99.2,254.68 Z M96.912,251.976 L98.08,251.976 L98.08,266.536 L96.912,266.536 L96.912,251.976 Z M112.768,262.76 C113.376,263.192 114,263.72 114.608,264.36 C115.136,264.904 115.6,265.464 115.984,266.008 L115.184,266.68 C114.8,266.136 114.336,265.592 113.824,265.048 C113.232,264.408 112.64,263.88 112.048,263.432 L112.768,262.76 Z M126.8,258.552 L141.184,258.552 L141.184,259.704 L126.8,259.704 L126.8,258.552 Z M152.192,255.48 C152.112,255.768 152.032,256.056 151.968,256.344 C152.384,258.232 152.944,259.848 153.632,261.224 C154.368,259.576 154.752,257.656 154.816,255.48 L152.192,255.48 Z M153.072,262.328 C152.416,261.08 151.872,259.672 151.424,258.088 C151.104,258.92 150.768,259.64 150.384,260.28 L149.648,259.384 C150.672,257.528 151.36,255.048 151.712,251.912 L152.784,252.104 C152.688,252.904 152.56,253.656 152.432,254.376 L156.976,254.376 L156.976,255.48 L155.888,255.48 C155.792,258.168 155.264,260.456 154.272,262.344 C155.136,263.752 156.176,264.856 157.376,265.624 L156.72,266.568 C155.536,265.768 154.528,264.696 153.68,263.352 C152.784,264.696 151.648,265.816 150.256,266.712 L149.648,265.752 C151.104,264.856 152.24,263.72 153.072,262.328 Z M149.456,263.8 L149.456,264.904 C147.472,265.416 145.328,265.832 143.04,266.168 L142.768,265.08 C143.76,264.952 144.72,264.808 145.664,264.648 L145.664,261.768 L143.264,261.768 L143.264,260.648 L145.664,260.648 L145.664,258.632 L146.768,258.632 L146.768,260.648 L149.104,260.648 L149.104,261.768 L146.768,261.768 L146.768,264.44 C147.68,264.248 148.576,264.024 149.456,263.8 Z M142.736,252.6 L149.6,252.6 L149.6,253.688 L146.576,253.688 C145.792,255.336 145.104,256.52 144.528,257.256 C145.696,257.16 146.848,257.048 147.968,256.888 C147.68,256.232 147.376,255.64 147.088,255.096 L148.064,254.792 C148.688,255.896 149.232,257.08 149.696,258.328 L148.72,258.76 C148.592,258.424 148.48,258.104 148.352,257.8 C146.752,258.008 145.04,258.168 143.184,258.296 L142.928,257.288 C143.024,257.256 143.104,257.224 143.152,257.192 C143.728,256.76 144.496,255.592 145.424,253.688 L142.736,253.688 L142.736,252.6 Z M159.184,255.016 L160.096,255.08 C160.064,256.68 159.872,258.216 159.552,259.656 L158.608,259.384 C158.944,258.008 159.136,256.552 159.184,255.016 Z M163.2,254.68 C163.552,255.464 163.856,256.36 164.128,257.384 C164.672,255.992 164.992,254.504 165.072,252.92 L166.112,253.064 C166.08,253.736 166.016,254.376 165.92,254.984 L168.208,254.984 L168.208,251.992 L169.392,251.992 L169.392,254.984 L172.88,254.984 L172.88,256.088 L169.392,256.088 L169.392,259.96 L172.64,259.96 L172.64,261.096 L169.392,261.096 L169.392,265 L173.296,265 L173.296,266.12 L163.632,266.12 L163.632,265 L168.208,265 L168.208,261.096 L164.544,261.096 L164.544,259.96 L168.208,259.96 L168.208,256.088 L165.712,256.088 C165.424,257.256 164.992,258.344 164.432,259.336 L163.584,258.568 C163.76,258.216 163.92,257.88 164.064,257.56 L163.264,257.768 C163.024,256.792 162.72,255.848 162.352,254.952 L163.2,254.68 Z M160.912,251.976 L162.08,251.976 L162.08,266.536 L160.912,266.536 L160.912,251.976 Z M176.768,262.76 C177.376,263.192 178,263.72 178.608,264.36 C179.136,264.904 179.6,265.464 179.984,266.008 L179.184,266.68 C178.8,266.136 178.336,265.592 177.824,265.048 C177.232,264.408 176.64,263.88 176.048,263.432 L176.768,262.76 Z M191.216,253.384 L197.392,253.384 C197.456,252.872 197.52,252.376 197.568,251.88 L198.736,252.04 C198.688,252.504 198.64,252.952 198.576,253.384 L204.784,253.384 L204.784,254.488 L198.4,254.488 C198.32,254.952 198.224,255.4 198.128,255.816 L202.736,255.816 L202.736,265.16 L205.104,265.16 L205.104,266.232 L190.912,266.232 L190.912,265.16 L193.2,265.16 L193.2,255.816 L196.944,255.816 C197.04,255.368 197.136,254.92 197.216,254.488 L191.216,254.488 L191.216,253.384 Z M194.336,265.16 L201.6,265.16 L201.6,263.752 L194.336,263.752 L194.336,265.16 Z M194.336,262.808 L201.6,262.808 L201.6,261.448 L194.336,261.448 L194.336,262.808 Z M194.336,260.52 L201.6,260.52 L201.6,259.176 L194.336,259.176 L194.336,260.52 Z M194.336,258.232 L201.6,258.232 L201.6,256.84 L194.336,256.84 L194.336,258.232 Z M214.464,254.632 C214.88,255.352 215.248,256.136 215.6,257 L217.168,257 C217.616,256.2 217.984,255.352 218.304,254.456 L219.392,254.84 C219.088,255.64 218.752,256.36 218.384,257 L220.976,257 L220.976,258.104 L212.048,258.104 L212.048,257 L214.496,257 C214.176,256.296 213.856,255.656 213.52,255.08 L214.464,254.632 Z M216.576,251.832 C216.752,252.28 216.928,252.792 217.104,253.352 L220.688,253.352 L220.688,254.408 L212.416,254.408 L212.416,253.352 L215.936,253.352 C215.76,252.872 215.568,252.424 215.376,252.024 L216.576,251.832 Z M208.592,266.456 L207.2,266.456 L206.96,265.336 C207.392,265.368 207.808,265.4 208.192,265.4 C208.608,265.4 208.832,265.192 208.832,264.776 L208.832,260.84 C208.192,261.096 207.536,261.336 206.88,261.544 L206.592,260.392 C207.344,260.2 208.096,259.96 208.832,259.672 L208.832,256.104 L206.88,256.104 L206.88,255 L208.832,255 L208.832,251.976 L210.016,251.976 L210.016,255 L211.344,255 L211.344,256.104 L210.016,256.104 L210.016,259.176 C210.464,258.952 210.912,258.728 211.36,258.488 L211.36,259.656 C210.912,259.896 210.464,260.12 210.016,260.328 L210.016,265.064 C210.016,265.992 209.536,266.456 208.592,266.456 Z M215.168,258.552 L216.272,258.68 C216.112,259.112 215.936,259.528 215.744,259.928 L221.232,259.928 L221.232,261.048 L219.472,261.048 C219.232,262.232 218.736,263.24 217.984,264.056 C219.072,264.568 220.128,265.112 221.136,265.688 L220.512,266.616 C219.552,266.024 218.448,265.432 217.168,264.824 C216.112,265.592 214.432,266.216 212.128,266.664 L211.68,265.624 C213.536,265.288 214.976,264.84 215.968,264.264 C214.992,263.816 213.952,263.384 212.832,262.936 C213.264,262.28 213.648,261.656 213.984,261.048 L211.84,261.048 L211.84,259.928 L214.576,259.928 C214.8,259.448 214.992,259 215.168,258.552 Z M218.384,261.048 L215.152,261.048 C214.864,261.544 214.56,262.024 214.24,262.472 C215.168,262.824 216.064,263.192 216.928,263.576 C217.648,262.904 218.128,262.072 218.384,261.048 Z M230.336,262.264 L227.456,262.264 L227.456,261.224 L231.648,261.224 L231.648,260.264 L232.752,260.264 L232.752,261.224 L236.944,261.224 L236.944,262.264 L234,262.264 C234.704,263.32 235.84,264.248 237.408,265.08 L236.656,266.008 C234.96,264.888 233.744,263.64 233.04,262.264 L232.752,262.264 L232.752,266.552 L231.648,266.552 L231.648,262.264 L231.328,262.264 C230.544,263.784 229.296,265.048 227.568,266.056 L226.976,265.064 C228.496,264.328 229.616,263.384 230.336,262.264 Z M227.36,258.552 L227.36,259.688 C226.848,259.96 226.336,260.216 225.824,260.44 L225.824,265.144 C225.824,266.008 225.376,266.456 224.496,266.456 L223.216,266.456 L222.976,265.352 C223.36,265.4 223.744,265.432 224.096,265.432 C224.48,265.432 224.672,265.24 224.672,264.856 L224.672,260.92 C224.128,261.144 223.568,261.336 223.008,261.512 L222.736,260.36 C223.408,260.2 224.048,260.008 224.672,259.784 L224.672,256.104 L222.88,256.104 L222.88,255 L224.672,255 L224.672,251.992 L225.824,251.992 L225.824,255 L227.504,255 L227.504,256.104 L225.824,256.104 L225.824,259.32 C226.336,259.08 226.848,258.824 227.36,258.552 Z M229.136,252.504 L235.264,252.504 L235.264,255.768 L229.136,255.768 L229.136,252.504 Z M234.208,254.856 L234.208,253.416 L230.176,253.416 L230.176,254.856 L234.208,254.856 Z M227.824,256.728 L231.728,256.728 L231.728,259.896 L227.824,259.896 L227.824,256.728 Z M230.784,259.064 L230.784,257.56 L228.784,257.56 L228.784,259.064 L230.784,259.064 Z M232.672,256.728 L236.608,256.728 L236.608,259.896 L232.672,259.896 L232.672,256.728 Z M235.664,259.064 L235.664,257.56 L233.616,257.56 L233.616,259.064 L235.664,259.064 Z M246.128,259.512 L246.096,259.816 C245.744,262.568 244.928,264.824 243.648,266.584 L242.912,265.672 C243.984,264.104 244.704,262.136 245.056,259.768 C245.312,257.768 245.456,255.224 245.472,252.136 L246.528,252.136 C246.528,254.504 246.432,256.568 246.256,258.36 C246.96,259.128 247.664,259.992 248.4,260.952 L247.728,261.976 C247.104,260.952 246.576,260.12 246.128,259.512 Z M249.504,252.008 L250.56,252.008 C250.56,253.848 250.496,255.512 250.4,257.016 C251.008,260.632 252,263.512 253.408,265.64 L252.624,266.552 C251.536,264.696 250.704,262.456 250.112,259.816 C249.712,262.568 248.832,264.824 247.456,266.6 L246.736,265.704 C247.904,264.12 248.672,262.136 249.056,259.736 C249.344,257.704 249.488,255.128 249.504,252.008 Z M243.216,263.08 L243.216,264.184 C241.92,264.76 240.448,265.224 238.8,265.576 L238.656,264.456 C240.384,264.104 241.904,263.64 243.216,263.08 Z M241.504,251.96 L242.56,252.376 C241.776,254.376 240.976,255.976 240.176,257.176 C240.832,257.112 241.488,257.016 242.16,256.888 C242.448,256.312 242.752,255.72 243.056,255.096 L244.048,255.464 C242.704,258.088 241.584,259.96 240.688,261.112 C241.68,260.888 242.688,260.584 243.68,260.2 L243.68,261.224 C242.144,261.8 240.672,262.2 239.264,262.424 L238.96,261.384 C239.168,261.288 239.344,261.176 239.488,261.048 C240.064,260.44 240.784,259.384 241.616,257.88 C240.784,258.04 239.936,258.2 239.104,258.328 L238.816,257.256 C238.992,257.176 239.152,257.032 239.312,256.808 C240.144,255.4 240.88,253.784 241.504,251.96 Z M256.768,262.76 C257.376,263.192 258,263.72 258.608,264.36 C259.136,264.904 259.6,265.464 259.984,266.008 L259.184,266.68 C258.8,266.136 258.336,265.592 257.824,265.048 C257.232,264.408 256.64,263.88 256.048,263.432 L256.768,262.76 Z M275.152,257.88 L274.016,257.88 L274.016,258.04 C273.904,261.592 273.088,264.44 271.568,266.552 L270.752,265.704 C272.064,263.848 272.768,261.304 272.864,258.04 L272.864,253.096 C276.864,253.048 280.464,252.712 283.664,252.088 L284.208,253.08 C281.168,253.656 277.776,253.992 274.016,254.088 L274.016,256.792 L283.648,256.792 L283.648,257.816 C283.04,259.864 281.92,261.624 280.304,263.096 C281.68,264.056 283.344,264.904 285.296,265.64 L284.672,266.648 C282.592,265.816 280.864,264.856 279.472,263.8 C278,264.936 276.176,265.88 274.032,266.648 L273.392,265.672 C275.44,264.968 277.168,264.088 278.56,263.064 C276.864,261.544 275.728,259.816 275.152,257.88 Z M279.392,262.392 C280.864,261.096 281.888,259.592 282.48,257.88 L276.24,257.88 C276.784,259.576 277.84,261.08 279.392,262.392 Z M293.136,252.808 L296.128,252.808 L296.128,251.912 L297.248,251.912 L297.248,252.808 L300.272,252.808 L300.272,255.944 L297.248,255.944 L297.248,256.952 L301.12,256.952 L301.12,257.944 L292.256,257.944 L292.256,256.952 L296.128,256.952 L296.128,255.944 L293.136,255.944 L293.136,252.808 Z M299.264,255.032 L299.264,253.736 L297.248,253.736 L297.248,255.032 L299.264,255.032 Z M296.128,255.032 L296.128,253.736 L294.144,253.736 L294.144,255.032 L296.128,255.032 Z M300.08,259 L300.08,263.752 L299.008,263.752 L299.008,259.96 L294.24,259.96 L294.24,263.752 L293.168,263.752 L293.168,259 L300.08,259 Z M297.808,263.816 C299.056,264.312 300.208,264.92 301.248,265.656 L300.624,266.616 C299.52,265.784 298.384,265.128 297.232,264.648 L297.808,263.816 Z M296,260.584 L297.12,260.584 L297.12,262.152 C297.072,263.368 296.688,264.344 295.952,265.08 C295.248,265.752 294.08,266.296 292.464,266.68 L291.84,265.704 C293.392,265.384 294.48,264.936 295.104,264.392 C295.664,263.816 295.968,263.064 296,262.152 L296,260.584 Z M288.992,255.704 C288.544,257.016 287.968,258.12 287.28,259.016 L286.56,258.136 C287.616,256.632 288.32,254.6 288.704,252.04 L289.824,252.232 C289.68,253.096 289.504,253.896 289.312,254.648 L292.256,254.648 L292.256,255.544 C291.84,256.504 291.392,257.32 290.896,257.992 L290.064,257.336 C290.416,256.856 290.736,256.312 291.04,255.704 L288.992,255.704 Z M288.912,257.8 L290.016,257.8 L290.016,264.76 C290.688,264.392 291.36,263.896 292.048,263.272 L292.256,264.344 C291.328,265.112 290.24,265.752 289.008,266.248 L288.544,265.272 C288.784,265.128 288.912,264.92 288.912,264.632 L288.912,257.8 Z M304.768,262.76 C305.376,263.192 306,263.72 306.608,264.36 C307.136,264.904 307.6,265.464 307.984,266.008 L307.184,266.68 C306.8,266.136 306.336,265.592 305.824,265.048 C305.232,264.408 304.64,263.88 304.048,263.432 L304.768,262.76 Z M321.408,257.512 L321.408,260.312 L325.472,260.312 L325.472,257.512 L321.408,257.512 Z M321.344,261.368 C321.168,263.416 320.576,265.112 319.552,266.456 L318.672,265.672 C319.696,264.248 320.224,262.44 320.256,260.248 L320.256,252.568 L332.176,252.568 L332.176,264.552 C332.176,265.672 331.616,266.232 330.496,266.232 L328.656,266.232 L328.352,265.096 C328.992,265.128 329.584,265.16 330.128,265.16 C330.704,265.16 331.008,264.824 331.008,264.152 L331.008,261.368 L326.656,261.368 L326.656,266.056 L325.472,266.056 L325.472,261.368 L321.344,261.368 Z M331.008,260.312 L331.008,257.512 L326.656,257.512 L326.656,260.312 L331.008,260.312 Z M331.008,256.44 L331.008,253.688 L326.656,253.688 L326.656,256.44 L331.008,256.44 Z M325.472,253.688 L321.408,253.688 L321.408,256.44 L325.472,256.44 L325.472,253.688 Z M346.784,255.032 L337.648,255.032 L337.648,258.152 L346.784,258.152 L346.784,255.032 Z M337.648,259.272 C337.568,262.136 336.816,264.6 335.376,266.664 L334.528,265.896 C335.824,264.104 336.48,261.768 336.512,258.904 L336.512,253.896 L341.728,253.896 C341.44,253.224 341.136,252.6 340.8,252.024 L342.032,251.832 C342.32,252.44 342.608,253.128 342.896,253.896 L347.952,253.896 L347.952,259.272 L337.648,259.272 Z M359.904,261.464 L356.176,261.464 L356.176,260.392 L364.72,260.392 L364.72,261.464 L361.056,261.464 L361.056,264.968 L365.312,264.968 L365.312,266.088 L355.536,266.088 L355.536,264.968 L359.904,264.968 L359.904,261.464 Z M352.608,266.456 L351.2,266.456 L350.96,265.336 C351.392,265.368 351.808,265.4 352.208,265.4 C352.624,265.4 352.832,265.192 352.832,264.776 L352.832,260.84 C352.192,261.08 351.552,261.304 350.912,261.512 L350.624,260.36 C351.376,260.168 352.112,259.944 352.832,259.688 L352.832,256.104 L350.88,256.104 L350.88,255 L352.832,255 L352.832,251.944 L354.016,251.944 L354.016,255 L355.344,255 L355.344,256.104 L354.016,256.104 L354.016,259.208 C354.496,258.984 354.96,258.76 355.408,258.52 L355.408,259.688 C354.944,259.912 354.48,260.136 354.016,260.344 L354.016,265.064 C354.016,265.992 353.536,266.456 352.608,266.456 Z M360.336,251.752 C360.608,252.328 360.88,252.968 361.136,253.688 L364.896,253.688 L364.896,256.712 L363.824,256.712 L363.824,254.728 L357.104,254.728 L357.104,256.712 L356.016,256.712 L356.016,253.688 L359.984,253.688 C359.728,253.048 359.456,252.456 359.168,251.944 L360.336,251.752 Z M358.848,255.72 L359.856,256.12 C359.12,257.704 358.16,258.92 356.96,259.752 L356.128,259.032 C357.328,258.2 358.24,257.096 358.848,255.72 Z M361.936,255.688 C362.928,256.712 363.808,257.864 364.576,259.112 L363.568,259.624 C362.784,258.312 361.92,257.128 360.96,256.104 L361.936,255.688 Z M368.496,255.032 C368.208,255.672 367.872,256.2 367.488,256.616 L366.56,255.944 C367.36,255.08 367.872,253.896 368.096,252.376 L369.184,252.552 C369.104,253.064 369.008,253.528 368.88,253.96 L370.736,253.96 L370.736,251.976 L371.888,251.976 L371.888,253.96 L374.88,253.96 L374.88,255.032 L371.888,255.032 L371.888,257.096 L375.344,257.096 L375.344,258.168 L371.888,258.168 L371.888,259.848 L375.008,259.848 L375.008,264.072 C375.008,265.016 374.528,265.496 373.568,265.496 L372.72,265.496 L372.432,264.408 L373.216,264.456 C373.664,264.456 373.904,264.248 373.904,263.832 L373.904,260.92 L371.888,260.92 L371.888,266.616 L370.736,266.616 L370.736,260.92 L368.704,260.92 L368.704,265.608 L367.584,265.608 L367.584,259.848 L370.736,259.848 L370.736,258.168 L366.864,258.168 L366.864,257.096 L370.736,257.096 L370.736,255.032 L368.496,255.032 Z M376.288,253.416 L377.408,253.416 L377.408,263.304 L376.288,263.304 L376.288,253.416 Z M379.216,266.456 L376.864,266.456 L376.608,265.352 C377.376,265.4 378.112,265.432 378.816,265.432 C379.296,265.432 379.552,265.176 379.552,264.664 L379.552,251.976 L380.688,251.976 L380.688,264.952 C380.688,265.944 380.192,266.456 379.216,266.456 Z" id="设计原则审美完整性、一致性、直接操纵、反馈、用户控制" fill="#A8B2BA" fill-rule="nonzero"></path>
            <path d="M33.542,330.74 C34.004,331.454 34.438,332.238 34.858,333.106 L33.99,333.54 C33.584,332.644 33.136,331.86 32.66,331.16 L33.542,330.74 Z M35.572,334.674 L30.896,334.674 L30.896,333.708 L36.482,333.708 L36.482,330.194 L31.442,330.194 L31.442,329.228 L36.482,329.228 L36.482,327.618 L37.518,327.618 L37.518,329.228 L42.67,329.228 L42.67,330.194 L37.518,330.194 L37.518,333.708 L38.918,333.708 C39.464,332.756 39.926,331.72 40.318,330.614 L41.298,330.964 C40.892,331.986 40.43,332.896 39.912,333.708 L43.076,333.708 L43.076,334.674 L38.4,334.674 C39.394,336.27 41.088,337.684 43.468,338.93 L42.782,339.798 C40.304,338.272 38.568,336.564 37.574,334.674 L37.518,334.674 L37.518,340.372 L36.482,340.372 L36.482,334.674 L36.398,334.674 C35.502,336.662 33.724,338.37 31.064,339.812 L30.504,338.916 C33.024,337.67 34.718,336.256 35.572,334.674 Z M45.61,327.842 C46.604,328.57 47.444,329.284 48.13,329.984 L47.444,330.67 C46.828,329.998 45.988,329.27 44.924,328.5 L45.61,327.842 Z M45.358,331.272 C46.282,331.972 47.066,332.658 47.696,333.344 L47.01,334.03 C46.45,333.372 45.68,332.672 44.672,331.93 L45.358,331.272 Z M46.982,335.052 L47.85,335.388 C47.234,337.152 46.534,338.804 45.764,340.358 L44.826,339.938 C45.666,338.342 46.38,336.718 46.982,335.052 Z M50.734,330.348 L52.722,330.348 C52.89,329.914 53.016,329.48 53.114,329.032 L49.74,329.032 L49.74,333.106 C49.684,336.13 49.152,338.566 48.144,340.386 L47.388,339.714 C48.256,338.132 48.718,335.934 48.76,333.106 L48.76,328.122 L57.16,328.122 L57.16,329.032 L54.066,329.032 C53.968,329.494 53.842,329.928 53.688,330.348 L56.418,330.348 L56.418,335.262 L54.094,335.262 L54.094,339.224 C54.094,339.98 53.716,340.358 52.988,340.358 L51.812,340.358 L51.602,339.448 C51.966,339.49 52.316,339.518 52.652,339.518 C52.96,339.518 53.128,339.336 53.128,338.986 L53.128,335.262 L50.734,335.262 L50.734,330.348 Z M55.522,334.45 L55.522,333.19 L51.63,333.19 L51.63,334.45 L55.522,334.45 Z M51.63,332.434 L55.522,332.434 L55.522,331.146 L51.63,331.146 L51.63,332.434 Z M51.084,336.256 L51.98,336.452 C51.616,337.684 51.112,338.762 50.468,339.672 L49.656,339.168 C50.314,338.286 50.79,337.32 51.084,336.256 Z M55.844,336.186 C56.418,337.152 56.922,338.188 57.342,339.28 L56.488,339.658 C56.04,338.454 55.536,337.404 55.004,336.48 L55.844,336.186 Z M61.5,330.474 C61.738,330.474 61.948,330.558 62.116,330.74 C62.284,330.894 62.368,331.09 62.368,331.342 C62.368,331.58 62.284,331.776 62.116,331.944 C61.948,332.112 61.738,332.196 61.5,332.196 C61.248,332.196 61.052,332.112 60.884,331.944 C60.716,331.776 60.646,331.58 60.646,331.342 C60.646,331.09 60.716,330.894 60.884,330.74 C61.052,330.558 61.248,330.474 61.5,330.474 Z M61.5,335.598 C61.738,335.598 61.948,335.682 62.116,335.864 C62.284,336.018 62.368,336.214 62.368,336.466 C62.368,336.704 62.284,336.9 62.116,337.068 C61.948,337.236 61.738,337.32 61.5,337.32 C61.248,337.32 61.052,337.236 60.884,337.068 C60.716,336.9 60.646,336.704 60.646,336.466 C60.646,336.214 60.716,336.018 60.884,335.864 C61.052,335.682 61.248,335.598 61.5,335.598 Z M72.868,328.808 L73.988,328.808 L73.988,332.952 C74.24,332.49 74.576,332.14 74.996,331.902 C75.388,331.678 75.822,331.566 76.312,331.566 C77.152,331.566 77.81,331.804 78.258,332.308 C78.706,332.798 78.93,333.512 78.93,334.436 L78.93,339 L77.81,339 L77.81,334.604 C77.81,333.932 77.642,333.414 77.334,333.05 C76.998,332.686 76.536,332.504 75.934,332.504 C75.374,332.504 74.912,332.728 74.548,333.176 C74.17,333.624 73.988,334.198 73.988,334.87 L73.988,339 L72.868,339 L72.868,328.808 Z M82.584,329.424 L82.584,331.762 L84.376,331.762 L84.376,332.7 L82.584,332.7 L82.584,337.306 C82.584,337.572 82.626,337.768 82.738,337.88 C82.836,337.992 83.018,338.062 83.27,338.062 L84.194,338.062 L84.194,339 L83.102,339 C82.514,339 82.08,338.846 81.828,338.538 C81.59,338.258 81.478,337.852 81.478,337.306 L81.478,332.7 L80.022,332.7 L80.022,331.762 L81.478,331.762 L81.478,329.886 L82.584,329.424 Z M87.554,329.424 L87.554,331.762 L89.346,331.762 L89.346,332.7 L87.554,332.7 L87.554,337.306 C87.554,337.572 87.596,337.768 87.708,337.88 C87.806,337.992 87.988,338.062 88.24,338.062 L89.164,338.062 L89.164,339 L88.072,339 C87.484,339 87.05,338.846 86.798,338.538 C86.56,338.258 86.448,337.852 86.448,337.306 L86.448,332.7 L84.992,332.7 L84.992,331.762 L86.448,331.762 L86.448,329.886 L87.554,329.424 Z M94.05,331.566 C95.086,331.566 95.912,331.944 96.514,332.728 C97.06,333.428 97.34,334.31 97.34,335.402 C97.34,336.466 97.06,337.348 96.528,338.048 C95.94,338.804 95.142,339.196 94.106,339.196 C93.07,339.196 92.272,338.692 91.712,337.684 L91.712,341.772 L90.592,341.772 L90.592,331.762 L91.642,331.762 L91.642,332.952 C92.16,332.028 92.958,331.566 94.05,331.566 Z M93.91,332.49 C93.182,332.49 92.608,332.77 92.216,333.344 C91.852,333.848 91.67,334.52 91.67,335.332 L91.67,335.472 C91.67,336.312 91.866,336.984 92.286,337.502 C92.678,338.006 93.196,338.272 93.868,338.272 C94.652,338.272 95.24,337.992 95.646,337.46 C96.01,336.956 96.192,336.27 96.192,335.402 C96.192,334.548 96.01,333.862 95.674,333.358 C95.268,332.77 94.68,332.49 93.91,332.49 Z M101.358,331.566 C103.15,331.566 104.13,332.308 104.326,333.82 L103.234,333.82 C103.136,333.372 102.954,333.036 102.674,332.84 C102.366,332.616 101.918,332.504 101.344,332.504 C100.84,332.504 100.448,332.588 100.168,332.784 C99.86,332.966 99.706,333.218 99.706,333.54 C99.706,333.848 99.902,334.114 100.322,334.324 C100.588,334.45 101.092,334.604 101.82,334.8 C102.688,335.01 103.304,335.234 103.682,335.472 C104.256,335.836 104.55,336.326 104.55,336.956 C104.55,338.44 103.528,339.196 101.484,339.196 C99.58,339.196 98.544,338.356 98.376,336.69 L99.468,336.69 C99.552,337.264 99.762,337.67 100.07,337.922 C100.378,338.146 100.84,338.258 101.456,338.258 C102.744,338.258 103.402,337.838 103.402,337.026 C103.402,336.62 103.164,336.312 102.716,336.088 C102.478,335.976 101.96,335.822 101.176,335.626 C100.322,335.416 99.72,335.206 99.384,334.982 C98.824,334.646 98.558,334.184 98.558,333.568 C98.558,332.952 98.824,332.476 99.37,332.112 C99.874,331.748 100.546,331.566 101.358,331.566 Z M106.846,332.182 C107.07,332.182 107.28,332.266 107.448,332.434 C107.616,332.602 107.7,332.798 107.7,333.036 C107.7,333.274 107.616,333.484 107.448,333.652 C107.28,333.806 107.07,333.89 106.846,333.89 C106.594,333.89 106.398,333.806 106.244,333.652 C106.076,333.484 105.992,333.274 105.992,333.036 C105.992,332.798 106.076,332.602 106.244,332.434 C106.398,332.266 106.594,332.182 106.846,332.182 Z M106.846,337.306 C107.07,337.306 107.28,337.39 107.448,337.558 C107.616,337.726 107.7,337.922 107.7,338.16 C107.7,338.398 107.616,338.608 107.448,338.776 C107.28,338.93 107.07,339.014 106.846,339.014 C106.594,339.014 106.398,338.93 106.244,338.776 C106.076,338.608 105.992,338.398 105.992,338.16 C105.992,337.922 106.076,337.726 106.244,337.558 C106.398,337.39 106.594,337.306 106.846,337.306 Z M114.182,327.52 L115.176,327.52 L110.22,340.4 L109.212,340.4 L114.182,327.52 Z M121.182,327.52 L122.176,327.52 L117.22,340.4 L116.212,340.4 L121.182,327.52 Z M128.91,328.808 L130.03,328.808 L130.03,339 L128.98,339 L128.98,337.81 C128.476,338.734 127.664,339.196 126.572,339.196 C125.508,339.196 124.682,338.804 124.094,338.048 C123.548,337.348 123.282,336.452 123.282,335.36 C123.282,334.296 123.548,333.428 124.094,332.728 C124.682,331.944 125.48,331.566 126.516,331.566 C127.552,331.566 128.35,332.07 128.91,333.092 L128.91,328.808 Z M126.754,332.49 C125.956,332.49 125.354,332.77 124.962,333.33 C124.598,333.82 124.43,334.492 124.43,335.36 C124.43,336.228 124.598,336.914 124.948,337.418 C125.34,337.978 125.928,338.272 126.712,338.272 C127.44,338.272 128,337.992 128.406,337.432 C128.756,336.928 128.938,336.27 128.938,335.458 L128.938,335.318 C128.938,334.478 128.728,333.792 128.336,333.274 C127.93,332.742 127.398,332.49 126.754,332.49 Z M134.748,331.566 C135.91,331.566 136.792,331.958 137.38,332.742 C137.912,333.442 138.192,334.436 138.22,335.696 L132.508,335.696 C132.564,336.508 132.774,337.138 133.166,337.586 C133.558,338.034 134.104,338.258 134.79,338.258 C135.378,338.258 135.868,338.104 136.232,337.81 C136.54,337.558 136.778,337.18 136.96,336.676 L138.08,336.676 C137.912,337.376 137.59,337.936 137.1,338.384 C136.498,338.916 135.728,339.196 134.79,339.196 C133.754,339.196 132.914,338.846 132.298,338.174 C131.654,337.474 131.346,336.55 131.346,335.374 C131.346,334.31 131.64,333.414 132.256,332.7 C132.872,331.944 133.698,331.566 134.748,331.566 Z M134.776,332.504 C134.132,332.504 133.614,332.714 133.222,333.134 C132.83,333.554 132.606,334.114 132.536,334.828 L137.058,334.828 C136.918,333.274 136.148,332.504 134.776,332.504 Z M138.738,331.762 L139.97,331.762 L142.042,337.6 L144.114,331.762 L145.346,331.762 L142.602,339 L141.468,339 L138.738,331.762 Z M149.266,331.566 C150.428,331.566 151.31,331.958 151.898,332.742 C152.43,333.442 152.71,334.436 152.738,335.696 L147.026,335.696 C147.082,336.508 147.292,337.138 147.684,337.586 C148.076,338.034 148.622,338.258 149.308,338.258 C149.896,338.258 150.386,338.104 150.75,337.81 C151.058,337.558 151.296,337.18 151.478,336.676 L152.598,336.676 C152.43,337.376 152.108,337.936 151.618,338.384 C151.016,338.916 150.246,339.196 149.308,339.196 C148.272,339.196 147.432,338.846 146.816,338.174 C146.172,337.474 145.864,336.55 145.864,335.374 C145.864,334.31 146.158,333.414 146.774,332.7 C147.39,331.944 148.216,331.566 149.266,331.566 Z M149.294,332.504 C148.65,332.504 148.132,332.714 147.74,333.134 C147.348,333.554 147.124,334.114 147.054,334.828 L151.576,334.828 C151.436,333.274 150.666,332.504 149.294,332.504 Z M154.278,328.808 L155.384,328.808 L155.384,339 L154.278,339 L154.278,328.808 Z M160.578,331.566 C161.656,331.566 162.524,331.93 163.168,332.686 C163.784,333.4 164.092,334.296 164.092,335.388 C164.092,336.466 163.784,337.362 163.182,338.062 C162.524,338.818 161.656,339.196 160.578,339.196 C159.486,339.196 158.632,338.818 157.988,338.062 C157.372,337.362 157.064,336.466 157.064,335.388 C157.064,334.296 157.372,333.4 157.988,332.686 C158.632,331.93 159.486,331.566 160.578,331.566 Z M160.578,332.504 C159.808,332.504 159.206,332.798 158.786,333.386 C158.394,333.918 158.212,334.576 158.212,335.388 C158.212,336.186 158.394,336.844 158.786,337.376 C159.206,337.964 159.808,338.258 160.578,338.258 C161.334,338.258 161.936,337.964 162.384,337.376 C162.762,336.844 162.958,336.172 162.958,335.388 C162.958,334.576 162.762,333.918 162.384,333.386 C161.936,332.798 161.334,332.504 160.578,332.504 Z M169.006,331.566 C170.042,331.566 170.868,331.944 171.47,332.728 C172.016,333.428 172.296,334.31 172.296,335.402 C172.296,336.466 172.016,337.348 171.484,338.048 C170.896,338.804 170.098,339.196 169.062,339.196 C168.026,339.196 167.228,338.692 166.668,337.684 L166.668,341.772 L165.548,341.772 L165.548,331.762 L166.598,331.762 L166.598,332.952 C167.116,332.028 167.914,331.566 169.006,331.566 Z M168.866,332.49 C168.138,332.49 167.564,332.77 167.172,333.344 C166.808,333.848 166.626,334.52 166.626,335.332 L166.626,335.472 C166.626,336.312 166.822,336.984 167.242,337.502 C167.634,338.006 168.152,338.272 168.824,338.272 C169.608,338.272 170.196,337.992 170.602,337.46 C170.966,336.956 171.148,336.27 171.148,335.402 C171.148,334.548 170.966,333.862 170.63,333.358 C170.224,332.77 169.636,332.49 168.866,332.49 Z M176.734,331.566 C177.896,331.566 178.778,331.958 179.366,332.742 C179.898,333.442 180.178,334.436 180.206,335.696 L174.494,335.696 C174.55,336.508 174.76,337.138 175.152,337.586 C175.544,338.034 176.09,338.258 176.776,338.258 C177.364,338.258 177.854,338.104 178.218,337.81 C178.526,337.558 178.764,337.18 178.946,336.676 L180.066,336.676 C179.898,337.376 179.576,337.936 179.086,338.384 C178.484,338.916 177.714,339.196 176.776,339.196 C175.74,339.196 174.9,338.846 174.284,338.174 C173.64,337.474 173.332,336.55 173.332,335.374 C173.332,334.31 173.626,333.414 174.242,332.7 C174.858,331.944 175.684,331.566 176.734,331.566 Z M176.762,332.504 C176.118,332.504 175.6,332.714 175.208,333.134 C174.816,333.554 174.592,334.114 174.522,334.828 L179.044,334.828 C178.904,333.274 178.134,332.504 176.762,332.504 Z M184.7,331.566 C185.092,331.566 185.428,331.622 185.694,331.734 L185.694,332.854 C185.33,332.742 184.966,332.7 184.616,332.7 C184.056,332.7 183.58,332.938 183.202,333.442 C182.81,333.918 182.628,334.492 182.628,335.164 L182.628,339 L181.522,339 L181.522,331.762 L182.628,331.762 L182.628,333.022 C182.824,332.602 183.076,332.266 183.384,332.028 C183.762,331.72 184.196,331.566 184.7,331.566 Z M187.612,337.334 C187.836,337.334 188.046,337.418 188.214,337.586 C188.382,337.754 188.466,337.95 188.466,338.202 C188.466,338.44 188.382,338.636 188.214,338.804 C188.046,338.972 187.836,339.056 187.612,339.056 C187.36,339.056 187.164,338.972 187.01,338.804 C186.842,338.636 186.758,338.44 186.758,338.202 C186.758,337.95 186.842,337.754 187.01,337.586 C187.164,337.418 187.36,337.334 187.612,337.334 Z M193.478,331.566 C194.514,331.566 195.27,331.832 195.774,332.378 C196.194,332.854 196.418,333.512 196.418,334.352 L196.418,339 L195.368,339 L195.368,337.782 C195.088,338.174 194.71,338.496 194.262,338.748 C193.73,339.042 193.128,339.196 192.456,339.196 C191.728,339.196 191.154,339.014 190.72,338.65 C190.272,338.272 190.048,337.782 190.048,337.194 C190.048,336.368 190.37,335.752 191.042,335.332 C191.63,334.94 192.47,334.73 193.562,334.716 L195.298,334.688 L195.298,334.31 C195.298,333.092 194.668,332.49 193.408,332.49 C192.876,332.49 192.442,332.588 192.106,332.812 C191.728,333.036 191.49,333.386 191.378,333.848 L190.272,333.764 C190.426,333.008 190.804,332.434 191.392,332.07 C191.924,331.734 192.61,331.566 193.478,331.566 Z M195.298,335.528 L193.632,335.556 C192.008,335.584 191.196,336.116 191.196,337.166 C191.196,337.502 191.322,337.768 191.602,337.992 C191.882,338.202 192.246,338.314 192.694,338.314 C193.38,338.314 193.982,338.09 194.514,337.642 C195.032,337.208 195.298,336.704 195.298,336.144 L195.298,335.528 Z M201.612,331.566 C202.648,331.566 203.474,331.944 204.076,332.728 C204.622,333.428 204.902,334.31 204.902,335.402 C204.902,336.466 204.622,337.348 204.09,338.048 C203.502,338.804 202.704,339.196 201.668,339.196 C200.632,339.196 199.834,338.692 199.274,337.684 L199.274,341.772 L198.154,341.772 L198.154,331.762 L199.204,331.762 L199.204,332.952 C199.722,332.028 200.52,331.566 201.612,331.566 Z M201.472,332.49 C200.744,332.49 200.17,332.77 199.778,333.344 C199.414,333.848 199.232,334.52 199.232,335.332 L199.232,335.472 C199.232,336.312 199.428,336.984 199.848,337.502 C200.24,338.006 200.758,338.272 201.43,338.272 C202.214,338.272 202.802,337.992 203.208,337.46 C203.572,336.956 203.754,336.27 203.754,335.402 C203.754,334.548 203.572,333.862 203.236,333.358 C202.83,332.77 202.242,332.49 201.472,332.49 Z M209.816,331.566 C210.852,331.566 211.678,331.944 212.28,332.728 C212.826,333.428 213.106,334.31 213.106,335.402 C213.106,336.466 212.826,337.348 212.294,338.048 C211.706,338.804 210.908,339.196 209.872,339.196 C208.836,339.196 208.038,338.692 207.478,337.684 L207.478,341.772 L206.358,341.772 L206.358,331.762 L207.408,331.762 L207.408,332.952 C207.926,332.028 208.724,331.566 209.816,331.566 Z M209.676,332.49 C208.948,332.49 208.374,332.77 207.982,333.344 C207.618,333.848 207.436,334.52 207.436,335.332 L207.436,335.472 C207.436,336.312 207.632,336.984 208.052,337.502 C208.444,338.006 208.962,338.272 209.634,338.272 C210.418,338.272 211.006,337.992 211.412,337.46 C211.776,336.956 211.958,336.27 211.958,335.402 C211.958,334.548 211.776,333.862 211.44,333.358 C211.034,332.77 210.446,332.49 209.676,332.49 Z M214.786,328.808 L215.892,328.808 L215.892,339 L214.786,339 L214.786,328.808 Z M220.834,331.566 C221.996,331.566 222.878,331.958 223.466,332.742 C223.998,333.442 224.278,334.436 224.306,335.696 L218.594,335.696 C218.65,336.508 218.86,337.138 219.252,337.586 C219.644,338.034 220.19,338.258 220.876,338.258 C221.464,338.258 221.954,338.104 222.318,337.81 C222.626,337.558 222.864,337.18 223.046,336.676 L224.166,336.676 C223.998,337.376 223.676,337.936 223.186,338.384 C222.584,338.916 221.814,339.196 220.876,339.196 C219.84,339.196 219,338.846 218.384,338.174 C217.74,337.474 217.432,336.55 217.432,335.374 C217.432,334.31 217.726,333.414 218.342,332.7 C218.958,331.944 219.784,331.566 220.834,331.566 Z M220.862,332.504 C220.218,332.504 219.7,332.714 219.308,333.134 C218.916,333.554 218.692,334.114 218.622,334.828 L223.144,334.828 C223.004,333.274 222.234,332.504 220.862,332.504 Z M226.602,337.334 C226.826,337.334 227.036,337.418 227.204,337.586 C227.372,337.754 227.456,337.95 227.456,338.202 C227.456,338.44 227.372,338.636 227.204,338.804 C227.036,338.972 226.826,339.056 226.602,339.056 C226.35,339.056 226.154,338.972 226,338.804 C225.832,338.636 225.748,338.44 225.748,338.202 C225.748,337.95 225.832,337.754 226,337.586 C226.154,337.418 226.35,337.334 226.602,337.334 Z M232.44,331.566 C233.336,331.566 234.05,331.776 234.596,332.196 C235.156,332.63 235.492,333.288 235.618,334.17 L234.512,334.17 C234.414,333.61 234.19,333.19 233.84,332.91 C233.476,332.63 233.014,332.504 232.44,332.504 C231.74,332.504 231.18,332.77 230.774,333.302 C230.382,333.82 230.186,334.52 230.186,335.402 C230.186,336.284 230.368,336.984 230.76,337.488 C231.138,337.992 231.698,338.258 232.426,338.258 C233.658,338.258 234.372,337.628 234.54,336.382 L235.66,336.382 C235.492,337.306 235.142,338.02 234.582,338.496 C234.036,338.958 233.322,339.196 232.426,339.196 C231.334,339.196 230.494,338.832 229.892,338.104 C229.318,337.418 229.038,336.522 229.038,335.416 C229.038,334.31 229.318,333.414 229.892,332.714 C230.508,331.944 231.362,331.566 232.44,331.566 Z M240.21,331.566 C241.288,331.566 242.156,331.93 242.8,332.686 C243.416,333.4 243.724,334.296 243.724,335.388 C243.724,336.466 243.416,337.362 242.814,338.062 C242.156,338.818 241.288,339.196 240.21,339.196 C239.118,339.196 238.264,338.818 237.62,338.062 C237.004,337.362 236.696,336.466 236.696,335.388 C236.696,334.296 237.004,333.4 237.62,332.686 C238.264,331.93 239.118,331.566 240.21,331.566 Z M240.21,332.504 C239.44,332.504 238.838,332.798 238.418,333.386 C238.026,333.918 237.844,334.576 237.844,335.388 C237.844,336.186 238.026,336.844 238.418,337.376 C238.838,337.964 239.44,338.258 240.21,338.258 C240.966,338.258 241.568,337.964 242.016,337.376 C242.394,336.844 242.59,336.172 242.59,335.388 C242.59,334.576 242.394,333.918 242.016,333.386 C241.568,332.798 240.966,332.504 240.21,332.504 Z M248.344,331.566 C249.45,331.566 250.206,332.014 250.612,332.938 C250.892,332.462 251.228,332.112 251.62,331.902 C251.97,331.678 252.39,331.566 252.894,331.566 C253.65,331.566 254.252,331.804 254.728,332.28 C255.176,332.77 255.414,333.428 255.414,334.254 L255.414,339 L254.294,339 L254.294,334.436 C254.294,333.792 254.154,333.316 253.888,333.008 C253.608,332.672 253.16,332.518 252.544,332.518 C252.068,332.518 251.662,332.686 251.354,333.05 C251.018,333.414 250.864,333.876 250.864,334.464 L250.864,339 L249.744,339 L249.744,334.436 C249.744,333.148 249.184,332.518 248.078,332.518 C247.56,332.518 247.14,332.714 246.804,333.134 C246.468,333.526 246.3,334.016 246.3,334.59 L246.3,339 L245.18,339 L245.18,331.762 L246.3,331.762 L246.3,332.728 C246.846,331.944 247.532,331.566 248.344,331.566 Z M261.77,327.52 L262.764,327.52 L257.808,340.4 L256.8,340.4 L261.77,327.52 Z M269.498,328.808 L270.618,328.808 L270.618,339 L269.568,339 L269.568,337.81 C269.064,338.734 268.252,339.196 267.16,339.196 C266.096,339.196 265.27,338.804 264.682,338.048 C264.136,337.348 263.87,336.452 263.87,335.36 C263.87,334.296 264.136,333.428 264.682,332.728 C265.27,331.944 266.068,331.566 267.104,331.566 C268.14,331.566 268.938,332.07 269.498,333.092 L269.498,328.808 Z M267.342,332.49 C266.544,332.49 265.942,332.77 265.55,333.33 C265.186,333.82 265.018,334.492 265.018,335.36 C265.018,336.228 265.186,336.914 265.536,337.418 C265.928,337.978 266.516,338.272 267.3,338.272 C268.028,338.272 268.588,337.992 268.994,337.432 C269.344,336.928 269.526,336.27 269.526,335.458 L269.526,335.318 C269.526,334.478 269.316,333.792 268.924,333.274 C268.518,332.742 267.986,332.49 267.342,332.49 Z M275.336,331.566 C276.498,331.566 277.38,331.958 277.968,332.742 C278.5,333.442 278.78,334.436 278.808,335.696 L273.096,335.696 C273.152,336.508 273.362,337.138 273.754,337.586 C274.146,338.034 274.692,338.258 275.378,338.258 C275.966,338.258 276.456,338.104 276.82,337.81 C277.128,337.558 277.366,337.18 277.548,336.676 L278.668,336.676 C278.5,337.376 278.178,337.936 277.688,338.384 C277.086,338.916 276.316,339.196 275.378,339.196 C274.342,339.196 273.502,338.846 272.886,338.174 C272.242,337.474 271.934,336.55 271.934,335.374 C271.934,334.31 272.228,333.414 272.844,332.7 C273.46,331.944 274.286,331.566 275.336,331.566 Z M275.364,332.504 C274.72,332.504 274.202,332.714 273.81,333.134 C273.418,333.554 273.194,334.114 273.124,334.828 L277.646,334.828 C277.506,333.274 276.736,332.504 275.364,332.504 Z M282.686,331.566 C284.478,331.566 285.458,332.308 285.654,333.82 L284.562,333.82 C284.464,333.372 284.282,333.036 284.002,332.84 C283.694,332.616 283.246,332.504 282.672,332.504 C282.168,332.504 281.776,332.588 281.496,332.784 C281.188,332.966 281.034,333.218 281.034,333.54 C281.034,333.848 281.23,334.114 281.65,334.324 C281.916,334.45 282.42,334.604 283.148,334.8 C284.016,335.01 284.632,335.234 285.01,335.472 C285.584,335.836 285.878,336.326 285.878,336.956 C285.878,338.44 284.856,339.196 282.812,339.196 C280.908,339.196 279.872,338.356 279.704,336.69 L280.796,336.69 C280.88,337.264 281.09,337.67 281.398,337.922 C281.706,338.146 282.168,338.258 282.784,338.258 C284.072,338.258 284.73,337.838 284.73,337.026 C284.73,336.62 284.492,336.312 284.044,336.088 C283.806,335.976 283.288,335.822 282.504,335.626 C281.65,335.416 281.048,335.206 280.712,334.982 C280.152,334.646 279.886,334.184 279.886,333.568 C279.886,332.952 280.152,332.476 280.698,332.112 C281.202,331.748 281.874,331.566 282.686,331.566 Z M288.118,329.032 C288.356,329.032 288.552,329.102 288.72,329.27 C288.888,329.41 288.972,329.606 288.972,329.858 C288.972,330.096 288.888,330.292 288.72,330.46 C288.552,330.614 288.356,330.698 288.118,330.698 C287.88,330.698 287.684,330.614 287.516,330.46 C287.348,330.292 287.278,330.096 287.278,329.858 C287.278,329.606 287.348,329.41 287.516,329.27 C287.684,329.102 287.88,329.032 288.118,329.032 Z M287.558,331.762 L288.678,331.762 L288.678,339 L287.558,339 L287.558,331.762 Z M293.76,331.566 C294.852,331.566 295.664,332.042 296.196,333.008 L296.196,331.762 L297.316,331.762 L297.316,338.496 C297.316,340.806 296.21,341.968 294.012,341.968 C293.032,341.968 292.276,341.772 291.772,341.38 C291.254,340.988 290.932,340.4 290.806,339.616 L291.926,339.616 C292.01,340.106 292.22,340.47 292.542,340.694 C292.864,340.932 293.354,341.058 294.012,341.058 C295.468,341.058 296.196,340.246 296.196,338.65 L296.196,337.376 C295.664,338.342 294.852,338.832 293.76,338.832 C292.752,338.832 291.954,338.482 291.366,337.796 C290.778,337.124 290.498,336.27 290.498,335.22 C290.498,334.156 290.778,333.302 291.366,332.63 C291.954,331.916 292.752,331.566 293.76,331.566 Z M293.928,332.49 C293.2,332.49 292.64,332.742 292.234,333.274 C291.842,333.75 291.646,334.408 291.646,335.22 C291.646,335.976 291.814,336.606 292.164,337.082 C292.556,337.614 293.13,337.894 293.914,337.894 C294.642,337.894 295.202,337.642 295.622,337.138 C296.014,336.648 296.21,336.004 296.21,335.22 C296.21,334.408 296.014,333.75 295.622,333.274 C295.202,332.742 294.642,332.49 293.928,332.49 Z M302.44,331.566 C304.232,331.566 305.142,332.56 305.142,334.548 L305.142,339 L304.022,339 L304.022,334.632 C304.022,333.218 303.378,332.518 302.118,332.518 C301.614,332.518 301.18,332.7 300.816,333.064 C300.424,333.456 300.214,333.974 300.172,334.632 L300.172,339 L299.052,339 L299.052,331.762 L300.172,331.762 L300.172,332.826 C300.424,332.42 300.746,332.112 301.138,331.902 C301.53,331.678 301.964,331.566 302.44,331.566 Z M32.254,351.828 C33.136,352.528 33.878,353.214 34.48,353.9 L33.794,354.6 C33.248,353.928 32.506,353.228 31.554,352.486 L32.254,351.828 Z M30.63,355.874 L33.556,355.874 L33.556,362.09 C34.06,361.67 34.606,361.194 35.18,360.648 L35.46,361.712 C34.578,362.538 33.64,363.266 32.66,363.91 L32.268,363.014 C32.464,362.818 32.576,362.608 32.576,362.384 L32.576,356.84 L30.63,356.84 L30.63,355.874 Z M35.6,357.512 L42.264,357.512 L42.264,358.436 C41.816,359.752 41.088,360.886 40.066,361.838 C41.018,362.496 42.18,363.07 43.552,363.574 L43.006,364.442 C41.55,363.854 40.318,363.196 39.338,362.44 C38.218,363.28 36.832,363.938 35.194,364.442 L34.634,363.588 C36.188,363.126 37.49,362.524 38.54,361.782 C37.476,360.802 36.762,359.71 36.37,358.492 L35.6,358.492 L35.6,357.512 Z M37.322,358.492 C37.686,359.5 38.33,360.41 39.254,361.208 C40.15,360.424 40.822,359.528 41.27,358.492 L37.322,358.492 Z M36.678,352.108 L41.382,352.108 L41.382,355.132 C41.382,355.482 41.564,355.664 41.928,355.664 L43.216,355.664 L43.216,356.588 L41.676,356.588 C40.808,356.588 40.388,356.168 40.388,355.342 L40.388,353.06 L37.672,353.06 L37.672,353.55 C37.672,355.034 36.944,356.182 35.516,356.994 L34.844,356.224 C36.062,355.622 36.678,354.768 36.678,353.662 L36.678,352.108 Z M49.012,355.762 L52.806,355.762 L52.806,351.548 L53.842,351.548 L53.842,355.762 L57.44,355.762 L57.44,356.77 L53.842,356.77 L53.842,364.428 L52.806,364.428 L52.806,356.77 L49.012,356.77 L49.012,355.762 Z M46.268,351.702 C47.22,352.416 48.018,353.13 48.662,353.858 L47.976,354.558 C47.388,353.872 46.576,353.144 45.568,352.388 L46.268,351.702 Z M44.63,355.846 L47.654,355.846 L47.654,362.076 C48.158,361.656 48.718,361.18 49.306,360.62 L49.558,361.656 C48.69,362.496 47.752,363.238 46.758,363.896 L46.366,362.986 C46.576,362.818 46.688,362.622 46.688,362.398 L46.688,356.812 L44.63,356.812 L44.63,355.846 Z M62.242,354.432 L65.168,354.432 C65.308,354.012 65.406,353.578 65.476,353.13 L60.688,353.13 L60.688,357.61 C60.632,360.424 60.184,362.678 59.33,364.372 L58.574,363.7 C59.274,362.23 59.638,360.2 59.666,357.61 L59.666,352.136 L71.062,352.136 L71.062,353.13 L66.484,353.13 C66.4,353.578 66.288,354.012 66.148,354.432 L70.04,354.432 L70.04,359.78 L66.792,359.78 L66.792,363.252 C66.792,363.98 66.414,364.358 65.658,364.358 L64.244,364.358 L64.034,363.364 C64.482,363.406 64.902,363.434 65.308,363.434 C65.616,363.434 65.784,363.294 65.784,363.014 L65.784,359.78 L62.242,359.78 L62.242,354.432 Z M69.06,358.87 L69.06,357.526 L63.222,357.526 L63.222,358.87 L69.06,358.87 Z M63.222,356.658 L69.06,356.658 L69.06,355.356 L63.222,355.356 L63.222,356.658 Z M63.25,360.438 L64.132,360.858 C63.488,362.062 62.746,363.084 61.892,363.952 L61.052,363.364 C61.906,362.552 62.634,361.572 63.25,360.438 Z M68.934,360.424 C69.9,361.572 70.642,362.58 71.16,363.434 L70.32,364.008 C69.788,363.084 69.046,362.048 68.122,360.928 L68.934,360.424 Z M79.35,352.136 L79.35,360.76 L78.37,360.76 L78.37,353.116 L74.366,353.116 L74.366,360.886 L73.386,360.886 L73.386,352.136 L79.35,352.136 Z M77.474,361.138 C78.454,361.95 79.266,362.776 79.938,363.588 L79.182,364.33 C78.594,363.546 77.782,362.72 76.774,361.824 L77.474,361.138 Z M75.878,354.026 L76.858,354.026 L76.858,358.436 C76.816,360.074 76.494,361.376 75.906,362.356 C75.318,363.266 74.38,363.98 73.064,364.484 L72.49,363.588 C73.75,363.112 74.632,362.468 75.136,361.67 C75.598,360.844 75.85,359.766 75.878,358.436 L75.878,354.026 Z M80.946,352.78 L81.926,352.78 L81.926,361.516 L80.946,361.516 L80.946,352.78 Z M83.452,364.26 L81.562,364.26 L81.338,363.28 C81.954,363.308 82.542,363.336 83.102,363.336 C83.564,363.336 83.802,363.098 83.802,362.636 L83.802,351.604 L84.81,351.604 L84.81,362.888 C84.81,363.798 84.348,364.26 83.452,364.26 Z" id="来源：https://developer.apple.com/design设计原则" fill="#3A4249" fill-rule="nonzero"></path>
        </g>
    </g>
</svg>