<?xml version="1.0" encoding="UTF-8"?>
<svg width="1200px" height="200px" viewBox="0 0 1200 200" version="1.1" xmlns="http://www.w3.org/2000/svg" xmlns:xlink="http://www.w3.org/1999/xlink">
    <!-- Generator: Sketch 58 (84663) - https://sketch.com -->
    <title>PC端banner模板备份 8</title>
    <desc>Created with Sketch.</desc>
    <g id="PC端banner模板备份-8" stroke="none" stroke-width="1" fill="none" fill-rule="evenodd">
        <rect fill="#000000" x="0" y="0" width="1200" height="200"></rect>
        <g id="daydayup-logo" transform="translate(430.000000, 55.000000)" fill="#A8B2BA">
            <g id="footer备份" transform="translate(167.000000, 0.000000)" fill-rule="nonzero">
                <g id="编组-2">
                    <g id="编组-6">
                        <g id="编组-3">
                            <g id="编组" transform="translate(0.000000, 0.071164)">
                                <path d="M8.98010988,19.4836169 L8.89044368,19.3341732 C11.5605171,14.9106187 13.1844554,10.5269818 13.7623071,6.18313096 L18.6341705,7.61779012 L17.2294,8.48456336 C17.0102149,9.12219284 16.7810702,9.67014745 16.5419592,10.1284436 L21.4736,10.1284436 L22.818593,8.09600984 L27.3915691,10.5767746 L25.8672437,11.7723239 C24.532207,15.8372119 22.7588266,19.0651627 20.5470493,21.4562732 C22.3005304,22.273236 24.9904894,22.8710047 28.6170071,23.2495972 L28.5572296,23.4289296 C27.3816003,24.2857442 26.4849473,25.7004634 25.8672437,27.6731296 C22.2208001,26.557278 19.5806551,25.2720753 17.9467296,23.8174831 C15.5556191,25.610816 12.3974079,27.1251633 8.47200143,28.3605704 L8.38233523,28.2111268 C11.6103345,26.0392013 14.1907026,23.8872341 16.1235169,21.7551606 C15.1072949,20.380272 14.1409023,18.2980445 13.2243099,15.5084155 C12.2080879,16.7039708 10.7933687,18.0290246 8.98010988,19.4836169 Z M0.402043674,6.09346477 L0.402043674,5.37613519 L12.8656451,5.37613519 C12.387423,5.23665374 12.1084643,4.85806691 12.0287606,4.24036336 C11.7896495,2.80569703 11.450914,1.7994531 11.0125437,1.22160138 L11.1320986,1.07215772 C14.4796534,1.01237995 16.1733313,1.78947923 16.2131831,3.40347885 C16.1534054,4.35992307 15.5257483,5.0174686 14.330193,5.37613519 L22.370262,5.37613519 L24.4624733,2.56659434 L28.1088986,5.25658026 C28.2483801,5.35620986 28.3181198,5.45583798 28.3181198,5.55546758 C28.2384161,5.87428232 27.9295689,6.05361292 27.3915691,6.09346477 L7.45578453,6.09346477 L11.5804296,7.85689998 L10.0262155,8.69378449 C9.12954906,10.2280804 8.16315637,11.5929856 7.12700847,12.7885408 L9.03988734,13.1472056 L7.90411551,14.1933113 L7.90411551,26.6868014 C7.92404143,27.3443568 7.61519429,27.7229436 6.97756481,27.8225732 C5.9414169,27.9819806 4.97502422,28.0517203 4.07835776,28.0317944 C4.19791329,25.0229803 4.25769016,21.8647691 4.25769016,18.5570662 L4.25769016,15.6279704 C3.06213488,16.6441924 1.72711818,17.6006223 0.252600012,18.4972887 L0.192822547,18.3179563 C3.3411181,14.1335129 5.4731597,10.0587231 6.58901129,6.09346477 L0.402043674,6.09346477 Z M21.9518198,10.8457732 L16.2729606,10.8457732 C16.0936273,11.2642176 15.8545198,11.7025813 15.555631,12.1608774 C18.3054081,12.7985069 19.580648,13.7150856 19.3813888,14.9106408 C19.2419073,16.0862702 18.574399,16.7438157 17.3788437,16.8832972 C16.6814364,16.9032231 16.282924,16.5047106 16.1832944,15.6877479 L16.0936282,15.0600845 C15.9740727,14.0239366 15.744928,13.1472092 15.4061874,12.429876 C14.8482616,13.4062462 14.2305673,14.3028992 13.5530859,15.119862 C14.9877523,17.1523059 16.3925086,18.6965417 17.7673972,19.7526155 C19.7201375,17.1223939 21.1149311,14.1534761 21.9518198,10.8457732 Z M58.4225709,18.9456197 C58.4225709,20.0016935 58.4524593,21.9942558 58.5122371,24.9233662 C58.532163,25.740329 58.5421258,26.2982464 58.5421258,26.5971352 C58.5819776,27.155061 58.3727586,27.4639081 57.9144624,27.5236859 C57.1772033,27.7030192 56.190885,27.8225729 54.9554779,27.8823507 L54.9554779,26.2384704 L45.7497483,26.2384704 L45.7497483,26.7764676 C45.829452,27.4140971 45.5903445,27.7428699 45.0324187,27.7627958 C43.9763449,27.9421291 43.0398407,28.0218316 42.2228779,28.0019056 C42.2826556,25.7702025 42.3225069,23.1798715 42.3424328,20.2308352 L42.3424328,16.6441873 C42.3225069,13.8944102 42.3025813,12.0612529 42.2826553,11.1446605 L46.5268554,12.1309887 L54.5071469,12.1309887 L55.61303,10.2181098 L59.4985652,12.1907662 L58.4225709,13.5058704 L58.4225709,18.9456197 Z M32.1802638,11.2941042 L32.0607089,11.1446605 C33.4156715,9.70999422 34.5713576,8.29527503 35.5278018,6.90046054 C34.9100983,5.5454979 33.973594,4.09092746 32.718261,2.53670561 L32.8378159,2.38726194 C34.3920378,3.48318761 35.6075007,4.49939435 36.4842413,5.43591265 C37.32113,4.02117224 37.9786755,2.556639 38.4568976,1.04226899 L42.6712089,3.31381265 L41.206661,4.03114223 C40.2502168,5.36617895 39.2240472,6.53182786 38.1281215,7.52812392 C39.9015285,10.0587159 40.7483675,14.3427247 40.6686638,20.3802789 C40.7085156,25.142574 38.8255443,27.6930537 35.0196934,28.0317944 C35.0196934,26.1587578 34.0533007,24.9632204 32.1204863,24.4451465 L32.1503751,24.2658141 L34.9898046,24.4451465 C36.4842487,24.4052946 37.261348,22.8909473 37.3211258,19.9020591 C37.3211258,18.666652 37.3012001,17.5408544 37.2613483,16.5246324 C35.9462375,17.9393728 34.2525596,19.2245754 32.1802638,20.3802789 L32.0607089,20.2607239 C34.1529306,17.471095 35.766906,14.6815078 36.9026835,11.8918789 C36.7632021,10.7959532 36.553983,9.81959769 36.2750201,8.96278308 C35.1790945,9.73989401 33.8141893,10.5169933 32.1802638,11.2941042 Z M41.0273286,6.39235209 L41.0273286,5.70491124 L45.4209723,5.70491124 L45.4209723,4.77836054 C45.4209723,3.36362013 45.4010466,2.15811998 45.3611948,1.16182392 L49.7249497,1.90904223 L48.7087328,2.95514786 L48.7087328,5.70491124 L51.8769385,5.70491124 L51.8769385,4.27025209 C51.8769385,3.61269669 51.8570128,2.58652714 51.817161,1.19171265 L56.1809159,1.93893096 L55.164699,2.95514786 L55.164699,5.70491124 L55.7624737,5.70491124 L57.286799,3.49314504 L60.2158948,5.61524505 C60.3354503,5.69494873 60.3952272,5.80453965 60.3952272,5.9440211 C60.3553754,6.222984 60.0664538,6.37242617 59.528454,6.39235209 L55.164699,6.39235209 C55.2045509,7.36872223 55.2244765,8.31518929 55.2244765,9.23178167 C55.2244765,9.61037417 55.0351831,9.84948164 54.6565906,9.94911125 C53.9591833,10.1085186 53.0326419,10.2081467 51.8769385,10.2479986 L51.8769385,6.39235209 L48.7087328,6.39235209 L48.7087328,9.50078026 C48.7087328,9.93915053 48.489551,10.2081464 48.0511807,10.307776 C47.1943661,10.4671834 46.3176387,10.5568487 45.4209723,10.5767746 L45.4209723,6.39235209 L41.0273286,6.39235209 Z M45.7497483,19.364062 L45.7497483,25.5211408 L48.6788441,25.5211408 L48.6788441,19.364062 L45.7497483,19.364062 Z M52.0263821,19.364062 L52.0263821,25.5211408 L54.9554779,25.5211408 L54.9554779,19.364062 L52.0263821,19.364062 Z M45.7497483,12.8483183 L45.7497483,18.6467324 L48.6788441,18.6467324 L48.6788441,12.8483183 L45.7497483,12.8483183 Z M54.9554779,12.8483183 L52.0263821,12.8483183 L52.0263821,18.6467324 L54.9554779,18.6467324 L54.9554779,12.8483183 Z M70.4144501,28.0019056 C74.0409678,26.0491653 76.8903318,24.0366775 78.9626276,21.9643817 C77.6076649,20.2109006 76.601421,17.7899375 75.9438656,14.7014197 L73.4033234,14.7014197 L73.4033234,13.9840901 L83.6551586,13.9840901 L85.0001515,12.1309887 L89.4236839,14.7910859 L87.9292473,15.9268577 C86.7735439,18.1585609 85.5281925,19.9917182 84.1931558,21.4263845 C86.3650812,22.3629028 89.0351146,23.0005227 92.203336,23.3392634 L92.203336,23.5185958 C90.8682993,24.5148918 89.8421298,25.9495366 89.1247966,27.8225732 C85.6178345,26.8262772 82.9478011,25.6008514 81.1146163,24.1462591 C78.3648392,26.0591476 74.8280412,27.3941643 70.5041163,28.1513493 L70.4144501,28.0019056 Z M75.4357572,1.43082251 L80.1282881,2.53670561 L82.7584966,2.53670561 L83.834491,0.743381662 L87.7499149,2.6263718 L86.7635867,3.8219211 L86.7635867,7.85689998 C86.7237349,8.51445538 87.0226192,8.82330253 87.6602487,8.78345068 L88.078691,8.78345068 C88.6764686,8.8033766 89.1546835,8.57423195 89.5133501,8.09600984 L89.6329051,8.09600984 C91.2469047,9.27163919 92.0140411,10.1184781 91.9343375,10.6365521 C91.6354486,11.3937371 90.4697997,11.8022124 88.4373558,11.8619901 L86.285367,11.8619901 C84.1333675,11.9815457 83.1171608,10.855748 83.2367163,8.48456336 L83.2367163,3.25403519 L79.2615149,3.25403519 L79.2615149,4.30014082 C79.5803296,8.82332494 77.2291062,12.1409411 72.2077741,14.2530887 L72.0882191,14.1036451 C73.5029595,12.5294973 74.429501,11.1147781 74.8678712,9.85944505 C75.3460933,8.62403793 75.575238,6.93036003 75.5553121,4.77836054 C75.5553121,3.56287934 75.5154608,2.44704449 75.4357572,1.43082251 Z M67.1565783,11.5332141 L63.9883726,11.5332141 L63.9883726,10.8158845 L66.6783586,10.8158845 L67.7543529,8.87311688 L71.7893318,10.9354394 L70.6236712,12.1907662 L70.6236712,20.3503901 L74.8379825,18.4674 L74.9276487,18.6168437 C73.0546121,20.8286209 71.1218267,22.8610344 69.1292346,24.7141451 L68.4716825,26.1488042 L65.7816966,22.5023789 C66.7381408,21.9444531 67.1964301,21.207205 67.1565783,20.2906127 L67.1565783,11.5332141 Z M83.9839346,14.7014197 L76.2427529,14.7014197 C77.7571229,16.8135674 79.3511727,18.4574312 81.0249501,19.6330606 C82.1607276,18.1983942 83.1470459,16.5545304 83.9839346,14.7014197 Z M66.1403614,1.40093377 L66.2300276,1.31126758 C70.0956563,2.04852666 71.9786276,3.26398963 71.878998,4.95769293 C71.6797388,6.37243334 70.8827139,7.17942105 69.4878994,7.37868026 C68.7904922,7.39860618 68.32224,6.91042843 68.083129,5.91413237 C67.6049069,4.12079946 66.9573241,2.61641497 66.1403614,1.40093377 Z M111.906508,1.43082251 L117.346258,2.17804082 L116.031153,3.40347885 L116.031153,11.9516563 L118.213031,11.9516563 L120.424797,8.99267181 L124.190777,11.8321014 C124.330259,11.9516569 124.399998,12.0612478 124.399998,12.1608774 C124.340221,12.4597663 124.031374,12.6291341 123.473448,12.6689859 L116.031153,12.6689859 L116.031153,16.9131859 C116.031153,17.8098524 116.071005,21.207171 116.150708,27.1052437 C116.170634,27.5635398 115.971378,27.8225729 115.552934,27.8823507 C114.357378,28.1015358 113.141915,28.2011639 111.906508,28.181238 C112.026064,23.0204244 112.085841,19.6629571 112.085841,18.1087352 L112.085841,12.6689859 L105.420653,12.6689859 L105.420653,11.9516563 L112.085841,11.9516563 L112.085841,7.64767885 C112.065915,5.45582751 112.006138,3.38356279 111.906508,1.43082251 Z M102.939889,20.7389437 L107.841641,18.2880676 L107.931307,18.3777338 C105.739456,21.107585 103.567563,23.4488456 101.415563,25.4015859 L100.728122,26.8362451 L97.858804,22.8909324 C98.8152482,22.3330066 99.2735376,21.5957586 99.2336857,20.6791662 L99.2336857,11.8918789 L95.5274829,11.8918789 L95.5274829,11.1745493 L98.5761336,11.1745493 L99.7716829,9.14211547 L104.254993,11.3239929 L102.939889,12.6689859 L102.939889,20.7389437 Z M98.2473575,1.49059997 L98.307135,1.37104504 C102.19269,2.04852636 104.085624,3.28391495 103.985994,5.07724786 C103.826587,6.53184011 103.029562,7.33882782 101.594896,7.49823519 C100.698229,7.49823519 100.140312,7.02002025 99.9211266,6.06357603 C99.5226081,4.19053944 98.9646907,2.66622933 98.2473575,1.49059997 Z M137.467872,5.0174704 L137.408095,4.838138 C141.672242,3.88169378 144.810527,3.01492921 146.823045,2.23781828 C148.197934,1.73967025 149.443285,1.19171564 150.559137,0.593938 L154.205562,3.94147603 L152.442127,3.94147603 C150.987535,4.16066116 149.403448,4.35991739 147.689819,4.53925068 L147.689819,10.0686662 L150.499359,10.0686662 L152.38235,7.55801265 L155.550555,9.94911125 C155.670111,10.0288149 155.729888,10.1483687 155.729888,10.307776 C155.650184,10.5867389 155.341337,10.7461439 154.803337,10.7859958 L147.689819,10.7859958 L147.689819,15.9567465 L149.094589,15.9567465 L150.170583,13.9840901 L154.444672,16.1360789 L153.279011,17.3615169 L153.279011,20.8584986 C153.279011,22.2134612 153.318863,24.1362838 153.398566,26.6270239 C153.458344,27.1849497 153.2292,27.5037597 152.711126,27.5834634 C151.874237,27.7627967 150.848067,27.8723876 149.632586,27.9122394 L149.632586,25.0728099 L142.250069,25.0728099 L142.250069,26.6270239 C142.269995,27.2447275 141.991036,27.6033887 141.413185,27.7030183 C140.377037,27.9022775 139.420607,28.0019056 138.543866,28.0019056 C138.62357,25.1126471 138.663421,23.0702708 138.663421,21.8747155 L138.663421,20.4699451 C136.989644,22.4824631 135.266078,24.3056576 133.492671,25.9395831 L132.924785,27.4639084 L130.085355,23.6979282 C130.962096,23.2197061 131.380534,22.5223093 131.340682,21.6057169 L131.340682,12.4896535 L127.694257,12.4896535 L127.694257,11.7723239 L130.862462,11.7723239 L131.998234,9.71000139 L136.003324,11.7424352 L134.867552,12.9379845 L134.867552,21.5459394 L138.663421,19.9319479 L138.663421,19.4537282 C138.663421,17.4013583 138.643496,15.887011 138.603644,14.9106408 L142.519068,15.9567465 L143.983616,15.9567465 L143.983616,10.7859958 L136.870097,10.7859958 L136.870097,10.0686662 L143.983616,10.0686662 L143.983616,4.838138 C141.453024,4.97761945 139.281131,5.03739632 137.467872,5.0174704 Z M149.632586,16.674076 L142.250069,16.674076 L142.250069,24.3554803 L149.632586,24.3554803 L149.632586,16.674076 Z M130.20491,1.37104504 L130.294576,1.28137885 C134.100427,1.91900833 135.983399,3.13447129 135.943547,4.9278042 C135.704436,6.36247053 134.857597,7.17942105 133.403004,7.37868026 C132.685671,7.37868026 132.237345,6.96024219 132.058011,6.1233535 C131.699345,4.44957611 131.081651,2.86548914 130.20491,1.37104504 Z" id="夜猫设计话"></path>
                            </g>
                        </g>
                    </g>
                </g>
            </g>
            <path d="M0,66.7589099 L0,22 L14.7192776,22 C18.3031196,22 21.4709325,22.6287498 24.2228112,23.8862683 C26.9746898,25.1437869 29.2892198,26.8169008 31.1664704,28.9056604 C33.0437209,30.9944199 34.4623038,33.3815379 35.4222615,36.067086 C36.3822192,38.752634 36.8621908,41.5233959 36.8621908,44.3794549 C36.8621908,47.2355139 36.3822192,50.0062759 35.4222615,52.6918239 C34.4623038,55.3773719 33.0437209,57.7644899 31.1664704,59.8532495 C29.2892198,61.942009 26.9746898,63.615123 24.2228112,64.8726415 C21.4709325,66.13016 18.3031196,66.7589099 14.7192776,66.7589099 L0,66.7589099 Z M14.4632901,58.7662474 C16.2978759,58.7662474 18.0151078,58.3932602 19.6150373,57.6472746 C21.2149668,56.9012891 22.6228836,55.8888953 23.83883,54.6100629 C25.0547764,53.3312305 26.0147197,51.8179682 26.7186887,50.0702306 C27.4226576,48.322493 27.7746368,46.4255868 27.7746368,44.3794549 C27.7746368,42.3333231 27.4226576,40.4364168 26.7186887,38.6886792 C26.0147197,36.9409416 25.0547764,35.4276794 23.83883,34.148847 C22.6228836,32.8700146 21.2149668,31.8576208 19.6150373,31.1116352 C18.0151078,30.3656497 16.2978759,29.9926625 14.4632901,29.9926625 L9.08755399,29.9926625 L9.08755399,58.7662474 L14.4632901,58.7662474 Z M68.9886141,66.7589099 L68.9886141,63.4339623 C67.3246874,64.9259334 65.5647914,65.9809543 63.7088732,66.5990566 C61.852955,67.2171589 59.9010703,67.5262055 57.8531606,67.5262055 C55.5492621,67.5262055 53.4053888,67.1105912 51.4214762,66.2793501 C49.4375637,65.4481091 47.7309979,64.2652068 46.3017275,62.730608 C44.8724572,61.1960091 43.7418573,59.3630435 42.909894,57.2316562 C42.0779307,55.1002689 41.6619552,52.7344644 41.6619552,50.1341719 C41.6619552,47.5338794 42.0779307,45.1680749 42.909894,43.0366876 C43.7418573,40.9053003 44.8724572,39.0723347 46.3017275,37.5377358 C47.7309979,36.003137 49.4375637,34.8202348 51.4214762,33.9889937 C53.4053888,33.1577527 55.5492621,32.7421384 57.8531606,32.7421384 C59.8584055,32.7421384 61.7889581,33.0405281 63.6448763,33.6373166 C65.5007945,34.234105 67.2606905,35.2784691 68.9246172,36.7704403 L68.9246172,33.7012579 L77.3722026,33.7012579 L77.3722026,66.7589099 L68.9886141,66.7589099 Z M68.4126423,46.10587 C67.1753635,44.1876214 65.7461146,42.8555243 64.1248528,42.1095388 C62.5035909,41.3635532 60.9890137,40.990566 59.5810758,40.990566 C58.4291266,40.990566 57.3305248,41.182388 56.2852375,41.5660377 C55.2399503,41.9496875 54.3120051,42.5144966 53.5013742,43.2604822 C52.6907432,44.0064677 52.040115,44.9549209 51.54947,46.10587 C51.0588249,47.2568192 50.8135061,48.599573 50.8135061,50.1341719 C50.8135061,51.6687708 51.0588249,53.0115246 51.54947,54.1624738 C52.040115,55.3134229 52.6907432,56.2618761 53.5013742,57.0078616 C54.3120051,57.7538472 55.2399503,58.3186564 56.2852375,58.7023061 C57.3305248,59.0859558 58.4291266,59.2777778 59.5810758,59.2777778 C60.9890137,59.2777778 62.5035909,58.9154474 64.1248528,58.1907757 C65.7461146,57.466104 67.1753635,56.1446637 68.4126423,54.2264151 L68.4126423,46.10587 Z M85.1158225,73.4727463 C85.8411239,73.7285128 86.5130842,73.909678 87.1317236,74.0162474 C87.750363,74.1228167 88.336995,74.1761006 88.8916372,74.1761006 C90.8115526,74.1761006 92.3581279,73.5793211 93.5314095,72.3857442 C94.7046911,71.1921673 95.6753004,69.6362779 96.4432666,67.7180294 L97.2112289,65.7997904 L81.8519827,33.7012579 L92.2194739,33.7012579 L101.627012,55.1855346 L109.81861,33.7012579 L120.186101,33.7012579 L104.31488,69.9559748 C103.41892,72.0021067 102.458976,73.8350723 101.435022,75.4549266 C100.411067,77.074781 99.3017989,78.4495052 98.1071849,79.5791405 C96.9125709,80.7087757 95.5899824,81.5613179 94.1393797,82.1367925 C92.6887769,82.712267 91.0888715,83 89.3396152,83 C87.4196999,83 85.2438284,82.616356 82.8119356,81.8490566 L85.1158225,73.4727463 Z M150.072634,66.7589099 L150.072634,63.4339623 C148.408708,64.9259334 146.648812,65.9809543 144.792894,66.5990566 C142.936975,67.2171589 140.985091,67.5262055 138.937181,67.5262055 C136.633283,67.5262055 134.489409,67.1105912 132.505497,66.2793501 C130.521584,65.4481091 128.815018,64.2652068 127.385748,62.730608 C125.956478,61.1960091 124.825878,59.3630435 123.993914,57.2316562 C123.161951,55.1002689 122.745976,52.7344644 122.745976,50.1341719 C122.745976,47.5338794 123.161951,45.1680749 123.993914,43.0366876 C124.825878,40.9053003 125.956478,39.0723347 127.385748,37.5377358 C128.815018,36.003137 130.521584,34.8202348 132.505497,33.9889937 C134.489409,33.1577527 136.633283,32.7421384 138.937181,32.7421384 C140.857096,32.7421384 142.691655,33.0085578 144.440911,33.5414046 C146.190167,34.0742514 147.875401,35.001391 149.496663,36.3228512 L149.496663,22 L158.456223,22 L158.456223,66.7589099 L150.072634,66.7589099 Z M149.496663,46.10587 C148.259384,44.1876214 146.830135,42.8555243 145.208873,42.1095388 C143.587611,41.3635532 142.073034,40.990566 140.665096,40.990566 C139.513147,40.990566 138.414545,41.182388 137.369258,41.5660377 C136.323971,41.9496875 135.406692,42.5144966 134.617393,43.2604822 C133.828094,44.0064677 133.188132,44.9549209 132.697487,46.10587 C132.206842,47.2568192 131.961523,48.599573 131.961523,50.1341719 C131.961523,51.6687708 132.206842,53.0115246 132.697487,54.1624738 C133.188132,55.3134229 133.828094,56.2618761 134.617393,57.0078616 C135.406692,57.7538472 136.323971,58.3186564 137.369258,58.7023061 C138.414545,59.0859558 139.513147,59.2777778 140.665096,59.2777778 C142.073034,59.2777778 143.587611,58.9154474 145.208873,58.1907757 C146.830135,57.466104 148.259384,56.1446637 149.496663,54.2264151 L149.496663,46.10587 Z M192.822536,66.7589099 L192.822536,63.4339623 C191.15861,64.9259334 189.398714,65.9809543 187.542795,66.5990566 C185.686877,67.2171589 183.734993,67.5262055 181.687083,67.5262055 C179.383184,67.5262055 177.239311,67.1105912 175.255399,66.2793501 C173.271486,65.4481091 171.56492,64.2652068 170.13565,62.730608 C168.706379,61.1960091 167.57578,59.3630435 166.743816,57.2316562 C165.911853,55.1002689 165.495878,52.7344644 165.495878,50.1341719 C165.495878,47.5338794 165.911853,45.1680749 166.743816,43.0366876 C167.57578,40.9053003 168.706379,39.0723347 170.13565,37.5377358 C171.56492,36.003137 173.271486,34.8202348 175.255399,33.9889937 C177.239311,33.1577527 179.383184,32.7421384 181.687083,32.7421384 C183.692328,32.7421384 185.62288,33.0405281 187.478799,33.6373166 C189.334717,34.234105 191.094613,35.2784691 192.758539,36.7704403 L192.758539,33.7012579 L201.206125,33.7012579 L201.206125,66.7589099 L192.822536,66.7589099 Z M192.246565,46.10587 C191.009286,44.1876214 189.580037,42.8555243 187.958775,42.1095388 C186.337513,41.3635532 184.822936,40.990566 183.414998,40.990566 C182.263049,40.990566 181.164447,41.182388 180.11916,41.5660377 C179.073873,41.9496875 178.145927,42.5144966 177.335296,43.2604822 C176.524665,44.0064677 175.874037,44.9549209 175.383392,46.10587 C174.892747,47.2568192 174.647428,48.599573 174.647428,50.1341719 C174.647428,51.6687708 174.892747,53.0115246 175.383392,54.1624738 C175.874037,55.3134229 176.524665,56.2618761 177.335296,57.0078616 C178.145927,57.7538472 179.073873,58.3186564 180.11916,58.7023061 C181.164447,59.0859558 182.263049,59.2777778 183.414998,59.2777778 C184.822936,59.2777778 186.337513,58.9154474 187.958775,58.1907757 C189.580037,57.466104 191.009286,56.1446637 192.246565,54.2264151 L192.246565,46.10587 Z M208.949745,73.4727463 C209.675046,73.7285128 210.347006,73.909678 210.965646,74.0162474 C211.584285,74.1228167 212.170917,74.1761006 212.725559,74.1761006 C214.645475,74.1761006 216.19205,73.5793211 217.365332,72.3857442 C218.538613,71.1921673 219.509223,69.6362779 220.277189,67.7180294 L221.045151,65.7997904 L205.685905,33.7012579 L216.053396,33.7012579 L225.460934,55.1855346 L233.652532,33.7012579 L244.020024,33.7012579 L228.148803,69.9559748 C227.252842,72.0021067 226.292899,73.8350723 225.268944,75.4549266 C224.244989,77.074781 223.135721,78.4495052 221.941107,79.5791405 C220.746493,80.7087757 219.423905,81.5613179 217.973302,82.1367925 C216.522699,82.712267 214.922794,83 213.173537,83 C211.253622,83 209.077751,82.616356 206.645858,81.8490566 L208.949745,73.4727463 Z M309.808795,32.7421384 C312.112693,32.7421384 314.256566,33.1577527 316.240479,33.9889937 C318.224392,34.8202348 319.930957,36.003137 321.360228,37.5377358 C322.789498,39.0723347 323.920098,40.9053003 324.752061,43.0366876 C325.584025,45.1680749 326,47.5338794 326,50.1341719 C326,52.7344644 325.584025,55.1002689 324.752061,57.2316562 C323.920098,59.3630435 322.789498,61.1960091 321.360228,62.730608 C319.930957,64.2652068 318.224392,65.4481091 316.240479,66.2793501 C314.256566,67.1105912 312.112693,67.5262055 309.808795,67.5262055 C307.888879,67.5262055 306.043655,67.259786 304.273066,66.7269392 C302.502478,66.1940924 300.82791,65.2669528 299.249313,63.9454927 L299.249313,81.7851153 L290.289753,81.7851153 L290.289753,33.7012579 L298.673341,33.7012579 L298.673341,36.8343816 C300.337268,35.3424104 302.097164,34.2873895 303.953082,33.6692872 C305.809,33.0511849 307.760885,32.7421384 309.808795,32.7421384 Z M256.819395,33.7012579 L256.819395,51.3490566 C256.819395,52.7131445 257.02205,53.8747331 257.427366,54.8338574 C257.832681,55.7929817 258.365983,56.59224 259.027287,57.2316562 C259.688591,57.8710724 260.44588,58.3399706 261.299176,58.6383648 C262.152471,58.936759 263.027086,59.0859539 263.923047,59.0859539 C265.544309,59.0859539 267.144214,58.649026 268.722811,57.7751572 C270.301408,56.9012884 271.517336,55.633132 272.370632,53.9706499 L272.370632,33.7012579 L281.330192,33.7012579 L281.330192,66.7589099 L272.370632,66.7589099 L272.370632,63.8815514 C270.920029,64.9898728 269.320124,65.8743852 267.570868,66.5351153 C265.821611,67.1958454 263.923057,67.5262055 261.875147,67.5262055 C257.651333,67.5262055 254.259534,66.2047651 251.699647,63.5618449 C249.139759,60.9189246 247.859835,57.082485 247.859835,52.0524109 L247.859835,33.7012579 L256.819395,33.7012579 Z M308.080879,40.990566 C306.630277,40.990566 305.094367,41.3635532 303.473106,42.1095388 C301.851844,42.8555243 300.443927,44.1876214 299.249313,46.10587 L299.249313,46.10587 L299.249313,54.2264151 C300.443927,56.1446637 301.851844,57.466104 303.473106,58.1907757 C305.094367,58.9154474 306.630277,59.2777778 308.080879,59.2777778 C309.232829,59.2777778 310.33143,59.0859558 311.376718,58.7023061 C312.422005,58.3186564 313.339284,57.7538472 314.128583,57.0078616 C314.917881,56.2618761 315.557843,55.3134229 316.048488,54.1624738 C316.539133,53.0115246 316.784452,51.6687708 316.784452,50.1341719 C316.784452,48.599573 316.539133,47.2568192 316.048488,46.10587 C315.557843,44.9549209 314.917881,44.0064677 314.128583,43.2604822 C313.339284,42.5144966 312.422005,41.9496875 311.376718,41.5660377 C310.33143,41.182388 309.232829,40.990566 308.080879,40.990566 Z" id="Daydayup" fill-rule="nonzero"></path>
            <g id="Group" transform="translate(3.000000, 33.000000)">
                <path d="M1.3170925,25.8176961 L1.3170925,25.8176961 C0.632998912,25.8176961 0.0730666771,20.406202 0.0730666771,20.406202 C0.0730666771,19.953516 0.632998912,19.583072 1.3170925,19.583072 C2.00118609,19.583072 2.56097643,19.953516 2.56097643,20.406202 C2.56097643,20.406202 2.00118609,25.8176961 1.3170925,25.8176961" id="Fill-4"></path>
                <path d="M29.9745265,7.81130397 C29.9745265,8.09297211 29.7464953,8.32137471 29.4649683,8.32137471 C29.1835832,8.32137471 28.9552682,8.09297211 28.9552682,7.81130397 C28.9552682,7.52963583 29.1835832,7.30123322 29.4649683,7.30123322 C29.7464953,7.30123322 29.9745265,7.52963583 29.9745265,7.81130397 M17.82587,14.4834156 C16.9638355,16.936613 14.2782608,18.2256389 11.8275286,17.3625953 C9.93318103,16.6955687 8.6461599,14.9913558 8.68518204,13.0942505 C8.69185128,13.0226617 8.72008912,12.9834582 8.7864977,12.9522091 C9.28030515,12.7648565 9.80930347,12.6208265 10.4536654,12.4728193 C10.5136886,12.4563425 10.5976926,12.5023639 10.5893206,12.59185 C10.4274142,13.8820123 11.1769231,15.1356699 12.4523085,15.5848048 C12.685448,15.6669048 12.9218513,15.7151989 13.1569774,15.7339483 C13.2652461,15.7424708 13.30739,15.6289797 13.2323256,15.5610839 C12.8076228,15.1778562 12.6302494,14.563527 12.8317456,13.9898217 C13.0995084,13.2277695 13.9337308,12.8273547 14.6948754,13.0955289 C15.2390569,13.2871428 15.597493,13.7685212 15.6599284,14.3060059 C15.6707127,14.3984749 15.7798328,14.4220538 15.8307744,14.3339881 C15.9170488,14.1851287 15.9906943,14.0261843 16.049866,13.8580073 C16.3128043,13.1097331 16.248808,12.344698 15.9225829,11.6861939 C15.8851216,11.5981283 15.9501112,11.5344937 16.003607,11.5276757 C16.6652806,11.4269683 17.1850555,11.34359 17.6416855,11.2471439 C17.7546369,11.2261218 17.7984836,11.2964323 17.8206198,11.3467149 C18.1845899,12.338022 18.2033205,13.4092984 17.82587,14.4834156 M25.2304275,4.95257832 C26.9266845,4.01609923 28.4380474,1.55352711 28.2381122,0.41478104 C28.2043403,0.223025121 28.1074235,0.107403404 27.9547405,0.0551321613 C27.6265288,-0.0570805614 27.2869653,0.208394855 27.2844111,0.209389145 C24.5037643,2.23461573 22.6368032,2.81869005 20.8321357,3.31782361 C18.3682068,3.99948039 11.8638546,4.69605152 10.6970217,4.9545669 C7.38283585,5.68906309 4.79531322,7.78573651 3.71957924,10.8468712 C3.0188835,12.8402805 3.19086472,15.2068326 3.20179092,17.1874582 C3.21271712,19.1501865 3.16887042,20.7639191 3.37902238,21.4349228 C3.38711061,21.4604903 3.39605023,21.4837851 3.40541554,21.5060856 C3.41648364,21.5332155 3.42953832,21.559067 3.44429578,21.5843504 C3.44897844,21.5923047 3.45366109,21.600259 3.45848565,21.6077872 C3.47026324,21.6259685 3.48260843,21.6435817 3.4963726,21.6604846 C3.51283285,21.6809385 3.529435,21.6992619 3.54617904,21.7155967 C3.55228068,21.7215624 3.55838233,21.7275281 3.56490967,21.7330677 C3.57654536,21.7435788 3.58832295,21.7536638 3.59967485,21.7627544 C3.60237092,21.7636067 3.60549269,21.7644589 3.60818877,21.7654532 C3.65458964,21.7992591 3.70453798,21.8290877 3.76158125,21.8492576 C3.94917132,21.9151648 4.1464105,21.881217 4.29923539,21.7773847 C4.30292476,21.775112 4.30732362,21.7738336 4.31101299,21.7712769 C4.31186438,21.7705667 4.31271577,21.7695724 4.31370906,21.7687201 C4.38011765,21.7207101 4.43716092,21.6593483 4.48015623,21.5861969 C4.48086572,21.5852026 4.48157521,21.5844924 4.48228471,21.5836402 C4.84966042,21.0950177 5.09855072,20.1970318 5.53162553,19.460547 C6.46120385,17.8740864 8.13504081,17.8711035 10.12517,18.6597175 C10.4755178,18.7987761 10.8092635,18.9138296 11.1259814,19.0091394 C11.1623075,19.0226333 11.1977822,19.0375477 11.234392,19.0503314 C11.9653122,19.3078525 12.7114155,19.4258889 13.4440384,19.4196391 C13.4473021,19.4197812 13.4508496,19.4199232 13.4541132,19.4200652 C13.4570931,19.4202073 13.4587959,19.4199232 13.4612082,19.4197812 C16.0193578,19.3908047 18.4087898,17.8380079 19.408608,15.348732 C19.8123098,14.4669388 20.7015889,11.6381839 21.0100767,10.8911881 C21.1007499,10.6940346 21.1743953,10.6607969 21.3448157,10.6069632 C21.9010585,10.4600924 22.2775158,10.3244428 22.4436791,10.273734 C23.0654792,10.0839667 25.7238093,8.94436839 27.2473755,6.06632511 C27.564661,5.46733644 27.9574366,4.4587003 28.1482903,3.49779009 C28.1656019,3.4107187 28.073084,3.36725402 28.0089458,3.43117266 C27.2825664,4.15728841 26.3051682,4.81920143 25.2474554,5.03666685 C25.1584849,5.05484815 25.1447207,4.99987812 25.2304275,4.95257832" id="Fill-6"></path>
            </g>
        </g>
    </g>
</svg>