<?xml version="1.0" encoding="UTF-8"?>
<svg width="1200px" height="200px" viewBox="0 0 1200 200" version="1.1" xmlns="http://www.w3.org/2000/svg" xmlns:xlink="http://www.w3.org/1999/xlink">
    <!-- Generator: Sketch 58 (84663) - https://sketch.com -->
    <title>PC端banner模板备份 7</title>
    <desc>Created with Sketch.</desc>
    <g id="PC端banner模板备份-7" stroke="none" stroke-width="1" fill="none" fill-rule="evenodd">
        <rect fill="#000000" x="0" y="0" width="1200" height="200"></rect>
        <g id="编组-2" transform="translate(419.000000, 67.000000)">
            <g id="编组">
                <polygon id="矩形" fill="#FF3040" opacity="0.5" points="9.07534247 34.1241156 351 34.1241156 341.924658 46.1241156 3.41129468e-13 46.1241156"></polygon>
                <path d="M10.554,21.47 L10.554,38.498 L13.953,38.498 L13.953,16.124 C15.141,13.88 16.098,11.537 16.824,9.062 L13.59,7.544 C12.138,12.626 9.894,17.048 6.924,20.81 L8.079,24.506 C8.937,23.516 9.762,22.526 10.554,21.47 Z M16.065,11.735 L16.065,14.969 L37.812,14.969 L37.812,11.735 L28.935,11.735 C28.605,10.547 28.11,9.227 27.45,7.808 L24.15,8.699 C24.645,9.689 25.107,10.679 25.536,11.735 L16.065,11.735 Z M19.035,16.718 L19.035,19.787 L35.04,19.787 L35.04,16.718 L19.035,16.718 Z M19.035,21.371 L19.035,24.473 L35.04,24.473 L35.04,21.371 L19.035,21.371 Z M35.766,26.288 L18.276,26.288 L18.276,38.432 L21.642,38.432 L21.642,36.782 L32.433,36.782 L32.433,38.432 L35.766,38.432 L35.766,26.288 Z M21.642,33.515 L21.642,29.489 L32.433,29.489 L32.433,33.515 L21.642,33.515 Z M44.973,10.052 L44.973,26.915 L66.291,26.915 L66.291,10.052 L55.995,10.052 C56.325,9.425 56.589,8.765 56.787,8.072 L53.157,7.577 C52.959,8.435 52.662,9.26 52.266,10.052 L44.973,10.052 Z M62.958,24.011 L48.306,24.011 L48.306,22.097 L62.958,22.097 L62.958,24.011 Z M48.306,19.391 L48.306,17.543 L62.958,17.543 L62.958,19.391 L48.306,19.391 Z M48.306,14.837 L48.306,12.989 L62.958,12.989 L62.958,14.837 L48.306,14.837 Z M43.158,28.73 C42.63,31.106 41.673,33.383 40.32,35.495 L43.224,37.376 C44.577,35.132 45.633,32.459 46.392,29.39 L43.158,28.73 Z M59.823,37.937 C61.143,37.937 62.133,37.673 62.793,37.178 C63.486,36.65 63.981,34.967 64.278,32.129 L60.978,31.04 L60.9412881,31.6290658 C60.8333704,33.127963 60.6443333,34.0503333 60.351,34.373 C60.087,34.703 59.691,34.901 59.163,34.901 L52.431,34.901 C51.771,34.901 51.474,34.538 51.474,33.878 L51.474,28.697 L47.976,28.697 L47.976,34.637 C47.976,36.815 49.131,37.937 51.441,37.937 L59.823,37.937 Z M55.896,27.344 L53.355,28.928 C54.84,30.578 56.028,32.096 56.886,33.416 L59.493,31.634 C58.635,30.413 57.414,28.994 55.896,27.344 Z M66.39,28.004 L63.684,29.687 C65.532,32.261 66.984,34.571 68.04,36.65 L70.812,34.736 C69.756,32.822 68.304,30.578 66.39,28.004 Z M76.686,21.767 L76.686,30.413 L86.751,30.413 L86.751,31.7 L76.059,31.7 L76.059,33.911 L86.751,33.911 L86.751,35.297 L73.617,35.297 L73.617,37.871 L103.383,37.871 L103.383,35.297 L90.183,35.297 L90.183,33.911 L101.007,33.911 L101.007,31.7 L90.183,31.7 L90.183,30.413 L100.38,30.413 L100.38,21.767 L76.686,21.767 Z M97.113,28.433 L90.183,28.433 L90.183,27.014 L97.113,27.014 L97.113,28.433 Z M86.751,28.433 L79.953,28.433 L79.953,27.014 L86.751,27.014 L86.751,28.433 Z M79.953,25.166 L79.953,23.78 L86.751,23.78 L86.751,25.166 L79.953,25.166 Z M90.183,23.78 L97.113,23.78 L97.113,25.166 L90.183,25.166 L90.183,23.78 Z M77.412,8.369 L77.412,16.85 L99.687,16.85 L99.687,8.369 L77.412,8.369 Z M96.387,14.936 L80.712,14.936 L80.712,13.583 L96.387,13.583 L96.387,14.936 Z M80.712,11.669 L80.712,10.316 L96.387,10.316 L96.387,11.669 L80.712,11.669 Z M73.617,18.104 L73.617,20.546 L103.383,20.546 L103.383,18.104 L73.617,18.104 Z M106.848,14.54 L106.848,17.906 L118.794,17.906 C117.177,26.156 112.887,32.03 105.957,35.528 L108.168,38.465 C111.303,36.749 113.976,34.571 116.187,31.865 C117.903,33.68 119.454,35.561 120.873,37.541 L123.348,35.066 C121.368,32.69 119.619,30.743 118.068,29.258 C119.487,26.948 120.609,24.374 121.434,21.503 C124.074,28.697 128.529,34.373 134.799,38.465 L136.977,35.627 C130.311,31.502 125.79,25.595 123.414,17.906 L136.185,17.906 L136.185,14.54 L122.721,14.54 C122.919,12.824 123.018,11.042 123.018,9.161 L123.018,8.006 L119.52,8.006 L119.52,9.953 C119.52,11.537 119.421,13.055 119.289,14.54 L106.848,14.54 Z M139.881,16.19 L139.881,19.556 L151.794,19.556 C150.012,27.113 145.788,32.525 139.122,35.759 L141.333,38.663 C147.933,35.198 152.355,29.786 154.599,22.427 C157.107,29.225 161.496,34.538 167.7,38.366 L169.878,35.528 C163.443,31.766 159.054,26.453 156.678,19.556 L169.119,19.556 L169.119,16.19 L155.886,16.19 C156.117,14.276 156.249,12.23 156.249,10.085 L156.249,7.907 L152.751,7.907 L152.751,10.877 C152.718,12.725 152.586,14.474 152.388,16.19 L139.881,16.19 Z M209.181,14.804 L199.677,14.804 C199.908,13.946 200.106,13.088 200.271,12.164 L213.141,12.164 L213.141,8.93 L183.837,8.93 L183.837,12.164 L196.542,12.164 C196.41,13.088 196.245,13.946 196.047,14.804 L187.665,14.804 L187.665,30.974 L191.13,30.974 L191.13,18.17 L205.716,18.17 L205.716,30.974 L209.181,30.974 L209.181,14.804 Z M200.997,30.446 L199.083,33.317 C202.944,34.571 206.706,36.287 210.369,38.531 L212.514,35.264 C209.049,33.35 205.221,31.766 200.997,30.446 Z M196.74,19.589 L196.74,24.836 C196.542,27.542 195.618,29.753 193.968,31.436 C192.285,32.987 189.018,34.307 184.2,35.363 L186.18,38.432 C190.998,37.31 194.496,35.759 196.608,33.713 C198.819,31.502 200.04,28.532 200.238,24.836 L200.238,19.589 L196.74,19.589 Z M216.672,8.93 L216.672,12.23 L229.905,12.23 C229.674,13.319 229.377,14.375 228.981,15.398 L218.223,15.398 L218.223,38.531 L221.556,38.531 L221.556,37.244 L241.521,37.244 L241.521,38.531 L244.854,38.531 L244.854,15.398 L232.446,15.398 C232.842,14.375 233.139,13.319 233.403,12.23 L246.339,12.23 L246.339,8.93 L216.672,8.93 Z M221.556,34.076 L221.556,18.533 L225.021,18.533 L225.021,34.076 L221.556,34.076 Z M228.222,34.076 L228.222,30.776 L234.756,30.776 L234.756,34.076 L228.222,34.076 Z M237.957,34.076 L237.957,18.533 L241.521,18.533 L241.521,34.076 L237.957,34.076 Z M228.222,27.839 L228.222,24.671 L234.756,24.671 L234.756,27.839 L228.222,27.839 Z M228.222,21.701 L228.222,18.533 L234.756,18.533 L234.756,21.701 L228.222,21.701 Z M257.427,14.21 L258.747,14.21 L258.747,26.717 L262.245,26.717 L262.245,24.44 L275.874,24.44 L275.874,21.404 L262.245,21.404 L262.245,19.358 L274.884,19.358 L274.884,16.388 L262.245,16.388 L262.245,14.21 L277.359,14.21 L277.359,11.009 L259.077,11.009 C259.44,10.217 259.803,9.425 260.133,8.633 L256.8,7.874 C254.886,12.263 252.675,15.662 250.101,18.071 L252.444,20.843 C254.259,18.995 255.909,16.784 257.427,14.21 Z M252.873,27.674 C252.213,30.281 251.091,32.723 249.474,35.033 L252.477,36.914 C254.061,34.538 255.315,31.667 256.173,28.367 L252.873,27.674 Z M266.271,26.321 L263.235,27.344 C264.291,28.928 265.248,30.776 266.106,32.855 L269.142,31.502 C268.317,29.654 267.36,27.905 266.271,26.321 Z M275.28,27.113 L272.178,28.136 C273.795,30.38 275.247,32.987 276.567,35.891 L279.603,34.538 C278.382,31.898 276.93,29.423 275.28,27.113 Z M269.34,37.904 C270.627,37.904 271.584,37.64 272.178,37.145 C272.838,36.617 273.3,34.901 273.564,32.063 L270.33,31.007 C270.231,32.723 270.033,33.746 269.769,34.076 C269.538,34.406 269.175,34.571 268.713,34.571 L262.377,34.571 C261.651,34.571 261.321,34.274 261.321,33.68 L261.321,27.905 L257.856,27.905 L257.856,34.406 C257.856,36.716 258.978,37.904 261.288,37.904 L269.34,37.904 Z M305.013,23.813 L301.713,24.869 C303.099,26.981 304.419,29.258 305.706,31.733 C301.152,32.36 296.532,32.855 291.846,33.218 L292.371938,32.6512209 C295.742063,28.9518425 299.85675,23.1662 304.716,15.266 L301.218,13.55 C297.456,20.15 293.265,26.09 288.612,31.37 C287.589,32.459 286.632,33.185 285.708,33.581 L286.632,37.079 L288.379124,36.9693808 C295.860046,36.4789388 302.170286,35.7872857 307.257,34.868 C307.719,35.858 308.181,36.914 308.643,38.003 L312.009,36.485 C310.062,31.997 307.719,27.773 305.013,23.813 Z M294.783,7.643 C291.219,14.573 287.061,19.886 282.243,23.648 L284.685,26.552 C290.196,22.031 294.816,16.025 298.545,8.501 L294.783,7.643 Z M326.925,8.897 L326.925,18.962 L344.547,18.962 L344.547,8.897 L326.925,8.897 Z M341.445,16.124 L339.498,16.124 L339.498,11.735 L341.445,11.735 L341.445,16.124 Z M336.693,16.124 L334.779,16.124 L334.779,11.735 L336.693,11.735 L336.693,16.124 Z M331.941,16.124 L329.994,16.124 L329.994,11.735 L331.941,11.735 L331.941,16.124 Z M333.954,19.688 L333.954,21.437 L327.849,21.437 L327.849,24.473 L333.954,24.473 L333.954,26.882 L325.935,26.882 L325.935,30.05 L331.248,30.05 C330.39,31.37 329.334,32.657 328.146,33.911 C327.75,34.307 327.156,34.637 326.298,34.835 L327.222,37.904 L328.801453,37.7872653 C333.728762,37.4062313 337.948571,36.9171429 341.412,36.32 C341.907,37.046 342.369,37.772 342.798,38.498 L345.537,36.584 C344.349,34.736 342.732,32.591 340.62,30.149 L338.013,31.799 L339.465,33.647 C336.891,34.076 334.218,34.406 331.446,34.637 C332.766,33.317 333.954,31.766 335.01,30.05 L345.636,30.05 L345.636,26.882 L337.287,26.882 L337.287,24.473 L343.491,24.473 L343.491,21.437 L337.287,21.437 L337.287,19.688 L333.954,19.688 Z M319.434,38.069 L316.53,38.069 L315.771,34.802 C316.629,34.934 317.454,35 318.246,35 C318.972,35 319.368,34.571 319.368,33.779 L319.368,27.113 C318.18,27.575 316.992,28.004 315.804,28.4 L314.913,24.902 C316.431,24.572 317.916,24.143 319.368,23.615 L319.368,16.916 L315.672,16.916 L315.672,13.583 L319.368,13.583 L319.368,7.94 L322.8,7.94 L322.8,13.583 L325.671,13.583 L325.671,16.916 L322.8,16.916 L322.8,22.163 C323.856,21.635 324.879,21.107 325.902,20.546 L325.902,24.044 C324.846,24.605 323.823,25.133 322.8,25.595 L322.8,34.67 C322.8,36.914 321.678,38.069 319.434,38.069 Z" id="信息量太大页面怎么摆" fill="#A8B2BA" fill-rule="nonzero"></path>
            </g>
            <path d="M8.96,68 L8.96,59.6 L11.72,59.6 C12.3920034,59.6 12.9859974,59.7179988 13.502,59.954 C14.0180026,60.1900012 14.4519982,60.503998 14.804,60.896 C15.1560018,61.288002 15.4219991,61.7359975 15.602,62.24 C15.7820009,62.7440025 15.872,63.2639973 15.872,63.8 C15.872,64.3360027 15.7820009,64.8559975 15.602,65.36 C15.4219991,65.8640025 15.1560018,66.311998 14.804,66.704 C14.4519982,67.096002 14.0180026,67.4099988 13.502,67.646 C12.9859974,67.8820012 12.3920034,68 11.72,68 L8.96,68 Z M11.672,66.5 C12.0160017,66.5 12.3379985,66.4300007 12.638,66.29 C12.9380015,66.1499993 13.2019989,65.9600012 13.43,65.72 C13.6580011,65.4799988 13.8379993,65.1960016 13.97,64.868 C14.1020007,64.5399984 14.168,64.1840019 14.168,63.8 C14.168,63.4159981 14.1020007,63.0600016 13.97,62.732 C13.8379993,62.4039984 13.6580011,62.1200012 13.43,61.88 C13.2019989,61.6399988 12.9380015,61.4500007 12.638,61.31 C12.3379985,61.1699993 12.0160017,61.1 11.672,61.1 L10.664,61.1 L10.664,66.5 L11.672,66.5 Z M21.896,68 L21.896,67.376 C21.5839984,67.6560014 21.2540017,67.8539994 20.906,67.97 C20.5579983,68.0860006 20.1920019,68.144 19.808,68.144 C19.3759978,68.144 18.9740019,68.0660008 18.602,67.91 C18.2299981,67.7539992 17.9100013,67.5320014 17.642,67.244 C17.3739987,66.9559986 17.1620008,66.612002 17.006,66.212 C16.8499992,65.811998 16.772,65.3680024 16.772,64.88 C16.772,64.3919976 16.8499992,63.948002 17.006,63.548 C17.1620008,63.147998 17.3739987,62.8040014 17.642,62.516 C17.9100013,62.2279986 18.2299981,62.0060008 18.602,61.85 C18.9740019,61.6939992 19.3759978,61.616 19.808,61.616 C20.1840019,61.616 20.5459983,61.6719994 20.894,61.784 C21.2420017,61.8960006 21.5719984,62.0919986 21.884,62.372 L21.884,61.796 L23.468,61.796 L23.468,68 L21.896,68 Z M21.788,64.124 C21.5559988,63.7639982 21.2880015,63.5140007 20.984,63.374 C20.6799985,63.2339993 20.3960013,63.164 20.132,63.164 C19.9159989,63.164 19.710001,63.1999996 19.514,63.272 C19.317999,63.3440004 19.1440008,63.4499993 18.992,63.59 C18.8399992,63.7300007 18.7180005,63.9079989 18.626,64.124 C18.5339995,64.3400011 18.488,64.5919986 18.488,64.88 C18.488,65.1680014 18.5339995,65.4199989 18.626,65.636 C18.7180005,65.8520011 18.8399992,66.0299993 18.992,66.17 C19.1440008,66.3100007 19.317999,66.4159996 19.514,66.488 C19.710001,66.5600004 19.9159989,66.596 20.132,66.596 C20.3960013,66.596 20.6799985,66.5280007 20.984,66.392 C21.2880015,66.2559993 21.5559988,66.0080018 21.788,65.648 L21.788,64.124 Z M24.92,69.26 C25.0560007,69.3080002 25.1819994,69.3419999 25.298,69.362 C25.4140006,69.3820001 25.5239995,69.392 25.628,69.392 C25.9880018,69.392 26.2779989,69.2800011 26.498,69.056 C26.7180011,68.8319989 26.8999993,68.5400018 27.044,68.18 L27.188,67.82 L24.308,61.796 L26.252,61.796 L28.016,65.828 L29.552,61.796 L31.496,61.796 L28.52,68.6 C28.3519992,68.9840019 28.172001,69.3279985 27.98,69.632 C27.787999,69.9360015 27.5800011,70.1939989 27.356,70.406 C27.1319989,70.6180011 26.8840014,70.7779995 26.612,70.886 C26.3399986,70.9940005 26.0400016,71.048 25.712,71.048 C25.3519982,71.048 24.9440023,70.9760007 24.488,70.832 L24.92,69.26 Z M37.1,68 L37.1,67.376 C36.7879984,67.6560014 36.4580017,67.8539994 36.11,67.97 C35.7619983,68.0860006 35.3960019,68.144 35.012,68.144 C34.5799978,68.144 34.1780019,68.0660008 33.806,67.91 C33.4339981,67.7539992 33.1140013,67.5320014 32.846,67.244 C32.5779987,66.9559986 32.3660008,66.612002 32.21,66.212 C32.0539992,65.811998 31.976,65.3680024 31.976,64.88 C31.976,64.3919976 32.0539992,63.948002 32.21,63.548 C32.3660008,63.147998 32.5779987,62.8040014 32.846,62.516 C33.1140013,62.2279986 33.4339981,62.0060008 33.806,61.85 C34.1780019,61.6939992 34.5799978,61.616 35.012,61.616 C35.3720018,61.616 35.7159984,61.6659995 36.044,61.766 C36.3720016,61.8660005 36.6879985,62.0399988 36.992,62.288 L36.992,59.6 L38.672,59.6 L38.672,68 L37.1,68 Z M36.992,64.124 C36.7599988,63.7639982 36.4920015,63.5140007 36.188,63.374 C35.8839985,63.2339993 35.6000013,63.164 35.336,63.164 C35.1199989,63.164 34.914001,63.1999996 34.718,63.272 C34.521999,63.3440004 34.3500007,63.4499993 34.202,63.59 C34.0539993,63.7300007 33.9340005,63.9079989 33.842,64.124 C33.7499995,64.3400011 33.704,64.5919986 33.704,64.88 C33.704,65.1680014 33.7499995,65.4199989 33.842,65.636 C33.9340005,65.8520011 34.0539993,66.0299993 34.202,66.17 C34.3500007,66.3100007 34.521999,66.4159996 34.718,66.488 C34.914001,66.5600004 35.1199989,66.596 35.336,66.596 C35.6000013,66.596 35.8839985,66.5280007 36.188,66.392 C36.4920015,66.2559993 36.7599988,66.0080018 36.992,65.648 L36.992,64.124 Z M45.116,68 L45.116,67.376 C44.8039984,67.6560014 44.4740017,67.8539994 44.126,67.97 C43.7779983,68.0860006 43.4120019,68.144 43.028,68.144 C42.5959978,68.144 42.1940019,68.0660008 41.822,67.91 C41.4499981,67.7539992 41.1300013,67.5320014 40.862,67.244 C40.5939987,66.9559986 40.3820008,66.612002 40.226,66.212 C40.0699992,65.811998 39.992,65.3680024 39.992,64.88 C39.992,64.3919976 40.0699992,63.948002 40.226,63.548 C40.3820008,63.147998 40.5939987,62.8040014 40.862,62.516 C41.1300013,62.2279986 41.4499981,62.0060008 41.822,61.85 C42.1940019,61.6939992 42.5959978,61.616 43.028,61.616 C43.4040019,61.616 43.7659983,61.6719994 44.114,61.784 C44.4620017,61.8960006 44.7919984,62.0919986 45.104,62.372 L45.104,61.796 L46.688,61.796 L46.688,68 L45.116,68 Z M45.008,64.124 C44.7759988,63.7639982 44.5080015,63.5140007 44.204,63.374 C43.8999985,63.2339993 43.6160013,63.164 43.352,63.164 C43.1359989,63.164 42.930001,63.1999996 42.734,63.272 C42.537999,63.3440004 42.3640008,63.4499993 42.212,63.59 C42.0599992,63.7300007 41.9380005,63.9079989 41.846,64.124 C41.7539995,64.3400011 41.708,64.5919986 41.708,64.88 C41.708,65.1680014 41.7539995,65.4199989 41.846,65.636 C41.9380005,65.8520011 42.0599992,66.0299993 42.212,66.17 C42.3640008,66.3100007 42.537999,66.4159996 42.734,66.488 C42.930001,66.5600004 43.1359989,66.596 43.352,66.596 C43.6160013,66.596 43.8999985,66.5280007 44.204,66.392 C44.5080015,66.2559993 44.7759988,66.0080018 45.008,65.648 L45.008,64.124 Z M48.14,69.26 C48.2760007,69.3080002 48.4019994,69.3419999 48.518,69.362 C48.6340006,69.3820001 48.7439995,69.392 48.848,69.392 C49.2080018,69.392 49.4979989,69.2800011 49.718,69.056 C49.9380011,68.8319989 50.1199993,68.5400018 50.264,68.18 L50.408,67.82 L47.528,61.796 L49.472,61.796 L51.236,65.828 L52.772,61.796 L54.716,61.796 L51.74,68.6 C51.5719992,68.9840019 51.392001,69.3279985 51.2,69.632 C51.007999,69.9360015 50.8000011,70.1939989 50.576,70.406 C50.3519989,70.6180011 50.1040014,70.7779995 49.832,70.886 C49.5599986,70.9940005 49.2600016,71.048 48.932,71.048 C48.5719982,71.048 48.1640023,70.9760007 47.708,70.832 L48.14,69.26 Z M60.032,68 L60.032,67.46 C59.7599986,67.668001 59.4600016,67.8339994 59.132,67.958 C58.8039984,68.0820006 58.4480019,68.144 58.064,68.144 C57.271996,68.144 56.6360024,67.8960025 56.156,67.4 C55.6759976,66.9039975 55.436,66.1840047 55.436,65.24 L55.436,61.796 L57.116,61.796 L57.116,65.108 C57.116,65.3640013 57.1539996,65.5819991 57.23,65.762 C57.3060004,65.9420009 57.4059994,66.0919994 57.53,66.212 C57.6540006,66.3320006 57.7959992,66.4199997 57.956,66.476 C58.1160008,66.5320003 58.2799992,66.56 58.448,66.56 C58.7520015,66.56 59.0519985,66.4780008 59.348,66.314 C59.6440015,66.1499992 59.8719992,65.9120016 60.032,65.6 L60.032,61.796 L61.712,61.796 L61.712,68 L60.032,68 Z M63.392,70.82 L63.392,61.796 L64.964,61.796 L64.964,62.384 C65.2760016,62.1039986 65.6059983,61.9060006 65.954,61.79 C66.3020017,61.6739994 66.6679981,61.616 67.052,61.616 C67.4840022,61.616 67.8859981,61.6939992 68.258,61.85 C68.6300019,62.0060008 68.9499987,62.2279986 69.218,62.516 C69.4860013,62.8040014 69.6979992,63.147998 69.854,63.548 C70.0100008,63.948002 70.088,64.3919976 70.088,64.88 C70.088,65.3680024 70.0100008,65.811998 69.854,66.212 C69.6979992,66.612002 69.4860013,66.9559986 69.218,67.244 C68.9499987,67.5320014 68.6300019,67.7539992 68.258,67.91 C67.8859981,68.0660008 67.4840022,68.144 67.052,68.144 C66.6919982,68.144 66.3460017,68.0940005 66.014,67.994 C65.6819983,67.8939995 65.3680015,67.7200012 65.072,67.472 L65.072,70.82 L63.392,70.82 Z M65.072,65.648 C65.2960011,66.0080018 65.5599985,66.2559993 65.864,66.392 C66.1680015,66.5280007 66.4559986,66.596 66.728,66.596 C66.9440011,66.596 67.149999,66.5600004 67.346,66.488 C67.542001,66.4159996 67.7139993,66.3100007 67.862,66.17 C68.0100007,66.0299993 68.1299995,65.8520011 68.222,65.636 C68.3140005,65.4199989 68.36,65.1680014 68.36,64.88 C68.36,64.5919986 68.3140005,64.3400011 68.222,64.124 C68.1299995,63.9079989 68.0100007,63.7300007 67.862,63.59 C67.7139993,63.4499993 67.542001,63.3440004 67.346,63.272 C67.149999,63.1999996 66.9440011,63.164 66.728,63.164 C66.4559986,63.164 66.1680015,63.2339993 65.864,63.374 C65.5599985,63.5140007 65.2960011,63.7639982 65.072,64.124 L65.072,65.648 Z" id="Daydayup" fill="#A8B2BA" fill-rule="nonzero" opacity="0.400000006"></path>
            <path d="M286.852,65.756 L286.816,65.696 C287.888005,63.9199911 288.539999,62.1600087 288.772,60.416 L290.728,60.992 L290.164,61.34 C290.076,61.5960013 289.984,61.8159991 289.888,62 L291.868,62 L292.408,61.184 L294.244,62.18 L293.632,62.66 C293.095997,64.2920082 292.384004,65.5879952 291.496,66.548 C292.200004,66.8760016 293.279993,67.1159992 294.736,67.268 L294.712,67.34 C294.239998,67.6840017 293.880001,68.251996 293.632,69.044 C292.167993,68.5959978 291.108003,68.0800029 290.452,67.496 C289.491995,68.2160036 288.224008,68.8239975 286.648,69.32 L286.612,69.26 C287.908006,68.3879956 288.943996,67.5240043 289.72,66.668 C289.311998,66.1159972 288.924002,65.2800056 288.556,64.16 C288.147998,64.6400024 287.580004,65.1719971 286.852,65.756 Z M283.408,60.38 L283.408,60.092 L288.412,60.092 C288.219999,60.0359997 288.108,59.8840012 288.076,59.636 C287.98,59.0599971 287.844001,58.6560012 287.668,58.424 L287.716,58.364 C289.060007,58.3399999 289.74,58.6519968 289.756,59.3 C289.732,59.6840019 289.480002,59.9479993 289,60.092 L292.228,60.092 L293.068,58.964 L294.532,60.044 C294.588,60.0840002 294.616,60.1239998 294.616,60.164 C294.584,60.2920006 294.460001,60.3639999 294.244,60.38 L286.24,60.38 L287.896,61.088 L287.272,61.424 C286.911998,62.0400031 286.524002,62.5879976 286.108,63.068 L286.876,63.212 L286.42,63.632 L286.42,68.648 C286.428,68.9120013 286.304001,69.0639998 286.048,69.104 C285.631998,69.1680003 285.244002,69.196 284.884,69.188 C284.932,67.979994 284.956,66.7120066 284.956,65.384 L284.956,64.208 C284.475998,64.616002 283.940003,64.9999982 283.348,65.36 L283.324,65.288 C284.588006,63.6079916 285.443998,61.972008 285.892,60.38 L283.408,60.38 Z M292.06,62.288 L289.78,62.288 C289.708,62.4560008 289.612001,62.6319991 289.492,62.816 C290.596006,63.0720013 291.108,63.4399976 291.028,63.92 C290.972,64.3920024 290.704002,64.6559997 290.224,64.712 C289.943999,64.72 289.784,64.5600016 289.744,64.232 L289.708,63.98 C289.66,63.5639979 289.568001,63.2120014 289.432,62.924 C289.207999,63.316002 288.960001,63.6759984 288.688,64.004 C289.264003,64.8200041 289.827997,65.4399979 290.38,65.864 C291.164004,64.8079947 291.723998,63.6160066 292.06,62.288 Z M305.92,65.54 C305.92,65.9640021 305.932,66.7639941 305.956,67.94 C305.964,68.2680016 305.968,68.4919994 305.968,68.612 C305.984,68.8360011 305.900001,68.9599999 305.716,68.984 C305.419999,69.0560004 305.024002,69.1039999 304.528,69.128 L304.528,68.468 L300.832,68.468 L300.832,68.684 C300.864,68.9400013 300.768001,69.072 300.544,69.08 C300.119998,69.1520004 299.744002,69.184 299.416,69.176 C299.44,68.2799955 299.456,67.2400059 299.464,66.056 L299.464,64.616 C299.456,63.5119945 299.448,62.7760018 299.44,62.408 L301.144,62.804 L304.348,62.804 L304.792,62.036 L306.352,62.828 L305.92,63.356 L305.92,65.54 Z M295.384,62.468 L295.336,62.408 C295.880003,61.8319971 296.343998,61.2640028 296.728,60.704 C296.479999,60.1599973 296.104003,59.5760031 295.6,58.952 L295.648,58.892 C296.272003,59.3320022 296.759998,59.7399981 297.112,60.116 C297.448002,59.5479972 297.711999,58.960003 297.904,58.352 L299.596,59.264 L299.008,59.552 C298.623998,60.0880027 298.212002,60.555998 297.772,60.956 C298.484004,61.9720051 298.824,63.6919879 298.792,66.116 C298.808,68.0280096 298.052008,69.0519993 296.524,69.188 C296.524,68.4359962 296.136004,67.956001 295.36,67.748 L295.372,67.676 L296.512,67.748 C297.112003,67.7319999 297.424,67.124006 297.448,65.924 C297.448,65.4279975 297.44,64.976002 297.424,64.568 C296.895997,65.1360028 296.216004,65.6519977 295.384,66.116 L295.336,66.068 C296.176004,64.9479944 296.823998,63.8280056 297.28,62.708 C297.224,62.2679978 297.140001,61.8760017 297.028,61.532 C296.587998,61.8440016 296.040003,62.1559984 295.384,62.468 Z M298.936,60.5 L298.936,60.224 L300.7,60.224 L300.7,59.852 C300.7,59.2839972 300.692,58.800002 300.676,58.4 L302.428,58.7 L302.02,59.12 L302.02,60.224 L303.292,60.224 L303.292,59.648 C303.292,59.3839987 303.284,58.9720028 303.268,58.412 L305.02,58.712 L304.612,59.12 L304.612,60.224 L304.852,60.224 L305.464,59.336 L306.64,60.188 C306.688,60.2200002 306.712,60.2639997 306.712,60.32 C306.696,60.4320006 306.580001,60.492 306.364,60.5 L304.612,60.5 C304.628,60.892002 304.636,61.2719982 304.636,61.64 C304.636,61.7920008 304.560001,61.8879998 304.408,61.928 C304.127999,61.9920003 303.756002,62.0319999 303.292,62.048 L303.292,60.5 L302.02,60.5 L302.02,61.748 C302.02,61.9240009 301.932001,62.0319998 301.756,62.072 C301.411998,62.1360003 301.060002,62.172 300.7,62.18 L300.7,60.5 L298.936,60.5 Z M300.832,65.708 L300.832,68.18 L302.008,68.18 L302.008,65.708 L300.832,65.708 Z M303.352,65.708 L303.352,68.18 L304.528,68.18 L304.528,65.708 L303.352,65.708 Z M300.832,63.092 L300.832,65.42 L302.008,65.42 L302.008,63.092 L300.832,63.092 Z M304.528,63.092 L303.352,63.092 L303.352,65.42 L304.528,65.42 L304.528,63.092 Z M309.952,69.176 C311.408007,68.3919961 312.551996,67.5840042 313.384,66.752 C312.839997,66.0479965 312.436001,65.0760062 312.172,63.836 L311.152,63.836 L311.152,63.548 L315.268,63.548 L315.808,62.804 L317.584,63.872 L316.984,64.328 C316.519998,65.2240045 316.020003,65.9599971 315.484,66.536 C316.356004,66.9120019 317.427994,67.1679993 318.7,67.304 L318.7,67.376 C318.163997,67.776002 317.752001,68.3519962 317.464,69.104 C316.055993,68.703998 314.984004,68.2120029 314.248,67.628 C313.143994,68.3960038 311.724009,68.9319985 309.988,69.236 L309.952,69.176 Z M311.968,58.508 L313.852,58.952 L314.908,58.952 L315.34,58.232 L316.912,58.988 L316.516,59.468 L316.516,61.088 C316.5,61.3520013 316.619999,61.4760001 316.876,61.46 L317.044,61.46 C317.284001,61.468 317.475999,61.376001 317.62,61.184 L317.668,61.184 C318.316003,61.6560024 318.624,61.995999 318.592,62.204 C318.471999,62.5080015 318.004004,62.6719999 317.188,62.696 L316.324,62.696 C315.459996,62.7440002 315.052,62.2920048 315.1,61.34 L315.1,59.24 L313.504,59.24 L313.504,59.66 C313.632001,61.4760091 312.68801,62.8079958 310.672,63.656 L310.624,63.596 C311.192003,62.9639968 311.563999,62.3960025 311.74,61.892 C311.932001,61.3959975 312.024,60.7160043 312.016,59.852 C312.016,59.3639976 312,58.916002 311.968,58.508 Z M308.644,62.564 L307.372,62.564 L307.372,62.276 L308.452,62.276 L308.884,61.496 L310.504,62.324 L310.036,62.828 L310.036,66.104 L311.728,65.348 L311.764,65.408 C311.011996,66.2960044 310.236004,67.1119963 309.436,67.856 L309.172,68.432 L308.092,66.968 C308.476002,66.7439989 308.66,66.4480018 308.644,66.08 L308.644,62.564 Z M315.4,63.836 L312.292,63.836 C312.900003,64.6840042 313.539997,65.3439976 314.212,65.816 C314.668002,65.2399971 315.063998,64.5800037 315.4,63.836 Z M308.236,58.496 L308.272,58.46 C309.824008,58.7560015 310.58,59.2439966 310.54,59.924 C310.46,60.4920028 310.140003,60.8159996 309.58,60.896 C309.299999,60.904 309.112,60.708002 309.016,60.308 C308.823999,59.5879964 308.564002,58.9840024 308.236,58.496 Z M325.828,58.508 L328.012,58.808 L327.484,59.3 L327.484,62.732 L328.36,62.732 L329.248,61.544 L330.76,62.684 C330.816,62.7320002 330.844,62.7759998 330.844,62.816 C330.82,62.9360006 330.696001,63.0039999 330.472,63.02 L327.484,63.02 L327.484,64.724 C327.484,65.0840018 327.5,66.4479882 327.532,68.816 C327.54,69.0000009 327.460001,69.1039999 327.292,69.128 C326.811998,69.2160004 326.324002,69.256 325.828,69.248 C325.876,67.1759896 325.9,65.8280031 325.9,65.204 L325.9,63.02 L323.224,63.02 L323.224,62.732 L325.9,62.732 L325.9,61.004 C325.892,60.1239956 325.868,59.2920039 325.828,58.508 Z M322.228,66.26 L324.196,65.276 L324.232,65.312 C323.351996,66.4080055 322.480004,67.3479961 321.616,68.132 L321.34,68.708 L320.188,67.124 C320.572002,66.8999989 320.756,66.604 320.74,66.236 L320.74,62.708 L319.252,62.708 L319.252,62.42 L320.476,62.42 L320.956,61.604 L322.756,62.48 L322.228,63.02 L322.228,66.26 Z M320.344,58.532 L320.368,58.484 C321.928008,58.7560014 322.688,59.2519964 322.648,59.972 C322.584,60.5560029 322.264003,60.8799997 321.688,60.944 C321.327998,60.944 321.104,60.7520019 321.016,60.368 C320.855999,59.6159962 320.632001,59.0040024 320.344,58.532 Z M335.308,59.948 L335.284,59.876 C336.996009,59.4919981 338.255996,59.1440016 339.064,58.832 C339.616003,58.631999 340.115998,58.4120012 340.564,58.172 L342.028,59.516 L341.32,59.516 C340.735997,59.6040004 340.100003,59.6839996 339.412,59.756 L339.412,61.976 L340.54,61.976 L341.296,60.968 L342.568,61.928 C342.616,61.9600002 342.64,62.0079997 342.64,62.072 C342.608,62.1840006 342.484001,62.2479999 342.268,62.264 L339.412,62.264 L339.412,64.34 L339.976,64.34 L340.408,63.548 L342.124,64.412 L341.656,64.904 L341.656,66.308 C341.656,66.8520027 341.672,67.623995 341.704,68.624 C341.728,68.8480011 341.636001,68.9759998 341.428,69.008 C341.091998,69.0800004 340.680002,69.1239999 340.192,69.14 L340.192,68 L337.228,68 L337.228,68.624 C337.236,68.8720012 337.124001,69.0159998 336.892,69.056 C336.475998,69.1360004 336.092002,69.176 335.74,69.176 C335.772,68.0159942 335.788,67.1960024 335.788,66.716 L335.788,66.152 C335.115997,66.960004 334.424004,67.6919967 333.712,68.348 L333.484,68.96 L332.344,67.448 C332.696002,67.255999 332.864,66.9760018 332.848,66.608 L332.848,62.948 L331.384,62.948 L331.384,62.66 L332.656,62.66 L333.112,61.832 L334.72,62.648 L334.264,63.128 L334.264,66.584 L335.788,65.936 L335.788,65.744 C335.788,64.9199959 335.78,64.312002 335.764,63.92 L337.336,64.34 L337.924,64.34 L337.924,62.264 L335.068,62.264 L335.068,61.976 L337.924,61.976 L337.924,59.876 C336.907995,59.9320003 336.036004,59.956 335.308,59.948 Z M340.192,64.628 L337.228,64.628 L337.228,67.712 L340.192,67.712 L340.192,64.628 Z M332.392,58.484 L332.428,58.448 C333.956008,58.7040013 334.712,59.1919964 334.696,59.912 C334.6,60.4880029 334.260003,60.8159996 333.676,60.896 C333.387999,60.896 333.208,60.7280017 333.136,60.392 C332.991999,59.7199966 332.744002,59.084003 332.392,58.484 Z" id="夜猫设计话" fill="#A8B2BA" fill-rule="nonzero" opacity="0.400000006"></path>
        </g>
    </g>
</svg>