<?xml version="1.0" encoding="UTF-8"?>
<svg width="1200px" height="200px" viewBox="0 0 1200 200" version="1.1" xmlns="http://www.w3.org/2000/svg" xmlns:xlink="http://www.w3.org/1999/xlink">
    <!-- Generator: Sketch 56.3 (81716) - https://sketch.com -->
    <title>PC端banner模板备份 5</title>
    <desc>Created with Sketch.</desc>
    <g id="PC端banner模板备份-5" stroke="none" stroke-width="1" fill="none" fill-rule="evenodd">
        <rect fill="#000000" x="0" y="0" width="1200" height="200"></rect>
        <g id="编组-2" transform="translate(419.000000, 73.000000)">
            <g id="编组">
                <polygon id="矩形" fill="#FF3040" opacity="0.5" points="9.07534247 30.1241156 351 30.1241156 341.924658 42.1241156 3.41129468e-13 42.1241156"></polygon>
                <path d="M35.452,2.246 L35.452,35.952 L31.462,35.952 L31.462,33.748 L12.614,33.748 L12.614,36.028 L8.586,36.028 L8.586,2.246 L35.452,2.246 Z M12.614,29.91 L31.462,29.91 L31.462,23.982 L12.614,23.982 L12.614,29.91 Z M12.614,20.372 L31.462,20.372 L31.462,14.862 L12.614,14.862 L12.614,20.372 Z M12.614,11.214 L31.462,11.214 L31.462,6.046 L12.614,6.046 L12.614,11.214 Z M47.65,0.878 L51.564,0.878 L51.564,7.642 L55.554,7.642 L55.554,11.48 L51.564,11.48 L51.564,13.76 C53.312,15.508 55.098,17.446 56.922,19.574 L54.68,22.956 C53.502,21.056 52.476,19.46 51.564,18.168 L51.564,35.952 L47.65,35.952 L47.65,19.422 C46.586,22.234 45.332,24.894 43.888,27.326 L42.178,22.994 C44.648,19.612 46.472,15.774 47.612,11.48 L43.432,11.48 L43.432,7.642 L47.65,7.642 L47.65,0.878 Z M58.898,18.168 L62.508,18.966 C61.33,24.286 59.658,28.846 57.454,32.722 L53.996,30.518 C56.314,26.642 57.948,22.538 58.898,18.168 Z M73.87,17.826 C75.314,22.082 76.606,26.642 77.67,31.506 L74.022,33.14 C72.882,27.82 71.666,23.146 70.336,19.042 L73.87,17.826 Z M64.674,35.534 L60.836,35.534 L60,31.848 C61.178,32 62.28,32.076 63.344,32.076 C64.218,32.076 64.674,31.544 64.674,30.556 L64.674,15.584 L55.858,15.584 L55.858,11.784 L77.518,11.784 L77.518,15.584 L68.626,15.584 L68.626,31.544 C68.626,34.204 67.296,35.534 64.674,35.534 Z M57.834,2.664 L75.542,2.664 L75.542,6.426 L57.834,6.426 L57.834,2.664 Z M100.128,31.202 L115.708,31.202 L115.708,34.926 L96.252,34.926 L96.252,2.17 L115.214,2.17 L115.214,5.894 L100.128,5.894 L100.128,31.202 Z M103.054,9.466 C104.726,11.48 106.284,13.494 107.766,15.47 C108.754,12.886 109.552,10.15 110.16,7.224 L113.58,7.832 C112.744,11.936 111.642,15.66 110.236,18.928 C111.908,21.36 113.466,23.83 114.91,26.262 L112.136,28.998 C111.072,26.908 109.818,24.78 108.412,22.652 C106.93,25.312 105.22,27.63 103.244,29.644 L100.774,26.604 C102.864,24.438 104.65,21.968 106.094,19.194 C104.422,16.8 102.522,14.368 100.47,11.898 L103.054,9.466 Z M90.02,5.78 L80.938,5.78 L80.938,2.132 L94.01,2.132 L92.262,17.788 L94.96,17.788 C94.96,26.832 94.542,32.038 93.706,33.406 C92.87,34.774 91.046,35.496 88.272,35.496 C87.36,35.496 86.448,35.42 85.46,35.344 L84.396,31.848 C85.84,32.038 86.866,32.152 87.474,32.152 C89.26,32.152 90.324,31.62 90.704,30.632 C91.046,29.568 91.236,26.452 91.236,21.36 L81.09,21.36 L82.876,7.756 L86.562,7.946 L85.156,17.788 L88.462,17.788 L90.02,5.78 Z M89.792,23.64 L89.792,27.25 C87.056,28.086 83.978,28.77 80.52,29.264 L79.988,25.502 C83.712,25.046 86.98,24.4 89.792,23.64 Z M120.154,3.044 L134.442,3.044 L134.442,6.806 L120.154,6.806 L120.154,3.044 Z M118.748,13.266 L135.81,13.266 L135.81,17.142 L127.298,17.142 C126.044,22.082 124.942,25.73 123.992,28.162 C126.386,27.63 128.742,26.908 131.06,26.072 C130.224,24.248 129.388,22.576 128.552,20.98 L131.858,19.384 C133.53,22.5 135.202,25.958 136.798,29.758 C139.344,25.35 140.636,19.498 140.712,12.278 L140.712,11.974 L136.038,11.974 L136.038,8.174 L140.712,8.174 L140.712,0.878 L144.664,0.878 L144.664,8.174 L152.834,8.174 C152.834,20.714 152.644,28.466 152.302,31.43 C151.846,34.242 149.87,35.648 146.374,35.648 C145.766,35.648 144.74,35.572 143.22,35.458 L142.308,32 C143.638,32.076 144.778,32.152 145.766,32.152 C147.362,32.152 148.274,31.316 148.578,29.644 C148.806,27.934 148.92,22.044 148.996,11.974 L144.664,11.974 L144.664,12.278 C144.55,23.184 141.928,31.164 136.76,36.218 L133.758,33.596 C134.86,32.532 135.81,31.316 136.646,29.986 L133.378,31.658 C133.074,30.822 132.77,30.062 132.466,29.34 C128.476,30.708 124.182,31.772 119.622,32.608 L118.71,28.884 C119.09,28.77 119.356,28.656 119.508,28.542 C120.496,27.098 121.826,23.298 123.46,17.142 L118.748,17.142 L118.748,13.266 Z M170.846,6.958 L170.846,33.596 L167.046,33.596 L167.046,31.696 L161.422,31.696 L161.422,34.698 L157.622,34.698 L157.622,6.958 L161.27,6.958 C161.954,4.944 162.448,2.854 162.752,0.688 L166.742,1.22 C166.324,3.272 165.754,5.21 165.07,6.958 L170.846,6.958 Z M161.422,28.048 L167.046,28.048 L167.046,20.866 L161.422,20.866 L161.422,28.048 Z M161.422,17.332 L167.046,17.332 L167.046,10.682 L161.422,10.682 L161.422,17.332 Z M177.762,16.192 C180.194,19.27 182.056,21.968 183.386,24.324 L180.194,26.528 C178.788,24.02 176.888,21.246 174.532,18.206 L177.762,16.192 Z M190.416,6.958 C190.416,20.258 190.226,28.466 189.846,31.582 C189.466,34.242 187.642,35.572 184.374,35.572 C183.614,35.572 182.246,35.496 180.27,35.344 L179.32,31.734 C180.992,31.848 182.474,31.924 183.728,31.924 C185.096,31.924 185.894,31.164 186.122,29.682 C186.35,27.858 186.464,21.588 186.54,10.834 L177.344,10.834 C176.318,13.114 175.102,15.166 173.696,16.99 L171.302,13.836 C173.81,10.264 175.482,5.856 176.394,0.65 L180.308,1.144 C179.928,3.196 179.434,5.134 178.864,6.958 L190.416,6.958 Z M204.932,3.728 L208.846,4.412 C206.718,17.788 202.842,28.086 197.18,35.382 L194.558,32.076 C199.688,25.046 203.146,15.584 204.932,3.728 Z M217.928,2.208 C218.726,15.394 222.564,25.274 229.48,31.81 L227.352,35.534 C219.828,28.808 215.458,18.092 214.242,3.348 L217.928,2.208 Z M237.004,7.946 L232.938,7.946 L232.938,4.07 L245.022,4.07 L245.022,7.946 L241.032,7.946 L241.032,23.488 C242.476,22.994 243.806,22.5 245.098,22.006 L245.098,25.958 C241.754,27.326 237.954,28.618 233.622,29.796 L232.444,25.882 C234.04,25.502 235.56,25.084 237.004,24.704 L237.004,7.946 Z M246.086,1.98 L267.518,1.98 L267.518,5.856 L258.74,5.856 C258.588,6.844 258.398,7.832 258.17,8.744 L266.112,8.744 L266.112,27.326 L262.236,27.326 L262.236,12.392 L251.254,12.392 L251.254,27.326 L247.416,27.326 L247.416,8.744 L254.256,8.744 C254.484,7.794 254.674,6.844 254.826,5.856 L246.086,5.856 L246.086,1.98 Z M260.45,26.984 C263.414,29.112 265.884,31.24 267.936,33.33 L265.086,36.18 C263.376,34.128 260.944,31.886 257.79,29.53 L260.45,26.984 Z M254.674,14.102 L258.626,14.102 L258.626,20.79 C258.398,24.932 257.258,28.276 255.206,30.784 C253.192,33.064 249.924,34.85 245.364,36.104 L243.198,32.722 C247.606,31.506 250.608,30.024 252.166,28.276 C253.648,26.376 254.484,23.868 254.674,20.79 L254.674,14.102 Z M280.286,8.478 L287.962,8.478 C288.228,7.604 288.456,6.73 288.608,5.856 L277.056,5.856 L277.056,16.762 C276.904,24.704 275.65,31.088 273.256,35.914 L270.254,33.216 C272.04,29.264 272.952,23.754 273.028,16.762 L273.028,1.98 L304.644,1.98 L304.644,5.856 L292.56,5.856 C292.37,6.768 292.142,7.642 291.876,8.478 L302.022,8.478 L302.022,23.83 L293.624,23.83 L293.624,32.19 C293.624,34.622 292.332,35.838 289.824,35.838 L285.986,35.838 L285.112,31.962 C286.29,32.114 287.392,32.228 288.456,32.228 C289.216,32.228 289.634,31.886 289.634,31.202 L289.634,23.83 L280.286,23.83 L280.286,8.478 Z M298.184,20.258 L298.184,17.788 L284.124,17.788 L284.124,20.258 L298.184,20.258 Z M284.124,14.444 L298.184,14.444 L298.184,12.088 L284.124,12.088 L284.124,14.444 Z M282.642,24.742 L286.1,26.452 C284.428,29.72 282.49,32.532 280.21,34.926 L276.942,32.608 C279.146,30.404 281.046,27.782 282.642,24.742 Z M299.4,24.704 C301.87,27.82 303.77,30.518 305.138,32.798 L301.832,35.04 C300.464,32.532 298.564,29.758 296.17,26.718 L299.4,24.704 Z M327.558,1.98 L327.558,26.072 L323.682,26.072 L323.682,5.78 L314.106,5.78 L314.106,26.414 L310.268,26.414 L310.268,1.98 L327.558,1.98 Z M322.694,26.87 C325.088,28.884 327.14,30.86 328.812,32.836 L325.81,35.838 C324.404,33.9 322.428,31.81 319.882,29.606 L322.694,26.87 Z M317.032,7.946 L320.87,7.946 L320.87,19.764 C320.718,24.248 319.806,27.858 318.172,30.518 C316.538,32.988 313.916,34.926 310.344,36.294 L308.102,32.722 C311.522,31.43 313.84,29.796 315.056,27.896 C316.234,25.768 316.88,23.07 317.032,19.764 L317.032,7.946 Z M330.826,4.108 L334.664,4.108 L334.664,27.478 L330.826,27.478 L330.826,4.108 Z M338.236,35.572 L332.992,35.572 L332.08,31.734 C333.752,31.886 335.348,31.962 336.83,31.962 C337.894,31.962 338.426,31.43 338.426,30.404 L338.426,0.916 L342.378,0.916 L342.378,31.43 C342.378,34.166 340.972,35.572 338.236,35.572 Z" id="目标驱动的八项原则" fill="#A8B2BA" fill-rule="nonzero"></path>
            </g>
            <path d="M8.96,64 L8.96,55.6 L11.72,55.6 C12.3920034,55.6 12.9859974,55.7179988 13.502,55.954 C14.0180026,56.1900012 14.4519982,56.503998 14.804,56.896 C15.1560018,57.288002 15.4219991,57.7359975 15.602,58.24 C15.7820009,58.7440025 15.872,59.2639973 15.872,59.8 C15.872,60.3360027 15.7820009,60.8559975 15.602,61.36 C15.4219991,61.8640025 15.1560018,62.311998 14.804,62.704 C14.4519982,63.096002 14.0180026,63.4099988 13.502,63.646 C12.9859974,63.8820012 12.3920034,64 11.72,64 L8.96,64 Z M11.672,62.5 C12.0160017,62.5 12.3379985,62.4300007 12.638,62.29 C12.9380015,62.1499993 13.2019989,61.9600012 13.43,61.72 C13.6580011,61.4799988 13.8379993,61.1960016 13.97,60.868 C14.1020007,60.5399984 14.168,60.1840019 14.168,59.8 C14.168,59.4159981 14.1020007,59.0600016 13.97,58.732 C13.8379993,58.4039984 13.6580011,58.1200012 13.43,57.88 C13.2019989,57.6399988 12.9380015,57.4500007 12.638,57.31 C12.3379985,57.1699993 12.0160017,57.1 11.672,57.1 L10.664,57.1 L10.664,62.5 L11.672,62.5 Z M21.896,64 L21.896,63.376 C21.5839984,63.6560014 21.2540017,63.8539994 20.906,63.97 C20.5579983,64.0860006 20.1920019,64.144 19.808,64.144 C19.3759978,64.144 18.9740019,64.0660008 18.602,63.91 C18.2299981,63.7539992 17.9100013,63.5320014 17.642,63.244 C17.3739987,62.9559986 17.1620008,62.612002 17.006,62.212 C16.8499992,61.811998 16.772,61.3680024 16.772,60.88 C16.772,60.3919976 16.8499992,59.948002 17.006,59.548 C17.1620008,59.147998 17.3739987,58.8040014 17.642,58.516 C17.9100013,58.2279986 18.2299981,58.0060008 18.602,57.85 C18.9740019,57.6939992 19.3759978,57.616 19.808,57.616 C20.1840019,57.616 20.5459983,57.6719994 20.894,57.784 C21.2420017,57.8960006 21.5719984,58.0919986 21.884,58.372 L21.884,57.796 L23.468,57.796 L23.468,64 L21.896,64 Z M21.788,60.124 C21.5559988,59.7639982 21.2880015,59.5140007 20.984,59.374 C20.6799985,59.2339993 20.3960013,59.164 20.132,59.164 C19.9159989,59.164 19.710001,59.1999996 19.514,59.272 C19.317999,59.3440004 19.1440008,59.4499993 18.992,59.59 C18.8399992,59.7300007 18.7180005,59.9079989 18.626,60.124 C18.5339995,60.3400011 18.488,60.5919986 18.488,60.88 C18.488,61.1680014 18.5339995,61.4199989 18.626,61.636 C18.7180005,61.8520011 18.8399992,62.0299993 18.992,62.17 C19.1440008,62.3100007 19.317999,62.4159996 19.514,62.488 C19.710001,62.5600004 19.9159989,62.596 20.132,62.596 C20.3960013,62.596 20.6799985,62.5280007 20.984,62.392 C21.2880015,62.2559993 21.5559988,62.0080018 21.788,61.648 L21.788,60.124 Z M24.92,65.26 C25.0560007,65.3080002 25.1819994,65.3419999 25.298,65.362 C25.4140006,65.3820001 25.5239995,65.392 25.628,65.392 C25.9880018,65.392 26.2779989,65.2800011 26.498,65.056 C26.7180011,64.8319989 26.8999993,64.5400018 27.044,64.18 L27.188,63.82 L24.308,57.796 L26.252,57.796 L28.016,61.828 L29.552,57.796 L31.496,57.796 L28.52,64.6 C28.3519992,64.9840019 28.172001,65.3279985 27.98,65.632 C27.787999,65.9360015 27.5800011,66.1939989 27.356,66.406 C27.1319989,66.6180011 26.8840014,66.7779995 26.612,66.886 C26.3399986,66.9940005 26.0400016,67.048 25.712,67.048 C25.3519982,67.048 24.9440023,66.9760007 24.488,66.832 L24.92,65.26 Z M37.1,64 L37.1,63.376 C36.7879984,63.6560014 36.4580017,63.8539994 36.11,63.97 C35.7619983,64.0860006 35.3960019,64.144 35.012,64.144 C34.5799978,64.144 34.1780019,64.0660008 33.806,63.91 C33.4339981,63.7539992 33.1140013,63.5320014 32.846,63.244 C32.5779987,62.9559986 32.3660008,62.612002 32.21,62.212 C32.0539992,61.811998 31.976,61.3680024 31.976,60.88 C31.976,60.3919976 32.0539992,59.948002 32.21,59.548 C32.3660008,59.147998 32.5779987,58.8040014 32.846,58.516 C33.1140013,58.2279986 33.4339981,58.0060008 33.806,57.85 C34.1780019,57.6939992 34.5799978,57.616 35.012,57.616 C35.3720018,57.616 35.7159984,57.6659995 36.044,57.766 C36.3720016,57.8660005 36.6879985,58.0399988 36.992,58.288 L36.992,55.6 L38.672,55.6 L38.672,64 L37.1,64 Z M36.992,60.124 C36.7599988,59.7639982 36.4920015,59.5140007 36.188,59.374 C35.8839985,59.2339993 35.6000013,59.164 35.336,59.164 C35.1199989,59.164 34.914001,59.1999996 34.718,59.272 C34.521999,59.3440004 34.3500007,59.4499993 34.202,59.59 C34.0539993,59.7300007 33.9340005,59.9079989 33.842,60.124 C33.7499995,60.3400011 33.704,60.5919986 33.704,60.88 C33.704,61.1680014 33.7499995,61.4199989 33.842,61.636 C33.9340005,61.8520011 34.0539993,62.0299993 34.202,62.17 C34.3500007,62.3100007 34.521999,62.4159996 34.718,62.488 C34.914001,62.5600004 35.1199989,62.596 35.336,62.596 C35.6000013,62.596 35.8839985,62.5280007 36.188,62.392 C36.4920015,62.2559993 36.7599988,62.0080018 36.992,61.648 L36.992,60.124 Z M45.116,64 L45.116,63.376 C44.8039984,63.6560014 44.4740017,63.8539994 44.126,63.97 C43.7779983,64.0860006 43.4120019,64.144 43.028,64.144 C42.5959978,64.144 42.1940019,64.0660008 41.822,63.91 C41.4499981,63.7539992 41.1300013,63.5320014 40.862,63.244 C40.5939987,62.9559986 40.3820008,62.612002 40.226,62.212 C40.0699992,61.811998 39.992,61.3680024 39.992,60.88 C39.992,60.3919976 40.0699992,59.948002 40.226,59.548 C40.3820008,59.147998 40.5939987,58.8040014 40.862,58.516 C41.1300013,58.2279986 41.4499981,58.0060008 41.822,57.85 C42.1940019,57.6939992 42.5959978,57.616 43.028,57.616 C43.4040019,57.616 43.7659983,57.6719994 44.114,57.784 C44.4620017,57.8960006 44.7919984,58.0919986 45.104,58.372 L45.104,57.796 L46.688,57.796 L46.688,64 L45.116,64 Z M45.008,60.124 C44.7759988,59.7639982 44.5080015,59.5140007 44.204,59.374 C43.8999985,59.2339993 43.6160013,59.164 43.352,59.164 C43.1359989,59.164 42.930001,59.1999996 42.734,59.272 C42.537999,59.3440004 42.3640008,59.4499993 42.212,59.59 C42.0599992,59.7300007 41.9380005,59.9079989 41.846,60.124 C41.7539995,60.3400011 41.708,60.5919986 41.708,60.88 C41.708,61.1680014 41.7539995,61.4199989 41.846,61.636 C41.9380005,61.8520011 42.0599992,62.0299993 42.212,62.17 C42.3640008,62.3100007 42.537999,62.4159996 42.734,62.488 C42.930001,62.5600004 43.1359989,62.596 43.352,62.596 C43.6160013,62.596 43.8999985,62.5280007 44.204,62.392 C44.5080015,62.2559993 44.7759988,62.0080018 45.008,61.648 L45.008,60.124 Z M48.14,65.26 C48.2760007,65.3080002 48.4019994,65.3419999 48.518,65.362 C48.6340006,65.3820001 48.7439995,65.392 48.848,65.392 C49.2080018,65.392 49.4979989,65.2800011 49.718,65.056 C49.9380011,64.8319989 50.1199993,64.5400018 50.264,64.18 L50.408,63.82 L47.528,57.796 L49.472,57.796 L51.236,61.828 L52.772,57.796 L54.716,57.796 L51.74,64.6 C51.5719992,64.9840019 51.392001,65.3279985 51.2,65.632 C51.007999,65.9360015 50.8000011,66.1939989 50.576,66.406 C50.3519989,66.6180011 50.1040014,66.7779995 49.832,66.886 C49.5599986,66.9940005 49.2600016,67.048 48.932,67.048 C48.5719982,67.048 48.1640023,66.9760007 47.708,66.832 L48.14,65.26 Z M60.032,64 L60.032,63.46 C59.7599986,63.668001 59.4600016,63.8339994 59.132,63.958 C58.8039984,64.0820006 58.4480019,64.144 58.064,64.144 C57.271996,64.144 56.6360024,63.8960025 56.156,63.4 C55.6759976,62.9039975 55.436,62.1840047 55.436,61.24 L55.436,57.796 L57.116,57.796 L57.116,61.108 C57.116,61.3640013 57.1539996,61.5819991 57.23,61.762 C57.3060004,61.9420009 57.4059994,62.0919994 57.53,62.212 C57.6540006,62.3320006 57.7959992,62.4199997 57.956,62.476 C58.1160008,62.5320003 58.2799992,62.56 58.448,62.56 C58.7520015,62.56 59.0519985,62.4780008 59.348,62.314 C59.6440015,62.1499992 59.8719992,61.9120016 60.032,61.6 L60.032,57.796 L61.712,57.796 L61.712,64 L60.032,64 Z M63.392,66.82 L63.392,57.796 L64.964,57.796 L64.964,58.384 C65.2760016,58.1039986 65.6059983,57.9060006 65.954,57.79 C66.3020017,57.6739994 66.6679981,57.616 67.052,57.616 C67.4840022,57.616 67.8859981,57.6939992 68.258,57.85 C68.6300019,58.0060008 68.9499987,58.2279986 69.218,58.516 C69.4860013,58.8040014 69.6979992,59.147998 69.854,59.548 C70.0100008,59.948002 70.088,60.3919976 70.088,60.88 C70.088,61.3680024 70.0100008,61.811998 69.854,62.212 C69.6979992,62.612002 69.4860013,62.9559986 69.218,63.244 C68.9499987,63.5320014 68.6300019,63.7539992 68.258,63.91 C67.8859981,64.0660008 67.4840022,64.144 67.052,64.144 C66.6919982,64.144 66.3460017,64.0940005 66.014,63.994 C65.6819983,63.8939995 65.3680015,63.7200012 65.072,63.472 L65.072,66.82 L63.392,66.82 Z M65.072,61.648 C65.2960011,62.0080018 65.5599985,62.2559993 65.864,62.392 C66.1680015,62.5280007 66.4559986,62.596 66.728,62.596 C66.9440011,62.596 67.149999,62.5600004 67.346,62.488 C67.542001,62.4159996 67.7139993,62.3100007 67.862,62.17 C68.0100007,62.0299993 68.1299995,61.8520011 68.222,61.636 C68.3140005,61.4199989 68.36,61.1680014 68.36,60.88 C68.36,60.5919986 68.3140005,60.3400011 68.222,60.124 C68.1299995,59.9079989 68.0100007,59.7300007 67.862,59.59 C67.7139993,59.4499993 67.542001,59.3440004 67.346,59.272 C67.149999,59.1999996 66.9440011,59.164 66.728,59.164 C66.4559986,59.164 66.1680015,59.2339993 65.864,59.374 C65.5599985,59.5140007 65.2960011,59.7639982 65.072,60.124 L65.072,61.648 Z" id="Daydayup" fill="#A8B2BA" fill-rule="nonzero" opacity="0.400000006"></path>
            <path d="M286.852,61.756 L286.816,61.696 C287.888005,59.9199911 288.539999,58.1600087 288.772,56.416 L290.728,56.992 L290.164,57.34 C290.076,57.5960013 289.984,57.8159991 289.888,58 L291.868,58 L292.408,57.184 L294.244,58.18 L293.632,58.66 C293.095997,60.2920082 292.384004,61.5879952 291.496,62.548 C292.200004,62.8760016 293.279993,63.1159992 294.736,63.268 L294.712,63.34 C294.239998,63.6840017 293.880001,64.251996 293.632,65.044 C292.167993,64.5959978 291.108003,64.0800029 290.452,63.496 C289.491995,64.2160036 288.224008,64.8239975 286.648,65.32 L286.612,65.26 C287.908006,64.3879956 288.943996,63.5240043 289.72,62.668 C289.311998,62.1159972 288.924002,61.2800056 288.556,60.16 C288.147998,60.6400024 287.580004,61.1719971 286.852,61.756 Z M283.408,56.38 L283.408,56.092 L288.412,56.092 C288.219999,56.0359997 288.108,55.8840012 288.076,55.636 C287.98,55.0599971 287.844001,54.6560012 287.668,54.424 L287.716,54.364 C289.060007,54.3399999 289.74,54.6519968 289.756,55.3 C289.732,55.6840019 289.480002,55.9479993 289,56.092 L292.228,56.092 L293.068,54.964 L294.532,56.044 C294.588,56.0840002 294.616,56.1239998 294.616,56.164 C294.584,56.2920006 294.460001,56.3639999 294.244,56.38 L286.24,56.38 L287.896,57.088 L287.272,57.424 C286.911998,58.0400031 286.524002,58.5879976 286.108,59.068 L286.876,59.212 L286.42,59.632 L286.42,64.648 C286.428,64.9120013 286.304001,65.0639998 286.048,65.104 C285.631998,65.1680003 285.244002,65.196 284.884,65.188 C284.932,63.979994 284.956,62.7120066 284.956,61.384 L284.956,60.208 C284.475998,60.616002 283.940003,60.9999982 283.348,61.36 L283.324,61.288 C284.588006,59.6079916 285.443998,57.972008 285.892,56.38 L283.408,56.38 Z M292.06,58.288 L289.78,58.288 C289.708,58.4560008 289.612001,58.6319991 289.492,58.816 C290.596006,59.0720013 291.108,59.4399976 291.028,59.92 C290.972,60.3920024 290.704002,60.6559997 290.224,60.712 C289.943999,60.72 289.784,60.5600016 289.744,60.232 L289.708,59.98 C289.66,59.5639979 289.568001,59.2120014 289.432,58.924 C289.207999,59.316002 288.960001,59.6759984 288.688,60.004 C289.264003,60.8200041 289.827997,61.4399979 290.38,61.864 C291.164004,60.8079947 291.723998,59.6160066 292.06,58.288 Z M305.92,61.54 C305.92,61.9640021 305.932,62.7639941 305.956,63.94 C305.964,64.2680016 305.968,64.4919994 305.968,64.612 C305.984,64.8360011 305.900001,64.9599999 305.716,64.984 C305.419999,65.0560004 305.024002,65.1039999 304.528,65.128 L304.528,64.468 L300.832,64.468 L300.832,64.684 C300.864,64.9400013 300.768001,65.072 300.544,65.08 C300.119998,65.1520004 299.744002,65.184 299.416,65.176 C299.44,64.2799955 299.456,63.2400059 299.464,62.056 L299.464,60.616 C299.456,59.5119945 299.448,58.7760018 299.44,58.408 L301.144,58.804 L304.348,58.804 L304.792,58.036 L306.352,58.828 L305.92,59.356 L305.92,61.54 Z M295.384,58.468 L295.336,58.408 C295.880003,57.8319971 296.343998,57.2640028 296.728,56.704 C296.479999,56.1599973 296.104003,55.5760031 295.6,54.952 L295.648,54.892 C296.272003,55.3320022 296.759998,55.7399981 297.112,56.116 C297.448002,55.5479972 297.711999,54.960003 297.904,54.352 L299.596,55.264 L299.008,55.552 C298.623998,56.0880027 298.212002,56.555998 297.772,56.956 C298.484004,57.9720051 298.824,59.6919879 298.792,62.116 C298.808,64.0280096 298.052008,65.0519993 296.524,65.188 C296.524,64.4359962 296.136004,63.956001 295.36,63.748 L295.372,63.676 L296.512,63.748 C297.112003,63.7319999 297.424,63.124006 297.448,61.924 C297.448,61.4279975 297.44,60.976002 297.424,60.568 C296.895997,61.1360028 296.216004,61.6519977 295.384,62.116 L295.336,62.068 C296.176004,60.9479944 296.823998,59.8280056 297.28,58.708 C297.224,58.2679978 297.140001,57.8760017 297.028,57.532 C296.587998,57.8440016 296.040003,58.1559984 295.384,58.468 Z M298.936,56.5 L298.936,56.224 L300.7,56.224 L300.7,55.852 C300.7,55.2839972 300.692,54.800002 300.676,54.4 L302.428,54.7 L302.02,55.12 L302.02,56.224 L303.292,56.224 L303.292,55.648 C303.292,55.3839987 303.284,54.9720028 303.268,54.412 L305.02,54.712 L304.612,55.12 L304.612,56.224 L304.852,56.224 L305.464,55.336 L306.64,56.188 C306.688,56.2200002 306.712,56.2639997 306.712,56.32 C306.696,56.4320006 306.580001,56.492 306.364,56.5 L304.612,56.5 C304.628,56.892002 304.636,57.2719982 304.636,57.64 C304.636,57.7920008 304.560001,57.8879998 304.408,57.928 C304.127999,57.9920003 303.756002,58.0319999 303.292,58.048 L303.292,56.5 L302.02,56.5 L302.02,57.748 C302.02,57.9240009 301.932001,58.0319998 301.756,58.072 C301.411998,58.1360003 301.060002,58.172 300.7,58.18 L300.7,56.5 L298.936,56.5 Z M300.832,61.708 L300.832,64.18 L302.008,64.18 L302.008,61.708 L300.832,61.708 Z M303.352,61.708 L303.352,64.18 L304.528,64.18 L304.528,61.708 L303.352,61.708 Z M300.832,59.092 L300.832,61.42 L302.008,61.42 L302.008,59.092 L300.832,59.092 Z M304.528,59.092 L303.352,59.092 L303.352,61.42 L304.528,61.42 L304.528,59.092 Z M309.952,65.176 C311.408007,64.3919961 312.551996,63.5840042 313.384,62.752 C312.839997,62.0479965 312.436001,61.0760062 312.172,59.836 L311.152,59.836 L311.152,59.548 L315.268,59.548 L315.808,58.804 L317.584,59.872 L316.984,60.328 C316.519998,61.2240045 316.020003,61.9599971 315.484,62.536 C316.356004,62.9120019 317.427994,63.1679993 318.7,63.304 L318.7,63.376 C318.163997,63.776002 317.752001,64.3519962 317.464,65.104 C316.055993,64.703998 314.984004,64.2120029 314.248,63.628 C313.143994,64.3960038 311.724009,64.9319985 309.988,65.236 L309.952,65.176 Z M311.968,54.508 L313.852,54.952 L314.908,54.952 L315.34,54.232 L316.912,54.988 L316.516,55.468 L316.516,57.088 C316.5,57.3520013 316.619999,57.4760001 316.876,57.46 L317.044,57.46 C317.284001,57.468 317.475999,57.376001 317.62,57.184 L317.668,57.184 C318.316003,57.6560024 318.624,57.995999 318.592,58.204 C318.471999,58.5080015 318.004004,58.6719999 317.188,58.696 L316.324,58.696 C315.459996,58.7440002 315.052,58.2920048 315.1,57.34 L315.1,55.24 L313.504,55.24 L313.504,55.66 C313.632001,57.4760091 312.68801,58.8079958 310.672,59.656 L310.624,59.596 C311.192003,58.9639968 311.563999,58.3960025 311.74,57.892 C311.932001,57.3959975 312.024,56.7160043 312.016,55.852 C312.016,55.3639976 312,54.916002 311.968,54.508 Z M308.644,58.564 L307.372,58.564 L307.372,58.276 L308.452,58.276 L308.884,57.496 L310.504,58.324 L310.036,58.828 L310.036,62.104 L311.728,61.348 L311.764,61.408 C311.011996,62.2960044 310.236004,63.1119963 309.436,63.856 L309.172,64.432 L308.092,62.968 C308.476002,62.7439989 308.66,62.4480018 308.644,62.08 L308.644,58.564 Z M315.4,59.836 L312.292,59.836 C312.900003,60.6840042 313.539997,61.3439976 314.212,61.816 C314.668002,61.2399971 315.063998,60.5800037 315.4,59.836 Z M308.236,54.496 L308.272,54.46 C309.824008,54.7560015 310.58,55.2439966 310.54,55.924 C310.46,56.4920028 310.140003,56.8159996 309.58,56.896 C309.299999,56.904 309.112,56.708002 309.016,56.308 C308.823999,55.5879964 308.564002,54.9840024 308.236,54.496 Z M325.828,54.508 L328.012,54.808 L327.484,55.3 L327.484,58.732 L328.36,58.732 L329.248,57.544 L330.76,58.684 C330.816,58.7320002 330.844,58.7759998 330.844,58.816 C330.82,58.9360006 330.696001,59.0039999 330.472,59.02 L327.484,59.02 L327.484,60.724 C327.484,61.0840018 327.5,62.4479882 327.532,64.816 C327.54,65.0000009 327.460001,65.1039999 327.292,65.128 C326.811998,65.2160004 326.324002,65.256 325.828,65.248 C325.876,63.1759896 325.9,61.8280031 325.9,61.204 L325.9,59.02 L323.224,59.02 L323.224,58.732 L325.9,58.732 L325.9,57.004 C325.892,56.1239956 325.868,55.2920039 325.828,54.508 Z M322.228,62.26 L324.196,61.276 L324.232,61.312 C323.351996,62.4080055 322.480004,63.3479961 321.616,64.132 L321.34,64.708 L320.188,63.124 C320.572002,62.8999989 320.756,62.604 320.74,62.236 L320.74,58.708 L319.252,58.708 L319.252,58.42 L320.476,58.42 L320.956,57.604 L322.756,58.48 L322.228,59.02 L322.228,62.26 Z M320.344,54.532 L320.368,54.484 C321.928008,54.7560014 322.688,55.2519964 322.648,55.972 C322.584,56.5560029 322.264003,56.8799997 321.688,56.944 C321.327998,56.944 321.104,56.7520019 321.016,56.368 C320.855999,55.6159962 320.632001,55.0040024 320.344,54.532 Z M335.308,55.948 L335.284,55.876 C336.996009,55.4919981 338.255996,55.1440016 339.064,54.832 C339.616003,54.631999 340.115998,54.4120012 340.564,54.172 L342.028,55.516 L341.32,55.516 C340.735997,55.6040004 340.100003,55.6839996 339.412,55.756 L339.412,57.976 L340.54,57.976 L341.296,56.968 L342.568,57.928 C342.616,57.9600002 342.64,58.0079997 342.64,58.072 C342.608,58.1840006 342.484001,58.2479999 342.268,58.264 L339.412,58.264 L339.412,60.34 L339.976,60.34 L340.408,59.548 L342.124,60.412 L341.656,60.904 L341.656,62.308 C341.656,62.8520027 341.672,63.623995 341.704,64.624 C341.728,64.8480011 341.636001,64.9759998 341.428,65.008 C341.091998,65.0800004 340.680002,65.1239999 340.192,65.14 L340.192,64 L337.228,64 L337.228,64.624 C337.236,64.8720012 337.124001,65.0159998 336.892,65.056 C336.475998,65.1360004 336.092002,65.176 335.74,65.176 C335.772,64.0159942 335.788,63.1960024 335.788,62.716 L335.788,62.152 C335.115997,62.960004 334.424004,63.6919967 333.712,64.348 L333.484,64.96 L332.344,63.448 C332.696002,63.255999 332.864,62.9760018 332.848,62.608 L332.848,58.948 L331.384,58.948 L331.384,58.66 L332.656,58.66 L333.112,57.832 L334.72,58.648 L334.264,59.128 L334.264,62.584 L335.788,61.936 L335.788,61.744 C335.788,60.9199959 335.78,60.312002 335.764,59.92 L337.336,60.34 L337.924,60.34 L337.924,58.264 L335.068,58.264 L335.068,57.976 L337.924,57.976 L337.924,55.876 C336.907995,55.9320003 336.036004,55.956 335.308,55.948 Z M340.192,60.628 L337.228,60.628 L337.228,63.712 L340.192,63.712 L340.192,60.628 Z M332.392,54.484 L332.428,54.448 C333.956008,54.7040013 334.712,55.1919964 334.696,55.912 C334.6,56.4880029 334.260003,56.8159996 333.676,56.896 C333.387999,56.896 333.208,56.7280017 333.136,56.392 C332.991999,55.7199966 332.744002,55.084003 332.392,54.484 Z" id="夜猫设计话" fill="#A8B2BA" fill-rule="nonzero" opacity="0.400000006"></path>
        </g>
    </g>
</svg>