<?xml version="1.0" encoding="UTF-8"?>
<svg width="1200px" height="200px" viewBox="0 0 1200 200" version="1.1" xmlns="http://www.w3.org/2000/svg" xmlns:xlink="http://www.w3.org/1999/xlink">
    <!-- Generator: Sketch 56.3 (81716) - https://sketch.com -->
    <title>PC端banner模板</title>
    <desc>Created with Sketch.</desc>
    <g id="PC端banner模板" stroke="none" stroke-width="1" fill="none" fill-rule="evenodd">
        <rect fill="#000000" x="0" y="0" width="1200" height="200"></rect>
        <g id="编组-2" transform="translate(475.000000, 71.000000)">
            <g id="编组">
                <polygon id="矩形" fill="#FF3040" opacity="0.5" points="8.56164384 41.1241156 250 41.1241156 241.438356 54.3899594 0 54.3899594"></polygon>
                <path d="M13.6385481,0.856973506 C16.8648013,3.27666341 19.5869524,5.6963533 21.8050015,8.1160432 L18.2258769,11.7455781 C16.2598788,9.42670857 13.5377277,6.90619825 10.0594235,4.28486753 L13.6385481,0.856973506 Z M6.93399067,15.1734721 L18.5787483,15.1734721 L18.5787483,36.0937077 C20.0406443,34.7830423 21.6033607,33.3715565 23.2668975,31.8088401 L24.7287935,37.3539628 C21.4017199,40.3785752 17.8730054,43.0503161 14.1426502,45.470006 L12.1262419,40.7314466 C12.9832154,39.9752935 13.4369073,39.0174996 13.4369073,37.9084751 L13.4369073,20.2144927 L6.93399067,20.2144927 L6.93399067,15.1734721 Z M24.9808445,21.2226968 L49.5810251,21.2226968 L49.5810251,26.0116664 C48.1695394,30.3469442 45.8506699,34.1277096 42.6244167,37.3035526 C45.7498495,39.3199609 49.5306149,41.0843181 54.0171233,42.6470345 L51.1941517,47.183953 C46.2539515,45.1675448 42.0699044,42.9494957 38.7428308,40.4793956 C34.8108347,43.2519569 30.0218651,45.470006 24.2751016,47.1335428 L21.3513096,42.6974447 C26.5435609,41.1851385 30.9292488,39.2695507 34.5587837,36.9506812 C31.3325305,33.724428 29.0640712,30.1957135 27.8542263,26.2637174 L24.9808445,26.2637174 L24.9808445,21.2226968 Z M32.7944265,26.2637174 C33.903451,29.1370992 35.7182184,31.7584299 38.3395491,34.0772994 C40.9104697,31.7584299 42.8764677,29.1875094 44.2879535,26.2637174 L32.7944265,26.2637174 Z M28.4087385,1.71394701 L46.5564128,1.71394701 L46.5564128,12.1488597 C46.5564128,13.2578842 47.1613352,13.8628067 48.4215904,13.8628067 L52.7568681,13.8628067 L52.7568681,18.6517763 L47.0101046,18.6517763 C43.2293392,18.6517763 41.3641615,16.8874191 41.3641615,13.3587047 L41.3641615,6.65414722 L33.6009898,6.65414722 L33.6009898,8.01522279 C33.6009898,13.2578842 30.8788386,17.3411109 25.5353568,20.1640825 L22.0066423,16.131266 C26.2410997,14.3669088 28.4087385,11.8463985 28.4087385,8.56973506 L28.4087385,1.71394701 Z M73.2234119,14.7197802 L86.2292451,14.7197802 L86.2292451,0.100820412 L91.6735473,0.100820412 L91.6735473,14.7197802 L104.024048,14.7197802 L104.024048,19.9624417 L91.6735473,19.9624417 L91.6735473,46.9823122 L86.2292451,46.9823122 L86.2292451,19.9624417 L73.2234119,19.9624417 L73.2234119,14.7197802 Z M64.3512156,0.504102062 C67.5270586,2.97420217 70.2492097,5.44430227 72.517669,7.86399217 L68.8881341,11.5439372 C66.9725463,9.22506774 64.1999849,6.75496764 60.6208603,4.13363691 L64.3512156,0.504102062 Z M57.3441969,15.0726517 L69.341826,15.0726517 L69.341826,36.1441179 C70.803722,34.8838627 72.3664384,33.4723769 74.0299752,31.9096605 L75.3910507,37.3035526 C72.1143873,40.328165 68.6360831,43.0503161 64.9057278,45.470006 L62.8893196,40.7314466 C63.7967033,39.9752935 64.2503952,39.0679098 64.2503952,38.0092955 L64.2503952,20.1136723 L57.3441969,20.1136723 L57.3441969,15.0726517 Z M129.531612,7.3094799 L134.623043,7.3094799 L131.245559,15.7279843 L141.27719,15.7279843 L141.27719,20.4665437 L129.329971,20.4665437 L126.910281,26.5157685 L141.27719,26.5157685 L141.27719,31.2543279 L124.994694,31.2543279 L121.5668,39.7736527 L116.475369,39.7736527 L119.903263,31.2543279 L109.821222,31.2543279 L109.821222,26.5157685 L121.818851,26.5157685 L124.238541,20.4665437 L109.821222,20.4665437 L109.821222,15.7279843 L126.154128,15.7279843 L129.531612,7.3094799 Z M148.132978,4.23445732 L159.324044,4.23445732 L159.324044,0 L164.667526,0 L164.667526,4.23445732 L176.362694,4.23445732 L176.362694,0 L181.706176,0 L181.706176,4.23445732 L192.897241,4.23445732 L192.897241,9.17465753 L181.706176,9.17465753 L181.706176,12.9050128 L176.362694,12.9050128 L176.362694,9.17465753 L164.667526,9.17465753 L164.667526,12.9050128 L159.324044,12.9050128 L159.324044,9.17465753 L148.132978,9.17465753 L148.132978,4.23445732 Z M152.770717,14.4677292 L186.394325,14.4677292 L186.394325,19.5087498 C172.430698,27.1711012 163.457681,32.9682749 159.525685,36.7994505 C158.41666,37.9084751 157.710918,38.8158588 157.408456,39.6224221 C157.408456,40.328165 157.710918,40.6810364 158.41666,40.6810364 L183.369712,40.6810364 C184.579557,40.6810364 185.537351,40.328165 186.142274,39.6728323 C186.747196,39.0679098 187.301709,36.1441179 187.7554,30.9518666 L192.64519,32.9682749 C192.090678,38.9166792 191.132884,42.4453936 189.771809,43.6552386 C188.410733,44.8650835 186.444735,45.470006 183.873815,45.470006 L158.668711,45.470006 C154.131793,45.470006 151.913744,43.8568794 151.913744,40.6306262 C151.913744,38.4629874 153.52687,35.942477 156.753124,33.0690953 C160.987581,29.2379196 167.944189,24.7010011 177.673359,19.5087498 L152.770717,19.5087498 L152.770717,14.4677292 Z M199.299338,11.5943474 L218.303985,11.5943474 L218.303985,0.0504102062 L223.546647,0.0504102062 L223.546647,11.5943474 L242.601705,11.5943474 L242.601705,16.5849579 L228.184386,16.5849579 C231.309819,24.196899 236.60289,31.0022768 244.114011,37.0515016 L240.534886,41.5380099 C232.570074,34.2789402 226.87372,26.2637174 223.546647,17.3915212 L223.546647,46.7806714 L218.303985,46.7806714 L218.303985,17.4419314 C214.62404,27.2215114 208.675636,35.2871444 200.458772,41.6388303 L197.53498,36.9506812 C204.84446,31.6071993 210.238352,24.8522317 213.666246,16.5849579 L199.299338,16.5849579 L199.299338,11.5943474 Z M231.76351,0.100820412 C234.586482,3.07502258 236.754121,5.6459431 238.266427,7.86399217 L234.08238,10.8381943 C232.469253,8.41850444 230.352025,5.6963533 227.629874,2.67174093 L231.76351,0.100820412 Z" id="设计≠艺术" fill="#A8B2BA" fill-rule="nonzero"></path>
            </g>
            <path d="M12.96,76 L12.96,67.6 L15.72,67.6 C16.3920034,67.6 16.9859974,67.7179988 17.502,67.954 C18.0180026,68.1900012 18.4519982,68.503998 18.804,68.896 C19.1560018,69.288002 19.4219991,69.7359975 19.602,70.24 C19.7820009,70.7440025 19.872,71.2639973 19.872,71.8 C19.872,72.3360027 19.7820009,72.8559975 19.602,73.36 C19.4219991,73.8640025 19.1560018,74.311998 18.804,74.704 C18.4519982,75.096002 18.0180026,75.4099988 17.502,75.646 C16.9859974,75.8820012 16.3920034,76 15.72,76 L12.96,76 Z M15.672,74.5 C16.0160017,74.5 16.3379985,74.4300007 16.638,74.29 C16.9380015,74.1499993 17.2019989,73.9600012 17.43,73.72 C17.6580011,73.4799988 17.8379993,73.1960016 17.97,72.868 C18.1020007,72.5399984 18.168,72.1840019 18.168,71.8 C18.168,71.4159981 18.1020007,71.0600016 17.97,70.732 C17.8379993,70.4039984 17.6580011,70.1200012 17.43,69.88 C17.2019989,69.6399988 16.9380015,69.4500007 16.638,69.31 C16.3379985,69.1699993 16.0160017,69.1 15.672,69.1 L14.664,69.1 L14.664,74.5 L15.672,74.5 Z M25.896,76 L25.896,75.376 C25.5839984,75.6560014 25.2540017,75.8539994 24.906,75.97 C24.5579983,76.0860006 24.1920019,76.144 23.808,76.144 C23.3759978,76.144 22.9740019,76.0660008 22.602,75.91 C22.2299981,75.7539992 21.9100013,75.5320014 21.642,75.244 C21.3739987,74.9559986 21.1620008,74.612002 21.006,74.212 C20.8499992,73.811998 20.772,73.3680024 20.772,72.88 C20.772,72.3919976 20.8499992,71.948002 21.006,71.548 C21.1620008,71.147998 21.3739987,70.8040014 21.642,70.516 C21.9100013,70.2279986 22.2299981,70.0060008 22.602,69.85 C22.9740019,69.6939992 23.3759978,69.616 23.808,69.616 C24.1840019,69.616 24.5459983,69.6719994 24.894,69.784 C25.2420017,69.8960006 25.5719984,70.0919986 25.884,70.372 L25.884,69.796 L27.468,69.796 L27.468,76 L25.896,76 Z M25.788,72.124 C25.5559988,71.7639982 25.2880015,71.5140007 24.984,71.374 C24.6799985,71.2339993 24.3960013,71.164 24.132,71.164 C23.9159989,71.164 23.710001,71.1999996 23.514,71.272 C23.317999,71.3440004 23.1440008,71.4499993 22.992,71.59 C22.8399992,71.7300007 22.7180005,71.9079989 22.626,72.124 C22.5339995,72.3400011 22.488,72.5919986 22.488,72.88 C22.488,73.1680014 22.5339995,73.4199989 22.626,73.636 C22.7180005,73.8520011 22.8399992,74.0299993 22.992,74.17 C23.1440008,74.3100007 23.317999,74.4159996 23.514,74.488 C23.710001,74.5600004 23.9159989,74.596 24.132,74.596 C24.3960013,74.596 24.6799985,74.5280007 24.984,74.392 C25.2880015,74.2559993 25.5559988,74.0080018 25.788,73.648 L25.788,72.124 Z M28.92,77.26 C29.0560007,77.3080002 29.1819994,77.3419999 29.298,77.362 C29.4140006,77.3820001 29.5239995,77.392 29.628,77.392 C29.9880018,77.392 30.2779989,77.2800011 30.498,77.056 C30.7180011,76.8319989 30.8999993,76.5400018 31.044,76.18 L31.188,75.82 L28.308,69.796 L30.252,69.796 L32.016,73.828 L33.552,69.796 L35.496,69.796 L32.52,76.6 C32.3519992,76.9840019 32.172001,77.3279985 31.98,77.632 C31.787999,77.9360015 31.5800011,78.1939989 31.356,78.406 C31.1319989,78.6180011 30.8840014,78.7779995 30.612,78.886 C30.3399986,78.9940005 30.0400016,79.048 29.712,79.048 C29.3519982,79.048 28.9440023,78.9760007 28.488,78.832 L28.92,77.26 Z M41.1,76 L41.1,75.376 C40.7879984,75.6560014 40.4580017,75.8539994 40.11,75.97 C39.7619983,76.0860006 39.3960019,76.144 39.012,76.144 C38.5799978,76.144 38.1780019,76.0660008 37.806,75.91 C37.4339981,75.7539992 37.1140013,75.5320014 36.846,75.244 C36.5779987,74.9559986 36.3660008,74.612002 36.21,74.212 C36.0539992,73.811998 35.976,73.3680024 35.976,72.88 C35.976,72.3919976 36.0539992,71.948002 36.21,71.548 C36.3660008,71.147998 36.5779987,70.8040014 36.846,70.516 C37.1140013,70.2279986 37.4339981,70.0060008 37.806,69.85 C38.1780019,69.6939992 38.5799978,69.616 39.012,69.616 C39.3720018,69.616 39.7159984,69.6659995 40.044,69.766 C40.3720016,69.8660005 40.6879985,70.0399988 40.992,70.288 L40.992,67.6 L42.672,67.6 L42.672,76 L41.1,76 Z M40.992,72.124 C40.7599988,71.7639982 40.4920015,71.5140007 40.188,71.374 C39.8839985,71.2339993 39.6000013,71.164 39.336,71.164 C39.1199989,71.164 38.914001,71.1999996 38.718,71.272 C38.521999,71.3440004 38.3500007,71.4499993 38.202,71.59 C38.0539993,71.7300007 37.9340005,71.9079989 37.842,72.124 C37.7499995,72.3400011 37.704,72.5919986 37.704,72.88 C37.704,73.1680014 37.7499995,73.4199989 37.842,73.636 C37.9340005,73.8520011 38.0539993,74.0299993 38.202,74.17 C38.3500007,74.3100007 38.521999,74.4159996 38.718,74.488 C38.914001,74.5600004 39.1199989,74.596 39.336,74.596 C39.6000013,74.596 39.8839985,74.5280007 40.188,74.392 C40.4920015,74.2559993 40.7599988,74.0080018 40.992,73.648 L40.992,72.124 Z M49.116,76 L49.116,75.376 C48.8039984,75.6560014 48.4740017,75.8539994 48.126,75.97 C47.7779983,76.0860006 47.4120019,76.144 47.028,76.144 C46.5959978,76.144 46.1940019,76.0660008 45.822,75.91 C45.4499981,75.7539992 45.1300013,75.5320014 44.862,75.244 C44.5939987,74.9559986 44.3820008,74.612002 44.226,74.212 C44.0699992,73.811998 43.992,73.3680024 43.992,72.88 C43.992,72.3919976 44.0699992,71.948002 44.226,71.548 C44.3820008,71.147998 44.5939987,70.8040014 44.862,70.516 C45.1300013,70.2279986 45.4499981,70.0060008 45.822,69.85 C46.1940019,69.6939992 46.5959978,69.616 47.028,69.616 C47.4040019,69.616 47.7659983,69.6719994 48.114,69.784 C48.4620017,69.8960006 48.7919984,70.0919986 49.104,70.372 L49.104,69.796 L50.688,69.796 L50.688,76 L49.116,76 Z M49.008,72.124 C48.7759988,71.7639982 48.5080015,71.5140007 48.204,71.374 C47.8999985,71.2339993 47.6160013,71.164 47.352,71.164 C47.1359989,71.164 46.930001,71.1999996 46.734,71.272 C46.537999,71.3440004 46.3640008,71.4499993 46.212,71.59 C46.0599992,71.7300007 45.9380005,71.9079989 45.846,72.124 C45.7539995,72.3400011 45.708,72.5919986 45.708,72.88 C45.708,73.1680014 45.7539995,73.4199989 45.846,73.636 C45.9380005,73.8520011 46.0599992,74.0299993 46.212,74.17 C46.3640008,74.3100007 46.537999,74.4159996 46.734,74.488 C46.930001,74.5600004 47.1359989,74.596 47.352,74.596 C47.6160013,74.596 47.8999985,74.5280007 48.204,74.392 C48.5080015,74.2559993 48.7759988,74.0080018 49.008,73.648 L49.008,72.124 Z M52.14,77.26 C52.2760007,77.3080002 52.4019994,77.3419999 52.518,77.362 C52.6340006,77.3820001 52.7439995,77.392 52.848,77.392 C53.2080018,77.392 53.4979989,77.2800011 53.718,77.056 C53.9380011,76.8319989 54.1199993,76.5400018 54.264,76.18 L54.408,75.82 L51.528,69.796 L53.472,69.796 L55.236,73.828 L56.772,69.796 L58.716,69.796 L55.74,76.6 C55.5719992,76.9840019 55.392001,77.3279985 55.2,77.632 C55.007999,77.9360015 54.8000011,78.1939989 54.576,78.406 C54.3519989,78.6180011 54.1040014,78.7779995 53.832,78.886 C53.5599986,78.9940005 53.2600016,79.048 52.932,79.048 C52.5719982,79.048 52.1640023,78.9760007 51.708,78.832 L52.14,77.26 Z M64.032,76 L64.032,75.46 C63.7599986,75.668001 63.4600016,75.8339994 63.132,75.958 C62.8039984,76.0820006 62.4480019,76.144 62.064,76.144 C61.271996,76.144 60.6360024,75.8960025 60.156,75.4 C59.6759976,74.9039975 59.436,74.1840047 59.436,73.24 L59.436,69.796 L61.116,69.796 L61.116,73.108 C61.116,73.3640013 61.1539996,73.5819991 61.23,73.762 C61.3060004,73.9420009 61.4059994,74.0919994 61.53,74.212 C61.6540006,74.3320006 61.7959992,74.4199997 61.956,74.476 C62.1160008,74.5320003 62.2799992,74.56 62.448,74.56 C62.7520015,74.56 63.0519985,74.4780008 63.348,74.314 C63.6440015,74.1499992 63.8719992,73.9120016 64.032,73.6 L64.032,69.796 L65.712,69.796 L65.712,76 L64.032,76 Z M67.392,78.82 L67.392,69.796 L68.964,69.796 L68.964,70.384 C69.2760016,70.1039986 69.6059983,69.9060006 69.954,69.79 C70.3020017,69.6739994 70.6679981,69.616 71.052,69.616 C71.4840022,69.616 71.8859981,69.6939992 72.258,69.85 C72.6300019,70.0060008 72.9499987,70.2279986 73.218,70.516 C73.4860013,70.8040014 73.6979992,71.147998 73.854,71.548 C74.0100008,71.948002 74.088,72.3919976 74.088,72.88 C74.088,73.3680024 74.0100008,73.811998 73.854,74.212 C73.6979992,74.612002 73.4860013,74.9559986 73.218,75.244 C72.9499987,75.5320014 72.6300019,75.7539992 72.258,75.91 C71.8859981,76.0660008 71.4840022,76.144 71.052,76.144 C70.6919982,76.144 70.3460017,76.0940005 70.014,75.994 C69.6819983,75.8939995 69.3680015,75.7200012 69.072,75.472 L69.072,78.82 L67.392,78.82 Z M69.072,73.648 C69.2960011,74.0080018 69.5599985,74.2559993 69.864,74.392 C70.1680015,74.5280007 70.4559986,74.596 70.728,74.596 C70.9440011,74.596 71.149999,74.5600004 71.346,74.488 C71.542001,74.4159996 71.7139993,74.3100007 71.862,74.17 C72.0100007,74.0299993 72.1299995,73.8520011 72.222,73.636 C72.3140005,73.4199989 72.36,73.1680014 72.36,72.88 C72.36,72.5919986 72.3140005,72.3400011 72.222,72.124 C72.1299995,71.9079989 72.0100007,71.7300007 71.862,71.59 C71.7139993,71.4499993 71.542001,71.3440004 71.346,71.272 C71.149999,71.1999996 70.9440011,71.164 70.728,71.164 C70.4559986,71.164 70.1680015,71.2339993 69.864,71.374 C69.5599985,71.5140007 69.2960011,71.7639982 69.072,72.124 L69.072,73.648 Z" id="Daydayup" fill="#A8B2BA" fill-rule="nonzero" opacity="0.400000006"></path>
            <path d="M184.852,73.756 L184.816,73.696 C185.888005,71.9199911 186.539999,70.1600087 186.772,68.416 L188.728,68.992 L188.164,69.34 C188.076,69.5960013 187.984,69.8159991 187.888,70 L189.868,70 L190.408,69.184 L192.244,70.18 L191.632,70.66 C191.095997,72.2920082 190.384004,73.5879952 189.496,74.548 C190.200004,74.8760016 191.279993,75.1159992 192.736,75.268 L192.712,75.34 C192.239998,75.6840017 191.880001,76.251996 191.632,77.044 C190.167993,76.5959978 189.108003,76.0800029 188.452,75.496 C187.491995,76.2160036 186.224008,76.8239975 184.648,77.32 L184.612,77.26 C185.908006,76.3879956 186.943996,75.5240043 187.72,74.668 C187.311998,74.1159972 186.924002,73.2800056 186.556,72.16 C186.147998,72.6400024 185.580004,73.1719971 184.852,73.756 Z M181.408,68.38 L181.408,68.092 L186.412,68.092 C186.219999,68.0359997 186.108,67.8840012 186.076,67.636 C185.98,67.0599971 185.844001,66.6560012 185.668,66.424 L185.716,66.364 C187.060007,66.3399999 187.74,66.6519968 187.756,67.3 C187.732,67.6840019 187.480002,67.9479993 187,68.092 L190.228,68.092 L191.068,66.964 L192.532,68.044 C192.588,68.0840002 192.616,68.1239998 192.616,68.164 C192.584,68.2920006 192.460001,68.3639999 192.244,68.38 L184.24,68.38 L185.896,69.088 L185.272,69.424 C184.911998,70.0400031 184.524002,70.5879976 184.108,71.068 L184.876,71.212 L184.42,71.632 L184.42,76.648 C184.428,76.9120013 184.304001,77.0639998 184.048,77.104 C183.631998,77.1680003 183.244002,77.196 182.884,77.188 C182.932,75.979994 182.956,74.7120066 182.956,73.384 L182.956,72.208 C182.475998,72.616002 181.940003,72.9999982 181.348,73.36 L181.324,73.288 C182.588006,71.6079916 183.443998,69.972008 183.892,68.38 L181.408,68.38 Z M190.06,70.288 L187.78,70.288 C187.708,70.4560008 187.612001,70.6319991 187.492,70.816 C188.596006,71.0720013 189.108,71.4399976 189.028,71.92 C188.972,72.3920024 188.704002,72.6559997 188.224,72.712 C187.943999,72.72 187.784,72.5600016 187.744,72.232 L187.708,71.98 C187.66,71.5639979 187.568001,71.2120014 187.432,70.924 C187.207999,71.316002 186.960001,71.6759984 186.688,72.004 C187.264003,72.8200041 187.827997,73.4399979 188.38,73.864 C189.164004,72.8079947 189.723998,71.6160066 190.06,70.288 Z M203.92,73.54 C203.92,73.9640021 203.932,74.7639941 203.956,75.94 C203.964,76.2680016 203.968,76.4919994 203.968,76.612 C203.984,76.8360011 203.900001,76.9599999 203.716,76.984 C203.419999,77.0560004 203.024002,77.1039999 202.528,77.128 L202.528,76.468 L198.832,76.468 L198.832,76.684 C198.864,76.9400013 198.768001,77.072 198.544,77.08 C198.119998,77.1520004 197.744002,77.184 197.416,77.176 C197.44,76.2799955 197.456,75.2400059 197.464,74.056 L197.464,72.616 C197.456,71.5119945 197.448,70.7760018 197.44,70.408 L199.144,70.804 L202.348,70.804 L202.792,70.036 L204.352,70.828 L203.92,71.356 L203.92,73.54 Z M193.384,70.468 L193.336,70.408 C193.880003,69.8319971 194.343998,69.2640028 194.728,68.704 C194.479999,68.1599973 194.104003,67.5760031 193.6,66.952 L193.648,66.892 C194.272003,67.3320022 194.759998,67.7399981 195.112,68.116 C195.448002,67.5479972 195.711999,66.960003 195.904,66.352 L197.596,67.264 L197.008,67.552 C196.623998,68.0880027 196.212002,68.555998 195.772,68.956 C196.484004,69.9720051 196.824,71.6919879 196.792,74.116 C196.808,76.0280096 196.052008,77.0519993 194.524,77.188 C194.524,76.4359962 194.136004,75.956001 193.36,75.748 L193.372,75.676 L194.512,75.748 C195.112003,75.7319999 195.424,75.124006 195.448,73.924 C195.448,73.4279975 195.44,72.976002 195.424,72.568 C194.895997,73.1360028 194.216004,73.6519977 193.384,74.116 L193.336,74.068 C194.176004,72.9479944 194.823998,71.8280056 195.28,70.708 C195.224,70.2679978 195.140001,69.8760017 195.028,69.532 C194.587998,69.8440016 194.040003,70.1559984 193.384,70.468 Z M196.936,68.5 L196.936,68.224 L198.7,68.224 L198.7,67.852 C198.7,67.2839972 198.692,66.800002 198.676,66.4 L200.428,66.7 L200.02,67.12 L200.02,68.224 L201.292,68.224 L201.292,67.648 C201.292,67.3839987 201.284,66.9720028 201.268,66.412 L203.02,66.712 L202.612,67.12 L202.612,68.224 L202.852,68.224 L203.464,67.336 L204.64,68.188 C204.688,68.2200002 204.712,68.2639997 204.712,68.32 C204.696,68.4320006 204.580001,68.492 204.364,68.5 L202.612,68.5 C202.628,68.892002 202.636,69.2719982 202.636,69.64 C202.636,69.7920008 202.560001,69.8879998 202.408,69.928 C202.127999,69.9920003 201.756002,70.0319999 201.292,70.048 L201.292,68.5 L200.02,68.5 L200.02,69.748 C200.02,69.9240009 199.932001,70.0319998 199.756,70.072 C199.411998,70.1360003 199.060002,70.172 198.7,70.18 L198.7,68.5 L196.936,68.5 Z M198.832,73.708 L198.832,76.18 L200.008,76.18 L200.008,73.708 L198.832,73.708 Z M201.352,73.708 L201.352,76.18 L202.528,76.18 L202.528,73.708 L201.352,73.708 Z M198.832,71.092 L198.832,73.42 L200.008,73.42 L200.008,71.092 L198.832,71.092 Z M202.528,71.092 L201.352,71.092 L201.352,73.42 L202.528,73.42 L202.528,71.092 Z M207.952,77.176 C209.408007,76.3919961 210.551996,75.5840042 211.384,74.752 C210.839997,74.0479965 210.436001,73.0760062 210.172,71.836 L209.152,71.836 L209.152,71.548 L213.268,71.548 L213.808,70.804 L215.584,71.872 L214.984,72.328 C214.519998,73.2240045 214.020003,73.9599971 213.484,74.536 C214.356004,74.9120019 215.427994,75.1679993 216.7,75.304 L216.7,75.376 C216.163997,75.776002 215.752001,76.3519962 215.464,77.104 C214.055993,76.703998 212.984004,76.2120029 212.248,75.628 C211.143994,76.3960038 209.724009,76.9319985 207.988,77.236 L207.952,77.176 Z M209.968,66.508 L211.852,66.952 L212.908,66.952 L213.34,66.232 L214.912,66.988 L214.516,67.468 L214.516,69.088 C214.5,69.3520013 214.619999,69.4760001 214.876,69.46 L215.044,69.46 C215.284001,69.468 215.475999,69.376001 215.62,69.184 L215.668,69.184 C216.316003,69.6560024 216.624,69.995999 216.592,70.204 C216.471999,70.5080015 216.004004,70.6719999 215.188,70.696 L214.324,70.696 C213.459996,70.7440002 213.052,70.2920048 213.1,69.34 L213.1,67.24 L211.504,67.24 L211.504,67.66 C211.632001,69.4760091 210.68801,70.8079958 208.672,71.656 L208.624,71.596 C209.192003,70.9639968 209.563999,70.3960025 209.74,69.892 C209.932001,69.3959975 210.024,68.7160043 210.016,67.852 C210.016,67.3639976 210,66.916002 209.968,66.508 Z M206.644,70.564 L205.372,70.564 L205.372,70.276 L206.452,70.276 L206.884,69.496 L208.504,70.324 L208.036,70.828 L208.036,74.104 L209.728,73.348 L209.764,73.408 C209.011996,74.2960044 208.236004,75.1119963 207.436,75.856 L207.172,76.432 L206.092,74.968 C206.476002,74.7439989 206.66,74.4480018 206.644,74.08 L206.644,70.564 Z M213.4,71.836 L210.292,71.836 C210.900003,72.6840042 211.539997,73.3439976 212.212,73.816 C212.668002,73.2399971 213.063998,72.5800037 213.4,71.836 Z M206.236,66.496 L206.272,66.46 C207.824008,66.7560015 208.58,67.2439966 208.54,67.924 C208.46,68.4920028 208.140003,68.8159996 207.58,68.896 C207.299999,68.904 207.112,68.708002 207.016,68.308 C206.823999,67.5879964 206.564002,66.9840024 206.236,66.496 Z M223.828,66.508 L226.012,66.808 L225.484,67.3 L225.484,70.732 L226.36,70.732 L227.248,69.544 L228.76,70.684 C228.816,70.7320002 228.844,70.7759998 228.844,70.816 C228.82,70.9360006 228.696001,71.0039999 228.472,71.02 L225.484,71.02 L225.484,72.724 C225.484,73.0840018 225.5,74.4479882 225.532,76.816 C225.54,77.0000009 225.460001,77.1039999 225.292,77.128 C224.811998,77.2160004 224.324002,77.256 223.828,77.248 C223.876,75.1759896 223.9,73.8280031 223.9,73.204 L223.9,71.02 L221.224,71.02 L221.224,70.732 L223.9,70.732 L223.9,69.004 C223.892,68.1239956 223.868,67.2920039 223.828,66.508 Z M220.228,74.26 L222.196,73.276 L222.232,73.312 C221.351996,74.4080055 220.480004,75.3479961 219.616,76.132 L219.34,76.708 L218.188,75.124 C218.572002,74.8999989 218.756,74.604 218.74,74.236 L218.74,70.708 L217.252,70.708 L217.252,70.42 L218.476,70.42 L218.956,69.604 L220.756,70.48 L220.228,71.02 L220.228,74.26 Z M218.344,66.532 L218.368,66.484 C219.928008,66.7560014 220.688,67.2519964 220.648,67.972 C220.584,68.5560029 220.264003,68.8799997 219.688,68.944 C219.327998,68.944 219.104,68.7520019 219.016,68.368 C218.855999,67.6159962 218.632001,67.0040024 218.344,66.532 Z M233.308,67.948 L233.284,67.876 C234.996009,67.4919981 236.255996,67.1440016 237.064,66.832 C237.616003,66.631999 238.115998,66.4120012 238.564,66.172 L240.028,67.516 L239.32,67.516 C238.735997,67.6040004 238.100003,67.6839996 237.412,67.756 L237.412,69.976 L238.54,69.976 L239.296,68.968 L240.568,69.928 C240.616,69.9600002 240.64,70.0079997 240.64,70.072 C240.608,70.1840006 240.484001,70.2479999 240.268,70.264 L237.412,70.264 L237.412,72.34 L237.976,72.34 L238.408,71.548 L240.124,72.412 L239.656,72.904 L239.656,74.308 C239.656,74.8520027 239.672,75.623995 239.704,76.624 C239.728,76.8480011 239.636001,76.9759998 239.428,77.008 C239.091998,77.0800004 238.680002,77.1239999 238.192,77.14 L238.192,76 L235.228,76 L235.228,76.624 C235.236,76.8720012 235.124001,77.0159998 234.892,77.056 C234.475998,77.1360004 234.092002,77.176 233.74,77.176 C233.772,76.0159942 233.788,75.1960024 233.788,74.716 L233.788,74.152 C233.115997,74.960004 232.424004,75.6919967 231.712,76.348 L231.484,76.96 L230.344,75.448 C230.696002,75.255999 230.864,74.9760018 230.848,74.608 L230.848,70.948 L229.384,70.948 L229.384,70.66 L230.656,70.66 L231.112,69.832 L232.72,70.648 L232.264,71.128 L232.264,74.584 L233.788,73.936 L233.788,73.744 C233.788,72.9199959 233.78,72.312002 233.764,71.92 L235.336,72.34 L235.924,72.34 L235.924,70.264 L233.068,70.264 L233.068,69.976 L235.924,69.976 L235.924,67.876 C234.907995,67.9320003 234.036004,67.956 233.308,67.948 Z M238.192,72.628 L235.228,72.628 L235.228,75.712 L238.192,75.712 L238.192,72.628 Z M230.392,66.484 L230.428,66.448 C231.956008,66.7040013 232.712,67.1919964 232.696,67.912 C232.6,68.4880029 232.260003,68.8159996 231.676,68.896 C231.387999,68.896 231.208,68.7280017 231.136,68.392 C230.991999,67.7199966 230.744002,67.084003 230.392,66.484 Z" id="夜猫设计话" fill="#A8B2BA" fill-rule="nonzero" opacity="0.400000006"></path>
        </g>
    </g>
</svg>