<?xml version="1.0" encoding="UTF-8"?>
<svg width="1200px" height="200px" viewBox="0 0 1200 200" version="1.1" xmlns="http://www.w3.org/2000/svg" xmlns:xlink="http://www.w3.org/1999/xlink">
    <!-- Generator: Sketch 56.3 (81716) - https://sketch.com -->
    <title>PC端banner模板备份 4</title>
    <desc>Created with Sketch.</desc>
    <g id="PC端banner模板备份-4" stroke="none" stroke-width="1" fill="none" fill-rule="evenodd">
        <rect fill="#000000" x="0" y="0" width="1200" height="200"></rect>
        <g id="编组-2" transform="translate(439.000000, 103.000000)">
            <g id="编组" fill="#FF3040" opacity="0.5">
                <polygon id="矩形" points="10.8561644 0.12411561 317 0.12411561 306.143836 12.1241156 0 12.1241156"></polygon>
            </g>
            <path d="M12.96,34 L12.96,25.6 L15.72,25.6 C16.3920034,25.6 16.9859974,25.7179988 17.502,25.954 C18.0180026,26.1900012 18.4519982,26.503998 18.804,26.896 C19.1560018,27.288002 19.4219991,27.7359975 19.602,28.24 C19.7820009,28.7440025 19.872,29.2639973 19.872,29.8 C19.872,30.3360027 19.7820009,30.8559975 19.602,31.36 C19.4219991,31.8640025 19.1560018,32.311998 18.804,32.704 C18.4519982,33.096002 18.0180026,33.4099988 17.502,33.646 C16.9859974,33.8820012 16.3920034,34 15.72,34 L12.96,34 Z M15.672,32.5 C16.0160017,32.5 16.3379985,32.4300007 16.638,32.29 C16.9380015,32.1499993 17.2019989,31.9600012 17.43,31.72 C17.6580011,31.4799988 17.8379993,31.1960016 17.97,30.868 C18.1020007,30.5399984 18.168,30.1840019 18.168,29.8 C18.168,29.4159981 18.1020007,29.0600016 17.97,28.732 C17.8379993,28.4039984 17.6580011,28.1200012 17.43,27.88 C17.2019989,27.6399988 16.9380015,27.4500007 16.638,27.31 C16.3379985,27.1699993 16.0160017,27.1 15.672,27.1 L14.664,27.1 L14.664,32.5 L15.672,32.5 Z M25.896,34 L25.896,33.376 C25.5839984,33.6560014 25.2540017,33.8539994 24.906,33.97 C24.5579983,34.0860006 24.1920019,34.144 23.808,34.144 C23.3759978,34.144 22.9740019,34.0660008 22.602,33.91 C22.2299981,33.7539992 21.9100013,33.5320014 21.642,33.244 C21.3739987,32.9559986 21.1620008,32.612002 21.006,32.212 C20.8499992,31.811998 20.772,31.3680024 20.772,30.88 C20.772,30.3919976 20.8499992,29.948002 21.006,29.548 C21.1620008,29.147998 21.3739987,28.8040014 21.642,28.516 C21.9100013,28.2279986 22.2299981,28.0060008 22.602,27.85 C22.9740019,27.6939992 23.3759978,27.616 23.808,27.616 C24.1840019,27.616 24.5459983,27.6719994 24.894,27.784 C25.2420017,27.8960006 25.5719984,28.0919986 25.884,28.372 L25.884,27.796 L27.468,27.796 L27.468,34 L25.896,34 Z M25.788,30.124 C25.5559988,29.7639982 25.2880015,29.5140007 24.984,29.374 C24.6799985,29.2339993 24.3960013,29.164 24.132,29.164 C23.9159989,29.164 23.710001,29.1999996 23.514,29.272 C23.317999,29.3440004 23.1440008,29.4499993 22.992,29.59 C22.8399992,29.7300007 22.7180005,29.9079989 22.626,30.124 C22.5339995,30.3400011 22.488,30.5919986 22.488,30.88 C22.488,31.1680014 22.5339995,31.4199989 22.626,31.636 C22.7180005,31.8520011 22.8399992,32.0299993 22.992,32.17 C23.1440008,32.3100007 23.317999,32.4159996 23.514,32.488 C23.710001,32.5600004 23.9159989,32.596 24.132,32.596 C24.3960013,32.596 24.6799985,32.5280007 24.984,32.392 C25.2880015,32.2559993 25.5559988,32.0080018 25.788,31.648 L25.788,30.124 Z M28.92,35.26 C29.0560007,35.3080002 29.1819994,35.3419999 29.298,35.362 C29.4140006,35.3820001 29.5239995,35.392 29.628,35.392 C29.9880018,35.392 30.2779989,35.2800011 30.498,35.056 C30.7180011,34.8319989 30.8999993,34.5400018 31.044,34.18 L31.188,33.82 L28.308,27.796 L30.252,27.796 L32.016,31.828 L33.552,27.796 L35.496,27.796 L32.52,34.6 C32.3519992,34.9840019 32.172001,35.3279985 31.98,35.632 C31.787999,35.9360015 31.5800011,36.1939989 31.356,36.406 C31.1319989,36.6180011 30.8840014,36.7779995 30.612,36.886 C30.3399986,36.9940005 30.0400016,37.048 29.712,37.048 C29.3519982,37.048 28.9440023,36.9760007 28.488,36.832 L28.92,35.26 Z M41.1,34 L41.1,33.376 C40.7879984,33.6560014 40.4580017,33.8539994 40.11,33.97 C39.7619983,34.0860006 39.3960019,34.144 39.012,34.144 C38.5799978,34.144 38.1780019,34.0660008 37.806,33.91 C37.4339981,33.7539992 37.1140013,33.5320014 36.846,33.244 C36.5779987,32.9559986 36.3660008,32.612002 36.21,32.212 C36.0539992,31.811998 35.976,31.3680024 35.976,30.88 C35.976,30.3919976 36.0539992,29.948002 36.21,29.548 C36.3660008,29.147998 36.5779987,28.8040014 36.846,28.516 C37.1140013,28.2279986 37.4339981,28.0060008 37.806,27.85 C38.1780019,27.6939992 38.5799978,27.616 39.012,27.616 C39.3720018,27.616 39.7159984,27.6659995 40.044,27.766 C40.3720016,27.8660005 40.6879985,28.0399988 40.992,28.288 L40.992,25.6 L42.672,25.6 L42.672,34 L41.1,34 Z M40.992,30.124 C40.7599988,29.7639982 40.4920015,29.5140007 40.188,29.374 C39.8839985,29.2339993 39.6000013,29.164 39.336,29.164 C39.1199989,29.164 38.914001,29.1999996 38.718,29.272 C38.521999,29.3440004 38.3500007,29.4499993 38.202,29.59 C38.0539993,29.7300007 37.9340005,29.9079989 37.842,30.124 C37.7499995,30.3400011 37.704,30.5919986 37.704,30.88 C37.704,31.1680014 37.7499995,31.4199989 37.842,31.636 C37.9340005,31.8520011 38.0539993,32.0299993 38.202,32.17 C38.3500007,32.3100007 38.521999,32.4159996 38.718,32.488 C38.914001,32.5600004 39.1199989,32.596 39.336,32.596 C39.6000013,32.596 39.8839985,32.5280007 40.188,32.392 C40.4920015,32.2559993 40.7599988,32.0080018 40.992,31.648 L40.992,30.124 Z M49.116,34 L49.116,33.376 C48.8039984,33.6560014 48.4740017,33.8539994 48.126,33.97 C47.7779983,34.0860006 47.4120019,34.144 47.028,34.144 C46.5959978,34.144 46.1940019,34.0660008 45.822,33.91 C45.4499981,33.7539992 45.1300013,33.5320014 44.862,33.244 C44.5939987,32.9559986 44.3820008,32.612002 44.226,32.212 C44.0699992,31.811998 43.992,31.3680024 43.992,30.88 C43.992,30.3919976 44.0699992,29.948002 44.226,29.548 C44.3820008,29.147998 44.5939987,28.8040014 44.862,28.516 C45.1300013,28.2279986 45.4499981,28.0060008 45.822,27.85 C46.1940019,27.6939992 46.5959978,27.616 47.028,27.616 C47.4040019,27.616 47.7659983,27.6719994 48.114,27.784 C48.4620017,27.8960006 48.7919984,28.0919986 49.104,28.372 L49.104,27.796 L50.688,27.796 L50.688,34 L49.116,34 Z M49.008,30.124 C48.7759988,29.7639982 48.5080015,29.5140007 48.204,29.374 C47.8999985,29.2339993 47.6160013,29.164 47.352,29.164 C47.1359989,29.164 46.930001,29.1999996 46.734,29.272 C46.537999,29.3440004 46.3640008,29.4499993 46.212,29.59 C46.0599992,29.7300007 45.9380005,29.9079989 45.846,30.124 C45.7539995,30.3400011 45.708,30.5919986 45.708,30.88 C45.708,31.1680014 45.7539995,31.4199989 45.846,31.636 C45.9380005,31.8520011 46.0599992,32.0299993 46.212,32.17 C46.3640008,32.3100007 46.537999,32.4159996 46.734,32.488 C46.930001,32.5600004 47.1359989,32.596 47.352,32.596 C47.6160013,32.596 47.8999985,32.5280007 48.204,32.392 C48.5080015,32.2559993 48.7759988,32.0080018 49.008,31.648 L49.008,30.124 Z M52.14,35.26 C52.2760007,35.3080002 52.4019994,35.3419999 52.518,35.362 C52.6340006,35.3820001 52.7439995,35.392 52.848,35.392 C53.2080018,35.392 53.4979989,35.2800011 53.718,35.056 C53.9380011,34.8319989 54.1199993,34.5400018 54.264,34.18 L54.408,33.82 L51.528,27.796 L53.472,27.796 L55.236,31.828 L56.772,27.796 L58.716,27.796 L55.74,34.6 C55.5719992,34.9840019 55.392001,35.3279985 55.2,35.632 C55.007999,35.9360015 54.8000011,36.1939989 54.576,36.406 C54.3519989,36.6180011 54.1040014,36.7779995 53.832,36.886 C53.5599986,36.9940005 53.2600016,37.048 52.932,37.048 C52.5719982,37.048 52.1640023,36.9760007 51.708,36.832 L52.14,35.26 Z M64.032,34 L64.032,33.46 C63.7599986,33.668001 63.4600016,33.8339994 63.132,33.958 C62.8039984,34.0820006 62.4480019,34.144 62.064,34.144 C61.271996,34.144 60.6360024,33.8960025 60.156,33.4 C59.6759976,32.9039975 59.436,32.1840047 59.436,31.24 L59.436,27.796 L61.116,27.796 L61.116,31.108 C61.116,31.3640013 61.1539996,31.5819991 61.23,31.762 C61.3060004,31.9420009 61.4059994,32.0919994 61.53,32.212 C61.6540006,32.3320006 61.7959992,32.4199997 61.956,32.476 C62.1160008,32.5320003 62.2799992,32.56 62.448,32.56 C62.7520015,32.56 63.0519985,32.4780008 63.348,32.314 C63.6440015,32.1499992 63.8719992,31.9120016 64.032,31.6 L64.032,27.796 L65.712,27.796 L65.712,34 L64.032,34 Z M67.392,36.82 L67.392,27.796 L68.964,27.796 L68.964,28.384 C69.2760016,28.1039986 69.6059983,27.9060006 69.954,27.79 C70.3020017,27.6739994 70.6679981,27.616 71.052,27.616 C71.4840022,27.616 71.8859981,27.6939992 72.258,27.85 C72.6300019,28.0060008 72.9499987,28.2279986 73.218,28.516 C73.4860013,28.8040014 73.6979992,29.147998 73.854,29.548 C74.0100008,29.948002 74.088,30.3919976 74.088,30.88 C74.088,31.3680024 74.0100008,31.811998 73.854,32.212 C73.6979992,32.612002 73.4860013,32.9559986 73.218,33.244 C72.9499987,33.5320014 72.6300019,33.7539992 72.258,33.91 C71.8859981,34.0660008 71.4840022,34.144 71.052,34.144 C70.6919982,34.144 70.3460017,34.0940005 70.014,33.994 C69.6819983,33.8939995 69.3680015,33.7200012 69.072,33.472 L69.072,36.82 L67.392,36.82 Z M69.072,31.648 C69.2960011,32.0080018 69.5599985,32.2559993 69.864,32.392 C70.1680015,32.5280007 70.4559986,32.596 70.728,32.596 C70.9440011,32.596 71.149999,32.5600004 71.346,32.488 C71.542001,32.4159996 71.7139993,32.3100007 71.862,32.17 C72.0100007,32.0299993 72.1299995,31.8520011 72.222,31.636 C72.3140005,31.4199989 72.36,31.1680014 72.36,30.88 C72.36,30.5919986 72.3140005,30.3400011 72.222,30.124 C72.1299995,29.9079989 72.0100007,29.7300007 71.862,29.59 C71.7139993,29.4499993 71.542001,29.3440004 71.346,29.272 C71.149999,29.1999996 70.9440011,29.164 70.728,29.164 C70.4559986,29.164 70.1680015,29.2339993 69.864,29.374 C69.5599985,29.5140007 69.2960011,29.7639982 69.072,30.124 L69.072,31.648 Z" id="Daydayup" fill="#A8B2BA" fill-rule="nonzero" opacity="0.400000006"></path>
            <path d="M251.852,31.756 L251.816,31.696 C252.888005,29.9199911 253.539999,28.1600087 253.772,26.416 L255.728,26.992 L255.164,27.34 C255.076,27.5960013 254.984,27.8159991 254.888,28 L256.868,28 L257.408,27.184 L259.244,28.18 L258.632,28.66 C258.095997,30.2920082 257.384004,31.5879952 256.496,32.548 C257.200004,32.8760016 258.279993,33.1159992 259.736,33.268 L259.712,33.34 C259.239998,33.6840017 258.880001,34.251996 258.632,35.044 C257.167993,34.5959978 256.108003,34.0800029 255.452,33.496 C254.491995,34.2160036 253.224008,34.8239975 251.648,35.32 L251.612,35.26 C252.908006,34.3879956 253.943996,33.5240043 254.72,32.668 C254.311998,32.1159972 253.924002,31.2800056 253.556,30.16 C253.147998,30.6400024 252.580004,31.1719971 251.852,31.756 Z M248.408,26.38 L248.408,26.092 L253.412,26.092 C253.219999,26.0359997 253.108,25.8840012 253.076,25.636 C252.98,25.0599971 252.844001,24.6560012 252.668,24.424 L252.716,24.364 C254.060007,24.3399999 254.74,24.6519968 254.756,25.3 C254.732,25.6840019 254.480002,25.9479993 254,26.092 L257.228,26.092 L258.068,24.964 L259.532,26.044 C259.588,26.0840002 259.616,26.1239998 259.616,26.164 C259.584,26.2920006 259.460001,26.3639999 259.244,26.38 L251.24,26.38 L252.896,27.088 L252.272,27.424 C251.911998,28.0400031 251.524002,28.5879976 251.108,29.068 L251.876,29.212 L251.42,29.632 L251.42,34.648 C251.428,34.9120013 251.304001,35.0639998 251.048,35.104 C250.631998,35.1680003 250.244002,35.196 249.884,35.188 C249.932,33.979994 249.956,32.7120066 249.956,31.384 L249.956,30.208 C249.475998,30.616002 248.940003,30.9999982 248.348,31.36 L248.324,31.288 C249.588006,29.6079916 250.443998,27.972008 250.892,26.38 L248.408,26.38 Z M257.06,28.288 L254.78,28.288 C254.708,28.4560008 254.612001,28.6319991 254.492,28.816 C255.596006,29.0720013 256.108,29.4399976 256.028,29.92 C255.972,30.3920024 255.704002,30.6559997 255.224,30.712 C254.943999,30.72 254.784,30.5600016 254.744,30.232 L254.708,29.98 C254.66,29.5639979 254.568001,29.2120014 254.432,28.924 C254.207999,29.316002 253.960001,29.6759984 253.688,30.004 C254.264003,30.8200041 254.827997,31.4399979 255.38,31.864 C256.164004,30.8079947 256.723998,29.6160066 257.06,28.288 Z M270.92,31.54 C270.92,31.9640021 270.932,32.7639941 270.956,33.94 C270.964,34.2680016 270.968,34.4919994 270.968,34.612 C270.984,34.8360011 270.900001,34.9599999 270.716,34.984 C270.419999,35.0560004 270.024002,35.1039999 269.528,35.128 L269.528,34.468 L265.832,34.468 L265.832,34.684 C265.864,34.9400013 265.768001,35.072 265.544,35.08 C265.119998,35.1520004 264.744002,35.184 264.416,35.176 C264.44,34.2799955 264.456,33.2400059 264.464,32.056 L264.464,30.616 C264.456,29.5119945 264.448,28.7760018 264.44,28.408 L266.144,28.804 L269.348,28.804 L269.792,28.036 L271.352,28.828 L270.92,29.356 L270.92,31.54 Z M260.384,28.468 L260.336,28.408 C260.880003,27.8319971 261.343998,27.2640028 261.728,26.704 C261.479999,26.1599973 261.104003,25.5760031 260.6,24.952 L260.648,24.892 C261.272003,25.3320022 261.759998,25.7399981 262.112,26.116 C262.448002,25.5479972 262.711999,24.960003 262.904,24.352 L264.596,25.264 L264.008,25.552 C263.623998,26.0880027 263.212002,26.555998 262.772,26.956 C263.484004,27.9720051 263.824,29.6919879 263.792,32.116 C263.808,34.0280096 263.052008,35.0519993 261.524,35.188 C261.524,34.4359962 261.136004,33.956001 260.36,33.748 L260.372,33.676 L261.512,33.748 C262.112003,33.7319999 262.424,33.124006 262.448,31.924 C262.448,31.4279975 262.44,30.976002 262.424,30.568 C261.895997,31.1360028 261.216004,31.6519977 260.384,32.116 L260.336,32.068 C261.176004,30.9479944 261.823998,29.8280056 262.28,28.708 C262.224,28.2679978 262.140001,27.8760017 262.028,27.532 C261.587998,27.8440016 261.040003,28.1559984 260.384,28.468 Z M263.936,26.5 L263.936,26.224 L265.7,26.224 L265.7,25.852 C265.7,25.2839972 265.692,24.800002 265.676,24.4 L267.428,24.7 L267.02,25.12 L267.02,26.224 L268.292,26.224 L268.292,25.648 C268.292,25.3839987 268.284,24.9720028 268.268,24.412 L270.02,24.712 L269.612,25.12 L269.612,26.224 L269.852,26.224 L270.464,25.336 L271.64,26.188 C271.688,26.2200002 271.712,26.2639997 271.712,26.32 C271.696,26.4320006 271.580001,26.492 271.364,26.5 L269.612,26.5 C269.628,26.892002 269.636,27.2719982 269.636,27.64 C269.636,27.7920008 269.560001,27.8879998 269.408,27.928 C269.127999,27.9920003 268.756002,28.0319999 268.292,28.048 L268.292,26.5 L267.02,26.5 L267.02,27.748 C267.02,27.9240009 266.932001,28.0319998 266.756,28.072 C266.411998,28.1360003 266.060002,28.172 265.7,28.18 L265.7,26.5 L263.936,26.5 Z M265.832,31.708 L265.832,34.18 L267.008,34.18 L267.008,31.708 L265.832,31.708 Z M268.352,31.708 L268.352,34.18 L269.528,34.18 L269.528,31.708 L268.352,31.708 Z M265.832,29.092 L265.832,31.42 L267.008,31.42 L267.008,29.092 L265.832,29.092 Z M269.528,29.092 L268.352,29.092 L268.352,31.42 L269.528,31.42 L269.528,29.092 Z M274.952,35.176 C276.408007,34.3919961 277.551996,33.5840042 278.384,32.752 C277.839997,32.0479965 277.436001,31.0760062 277.172,29.836 L276.152,29.836 L276.152,29.548 L280.268,29.548 L280.808,28.804 L282.584,29.872 L281.984,30.328 C281.519998,31.2240045 281.020003,31.9599971 280.484,32.536 C281.356004,32.9120019 282.427994,33.1679993 283.7,33.304 L283.7,33.376 C283.163997,33.776002 282.752001,34.3519962 282.464,35.104 C281.055993,34.703998 279.984004,34.2120029 279.248,33.628 C278.143994,34.3960038 276.724009,34.9319985 274.988,35.236 L274.952,35.176 Z M276.968,24.508 L278.852,24.952 L279.908,24.952 L280.34,24.232 L281.912,24.988 L281.516,25.468 L281.516,27.088 C281.5,27.3520013 281.619999,27.4760001 281.876,27.46 L282.044,27.46 C282.284001,27.468 282.475999,27.376001 282.62,27.184 L282.668,27.184 C283.316003,27.6560024 283.624,27.995999 283.592,28.204 C283.471999,28.5080015 283.004004,28.6719999 282.188,28.696 L281.324,28.696 C280.459996,28.7440002 280.052,28.2920048 280.1,27.34 L280.1,25.24 L278.504,25.24 L278.504,25.66 C278.632001,27.4760091 277.68801,28.8079958 275.672,29.656 L275.624,29.596 C276.192003,28.9639968 276.563999,28.3960025 276.74,27.892 C276.932001,27.3959975 277.024,26.7160043 277.016,25.852 C277.016,25.3639976 277,24.916002 276.968,24.508 Z M273.644,28.564 L272.372,28.564 L272.372,28.276 L273.452,28.276 L273.884,27.496 L275.504,28.324 L275.036,28.828 L275.036,32.104 L276.728,31.348 L276.764,31.408 C276.011996,32.2960044 275.236004,33.1119963 274.436,33.856 L274.172,34.432 L273.092,32.968 C273.476002,32.7439989 273.66,32.4480018 273.644,32.08 L273.644,28.564 Z M280.4,29.836 L277.292,29.836 C277.900003,30.6840042 278.539997,31.3439976 279.212,31.816 C279.668002,31.2399971 280.063998,30.5800037 280.4,29.836 Z M273.236,24.496 L273.272,24.46 C274.824008,24.7560015 275.58,25.2439966 275.54,25.924 C275.46,26.4920028 275.140003,26.8159996 274.58,26.896 C274.299999,26.904 274.112,26.708002 274.016,26.308 C273.823999,25.5879964 273.564002,24.9840024 273.236,24.496 Z M290.828,24.508 L293.012,24.808 L292.484,25.3 L292.484,28.732 L293.36,28.732 L294.248,27.544 L295.76,28.684 C295.816,28.7320002 295.844,28.7759998 295.844,28.816 C295.82,28.9360006 295.696001,29.0039999 295.472,29.02 L292.484,29.02 L292.484,30.724 C292.484,31.0840018 292.5,32.4479882 292.532,34.816 C292.54,35.0000009 292.460001,35.1039999 292.292,35.128 C291.811998,35.2160004 291.324002,35.256 290.828,35.248 C290.876,33.1759896 290.9,31.8280031 290.9,31.204 L290.9,29.02 L288.224,29.02 L288.224,28.732 L290.9,28.732 L290.9,27.004 C290.892,26.1239956 290.868,25.2920039 290.828,24.508 Z M287.228,32.26 L289.196,31.276 L289.232,31.312 C288.351996,32.4080055 287.480004,33.3479961 286.616,34.132 L286.34,34.708 L285.188,33.124 C285.572002,32.8999989 285.756,32.604 285.74,32.236 L285.74,28.708 L284.252,28.708 L284.252,28.42 L285.476,28.42 L285.956,27.604 L287.756,28.48 L287.228,29.02 L287.228,32.26 Z M285.344,24.532 L285.368,24.484 C286.928008,24.7560014 287.688,25.2519964 287.648,25.972 C287.584,26.5560029 287.264003,26.8799997 286.688,26.944 C286.327998,26.944 286.104,26.7520019 286.016,26.368 C285.855999,25.6159962 285.632001,25.0040024 285.344,24.532 Z M300.308,25.948 L300.284,25.876 C301.996009,25.4919981 303.255996,25.1440016 304.064,24.832 C304.616003,24.631999 305.115998,24.4120012 305.564,24.172 L307.028,25.516 L306.32,25.516 C305.735997,25.6040004 305.100003,25.6839996 304.412,25.756 L304.412,27.976 L305.54,27.976 L306.296,26.968 L307.568,27.928 C307.616,27.9600002 307.64,28.0079997 307.64,28.072 C307.608,28.1840006 307.484001,28.2479999 307.268,28.264 L304.412,28.264 L304.412,30.34 L304.976,30.34 L305.408,29.548 L307.124,30.412 L306.656,30.904 L306.656,32.308 C306.656,32.8520027 306.672,33.623995 306.704,34.624 C306.728,34.8480011 306.636001,34.9759998 306.428,35.008 C306.091998,35.0800004 305.680002,35.1239999 305.192,35.14 L305.192,34 L302.228,34 L302.228,34.624 C302.236,34.8720012 302.124001,35.0159998 301.892,35.056 C301.475998,35.1360004 301.092002,35.176 300.74,35.176 C300.772,34.0159942 300.788,33.1960024 300.788,32.716 L300.788,32.152 C300.115997,32.960004 299.424004,33.6919967 298.712,34.348 L298.484,34.96 L297.344,33.448 C297.696002,33.255999 297.864,32.9760018 297.848,32.608 L297.848,28.948 L296.384,28.948 L296.384,28.66 L297.656,28.66 L298.112,27.832 L299.72,28.648 L299.264,29.128 L299.264,32.584 L300.788,31.936 L300.788,31.744 C300.788,30.9199959 300.78,30.312002 300.764,29.92 L302.336,30.34 L302.924,30.34 L302.924,28.264 L300.068,28.264 L300.068,27.976 L302.924,27.976 L302.924,25.876 C301.907995,25.9320003 301.036004,25.956 300.308,25.948 Z M305.192,30.628 L302.228,30.628 L302.228,33.712 L305.192,33.712 L305.192,30.628 Z M297.392,24.484 L297.428,24.448 C298.956008,24.7040013 299.712,25.1919964 299.696,25.912 C299.6,26.4880029 299.260003,26.8159996 298.676,26.896 C298.387999,26.896 298.208,26.7280017 298.136,26.392 C297.991999,25.7199966 297.744002,25.084003 297.392,24.484 Z" id="夜猫设计话" fill="#A8B2BA" fill-rule="nonzero" opacity="0.400000006"></path>
        </g>
        <path d="M462.466,74.012 L468.052,74.012 L479.518,104 L474.268,104 L471.538,96.482 L458.98,96.482 L456.25,104 L451,104 L462.466,74.012 Z M460.45,92.45 L470.068,92.45 L465.364,79.304 L465.196,79.304 L460.45,92.45 Z M485.272,73.424 C486.196,73.424 486.994,73.718 487.624,74.306 C488.212,74.894 488.548,75.65 488.548,76.574 C488.548,77.498 488.212,78.296 487.582,78.884 C486.952,79.472 486.196,79.766 485.272,79.766 C484.348,79.766 483.592,79.472 482.962,78.884 C482.332,78.254 482.038,77.498 482.038,76.574 C482.038,75.65 482.332,74.894 482.962,74.306 C483.592,73.718 484.348,73.424 485.272,73.424 Z M482.878,82.286 L487.666,82.286 L487.666,104 L482.878,104 L482.878,82.286 Z M503.836,81.698 C504.886,81.698 505.81,81.866 506.566,82.244 L506.566,87.032 C505.474,86.696 504.466,86.57 503.458,86.57 C502.198,86.57 501.064,87.032 500.056,88.04 C498.88,89.174 498.334,90.644 498.334,92.492 L498.334,104 L493.588,104 L493.588,82.286 L498.334,82.286 L498.334,85.394 C498.922,84.302 499.594,83.462 500.392,82.874 C501.358,82.076 502.492,81.698 503.836,81.698 Z M509.296,73.424 L514.084,73.424 L514.084,85.268 C515.848,82.874 518.032,81.698 520.552,81.698 C523.66,81.698 526.096,82.832 527.902,85.1 C529.54,87.2 530.38,89.846 530.38,93.038 C530.38,96.356 529.54,99.086 527.86,101.186 C526.012,103.454 523.492,104.588 520.3,104.588 C517.444,104.588 515.26,103.622 513.748,101.69 L513.748,104 L509.296,104 L509.296,73.424 Z M519.418,85.562 C517.864,85.562 516.604,86.192 515.596,87.452 C514.462,88.796 513.916,90.644 513.916,92.954 L513.916,93.29 C513.916,95.39 514.336,97.154 515.26,98.498 C516.268,99.968 517.696,100.724 519.586,100.724 C521.686,100.724 523.24,99.968 524.248,98.456 C525.046,97.196 525.466,95.39 525.466,93.038 C525.466,90.686 525.004,88.922 524.164,87.704 C523.156,86.276 521.56,85.562 519.418,85.562 Z M545.794,81.698 C551.212,81.698 553.942,84.638 553.942,90.602 L553.942,104 L549.154,104 L549.154,91.022 C549.154,87.452 547.516,85.688 544.24,85.688 C543.064,85.688 542.014,86.108 541.132,86.948 C540.124,87.872 539.536,89.216 539.368,90.938 L539.368,104 L534.58,104 L534.58,82.286 L539.368,82.286 L539.368,84.806 C540.208,83.798 541.174,83 542.224,82.496 C543.316,81.95 544.492,81.698 545.794,81.698 Z M558.982,73.424 L563.77,73.424 L563.77,85.268 C565.534,82.874 567.718,81.698 570.238,81.698 C573.346,81.698 575.782,82.832 577.588,85.1 C579.226,87.2 580.066,89.846 580.066,93.038 C580.066,96.356 579.226,99.086 577.546,101.186 C575.698,103.454 573.178,104.588 569.986,104.588 C567.13,104.588 564.946,103.622 563.434,101.69 L563.434,104 L558.982,104 L558.982,73.424 Z M569.104,85.562 C567.55,85.562 566.29,86.192 565.282,87.452 C564.148,88.796 563.602,90.644 563.602,92.954 L563.602,93.29 C563.602,95.39 564.022,97.154 564.946,98.498 C565.954,99.968 567.382,100.724 569.272,100.724 C571.372,100.724 572.926,99.968 573.934,98.456 C574.732,97.196 575.152,95.39 575.152,93.038 C575.152,90.686 574.69,88.922 573.85,87.704 C572.842,86.276 571.246,85.562 569.104,85.562 Z M588.97,70.064 C591.658,72.08 593.926,74.096 595.774,76.112 L592.792,79.136 C591.154,77.204 588.886,75.104 585.988,72.92 L588.97,70.064 Z M583.384,81.992 L593.086,81.992 L593.086,99.422 C594.304,98.33 595.606,97.154 596.992,95.852 L598.21,100.472 C595.438,102.992 592.498,105.218 589.39,107.234 L587.71,103.286 C588.424,102.656 588.802,101.858 588.802,100.934 L588.802,86.192 L583.384,86.192 L583.384,81.992 Z M598.42,87.032 L618.916,87.032 L618.916,91.022 C617.74,94.634 615.808,97.784 613.12,100.43 C615.724,102.11 618.874,103.58 622.612,104.882 L620.26,108.662 C616.144,106.982 612.658,105.134 609.886,103.076 C606.61,105.386 602.62,107.234 597.832,108.62 L595.396,104.924 C599.722,103.664 603.376,102.068 606.4,100.136 C603.712,97.448 601.822,94.508 600.814,91.232 L598.42,91.232 L598.42,87.032 Z M604.93,91.232 C605.854,93.626 607.366,95.81 609.55,97.742 C611.692,95.81 613.33,93.668 614.506,91.232 L604.93,91.232 Z M601.276,70.778 L616.396,70.778 L616.396,79.472 C616.396,80.396 616.9,80.9 617.95,80.9 L621.562,80.9 L621.562,84.89 L616.774,84.89 C613.624,84.89 612.07,83.42 612.07,80.48 L612.07,74.894 L605.602,74.894 L605.602,76.028 C605.602,80.396 603.334,83.798 598.882,86.15 L595.942,82.79 C599.47,81.32 601.276,79.22 601.276,76.49 L601.276,70.778 Z M638.614,81.614 L649.45,81.614 L649.45,69.434 L653.986,69.434 L653.986,81.614 L664.276,81.614 L664.276,85.982 L653.986,85.982 L653.986,108.494 L649.45,108.494 L649.45,85.982 L638.614,85.982 L638.614,81.614 Z M631.222,69.77 C633.868,71.828 636.136,73.886 638.026,75.902 L635.002,78.968 C633.406,77.036 631.096,74.978 628.114,72.794 L631.222,69.77 Z M625.384,81.908 L635.38,81.908 L635.38,99.464 C636.598,98.414 637.9,97.238 639.286,95.936 L640.42,100.43 C637.69,102.95 634.792,105.218 631.684,107.234 L630.004,103.286 C630.76,102.656 631.138,101.9 631.138,101.018 L631.138,86.108 L625.384,86.108 L625.384,81.908 Z M678.22,78.002 L686.704,78.002 C686.998,77.036 687.25,76.07 687.418,75.104 L674.65,75.104 L674.65,87.158 C674.482,95.936 673.096,102.992 670.45,108.326 L667.132,105.344 C669.106,100.976 670.114,94.886 670.198,87.158 L670.198,70.82 L705.142,70.82 L705.142,75.104 L691.786,75.104 C691.576,76.112 691.324,77.078 691.03,78.002 L702.244,78.002 L702.244,94.97 L692.962,94.97 L692.962,104.21 C692.962,106.898 691.534,108.242 688.762,108.242 L684.52,108.242 L683.554,103.958 C684.856,104.126 686.074,104.252 687.25,104.252 C688.09,104.252 688.552,103.874 688.552,103.118 L688.552,94.97 L678.22,94.97 L678.22,78.002 Z M698.002,91.022 L698.002,88.292 L682.462,88.292 L682.462,91.022 L698.002,91.022 Z M682.462,84.596 L698.002,84.596 L698.002,81.992 L682.462,81.992 L682.462,84.596 Z M680.824,95.978 L684.646,97.868 C682.798,101.48 680.656,104.588 678.136,107.234 L674.524,104.672 C676.96,102.236 679.06,99.338 680.824,95.978 Z M699.346,95.936 C702.076,99.38 704.176,102.362 705.688,104.882 L702.034,107.36 C700.522,104.588 698.422,101.522 695.776,98.162 L699.346,95.936 Z M730.468,70.82 L730.468,97.448 L726.184,97.448 L726.184,75.02 L715.6,75.02 L715.6,97.826 L711.358,97.826 L711.358,70.82 L730.468,70.82 Z M725.092,98.33 C727.738,100.556 730.006,102.74 731.854,104.924 L728.536,108.242 C726.982,106.1 724.798,103.79 721.984,101.354 L725.092,98.33 Z M718.834,77.414 L723.076,77.414 L723.076,90.476 C722.908,95.432 721.9,99.422 720.094,102.362 C718.288,105.092 715.39,107.234 711.442,108.746 L708.964,104.798 C712.744,103.37 715.306,101.564 716.65,99.464 C717.952,97.112 718.666,94.13 718.834,90.476 L718.834,77.414 Z M734.08,73.172 L738.322,73.172 L738.322,99.002 L734.08,99.002 L734.08,73.172 Z M742.27,107.948 L736.474,107.948 L735.466,103.706 C737.314,103.874 739.078,103.958 740.716,103.958 C741.892,103.958 742.48,103.37 742.48,102.236 L742.48,69.644 L746.848,69.644 L746.848,103.37 C746.848,106.394 745.294,107.948 742.27,107.948 Z" id="Airbnb设计原则" fill="#A8B2BA" fill-rule="nonzero"></path>
    </g>
</svg>