<?xml version="1.0" encoding="UTF-8"?>
<svg width="1200px" height="200px" viewBox="0 0 1200 200" version="1.1" xmlns="http://www.w3.org/2000/svg" xmlns:xlink="http://www.w3.org/1999/xlink">
    <!-- Generator: Sketch 56.3 (81716) - https://sketch.com -->
    <title>PC端banner模板备份 4</title>
    <desc>Created with Sketch.</desc>
    <g id="PC端banner模板备份-4" stroke="none" stroke-width="1" fill="none" fill-rule="evenodd">
        <rect fill="#000000" x="0" y="0" width="1200" height="200"></rect>
        <g id="编组-2" transform="translate(417.000000, 103.000000)">
            <g id="编组" fill="#FF3040" opacity="0.5">
                <polygon id="矩形" points="10.8561644 0.12411561 363 0.12411561 352.143836 12.1241156 -9.09599219e-13 12.1241156"></polygon>
            </g>
            <path d="M10.96,34 L10.96,25.6 L13.72,25.6 C14.3920034,25.6 14.9859974,25.7179988 15.502,25.954 C16.0180026,26.1900012 16.4519982,26.503998 16.804,26.896 C17.1560018,27.288002 17.4219991,27.7359975 17.602,28.24 C17.7820009,28.7440025 17.872,29.2639973 17.872,29.8 C17.872,30.3360027 17.7820009,30.8559975 17.602,31.36 C17.4219991,31.8640025 17.1560018,32.311998 16.804,32.704 C16.4519982,33.096002 16.0180026,33.4099988 15.502,33.646 C14.9859974,33.8820012 14.3920034,34 13.72,34 L10.96,34 Z M13.672,32.5 C14.0160017,32.5 14.3379985,32.4300007 14.638,32.29 C14.9380015,32.1499993 15.2019989,31.9600012 15.43,31.72 C15.6580011,31.4799988 15.8379993,31.1960016 15.97,30.868 C16.1020007,30.5399984 16.168,30.1840019 16.168,29.8 C16.168,29.4159981 16.1020007,29.0600016 15.97,28.732 C15.8379993,28.4039984 15.6580011,28.1200012 15.43,27.88 C15.2019989,27.6399988 14.9380015,27.4500007 14.638,27.31 C14.3379985,27.1699993 14.0160017,27.1 13.672,27.1 L12.664,27.1 L12.664,32.5 L13.672,32.5 Z M23.896,34 L23.896,33.376 C23.5839984,33.6560014 23.2540017,33.8539994 22.906,33.97 C22.5579983,34.0860006 22.1920019,34.144 21.808,34.144 C21.3759978,34.144 20.9740019,34.0660008 20.602,33.91 C20.2299981,33.7539992 19.9100013,33.5320014 19.642,33.244 C19.3739987,32.9559986 19.1620008,32.612002 19.006,32.212 C18.8499992,31.811998 18.772,31.3680024 18.772,30.88 C18.772,30.3919976 18.8499992,29.948002 19.006,29.548 C19.1620008,29.147998 19.3739987,28.8040014 19.642,28.516 C19.9100013,28.2279986 20.2299981,28.0060008 20.602,27.85 C20.9740019,27.6939992 21.3759978,27.616 21.808,27.616 C22.1840019,27.616 22.5459983,27.6719994 22.894,27.784 C23.2420017,27.8960006 23.5719984,28.0919986 23.884,28.372 L23.884,27.796 L25.468,27.796 L25.468,34 L23.896,34 Z M23.788,30.124 C23.5559988,29.7639982 23.2880015,29.5140007 22.984,29.374 C22.6799985,29.2339993 22.3960013,29.164 22.132,29.164 C21.9159989,29.164 21.710001,29.1999996 21.514,29.272 C21.317999,29.3440004 21.1440008,29.4499993 20.992,29.59 C20.8399992,29.7300007 20.7180005,29.9079989 20.626,30.124 C20.5339995,30.3400011 20.488,30.5919986 20.488,30.88 C20.488,31.1680014 20.5339995,31.4199989 20.626,31.636 C20.7180005,31.8520011 20.8399992,32.0299993 20.992,32.17 C21.1440008,32.3100007 21.317999,32.4159996 21.514,32.488 C21.710001,32.5600004 21.9159989,32.596 22.132,32.596 C22.3960013,32.596 22.6799985,32.5280007 22.984,32.392 C23.2880015,32.2559993 23.5559988,32.0080018 23.788,31.648 L23.788,30.124 Z M26.92,35.26 C27.0560007,35.3080002 27.1819994,35.3419999 27.298,35.362 C27.4140006,35.3820001 27.5239995,35.392 27.628,35.392 C27.9880018,35.392 28.2779989,35.2800011 28.498,35.056 C28.7180011,34.8319989 28.8999993,34.5400018 29.044,34.18 L29.188,33.82 L26.308,27.796 L28.252,27.796 L30.016,31.828 L31.552,27.796 L33.496,27.796 L30.52,34.6 C30.3519992,34.9840019 30.172001,35.3279985 29.98,35.632 C29.787999,35.9360015 29.5800011,36.1939989 29.356,36.406 C29.1319989,36.6180011 28.8840014,36.7779995 28.612,36.886 C28.3399986,36.9940005 28.0400016,37.048 27.712,37.048 C27.3519982,37.048 26.9440023,36.9760007 26.488,36.832 L26.92,35.26 Z M39.1,34 L39.1,33.376 C38.7879984,33.6560014 38.4580017,33.8539994 38.11,33.97 C37.7619983,34.0860006 37.3960019,34.144 37.012,34.144 C36.5799978,34.144 36.1780019,34.0660008 35.806,33.91 C35.4339981,33.7539992 35.1140013,33.5320014 34.846,33.244 C34.5779987,32.9559986 34.3660008,32.612002 34.21,32.212 C34.0539992,31.811998 33.976,31.3680024 33.976,30.88 C33.976,30.3919976 34.0539992,29.948002 34.21,29.548 C34.3660008,29.147998 34.5779987,28.8040014 34.846,28.516 C35.1140013,28.2279986 35.4339981,28.0060008 35.806,27.85 C36.1780019,27.6939992 36.5799978,27.616 37.012,27.616 C37.3720018,27.616 37.7159984,27.6659995 38.044,27.766 C38.3720016,27.8660005 38.6879985,28.0399988 38.992,28.288 L38.992,25.6 L40.672,25.6 L40.672,34 L39.1,34 Z M38.992,30.124 C38.7599988,29.7639982 38.4920015,29.5140007 38.188,29.374 C37.8839985,29.2339993 37.6000013,29.164 37.336,29.164 C37.1199989,29.164 36.914001,29.1999996 36.718,29.272 C36.521999,29.3440004 36.3500007,29.4499993 36.202,29.59 C36.0539993,29.7300007 35.9340005,29.9079989 35.842,30.124 C35.7499995,30.3400011 35.704,30.5919986 35.704,30.88 C35.704,31.1680014 35.7499995,31.4199989 35.842,31.636 C35.9340005,31.8520011 36.0539993,32.0299993 36.202,32.17 C36.3500007,32.3100007 36.521999,32.4159996 36.718,32.488 C36.914001,32.5600004 37.1199989,32.596 37.336,32.596 C37.6000013,32.596 37.8839985,32.5280007 38.188,32.392 C38.4920015,32.2559993 38.7599988,32.0080018 38.992,31.648 L38.992,30.124 Z M47.116,34 L47.116,33.376 C46.8039984,33.6560014 46.4740017,33.8539994 46.126,33.97 C45.7779983,34.0860006 45.4120019,34.144 45.028,34.144 C44.5959978,34.144 44.1940019,34.0660008 43.822,33.91 C43.4499981,33.7539992 43.1300013,33.5320014 42.862,33.244 C42.5939987,32.9559986 42.3820008,32.612002 42.226,32.212 C42.0699992,31.811998 41.992,31.3680024 41.992,30.88 C41.992,30.3919976 42.0699992,29.948002 42.226,29.548 C42.3820008,29.147998 42.5939987,28.8040014 42.862,28.516 C43.1300013,28.2279986 43.4499981,28.0060008 43.822,27.85 C44.1940019,27.6939992 44.5959978,27.616 45.028,27.616 C45.4040019,27.616 45.7659983,27.6719994 46.114,27.784 C46.4620017,27.8960006 46.7919984,28.0919986 47.104,28.372 L47.104,27.796 L48.688,27.796 L48.688,34 L47.116,34 Z M47.008,30.124 C46.7759988,29.7639982 46.5080015,29.5140007 46.204,29.374 C45.8999985,29.2339993 45.6160013,29.164 45.352,29.164 C45.1359989,29.164 44.930001,29.1999996 44.734,29.272 C44.537999,29.3440004 44.3640008,29.4499993 44.212,29.59 C44.0599992,29.7300007 43.9380005,29.9079989 43.846,30.124 C43.7539995,30.3400011 43.708,30.5919986 43.708,30.88 C43.708,31.1680014 43.7539995,31.4199989 43.846,31.636 C43.9380005,31.8520011 44.0599992,32.0299993 44.212,32.17 C44.3640008,32.3100007 44.537999,32.4159996 44.734,32.488 C44.930001,32.5600004 45.1359989,32.596 45.352,32.596 C45.6160013,32.596 45.8999985,32.5280007 46.204,32.392 C46.5080015,32.2559993 46.7759988,32.0080018 47.008,31.648 L47.008,30.124 Z M50.14,35.26 C50.2760007,35.3080002 50.4019994,35.3419999 50.518,35.362 C50.6340006,35.3820001 50.7439995,35.392 50.848,35.392 C51.2080018,35.392 51.4979989,35.2800011 51.718,35.056 C51.9380011,34.8319989 52.1199993,34.5400018 52.264,34.18 L52.408,33.82 L49.528,27.796 L51.472,27.796 L53.236,31.828 L54.772,27.796 L56.716,27.796 L53.74,34.6 C53.5719992,34.9840019 53.392001,35.3279985 53.2,35.632 C53.007999,35.9360015 52.8000011,36.1939989 52.576,36.406 C52.3519989,36.6180011 52.1040014,36.7779995 51.832,36.886 C51.5599986,36.9940005 51.2600016,37.048 50.932,37.048 C50.5719982,37.048 50.1640023,36.9760007 49.708,36.832 L50.14,35.26 Z M62.032,34 L62.032,33.46 C61.7599986,33.668001 61.4600016,33.8339994 61.132,33.958 C60.8039984,34.0820006 60.4480019,34.144 60.064,34.144 C59.271996,34.144 58.6360024,33.8960025 58.156,33.4 C57.6759976,32.9039975 57.436,32.1840047 57.436,31.24 L57.436,27.796 L59.116,27.796 L59.116,31.108 C59.116,31.3640013 59.1539996,31.5819991 59.23,31.762 C59.3060004,31.9420009 59.4059994,32.0919994 59.53,32.212 C59.6540006,32.3320006 59.7959992,32.4199997 59.956,32.476 C60.1160008,32.5320003 60.2799992,32.56 60.448,32.56 C60.7520015,32.56 61.0519985,32.4780008 61.348,32.314 C61.6440015,32.1499992 61.8719992,31.9120016 62.032,31.6 L62.032,27.796 L63.712,27.796 L63.712,34 L62.032,34 Z M65.392,36.82 L65.392,27.796 L66.964,27.796 L66.964,28.384 C67.2760016,28.1039986 67.6059983,27.9060006 67.954,27.79 C68.3020017,27.6739994 68.6679981,27.616 69.052,27.616 C69.4840022,27.616 69.8859981,27.6939992 70.258,27.85 C70.6300019,28.0060008 70.9499987,28.2279986 71.218,28.516 C71.4860013,28.8040014 71.6979992,29.147998 71.854,29.548 C72.0100008,29.948002 72.088,30.3919976 72.088,30.88 C72.088,31.3680024 72.0100008,31.811998 71.854,32.212 C71.6979992,32.612002 71.4860013,32.9559986 71.218,33.244 C70.9499987,33.5320014 70.6300019,33.7539992 70.258,33.91 C69.8859981,34.0660008 69.4840022,34.144 69.052,34.144 C68.6919982,34.144 68.3460017,34.0940005 68.014,33.994 C67.6819983,33.8939995 67.3680015,33.7200012 67.072,33.472 L67.072,36.82 L65.392,36.82 Z M67.072,31.648 C67.2960011,32.0080018 67.5599985,32.2559993 67.864,32.392 C68.1680015,32.5280007 68.4559986,32.596 68.728,32.596 C68.9440011,32.596 69.149999,32.5600004 69.346,32.488 C69.542001,32.4159996 69.7139993,32.3100007 69.862,32.17 C70.0100007,32.0299993 70.1299995,31.8520011 70.222,31.636 C70.3140005,31.4199989 70.36,31.1680014 70.36,30.88 C70.36,30.5919986 70.3140005,30.3400011 70.222,30.124 C70.1299995,29.9079989 70.0100007,29.7300007 69.862,29.59 C69.7139993,29.4499993 69.542001,29.3440004 69.346,29.272 C69.149999,29.1999996 68.9440011,29.164 68.728,29.164 C68.4559986,29.164 68.1680015,29.2339993 67.864,29.374 C67.5599985,29.5140007 67.2960011,29.7639982 67.072,30.124 L67.072,31.648 Z" id="Daydayup" fill="#A8B2BA" fill-rule="nonzero" opacity="0.400000006"></path>
            <path d="M297.852,31.756 L297.816,31.696 C298.888005,29.9199911 299.539999,28.1600087 299.772,26.416 L301.728,26.992 L301.164,27.34 C301.076,27.5960013 300.984,27.8159991 300.888,28 L302.868,28 L303.408,27.184 L305.244,28.18 L304.632,28.66 C304.095997,30.2920082 303.384004,31.5879952 302.496,32.548 C303.200004,32.8760016 304.279993,33.1159992 305.736,33.268 L305.712,33.34 C305.239998,33.6840017 304.880001,34.251996 304.632,35.044 C303.167993,34.5959978 302.108003,34.0800029 301.452,33.496 C300.491995,34.2160036 299.224008,34.8239975 297.648,35.32 L297.612,35.26 C298.908006,34.3879956 299.943996,33.5240043 300.72,32.668 C300.311998,32.1159972 299.924002,31.2800056 299.556,30.16 C299.147998,30.6400024 298.580004,31.1719971 297.852,31.756 Z M294.408,26.38 L294.408,26.092 L299.412,26.092 C299.219999,26.0359997 299.108,25.8840012 299.076,25.636 C298.98,25.0599971 298.844001,24.6560012 298.668,24.424 L298.716,24.364 C300.060007,24.3399999 300.74,24.6519968 300.756,25.3 C300.732,25.6840019 300.480002,25.9479993 300,26.092 L303.228,26.092 L304.068,24.964 L305.532,26.044 C305.588,26.0840002 305.616,26.1239998 305.616,26.164 C305.584,26.2920006 305.460001,26.3639999 305.244,26.38 L297.24,26.38 L298.896,27.088 L298.272,27.424 C297.911998,28.0400031 297.524002,28.5879976 297.108,29.068 L297.876,29.212 L297.42,29.632 L297.42,34.648 C297.428,34.9120013 297.304001,35.0639998 297.048,35.104 C296.631998,35.1680003 296.244002,35.196 295.884,35.188 C295.932,33.979994 295.956,32.7120066 295.956,31.384 L295.956,30.208 C295.475998,30.616002 294.940003,30.9999982 294.348,31.36 L294.324,31.288 C295.588006,29.6079916 296.443998,27.972008 296.892,26.38 L294.408,26.38 Z M303.06,28.288 L300.78,28.288 C300.708,28.4560008 300.612001,28.6319991 300.492,28.816 C301.596006,29.0720013 302.108,29.4399976 302.028,29.92 C301.972,30.3920024 301.704002,30.6559997 301.224,30.712 C300.943999,30.72 300.784,30.5600016 300.744,30.232 L300.708,29.98 C300.66,29.5639979 300.568001,29.2120014 300.432,28.924 C300.207999,29.316002 299.960001,29.6759984 299.688,30.004 C300.264003,30.8200041 300.827997,31.4399979 301.38,31.864 C302.164004,30.8079947 302.723998,29.6160066 303.06,28.288 Z M316.92,31.54 C316.92,31.9640021 316.932,32.7639941 316.956,33.94 C316.964,34.2680016 316.968,34.4919994 316.968,34.612 C316.984,34.8360011 316.900001,34.9599999 316.716,34.984 C316.419999,35.0560004 316.024002,35.1039999 315.528,35.128 L315.528,34.468 L311.832,34.468 L311.832,34.684 C311.864,34.9400013 311.768001,35.072 311.544,35.08 C311.119998,35.1520004 310.744002,35.184 310.416,35.176 C310.44,34.2799955 310.456,33.2400059 310.464,32.056 L310.464,30.616 C310.456,29.5119945 310.448,28.7760018 310.44,28.408 L312.144,28.804 L315.348,28.804 L315.792,28.036 L317.352,28.828 L316.92,29.356 L316.92,31.54 Z M306.384,28.468 L306.336,28.408 C306.880003,27.8319971 307.343998,27.2640028 307.728,26.704 C307.479999,26.1599973 307.104003,25.5760031 306.6,24.952 L306.648,24.892 C307.272003,25.3320022 307.759998,25.7399981 308.112,26.116 C308.448002,25.5479972 308.711999,24.960003 308.904,24.352 L310.596,25.264 L310.008,25.552 C309.623998,26.0880027 309.212002,26.555998 308.772,26.956 C309.484004,27.9720051 309.824,29.6919879 309.792,32.116 C309.808,34.0280096 309.052008,35.0519993 307.524,35.188 C307.524,34.4359962 307.136004,33.956001 306.36,33.748 L306.372,33.676 L307.512,33.748 C308.112003,33.7319999 308.424,33.124006 308.448,31.924 C308.448,31.4279975 308.44,30.976002 308.424,30.568 C307.895997,31.1360028 307.216004,31.6519977 306.384,32.116 L306.336,32.068 C307.176004,30.9479944 307.823998,29.8280056 308.28,28.708 C308.224,28.2679978 308.140001,27.8760017 308.028,27.532 C307.587998,27.8440016 307.040003,28.1559984 306.384,28.468 Z M309.936,26.5 L309.936,26.224 L311.7,26.224 L311.7,25.852 C311.7,25.2839972 311.692,24.800002 311.676,24.4 L313.428,24.7 L313.02,25.12 L313.02,26.224 L314.292,26.224 L314.292,25.648 C314.292,25.3839987 314.284,24.9720028 314.268,24.412 L316.02,24.712 L315.612,25.12 L315.612,26.224 L315.852,26.224 L316.464,25.336 L317.64,26.188 C317.688,26.2200002 317.712,26.2639997 317.712,26.32 C317.696,26.4320006 317.580001,26.492 317.364,26.5 L315.612,26.5 C315.628,26.892002 315.636,27.2719982 315.636,27.64 C315.636,27.7920008 315.560001,27.8879998 315.408,27.928 C315.127999,27.9920003 314.756002,28.0319999 314.292,28.048 L314.292,26.5 L313.02,26.5 L313.02,27.748 C313.02,27.9240009 312.932001,28.0319998 312.756,28.072 C312.411998,28.1360003 312.060002,28.172 311.7,28.18 L311.7,26.5 L309.936,26.5 Z M311.832,31.708 L311.832,34.18 L313.008,34.18 L313.008,31.708 L311.832,31.708 Z M314.352,31.708 L314.352,34.18 L315.528,34.18 L315.528,31.708 L314.352,31.708 Z M311.832,29.092 L311.832,31.42 L313.008,31.42 L313.008,29.092 L311.832,29.092 Z M315.528,29.092 L314.352,29.092 L314.352,31.42 L315.528,31.42 L315.528,29.092 Z M320.952,35.176 C322.408007,34.3919961 323.551996,33.5840042 324.384,32.752 C323.839997,32.0479965 323.436001,31.0760062 323.172,29.836 L322.152,29.836 L322.152,29.548 L326.268,29.548 L326.808,28.804 L328.584,29.872 L327.984,30.328 C327.519998,31.2240045 327.020003,31.9599971 326.484,32.536 C327.356004,32.9120019 328.427994,33.1679993 329.7,33.304 L329.7,33.376 C329.163997,33.776002 328.752001,34.3519962 328.464,35.104 C327.055993,34.703998 325.984004,34.2120029 325.248,33.628 C324.143994,34.3960038 322.724009,34.9319985 320.988,35.236 L320.952,35.176 Z M322.968,24.508 L324.852,24.952 L325.908,24.952 L326.34,24.232 L327.912,24.988 L327.516,25.468 L327.516,27.088 C327.5,27.3520013 327.619999,27.4760001 327.876,27.46 L328.044,27.46 C328.284001,27.468 328.475999,27.376001 328.62,27.184 L328.668,27.184 C329.316003,27.6560024 329.624,27.995999 329.592,28.204 C329.471999,28.5080015 329.004004,28.6719999 328.188,28.696 L327.324,28.696 C326.459996,28.7440002 326.052,28.2920048 326.1,27.34 L326.1,25.24 L324.504,25.24 L324.504,25.66 C324.632001,27.4760091 323.68801,28.8079958 321.672,29.656 L321.624,29.596 C322.192003,28.9639968 322.563999,28.3960025 322.74,27.892 C322.932001,27.3959975 323.024,26.7160043 323.016,25.852 C323.016,25.3639976 323,24.916002 322.968,24.508 Z M319.644,28.564 L318.372,28.564 L318.372,28.276 L319.452,28.276 L319.884,27.496 L321.504,28.324 L321.036,28.828 L321.036,32.104 L322.728,31.348 L322.764,31.408 C322.011996,32.2960044 321.236004,33.1119963 320.436,33.856 L320.172,34.432 L319.092,32.968 C319.476002,32.7439989 319.66,32.4480018 319.644,32.08 L319.644,28.564 Z M326.4,29.836 L323.292,29.836 C323.900003,30.6840042 324.539997,31.3439976 325.212,31.816 C325.668002,31.2399971 326.063998,30.5800037 326.4,29.836 Z M319.236,24.496 L319.272,24.46 C320.824008,24.7560015 321.58,25.2439966 321.54,25.924 C321.46,26.4920028 321.140003,26.8159996 320.58,26.896 C320.299999,26.904 320.112,26.708002 320.016,26.308 C319.823999,25.5879964 319.564002,24.9840024 319.236,24.496 Z M336.828,24.508 L339.012,24.808 L338.484,25.3 L338.484,28.732 L339.36,28.732 L340.248,27.544 L341.76,28.684 C341.816,28.7320002 341.844,28.7759998 341.844,28.816 C341.82,28.9360006 341.696001,29.0039999 341.472,29.02 L338.484,29.02 L338.484,30.724 C338.484,31.0840018 338.5,32.4479882 338.532,34.816 C338.54,35.0000009 338.460001,35.1039999 338.292,35.128 C337.811998,35.2160004 337.324002,35.256 336.828,35.248 C336.876,33.1759896 336.9,31.8280031 336.9,31.204 L336.9,29.02 L334.224,29.02 L334.224,28.732 L336.9,28.732 L336.9,27.004 C336.892,26.1239956 336.868,25.2920039 336.828,24.508 Z M333.228,32.26 L335.196,31.276 L335.232,31.312 C334.351996,32.4080055 333.480004,33.3479961 332.616,34.132 L332.34,34.708 L331.188,33.124 C331.572002,32.8999989 331.756,32.604 331.74,32.236 L331.74,28.708 L330.252,28.708 L330.252,28.42 L331.476,28.42 L331.956,27.604 L333.756,28.48 L333.228,29.02 L333.228,32.26 Z M331.344,24.532 L331.368,24.484 C332.928008,24.7560014 333.688,25.2519964 333.648,25.972 C333.584,26.5560029 333.264003,26.8799997 332.688,26.944 C332.327998,26.944 332.104,26.7520019 332.016,26.368 C331.855999,25.6159962 331.632001,25.0040024 331.344,24.532 Z M346.308,25.948 L346.284,25.876 C347.996009,25.4919981 349.255996,25.1440016 350.064,24.832 C350.616003,24.631999 351.115998,24.4120012 351.564,24.172 L353.028,25.516 L352.32,25.516 C351.735997,25.6040004 351.100003,25.6839996 350.412,25.756 L350.412,27.976 L351.54,27.976 L352.296,26.968 L353.568,27.928 C353.616,27.9600002 353.64,28.0079997 353.64,28.072 C353.608,28.1840006 353.484001,28.2479999 353.268,28.264 L350.412,28.264 L350.412,30.34 L350.976,30.34 L351.408,29.548 L353.124,30.412 L352.656,30.904 L352.656,32.308 C352.656,32.8520027 352.672,33.623995 352.704,34.624 C352.728,34.8480011 352.636001,34.9759998 352.428,35.008 C352.091998,35.0800004 351.680002,35.1239999 351.192,35.14 L351.192,34 L348.228,34 L348.228,34.624 C348.236,34.8720012 348.124001,35.0159998 347.892,35.056 C347.475998,35.1360004 347.092002,35.176 346.74,35.176 C346.772,34.0159942 346.788,33.1960024 346.788,32.716 L346.788,32.152 C346.115997,32.960004 345.424004,33.6919967 344.712,34.348 L344.484,34.96 L343.344,33.448 C343.696002,33.255999 343.864,32.9760018 343.848,32.608 L343.848,28.948 L342.384,28.948 L342.384,28.66 L343.656,28.66 L344.112,27.832 L345.72,28.648 L345.264,29.128 L345.264,32.584 L346.788,31.936 L346.788,31.744 C346.788,30.9199959 346.78,30.312002 346.764,29.92 L348.336,30.34 L348.924,30.34 L348.924,28.264 L346.068,28.264 L346.068,27.976 L348.924,27.976 L348.924,25.876 C347.907995,25.9320003 347.036004,25.956 346.308,25.948 Z M351.192,30.628 L348.228,30.628 L348.228,33.712 L351.192,33.712 L351.192,30.628 Z M343.392,24.484 L343.428,24.448 C344.956008,24.7040013 345.712,25.1919964 345.696,25.912 C345.6,26.4880029 345.260003,26.8159996 344.676,26.896 C344.387999,26.896 344.208,26.7280017 344.136,26.392 C343.991999,25.7199966 343.744002,25.084003 343.392,24.484 Z" id="夜猫设计话" fill="#A8B2BA" fill-rule="nonzero" opacity="0.400000006"></path>
        </g>
        <path d="M444.014,97.704 L444.014,101.656 C442.95,101.884 441.924,102.15 440.936,102.378 L440.936,108.838 L437.06,108.838 L437.06,103.176 C433.336,103.936 429.46,104.582 425.508,105.19 L424.52,101.276 C425.584,101.162 426.61,101.048 427.636,100.896 L427.636,78.666 L425.014,78.666 L425.014,74.942 L443.406,74.942 L443.406,77.07 L458.378,77.07 L458.378,80.68 C457.58,87.368 455.946,93.144 453.514,97.97 C455.224,100.82 457.352,103.442 459.86,105.798 L457.2,108.914 C454.958,106.596 453.02,104.164 451.386,101.58 C449.486,104.43 447.244,106.862 444.66,108.914 L441.962,105.798 C444.85,103.556 447.282,100.858 449.182,97.704 C446.598,92.536 445.04,86.95 444.508,80.87 L442.988,80.87 L442.988,78.666 L440.936,78.666 L440.936,98.464 C442,98.198 443.026,97.932 444.014,97.704 Z M448.156,80.87 C448.536,85.506 449.6,89.762 451.272,93.638 C452.906,89.876 454.046,85.62 454.654,80.87 L448.156,80.87 Z M437.06,99.3 L437.06,95.158 L431.512,95.158 L431.512,100.326 C433.412,100.022 435.236,99.68 437.06,99.3 Z M431.512,91.586 L437.06,91.586 L437.06,86.912 L431.512,86.912 L431.512,91.586 Z M431.512,83.34 L437.06,83.34 L437.06,78.666 L431.512,78.666 L431.512,83.34 Z M483.04,73.916 L487.068,73.916 L487.068,83.986 L495.01,83.986 L495.01,104.126 C495.01,107.128 493.566,108.648 490.754,108.648 L486.612,108.648 L485.586,104.81 L489.424,104.924 C490.488,104.924 491.058,104.354 491.058,103.252 L491.058,100.782 L479.164,100.782 L479.164,108.724 L475.174,108.724 L475.174,83.986 L483.04,83.986 L483.04,73.916 Z M479.164,94.322 L479.164,97.438 L491.058,97.438 L491.058,94.322 L479.164,94.322 Z M491.058,90.978 L491.058,87.824 L479.164,87.824 L479.164,90.978 L491.058,90.978 Z M476.542,74.752 C477.91,76.652 479.202,78.78 480.494,81.06 L477.378,82.618 C476.124,80.3 474.756,78.21 473.274,76.31 L476.542,74.752 Z M493.3,74.752 L496.53,76.272 C495.466,78.628 494.06,80.87 492.35,83.074 L489.31,81.478 C490.982,79.198 492.312,76.956 493.3,74.752 Z M469.208,93.448 L472.704,94.816 C470.88,99.68 468.904,104.278 466.7,108.572 L463.052,106.938 C465.408,102.53 467.46,98.046 469.208,93.448 Z M466.548,74.106 C469.17,76.006 471.374,77.868 473.198,79.73 L470.386,82.58 C468.828,80.794 466.624,78.894 463.736,76.842 L466.548,74.106 Z M465.484,82.998 C467.954,84.898 470.044,86.798 471.754,88.698 L468.942,91.51 C467.46,89.762 465.37,87.824 462.672,85.734 L465.484,82.998 Z M507.17,73.65 L511.084,73.954 L510.628,78.514 L532.706,78.514 L532.706,82.314 L510.248,82.314 L509.716,87.368 L530.654,87.368 C530.654,98.084 529.894,104.278 528.45,105.988 C527.006,107.584 523.89,108.42 519.14,108.42 C517.886,108.42 516.594,108.344 515.264,108.23 L514.162,104.62 C516.138,104.81 517.544,104.924 518.304,104.924 C522.256,104.924 524.65,104.278 525.41,102.986 C526.246,101.618 526.664,97.628 526.664,91.054 L505.308,91.054 L507.17,73.65 Z M500.786,95.994 L522.18,95.994 L522.18,99.794 L500.786,99.794 L500.786,95.994 Z M549.426,73.954 C550.832,75.854 552.2,77.906 553.53,80.148 L551.326,81.25 L558.812,81.25 C560.18,79.122 561.358,76.576 562.384,73.688 L566.26,74.752 C565.424,77.146 564.436,79.312 563.258,81.25 L570.288,81.25 L570.288,85.126 L558.014,85.126 L558.014,86.038 C557.938,87.786 557.748,89.458 557.482,90.978 L572.492,90.978 L572.492,94.854 L559.382,94.854 C561.206,99.224 565.918,102.682 573.442,105.266 L571.086,109.028 C563.258,105.836 558.242,101.618 556,96.412 C555.316,98.008 554.518,99.49 553.606,100.782 C551.022,104.202 546.804,106.824 540.952,108.648 L538.786,105.19 C544.638,103.29 548.552,100.896 550.604,98.046 C551.25,97.058 551.82,95.994 552.276,94.854 L539.508,94.854 L539.508,90.978 L553.416,90.978 C553.72,89.458 553.91,87.786 553.986,86.038 L553.986,85.126 L541.674,85.126 L541.674,81.25 L549.578,81.25 C548.362,79.198 547.108,77.336 545.778,75.702 L549.426,73.954 Z M594.38,89.762 L584.12,89.762 L584.12,85.886 L595.026,85.886 L595.026,80.984 L598.978,80.984 L598.978,85.886 L603.842,85.886 L603.842,89.762 L598.978,89.762 L598.978,102.264 C598.978,105 597.686,106.406 595.14,106.406 L591.15,106.406 L590.238,102.644 C591.454,102.796 592.632,102.91 593.734,102.91 C594.57,102.91 595.026,102.34 595.026,101.276 L595.026,93.98 C592.67,97.286 589.326,100.25 585.032,102.91 L582.904,99.49 C588.452,96.564 592.29,93.334 594.38,89.762 Z M605.286,108.648 L602.246,108.648 L601.182,104.924 L604.488,105.038 C605.438,105.038 605.932,104.43 605.932,103.214 L605.932,79.008 L591.796,79.008 L591.796,75.36 L609.808,75.36 L609.808,104.278 C609.808,107.166 608.288,108.648 605.286,108.648 Z M578.154,80.11 L582.03,80.11 L582.03,108.99 L578.154,108.99 L578.154,80.11 Z M584.88,73.422 C586.628,75.436 588.148,77.678 589.478,80.11 L585.906,81.972 C584.5,79.35 582.942,77.032 581.27,75.018 L584.88,73.422 Z M632.19,74.296 C634.622,76.12 636.674,77.944 638.346,79.768 L635.648,82.504 C634.166,80.756 632.114,78.856 629.492,76.88 L632.19,74.296 Z M627.136,85.088 L635.914,85.088 L635.914,100.858 C637.016,99.87 638.194,98.806 639.448,97.628 L640.55,101.808 C638.042,104.088 635.382,106.102 632.57,107.926 L631.05,104.354 C631.696,103.784 632.038,103.062 632.038,102.226 L632.038,88.888 L627.136,88.888 L627.136,85.088 Z M640.74,89.648 L659.284,89.648 L659.284,93.258 C658.22,96.526 656.472,99.376 654.04,101.77 C656.396,103.29 659.246,104.62 662.628,105.798 L660.5,109.218 C656.776,107.698 653.622,106.026 651.114,104.164 C648.15,106.254 644.54,107.926 640.208,109.18 L638.004,105.836 C641.918,104.696 645.224,103.252 647.96,101.504 C645.528,99.072 643.818,96.412 642.906,93.448 L640.74,93.448 L640.74,89.648 Z M646.63,93.448 C647.466,95.614 648.834,97.59 650.81,99.338 C652.748,97.59 654.23,95.652 655.294,93.448 L646.63,93.448 Z M643.324,74.942 L657.004,74.942 L657.004,82.808 C657.004,83.644 657.46,84.1 658.41,84.1 L661.678,84.1 L661.678,87.71 L657.346,87.71 C654.496,87.71 653.09,86.38 653.09,83.72 L653.09,78.666 L647.238,78.666 L647.238,79.692 C647.238,83.644 645.186,86.722 641.158,88.85 L638.498,85.81 C641.69,84.48 643.324,82.58 643.324,80.11 L643.324,74.942 Z M677.106,84.746 L686.91,84.746 L686.91,73.726 L691.014,73.726 L691.014,84.746 L700.324,84.746 L700.324,88.698 L691.014,88.698 L691.014,109.066 L686.91,109.066 L686.91,88.698 L677.106,88.698 L677.106,84.746 Z M670.418,74.03 C672.812,75.892 674.864,77.754 676.574,79.578 L673.838,82.352 C672.394,80.604 670.304,78.742 667.606,76.766 L670.418,74.03 Z M665.136,85.012 L674.18,85.012 L674.18,100.896 C675.282,99.946 676.46,98.882 677.714,97.704 L678.74,101.77 C676.27,104.05 673.648,106.102 670.836,107.926 L669.316,104.354 C670,103.784 670.342,103.1 670.342,102.302 L670.342,88.812 L665.136,88.812 L665.136,85.012 Z M705.226,77.526 L713.13,77.526 C712.674,76.386 712.142,75.284 711.61,74.296 L715.752,73.612 C716.208,74.752 716.702,76.082 717.158,77.526 L725.024,77.526 C725.594,76.234 726.05,74.866 726.354,73.498 L730.534,74.068 C730.154,75.284 729.698,76.462 729.09,77.526 L736.234,77.526 L736.234,81.212 L722.972,81.212 C722.82,81.972 722.63,82.694 722.44,83.416 L734.144,83.416 L734.144,87.064 L721.414,87.064 C721.186,87.748 720.92,88.47 720.654,89.154 L737.526,89.154 L737.526,92.878 L718.982,92.878 C718.64,93.562 718.298,94.208 717.918,94.854 C717.766,95.082 717.614,95.272 717.462,95.5 L734.98,95.5 L734.98,99.3 L724.872,99.3 L724.872,103.936 L737.336,103.936 L737.336,107.812 L708.57,107.812 L708.57,104.088 C707.582,104.772 706.518,105.456 705.454,106.14 L702.794,102.758 C707.848,100.136 711.648,97.02 714.232,93.41 C714.346,93.22 714.46,93.03 714.574,92.878 L704.124,92.878 L704.124,89.154 L716.626,89.154 C716.93,88.47 717.196,87.748 717.462,87.064 L707.468,87.064 L707.468,83.416 L718.488,83.416 C718.64,82.656 718.792,81.934 718.906,81.212 L705.226,81.212 L705.226,77.526 Z M708.76,103.936 L720.806,103.936 L720.806,99.3 L714.27,99.3 C712.636,100.934 710.812,102.492 708.76,103.936 Z M770.548,74.98 L770.548,84.784 L748.888,84.784 L748.888,86.456 C748.888,87.596 749.458,88.166 750.598,88.166 L770.282,88.166 C770.814,88.128 771.194,87.938 771.384,87.558 C771.536,87.292 771.688,86.418 771.84,84.936 L775.412,86.114 C775.184,87.862 774.956,89.078 774.652,89.838 C774.196,91.054 773.17,91.662 771.498,91.738 L749.002,91.738 C746.304,91.738 744.974,90.484 744.974,88.014 L744.974,74.98 L770.548,74.98 Z M748.888,81.288 L766.71,81.288 L766.71,78.552 L748.888,78.552 L748.888,81.288 Z M741.174,96.412 L750.522,96.412 C750.522,95.424 750.56,94.246 750.56,92.84 L754.512,92.84 C754.512,94.322 754.474,95.5 754.436,96.412 L763.214,96.412 L763.214,92.878 L767.166,92.878 L767.166,96.412 L776.21,96.412 L776.21,100.022 L767.166,100.022 L767.166,108.838 L763.214,108.838 L763.214,100.022 L753.866,100.022 C752.764,104.43 749.952,107.432 745.468,108.99 L743.416,105.494 C746.912,104.582 749.116,102.758 750.028,100.022 L741.174,100.022 L741.174,96.412 Z" id="取消与关闭设计差异" fill="#A8B2BA" fill-rule="nonzero"></path>
    </g>
</svg>