<?xml version="1.0" encoding="UTF-8"?>
<svg width="1200px" height="200px" viewBox="0 0 1200 200" version="1.1" xmlns="http://www.w3.org/2000/svg" xmlns:xlink="http://www.w3.org/1999/xlink">
    <!-- Generator: Sketch 56.3 (81716) - https://sketch.com -->
    <title>PC端banner模板备份 5</title>
    <desc>Created with Sketch.</desc>
    <g id="PC端banner模板备份-5" stroke="none" stroke-width="1" fill="none" fill-rule="evenodd">
        <rect fill="#000000" x="0" y="0" width="1200" height="200"></rect>
        <g id="编组-2" transform="translate(465.000000, 69.000000)">
            <g id="编组">
                <polygon id="矩形" fill="#FF3040" opacity="0.5" points="9.07534247 34.1241156 265 34.1241156 255.924658 46.1241156 0 46.1241156"></polygon>
                <path d="M41.608,9.296 L41.608,29.876 L37.198,29.876 L37.198,13.58 L18.634,13.58 L18.634,29.876 L14.224,29.876 L14.224,9.296 L24.892,9.296 C25.144,8.204 25.354,7.112 25.522,5.936 L9.352,5.936 L9.352,1.82 L46.648,1.82 L46.648,5.936 L30.268,5.936 C30.058,7.112 29.806,8.204 29.512,9.296 L41.608,9.296 Z M31.192,29.204 C36.568,30.884 41.44,32.9 45.85,35.336 L43.12,39.494 C38.458,36.638 33.67,34.454 28.756,32.858 L31.192,29.204 Z M25.774,15.386 L30.226,15.386 L30.226,22.064 C29.974,26.768 28.42,30.548 25.606,33.362 C22.918,35.966 18.466,37.94 12.334,39.368 L9.814,35.462 C15.946,34.118 20.104,32.438 22.246,30.464 C24.346,28.322 25.522,25.508 25.774,22.064 L25.774,15.386 Z M51.142,1.82 L88.9,1.82 L88.9,6.02 L72.436,6.02 C72.1,7.406 71.722,8.75 71.218,10.052 L87.01,10.052 L87.01,39.494 L82.768,39.494 L82.768,37.856 L57.358,37.856 L57.358,39.494 L53.116,39.494 L53.116,10.052 L66.808,10.052 C67.312,8.75 67.69,7.406 67.984,6.02 L51.142,6.02 L51.142,1.82 Z M57.358,33.824 L61.768,33.824 L61.768,14.042 L57.358,14.042 L57.358,33.824 Z M65.842,33.824 L74.158,33.824 L74.158,29.624 L65.842,29.624 L65.842,33.824 Z M78.232,33.824 L82.768,33.824 L82.768,14.042 L78.232,14.042 L78.232,33.824 Z M65.842,25.886 L74.158,25.886 L74.158,21.854 L65.842,21.854 L65.842,25.886 Z M65.842,18.074 L74.158,18.074 L74.158,14.042 L65.842,14.042 L65.842,18.074 Z M129.682,6.314 L129.682,38.738 L125.398,38.738 L125.398,36.176 L119.308,36.176 L119.308,38.738 L115.108,38.738 L115.108,6.314 L129.682,6.314 Z M119.308,31.976 L125.398,31.976 L125.398,10.472 L119.308,10.472 L119.308,31.976 Z M99.4,0.602 L103.768,0.602 L103.768,8.624 L112.126,8.624 C112.126,22.568 111.916,31.178 111.496,34.454 C111.076,37.52 108.976,39.074 105.28,39.074 C104.608,39.074 103.474,38.99 101.962,38.822 L100.87,34.832 C102.298,35 103.516,35.084 104.566,35.084 C106.162,35.084 107.128,34.16 107.422,32.396 C107.632,30.506 107.758,23.996 107.842,12.908 L103.768,12.908 C103.516,25.088 100.744,33.992 95.536,39.704 L92.218,36.764 C96.796,31.766 99.19,23.828 99.4,12.908 L93.184,12.908 L93.184,8.624 L99.4,8.624 L99.4,0.602 Z M137.536,3.458 L145.222,3.458 L145.222,0.392 L149.506,0.392 L149.506,3.458 L156.604,3.458 L156.604,7.406 L149.506,7.406 L149.506,10.094 L158.242,10.094 C158.074,7.07 157.99,3.836 157.99,0.35 L162.232,0.35 C162.232,3.962 162.316,7.238 162.484,10.094 L172.606,10.094 L172.606,14.084 L162.736,14.084 C162.946,17.486 163.282,20.216 163.702,22.316 L164.038,23.954 C165.172,21.35 166.096,18.494 166.852,15.302 L170.758,17.066 C169.456,22.148 167.776,26.432 165.76,29.918 C166.012,30.548 166.222,31.094 166.474,31.556 C167.44,33.446 168.154,34.412 168.658,34.412 C169.036,34.412 169.456,32.438 169.876,28.49 L173.572,30.506 C172.564,36.092 171.136,38.906 169.204,38.906 C167.65,38.906 165.97,37.646 164.206,35.126 C163.87,34.622 163.534,34.118 163.282,33.572 C161.266,36.092 158.956,38.024 156.394,39.41 L154,35.882 C156.856,34.286 159.334,31.976 161.35,28.952 C160.762,27.272 160.258,25.382 159.838,23.324 C159.25,20.72 158.788,17.654 158.494,14.084 L135.352,14.084 L135.352,10.094 L145.222,10.094 L145.222,7.406 L137.536,7.406 L137.536,3.458 Z M166.516,0.728 C168.616,3.08 170.254,5.138 171.388,6.902 L168.154,9.17 C166.936,7.28 165.298,5.18 163.198,2.828 L166.516,0.728 Z M156.604,30.086 L156.604,33.866 C154.672,34.118 152.656,34.37 150.556,34.622 L150.556,39.242 L146.272,39.242 L146.272,35.042 C143.416,35.294 140.434,35.546 137.368,35.798 L136.864,31.766 C140.182,31.598 143.332,31.388 146.272,31.136 L146.272,28.364 L138.67,28.364 L137.788,24.878 C138.712,23.744 139.636,22.358 140.476,20.72 L136.612,20.72 L136.612,16.856 L142.114,16.856 C142.45,15.974 142.744,15.092 143.038,14.21 L147.196,15.008 C146.944,15.638 146.734,16.268 146.524,16.856 L156.814,16.856 L156.814,20.72 L144.928,20.72 C144.214,22.148 143.458,23.492 142.702,24.71 L146.272,24.71 L146.272,22.19 L150.556,22.19 L150.556,24.71 L156.394,24.71 L156.394,28.364 L150.556,28.364 L150.556,30.758 C152.698,30.548 154.714,30.338 156.604,30.086 Z M177.226,12.614 L193.774,12.614 L193.774,10.262 L197.764,10.262 L195.37,8.708 C197.176,6.02 198.436,3.206 199.192,0.182 L203.392,1.106 C203.14,1.946 202.888,2.786 202.636,3.542 L214.48,3.542 L214.48,7.406 L207.592,7.406 C208.348,8.582 208.978,9.716 209.482,10.766 L205.66,12.236 C204.904,10.556 204.064,8.96 203.14,7.406 L201.124,7.406 C200.494,8.75 199.822,9.968 199.066,11.102 L198.226,10.556 L198.226,12.614 L214.774,12.614 L214.774,16.562 L198.226,16.562 L198.226,18.662 L212.002,18.662 L212.002,26.894 C212.002,29.33 210.658,30.548 208.012,30.548 L205.45,30.548 C208.474,32.186 211.918,33.572 215.74,34.748 L213.43,38.738 C207.55,36.554 202.51,33.572 198.226,29.876 L198.226,39.536 L193.774,39.536 L193.774,30.044 C189.658,33.824 184.996,36.806 179.83,38.948 L177.226,35.042 C183.652,32.816 189.154,29.708 193.774,25.676 L193.774,22.484 L185.038,22.484 L185.038,30.38 L180.712,30.38 L180.712,18.662 L193.774,18.662 L193.774,16.562 L177.226,16.562 L177.226,12.614 Z M198.226,25.76 C200.242,27.44 202.51,28.994 205.114,30.38 L204.064,26.684 L206.794,26.894 C207.34,26.894 207.634,26.558 207.634,25.97 L207.634,22.484 L198.226,22.484 L198.226,25.76 Z M183.442,7.406 C182.56,8.834 181.594,10.178 180.544,11.438 L176.764,9.044 C179.284,6.272 181.09,3.29 182.14,0.14 L186.34,1.064 C186.046,1.904 185.71,2.744 185.374,3.542 L195.118,3.542 L195.118,7.406 L189.322,7.406 C190.078,8.582 190.75,9.716 191.296,10.808 L187.348,12.278 C186.592,10.598 185.752,8.96 184.828,7.406 L183.442,7.406 Z M253.96,22.988 C251.02,21.56 248.458,20.048 246.274,18.368 C243.922,20.09 241.234,21.644 238.21,22.988 L253.96,22.988 Z M237.412,23.324 C236.992,23.492 236.572,23.66 236.194,23.828 L234.682,21.812 L234.682,35.714 L230.986,35.714 L230.986,34.16 L223.678,34.16 L223.678,35.714 L219.73,35.714 L219.73,3.122 L234.682,3.122 L234.682,10.388 C237.076,7.952 239.176,4.718 240.94,0.644 L245.308,1.568 C244.888,2.45 244.51,3.29 244.132,4.13 L254.926,4.13 L254.926,7.49 C253.666,10.598 251.776,13.37 249.256,15.806 C251.734,17.402 254.59,18.788 257.782,19.964 L255.892,23.87 C255.388,23.66 254.884,23.45 254.464,23.198 L254.464,39.074 L250.18,39.074 L250.18,37.52 L241.696,37.52 L241.696,39.074 L237.412,39.074 L237.412,23.324 Z M234.682,11.942 L234.682,19.922 C237.874,18.662 240.688,17.192 243.04,15.554 C241.696,14.21 240.52,12.866 239.554,11.48 C238.672,12.572 237.748,13.538 236.824,14.462 L234.682,11.942 Z M245.854,13.244 C247.492,11.69 248.836,10.01 249.886,8.246 L241.822,8.246 C241.78,8.33 241.738,8.372 241.738,8.414 C242.83,10.178 244.216,11.774 245.854,13.244 Z M241.696,33.446 L250.18,33.446 L250.18,27.062 L241.696,27.062 L241.696,33.446 Z M230.986,30.38 L230.986,20.384 L229.012,20.384 L229.012,30.38 L230.986,30.38 Z M230.986,16.604 L230.986,7.112 L229.012,7.112 L229.012,16.604 L230.986,16.604 Z M225.568,7.112 L223.678,7.112 L223.678,16.604 L225.568,16.604 L225.568,7.112 Z M223.678,20.384 L223.678,30.38 L225.568,30.38 L225.568,20.384 L223.678,20.384 Z" id="页面加载策略" fill="#A8B2BA" fill-rule="nonzero"></path>
            </g>
            <path d="M10.96,68 L10.96,59.6 L13.72,59.6 C14.3920034,59.6 14.9859974,59.7179988 15.502,59.954 C16.0180026,60.1900012 16.4519982,60.503998 16.804,60.896 C17.1560018,61.288002 17.4219991,61.7359975 17.602,62.24 C17.7820009,62.7440025 17.872,63.2639973 17.872,63.8 C17.872,64.3360027 17.7820009,64.8559975 17.602,65.36 C17.4219991,65.8640025 17.1560018,66.311998 16.804,66.704 C16.4519982,67.096002 16.0180026,67.4099988 15.502,67.646 C14.9859974,67.8820012 14.3920034,68 13.72,68 L10.96,68 Z M13.672,66.5 C14.0160017,66.5 14.3379985,66.4300007 14.638,66.29 C14.9380015,66.1499993 15.2019989,65.9600012 15.43,65.72 C15.6580011,65.4799988 15.8379993,65.1960016 15.97,64.868 C16.1020007,64.5399984 16.168,64.1840019 16.168,63.8 C16.168,63.4159981 16.1020007,63.0600016 15.97,62.732 C15.8379993,62.4039984 15.6580011,62.1200012 15.43,61.88 C15.2019989,61.6399988 14.9380015,61.4500007 14.638,61.31 C14.3379985,61.1699993 14.0160017,61.1 13.672,61.1 L12.664,61.1 L12.664,66.5 L13.672,66.5 Z M23.896,68 L23.896,67.376 C23.5839984,67.6560014 23.2540017,67.8539994 22.906,67.97 C22.5579983,68.0860006 22.1920019,68.144 21.808,68.144 C21.3759978,68.144 20.9740019,68.0660008 20.602,67.91 C20.2299981,67.7539992 19.9100013,67.5320014 19.642,67.244 C19.3739987,66.9559986 19.1620008,66.612002 19.006,66.212 C18.8499992,65.811998 18.772,65.3680024 18.772,64.88 C18.772,64.3919976 18.8499992,63.948002 19.006,63.548 C19.1620008,63.147998 19.3739987,62.8040014 19.642,62.516 C19.9100013,62.2279986 20.2299981,62.0060008 20.602,61.85 C20.9740019,61.6939992 21.3759978,61.616 21.808,61.616 C22.1840019,61.616 22.5459983,61.6719994 22.894,61.784 C23.2420017,61.8960006 23.5719984,62.0919986 23.884,62.372 L23.884,61.796 L25.468,61.796 L25.468,68 L23.896,68 Z M23.788,64.124 C23.5559988,63.7639982 23.2880015,63.5140007 22.984,63.374 C22.6799985,63.2339993 22.3960013,63.164 22.132,63.164 C21.9159989,63.164 21.710001,63.1999996 21.514,63.272 C21.317999,63.3440004 21.1440008,63.4499993 20.992,63.59 C20.8399992,63.7300007 20.7180005,63.9079989 20.626,64.124 C20.5339995,64.3400011 20.488,64.5919986 20.488,64.88 C20.488,65.1680014 20.5339995,65.4199989 20.626,65.636 C20.7180005,65.8520011 20.8399992,66.0299993 20.992,66.17 C21.1440008,66.3100007 21.317999,66.4159996 21.514,66.488 C21.710001,66.5600004 21.9159989,66.596 22.132,66.596 C22.3960013,66.596 22.6799985,66.5280007 22.984,66.392 C23.2880015,66.2559993 23.5559988,66.0080018 23.788,65.648 L23.788,64.124 Z M26.92,69.26 C27.0560007,69.3080002 27.1819994,69.3419999 27.298,69.362 C27.4140006,69.3820001 27.5239995,69.392 27.628,69.392 C27.9880018,69.392 28.2779989,69.2800011 28.498,69.056 C28.7180011,68.8319989 28.8999993,68.5400018 29.044,68.18 L29.188,67.82 L26.308,61.796 L28.252,61.796 L30.016,65.828 L31.552,61.796 L33.496,61.796 L30.52,68.6 C30.3519992,68.9840019 30.172001,69.3279985 29.98,69.632 C29.787999,69.9360015 29.5800011,70.1939989 29.356,70.406 C29.1319989,70.6180011 28.8840014,70.7779995 28.612,70.886 C28.3399986,70.9940005 28.0400016,71.048 27.712,71.048 C27.3519982,71.048 26.9440023,70.9760007 26.488,70.832 L26.92,69.26 Z M39.1,68 L39.1,67.376 C38.7879984,67.6560014 38.4580017,67.8539994 38.11,67.97 C37.7619983,68.0860006 37.3960019,68.144 37.012,68.144 C36.5799978,68.144 36.1780019,68.0660008 35.806,67.91 C35.4339981,67.7539992 35.1140013,67.5320014 34.846,67.244 C34.5779987,66.9559986 34.3660008,66.612002 34.21,66.212 C34.0539992,65.811998 33.976,65.3680024 33.976,64.88 C33.976,64.3919976 34.0539992,63.948002 34.21,63.548 C34.3660008,63.147998 34.5779987,62.8040014 34.846,62.516 C35.1140013,62.2279986 35.4339981,62.0060008 35.806,61.85 C36.1780019,61.6939992 36.5799978,61.616 37.012,61.616 C37.3720018,61.616 37.7159984,61.6659995 38.044,61.766 C38.3720016,61.8660005 38.6879985,62.0399988 38.992,62.288 L38.992,59.6 L40.672,59.6 L40.672,68 L39.1,68 Z M38.992,64.124 C38.7599988,63.7639982 38.4920015,63.5140007 38.188,63.374 C37.8839985,63.2339993 37.6000013,63.164 37.336,63.164 C37.1199989,63.164 36.914001,63.1999996 36.718,63.272 C36.521999,63.3440004 36.3500007,63.4499993 36.202,63.59 C36.0539993,63.7300007 35.9340005,63.9079989 35.842,64.124 C35.7499995,64.3400011 35.704,64.5919986 35.704,64.88 C35.704,65.1680014 35.7499995,65.4199989 35.842,65.636 C35.9340005,65.8520011 36.0539993,66.0299993 36.202,66.17 C36.3500007,66.3100007 36.521999,66.4159996 36.718,66.488 C36.914001,66.5600004 37.1199989,66.596 37.336,66.596 C37.6000013,66.596 37.8839985,66.5280007 38.188,66.392 C38.4920015,66.2559993 38.7599988,66.0080018 38.992,65.648 L38.992,64.124 Z M47.116,68 L47.116,67.376 C46.8039984,67.6560014 46.4740017,67.8539994 46.126,67.97 C45.7779983,68.0860006 45.4120019,68.144 45.028,68.144 C44.5959978,68.144 44.1940019,68.0660008 43.822,67.91 C43.4499981,67.7539992 43.1300013,67.5320014 42.862,67.244 C42.5939987,66.9559986 42.3820008,66.612002 42.226,66.212 C42.0699992,65.811998 41.992,65.3680024 41.992,64.88 C41.992,64.3919976 42.0699992,63.948002 42.226,63.548 C42.3820008,63.147998 42.5939987,62.8040014 42.862,62.516 C43.1300013,62.2279986 43.4499981,62.0060008 43.822,61.85 C44.1940019,61.6939992 44.5959978,61.616 45.028,61.616 C45.4040019,61.616 45.7659983,61.6719994 46.114,61.784 C46.4620017,61.8960006 46.7919984,62.0919986 47.104,62.372 L47.104,61.796 L48.688,61.796 L48.688,68 L47.116,68 Z M47.008,64.124 C46.7759988,63.7639982 46.5080015,63.5140007 46.204,63.374 C45.8999985,63.2339993 45.6160013,63.164 45.352,63.164 C45.1359989,63.164 44.930001,63.1999996 44.734,63.272 C44.537999,63.3440004 44.3640008,63.4499993 44.212,63.59 C44.0599992,63.7300007 43.9380005,63.9079989 43.846,64.124 C43.7539995,64.3400011 43.708,64.5919986 43.708,64.88 C43.708,65.1680014 43.7539995,65.4199989 43.846,65.636 C43.9380005,65.8520011 44.0599992,66.0299993 44.212,66.17 C44.3640008,66.3100007 44.537999,66.4159996 44.734,66.488 C44.930001,66.5600004 45.1359989,66.596 45.352,66.596 C45.6160013,66.596 45.8999985,66.5280007 46.204,66.392 C46.5080015,66.2559993 46.7759988,66.0080018 47.008,65.648 L47.008,64.124 Z M50.14,69.26 C50.2760007,69.3080002 50.4019994,69.3419999 50.518,69.362 C50.6340006,69.3820001 50.7439995,69.392 50.848,69.392 C51.2080018,69.392 51.4979989,69.2800011 51.718,69.056 C51.9380011,68.8319989 52.1199993,68.5400018 52.264,68.18 L52.408,67.82 L49.528,61.796 L51.472,61.796 L53.236,65.828 L54.772,61.796 L56.716,61.796 L53.74,68.6 C53.5719992,68.9840019 53.392001,69.3279985 53.2,69.632 C53.007999,69.9360015 52.8000011,70.1939989 52.576,70.406 C52.3519989,70.6180011 52.1040014,70.7779995 51.832,70.886 C51.5599986,70.9940005 51.2600016,71.048 50.932,71.048 C50.5719982,71.048 50.1640023,70.9760007 49.708,70.832 L50.14,69.26 Z M62.032,68 L62.032,67.46 C61.7599986,67.668001 61.4600016,67.8339994 61.132,67.958 C60.8039984,68.0820006 60.4480019,68.144 60.064,68.144 C59.271996,68.144 58.6360024,67.8960025 58.156,67.4 C57.6759976,66.9039975 57.436,66.1840047 57.436,65.24 L57.436,61.796 L59.116,61.796 L59.116,65.108 C59.116,65.3640013 59.1539996,65.5819991 59.23,65.762 C59.3060004,65.9420009 59.4059994,66.0919994 59.53,66.212 C59.6540006,66.3320006 59.7959992,66.4199997 59.956,66.476 C60.1160008,66.5320003 60.2799992,66.56 60.448,66.56 C60.7520015,66.56 61.0519985,66.4780008 61.348,66.314 C61.6440015,66.1499992 61.8719992,65.9120016 62.032,65.6 L62.032,61.796 L63.712,61.796 L63.712,68 L62.032,68 Z M65.392,70.82 L65.392,61.796 L66.964,61.796 L66.964,62.384 C67.2760016,62.1039986 67.6059983,61.9060006 67.954,61.79 C68.3020017,61.6739994 68.6679981,61.616 69.052,61.616 C69.4840022,61.616 69.8859981,61.6939992 70.258,61.85 C70.6300019,62.0060008 70.9499987,62.2279986 71.218,62.516 C71.4860013,62.8040014 71.6979992,63.147998 71.854,63.548 C72.0100008,63.948002 72.088,64.3919976 72.088,64.88 C72.088,65.3680024 72.0100008,65.811998 71.854,66.212 C71.6979992,66.612002 71.4860013,66.9559986 71.218,67.244 C70.9499987,67.5320014 70.6300019,67.7539992 70.258,67.91 C69.8859981,68.0660008 69.4840022,68.144 69.052,68.144 C68.6919982,68.144 68.3460017,68.0940005 68.014,67.994 C67.6819983,67.8939995 67.3680015,67.7200012 67.072,67.472 L67.072,70.82 L65.392,70.82 Z M67.072,65.648 C67.2960011,66.0080018 67.5599985,66.2559993 67.864,66.392 C68.1680015,66.5280007 68.4559986,66.596 68.728,66.596 C68.9440011,66.596 69.149999,66.5600004 69.346,66.488 C69.542001,66.4159996 69.7139993,66.3100007 69.862,66.17 C70.0100007,66.0299993 70.1299995,65.8520011 70.222,65.636 C70.3140005,65.4199989 70.36,65.1680014 70.36,64.88 C70.36,64.5919986 70.3140005,64.3400011 70.222,64.124 C70.1299995,63.9079989 70.0100007,63.7300007 69.862,63.59 C69.7139993,63.4499993 69.542001,63.3440004 69.346,63.272 C69.149999,63.1999996 68.9440011,63.164 68.728,63.164 C68.4559986,63.164 68.1680015,63.2339993 67.864,63.374 C67.5599985,63.5140007 67.2960011,63.7639982 67.072,64.124 L67.072,65.648 Z" id="Daydayup" fill="#A8B2BA" fill-rule="nonzero" opacity="0.400000006"></path>
            <path d="M200.852,65.756 L200.816,65.696 C201.888005,63.9199911 202.539999,62.1600087 202.772,60.416 L204.728,60.992 L204.164,61.34 C204.076,61.5960013 203.984,61.8159991 203.888,62 L205.868,62 L206.408,61.184 L208.244,62.18 L207.632,62.66 C207.095997,64.2920082 206.384004,65.5879952 205.496,66.548 C206.200004,66.8760016 207.279993,67.1159992 208.736,67.268 L208.712,67.34 C208.239998,67.6840017 207.880001,68.251996 207.632,69.044 C206.167993,68.5959978 205.108003,68.0800029 204.452,67.496 C203.491995,68.2160036 202.224008,68.8239975 200.648,69.32 L200.612,69.26 C201.908006,68.3879956 202.943996,67.5240043 203.72,66.668 C203.311998,66.1159972 202.924002,65.2800056 202.556,64.16 C202.147998,64.6400024 201.580004,65.1719971 200.852,65.756 Z M197.408,60.38 L197.408,60.092 L202.412,60.092 C202.219999,60.0359997 202.108,59.8840012 202.076,59.636 C201.98,59.0599971 201.844001,58.6560012 201.668,58.424 L201.716,58.364 C203.060007,58.3399999 203.74,58.6519968 203.756,59.3 C203.732,59.6840019 203.480002,59.9479993 203,60.092 L206.228,60.092 L207.068,58.964 L208.532,60.044 C208.588,60.0840002 208.616,60.1239998 208.616,60.164 C208.584,60.2920006 208.460001,60.3639999 208.244,60.38 L200.24,60.38 L201.896,61.088 L201.272,61.424 C200.911998,62.0400031 200.524002,62.5879976 200.108,63.068 L200.876,63.212 L200.42,63.632 L200.42,68.648 C200.428,68.9120013 200.304001,69.0639998 200.048,69.104 C199.631998,69.1680003 199.244002,69.196 198.884,69.188 C198.932,67.979994 198.956,66.7120066 198.956,65.384 L198.956,64.208 C198.475998,64.616002 197.940003,64.9999982 197.348,65.36 L197.324,65.288 C198.588006,63.6079916 199.443998,61.972008 199.892,60.38 L197.408,60.38 Z M206.06,62.288 L203.78,62.288 C203.708,62.4560008 203.612001,62.6319991 203.492,62.816 C204.596006,63.0720013 205.108,63.4399976 205.028,63.92 C204.972,64.3920024 204.704002,64.6559997 204.224,64.712 C203.943999,64.72 203.784,64.5600016 203.744,64.232 L203.708,63.98 C203.66,63.5639979 203.568001,63.2120014 203.432,62.924 C203.207999,63.316002 202.960001,63.6759984 202.688,64.004 C203.264003,64.8200041 203.827997,65.4399979 204.38,65.864 C205.164004,64.8079947 205.723998,63.6160066 206.06,62.288 Z M219.92,65.54 C219.92,65.9640021 219.932,66.7639941 219.956,67.94 C219.964,68.2680016 219.968,68.4919994 219.968,68.612 C219.984,68.8360011 219.900001,68.9599999 219.716,68.984 C219.419999,69.0560004 219.024002,69.1039999 218.528,69.128 L218.528,68.468 L214.832,68.468 L214.832,68.684 C214.864,68.9400013 214.768001,69.072 214.544,69.08 C214.119998,69.1520004 213.744002,69.184 213.416,69.176 C213.44,68.2799955 213.456,67.2400059 213.464,66.056 L213.464,64.616 C213.456,63.5119945 213.448,62.7760018 213.44,62.408 L215.144,62.804 L218.348,62.804 L218.792,62.036 L220.352,62.828 L219.92,63.356 L219.92,65.54 Z M209.384,62.468 L209.336,62.408 C209.880003,61.8319971 210.343998,61.2640028 210.728,60.704 C210.479999,60.1599973 210.104003,59.5760031 209.6,58.952 L209.648,58.892 C210.272003,59.3320022 210.759998,59.7399981 211.112,60.116 C211.448002,59.5479972 211.711999,58.960003 211.904,58.352 L213.596,59.264 L213.008,59.552 C212.623998,60.0880027 212.212002,60.555998 211.772,60.956 C212.484004,61.9720051 212.824,63.6919879 212.792,66.116 C212.808,68.0280096 212.052008,69.0519993 210.524,69.188 C210.524,68.4359962 210.136004,67.956001 209.36,67.748 L209.372,67.676 L210.512,67.748 C211.112003,67.7319999 211.424,67.124006 211.448,65.924 C211.448,65.4279975 211.44,64.976002 211.424,64.568 C210.895997,65.1360028 210.216004,65.6519977 209.384,66.116 L209.336,66.068 C210.176004,64.9479944 210.823998,63.8280056 211.28,62.708 C211.224,62.2679978 211.140001,61.8760017 211.028,61.532 C210.587998,61.8440016 210.040003,62.1559984 209.384,62.468 Z M212.936,60.5 L212.936,60.224 L214.7,60.224 L214.7,59.852 C214.7,59.2839972 214.692,58.800002 214.676,58.4 L216.428,58.7 L216.02,59.12 L216.02,60.224 L217.292,60.224 L217.292,59.648 C217.292,59.3839987 217.284,58.9720028 217.268,58.412 L219.02,58.712 L218.612,59.12 L218.612,60.224 L218.852,60.224 L219.464,59.336 L220.64,60.188 C220.688,60.2200002 220.712,60.2639997 220.712,60.32 C220.696,60.4320006 220.580001,60.492 220.364,60.5 L218.612,60.5 C218.628,60.892002 218.636,61.2719982 218.636,61.64 C218.636,61.7920008 218.560001,61.8879998 218.408,61.928 C218.127999,61.9920003 217.756002,62.0319999 217.292,62.048 L217.292,60.5 L216.02,60.5 L216.02,61.748 C216.02,61.9240009 215.932001,62.0319998 215.756,62.072 C215.411998,62.1360003 215.060002,62.172 214.7,62.18 L214.7,60.5 L212.936,60.5 Z M214.832,65.708 L214.832,68.18 L216.008,68.18 L216.008,65.708 L214.832,65.708 Z M217.352,65.708 L217.352,68.18 L218.528,68.18 L218.528,65.708 L217.352,65.708 Z M214.832,63.092 L214.832,65.42 L216.008,65.42 L216.008,63.092 L214.832,63.092 Z M218.528,63.092 L217.352,63.092 L217.352,65.42 L218.528,65.42 L218.528,63.092 Z M223.952,69.176 C225.408007,68.3919961 226.551996,67.5840042 227.384,66.752 C226.839997,66.0479965 226.436001,65.0760062 226.172,63.836 L225.152,63.836 L225.152,63.548 L229.268,63.548 L229.808,62.804 L231.584,63.872 L230.984,64.328 C230.519998,65.2240045 230.020003,65.9599971 229.484,66.536 C230.356004,66.9120019 231.427994,67.1679993 232.7,67.304 L232.7,67.376 C232.163997,67.776002 231.752001,68.3519962 231.464,69.104 C230.055993,68.703998 228.984004,68.2120029 228.248,67.628 C227.143994,68.3960038 225.724009,68.9319985 223.988,69.236 L223.952,69.176 Z M225.968,58.508 L227.852,58.952 L228.908,58.952 L229.34,58.232 L230.912,58.988 L230.516,59.468 L230.516,61.088 C230.5,61.3520013 230.619999,61.4760001 230.876,61.46 L231.044,61.46 C231.284001,61.468 231.475999,61.376001 231.62,61.184 L231.668,61.184 C232.316003,61.6560024 232.624,61.995999 232.592,62.204 C232.471999,62.5080015 232.004004,62.6719999 231.188,62.696 L230.324,62.696 C229.459996,62.7440002 229.052,62.2920048 229.1,61.34 L229.1,59.24 L227.504,59.24 L227.504,59.66 C227.632001,61.4760091 226.68801,62.8079958 224.672,63.656 L224.624,63.596 C225.192003,62.9639968 225.563999,62.3960025 225.74,61.892 C225.932001,61.3959975 226.024,60.7160043 226.016,59.852 C226.016,59.3639976 226,58.916002 225.968,58.508 Z M222.644,62.564 L221.372,62.564 L221.372,62.276 L222.452,62.276 L222.884,61.496 L224.504,62.324 L224.036,62.828 L224.036,66.104 L225.728,65.348 L225.764,65.408 C225.011996,66.2960044 224.236004,67.1119963 223.436,67.856 L223.172,68.432 L222.092,66.968 C222.476002,66.7439989 222.66,66.4480018 222.644,66.08 L222.644,62.564 Z M229.4,63.836 L226.292,63.836 C226.900003,64.6840042 227.539997,65.3439976 228.212,65.816 C228.668002,65.2399971 229.063998,64.5800037 229.4,63.836 Z M222.236,58.496 L222.272,58.46 C223.824008,58.7560015 224.58,59.2439966 224.54,59.924 C224.46,60.4920028 224.140003,60.8159996 223.58,60.896 C223.299999,60.904 223.112,60.708002 223.016,60.308 C222.823999,59.5879964 222.564002,58.9840024 222.236,58.496 Z M239.828,58.508 L242.012,58.808 L241.484,59.3 L241.484,62.732 L242.36,62.732 L243.248,61.544 L244.76,62.684 C244.816,62.7320002 244.844,62.7759998 244.844,62.816 C244.82,62.9360006 244.696001,63.0039999 244.472,63.02 L241.484,63.02 L241.484,64.724 C241.484,65.0840018 241.5,66.4479882 241.532,68.816 C241.54,69.0000009 241.460001,69.1039999 241.292,69.128 C240.811998,69.2160004 240.324002,69.256 239.828,69.248 C239.876,67.1759896 239.9,65.8280031 239.9,65.204 L239.9,63.02 L237.224,63.02 L237.224,62.732 L239.9,62.732 L239.9,61.004 C239.892,60.1239956 239.868,59.2920039 239.828,58.508 Z M236.228,66.26 L238.196,65.276 L238.232,65.312 C237.351996,66.4080055 236.480004,67.3479961 235.616,68.132 L235.34,68.708 L234.188,67.124 C234.572002,66.8999989 234.756,66.604 234.74,66.236 L234.74,62.708 L233.252,62.708 L233.252,62.42 L234.476,62.42 L234.956,61.604 L236.756,62.48 L236.228,63.02 L236.228,66.26 Z M234.344,58.532 L234.368,58.484 C235.928008,58.7560014 236.688,59.2519964 236.648,59.972 C236.584,60.5560029 236.264003,60.8799997 235.688,60.944 C235.327998,60.944 235.104,60.7520019 235.016,60.368 C234.855999,59.6159962 234.632001,59.0040024 234.344,58.532 Z M249.308,59.948 L249.284,59.876 C250.996009,59.4919981 252.255996,59.1440016 253.064,58.832 C253.616003,58.631999 254.115998,58.4120012 254.564,58.172 L256.028,59.516 L255.32,59.516 C254.735997,59.6040004 254.100003,59.6839996 253.412,59.756 L253.412,61.976 L254.54,61.976 L255.296,60.968 L256.568,61.928 C256.616,61.9600002 256.64,62.0079997 256.64,62.072 C256.608,62.1840006 256.484001,62.2479999 256.268,62.264 L253.412,62.264 L253.412,64.34 L253.976,64.34 L254.408,63.548 L256.124,64.412 L255.656,64.904 L255.656,66.308 C255.656,66.8520027 255.672,67.623995 255.704,68.624 C255.728,68.8480011 255.636001,68.9759998 255.428,69.008 C255.091998,69.0800004 254.680002,69.1239999 254.192,69.14 L254.192,68 L251.228,68 L251.228,68.624 C251.236,68.8720012 251.124001,69.0159998 250.892,69.056 C250.475998,69.1360004 250.092002,69.176 249.74,69.176 C249.772,68.0159942 249.788,67.1960024 249.788,66.716 L249.788,66.152 C249.115997,66.960004 248.424004,67.6919967 247.712,68.348 L247.484,68.96 L246.344,67.448 C246.696002,67.255999 246.864,66.9760018 246.848,66.608 L246.848,62.948 L245.384,62.948 L245.384,62.66 L246.656,62.66 L247.112,61.832 L248.72,62.648 L248.264,63.128 L248.264,66.584 L249.788,65.936 L249.788,65.744 C249.788,64.9199959 249.78,64.312002 249.764,63.92 L251.336,64.34 L251.924,64.34 L251.924,62.264 L249.068,62.264 L249.068,61.976 L251.924,61.976 L251.924,59.876 C250.907995,59.9320003 250.036004,59.956 249.308,59.948 Z M254.192,64.628 L251.228,64.628 L251.228,67.712 L254.192,67.712 L254.192,64.628 Z M246.392,58.484 L246.428,58.448 C247.956008,58.7040013 248.712,59.1919964 248.696,59.912 C248.6,60.4880029 248.260003,60.8159996 247.676,60.896 C247.387999,60.896 247.208,60.7280017 247.136,60.392 C246.991999,59.7199966 246.744002,59.084003 246.392,58.484 Z" id="夜猫设计话" fill="#A8B2BA" fill-rule="nonzero" opacity="0.400000006"></path>
        </g>
    </g>
</svg>