<?xml version="1.0" encoding="UTF-8"?>
<svg width="1200px" height="200px" viewBox="0 0 1200 200" version="1.1" xmlns="http://www.w3.org/2000/svg" xmlns:xlink="http://www.w3.org/1999/xlink">
    <!-- Generator: Sketch 58 (84663) - https://sketch.com -->
    <title>PC端banner模板备份 6</title>
    <desc>Created with Sketch.</desc>
    <g id="PC端banner模板备份-6" stroke="none" stroke-width="1" fill="none" fill-rule="evenodd">
        <rect fill="#000000" x="0" y="0" width="1200" height="200"></rect>
        <g id="编组-2" transform="translate(419.000000, 61.000000)">
            <g id="编组">
                <polygon id="矩形" fill="#FF3040" opacity="0.5" points="9.07534247 40.1241156 351 40.1241156 341.924658 52.1241156 3.41129468e-13 52.1241156"></polygon>
                <path d="M15.222,17.428 L11.726,19.1 C12.904,20.81 14.006,22.786 15.07,25.028 L7.28,25.028 L7.28,28.866 L18.87,28.866 C16.59,32.59 12.296,36.01 6.064,39.088 L8.268,42.66 C14.956,38.898 19.516,34.414 21.986,29.17 L21.986,43.914 L26.014,43.914 L26.014,29.208 C28.636,34.11 33.044,38.594 39.2,42.622 L41.936,39.202 C36.008,36.162 31.714,32.704 29.054,28.866 L40.644,28.866 L40.644,25.028 L32.968,25.028 C34.184,23.09 35.286,20.924 36.274,18.53 L32.398,17.162 C31.448,19.936 30.346,22.558 29.054,25.028 L26.014,25.028 L26.014,16.706 L39.58,16.706 L39.58,12.868 L26.014,12.868 L26.014,8.916 L21.986,8.916 L21.986,12.868 L8.762,12.868 L8.762,16.706 L21.986,16.706 L21.986,25.028 L15.906,25.028 L18.604,23.66 C17.502,21.38 16.362,19.29 15.222,17.428 Z M75.186,12.944 L61.24,12.944 C61.886,11.804 62.418,10.588 62.798,9.258 L58.77,8.688 C58.39,10.132 57.782,11.576 57.022,12.944 L48.814,12.944 L48.814,43.952 L52.842,43.952 L52.842,41.9 L71.158,41.9 L71.158,43.952 L75.186,43.952 L75.186,12.944 Z M52.842,38.138 L52.842,33.16 L71.158,33.16 L71.158,38.138 L52.842,38.138 Z M52.842,29.512 L52.842,24.838 L71.158,24.838 L71.158,29.512 L52.842,29.512 Z M52.842,21.19 L52.842,16.744 L71.158,16.744 L71.158,21.19 L52.842,21.19 Z M84.458,11.158 L84.458,14.54 L97.986,14.54 L97.81025,15.3665 C97.7485,15.6515 97.682,15.946 97.606,16.25 L88.372,16.25 L88.372,33.92 L83.052,33.92 L83.052,37.416 L92.552,37.416 C90.196,38.784 87.27,39.962 83.812,40.912 L85.408,44.256 C89.664,42.926 93.312,41.254 96.276,39.24 L94.642,37.416 L105.13,37.416 L103.876,39.278 C107.524,40.494 111.096,42.128 114.592,44.256 L116.606,41.14 C113.946,39.696 111.058,38.48 107.942,37.416 L116.948,37.416 L116.948,33.92 L112.198,33.92 L112.198,16.25 L101.672,16.25 L101.843,15.4235 C101.9,15.1385 101.957,14.844 102.014,14.54 L115.542,14.54 L115.542,11.158 L102.584,11.158 C102.66,10.512 102.774,9.866 102.85,9.182 L98.822,8.612 C98.746,9.448 98.632,10.322 98.518,11.158 L84.458,11.158 Z M92.172,33.92 L92.172,32.4 L108.436,32.4 L108.436,33.92 L92.172,33.92 Z M92.172,29.474 L92.172,28.03 L108.436,28.03 L108.436,29.474 L92.172,29.474 Z M92.172,25.142 L92.172,23.736 L108.436,23.736 L108.436,25.142 L92.172,25.142 Z M92.172,20.81 L92.172,19.366 L108.436,19.366 L108.436,20.81 L92.172,20.81 Z M138.304,36.542 C143.168,38.518 147.918,41.064 152.592,44.218 L154.796,40.76 C150.464,38.062 145.676,35.706 140.47,33.654 L140.812,33.046 L154.226,33.046 L154.226,29.322 L142.408,29.322 C143.092,27.118 143.51,24.61 143.662,21.836 L143.662,17.124 L139.824,17.124 L139.824,21.836 C139.672,24.61 139.14,27.118 138.228,29.322 L121.812,29.322 L121.812,33.046 L136.138,33.046 C135.986,33.198 135.872,33.388 135.72,33.578 C133.288,36.39 128.5,38.746 121.432,40.646 L123.598,43.99 C130.286,42.242 135.188,39.772 138.304,36.542 Z M127.398,22.14 L125.422,25.066 C127.93,26.054 130.324,27.422 132.68,29.17 L134.732,26.016 C132.528,24.496 130.058,23.204 127.398,22.14 Z M131.274,16.858 L129.298,19.784 C131.73,20.734 134.086,22.064 136.404,23.812 L138.456,20.658 C136.252,19.138 133.858,17.884 131.274,16.858 Z M154.036,11.956 L140.128,11.956 C139.748,10.74 139.368,9.6 138.95,8.574 L134.884,9.258 C135.302,10.094 135.682,10.968 136.062,11.956 L121.888,11.956 L121.888,19.974 L125.764,19.974 L125.764,15.604 L150.16,15.604 L150.16,19.974 L154.036,19.974 L154.036,11.956 Z M158.672,17.39 L158.672,21.228 L163.156,21.228 L163.156,42.584 L191.998,42.584 L191.998,38.556 L167.184,38.556 L167.184,21.228 L173.644,21.228 L173.644,33.198 L187.97,33.198 L187.97,21.228 L193.29,21.228 L193.29,17.39 L187.97,17.39 L187.97,8.878 L184.056,8.878 L184.056,17.39 L177.558,17.39 L177.558,8.878 L173.644,8.878 L173.644,17.39 L167.184,17.39 L167.184,9.258 L163.156,9.258 L163.156,17.39 L158.672,17.39 Z M177.558,21.228 L184.056,21.228 L184.056,29.322 L177.558,29.322 L177.558,21.228 Z M200.586,9.98 L200.586,25.94 L206.894,25.94 C204.462,28.144 200.89,29.968 196.102,31.412 L198.23,34.87 C201.498,33.54 204.31,32.02 206.666,30.31 C206.59,32.59 206.172,34.452 205.45,35.896 C204.424,37.872 202.258,39.544 198.952,40.912 L201.574,44.104 C205.5412,42.3408 208.088044,40.1514933 209.214533,37.53608 L209.326,37.264 C210.238,35.098 210.694,32.476 210.694,29.398 L207.844,29.398 C209.136,28.334 210.276,27.156 211.264,25.94 L216.736,25.94 C217.572,27.156 218.674,28.296 219.966,29.436 L217.914,29.436 L217.914,44.066 L221.904,44.066 L221.904,30.956 C224.108,32.552 226.844,33.958 230.112,35.212 L231.822,31.716 C227.072,30.272 223.462,28.334 221.03,25.94 L227.566,25.94 L227.566,9.98 L200.586,9.98 Z M223.728,22.52 L215.938,22.52 L215.938,19.556 L223.728,19.556 L223.728,22.52 Z M212.062,22.52 L204.424,22.52 L204.424,19.556 L212.062,19.556 L212.062,22.52 Z M204.424,16.288 L204.424,13.476 L212.062,13.476 L212.062,16.288 L204.424,16.288 Z M215.938,13.476 L223.728,13.476 L223.728,16.288 L215.938,16.288 L215.938,13.476 Z M248.846,14.958 L243.07,14.958 C243.754,13.21 244.324,11.272 244.742,9.22 L240.752,8.688 C240.448,10.854 239.954,12.944 239.27,14.958 L235.622,14.958 L235.622,42.698 L239.422,42.698 L239.422,39.696 L245.046,39.696 L245.046,41.596 L248.846,41.596 L248.846,14.958 Z M239.422,36.048 L239.422,28.866 L245.046,28.866 L245.046,36.048 L239.422,36.048 Z M239.422,25.332 L239.422,18.682 L245.046,18.682 L245.046,25.332 L239.422,25.332 Z M255.762,24.192 L252.532,26.206 C254.888,29.246 256.788,32.02 258.194,34.528 L261.386,32.324 C260.056,29.968 258.194,27.27 255.762,24.192 Z M268.416,14.958 L256.864,14.958 C257.434,13.134 257.928,11.196 258.308,9.144 L254.394,8.65 C253.482,13.856 251.81,18.264 249.302,21.836 L251.696,24.99 C253.102,23.166 254.318,21.114 255.344,18.834 L264.54,18.834 L264.472095,26.2785455 C264.39741,32.5337342 264.291034,36.3297241 264.122,37.682 C263.894,39.164 263.096,39.924 261.728,39.924 C260.474,39.924 258.992,39.848 257.32,39.734 L258.27,43.344 L259.944375,43.4642344 C261.041625,43.5360781 261.8515,43.572 262.374,43.572 C265.642,43.572 267.466,42.242 267.846,39.582 L267.882181,39.2645557 C268.23806,35.931153 268.416,27.8289677 268.416,14.958 Z M277.802,15.984 L277.802,19.366 L299.006,19.366 L299.006,21.798 L276.168,21.798 L276.168,25.37 L302.958,25.37 L302.958,9.904 L276.776,9.904 L276.776,13.476 L299.006,13.476 L299.006,15.984 L277.802,15.984 Z M280.31,27.384 C279.17,29.968 277.84,32.172 276.244,34.034 L279.36,36.276 C281.032,34.262 282.476,31.868 283.73,29.056 L280.31,27.384 Z M292.128,26.092 L288.176,26.092 C288.138,28.258 287.948,29.93 287.568,31.146 C286.048,35.478 281.336,38.556 273.432,40.38 L275.066,44.066 C282.666,42.052 287.72,38.974 290.228,34.87 C292.66,39.126 298.018,42.204 306.226,44.066 L307.86,40.38 C299.386,38.708 294.028,35.402 291.786,30.462 C292.014,29.17 292.128,27.688 292.128,26.092 Z M300.868,27.194 C299.614,29.702 298.132,31.83 296.422,33.578 L299.576,35.858 C301.4,33.882 302.958,31.564 304.326,28.866 L300.868,27.194 Z M318.538,17.466 L318.538,20.658 L331.192,20.658 L331.192,17.466 L318.538,17.466 Z M319.184,22.368 L319.184,30.69 L330.508,30.69 L330.508,22.368 L319.184,22.368 Z M326.822,27.726 L322.87,27.726 L322.87,25.37 L326.822,25.37 L326.822,27.726 Z M343.96,11.766 L341.718,11.766 L341.395,10.1415 C341.2905,9.6285 341.186,9.144 341.072,8.688 L337.576,9.296 C337.842,10.056 338.108,10.892 338.336,11.766 L335.6,11.766 C335.562,10.778 335.562,9.714 335.562,8.65 L331.8,8.65 L331.802432,9.921936 C331.80608,10.55304 331.8152,11.1732 331.838,11.766 L313.522,11.766 L313.522,19.556 C313.446,23.774 312.382,27.08 310.406,29.436 L313.37,32.096 C315.916,28.942 317.246,24.762 317.398,19.556 L317.398,15.338 L332.028,15.338 C332.218,18.302 332.598,20.772 333.13,22.748 C333.51,24.154 334.004,25.446 334.536,26.586 C333.434,27.802 332.218,28.828 330.888,29.588 L332.902,32.666 C334.118,31.906 335.296,30.956 336.436,29.816 C336.474,29.892 336.55,29.968 336.664,30.082 C338.032,31.64 339.476,32.438 340.996,32.438 C342.858,32.438 344.416,30.386 345.67,26.358 L342.516,24.496 L342.370024,25.077605 C341.740102,27.5069184 341.145286,28.752 340.616,28.752 C340.008,28.752 339.362,28.144 338.64,27.004 C340.236,24.648 341.566,21.76 342.668,18.264 L339.666,16.668 C338.906,19.024 338.032,21.114 337.044,22.976 C336.854,22.33 336.664,21.608 336.512,20.772 C336.17,19.328 335.904,17.542 335.752,15.338 L343.96,15.338 L343.96,11.766 Z M314.396,32.514 C313.636,35.364 312.42,38.062 310.672,40.608 L314.016,42.774 C315.726,40.114 317.056,36.96 318.006,33.312 L314.396,32.514 Z M333.244,43.344 C334.65,43.344 335.714,43.04 336.436,42.508 C337.158,41.9 337.69,40 337.994,36.808 L334.194,35.592 L334.155474,36.1786925 C334.039158,37.7691579 333.862,38.748 333.624,39.088 C333.396,39.468 333.016,39.658 332.484,39.658 L324.846,39.658 C324.086,39.658 323.744,39.164 323.744,38.176 L323.744,32.172 L319.716,32.172 L319.716,39.012 C319.716,41.9 321.008,43.344 323.668,43.344 L333.244,43.344 Z M340.882,33.122 L337.652,35.098 C339.704,37.606 341.3,39.886 342.478,41.938 L345.632,39.734 C344.53,37.834 342.934,35.63 340.882,33.122 Z M328.646,31.412 C330.28,33.312 331.534,34.946 332.446,36.352 L329.482,38.404 C328.57,36.884 327.278,35.136 325.682,33.236 L328.646,31.412 Z" id="来自真实世界的灵感" fill="#A8B2BA" fill-rule="nonzero"></path>
            </g>
            <path d="M8.96,74 L8.96,65.6 L11.72,65.6 C12.3920034,65.6 12.9859974,65.7179988 13.502,65.954 C14.0180026,66.1900012 14.4519982,66.503998 14.804,66.896 C15.1560018,67.288002 15.4219991,67.7359975 15.602,68.24 C15.7820009,68.7440025 15.872,69.2639973 15.872,69.8 C15.872,70.3360027 15.7820009,70.8559975 15.602,71.36 C15.4219991,71.8640025 15.1560018,72.311998 14.804,72.704 C14.4519982,73.096002 14.0180026,73.4099988 13.502,73.646 C12.9859974,73.8820012 12.3920034,74 11.72,74 L8.96,74 Z M11.672,72.5 C12.0160017,72.5 12.3379985,72.4300007 12.638,72.29 C12.9380015,72.1499993 13.2019989,71.9600012 13.43,71.72 C13.6580011,71.4799988 13.8379993,71.1960016 13.97,70.868 C14.1020007,70.5399984 14.168,70.1840019 14.168,69.8 C14.168,69.4159981 14.1020007,69.0600016 13.97,68.732 C13.8379993,68.4039984 13.6580011,68.1200012 13.43,67.88 C13.2019989,67.6399988 12.9380015,67.4500007 12.638,67.31 C12.3379985,67.1699993 12.0160017,67.1 11.672,67.1 L10.664,67.1 L10.664,72.5 L11.672,72.5 Z M21.896,74 L21.896,73.376 C21.5839984,73.6560014 21.2540017,73.8539994 20.906,73.97 C20.5579983,74.0860006 20.1920019,74.144 19.808,74.144 C19.3759978,74.144 18.9740019,74.0660008 18.602,73.91 C18.2299981,73.7539992 17.9100013,73.5320014 17.642,73.244 C17.3739987,72.9559986 17.1620008,72.612002 17.006,72.212 C16.8499992,71.811998 16.772,71.3680024 16.772,70.88 C16.772,70.3919976 16.8499992,69.948002 17.006,69.548 C17.1620008,69.147998 17.3739987,68.8040014 17.642,68.516 C17.9100013,68.2279986 18.2299981,68.0060008 18.602,67.85 C18.9740019,67.6939992 19.3759978,67.616 19.808,67.616 C20.1840019,67.616 20.5459983,67.6719994 20.894,67.784 C21.2420017,67.8960006 21.5719984,68.0919986 21.884,68.372 L21.884,67.796 L23.468,67.796 L23.468,74 L21.896,74 Z M21.788,70.124 C21.5559988,69.7639982 21.2880015,69.5140007 20.984,69.374 C20.6799985,69.2339993 20.3960013,69.164 20.132,69.164 C19.9159989,69.164 19.710001,69.1999996 19.514,69.272 C19.317999,69.3440004 19.1440008,69.4499993 18.992,69.59 C18.8399992,69.7300007 18.7180005,69.9079989 18.626,70.124 C18.5339995,70.3400011 18.488,70.5919986 18.488,70.88 C18.488,71.1680014 18.5339995,71.4199989 18.626,71.636 C18.7180005,71.8520011 18.8399992,72.0299993 18.992,72.17 C19.1440008,72.3100007 19.317999,72.4159996 19.514,72.488 C19.710001,72.5600004 19.9159989,72.596 20.132,72.596 C20.3960013,72.596 20.6799985,72.5280007 20.984,72.392 C21.2880015,72.2559993 21.5559988,72.0080018 21.788,71.648 L21.788,70.124 Z M24.92,75.26 C25.0560007,75.3080002 25.1819994,75.3419999 25.298,75.362 C25.4140006,75.3820001 25.5239995,75.392 25.628,75.392 C25.9880018,75.392 26.2779989,75.2800011 26.498,75.056 C26.7180011,74.8319989 26.8999993,74.5400018 27.044,74.18 L27.188,73.82 L24.308,67.796 L26.252,67.796 L28.016,71.828 L29.552,67.796 L31.496,67.796 L28.52,74.6 C28.3519992,74.9840019 28.172001,75.3279985 27.98,75.632 C27.787999,75.9360015 27.5800011,76.1939989 27.356,76.406 C27.1319989,76.6180011 26.8840014,76.7779995 26.612,76.886 C26.3399986,76.9940005 26.0400016,77.048 25.712,77.048 C25.3519982,77.048 24.9440023,76.9760007 24.488,76.832 L24.92,75.26 Z M37.1,74 L37.1,73.376 C36.7879984,73.6560014 36.4580017,73.8539994 36.11,73.97 C35.7619983,74.0860006 35.3960019,74.144 35.012,74.144 C34.5799978,74.144 34.1780019,74.0660008 33.806,73.91 C33.4339981,73.7539992 33.1140013,73.5320014 32.846,73.244 C32.5779987,72.9559986 32.3660008,72.612002 32.21,72.212 C32.0539992,71.811998 31.976,71.3680024 31.976,70.88 C31.976,70.3919976 32.0539992,69.948002 32.21,69.548 C32.3660008,69.147998 32.5779987,68.8040014 32.846,68.516 C33.1140013,68.2279986 33.4339981,68.0060008 33.806,67.85 C34.1780019,67.6939992 34.5799978,67.616 35.012,67.616 C35.3720018,67.616 35.7159984,67.6659995 36.044,67.766 C36.3720016,67.8660005 36.6879985,68.0399988 36.992,68.288 L36.992,65.6 L38.672,65.6 L38.672,74 L37.1,74 Z M36.992,70.124 C36.7599988,69.7639982 36.4920015,69.5140007 36.188,69.374 C35.8839985,69.2339993 35.6000013,69.164 35.336,69.164 C35.1199989,69.164 34.914001,69.1999996 34.718,69.272 C34.521999,69.3440004 34.3500007,69.4499993 34.202,69.59 C34.0539993,69.7300007 33.9340005,69.9079989 33.842,70.124 C33.7499995,70.3400011 33.704,70.5919986 33.704,70.88 C33.704,71.1680014 33.7499995,71.4199989 33.842,71.636 C33.9340005,71.8520011 34.0539993,72.0299993 34.202,72.17 C34.3500007,72.3100007 34.521999,72.4159996 34.718,72.488 C34.914001,72.5600004 35.1199989,72.596 35.336,72.596 C35.6000013,72.596 35.8839985,72.5280007 36.188,72.392 C36.4920015,72.2559993 36.7599988,72.0080018 36.992,71.648 L36.992,70.124 Z M45.116,74 L45.116,73.376 C44.8039984,73.6560014 44.4740017,73.8539994 44.126,73.97 C43.7779983,74.0860006 43.4120019,74.144 43.028,74.144 C42.5959978,74.144 42.1940019,74.0660008 41.822,73.91 C41.4499981,73.7539992 41.1300013,73.5320014 40.862,73.244 C40.5939987,72.9559986 40.3820008,72.612002 40.226,72.212 C40.0699992,71.811998 39.992,71.3680024 39.992,70.88 C39.992,70.3919976 40.0699992,69.948002 40.226,69.548 C40.3820008,69.147998 40.5939987,68.8040014 40.862,68.516 C41.1300013,68.2279986 41.4499981,68.0060008 41.822,67.85 C42.1940019,67.6939992 42.5959978,67.616 43.028,67.616 C43.4040019,67.616 43.7659983,67.6719994 44.114,67.784 C44.4620017,67.8960006 44.7919984,68.0919986 45.104,68.372 L45.104,67.796 L46.688,67.796 L46.688,74 L45.116,74 Z M45.008,70.124 C44.7759988,69.7639982 44.5080015,69.5140007 44.204,69.374 C43.8999985,69.2339993 43.6160013,69.164 43.352,69.164 C43.1359989,69.164 42.930001,69.1999996 42.734,69.272 C42.537999,69.3440004 42.3640008,69.4499993 42.212,69.59 C42.0599992,69.7300007 41.9380005,69.9079989 41.846,70.124 C41.7539995,70.3400011 41.708,70.5919986 41.708,70.88 C41.708,71.1680014 41.7539995,71.4199989 41.846,71.636 C41.9380005,71.8520011 42.0599992,72.0299993 42.212,72.17 C42.3640008,72.3100007 42.537999,72.4159996 42.734,72.488 C42.930001,72.5600004 43.1359989,72.596 43.352,72.596 C43.6160013,72.596 43.8999985,72.5280007 44.204,72.392 C44.5080015,72.2559993 44.7759988,72.0080018 45.008,71.648 L45.008,70.124 Z M48.14,75.26 C48.2760007,75.3080002 48.4019994,75.3419999 48.518,75.362 C48.6340006,75.3820001 48.7439995,75.392 48.848,75.392 C49.2080018,75.392 49.4979989,75.2800011 49.718,75.056 C49.9380011,74.8319989 50.1199993,74.5400018 50.264,74.18 L50.408,73.82 L47.528,67.796 L49.472,67.796 L51.236,71.828 L52.772,67.796 L54.716,67.796 L51.74,74.6 C51.5719992,74.9840019 51.392001,75.3279985 51.2,75.632 C51.007999,75.9360015 50.8000011,76.1939989 50.576,76.406 C50.3519989,76.6180011 50.1040014,76.7779995 49.832,76.886 C49.5599986,76.9940005 49.2600016,77.048 48.932,77.048 C48.5719982,77.048 48.1640023,76.9760007 47.708,76.832 L48.14,75.26 Z M60.032,74 L60.032,73.46 C59.7599986,73.668001 59.4600016,73.8339994 59.132,73.958 C58.8039984,74.0820006 58.4480019,74.144 58.064,74.144 C57.271996,74.144 56.6360024,73.8960025 56.156,73.4 C55.6759976,72.9039975 55.436,72.1840047 55.436,71.24 L55.436,67.796 L57.116,67.796 L57.116,71.108 C57.116,71.3640013 57.1539996,71.5819991 57.23,71.762 C57.3060004,71.9420009 57.4059994,72.0919994 57.53,72.212 C57.6540006,72.3320006 57.7959992,72.4199997 57.956,72.476 C58.1160008,72.5320003 58.2799992,72.56 58.448,72.56 C58.7520015,72.56 59.0519985,72.4780008 59.348,72.314 C59.6440015,72.1499992 59.8719992,71.9120016 60.032,71.6 L60.032,67.796 L61.712,67.796 L61.712,74 L60.032,74 Z M63.392,76.82 L63.392,67.796 L64.964,67.796 L64.964,68.384 C65.2760016,68.1039986 65.6059983,67.9060006 65.954,67.79 C66.3020017,67.6739994 66.6679981,67.616 67.052,67.616 C67.4840022,67.616 67.8859981,67.6939992 68.258,67.85 C68.6300019,68.0060008 68.9499987,68.2279986 69.218,68.516 C69.4860013,68.8040014 69.6979992,69.147998 69.854,69.548 C70.0100008,69.948002 70.088,70.3919976 70.088,70.88 C70.088,71.3680024 70.0100008,71.811998 69.854,72.212 C69.6979992,72.612002 69.4860013,72.9559986 69.218,73.244 C68.9499987,73.5320014 68.6300019,73.7539992 68.258,73.91 C67.8859981,74.0660008 67.4840022,74.144 67.052,74.144 C66.6919982,74.144 66.3460017,74.0940005 66.014,73.994 C65.6819983,73.8939995 65.3680015,73.7200012 65.072,73.472 L65.072,76.82 L63.392,76.82 Z M65.072,71.648 C65.2960011,72.0080018 65.5599985,72.2559993 65.864,72.392 C66.1680015,72.5280007 66.4559986,72.596 66.728,72.596 C66.9440011,72.596 67.149999,72.5600004 67.346,72.488 C67.542001,72.4159996 67.7139993,72.3100007 67.862,72.17 C68.0100007,72.0299993 68.1299995,71.8520011 68.222,71.636 C68.3140005,71.4199989 68.36,71.1680014 68.36,70.88 C68.36,70.5919986 68.3140005,70.3400011 68.222,70.124 C68.1299995,69.9079989 68.0100007,69.7300007 67.862,69.59 C67.7139993,69.4499993 67.542001,69.3440004 67.346,69.272 C67.149999,69.1999996 66.9440011,69.164 66.728,69.164 C66.4559986,69.164 66.1680015,69.2339993 65.864,69.374 C65.5599985,69.5140007 65.2960011,69.7639982 65.072,70.124 L65.072,71.648 Z" id="Daydayup" fill="#A8B2BA" fill-rule="nonzero" opacity="0.400000006"></path>
            <path d="M286.852,71.756 L286.816,71.696 C287.888005,69.9199911 288.539999,68.1600087 288.772,66.416 L290.728,66.992 L290.164,67.34 C290.076,67.5960013 289.984,67.8159991 289.888,68 L291.868,68 L292.408,67.184 L294.244,68.18 L293.632,68.66 C293.095997,70.2920082 292.384004,71.5879952 291.496,72.548 C292.200004,72.8760016 293.279993,73.1159992 294.736,73.268 L294.712,73.34 C294.239998,73.6840017 293.880001,74.251996 293.632,75.044 C292.167993,74.5959978 291.108003,74.0800029 290.452,73.496 C289.491995,74.2160036 288.224008,74.8239975 286.648,75.32 L286.612,75.26 C287.908006,74.3879956 288.943996,73.5240043 289.72,72.668 C289.311998,72.1159972 288.924002,71.2800056 288.556,70.16 C288.147998,70.6400024 287.580004,71.1719971 286.852,71.756 Z M283.408,66.38 L283.408,66.092 L288.412,66.092 C288.219999,66.0359997 288.108,65.8840012 288.076,65.636 C287.98,65.0599971 287.844001,64.6560012 287.668,64.424 L287.716,64.364 C289.060007,64.3399999 289.74,64.6519968 289.756,65.3 C289.732,65.6840019 289.480002,65.9479993 289,66.092 L292.228,66.092 L293.068,64.964 L294.532,66.044 C294.588,66.0840002 294.616,66.1239998 294.616,66.164 C294.584,66.2920006 294.460001,66.3639999 294.244,66.38 L286.24,66.38 L287.896,67.088 L287.272,67.424 C286.911998,68.0400031 286.524002,68.5879976 286.108,69.068 L286.876,69.212 L286.42,69.632 L286.42,74.648 C286.428,74.9120013 286.304001,75.0639998 286.048,75.104 C285.631998,75.1680003 285.244002,75.196 284.884,75.188 C284.932,73.979994 284.956,72.7120066 284.956,71.384 L284.956,70.208 C284.475998,70.616002 283.940003,70.9999982 283.348,71.36 L283.324,71.288 C284.588006,69.6079916 285.443998,67.972008 285.892,66.38 L283.408,66.38 Z M292.06,68.288 L289.78,68.288 C289.708,68.4560008 289.612001,68.6319991 289.492,68.816 C290.596006,69.0720013 291.108,69.4399976 291.028,69.92 C290.972,70.3920024 290.704002,70.6559997 290.224,70.712 C289.943999,70.72 289.784,70.5600016 289.744,70.232 L289.708,69.98 C289.66,69.5639979 289.568001,69.2120014 289.432,68.924 C289.207999,69.316002 288.960001,69.6759984 288.688,70.004 C289.264003,70.8200041 289.827997,71.4399979 290.38,71.864 C291.164004,70.8079947 291.723998,69.6160066 292.06,68.288 Z M305.92,71.54 C305.92,71.9640021 305.932,72.7639941 305.956,73.94 C305.964,74.2680016 305.968,74.4919994 305.968,74.612 C305.984,74.8360011 305.900001,74.9599999 305.716,74.984 C305.419999,75.0560004 305.024002,75.1039999 304.528,75.128 L304.528,74.468 L300.832,74.468 L300.832,74.684 C300.864,74.9400013 300.768001,75.072 300.544,75.08 C300.119998,75.1520004 299.744002,75.184 299.416,75.176 C299.44,74.2799955 299.456,73.2400059 299.464,72.056 L299.464,70.616 C299.456,69.5119945 299.448,68.7760018 299.44,68.408 L301.144,68.804 L304.348,68.804 L304.792,68.036 L306.352,68.828 L305.92,69.356 L305.92,71.54 Z M295.384,68.468 L295.336,68.408 C295.880003,67.8319971 296.343998,67.2640028 296.728,66.704 C296.479999,66.1599973 296.104003,65.5760031 295.6,64.952 L295.648,64.892 C296.272003,65.3320022 296.759998,65.7399981 297.112,66.116 C297.448002,65.5479972 297.711999,64.960003 297.904,64.352 L299.596,65.264 L299.008,65.552 C298.623998,66.0880027 298.212002,66.555998 297.772,66.956 C298.484004,67.9720051 298.824,69.6919879 298.792,72.116 C298.808,74.0280096 298.052008,75.0519993 296.524,75.188 C296.524,74.4359962 296.136004,73.956001 295.36,73.748 L295.372,73.676 L296.512,73.748 C297.112003,73.7319999 297.424,73.124006 297.448,71.924 C297.448,71.4279975 297.44,70.976002 297.424,70.568 C296.895997,71.1360028 296.216004,71.6519977 295.384,72.116 L295.336,72.068 C296.176004,70.9479944 296.823998,69.8280056 297.28,68.708 C297.224,68.2679978 297.140001,67.8760017 297.028,67.532 C296.587998,67.8440016 296.040003,68.1559984 295.384,68.468 Z M298.936,66.5 L298.936,66.224 L300.7,66.224 L300.7,65.852 C300.7,65.2839972 300.692,64.800002 300.676,64.4 L302.428,64.7 L302.02,65.12 L302.02,66.224 L303.292,66.224 L303.292,65.648 C303.292,65.3839987 303.284,64.9720028 303.268,64.412 L305.02,64.712 L304.612,65.12 L304.612,66.224 L304.852,66.224 L305.464,65.336 L306.64,66.188 C306.688,66.2200002 306.712,66.2639997 306.712,66.32 C306.696,66.4320006 306.580001,66.492 306.364,66.5 L304.612,66.5 C304.628,66.892002 304.636,67.2719982 304.636,67.64 C304.636,67.7920008 304.560001,67.8879998 304.408,67.928 C304.127999,67.9920003 303.756002,68.0319999 303.292,68.048 L303.292,66.5 L302.02,66.5 L302.02,67.748 C302.02,67.9240009 301.932001,68.0319998 301.756,68.072 C301.411998,68.1360003 301.060002,68.172 300.7,68.18 L300.7,66.5 L298.936,66.5 Z M300.832,71.708 L300.832,74.18 L302.008,74.18 L302.008,71.708 L300.832,71.708 Z M303.352,71.708 L303.352,74.18 L304.528,74.18 L304.528,71.708 L303.352,71.708 Z M300.832,69.092 L300.832,71.42 L302.008,71.42 L302.008,69.092 L300.832,69.092 Z M304.528,69.092 L303.352,69.092 L303.352,71.42 L304.528,71.42 L304.528,69.092 Z M309.952,75.176 C311.408007,74.3919961 312.551996,73.5840042 313.384,72.752 C312.839997,72.0479965 312.436001,71.0760062 312.172,69.836 L311.152,69.836 L311.152,69.548 L315.268,69.548 L315.808,68.804 L317.584,69.872 L316.984,70.328 C316.519998,71.2240045 316.020003,71.9599971 315.484,72.536 C316.356004,72.9120019 317.427994,73.1679993 318.7,73.304 L318.7,73.376 C318.163997,73.776002 317.752001,74.3519962 317.464,75.104 C316.055993,74.703998 314.984004,74.2120029 314.248,73.628 C313.143994,74.3960038 311.724009,74.9319985 309.988,75.236 L309.952,75.176 Z M311.968,64.508 L313.852,64.952 L314.908,64.952 L315.34,64.232 L316.912,64.988 L316.516,65.468 L316.516,67.088 C316.5,67.3520013 316.619999,67.4760001 316.876,67.46 L317.044,67.46 C317.284001,67.468 317.475999,67.376001 317.62,67.184 L317.668,67.184 C318.316003,67.6560024 318.624,67.995999 318.592,68.204 C318.471999,68.5080015 318.004004,68.6719999 317.188,68.696 L316.324,68.696 C315.459996,68.7440002 315.052,68.2920048 315.1,67.34 L315.1,65.24 L313.504,65.24 L313.504,65.66 C313.632001,67.4760091 312.68801,68.8079958 310.672,69.656 L310.624,69.596 C311.192003,68.9639968 311.563999,68.3960025 311.74,67.892 C311.932001,67.3959975 312.024,66.7160043 312.016,65.852 C312.016,65.3639976 312,64.916002 311.968,64.508 Z M308.644,68.564 L307.372,68.564 L307.372,68.276 L308.452,68.276 L308.884,67.496 L310.504,68.324 L310.036,68.828 L310.036,72.104 L311.728,71.348 L311.764,71.408 C311.011996,72.2960044 310.236004,73.1119963 309.436,73.856 L309.172,74.432 L308.092,72.968 C308.476002,72.7439989 308.66,72.4480018 308.644,72.08 L308.644,68.564 Z M315.4,69.836 L312.292,69.836 C312.900003,70.6840042 313.539997,71.3439976 314.212,71.816 C314.668002,71.2399971 315.063998,70.5800037 315.4,69.836 Z M308.236,64.496 L308.272,64.46 C309.824008,64.7560015 310.58,65.2439966 310.54,65.924 C310.46,66.4920028 310.140003,66.8159996 309.58,66.896 C309.299999,66.904 309.112,66.708002 309.016,66.308 C308.823999,65.5879964 308.564002,64.9840024 308.236,64.496 Z M325.828,64.508 L328.012,64.808 L327.484,65.3 L327.484,68.732 L328.36,68.732 L329.248,67.544 L330.76,68.684 C330.816,68.7320002 330.844,68.7759998 330.844,68.816 C330.82,68.9360006 330.696001,69.0039999 330.472,69.02 L327.484,69.02 L327.484,70.724 C327.484,71.0840018 327.5,72.4479882 327.532,74.816 C327.54,75.0000009 327.460001,75.1039999 327.292,75.128 C326.811998,75.2160004 326.324002,75.256 325.828,75.248 C325.876,73.1759896 325.9,71.8280031 325.9,71.204 L325.9,69.02 L323.224,69.02 L323.224,68.732 L325.9,68.732 L325.9,67.004 C325.892,66.1239956 325.868,65.2920039 325.828,64.508 Z M322.228,72.26 L324.196,71.276 L324.232,71.312 C323.351996,72.4080055 322.480004,73.3479961 321.616,74.132 L321.34,74.708 L320.188,73.124 C320.572002,72.8999989 320.756,72.604 320.74,72.236 L320.74,68.708 L319.252,68.708 L319.252,68.42 L320.476,68.42 L320.956,67.604 L322.756,68.48 L322.228,69.02 L322.228,72.26 Z M320.344,64.532 L320.368,64.484 C321.928008,64.7560014 322.688,65.2519964 322.648,65.972 C322.584,66.5560029 322.264003,66.8799997 321.688,66.944 C321.327998,66.944 321.104,66.7520019 321.016,66.368 C320.855999,65.6159962 320.632001,65.0040024 320.344,64.532 Z M335.308,65.948 L335.284,65.876 C336.996009,65.4919981 338.255996,65.1440016 339.064,64.832 C339.616003,64.631999 340.115998,64.4120012 340.564,64.172 L342.028,65.516 L341.32,65.516 C340.735997,65.6040004 340.100003,65.6839996 339.412,65.756 L339.412,67.976 L340.54,67.976 L341.296,66.968 L342.568,67.928 C342.616,67.9600002 342.64,68.0079997 342.64,68.072 C342.608,68.1840006 342.484001,68.2479999 342.268,68.264 L339.412,68.264 L339.412,70.34 L339.976,70.34 L340.408,69.548 L342.124,70.412 L341.656,70.904 L341.656,72.308 C341.656,72.8520027 341.672,73.623995 341.704,74.624 C341.728,74.8480011 341.636001,74.9759998 341.428,75.008 C341.091998,75.0800004 340.680002,75.1239999 340.192,75.14 L340.192,74 L337.228,74 L337.228,74.624 C337.236,74.8720012 337.124001,75.0159998 336.892,75.056 C336.475998,75.1360004 336.092002,75.176 335.74,75.176 C335.772,74.0159942 335.788,73.1960024 335.788,72.716 L335.788,72.152 C335.115997,72.960004 334.424004,73.6919967 333.712,74.348 L333.484,74.96 L332.344,73.448 C332.696002,73.255999 332.864,72.9760018 332.848,72.608 L332.848,68.948 L331.384,68.948 L331.384,68.66 L332.656,68.66 L333.112,67.832 L334.72,68.648 L334.264,69.128 L334.264,72.584 L335.788,71.936 L335.788,71.744 C335.788,70.9199959 335.78,70.312002 335.764,69.92 L337.336,70.34 L337.924,70.34 L337.924,68.264 L335.068,68.264 L335.068,67.976 L337.924,67.976 L337.924,65.876 C336.907995,65.9320003 336.036004,65.956 335.308,65.948 Z M340.192,70.628 L337.228,70.628 L337.228,73.712 L340.192,73.712 L340.192,70.628 Z M332.392,64.484 L332.428,64.448 C333.956008,64.7040013 334.712,65.1919964 334.696,65.912 C334.6,66.4880029 334.260003,66.8159996 333.676,66.896 C333.387999,66.896 333.208,66.7280017 333.136,66.392 C332.991999,65.7199966 332.744002,65.084003 332.392,64.484 Z" id="夜猫设计话" fill="#A8B2BA" fill-rule="nonzero" opacity="0.400000006"></path>
        </g>
    </g>
</svg>