<?xml version="1.0" encoding="UTF-8"?>
<svg width="1200px" height="200px" viewBox="0 0 1200 200" version="1.1" xmlns="http://www.w3.org/2000/svg" xmlns:xlink="http://www.w3.org/1999/xlink">
    <!-- Generator: Sketch 58 (84663) - https://sketch.com -->
    <title>PC端banner模板备份 8</title>
    <desc>Created with Sketch.</desc>
    <defs>
        <linearGradient x1="50%" y1="0%" x2="50%" y2="100%" id="linearGradient-1">
            <stop stop-color="#FFE639" stop-opacity="0.979785839" offset="0%"></stop>
            <stop stop-color="#FFA23A" offset="100%"></stop>
        </linearGradient>
        <linearGradient x1="50%" y1="100%" x2="50%" y2="3.061617e-15%" id="linearGradient-2">
            <stop stop-color="#671AB9" offset="0%"></stop>
            <stop stop-color="#FF0086" offset="100%"></stop>
        </linearGradient>
        <linearGradient x1="50%" y1="0%" x2="50%" y2="100%" id="linearGradient-3">
            <stop stop-color="#C96C7C" offset="0%"></stop>
            <stop stop-color="#983A46" offset="100%"></stop>
        </linearGradient>
        <linearGradient x1="53.0952403%" y1="0%" x2="47.6440893%" y2="100%" id="linearGradient-4">
            <stop stop-color="#C96C7C" offset="0%"></stop>
            <stop stop-color="#983A46" offset="100%"></stop>
        </linearGradient>
        <linearGradient x1="67.2746343%" y1="0%" x2="30.8383968%" y2="119.445406%" id="linearGradient-5">
            <stop stop-color="#C96C7C" offset="0%"></stop>
            <stop stop-color="#983A46" offset="100%"></stop>
        </linearGradient>
        <linearGradient x1="77.6985467%" y1="-5.45690322%" x2="30.161883%" y2="100%" id="linearGradient-6">
            <stop stop-color="#C96C7C" offset="0%"></stop>
            <stop stop-color="#983A46" offset="100%"></stop>
        </linearGradient>
        <linearGradient x1="100%" y1="12.3257454%" x2="14.9478903%" y2="87.6742546%" id="linearGradient-7">
            <stop stop-color="#C96C7C" offset="0%"></stop>
            <stop stop-color="#983A46" offset="100%"></stop>
        </linearGradient>
    </defs>
    <g id="PC端banner模板备份-8" stroke="none" stroke-width="1" fill="none" fill-rule="evenodd">
        <rect fill="#000000" x="0" y="0" width="1200" height="200"></rect>
        <path d="M350.640625,104.421875 C350.671875,108.890625 354.34375,111.625 360.328125,111.625 C366.484375,111.625 370.171875,108.71875 370.171875,103.84375 C370.171875,100.1875 368.140625,98.109375 363.75,97.34375 L360.671875,96.8125 C358.515625,96.4375 357.59375,95.8125 357.59375,94.734375 C357.59375,93.484375 358.71875,92.703125 360.4375,92.703125 C362.203125,92.703125 363.59375,93.734375 363.640625,95.09375 L369.703125,95.09375 C369.65625,90.765625 365.859375,87.828125 360.296875,87.828125 C354.65625,87.828125 351.015625,90.796875 351.015625,95.390625 C351.015625,99.03125 353.265625,101.40625 357.40625,102.125 L360.390625,102.65625 C362.8125,103.09375 363.65625,103.59375 363.65625,104.640625 C363.65625,105.90625 362.421875,106.734375 360.5625,106.734375 C358.4375,106.734375 357,105.828125 356.921875,104.421875 L350.640625,104.421875 Z M386.109375,111 L386.109375,93.703125 L392.375,93.703125 L392.375,88.453125 L373.21875,88.453125 L373.21875,93.703125 L379.484375,93.703125 L379.484375,111 L386.109375,111 Z M408.5,111 L415.75,111 L408.40625,88.453125 L400.09375,88.453125 L392.75,111 L399.28125,111 L400.484375,106.515625 L407.34375,106.515625 L408.5,111 Z M403.8125,93.984375 L404.125,93.984375 L406.1875,101.84375 L401.671875,101.84375 L403.8125,93.984375 Z M429.578125,111 L429.578125,103.859375 L437.28125,88.453125 L430.265625,88.453125 L426.4375,97.40625 L426.125,97.40625 L422.265625,88.453125 L415.25,88.453125 L422.953125,103.859375 L422.953125,111 L429.578125,111 Z M469.6875,111 L469.6875,88.453125 L463.0625,88.453125 L463.0625,97.015625 L455.125,97.015625 L455.125,88.453125 L448.5,88.453125 L448.5,111 L455.125,111 L455.125,102.265625 L463.0625,102.265625 L463.0625,111 L469.6875,111 Z M481.5,88.453125 L474.875,88.453125 L474.875,103.203125 C474.875,108.34375 478.875,111.625 484.8125,111.625 C490.765625,111.625 494.75,108.34375 494.75,103.203125 L494.75,88.453125 L488.125,88.453125 L488.125,102.46875 C488.125,104.84375 486.953125,106.125 484.8125,106.125 C482.6875,106.125 481.5,104.84375 481.5,102.46875 L481.5,88.453125 Z M506.1875,111 L506.1875,99.640625 L506.5,99.640625 L515.0625,111 L520.15625,111 L520.15625,88.453125 L513.90625,88.453125 L513.90625,99.640625 L513.59375,99.640625 L505.078125,88.453125 L499.9375,88.453125 L499.9375,111 L506.1875,111 Z M546.046875,101.40625 L546.046875,98.4375 L536.234375,98.4375 L536.234375,102.84375 L539.671875,102.84375 L539.640625,103.15625 C539.453125,104.96875 537.921875,106.171875 535.765625,106.171875 C532.859375,106.171875 530.96875,103.71875 530.96875,99.609375 C530.96875,95.59375 532.59375,93.28125 535.40625,93.28125 C537.3125,93.28125 538.828125,94.359375 539.265625,96.015625 L545.78125,96.015625 C545.28125,91.15625 541.0625,87.828125 535.40625,87.828125 C528.453125,87.828125 524.21875,92.3125 524.21875,99.703125 C524.21875,107.1875 528.453125,111.625 535.609375,111.625 C542.15625,111.625 546.046875,107.8125 546.046875,101.40625 Z M556.734375,103.4375 L558.90625,103.4375 L562.46875,111 L569.875,111 L565.59375,102.453125 C567.953125,101.328125 569.234375,98.765625 569.234375,96.109375 C569.234375,91.28125 565.984375,88.453125 560.4375,88.453125 L550.109375,88.453125 L550.109375,111 L556.734375,111 L556.734375,103.4375 Z M556.734375,93.34375 L559.484375,93.34375 C561.265625,93.34375 562.46875,94.46875 562.46875,96.140625 C562.46875,97.84375 561.328125,98.90625 559.46875,98.90625 L556.734375,98.90625 L556.734375,93.34375 Z M585.75,111 L585.75,103.859375 L593.453125,88.453125 L586.4375,88.453125 L582.609375,97.40625 L582.296875,97.40625 L578.4375,88.453125 L571.421875,88.453125 L579.125,103.859375 L579.125,111 L585.75,111 Z M603.71875,104.421875 C603.75,108.890625 607.421875,111.625 613.40625,111.625 C619.5625,111.625 623.25,108.71875 623.25,103.84375 C623.25,100.1875 621.21875,98.109375 616.828125,97.34375 L613.75,96.8125 C611.59375,96.4375 610.671875,95.8125 610.671875,94.734375 C610.671875,93.484375 611.796875,92.703125 613.515625,92.703125 C615.28125,92.703125 616.671875,93.734375 616.71875,95.09375 L622.78125,95.09375 C622.734375,90.765625 618.9375,87.828125 613.375,87.828125 C607.734375,87.828125 604.09375,90.796875 604.09375,95.390625 C604.09375,99.03125 606.34375,101.40625 610.484375,102.125 L613.46875,102.65625 C615.890625,103.09375 616.734375,103.59375 616.734375,104.640625 C616.734375,105.90625 615.5,106.734375 613.640625,106.734375 C611.515625,106.734375 610.078125,105.828125 610,104.421875 L603.71875,104.421875 Z M639.1875,111 L639.1875,93.703125 L645.453125,93.703125 L645.453125,88.453125 L626.296875,88.453125 L626.296875,93.703125 L632.5625,93.703125 L632.5625,111 L639.1875,111 Z M661.578125,111 L668.828125,111 L661.484375,88.453125 L653.171875,88.453125 L645.828125,111 L652.359375,111 L653.5625,106.515625 L660.421875,106.515625 L661.578125,111 Z M656.890625,93.984375 L657.203125,93.984375 L659.265625,101.84375 L654.75,101.84375 L656.890625,93.984375 Z M682.65625,111 L682.65625,103.859375 L690.359375,88.453125 L683.34375,88.453125 L679.515625,97.40625 L679.203125,97.40625 L675.34375,88.453125 L668.328125,88.453125 L676.03125,103.859375 L676.03125,111 L682.65625,111 Z M708.203125,111 L708.203125,103.015625 L716.546875,103.015625 L716.546875,98.046875 L708.203125,98.046875 L708.203125,93.703125 L717.421875,93.703125 L717.421875,88.453125 L701.578125,88.453125 L701.578125,111 L708.203125,111 Z M731.734375,87.828125 C724.84375,87.828125 720.375,92.359375 720.375,99.71875 C720.375,107.109375 724.8125,111.625 731.734375,111.625 C738.625,111.625 743.078125,107.109375 743.078125,99.71875 C743.078125,92.359375 738.625,87.828125 731.734375,87.828125 Z M731.734375,93.234375 C734.453125,93.234375 736.328125,95.765625 736.328125,99.71875 C736.328125,103.6875 734.453125,106.21875 731.734375,106.21875 C729,106.21875 727.125,103.6875 727.125,99.71875 C727.125,95.765625 729,93.234375 731.734375,93.234375 Z M757.375,87.828125 C750.484375,87.828125 746.015625,92.359375 746.015625,99.71875 C746.015625,107.109375 750.453125,111.625 757.375,111.625 C764.265625,111.625 768.71875,107.109375 768.71875,99.71875 C768.71875,92.359375 764.265625,87.828125 757.375,87.828125 Z M757.375,93.234375 C760.09375,93.234375 761.96875,95.765625 761.96875,99.71875 C761.96875,103.6875 760.09375,106.21875 757.375,106.21875 C754.640625,106.21875 752.765625,103.6875 752.765625,99.71875 C752.765625,95.765625 754.640625,93.234375 757.375,93.234375 Z M788.59375,105.59375 L779.40625,105.59375 L779.40625,88.453125 L772.78125,88.453125 L772.78125,111 L788.59375,111 L788.59375,105.59375 Z M799.296875,111 L799.296875,88.453125 L792.671875,88.453125 L792.671875,111 L799.296875,111 Z M803.53125,104.421875 C803.5625,108.890625 807.234375,111.625 813.21875,111.625 C819.375,111.625 823.0625,108.71875 823.0625,103.84375 C823.0625,100.1875 821.03125,98.109375 816.640625,97.34375 L813.5625,96.8125 C811.40625,96.4375 810.484375,95.8125 810.484375,94.734375 C810.484375,93.484375 811.609375,92.703125 813.328125,92.703125 C815.09375,92.703125 816.484375,93.734375 816.53125,95.09375 L822.59375,95.09375 C822.546875,90.765625 818.75,87.828125 813.1875,87.828125 C807.546875,87.828125 803.90625,90.796875 803.90625,95.390625 C803.90625,99.03125 806.15625,101.40625 810.296875,102.125 L813.28125,102.65625 C815.703125,103.09375 816.546875,103.59375 816.546875,104.640625 C816.546875,105.90625 815.3125,106.734375 813.453125,106.734375 C811.328125,106.734375 809.890625,105.828125 809.8125,104.421875 L803.53125,104.421875 Z M848.484375,111 L841.859375,111 L841.859375,102.265625 L833.921875,102.265625 L833.921875,111 L827.296875,111 L827.296875,88.453125 L833.921875,88.453125 L833.921875,97.015625 L841.859375,97.015625 L841.859375,88.453125 L848.484375,88.453125 L848.484375,111 Z" id="STAYHUNGRYSTAYFOOLISH" fill="#121212" fill-rule="nonzero"></path>
        <g id="编组-2" transform="translate(538.000000, 58.000000)">
            <g id="编组-3">
                <rect id="矩形" fill="url(#linearGradient-1)" opacity="0.600000024" x="0" y="0" width="123.9" height="123.9" rx="61.95"></rect>
                <rect id="矩形" fill="url(#linearGradient-2)" opacity="0.649999976" x="0" y="0" width="36" height="36" rx="18"></rect>
            </g>
            <g id="编组" opacity="0.5" transform="translate(22.600000, 103.300000)">
                <path d="M0.606439178,19.7951633 C2.79592119,22.9197763 4.42937759,26.4983745 5.50680839,30.5309579 C6.53634935,34.3843002 7.49440696,40.4786122 8.38098121,48.8138939 C8.57570142,50.6446238 7.24945674,52.2865781 5.41872723,52.4813019 C5.30161385,52.4937585 5.18392261,52.5 5.06614862,52.5 L3.52248031,52.5 C1.68984227,52.5 0.200880682,51.0206443 0.189019416,49.1880447 L3.01529727e-05,19.9886617 C-0.00123735226,19.8045185 0.147074466,19.6542743 0.331218213,19.6530824 C0.440724024,19.6523737 0.543597014,19.7054811 0.606439178,19.7951633 Z" id="矩形" fill="url(#linearGradient-3)"></path>
                <path d="M13.8867911,17.7009445 C14.420806,17.6479613 15.2749857,19.8242169 16.4493301,24.2297115 C17.5248442,28.2644484 16.4351147,36.0273348 13.1801418,47.5183706 C12.6783931,49.2897464 10.8356538,50.3189684 9.06428185,49.8172062 C9.04357054,49.8113394 9.02291654,49.8052722 9.00232276,49.7990054 L8.5615928,49.6648884 C6.83803364,49.1403979 5.84305303,47.3413925 6.31489872,45.6026838 L13.8867911,17.7009445 L13.8867911,17.7009445 Z" id="矩形" fill="url(#linearGradient-4)"></path>
                <path d="M64.4,3.75 C63.2990983,9.29416534 61.9767806,14.178236 60.4330468,18.402212 C58.9457049,22.4718881 54.7201899,30.0755496 47.7565018,41.2131964 C47.2472197,42.0277268 46.4113076,42.5829611 45.4630296,42.7365737 L43.6938928,43.0231581 C42.5683017,43.2054939 41.5080176,42.4408344 41.3256818,41.3152433 C41.2751152,41.0030867 41.2969286,40.683486 41.3894855,40.3811088 C43.2180142,34.4041698 45.0723917,28.8966459 46.952618,23.8585372 C49.1607523,17.9417914 54.9765463,11.2389456 64.4,3.75 Z" id="矩形-copy" fill="url(#linearGradient-5)"></path>
                <path d="M109.4,24.45 C108.755105,25.7528852 107.102994,28.482027 104.443669,32.6374254 C101.893938,36.6215759 97.6396521,44.1720033 91.6808127,55.2887075 C91.1898356,56.2046883 90.2997423,56.83927 89.2737428,57.0048119 L87.629702,57.2700729 C86.3703114,57.4732718 85.1846482,56.6170592 84.9814493,55.3576685 C84.9286094,55.0301759 84.9469301,54.6951438 85.0352151,54.3753794 C86.3825321,49.4924738 89.3952323,44.2444839 94.0733157,38.6314097 C99.8642776,31.6830302 104.973172,26.9558937 109.4,24.45 Z" id="矩形-copy-3" fill="url(#linearGradient-6)"></path>
                <path d="M108.35,7.28306304e-13 C101.244145,9.78585865 95.4818771,17.1858586 91.0631965,22.2 C86.7617691,27.0810871 78.9765068,34.2230914 67.7074097,43.626013 C67.1080871,44.126092 66.3522816,44.4 65.5717263,44.4 L60.5299847,44.4 C58.691914,44.4 57.2018633,42.9099493 57.2018633,41.0718785 C57.2018633,40.3875032 57.4128457,39.7197667 57.8060049,39.1595922 C62.6079047,32.319467 67.5388942,26.5070257 72.5989733,21.7222683 C78.9051686,15.7591966 90.8221775,8.51844051 108.35,7.28306304e-13 Z" id="矩形-copy-2" fill="url(#linearGradient-7)"></path>
            </g>
        </g>
    </g>
</svg>