<?xml version="1.0" encoding="UTF-8"?>
<svg width="1200px" height="200px" viewBox="0 0 1200 200" version="1.1" xmlns="http://www.w3.org/2000/svg" xmlns:xlink="http://www.w3.org/1999/xlink">
    <!-- Generator: Sketch 56.3 (81716) - https://sketch.com -->
    <title>PC端banner模板备份</title>
    <desc>Created with Sketch.</desc>
    <g id="PC端banner模板备份" stroke="none" stroke-width="1" fill="none" fill-rule="evenodd">
        <rect fill="#000000" x="0" y="0" width="1200" height="200"></rect>
        <g id="编组-2" transform="translate(404.000000, 65.000000)">
            <g id="编组">
                <polygon id="矩形" fill="#FF3040" opacity="0.5" points="13.4589041 32.1241156 393 32.1241156 379.541096 44.1241156 0 44.1241156"></polygon>
                <g id="编组-3" transform="translate(13.000000, 0.000000)" fill-rule="nonzero">
                    <path d="M5.27615385,0.952087912 C7.81505495,2.85626374 9.95725275,4.76043956 11.7027473,6.66461538 L8.88615385,9.52087912 C7.33901099,7.69604396 5.19681319,5.71252747 2.45956044,3.64967033 L5.27615385,0.952087912 Z M-3.69482223e-13,12.2184615 L9.16384615,12.2184615 L9.16384615,28.6816484 C10.3142857,27.6502198 11.5440659,26.5394505 12.8531868,25.3096703 L14.0036264,29.6734066 C11.3853846,32.0536264 8.60846154,34.1561538 5.67285714,36.0603297 L4.08604396,32.3313187 C4.76043956,31.7362637 5.11747253,30.9825275 5.11747253,30.1097802 L5.11747253,16.1854945 L-3.69482223e-13,16.1854945 L-3.69482223e-13,12.2184615 Z M14.201978,16.9789011 L33.5610989,16.9789011 L33.5610989,20.7475824 C32.4503297,24.1592308 30.6254945,27.1345055 28.0865934,29.6337363 C30.5461538,31.2205495 33.5214286,32.609011 37.0520879,33.8387912 L34.8305495,37.4091209 C30.9428571,35.8223077 27.6502198,34.0768132 25.031978,32.132967 C21.9376923,34.3148352 18.169011,36.0603297 13.6465934,37.3694505 L11.3457143,33.8784615 C15.4317582,32.6883516 18.8830769,31.1808791 21.7393407,29.356044 C19.2004396,26.8171429 17.4152747,24.0402198 16.4631868,20.9459341 L14.201978,20.9459341 L14.201978,16.9789011 Z M20.3508791,20.9459341 C21.2236264,23.2071429 22.6517582,25.27 24.7146154,27.0948352 C26.7378022,25.27 28.2849451,23.2468132 29.3957143,20.9459341 L20.3508791,20.9459341 Z M16.8995604,1.62648352 L31.1808791,1.62648352 L31.1808791,9.83824176 C31.1808791,10.710989 31.6569231,11.187033 32.6486813,11.187033 L36.0603297,11.187033 L36.0603297,14.9557143 L31.5379121,14.9557143 C28.5626374,14.9557143 27.0948352,13.5672527 27.0948352,10.7903297 L27.0948352,5.51417582 L20.9856044,5.51417582 L20.9856044,6.58527473 C20.9856044,10.710989 18.8434066,13.9242857 14.6383516,16.1458242 L11.8614286,12.9721978 C15.1937363,11.5837363 16.8995604,9.60021978 16.8995604,7.02164835 L16.8995604,1.62648352 Z M52.1664835,11.8614286 L62.4014286,11.8614286 L62.4014286,0.357032967 L66.6858242,0.357032967 L66.6858242,11.8614286 L76.4050549,11.8614286 L76.4050549,15.9871429 L66.6858242,15.9871429 L66.6858242,37.2504396 L62.4014286,37.2504396 L62.4014286,15.9871429 L52.1664835,15.9871429 L52.1664835,11.8614286 Z M45.1845055,0.674395604 C47.6837363,2.61824176 49.8259341,4.56208791 51.6110989,6.46626374 L48.7548352,9.3621978 C47.2473626,7.53736264 45.0654945,5.59351648 42.2489011,3.53065934 L45.1845055,0.674395604 Z M39.6703297,12.1391209 L49.1118681,12.1391209 L49.1118681,28.7213187 C50.2623077,27.7295604 51.4920879,26.6187912 52.8012088,25.389011 L53.8723077,29.6337363 C51.2937363,32.013956 48.5564835,34.1561538 45.6208791,36.0603297 L44.0340659,32.3313187 C44.7481319,31.7362637 45.1051648,31.0221978 45.1051648,30.1891209 L45.1051648,16.1061538 L39.6703297,16.1061538 L39.6703297,12.1391209 Z M89.4169231,10.8696703 L105.523077,10.8696703 L105.523077,30.3081319 L89.4169231,30.3081319 L89.4169231,10.8696703 Z M101.675055,26.6584615 L101.675055,22.3740659 L93.3046154,22.3740659 L93.3046154,26.6584615 L101.675055,26.6584615 Z M93.3046154,18.8037363 L101.675055,18.8037363 L101.675055,14.5193407 L93.3046154,14.5193407 L93.3046154,18.8037363 Z M109.371099,36.8140659 L106.197473,36.8140659 L105.086703,32.9263736 L108.538022,33.0453846 C109.52978,33.0453846 110.045495,32.3313187 110.045495,30.9428571 L110.045495,5.87120879 L95.2881319,5.87120879 L95.2881319,2.06285714 L114.091868,2.06285714 L114.091868,32.0932967 C114.091868,35.2272527 112.505055,36.8140659 109.371099,36.8140659 Z M81.0861538,7.02164835 L85.1325275,7.02164835 L85.1325275,37.1710989 L81.0861538,37.1710989 L81.0861538,7.02164835 Z M88.1078022,-5.40012479e-13 C89.9326374,2.1421978 91.5194505,4.48274725 92.9079121,7.06131868 L89.1789011,9.00516484 C87.7110989,6.22824176 86.0846154,3.80835165 84.3391209,1.70582418 L88.1078022,-5.40012479e-13 Z M120.637473,1.70582418 L133.887363,1.70582418 L133.887363,15.1937363 L130.118681,15.1937363 L130.118681,20.3508791 L134.085714,20.3508791 L134.085714,24.2385714 L130.118681,24.2385714 L130.118681,30.0304396 C131.784835,29.5543956 133.331978,29.118022 134.839451,28.641978 L134.839451,32.7676923 C130.515385,34.1164835 125.556593,35.3859341 119.923407,36.576044 L118.733297,32.609011 L120.518462,32.251978 L120.518462,18.5657143 L124.168132,18.5657143 L124.168132,31.4982418 L126.270659,31.0221978 L126.270659,15.1937363 L120.637473,15.1937363 L120.637473,1.70582418 Z M129.92033,11.3853846 L129.92033,5.51417582 L124.604505,5.51417582 L124.604505,11.3853846 L129.92033,11.3853846 Z M153.444835,25.4683516 L140.115604,25.4683516 L140.115604,31.8156044 L155.110989,31.8156044 L155.110989,35.7826374 L136.108901,35.7826374 L136.108901,1.66615385 L154.476264,1.66615385 L154.476264,5.63318681 L140.115604,5.63318681 L140.115604,10.9886813 L153.444835,10.9886813 L153.444835,25.4683516 Z M140.115604,14.7573626 L140.115604,21.66 L149.517473,21.66 L149.517473,14.7573626 L140.115604,14.7573626 Z M175.818901,6.02989011 L179.825604,6.02989011 L177.167692,12.6548352 L185.062088,12.6548352 L185.062088,16.3838462 L175.66022,16.3838462 L173.756044,21.1442857 L185.062088,21.1442857 L185.062088,24.8732967 L172.248571,24.8732967 L169.550989,31.5775824 L165.544286,31.5775824 L168.241868,24.8732967 L160.307802,24.8732967 L160.307802,21.1442857 L169.749341,21.1442857 L171.653516,16.3838462 L160.307802,16.3838462 L160.307802,12.6548352 L173.160989,12.6548352 L175.818901,6.02989011 Z M192.401099,2.41989011 L223.82,2.41989011 L223.82,6.42659341 L217.591758,6.42659341 L217.591758,15.5507692 L225.803516,15.5507692 L225.803516,19.5574725 L217.591758,19.5574725 L217.591758,36.576044 L213.426374,36.576044 L213.426374,19.5574725 L203.151758,19.5574725 C202.755055,23.4451648 201.961648,26.7378022 200.811209,29.3957143 C199.264066,32.728022 196.725165,35.3065934 193.194505,37.0917582 L190.933297,33.5610989 C194.146593,31.6965934 196.288791,29.356044 197.39956,26.5791209 C198.113626,24.5956044 198.629341,22.2550549 198.946703,19.5574725 L190.377912,19.5574725 L190.377912,15.5507692 L199.224396,15.5507692 C199.224396,15.3127473 199.264066,15.1143956 199.264066,14.8763736 L199.264066,6.42659341 L192.401099,6.42659341 L192.401099,2.41989011 Z M203.469121,6.42659341 L203.469121,14.8763736 C203.469121,15.1143956 203.429451,15.3127473 203.429451,15.5507692 L213.426374,15.5507692 L213.426374,6.42659341 L203.469121,6.42659341 Z M231.754066,13.3689011 L234.927692,1.58681319 L239.053407,2.26120879 L237.06989,9.44153846 L242.544396,9.44153846 C243.258462,6.5456044 243.853516,3.49098901 244.28989,0.317362637 L248.534615,0.833076923 C248.058571,3.88769231 247.503187,6.74395604 246.828791,9.44153846 L264.878791,9.44153846 L264.878791,13.3689011 L245.797363,13.3689011 C245.400659,14.559011 245.043626,15.6697802 244.686593,16.7805495 L260.396044,16.7805495 L260.396044,20.2715385 C259.443956,23.3658242 257.53978,26.2220879 254.723187,28.8403297 C257.698462,30.4668132 261.229121,31.9346154 265.315165,33.2834066 L263.172967,37.2107692 C258.452198,35.4652747 254.485165,33.6007692 251.271868,31.5775824 C248.177582,33.7197802 244.408901,35.6636264 239.965824,37.4091209 L237.783956,33.5214286 C241.631978,32.132967 244.924615,30.6254945 247.622198,28.999011 C245.202308,27.0154945 243.377473,24.9526374 242.108022,22.7707692 C239.291429,28.4832967 235.760769,33.0850549 231.516044,36.5363736 L229.334176,32.6883516 C234.68967,27.9279121 238.696374,21.5013187 241.393956,13.3689011 L231.754066,13.3689011 Z M245.122967,20.5095604 C246.432088,22.6914286 248.415604,24.7146154 251.073516,26.6187912 C253.414066,24.7146154 255.11989,22.6517582 256.190989,20.5095604 L245.122967,20.5095604 Z M255.199231,0.277692308 C257.896813,2.30087912 260.197692,4.32406593 262.022527,6.38692308 L259.086923,9.3621978 C257.53978,7.33901099 255.318242,5.19681319 252.382637,2.97527473 L255.199231,0.277692308 Z M279.19978,10.8696703 L295.305934,10.8696703 L295.305934,30.3081319 L279.19978,30.3081319 L279.19978,10.8696703 Z M291.457912,26.6584615 L291.457912,22.3740659 L283.087473,22.3740659 L283.087473,26.6584615 L291.457912,26.6584615 Z M283.087473,18.8037363 L291.457912,18.8037363 L291.457912,14.5193407 L283.087473,14.5193407 L283.087473,18.8037363 Z M299.153956,36.8140659 L295.98033,36.8140659 L294.86956,32.9263736 L298.320879,33.0453846 C299.312637,33.0453846 299.828352,32.3313187 299.828352,30.9428571 L299.828352,5.87120879 L285.070989,5.87120879 L285.070989,2.06285714 L303.874725,2.06285714 L303.874725,32.0932967 C303.874725,35.2272527 302.287912,36.8140659 299.153956,36.8140659 Z M270.869011,7.02164835 L274.915385,7.02164835 L274.915385,37.1710989 L270.869011,37.1710989 L270.869011,7.02164835 Z M277.890659,-5.40012479e-13 C279.715495,2.1421978 281.302308,4.48274725 282.690769,7.06131868 L278.961758,9.00516484 C277.493956,6.22824176 275.867473,3.80835165 274.121978,1.70582418 L277.890659,-5.40012479e-13 Z M310.42033,1.70582418 L323.67022,1.70582418 L323.67022,15.1937363 L319.901538,15.1937363 L319.901538,20.3508791 L323.868571,20.3508791 L323.868571,24.2385714 L319.901538,24.2385714 L319.901538,30.0304396 C321.567692,29.5543956 323.114835,29.118022 324.622308,28.641978 L324.622308,32.7676923 C320.298242,34.1164835 315.339451,35.3859341 309.706264,36.576044 L308.516154,32.609011 L310.301319,32.251978 L310.301319,18.5657143 L313.950989,18.5657143 L313.950989,31.4982418 L316.053516,31.0221978 L316.053516,15.1937363 L310.42033,15.1937363 L310.42033,1.70582418 Z M319.703187,11.3853846 L319.703187,5.51417582 L314.387363,5.51417582 L314.387363,11.3853846 L319.703187,11.3853846 Z M343.227692,25.4683516 L329.898462,25.4683516 L329.898462,31.8156044 L344.893846,31.8156044 L344.893846,35.7826374 L325.891758,35.7826374 L325.891758,1.66615385 L344.259121,1.66615385 L344.259121,5.63318681 L329.898462,5.63318681 L329.898462,10.9886813 L343.227692,10.9886813 L343.227692,25.4683516 Z M329.898462,14.7573626 L329.898462,21.66 L339.30033,21.66 L339.30033,14.7573626 L329.898462,14.7573626 Z" id="设计间距≠开发间距" fill="#A8B2BA"></path>
                    <path d="M370.481209,4.12571429 C373.05978,4.12571429 375.162308,4.80010989 376.749121,6.22824176 C378.335934,7.6167033 379.129341,9.52087912 379.129341,11.9407692 C379.129341,13.9242857 378.613626,15.5507692 377.661538,16.8202198 C377.304505,17.2169231 376.154066,18.288022 374.24989,19.9541758 C373.535824,20.5492308 373.02011,21.2236264 372.663077,21.9376923 C372.266374,22.7310989 372.068022,23.5641758 372.068022,24.5162637 L372.068022,25.0716484 L367.505934,25.0716484 L367.505934,24.5162637 C367.505934,23.0087912 367.743956,21.6996703 368.299341,20.6285714 C368.815055,19.5574725 370.362198,17.8913187 372.940769,15.5904396 L373.416813,15.0350549 C374.130879,14.1623077 374.487912,13.2102198 374.487912,12.2184615 C374.487912,10.9093407 374.091209,9.87791209 373.377143,9.12417582 C372.623407,8.37043956 371.552308,8.01340659 370.203516,8.01340659 C368.458022,8.01340659 367.228242,8.52912088 366.474505,9.63989011 C365.80011,10.5523077 365.482747,11.8614286 365.482747,13.5275824 L360.96033,13.5275824 C360.96033,10.591978 361.793407,8.2910989 363.538901,6.62494505 C365.244725,4.95879121 367.545604,4.12571429 370.481209,4.12571429 Z M369.767143,27.0154945 C370.63989,27.0154945 371.393626,27.2931868 371.988681,27.8485714 C372.544066,28.403956 372.861429,29.118022 372.861429,29.9907692 C372.861429,30.8635165 372.544066,31.6172527 371.949011,32.1726374 C371.353956,32.728022 370.63989,33.0057143 369.767143,33.0057143 C368.894396,33.0057143 368.18033,32.6883516 367.585275,32.132967 C366.99022,31.5775824 366.712527,30.8635165 366.712527,29.9907692 C366.712527,29.118022 366.99022,28.403956 367.585275,27.8485714 C368.18033,27.2931868 368.894396,27.0154945 369.767143,27.0154945 Z" id="？" fill="#FF3040"></path>
                </g>
            </g>
            <path d="M16.96,66 L16.96,57.6 L19.72,57.6 C20.3920034,57.6 20.9859974,57.7179988 21.502,57.954 C22.0180026,58.1900012 22.4519982,58.503998 22.804,58.896 C23.1560018,59.288002 23.4219991,59.7359975 23.602,60.24 C23.7820009,60.7440025 23.872,61.2639973 23.872,61.8 C23.872,62.3360027 23.7820009,62.8559975 23.602,63.36 C23.4219991,63.8640025 23.1560018,64.311998 22.804,64.704 C22.4519982,65.096002 22.0180026,65.4099988 21.502,65.646 C20.9859974,65.8820012 20.3920034,66 19.72,66 L16.96,66 Z M19.672,64.5 C20.0160017,64.5 20.3379985,64.4300007 20.638,64.29 C20.9380015,64.1499993 21.2019989,63.9600012 21.43,63.72 C21.6580011,63.4799988 21.8379993,63.1960016 21.97,62.868 C22.1020007,62.5399984 22.168,62.1840019 22.168,61.8 C22.168,61.4159981 22.1020007,61.0600016 21.97,60.732 C21.8379993,60.4039984 21.6580011,60.1200012 21.43,59.88 C21.2019989,59.6399988 20.9380015,59.4500007 20.638,59.31 C20.3379985,59.1699993 20.0160017,59.1 19.672,59.1 L18.664,59.1 L18.664,64.5 L19.672,64.5 Z M29.896,66 L29.896,65.376 C29.5839984,65.6560014 29.2540017,65.8539994 28.906,65.97 C28.5579983,66.0860006 28.1920019,66.144 27.808,66.144 C27.3759978,66.144 26.9740019,66.0660008 26.602,65.91 C26.2299981,65.7539992 25.9100013,65.5320014 25.642,65.244 C25.3739987,64.9559986 25.1620008,64.612002 25.006,64.212 C24.8499992,63.811998 24.772,63.3680024 24.772,62.88 C24.772,62.3919976 24.8499992,61.948002 25.006,61.548 C25.1620008,61.147998 25.3739987,60.8040014 25.642,60.516 C25.9100013,60.2279986 26.2299981,60.0060008 26.602,59.85 C26.9740019,59.6939992 27.3759978,59.616 27.808,59.616 C28.1840019,59.616 28.5459983,59.6719994 28.894,59.784 C29.2420017,59.8960006 29.5719984,60.0919986 29.884,60.372 L29.884,59.796 L31.468,59.796 L31.468,66 L29.896,66 Z M29.788,62.124 C29.5559988,61.7639982 29.2880015,61.5140007 28.984,61.374 C28.6799985,61.2339993 28.3960013,61.164 28.132,61.164 C27.9159989,61.164 27.710001,61.1999996 27.514,61.272 C27.317999,61.3440004 27.1440008,61.4499993 26.992,61.59 C26.8399992,61.7300007 26.7180005,61.9079989 26.626,62.124 C26.5339995,62.3400011 26.488,62.5919986 26.488,62.88 C26.488,63.1680014 26.5339995,63.4199989 26.626,63.636 C26.7180005,63.8520011 26.8399992,64.0299993 26.992,64.17 C27.1440008,64.3100007 27.317999,64.4159996 27.514,64.488 C27.710001,64.5600004 27.9159989,64.596 28.132,64.596 C28.3960013,64.596 28.6799985,64.5280007 28.984,64.392 C29.2880015,64.2559993 29.5559988,64.0080018 29.788,63.648 L29.788,62.124 Z M32.92,67.26 C33.0560007,67.3080002 33.1819994,67.3419999 33.298,67.362 C33.4140006,67.3820001 33.5239995,67.392 33.628,67.392 C33.9880018,67.392 34.2779989,67.2800011 34.498,67.056 C34.7180011,66.8319989 34.8999993,66.5400018 35.044,66.18 L35.188,65.82 L32.308,59.796 L34.252,59.796 L36.016,63.828 L37.552,59.796 L39.496,59.796 L36.52,66.6 C36.3519992,66.9840019 36.172001,67.3279985 35.98,67.632 C35.787999,67.9360015 35.5800011,68.1939989 35.356,68.406 C35.1319989,68.6180011 34.8840014,68.7779995 34.612,68.886 C34.3399986,68.9940005 34.0400016,69.048 33.712,69.048 C33.3519982,69.048 32.9440023,68.9760007 32.488,68.832 L32.92,67.26 Z M45.1,66 L45.1,65.376 C44.7879984,65.6560014 44.4580017,65.8539994 44.11,65.97 C43.7619983,66.0860006 43.3960019,66.144 43.012,66.144 C42.5799978,66.144 42.1780019,66.0660008 41.806,65.91 C41.4339981,65.7539992 41.1140013,65.5320014 40.846,65.244 C40.5779987,64.9559986 40.3660008,64.612002 40.21,64.212 C40.0539992,63.811998 39.976,63.3680024 39.976,62.88 C39.976,62.3919976 40.0539992,61.948002 40.21,61.548 C40.3660008,61.147998 40.5779987,60.8040014 40.846,60.516 C41.1140013,60.2279986 41.4339981,60.0060008 41.806,59.85 C42.1780019,59.6939992 42.5799978,59.616 43.012,59.616 C43.3720018,59.616 43.7159984,59.6659995 44.044,59.766 C44.3720016,59.8660005 44.6879985,60.0399988 44.992,60.288 L44.992,57.6 L46.672,57.6 L46.672,66 L45.1,66 Z M44.992,62.124 C44.7599988,61.7639982 44.4920015,61.5140007 44.188,61.374 C43.8839985,61.2339993 43.6000013,61.164 43.336,61.164 C43.1199989,61.164 42.914001,61.1999996 42.718,61.272 C42.521999,61.3440004 42.3500007,61.4499993 42.202,61.59 C42.0539993,61.7300007 41.9340005,61.9079989 41.842,62.124 C41.7499995,62.3400011 41.704,62.5919986 41.704,62.88 C41.704,63.1680014 41.7499995,63.4199989 41.842,63.636 C41.9340005,63.8520011 42.0539993,64.0299993 42.202,64.17 C42.3500007,64.3100007 42.521999,64.4159996 42.718,64.488 C42.914001,64.5600004 43.1199989,64.596 43.336,64.596 C43.6000013,64.596 43.8839985,64.5280007 44.188,64.392 C44.4920015,64.2559993 44.7599988,64.0080018 44.992,63.648 L44.992,62.124 Z M53.116,66 L53.116,65.376 C52.8039984,65.6560014 52.4740017,65.8539994 52.126,65.97 C51.7779983,66.0860006 51.4120019,66.144 51.028,66.144 C50.5959978,66.144 50.1940019,66.0660008 49.822,65.91 C49.4499981,65.7539992 49.1300013,65.5320014 48.862,65.244 C48.5939987,64.9559986 48.3820008,64.612002 48.226,64.212 C48.0699992,63.811998 47.992,63.3680024 47.992,62.88 C47.992,62.3919976 48.0699992,61.948002 48.226,61.548 C48.3820008,61.147998 48.5939987,60.8040014 48.862,60.516 C49.1300013,60.2279986 49.4499981,60.0060008 49.822,59.85 C50.1940019,59.6939992 50.5959978,59.616 51.028,59.616 C51.4040019,59.616 51.7659983,59.6719994 52.114,59.784 C52.4620017,59.8960006 52.7919984,60.0919986 53.104,60.372 L53.104,59.796 L54.688,59.796 L54.688,66 L53.116,66 Z M53.008,62.124 C52.7759988,61.7639982 52.5080015,61.5140007 52.204,61.374 C51.8999985,61.2339993 51.6160013,61.164 51.352,61.164 C51.1359989,61.164 50.930001,61.1999996 50.734,61.272 C50.537999,61.3440004 50.3640008,61.4499993 50.212,61.59 C50.0599992,61.7300007 49.9380005,61.9079989 49.846,62.124 C49.7539995,62.3400011 49.708,62.5919986 49.708,62.88 C49.708,63.1680014 49.7539995,63.4199989 49.846,63.636 C49.9380005,63.8520011 50.0599992,64.0299993 50.212,64.17 C50.3640008,64.3100007 50.537999,64.4159996 50.734,64.488 C50.930001,64.5600004 51.1359989,64.596 51.352,64.596 C51.6160013,64.596 51.8999985,64.5280007 52.204,64.392 C52.5080015,64.2559993 52.7759988,64.0080018 53.008,63.648 L53.008,62.124 Z M56.14,67.26 C56.2760007,67.3080002 56.4019994,67.3419999 56.518,67.362 C56.6340006,67.3820001 56.7439995,67.392 56.848,67.392 C57.2080018,67.392 57.4979989,67.2800011 57.718,67.056 C57.9380011,66.8319989 58.1199993,66.5400018 58.264,66.18 L58.408,65.82 L55.528,59.796 L57.472,59.796 L59.236,63.828 L60.772,59.796 L62.716,59.796 L59.74,66.6 C59.5719992,66.9840019 59.392001,67.3279985 59.2,67.632 C59.007999,67.9360015 58.8000011,68.1939989 58.576,68.406 C58.3519989,68.6180011 58.1040014,68.7779995 57.832,68.886 C57.5599986,68.9940005 57.2600016,69.048 56.932,69.048 C56.5719982,69.048 56.1640023,68.9760007 55.708,68.832 L56.14,67.26 Z M68.032,66 L68.032,65.46 C67.7599986,65.668001 67.4600016,65.8339994 67.132,65.958 C66.8039984,66.0820006 66.4480019,66.144 66.064,66.144 C65.271996,66.144 64.6360024,65.8960025 64.156,65.4 C63.6759976,64.9039975 63.436,64.1840047 63.436,63.24 L63.436,59.796 L65.116,59.796 L65.116,63.108 C65.116,63.3640013 65.1539996,63.5819991 65.23,63.762 C65.3060004,63.9420009 65.4059994,64.0919994 65.53,64.212 C65.6540006,64.3320006 65.7959992,64.4199997 65.956,64.476 C66.1160008,64.5320003 66.2799992,64.56 66.448,64.56 C66.7520015,64.56 67.0519985,64.4780008 67.348,64.314 C67.6440015,64.1499992 67.8719992,63.9120016 68.032,63.6 L68.032,59.796 L69.712,59.796 L69.712,66 L68.032,66 Z M71.392,68.82 L71.392,59.796 L72.964,59.796 L72.964,60.384 C73.2760016,60.1039986 73.6059983,59.9060006 73.954,59.79 C74.3020017,59.6739994 74.6679981,59.616 75.052,59.616 C75.4840022,59.616 75.8859981,59.6939992 76.258,59.85 C76.6300019,60.0060008 76.9499987,60.2279986 77.218,60.516 C77.4860013,60.8040014 77.6979992,61.147998 77.854,61.548 C78.0100008,61.948002 78.088,62.3919976 78.088,62.88 C78.088,63.3680024 78.0100008,63.811998 77.854,64.212 C77.6979992,64.612002 77.4860013,64.9559986 77.218,65.244 C76.9499987,65.5320014 76.6300019,65.7539992 76.258,65.91 C75.8859981,66.0660008 75.4840022,66.144 75.052,66.144 C74.6919982,66.144 74.3460017,66.0940005 74.014,65.994 C73.6819983,65.8939995 73.3680015,65.7200012 73.072,65.472 L73.072,68.82 L71.392,68.82 Z M73.072,63.648 C73.2960011,64.0080018 73.5599985,64.2559993 73.864,64.392 C74.1680015,64.5280007 74.4559986,64.596 74.728,64.596 C74.9440011,64.596 75.149999,64.5600004 75.346,64.488 C75.542001,64.4159996 75.7139993,64.3100007 75.862,64.17 C76.0100007,64.0299993 76.1299995,63.8520011 76.222,63.636 C76.3140005,63.4199989 76.36,63.1680014 76.36,62.88 C76.36,62.5919986 76.3140005,62.3400011 76.222,62.124 C76.1299995,61.9079989 76.0100007,61.7300007 75.862,61.59 C75.7139993,61.4499993 75.542001,61.3440004 75.346,61.272 C75.149999,61.1999996 74.9440011,61.164 74.728,61.164 C74.4559986,61.164 74.1680015,61.2339993 73.864,61.374 C73.5599985,61.5140007 73.2960011,61.7639982 73.072,62.124 L73.072,63.648 Z" id="Daydayup" fill="#A8B2BA" fill-rule="nonzero" opacity="0.400000006"></path>
            <path d="M323.852,63.756 L323.816,63.696 C324.888005,61.9199911 325.539999,60.1600087 325.772,58.416 L327.728,58.992 L327.164,59.34 C327.076,59.5960013 326.984,59.8159991 326.888,60 L328.868,60 L329.408,59.184 L331.244,60.18 L330.632,60.66 C330.095997,62.2920082 329.384004,63.5879952 328.496,64.548 C329.200004,64.8760016 330.279993,65.1159992 331.736,65.268 L331.712,65.34 C331.239998,65.6840017 330.880001,66.251996 330.632,67.044 C329.167993,66.5959978 328.108003,66.0800029 327.452,65.496 C326.491995,66.2160036 325.224008,66.8239975 323.648,67.32 L323.612,67.26 C324.908006,66.3879956 325.943996,65.5240043 326.72,64.668 C326.311998,64.1159972 325.924002,63.2800056 325.556,62.16 C325.147998,62.6400024 324.580004,63.1719971 323.852,63.756 Z M320.408,58.38 L320.408,58.092 L325.412,58.092 C325.219999,58.0359997 325.108,57.8840012 325.076,57.636 C324.98,57.0599971 324.844001,56.6560012 324.668,56.424 L324.716,56.364 C326.060007,56.3399999 326.74,56.6519968 326.756,57.3 C326.732,57.6840019 326.480002,57.9479993 326,58.092 L329.228,58.092 L330.068,56.964 L331.532,58.044 C331.588,58.0840002 331.616,58.1239998 331.616,58.164 C331.584,58.2920006 331.460001,58.3639999 331.244,58.38 L323.24,58.38 L324.896,59.088 L324.272,59.424 C323.911998,60.0400031 323.524002,60.5879976 323.108,61.068 L323.876,61.212 L323.42,61.632 L323.42,66.648 C323.428,66.9120013 323.304001,67.0639998 323.048,67.104 C322.631998,67.1680003 322.244002,67.196 321.884,67.188 C321.932,65.979994 321.956,64.7120066 321.956,63.384 L321.956,62.208 C321.475998,62.616002 320.940003,62.9999982 320.348,63.36 L320.324,63.288 C321.588006,61.6079916 322.443998,59.972008 322.892,58.38 L320.408,58.38 Z M329.06,60.288 L326.78,60.288 C326.708,60.4560008 326.612001,60.6319991 326.492,60.816 C327.596006,61.0720013 328.108,61.4399976 328.028,61.92 C327.972,62.3920024 327.704002,62.6559997 327.224,62.712 C326.943999,62.72 326.784,62.5600016 326.744,62.232 L326.708,61.98 C326.66,61.5639979 326.568001,61.2120014 326.432,60.924 C326.207999,61.316002 325.960001,61.6759984 325.688,62.004 C326.264003,62.8200041 326.827997,63.4399979 327.38,63.864 C328.164004,62.8079947 328.723998,61.6160066 329.06,60.288 Z M342.92,63.54 C342.92,63.9640021 342.932,64.7639941 342.956,65.94 C342.964,66.2680016 342.968,66.4919994 342.968,66.612 C342.984,66.8360011 342.900001,66.9599999 342.716,66.984 C342.419999,67.0560004 342.024002,67.1039999 341.528,67.128 L341.528,66.468 L337.832,66.468 L337.832,66.684 C337.864,66.9400013 337.768001,67.072 337.544,67.08 C337.119998,67.1520004 336.744002,67.184 336.416,67.176 C336.44,66.2799955 336.456,65.2400059 336.464,64.056 L336.464,62.616 C336.456,61.5119945 336.448,60.7760018 336.44,60.408 L338.144,60.804 L341.348,60.804 L341.792,60.036 L343.352,60.828 L342.92,61.356 L342.92,63.54 Z M332.384,60.468 L332.336,60.408 C332.880003,59.8319971 333.343998,59.2640028 333.728,58.704 C333.479999,58.1599973 333.104003,57.5760031 332.6,56.952 L332.648,56.892 C333.272003,57.3320022 333.759998,57.7399981 334.112,58.116 C334.448002,57.5479972 334.711999,56.960003 334.904,56.352 L336.596,57.264 L336.008,57.552 C335.623998,58.0880027 335.212002,58.555998 334.772,58.956 C335.484004,59.9720051 335.824,61.6919879 335.792,64.116 C335.808,66.0280096 335.052008,67.0519993 333.524,67.188 C333.524,66.4359962 333.136004,65.956001 332.36,65.748 L332.372,65.676 L333.512,65.748 C334.112003,65.7319999 334.424,65.124006 334.448,63.924 C334.448,63.4279975 334.44,62.976002 334.424,62.568 C333.895997,63.1360028 333.216004,63.6519977 332.384,64.116 L332.336,64.068 C333.176004,62.9479944 333.823998,61.8280056 334.28,60.708 C334.224,60.2679978 334.140001,59.8760017 334.028,59.532 C333.587998,59.8440016 333.040003,60.1559984 332.384,60.468 Z M335.936,58.5 L335.936,58.224 L337.7,58.224 L337.7,57.852 C337.7,57.2839972 337.692,56.800002 337.676,56.4 L339.428,56.7 L339.02,57.12 L339.02,58.224 L340.292,58.224 L340.292,57.648 C340.292,57.3839987 340.284,56.9720028 340.268,56.412 L342.02,56.712 L341.612,57.12 L341.612,58.224 L341.852,58.224 L342.464,57.336 L343.64,58.188 C343.688,58.2200002 343.712,58.2639997 343.712,58.32 C343.696,58.4320006 343.580001,58.492 343.364,58.5 L341.612,58.5 C341.628,58.892002 341.636,59.2719982 341.636,59.64 C341.636,59.7920008 341.560001,59.8879998 341.408,59.928 C341.127999,59.9920003 340.756002,60.0319999 340.292,60.048 L340.292,58.5 L339.02,58.5 L339.02,59.748 C339.02,59.9240009 338.932001,60.0319998 338.756,60.072 C338.411998,60.1360003 338.060002,60.172 337.7,60.18 L337.7,58.5 L335.936,58.5 Z M337.832,63.708 L337.832,66.18 L339.008,66.18 L339.008,63.708 L337.832,63.708 Z M340.352,63.708 L340.352,66.18 L341.528,66.18 L341.528,63.708 L340.352,63.708 Z M337.832,61.092 L337.832,63.42 L339.008,63.42 L339.008,61.092 L337.832,61.092 Z M341.528,61.092 L340.352,61.092 L340.352,63.42 L341.528,63.42 L341.528,61.092 Z M346.952,67.176 C348.408007,66.3919961 349.551996,65.5840042 350.384,64.752 C349.839997,64.0479965 349.436001,63.0760062 349.172,61.836 L348.152,61.836 L348.152,61.548 L352.268,61.548 L352.808,60.804 L354.584,61.872 L353.984,62.328 C353.519998,63.2240045 353.020003,63.9599971 352.484,64.536 C353.356004,64.9120019 354.427994,65.1679993 355.7,65.304 L355.7,65.376 C355.163997,65.776002 354.752001,66.3519962 354.464,67.104 C353.055993,66.703998 351.984004,66.2120029 351.248,65.628 C350.143994,66.3960038 348.724009,66.9319985 346.988,67.236 L346.952,67.176 Z M348.968,56.508 L350.852,56.952 L351.908,56.952 L352.34,56.232 L353.912,56.988 L353.516,57.468 L353.516,59.088 C353.5,59.3520013 353.619999,59.4760001 353.876,59.46 L354.044,59.46 C354.284001,59.468 354.475999,59.376001 354.62,59.184 L354.668,59.184 C355.316003,59.6560024 355.624,59.995999 355.592,60.204 C355.471999,60.5080015 355.004004,60.6719999 354.188,60.696 L353.324,60.696 C352.459996,60.7440002 352.052,60.2920048 352.1,59.34 L352.1,57.24 L350.504,57.24 L350.504,57.66 C350.632001,59.4760091 349.68801,60.8079958 347.672,61.656 L347.624,61.596 C348.192003,60.9639968 348.563999,60.3960025 348.74,59.892 C348.932001,59.3959975 349.024,58.7160043 349.016,57.852 C349.016,57.3639976 349,56.916002 348.968,56.508 Z M345.644,60.564 L344.372,60.564 L344.372,60.276 L345.452,60.276 L345.884,59.496 L347.504,60.324 L347.036,60.828 L347.036,64.104 L348.728,63.348 L348.764,63.408 C348.011996,64.2960044 347.236004,65.1119963 346.436,65.856 L346.172,66.432 L345.092,64.968 C345.476002,64.7439989 345.66,64.4480018 345.644,64.08 L345.644,60.564 Z M352.4,61.836 L349.292,61.836 C349.900003,62.6840042 350.539997,63.3439976 351.212,63.816 C351.668002,63.2399971 352.063998,62.5800037 352.4,61.836 Z M345.236,56.496 L345.272,56.46 C346.824008,56.7560015 347.58,57.2439966 347.54,57.924 C347.46,58.4920028 347.140003,58.8159996 346.58,58.896 C346.299999,58.904 346.112,58.708002 346.016,58.308 C345.823999,57.5879964 345.564002,56.9840024 345.236,56.496 Z M362.828,56.508 L365.012,56.808 L364.484,57.3 L364.484,60.732 L365.36,60.732 L366.248,59.544 L367.76,60.684 C367.816,60.7320002 367.844,60.7759998 367.844,60.816 C367.82,60.9360006 367.696001,61.0039999 367.472,61.02 L364.484,61.02 L364.484,62.724 C364.484,63.0840018 364.5,64.4479882 364.532,66.816 C364.54,67.0000009 364.460001,67.1039999 364.292,67.128 C363.811998,67.2160004 363.324002,67.256 362.828,67.248 C362.876,65.1759896 362.9,63.8280031 362.9,63.204 L362.9,61.02 L360.224,61.02 L360.224,60.732 L362.9,60.732 L362.9,59.004 C362.892,58.1239956 362.868,57.2920039 362.828,56.508 Z M359.228,64.26 L361.196,63.276 L361.232,63.312 C360.351996,64.4080055 359.480004,65.3479961 358.616,66.132 L358.34,66.708 L357.188,65.124 C357.572002,64.8999989 357.756,64.604 357.74,64.236 L357.74,60.708 L356.252,60.708 L356.252,60.42 L357.476,60.42 L357.956,59.604 L359.756,60.48 L359.228,61.02 L359.228,64.26 Z M357.344,56.532 L357.368,56.484 C358.928008,56.7560014 359.688,57.2519964 359.648,57.972 C359.584,58.5560029 359.264003,58.8799997 358.688,58.944 C358.327998,58.944 358.104,58.7520019 358.016,58.368 C357.855999,57.6159962 357.632001,57.0040024 357.344,56.532 Z M372.308,57.948 L372.284,57.876 C373.996009,57.4919981 375.255996,57.1440016 376.064,56.832 C376.616003,56.631999 377.115998,56.4120012 377.564,56.172 L379.028,57.516 L378.32,57.516 C377.735997,57.6040004 377.100003,57.6839996 376.412,57.756 L376.412,59.976 L377.54,59.976 L378.296,58.968 L379.568,59.928 C379.616,59.9600002 379.64,60.0079997 379.64,60.072 C379.608,60.1840006 379.484001,60.2479999 379.268,60.264 L376.412,60.264 L376.412,62.34 L376.976,62.34 L377.408,61.548 L379.124,62.412 L378.656,62.904 L378.656,64.308 C378.656,64.8520027 378.672,65.623995 378.704,66.624 C378.728,66.8480011 378.636001,66.9759998 378.428,67.008 C378.091998,67.0800004 377.680002,67.1239999 377.192,67.14 L377.192,66 L374.228,66 L374.228,66.624 C374.236,66.8720012 374.124001,67.0159998 373.892,67.056 C373.475998,67.1360004 373.092002,67.176 372.74,67.176 C372.772,66.0159942 372.788,65.1960024 372.788,64.716 L372.788,64.152 C372.115997,64.960004 371.424004,65.6919967 370.712,66.348 L370.484,66.96 L369.344,65.448 C369.696002,65.255999 369.864,64.9760018 369.848,64.608 L369.848,60.948 L368.384,60.948 L368.384,60.66 L369.656,60.66 L370.112,59.832 L371.72,60.648 L371.264,61.128 L371.264,64.584 L372.788,63.936 L372.788,63.744 C372.788,62.9199959 372.78,62.312002 372.764,61.92 L374.336,62.34 L374.924,62.34 L374.924,60.264 L372.068,60.264 L372.068,59.976 L374.924,59.976 L374.924,57.876 C373.907995,57.9320003 373.036004,57.956 372.308,57.948 Z M377.192,62.628 L374.228,62.628 L374.228,65.712 L377.192,65.712 L377.192,62.628 Z M369.392,56.484 L369.428,56.448 C370.956008,56.7040013 371.712,57.1919964 371.696,57.912 C371.6,58.4880029 371.260003,58.8159996 370.676,58.896 C370.387999,58.896 370.208,58.7280017 370.136,58.392 C369.991999,57.7199966 369.744002,57.084003 369.392,56.484 Z" id="夜猫设计话" fill="#A8B2BA" fill-rule="nonzero" opacity="0.400000006"></path>
        </g>
    </g>
</svg>