<?xml version="1.0" encoding="UTF-8"?>
<svg width="1200px" height="200px" viewBox="0 0 1200 200" version="1.1" xmlns="http://www.w3.org/2000/svg" xmlns:xlink="http://www.w3.org/1999/xlink">
    <!-- Generator: Sketch 56.3 (81716) - https://sketch.com -->
    <title>PC端banner模板备份 3</title>
    <desc>Created with Sketch.</desc>
    <g id="PC端banner模板备份-3" stroke="none" stroke-width="1" fill="none" fill-rule="evenodd">
        <rect fill="#000000" x="0" y="0" width="1200" height="200"></rect>
        <g id="编组-2" transform="translate(426.000000, 59.000000)">
            <g id="编组">
                <polygon id="矩形" fill="#FF3040" opacity="0.5" points="12.0547945 44.1241156 352 44.1241156 339.945205 56.1241156 0 56.1241156"></polygon>
                <g id="编组-3" transform="translate(4.000000, 0.000000)" fill="#A8B2BA" fill-rule="nonzero">
                    <path d="M6.594,27.234 C5.376,28.704 4.074,30.132 2.73,31.56 L1.386,27.234 C5.586,22.488 8.736,16.902 10.752,10.476 L14.742,12.366 C13.776,15.306 12.516,18.162 10.962,20.85 L10.962,49.368 L6.594,49.368 L6.594,27.234 Z M13.104,20.304 L21.336,20.304 C21.336,19.674 21.378,19.044 21.378,18.414 L21.378,10.644 L25.62,10.644 L25.62,18.414 C25.62,19.086 25.578,19.716 25.578,20.304 L39.186,20.304 L39.186,24.504 L30.87,24.504 L30.87,43.824 C30.87,44.412 31.164,44.706 31.752,44.706 L34.86,44.706 C35.196,44.706 35.49,44.454 35.826,44.034 C36.078,43.572 36.288,41.598 36.414,38.112 L40.32,39.414 C39.9,43.95 39.438,46.638 38.85,47.394 C38.136,48.192 37.17,48.612 35.952,48.696 L30.576,48.696 C27.972,48.696 26.712,47.31 26.712,44.622 L26.712,24.504 L25.326,24.504 C24.318,35.508 20.874,43.782 14.994,49.326 L11.718,46.47 C17.01,41.598 20.16,34.29 21.084,24.504 L13.104,24.504 L13.104,20.304 Z M30.954,11.064 C33.6,12.828 35.826,14.634 37.632,16.482 L34.65,19.464 C33.096,17.7 30.912,15.768 28.14,13.752 L30.954,11.064 Z M55.818,10.098 L59.934,12.03 C58.548,15.432 56.7,18.666 54.432,21.732 L54.432,49.452 L50.064,49.452 L50.064,26.856 C48.426,28.494 46.662,30.09 44.814,31.644 L43.386,27.066 C48.972,22.278 53.13,16.608 55.818,10.098 Z M76.02,48.696 L68.208,48.696 C64.68,48.696 62.916,46.932 62.916,43.446 L62.916,32.064 C61.488,32.82 60.018,33.534 58.548,34.248 L56.574,30.09 C58.8,29.082 60.9,28.032 62.916,26.94 L62.916,10.812 L67.284,10.812 L67.284,24.252 C71.274,21.564 74.802,18.54 77.868,15.18 L80.934,18.666 C76.902,22.782 72.366,26.394 67.284,29.544 L67.284,42.816 C67.284,43.95 67.914,44.538 69.216,44.538 L75.264,44.538 C76.188,44.538 76.86,44.202 77.28,43.614 C77.7,42.984 77.952,40.8 78.036,37.062 L82.068,38.448 C81.774,43.278 81.228,46.218 80.43,47.226 C79.632,48.192 78.162,48.696 76.02,48.696 Z M86.94,15.012 L100.296,15.012 C103.362,15.012 105.798,15.684 107.562,17.07 C109.41,18.582 110.376,20.766 110.376,23.622 C110.376,25.176 109.956,26.562 109.116,27.78 C108.192,29.124 106.89,30.006 105.294,30.426 L105.294,30.51 C107.898,31.098 109.368,32.82 109.704,35.76 L110.208,40.59 C110.376,42.438 111.006,43.908 112.014,45 L106.68,45 C105.966,44.076 105.546,42.774 105.378,41.094 L105,37.398 C104.832,35.76 104.328,34.584 103.488,33.87 C102.606,33.114 101.304,32.778 99.624,32.778 L91.854,32.778 L91.854,45 L86.94,45 L86.94,15.012 Z M91.854,19.212 L91.854,28.578 L99.624,28.578 C101.556,28.578 103.026,28.158 104.034,27.36 C104.958,26.52 105.42,25.344 105.42,23.832 C105.42,22.194 104.958,21.018 104.034,20.304 C103.11,19.548 101.64,19.212 99.624,19.212 L91.854,19.212 Z M116.214,15.012 L128.646,15.012 C135.87,15.012 139.524,18.078 139.524,24.21 C139.524,30.384 135.87,33.492 128.562,33.492 L121.128,33.492 L121.128,45 L116.214,45 L116.214,15.012 Z M121.128,19.212 L121.128,29.292 L128.268,29.292 C130.452,29.292 132.048,28.872 133.056,28.116 C134.064,27.318 134.568,26.016 134.568,24.21 C134.568,22.404 134.022,21.144 133.014,20.388 C132.006,19.59 130.41,19.212 128.268,19.212 L121.128,19.212 Z M156.744,14.424 C160.272,14.424 163.212,15.348 165.48,17.196 C167.664,18.96 168.966,21.396 169.428,24.42 L164.64,24.42 C164.136,22.446 163.212,21.018 161.826,20.094 C160.482,19.17 158.76,18.75 156.66,18.75 C153.51,18.75 151.158,19.8 149.562,21.984 C148.092,23.916 147.378,26.604 147.378,30.048 C147.378,33.576 148.092,36.306 149.52,38.196 C151.074,40.212 153.51,41.262 156.786,41.262 C158.928,41.262 160.692,40.716 162.036,39.708 C163.464,38.574 164.472,36.852 165.06,34.584 L169.848,34.584 C169.176,38.112 167.622,40.842 165.144,42.816 C162.834,44.664 160.062,45.588 156.828,45.588 C151.83,45.588 148.092,43.992 145.656,40.884 C143.514,38.196 142.464,34.584 142.464,30.048 C142.464,25.596 143.556,21.942 145.782,19.17 C148.302,15.978 151.956,14.424 156.744,14.424 Z M196.644,10.518 L200.886,10.518 L200.886,12.828 L210.84,12.828 L210.84,16.356 L200.886,16.356 L200.886,18.12 L209.37,18.12 L209.37,21.564 L200.886,21.564 L200.886,23.37 L211.848,23.37 L211.848,26.982 L185.808,26.982 L185.808,23.37 L196.644,23.37 L196.644,21.564 L188.748,21.564 L188.748,18.12 L196.644,18.12 L196.644,16.356 L186.984,16.356 L186.984,12.828 L196.644,12.828 L196.644,10.518 Z M192.822,37.566 L192.822,39.624 L204.834,39.624 L204.834,37.566 L192.822,37.566 Z M204.834,34.29 L204.834,32.19 L192.822,32.19 L192.822,34.29 L204.834,34.29 Z M192.822,42.942 L192.822,49.368 L188.706,49.368 L188.706,28.662 L209.034,28.662 L209.034,45.042 C209.034,47.73 207.648,49.116 204.918,49.116 L201.432,49.116 L200.382,45.294 L203.7,45.462 C204.456,45.462 204.834,45 204.834,44.118 L204.834,42.942 L192.822,42.942 Z M179.004,10.812 C181.65,12.828 183.918,14.886 185.808,16.902 L182.784,19.926 C181.188,17.994 178.878,15.978 175.896,13.794 L179.004,10.812 Z M173.04,22.908 L182.868,22.908 L182.868,40.044 C183.876,39.078 184.884,38.028 185.934,36.936 L187.11,41.556 C184.59,44.034 181.944,46.26 179.172,48.234 L177.534,44.286 C178.248,43.656 178.626,42.858 178.626,41.934 L178.626,27.108 L173.04,27.108 L173.04,22.908 Z M216.342,17.742 L232.596,17.742 L232.596,10.476 L237.048,10.476 L237.048,17.742 L244.356,17.742 C243.096,16.314 241.458,14.844 239.526,13.332 L242.382,10.644 C244.65,12.324 246.624,14.004 248.22,15.684 L246.162,17.742 L252.63,17.742 L252.63,21.984 L237.048,21.984 L237.048,24.168 C238.056,26.268 239.274,28.284 240.618,30.216 C243.348,28.074 245.7,25.68 247.632,22.992 L250.908,25.848 C248.682,28.62 246.036,31.098 242.97,33.198 C246.078,36.768 249.816,39.918 254.184,42.648 L251.118,46.26 C245.112,42.018 240.408,36.894 237.048,30.93 L237.048,44.748 C237.048,47.646 235.62,49.116 232.806,49.116 L226.968,49.116 L226.002,44.916 C227.85,45.084 229.572,45.21 231.252,45.21 C232.134,45.21 232.596,44.664 232.596,43.614 L232.596,34.374 C228.438,39.204 223.65,43.278 218.232,46.638 L215.838,42.648 C222.138,39.288 227.724,34.836 232.596,29.25 L232.596,21.984 L216.342,21.984 L216.342,17.742 Z M221.256,23.874 C223.944,26.352 226.254,28.83 228.144,31.266 L225.162,34.206 C223.566,31.938 221.214,29.46 218.19,26.814 L221.256,23.874 Z M261.366,10.854 C264.138,13.08 266.532,15.306 268.464,17.49 L265.398,20.514 C263.76,18.414 261.408,16.104 258.384,13.668 L261.366,10.854 Z M285.306,48.696 C282.996,48.696 280.476,48.654 277.788,48.612 C275.058,48.57 272.832,48.318 271.068,47.898 C269.388,47.394 267.918,46.428 266.658,45 C266.07,44.286 265.566,43.95 265.104,43.95 C264.264,43.95 262.836,45.84 260.736,49.62 L257.544,46.596 C259.602,43.236 261.45,41.094 263.13,40.212 L263.13,28.662 L257.586,28.662 L257.586,24.63 L267.204,24.63 L267.204,40.59 L267.666,41.052 C268.632,42.144 269.598,42.984 270.606,43.53 C271.278,43.866 272.118,44.16 273.126,44.328 L271.11,40.674 C274.638,39.876 277.662,38.91 280.182,37.734 C279.09,36.558 277.788,35.382 276.36,34.206 L279.174,31.518 C280.854,32.946 282.324,34.332 283.584,35.76 C285.936,34.122 287.658,32.232 288.75,30.132 L278.418,30.132 C276.402,32.064 274.176,33.786 271.782,35.214 L269.052,31.938 C272.622,30.09 275.772,27.486 278.46,24.21 L271.026,24.21 L271.026,11.904 L294.42,11.904 L294.42,24.21 L280.602,24.21 L282.954,24.756 C282.534,25.344 282.114,25.89 281.736,26.436 L293.118,26.436 L293.118,29.922 C291.102,36.852 284.466,41.64 273.252,44.328 C274.134,44.454 275.1,44.538 276.15,44.58 C278.586,44.622 281.4,44.664 284.676,44.664 C286.776,44.664 288.876,44.622 291.06,44.622 C293.202,44.538 294.84,44.454 295.974,44.37 L294.924,48.696 L285.306,48.696 Z M290.556,20.43 L290.556,15.684 L287.49,15.684 L287.49,20.43 L290.556,20.43 Z M284.13,20.43 L284.13,15.684 L281.232,15.684 L281.232,20.43 L284.13,20.43 Z M277.872,20.43 L277.872,15.684 L274.89,15.684 L274.89,20.43 L277.872,20.43 Z M306.978,22.32 L311.22,22.32 L311.22,27.948 L315.378,27.948 L315.378,31.896 L311.22,31.896 L311.22,36.348 C312.858,36.012 314.412,35.676 315.924,35.34 L315.924,39.372 C314.412,39.75 312.816,40.128 311.22,40.464 L311.22,49.41 L306.978,49.41 L306.978,41.262 C304.626,41.682 302.232,42.018 299.712,42.354 L299.124,38.154 C301.896,37.818 304.5,37.482 306.978,37.104 L306.978,31.896 L300.636,31.896 L299.712,28.032 C300.678,25.932 301.602,23.244 302.442,20.052 L299.502,20.052 L299.502,15.936 L303.408,15.936 C303.786,14.214 304.164,12.408 304.5,10.518 L308.658,11.148 C308.322,12.828 308.028,14.424 307.692,15.936 L315.924,15.936 L315.924,20.052 L306.684,20.052 C305.886,22.992 305.046,25.596 304.122,27.948 L306.978,27.948 L306.978,22.32 Z M318.108,11.82 L335.58,11.82 L335.58,21.48 L318.108,21.48 L318.108,11.82 Z M331.422,18.204 L331.422,15.264 L322.308,15.264 L322.308,18.204 L331.422,18.204 Z M318.234,27.024 L315.672,27.024 L315.672,23.244 L337.722,23.244 L337.722,27.024 L334.908,27.024 L334.908,40.59 L338.142,40.086 L338.142,43.782 L334.908,44.37 L334.908,49.452 L330.708,49.452 L330.708,45 C325.92,45.672 320.712,46.302 315.126,46.806 L314.58,42.9 C315.84,42.774 317.058,42.69 318.234,42.606 L318.234,27.024 Z M330.708,27.024 L322.35,27.024 L322.35,29.544 L330.708,29.544 L330.708,27.024 Z M322.35,42.228 C325.29,41.892 328.104,41.556 330.708,41.22 L330.708,39.162 L322.35,39.162 L322.35,42.228 Z M322.35,35.634 L330.708,35.634 L330.708,33.072 L322.35,33.072 L322.35,35.634 Z" id="优化RPC请求逻辑"></path>
                </g>
            </g>
            <path d="M10.96,78 L10.96,69.6 L13.72,69.6 C14.3920034,69.6 14.9859974,69.7179988 15.502,69.954 C16.0180026,70.1900012 16.4519982,70.503998 16.804,70.896 C17.1560018,71.288002 17.4219991,71.7359975 17.602,72.24 C17.7820009,72.7440025 17.872,73.2639973 17.872,73.8 C17.872,74.3360027 17.7820009,74.8559975 17.602,75.36 C17.4219991,75.8640025 17.1560018,76.311998 16.804,76.704 C16.4519982,77.096002 16.0180026,77.4099988 15.502,77.646 C14.9859974,77.8820012 14.3920034,78 13.72,78 L10.96,78 Z M13.672,76.5 C14.0160017,76.5 14.3379985,76.4300007 14.638,76.29 C14.9380015,76.1499993 15.2019989,75.9600012 15.43,75.72 C15.6580011,75.4799988 15.8379993,75.1960016 15.97,74.868 C16.1020007,74.5399984 16.168,74.1840019 16.168,73.8 C16.168,73.4159981 16.1020007,73.0600016 15.97,72.732 C15.8379993,72.4039984 15.6580011,72.1200012 15.43,71.88 C15.2019989,71.6399988 14.9380015,71.4500007 14.638,71.31 C14.3379985,71.1699993 14.0160017,71.1 13.672,71.1 L12.664,71.1 L12.664,76.5 L13.672,76.5 Z M23.896,78 L23.896,77.376 C23.5839984,77.6560014 23.2540017,77.8539994 22.906,77.97 C22.5579983,78.0860006 22.1920019,78.144 21.808,78.144 C21.3759978,78.144 20.9740019,78.0660008 20.602,77.91 C20.2299981,77.7539992 19.9100013,77.5320014 19.642,77.244 C19.3739987,76.9559986 19.1620008,76.612002 19.006,76.212 C18.8499992,75.811998 18.772,75.3680024 18.772,74.88 C18.772,74.3919976 18.8499992,73.948002 19.006,73.548 C19.1620008,73.147998 19.3739987,72.8040014 19.642,72.516 C19.9100013,72.2279986 20.2299981,72.0060008 20.602,71.85 C20.9740019,71.6939992 21.3759978,71.616 21.808,71.616 C22.1840019,71.616 22.5459983,71.6719994 22.894,71.784 C23.2420017,71.8960006 23.5719984,72.0919986 23.884,72.372 L23.884,71.796 L25.468,71.796 L25.468,78 L23.896,78 Z M23.788,74.124 C23.5559988,73.7639982 23.2880015,73.5140007 22.984,73.374 C22.6799985,73.2339993 22.3960013,73.164 22.132,73.164 C21.9159989,73.164 21.710001,73.1999996 21.514,73.272 C21.317999,73.3440004 21.1440008,73.4499993 20.992,73.59 C20.8399992,73.7300007 20.7180005,73.9079989 20.626,74.124 C20.5339995,74.3400011 20.488,74.5919986 20.488,74.88 C20.488,75.1680014 20.5339995,75.4199989 20.626,75.636 C20.7180005,75.8520011 20.8399992,76.0299993 20.992,76.17 C21.1440008,76.3100007 21.317999,76.4159996 21.514,76.488 C21.710001,76.5600004 21.9159989,76.596 22.132,76.596 C22.3960013,76.596 22.6799985,76.5280007 22.984,76.392 C23.2880015,76.2559993 23.5559988,76.0080018 23.788,75.648 L23.788,74.124 Z M26.92,79.26 C27.0560007,79.3080002 27.1819994,79.3419999 27.298,79.362 C27.4140006,79.3820001 27.5239995,79.392 27.628,79.392 C27.9880018,79.392 28.2779989,79.2800011 28.498,79.056 C28.7180011,78.8319989 28.8999993,78.5400018 29.044,78.18 L29.188,77.82 L26.308,71.796 L28.252,71.796 L30.016,75.828 L31.552,71.796 L33.496,71.796 L30.52,78.6 C30.3519992,78.9840019 30.172001,79.3279985 29.98,79.632 C29.787999,79.9360015 29.5800011,80.1939989 29.356,80.406 C29.1319989,80.6180011 28.8840014,80.7779995 28.612,80.886 C28.3399986,80.9940005 28.0400016,81.048 27.712,81.048 C27.3519982,81.048 26.9440023,80.9760007 26.488,80.832 L26.92,79.26 Z M39.1,78 L39.1,77.376 C38.7879984,77.6560014 38.4580017,77.8539994 38.11,77.97 C37.7619983,78.0860006 37.3960019,78.144 37.012,78.144 C36.5799978,78.144 36.1780019,78.0660008 35.806,77.91 C35.4339981,77.7539992 35.1140013,77.5320014 34.846,77.244 C34.5779987,76.9559986 34.3660008,76.612002 34.21,76.212 C34.0539992,75.811998 33.976,75.3680024 33.976,74.88 C33.976,74.3919976 34.0539992,73.948002 34.21,73.548 C34.3660008,73.147998 34.5779987,72.8040014 34.846,72.516 C35.1140013,72.2279986 35.4339981,72.0060008 35.806,71.85 C36.1780019,71.6939992 36.5799978,71.616 37.012,71.616 C37.3720018,71.616 37.7159984,71.6659995 38.044,71.766 C38.3720016,71.8660005 38.6879985,72.0399988 38.992,72.288 L38.992,69.6 L40.672,69.6 L40.672,78 L39.1,78 Z M38.992,74.124 C38.7599988,73.7639982 38.4920015,73.5140007 38.188,73.374 C37.8839985,73.2339993 37.6000013,73.164 37.336,73.164 C37.1199989,73.164 36.914001,73.1999996 36.718,73.272 C36.521999,73.3440004 36.3500007,73.4499993 36.202,73.59 C36.0539993,73.7300007 35.9340005,73.9079989 35.842,74.124 C35.7499995,74.3400011 35.704,74.5919986 35.704,74.88 C35.704,75.1680014 35.7499995,75.4199989 35.842,75.636 C35.9340005,75.8520011 36.0539993,76.0299993 36.202,76.17 C36.3500007,76.3100007 36.521999,76.4159996 36.718,76.488 C36.914001,76.5600004 37.1199989,76.596 37.336,76.596 C37.6000013,76.596 37.8839985,76.5280007 38.188,76.392 C38.4920015,76.2559993 38.7599988,76.0080018 38.992,75.648 L38.992,74.124 Z M47.116,78 L47.116,77.376 C46.8039984,77.6560014 46.4740017,77.8539994 46.126,77.97 C45.7779983,78.0860006 45.4120019,78.144 45.028,78.144 C44.5959978,78.144 44.1940019,78.0660008 43.822,77.91 C43.4499981,77.7539992 43.1300013,77.5320014 42.862,77.244 C42.5939987,76.9559986 42.3820008,76.612002 42.226,76.212 C42.0699992,75.811998 41.992,75.3680024 41.992,74.88 C41.992,74.3919976 42.0699992,73.948002 42.226,73.548 C42.3820008,73.147998 42.5939987,72.8040014 42.862,72.516 C43.1300013,72.2279986 43.4499981,72.0060008 43.822,71.85 C44.1940019,71.6939992 44.5959978,71.616 45.028,71.616 C45.4040019,71.616 45.7659983,71.6719994 46.114,71.784 C46.4620017,71.8960006 46.7919984,72.0919986 47.104,72.372 L47.104,71.796 L48.688,71.796 L48.688,78 L47.116,78 Z M47.008,74.124 C46.7759988,73.7639982 46.5080015,73.5140007 46.204,73.374 C45.8999985,73.2339993 45.6160013,73.164 45.352,73.164 C45.1359989,73.164 44.930001,73.1999996 44.734,73.272 C44.537999,73.3440004 44.3640008,73.4499993 44.212,73.59 C44.0599992,73.7300007 43.9380005,73.9079989 43.846,74.124 C43.7539995,74.3400011 43.708,74.5919986 43.708,74.88 C43.708,75.1680014 43.7539995,75.4199989 43.846,75.636 C43.9380005,75.8520011 44.0599992,76.0299993 44.212,76.17 C44.3640008,76.3100007 44.537999,76.4159996 44.734,76.488 C44.930001,76.5600004 45.1359989,76.596 45.352,76.596 C45.6160013,76.596 45.8999985,76.5280007 46.204,76.392 C46.5080015,76.2559993 46.7759988,76.0080018 47.008,75.648 L47.008,74.124 Z M50.14,79.26 C50.2760007,79.3080002 50.4019994,79.3419999 50.518,79.362 C50.6340006,79.3820001 50.7439995,79.392 50.848,79.392 C51.2080018,79.392 51.4979989,79.2800011 51.718,79.056 C51.9380011,78.8319989 52.1199993,78.5400018 52.264,78.18 L52.408,77.82 L49.528,71.796 L51.472,71.796 L53.236,75.828 L54.772,71.796 L56.716,71.796 L53.74,78.6 C53.5719992,78.9840019 53.392001,79.3279985 53.2,79.632 C53.007999,79.9360015 52.8000011,80.1939989 52.576,80.406 C52.3519989,80.6180011 52.1040014,80.7779995 51.832,80.886 C51.5599986,80.9940005 51.2600016,81.048 50.932,81.048 C50.5719982,81.048 50.1640023,80.9760007 49.708,80.832 L50.14,79.26 Z M62.032,78 L62.032,77.46 C61.7599986,77.668001 61.4600016,77.8339994 61.132,77.958 C60.8039984,78.0820006 60.4480019,78.144 60.064,78.144 C59.271996,78.144 58.6360024,77.8960025 58.156,77.4 C57.6759976,76.9039975 57.436,76.1840047 57.436,75.24 L57.436,71.796 L59.116,71.796 L59.116,75.108 C59.116,75.3640013 59.1539996,75.5819991 59.23,75.762 C59.3060004,75.9420009 59.4059994,76.0919994 59.53,76.212 C59.6540006,76.3320006 59.7959992,76.4199997 59.956,76.476 C60.1160008,76.5320003 60.2799992,76.56 60.448,76.56 C60.7520015,76.56 61.0519985,76.4780008 61.348,76.314 C61.6440015,76.1499992 61.8719992,75.9120016 62.032,75.6 L62.032,71.796 L63.712,71.796 L63.712,78 L62.032,78 Z M65.392,80.82 L65.392,71.796 L66.964,71.796 L66.964,72.384 C67.2760016,72.1039986 67.6059983,71.9060006 67.954,71.79 C68.3020017,71.6739994 68.6679981,71.616 69.052,71.616 C69.4840022,71.616 69.8859981,71.6939992 70.258,71.85 C70.6300019,72.0060008 70.9499987,72.2279986 71.218,72.516 C71.4860013,72.8040014 71.6979992,73.147998 71.854,73.548 C72.0100008,73.948002 72.088,74.3919976 72.088,74.88 C72.088,75.3680024 72.0100008,75.811998 71.854,76.212 C71.6979992,76.612002 71.4860013,76.9559986 71.218,77.244 C70.9499987,77.5320014 70.6300019,77.7539992 70.258,77.91 C69.8859981,78.0660008 69.4840022,78.144 69.052,78.144 C68.6919982,78.144 68.3460017,78.0940005 68.014,77.994 C67.6819983,77.8939995 67.3680015,77.7200012 67.072,77.472 L67.072,80.82 L65.392,80.82 Z M67.072,75.648 C67.2960011,76.0080018 67.5599985,76.2559993 67.864,76.392 C68.1680015,76.5280007 68.4559986,76.596 68.728,76.596 C68.9440011,76.596 69.149999,76.5600004 69.346,76.488 C69.542001,76.4159996 69.7139993,76.3100007 69.862,76.17 C70.0100007,76.0299993 70.1299995,75.8520011 70.222,75.636 C70.3140005,75.4199989 70.36,75.1680014 70.36,74.88 C70.36,74.5919986 70.3140005,74.3400011 70.222,74.124 C70.1299995,73.9079989 70.0100007,73.7300007 69.862,73.59 C69.7139993,73.4499993 69.542001,73.3440004 69.346,73.272 C69.149999,73.1999996 68.9440011,73.164 68.728,73.164 C68.4559986,73.164 68.1680015,73.2339993 67.864,73.374 C67.5599985,73.5140007 67.2960011,73.7639982 67.072,74.124 L67.072,75.648 Z" id="Daydayup" fill="#A8B2BA" fill-rule="nonzero" opacity="0.400000006"></path>
            <path d="M283.852,75.756 L283.816,75.696 C284.888005,73.9199911 285.539999,72.1600087 285.772,70.416 L287.728,70.992 L287.164,71.34 C287.076,71.5960013 286.984,71.8159991 286.888,72 L288.868,72 L289.408,71.184 L291.244,72.18 L290.632,72.66 C290.095997,74.2920082 289.384004,75.5879952 288.496,76.548 C289.200004,76.8760016 290.279993,77.1159992 291.736,77.268 L291.712,77.34 C291.239998,77.6840017 290.880001,78.251996 290.632,79.044 C289.167993,78.5959978 288.108003,78.0800029 287.452,77.496 C286.491995,78.2160036 285.224008,78.8239975 283.648,79.32 L283.612,79.26 C284.908006,78.3879956 285.943996,77.5240043 286.72,76.668 C286.311998,76.1159972 285.924002,75.2800056 285.556,74.16 C285.147998,74.6400024 284.580004,75.1719971 283.852,75.756 Z M280.408,70.38 L280.408,70.092 L285.412,70.092 C285.219999,70.0359997 285.108,69.8840012 285.076,69.636 C284.98,69.0599971 284.844001,68.6560012 284.668,68.424 L284.716,68.364 C286.060007,68.3399999 286.74,68.6519968 286.756,69.3 C286.732,69.6840019 286.480002,69.9479993 286,70.092 L289.228,70.092 L290.068,68.964 L291.532,70.044 C291.588,70.0840002 291.616,70.1239998 291.616,70.164 C291.584,70.2920006 291.460001,70.3639999 291.244,70.38 L283.24,70.38 L284.896,71.088 L284.272,71.424 C283.911998,72.0400031 283.524002,72.5879976 283.108,73.068 L283.876,73.212 L283.42,73.632 L283.42,78.648 C283.428,78.9120013 283.304001,79.0639998 283.048,79.104 C282.631998,79.1680003 282.244002,79.196 281.884,79.188 C281.932,77.979994 281.956,76.7120066 281.956,75.384 L281.956,74.208 C281.475998,74.616002 280.940003,74.9999982 280.348,75.36 L280.324,75.288 C281.588006,73.6079916 282.443998,71.972008 282.892,70.38 L280.408,70.38 Z M289.06,72.288 L286.78,72.288 C286.708,72.4560008 286.612001,72.6319991 286.492,72.816 C287.596006,73.0720013 288.108,73.4399976 288.028,73.92 C287.972,74.3920024 287.704002,74.6559997 287.224,74.712 C286.943999,74.72 286.784,74.5600016 286.744,74.232 L286.708,73.98 C286.66,73.5639979 286.568001,73.2120014 286.432,72.924 C286.207999,73.316002 285.960001,73.6759984 285.688,74.004 C286.264003,74.8200041 286.827997,75.4399979 287.38,75.864 C288.164004,74.8079947 288.723998,73.6160066 289.06,72.288 Z M302.92,75.54 C302.92,75.9640021 302.932,76.7639941 302.956,77.94 C302.964,78.2680016 302.968,78.4919994 302.968,78.612 C302.984,78.8360011 302.900001,78.9599999 302.716,78.984 C302.419999,79.0560004 302.024002,79.1039999 301.528,79.128 L301.528,78.468 L297.832,78.468 L297.832,78.684 C297.864,78.9400013 297.768001,79.072 297.544,79.08 C297.119998,79.1520004 296.744002,79.184 296.416,79.176 C296.44,78.2799955 296.456,77.2400059 296.464,76.056 L296.464,74.616 C296.456,73.5119945 296.448,72.7760018 296.44,72.408 L298.144,72.804 L301.348,72.804 L301.792,72.036 L303.352,72.828 L302.92,73.356 L302.92,75.54 Z M292.384,72.468 L292.336,72.408 C292.880003,71.8319971 293.343998,71.2640028 293.728,70.704 C293.479999,70.1599973 293.104003,69.5760031 292.6,68.952 L292.648,68.892 C293.272003,69.3320022 293.759998,69.7399981 294.112,70.116 C294.448002,69.5479972 294.711999,68.960003 294.904,68.352 L296.596,69.264 L296.008,69.552 C295.623998,70.0880027 295.212002,70.555998 294.772,70.956 C295.484004,71.9720051 295.824,73.6919879 295.792,76.116 C295.808,78.0280096 295.052008,79.0519993 293.524,79.188 C293.524,78.4359962 293.136004,77.956001 292.36,77.748 L292.372,77.676 L293.512,77.748 C294.112003,77.7319999 294.424,77.124006 294.448,75.924 C294.448,75.4279975 294.44,74.976002 294.424,74.568 C293.895997,75.1360028 293.216004,75.6519977 292.384,76.116 L292.336,76.068 C293.176004,74.9479944 293.823998,73.8280056 294.28,72.708 C294.224,72.2679978 294.140001,71.8760017 294.028,71.532 C293.587998,71.8440016 293.040003,72.1559984 292.384,72.468 Z M295.936,70.5 L295.936,70.224 L297.7,70.224 L297.7,69.852 C297.7,69.2839972 297.692,68.800002 297.676,68.4 L299.428,68.7 L299.02,69.12 L299.02,70.224 L300.292,70.224 L300.292,69.648 C300.292,69.3839987 300.284,68.9720028 300.268,68.412 L302.02,68.712 L301.612,69.12 L301.612,70.224 L301.852,70.224 L302.464,69.336 L303.64,70.188 C303.688,70.2200002 303.712,70.2639997 303.712,70.32 C303.696,70.4320006 303.580001,70.492 303.364,70.5 L301.612,70.5 C301.628,70.892002 301.636,71.2719982 301.636,71.64 C301.636,71.7920008 301.560001,71.8879998 301.408,71.928 C301.127999,71.9920003 300.756002,72.0319999 300.292,72.048 L300.292,70.5 L299.02,70.5 L299.02,71.748 C299.02,71.9240009 298.932001,72.0319998 298.756,72.072 C298.411998,72.1360003 298.060002,72.172 297.7,72.18 L297.7,70.5 L295.936,70.5 Z M297.832,75.708 L297.832,78.18 L299.008,78.18 L299.008,75.708 L297.832,75.708 Z M300.352,75.708 L300.352,78.18 L301.528,78.18 L301.528,75.708 L300.352,75.708 Z M297.832,73.092 L297.832,75.42 L299.008,75.42 L299.008,73.092 L297.832,73.092 Z M301.528,73.092 L300.352,73.092 L300.352,75.42 L301.528,75.42 L301.528,73.092 Z M306.952,79.176 C308.408007,78.3919961 309.551996,77.5840042 310.384,76.752 C309.839997,76.0479965 309.436001,75.0760062 309.172,73.836 L308.152,73.836 L308.152,73.548 L312.268,73.548 L312.808,72.804 L314.584,73.872 L313.984,74.328 C313.519998,75.2240045 313.020003,75.9599971 312.484,76.536 C313.356004,76.9120019 314.427994,77.1679993 315.7,77.304 L315.7,77.376 C315.163997,77.776002 314.752001,78.3519962 314.464,79.104 C313.055993,78.703998 311.984004,78.2120029 311.248,77.628 C310.143994,78.3960038 308.724009,78.9319985 306.988,79.236 L306.952,79.176 Z M308.968,68.508 L310.852,68.952 L311.908,68.952 L312.34,68.232 L313.912,68.988 L313.516,69.468 L313.516,71.088 C313.5,71.3520013 313.619999,71.4760001 313.876,71.46 L314.044,71.46 C314.284001,71.468 314.475999,71.376001 314.62,71.184 L314.668,71.184 C315.316003,71.6560024 315.624,71.995999 315.592,72.204 C315.471999,72.5080015 315.004004,72.6719999 314.188,72.696 L313.324,72.696 C312.459996,72.7440002 312.052,72.2920048 312.1,71.34 L312.1,69.24 L310.504,69.24 L310.504,69.66 C310.632001,71.4760091 309.68801,72.8079958 307.672,73.656 L307.624,73.596 C308.192003,72.9639968 308.563999,72.3960025 308.74,71.892 C308.932001,71.3959975 309.024,70.7160043 309.016,69.852 C309.016,69.3639976 309,68.916002 308.968,68.508 Z M305.644,72.564 L304.372,72.564 L304.372,72.276 L305.452,72.276 L305.884,71.496 L307.504,72.324 L307.036,72.828 L307.036,76.104 L308.728,75.348 L308.764,75.408 C308.011996,76.2960044 307.236004,77.1119963 306.436,77.856 L306.172,78.432 L305.092,76.968 C305.476002,76.7439989 305.66,76.4480018 305.644,76.08 L305.644,72.564 Z M312.4,73.836 L309.292,73.836 C309.900003,74.6840042 310.539997,75.3439976 311.212,75.816 C311.668002,75.2399971 312.063998,74.5800037 312.4,73.836 Z M305.236,68.496 L305.272,68.46 C306.824008,68.7560015 307.58,69.2439966 307.54,69.924 C307.46,70.4920028 307.140003,70.8159996 306.58,70.896 C306.299999,70.904 306.112,70.708002 306.016,70.308 C305.823999,69.5879964 305.564002,68.9840024 305.236,68.496 Z M322.828,68.508 L325.012,68.808 L324.484,69.3 L324.484,72.732 L325.36,72.732 L326.248,71.544 L327.76,72.684 C327.816,72.7320002 327.844,72.7759998 327.844,72.816 C327.82,72.9360006 327.696001,73.0039999 327.472,73.02 L324.484,73.02 L324.484,74.724 C324.484,75.0840018 324.5,76.4479882 324.532,78.816 C324.54,79.0000009 324.460001,79.1039999 324.292,79.128 C323.811998,79.2160004 323.324002,79.256 322.828,79.248 C322.876,77.1759896 322.9,75.8280031 322.9,75.204 L322.9,73.02 L320.224,73.02 L320.224,72.732 L322.9,72.732 L322.9,71.004 C322.892,70.1239956 322.868,69.2920039 322.828,68.508 Z M319.228,76.26 L321.196,75.276 L321.232,75.312 C320.351996,76.4080055 319.480004,77.3479961 318.616,78.132 L318.34,78.708 L317.188,77.124 C317.572002,76.8999989 317.756,76.604 317.74,76.236 L317.74,72.708 L316.252,72.708 L316.252,72.42 L317.476,72.42 L317.956,71.604 L319.756,72.48 L319.228,73.02 L319.228,76.26 Z M317.344,68.532 L317.368,68.484 C318.928008,68.7560014 319.688,69.2519964 319.648,69.972 C319.584,70.5560029 319.264003,70.8799997 318.688,70.944 C318.327998,70.944 318.104,70.7520019 318.016,70.368 C317.855999,69.6159962 317.632001,69.0040024 317.344,68.532 Z M332.308,69.948 L332.284,69.876 C333.996009,69.4919981 335.255996,69.1440016 336.064,68.832 C336.616003,68.631999 337.115998,68.4120012 337.564,68.172 L339.028,69.516 L338.32,69.516 C337.735997,69.6040004 337.100003,69.6839996 336.412,69.756 L336.412,71.976 L337.54,71.976 L338.296,70.968 L339.568,71.928 C339.616,71.9600002 339.64,72.0079997 339.64,72.072 C339.608,72.1840006 339.484001,72.2479999 339.268,72.264 L336.412,72.264 L336.412,74.34 L336.976,74.34 L337.408,73.548 L339.124,74.412 L338.656,74.904 L338.656,76.308 C338.656,76.8520027 338.672,77.623995 338.704,78.624 C338.728,78.8480011 338.636001,78.9759998 338.428,79.008 C338.091998,79.0800004 337.680002,79.1239999 337.192,79.14 L337.192,78 L334.228,78 L334.228,78.624 C334.236,78.8720012 334.124001,79.0159998 333.892,79.056 C333.475998,79.1360004 333.092002,79.176 332.74,79.176 C332.772,78.0159942 332.788,77.1960024 332.788,76.716 L332.788,76.152 C332.115997,76.960004 331.424004,77.6919967 330.712,78.348 L330.484,78.96 L329.344,77.448 C329.696002,77.255999 329.864,76.9760018 329.848,76.608 L329.848,72.948 L328.384,72.948 L328.384,72.66 L329.656,72.66 L330.112,71.832 L331.72,72.648 L331.264,73.128 L331.264,76.584 L332.788,75.936 L332.788,75.744 C332.788,74.9199959 332.78,74.312002 332.764,73.92 L334.336,74.34 L334.924,74.34 L334.924,72.264 L332.068,72.264 L332.068,71.976 L334.924,71.976 L334.924,69.876 C333.907995,69.9320003 333.036004,69.956 332.308,69.948 Z M337.192,74.628 L334.228,74.628 L334.228,77.712 L337.192,77.712 L337.192,74.628 Z M329.392,68.484 L329.428,68.448 C330.956008,68.7040013 331.712,69.1919964 331.696,69.912 C331.6,70.4880029 331.260003,70.8159996 330.676,70.896 C330.387999,70.896 330.208,70.7280017 330.136,70.392 C329.991999,69.7199966 329.744002,69.084003 329.392,68.484 Z" id="夜猫设计话" fill="#A8B2BA" fill-rule="nonzero" opacity="0.400000006"></path>
        </g>
    </g>
</svg>