<?xml version="1.0" encoding="UTF-8"?>
<svg width="1200px" height="200px" viewBox="0 0 1200 200" version="1.1" xmlns="http://www.w3.org/2000/svg" xmlns:xlink="http://www.w3.org/1999/xlink">
    <!-- Generator: Sketch 56.3 (81716) - https://sketch.com -->
    <title>PC端banner模板备份</title>
    <desc>Created with Sketch.</desc>
    <g id="PC端banner模板备份" stroke="none" stroke-width="1" fill="none" fill-rule="evenodd">
        <rect fill="#000000" x="0" y="0" width="1200" height="200"></rect>
        <path d="M375.874,91.81 L375.494,92 C373.619324,85.3119666 371.022683,82.2086643 367.704,82.69 C364.739985,82.9180011 363.156668,84.5646513 362.954,87.63 C362.725999,90.7966825 364.815978,93.2286582 369.224,94.926 C374.442693,97.1553445 377.064667,100.271313 377.09,104.274 C377.014,110.100696 373.302703,113.052 365.956,113.128 C364.385325,113.128 362.700676,112.773337 360.902,112.064 L358.66,112.672 L358.242,102.944 L358.622,102.83 C360.116674,109.948702 362.54865,113.254669 365.918,112.748 C369.819353,112.545332 371.858666,110.734017 372.036,107.314 C372.213334,104.172651 369.692693,101.57601 364.474,99.524 C360.167312,97.8013247 358.039333,94.9893528 358.09,91.088 C358.394002,85.4639719 361.598636,82.5380011 367.704,82.31 C369.654676,82.31 371.351993,82.6899962 372.796,83.45 L375.304,82.614 L375.874,91.81 Z M386.97,92.646 L391.416,92.646 L391.416,93.026 L386.97,93.026 L386.97,108.986 C386.944667,110.835343 387.704659,111.747333 389.25,111.722 C390.111338,111.747333 391.086661,111.367337 392.176,110.582 L392.442,110.962 C390.719325,112.532675 388.844677,113.305333 386.818,113.28 C383.473983,113.254667 381.789333,111.544684 381.764,108.15 L381.764,93.026 L379.712,93.026 L379.712,92.646 C382.878682,92.9246681 384.651998,90.4166931 385.032,85.122 L386.97,85.122 L386.97,92.646 Z M413.798,111.988 L413.798,112.368 L408.934,112.976 C407.084657,113.229335 406.172667,112.406009 406.198,110.506 C404.677992,112.228675 402.651346,113.102667 400.118,113.128 C396.469982,112.975999 394.544668,111.228017 394.342,107.884 C394.113999,103.450645 398.02796,101.006002 406.084,100.55 L406.084,96.028 C405.982666,93.2666529 404.690679,91.8226673 402.208,91.696 C400.611992,91.7466669 399.11734,92.2153289 397.724,93.102 C399.928011,93.0259996 401.093333,94.0266563 401.22,96.104 C401.144,97.8266753 400.130676,98.7259996 398.18,98.802 C396.482658,98.7259996 395.596,97.8646749 395.52,96.218 C395.849335,93.0513175 398.572641,91.3793342 403.69,91.202 C408.579358,91.3286673 411.099999,93.5073122 411.252,97.738 L411.252,109.86 C411.150666,111.354674 411.999324,112.064 413.798,111.988 Z M406.084,107.808 L406.084,100.93 C401.802645,101.58867 399.674667,103.919313 399.7,107.922 C399.801334,110.55668 400.763991,111.962666 402.588,112.14 C404.817344,111.937332 405.982666,110.493347 406.084,107.808 Z M436.978,91.81 L436.978,92.19 C435.204658,92.2406669 434.128002,92.9119935 433.748,94.204 L425.692,116.244 C424.349327,119.968019 422.614011,121.792 420.486,121.716 C418.535324,121.589333 417.496667,120.563343 417.37,118.638 C417.496667,116.763324 418.433991,115.762667 420.182,115.636 C422.056676,115.762667 423.044666,116.712658 423.146,118.486 C423.171333,119.14467 422.994002,119.866663 422.614,120.652 C423.652672,119.790662 424.577329,118.245344 425.388,116.016 L425.692,115.142 L418.51,96.142 C417.699329,93.9886559 416.534008,92.6713357 415.014,92.19 L415.014,91.81 L425.692,91.81 L425.692,92.19 C423.563989,92.1393331 422.816664,92.8739924 423.45,94.394 L428.276,108.188 L433.368,94.128 C433.925336,92.8106601 432.975346,92.1646665 430.518,92.19 L430.518,91.81 L436.978,91.81 Z M470.342,112.672 L470.342,112.292 C472.368677,112.418667 473.318667,111.430677 473.192,109.328 L473.192,97.89 C473.116,94.8499848 472.064677,93.2666673 470.038,93.14 C467.428654,93.6720027 465.997335,95.7873148 465.744,99.486 L465.744,109.214 C465.617333,111.418011 466.567323,112.444001 468.594,112.292 L468.594,112.672 L457.574,112.672 L457.574,112.292 C459.727344,112.444001 460.728001,111.405344 460.576,109.176 L460.576,88.01 C460.728001,85.4259871 459.727344,84.2479989 457.574,84.476 L457.574,84.096 L465.896,82.31 C465.794666,84.6913452 465.744,87.3639852 465.744,90.328 L465.744,95.876 C467.314675,93.5199882 469.379321,92.3293335 471.938,92.304 C476.168688,92.3546669 478.309333,94.6726437 478.36,99.258 L478.36,109.29 C478.182666,111.443344 479.221322,112.444001 481.476,112.292 L481.476,112.672 L470.342,112.672 Z M505.492,112.672 L499.716,112.9 C498.47466,113.077334 497.879333,111.937346 497.93,109.48 C496.485993,112.038679 494.206016,113.305333 491.09,113.28 C487.264648,113.254667 485.339333,111.050689 485.314,106.668 L485.314,96.332 C485.440667,93.8999878 484.604676,92.7726658 482.806,92.95 L482.806,92.57 L490.938,91.202 C490.887333,92.6966741 490.849333,94.6093217 490.824,96.94 L490.824,107.922 C490.824,110.860681 491.761324,112.33 493.636,112.33 C496.34668,111.924665 497.777999,109.606688 497.93,105.376 L497.93,96.332 C498.107334,93.9506548 497.220676,92.8739989 495.27,93.102 L495.27,92.722 L503.25,91.24 C503.174,92.6586738 503.136,94.4066563 503.136,96.484 L503.136,110.202 C503.06,111.646007 503.845325,112.342667 505.492,112.292 L505.492,112.672 Z M507.392,92.988 L515.562,91.164 L515.562,94.926 C517.082008,92.5699882 519.209986,91.3793335 521.946,91.354 C526.024687,91.4300004 528.102,93.7606437 528.178,98.346 L528.178,109.176 C528.000666,111.430678 529.039322,112.469334 531.294,112.292 L531.294,112.672 L520.16,112.672 L520.16,112.292 C522.186677,112.469334 523.136667,111.443344 523.01,109.214 L523.01,96.75 C522.984667,93.6339844 522.110675,92.0380004 520.388,91.962 C517.626653,92.5193361 516.018002,94.6473148 515.562,98.346 L515.562,109.1 C515.409999,111.405345 516.35999,112.469334 518.412,112.292 L518.412,112.672 L507.392,112.672 L507.392,112.292 C509.393343,112.418667 510.343334,111.380011 510.242,109.176 L510.242,97.016 C510.394001,94.3559867 509.44401,93.1399989 507.392,93.368 L507.392,92.988 Z M546.114,91.924 L551.776,91.924 L551.776,92.684 L547.482,92.684 C549.306009,94.0266734 550.230667,96.0026536 550.256,98.612 C550.256,103.628025 547.570694,106.211999 542.2,106.364 C540.274657,106.414667 538.69134,106.098003 537.45,105.414 C536.487329,106.098003 536.018667,106.80733 536.044,107.542 C536.069333,108.27667 536.575995,108.719999 537.564,108.872 C539.109341,109.100001 540.90799,109.150667 542.96,109.024 C549.116031,108.669332 552.244666,110.328648 552.346,114.002 C552.27,118.891358 548.8627,121.361333 542.124,121.412 C536.271971,121.412 533.346,119.76535 533.346,116.472 C533.371333,114.850659 534.346657,113.584005 536.272,112.672 C534.473324,112.01333 533.586667,110.911341 533.612,109.366 C533.561333,107.744659 534.675989,106.338673 536.956,105.148 C534.954657,103.881327 533.954,101.715349 533.954,98.65 C534.258002,93.8873095 536.981308,91.4046677 542.124,91.202 C543.644008,91.202 544.973994,91.4426643 546.114,91.924 Z M535.208,116.054 C535.436001,119.220683 537.741311,120.879999 542.124,121.032 C546.228021,120.879999 548.355999,119.398014 548.508,116.586 C548.736001,114.381989 546.46869,113.318 541.706,113.394 C539.628656,113.394 537.982006,113.204002 536.766,112.824 C535.727328,113.710671 535.208,114.787327 535.208,116.054 Z M542.048,91.582 C540.274658,91.8100011 539.35,94.0773118 539.274,98.384 C539.274,103.425359 540.249324,105.958667 542.2,105.984 C544.024009,105.806666 544.936,103.248025 544.936,98.308 C544.834666,93.9759783 543.872009,91.7340008 542.048,91.582 Z M561.77,91.164 L561.77,95.23 C563.29,92.5446532 565.07599,91.202 567.128,91.202 C569.281344,91.3286673 570.421333,92.4433228 570.548,94.546 C570.421333,96.4460095 569.433343,97.4593327 567.584,97.586 C565.734657,97.4846662 564.746667,96.5346757 564.62,94.736 C564.62,93.3679932 565.227994,92.3293369 566.444,91.62 C563.682653,92.6333384 562.124668,94.7233175 561.77,97.89 L561.77,109.442 C561.592666,111.49401 562.643989,112.444001 564.924,112.292 L564.924,112.672 L553.79,112.672 L553.79,112.292 C555.76601,112.418667 556.703334,111.506676 556.602,109.556 L556.602,96.408 C556.728667,94.1026551 555.829343,93.0386658 553.904,93.216 L553.904,92.836 L561.77,91.164 Z M592.854,91.81 L592.854,92.19 C591.080658,92.2406669 590.004002,92.9119935 589.624,94.204 L581.568,116.244 C580.225327,119.968019 578.490011,121.792 576.362,121.716 C574.411324,121.589333 573.372667,120.563343 573.246,118.638 C573.372667,116.763324 574.309991,115.762667 576.058,115.636 C577.932676,115.762667 578.920666,116.712658 579.022,118.486 C579.047333,119.14467 578.870002,119.866663 578.49,120.652 C579.528672,119.790662 580.453329,118.245344 581.264,116.016 L581.568,115.142 L574.386,96.142 C573.575329,93.9886559 572.410008,92.6713357 570.89,92.19 L570.89,91.81 L581.568,91.81 L581.568,92.19 C579.439989,92.1393331 578.692663,92.8739924 579.326,94.394 L584.152,108.188 L589.244,94.128 C589.801336,92.8106601 588.851346,92.1646665 586.394,92.19 L586.394,91.81 L592.854,91.81 Z M632.45,91.81 L632.07,92 C630.195324,85.3119666 627.598683,82.2086643 624.28,82.69 C621.315985,82.9180011 619.732668,84.5646513 619.53,87.63 C619.301999,90.7966825 621.391978,93.2286582 625.8,94.926 C631.018693,97.1553445 633.640667,100.271313 633.666,104.274 C633.59,110.100696 629.878703,113.052 622.532,113.128 C620.961325,113.128 619.276676,112.773337 617.478,112.064 L615.236,112.672 L614.818,102.944 L615.198,102.83 C616.692674,109.948702 619.12465,113.254669 622.494,112.748 C626.395353,112.545332 628.434666,110.734017 628.612,107.314 C628.789334,104.172651 626.268693,101.57601 621.05,99.524 C616.743312,97.8013247 614.615333,94.9893528 614.666,91.088 C614.970002,85.4639719 618.174636,82.5380011 624.28,82.31 C626.230676,82.31 627.927993,82.6899962 629.372,83.45 L631.88,82.614 L632.45,91.81 Z M643.546,92.646 L647.992,92.646 L647.992,93.026 L643.546,93.026 L643.546,108.986 C643.520667,110.835343 644.280659,111.747333 645.826,111.722 C646.687338,111.747333 647.662661,111.367337 648.752,110.582 L649.018,110.962 C647.295325,112.532675 645.420677,113.305333 643.394,113.28 C640.049983,113.254667 638.365333,111.544684 638.34,108.15 L638.34,93.026 L636.288,93.026 L636.288,92.646 C639.454682,92.9246681 641.227998,90.4166931 641.608,85.122 L643.546,85.122 L643.546,92.646 Z M670.374,111.988 L670.374,112.368 L665.51,112.976 C663.660657,113.229335 662.748667,112.406009 662.774,110.506 C661.253992,112.228675 659.227346,113.102667 656.694,113.128 C653.045982,112.975999 651.120668,111.228017 650.918,107.884 C650.689999,103.450645 654.60396,101.006002 662.66,100.55 L662.66,96.028 C662.558666,93.2666529 661.266679,91.8226673 658.784,91.696 C657.187992,91.7466669 655.69334,92.2153289 654.3,93.102 C656.504011,93.0259996 657.669333,94.0266563 657.796,96.104 C657.72,97.8266753 656.706676,98.7259996 654.756,98.802 C653.058658,98.7259996 652.172,97.8646749 652.096,96.218 C652.425335,93.0513175 655.148641,91.3793342 660.266,91.202 C665.155358,91.3286673 667.675999,93.5073122 667.828,97.738 L667.828,109.86 C667.726666,111.354674 668.575324,112.064 670.374,111.988 Z M662.66,107.808 L662.66,100.93 C658.378645,101.58867 656.250667,103.919313 656.276,107.922 C656.377334,110.55668 657.339991,111.962666 659.164,112.14 C661.393344,111.937332 662.558666,110.493347 662.66,107.808 Z M693.554,91.81 L693.554,92.19 C691.780658,92.2406669 690.704002,92.9119935 690.324,94.204 L682.268,116.244 C680.925327,119.968019 679.190011,121.792 677.062,121.716 C675.111324,121.589333 674.072667,120.563343 673.946,118.638 C674.072667,116.763324 675.009991,115.762667 676.758,115.636 C678.632676,115.762667 679.620666,116.712658 679.722,118.486 C679.747333,119.14467 679.570002,119.866663 679.19,120.652 C680.228672,119.790662 681.153329,118.245344 681.964,116.016 L682.268,115.142 L675.086,96.142 C674.275329,93.9886559 673.110008,92.6713357 671.59,92.19 L671.59,91.81 L682.268,91.81 L682.268,92.19 C680.139989,92.1393331 679.392664,92.8739924 680.026,94.394 L684.852,108.188 L689.944,94.128 C690.501336,92.8106601 689.551346,92.1646665 687.094,92.19 L687.094,91.81 L693.554,91.81 Z M727.07,92.874 L722.168,92.874 L722.168,109.1 C721.990666,111.430678 723.029322,112.494668 725.284,112.292 L725.284,112.672 L714.15,112.672 L714.15,112.292 C716.176677,112.469334 717.126667,111.405345 717,109.1 L717,92.874 L714.15,92.874 L714.15,92.494 L717,92.494 L717,89.53 C717.076,84.792643 719.444643,82.3860004 724.106,82.31 C727.931352,82.3860004 729.907333,83.6019882 730.034,85.958 C729.932666,87.6806753 728.957343,88.5926662 727.108,88.694 C725.359991,88.6179996 724.435334,87.7313418 724.334,86.034 C724.435334,84.3113247 725.233326,83.2980015 726.728,82.994 C726.094664,82.7913323 725.360004,82.69 724.524,82.69 C723.003992,82.7660004 722.218667,84.1339867 722.168,86.794 L722.168,92.494 L727.07,92.494 L727.07,92.874 Z M739.154,91.088 C745.462032,91.3413346 748.717332,95.1412966 748.92,102.488 C748.869333,109.682703 745.5127,113.318 738.85,113.394 C732.339301,113.241999 729.020667,109.708035 728.894,102.792 C729.020667,95.1412951 732.440633,91.2400008 739.154,91.088 Z M738.888,91.468 C736.17732,91.7213346 734.771334,95.3566316 734.67,102.374 C734.720667,109.239368 736.126653,112.785999 738.888,113.014 C741.649347,112.785999 743.068,109.188702 743.144,102.222 C743.068,95.2552985 741.649347,91.6706677 738.888,91.468 Z M762.41,91.088 C768.718032,91.3413346 771.973332,95.1412966 772.176,102.488 C772.125333,109.682703 768.7687,113.318 762.106,113.394 C755.595301,113.241999 752.276667,109.708035 752.15,102.792 C752.276667,95.1412951 755.696633,91.2400008 762.41,91.088 Z M762.144,91.468 C759.43332,91.7213346 758.027334,95.3566316 757.926,102.374 C757.976667,109.239368 759.382653,112.785999 762.144,113.014 C764.905347,112.785999 766.324,109.188702 766.4,102.222 C766.324,95.2552985 764.905347,91.6706677 762.144,91.468 Z M774.684,112.672 L774.684,112.292 C776.913344,112.469334 777.952001,111.392678 777.8,109.062 L777.8,88.428 C777.952001,85.7679867 776.951344,84.5519989 774.798,84.78 L774.798,84.4 L783.12,82.31 L783.12,109.024 C782.967999,111.354678 783.955989,112.444001 786.084,112.292 L786.084,112.672 L774.684,112.672 Z M787.908,92.988 L795.926,91.354 L795.926,109.024 C795.723332,111.405345 796.761989,112.494668 799.042,112.292 L799.042,112.672 L787.642,112.672 L787.642,112.292 C789.871344,112.444001 790.910001,111.367345 790.758,109.062 L790.758,96.864 C790.859334,94.3813209 789.909343,93.2159992 787.908,93.368 L787.908,92.988 Z M793.418,82.006 C795.292676,82.1326673 796.280666,83.2219897 796.382,85.274 C796.306,87.3513437 795.31801,88.4406662 793.418,88.542 C791.51799,88.4659996 790.53,87.3766772 790.454,85.274 C790.53,83.1713228 791.51799,82.0820004 793.418,82.006 Z M815.04,98.346 L814.66,98.46 C813.139992,93.6466426 811.278011,91.3539989 809.074,91.582 C806.920656,91.6833338 805.793334,92.8233224 805.692,95.002 C805.692,96.9526764 807.186652,98.561327 810.176,99.828 C814.077353,101.449341 816.002667,103.754652 815.952,106.744 C815.825333,110.949354 813.444023,113.127999 808.808,113.28 C807.110658,113.305333 805.489341,113.02667 803.944,112.444 L802.158,112.824 L801.55,105.452 L801.93,105.338 C803.652675,110.734027 805.83132,113.254668 808.466,112.9 C810.796678,112.798666 812,111.595345 812.076,109.29 C812.101333,107.31399 810.277352,105.591341 806.604,104.122 C803.107983,102.72866 801.372667,100.550015 801.398,97.586 C801.474,93.4313126 803.89331,91.3033338 808.656,91.202 C810.302675,91.202 811.632662,91.4426643 812.646,91.924 L814.47,91.354 L815.04,98.346 Z M831.456,112.672 L831.456,112.292 C833.482677,112.418667 834.432667,111.430677 834.306,109.328 L834.306,97.89 C834.23,94.8499848 833.178677,93.2666673 831.152,93.14 C828.542654,93.6720027 827.111335,95.7873148 826.858,99.486 L826.858,109.214 C826.731333,111.418011 827.681323,112.444001 829.708,112.292 L829.708,112.672 L818.688,112.672 L818.688,112.292 C820.841344,112.444001 821.842001,111.405344 821.69,109.176 L821.69,88.01 C821.842001,85.4259871 820.841344,84.2479989 818.688,84.476 L818.688,84.096 L827.01,82.31 C826.908666,84.6913452 826.858,87.3639852 826.858,90.328 L826.858,95.876 C828.428675,93.5199882 830.493321,92.3293335 833.052,92.304 C837.282688,92.3546669 839.423333,94.6726437 839.474,99.258 L839.474,109.29 C839.296666,111.443344 840.335322,112.444001 842.59,112.292 L842.59,112.672 L831.456,112.672 Z" id="StayhungryStayfoolish" fill="#A8B2BA" fill-rule="nonzero"></path>
    </g>
</svg>